<svg width="347" height="406" viewBox="0 0 347 406" fill="none" xmlns="http://www.w3.org/2000/svg">
<path d="M208.392 283.217C206.464 243.487 217.935 226.168 246.612 218.996C268.116 216.61 296.791 233.138 301.579 268.88C306.367 304.623 301.568 331.296 263.338 336.074C236.031 334.547 215.781 340.498 208.392 283.217Z" fill="#EFC1AB"/>
<path d="M298.257 256.855C288.676 231.513 277.272 224.154 247.333 219.025C221.283 227.023 215.679 234.864 210.23 253.945C206.72 307.671 215.323 313.606 225.508 328.877L229.873 351.43C239.369 364.58 242.702 371.062 242.968 379.802C241.509 394.408 240.91 403.291 235.693 405.992C226.968 401.893 222.295 399.236 218.96 384.895L210.23 399.445C197.709 408.117 193.187 406.25 186.95 397.99L195.68 391.442C190.454 387.781 187.606 388.94 182.585 392.903C183.892 389.345 183.908 387.41 190.588 383.44C194.873 382.773 195.965 378.404 195.68 363.797C190.905 363.043 187.66 364.287 180.403 370.345L188.405 360.16C181.091 360.227 176.957 362.673 169.49 370.345C172.206 363.45 173.796 359.573 188.405 353.612C191.821 348.076 194.982 346.747 201.5 345.61C198.616 331.3 190.153 328.381 192.77 312.879C182.173 302.104 187.25 289.618 192.77 276.504C189.216 255.408 187.678 230.677 212.413 217.576C220.941 205.709 227.436 202.818 242.968 207.385C255.21 195.787 262.295 199.698 274.977 208.84C306.573 227.316 308.916 237.998 313.535 259.771C330.435 284.255 332.236 301.886 329.54 339.79L330.995 353.612C338.248 355.513 341.933 357.563 347 365.252C343.481 377.877 339.807 381.517 330.995 383.44V374.71C316.994 391.286 309.056 394.12 294.62 384.895C291.651 389.508 291.728 391.887 294.62 396.535C287.987 395.393 286.257 388.561 283.707 374.71C286.256 358.471 287.628 349.168 288.8 328.15C308.714 306.076 303.747 287.961 298.257 256.855Z" fill="black"/>
<path d="M201.033 289.668C202.322 283.5 206.002 283.662 210.491 285.273C211.946 298.368 212.673 304.209 217.038 315.13C214.981 318.902 213.617 319.77 210.491 317.313C209.587 314.927 209.302 312.786 209.036 307.128C204.822 301.33 202.519 298.027 201.033 289.668Z" fill="#FBB796"/>
<path d="M312.082 288.871C310.793 282.703 307.113 283.621 302.625 285.231C303.352 297.599 302.625 303.667 298.26 314.588C300.317 318.36 301.681 319.228 304.807 316.771C305.71 314.385 305.996 312.244 306.262 306.586C310.476 300.788 310.596 297.23 312.082 288.871Z" fill="#FBB796"/>
<path d="M283.911 247.938C274.81 247.688 269.194 251.555 260.429 256.108C266.988 245.174 273.526 242.031 285.163 242.309C290.256 243.039 292.58 246.991 293.972 253.272C290.768 250.321 288.207 248.743 283.911 247.938Z" fill="#1B1B1B"/>
<path d="M222.744 259.353C230.939 255.385 237.648 256.602 247.51 257.152C237.037 249.878 229.784 249.701 219.29 254.737C214.947 257.494 214.453 262.053 215.765 268.351C217.473 264.344 219.159 261.853 222.744 259.353Z" fill="#1B1B1B"/>
<path d="M272.89 305.495C268.113 314.572 250.93 314.458 246.607 310.274C246.607 310.274 244.219 307.416 256.165 305.495C263.205 304.357 272.891 305.014 272.89 305.495Z" fill="#BE4366"/>
<path d="M264.836 265.211L293.842 261.517L293.769 261.626C290.963 265.82 287.632 270.799 282.335 271.882C278.29 272.71 270.575 271.223 264.836 265.211Z" fill="#F6D5C5"/>
<path d="M247.434 267.198L218.675 272.481L218.777 272.563C222.724 275.707 227.409 279.44 232.785 278.866C236.89 278.427 243.791 274.669 247.434 267.198Z" fill="#F6D5C5"/>
<path d="M263.336 297.886C260.708 297.269 259.51 297.386 258.557 300.275C256.64 297.961 255.61 297.811 253.792 297.885C253.783 297.886 253.774 297.889 253.767 297.894C247.469 302.171 244.95 304.567 244.232 309.747C244.227 309.784 244.266 309.813 244.3 309.798C249.839 307.33 252.953 305.509 258.557 305.054C266.178 304.483 269.294 304.746 275.113 305.045C275.161 305.048 275.184 304.985 275.144 304.958C269.95 301.354 266.221 298.216 263.336 297.886Z" fill="#BE4366"/>
<path d="M242.965 288.871C245.002 282.677 246.445 279.576 250.24 275.776L253.15 275.049L258.97 274.321C262.689 277.278 264.751 279.548 268.427 284.506C268.744 289.375 267.286 291.407 258.97 292.509C256.621 293.588 255.006 293.539 251.695 292.509C247.585 293.048 244.934 294.333 242.965 288.871Z" fill="#F0B496"/>
<path d="M252.425 286.689L247.332 288.871L248.06 291.054L253.152 288.871L252.425 286.689Z" fill="#F4D2C3"/>
<path d="M258.972 287.416L259.699 285.234L264.792 286.689L264.064 288.871L258.972 287.416Z" fill="#F4D2C3"/>
<ellipse cx="256.062" cy="281.596" rx="4.36499" ry="3.63749" fill="#F4C8B2"/>
<path d="M285.163 263.409C285.163 265.418 282.08 268.501 280.071 268.501C278.062 268.501 274.979 266.145 274.979 264.136C274.979 262.127 278.062 260.499 280.071 260.499C282.08 260.499 285.163 261.4 285.163 263.409Z" fill="#242121"/>
<path d="M227.524 271.648C228.134 273.562 231.598 275.658 233.512 275.049C235.427 274.439 238.059 271.165 237.45 269.25C236.84 267.336 233.408 266.72 231.493 267.33C229.579 267.94 226.915 269.734 227.524 271.648Z" fill="#242121"/>
<path d="M293.761 261.571C293.133 261.641 263.393 265.297 263.393 265.297C263.13 262.923 266.021 261.338 267.893 259.668C269.765 257.997 279.505 252.639 285.347 255.346C291.19 258.053 291.217 259.003 291.217 259.003C291.217 259.003 294.388 261.502 293.761 261.571Z" fill="#1B1B1B"/>
<path d="M218.77 272.506C219.389 272.382 248.836 266.84 248.836 266.84C248.366 264.499 245.13 263.866 242.84 262.842C240.549 261.819 229.642 259.669 224.897 264.021C220.152 268.374 220.414 269.288 220.414 269.288C220.414 269.288 218.15 272.631 218.77 272.506Z" fill="#1B1B1B"/>
<circle cx="213.141" cy="319.426" r="5.09249" fill="#FFD949"/>
<circle cx="303.35" cy="315.061" r="5.09249" fill="#FFD949"/>
<rect x="46.7871" y="217.863" width="106.814" height="36.5417" rx="16.0623" fill="#FFDD86"/>
<circle cx="101.078" cy="235.959" r="3.08967" fill="white"/>
<circle cx="116.967" cy="235.959" r="3.08967" fill="white"/>
<circle cx="132.857" cy="235.959" r="3.08967" fill="white"/>
<circle cx="85.1873" cy="235.959" r="3.08967" fill="white"/>
<circle cx="69.2967" cy="235.959" r="3.08967" fill="white"/>
<path d="M129.757 93.4455C125.187 95.3495 115.591 113.78 115.591 113.78L112.012 133.276C114.808 138.854 116.536 141.58 121.455 141.806C129.489 142.541 123.816 128.325 130.67 122.766C137.525 117.207 134.326 91.5416 129.757 93.4455Z" fill="#F3D3BD"/>
<path d="M12.2306 92.3014C16.4544 94.883 23.1131 114.566 23.1131 114.566L23.663 134.38C20.0449 139.464 17.9195 141.893 13.024 141.363C4.97267 140.858 12.7565 127.679 6.83496 121.136C0.913414 114.592 8.00677 89.7198 12.2306 92.3014Z" fill="#F3D3BD"/>
<path d="M91.9652 30.6252L62.6445 38.4694L45.5089 34.0523C27.0788 30.6252 24.9832 40.9384 22.9662 59.489C18.6132 89.9988 11.6949 132.448 16.6451 136.332C26.3172 163.216 41.8038 176.901 57.2372 180.885C70.7172 186.901 87.0151 175.401 98.591 166.034C111.081 157.2 119.62 131.052 119.839 103.584C112.701 86.2562 107.249 76.484 108.644 59.489C106.913 45.8961 105.401 38.539 91.9652 30.6252Z" fill="#ECBB99"/>
<path d="M50.541 132.998C51.0091 120.804 54.7956 114.107 60.5604 102.124C63.7755 114.848 65.7376 121.916 72.7791 132.998C70.5557 133.333 69.729 134.065 66.4254 132.998L63.6558 131.417L60.5604 132.998C56.7913 134.545 54.6585 135.202 50.541 132.998Z" fill="#BE9173"/>
<path d="M99.8306 98.2037L75.7912 98.5276C78.5768 101.302 82.5514 103.42 87.027 103.661C90.4158 103.843 95.8568 103.173 99.8306 98.2037Z" fill="#F6EBEB"/>
<path d="M27.0545 97.9523L51.0813 97.109C48.4336 100.015 44.5665 102.324 40.108 102.782C36.732 103.128 31.2648 102.723 27.0545 97.9523Z" fill="#F6EBEB"/>
<path d="M83.7994 97.6587C84.0325 99.1201 86.9003 101.043 88.5356 100.835C90.1708 100.626 92.4073 98.5919 92.1741 97.1305C91.941 95.669 89.242 94.8045 87.6068 95.013C85.9716 95.2216 83.5662 96.1972 83.7994 97.6587Z" fill="#242121"/>
<path d="M43.025 96.6357C42.8631 98.1068 40.092 100.167 38.4486 100.038C36.8051 99.9088 34.4726 97.9857 34.6345 96.5147C34.7965 95.0436 37.4503 94.049 39.0937 94.178C40.7371 94.307 43.187 95.1647 43.025 96.6357Z" fill="#242121"/>
<path d="M75.8608 98.5642C76.38 98.5497 101.012 98.1215 101.012 98.1215C100.951 96.3675 98.4132 95.5147 96.6955 94.4938C94.9778 93.4728 87.0407 91.7591 82.5257 93.7419C78.0107 95.7247 77.6335 96.432 77.6335 96.432C77.6335 96.432 75.3417 98.5788 75.8608 98.5642Z" fill="#1B1B1B"/>
<path d="M50.9997 97.1247C50.4805 97.1353 25.8572 97.9033 25.8572 97.9033C25.8328 96.1484 28.3259 95.1734 29.992 94.0703C31.6581 92.9672 39.5027 90.8702 44.1086 92.6316C48.7145 94.3929 49.1256 95.081 49.1256 95.081C49.1256 95.081 51.5189 97.114 50.9997 97.1247Z" fill="#1B1B1B"/>
<path d="M63.1096 83.6575C59.135 84.5005 57.0411 85.3587 53.7422 88.1508L54.4276 101.478C57.0532 96.2441 58.1868 93.0265 65.1659 91.4256C70.0621 93.7153 70.3206 96.0044 71.1062 99.9553L72.8578 88.8363C70.1287 86.0991 69.1181 84.2191 63.1096 83.6575Z" fill="black" stroke="black" stroke-width="0.304634"/>
<path d="M85.4838 143.251C77.5383 141.863 72.8717 141.05 64.3283 141.76L57.114 140.067C57.1003 140.064 57.0859 140.062 57.0719 140.063C51.8783 140.304 48.9942 140.977 44.4469 144.816C44.3407 144.906 44.4024 145.08 44.5413 145.084C51.9305 145.303 56.1408 145.499 63.2621 146.261C72.4411 146.349 77.3746 145.589 85.4947 143.549C85.6539 143.509 85.6456 143.28 85.4838 143.251Z" fill="#634645"/>
<path d="M64.3283 147.705C63.1327 147.705 53.0786 146.448 45.8532 146.27C45.7116 146.267 45.6485 146.444 45.7553 146.537C52.8702 152.744 57.5284 154.018 66.3846 153.734C80.9819 150.785 81.5248 148.735 85.7343 145.421C85.8568 145.325 85.781 145.124 85.6263 145.143C82.3188 145.564 65.4272 147.705 64.3283 147.705Z" fill="#634645"/>
<path d="M12.7656 52.1794C-1.90471 78.2854 7.58967 89.016 16.3452 107.013L25.3318 58.2719C26.2171 40.6963 29.915 35.8399 40.868 33.9775C52.3202 39.5825 59.3894 48.6727 71.1025 48.3713C82.1747 44.9062 85.1365 36.1446 92.4267 31.236C104.307 45.4014 108.725 54.9211 107.201 67.9441C110.701 87.6507 112.292 93.8737 116.873 104.881L119.767 113.487C119.737 106.323 126.165 104.881 129.592 94.1425C130.441 76.6237 129.391 65.8862 126.165 48.3713C120.039 37.6212 118.97 32.4837 105.983 24.5342C101.489 14.2132 96.4429 4.40598 83.0593 2.67689C56.0702 -2.59733 40.1118 -1.56027 21.9045 19.5077C14.8133 29.651 10.9553 41.217 12.7656 52.1794Z" fill="black"/>
<path d="M25.232 105.207C25.2322 105.207 25.232 105.207 25.2317 105.207C25.2315 105.206 25.2314 105.206 25.2314 105.206M25.232 105.207L25.2314 105.206M25.232 105.207C25.2326 105.208 25.2332 105.209 25.2338 105.21C25.2318 105.207 25.231 105.206 25.2314 105.206M25.232 105.207L25.2314 105.206M22.0253 95.5326C22.0103 92.6404 22.8668 89.6962 24.2917 85.7176L53.1527 87.5202C54.4468 92.9615 54.87 96.8286 54.1377 100.142C53.4191 103.393 51.5378 106.316 47.7469 109.74C42.0001 111.176 38.0475 111.519 34.7412 110.82C31.4744 110.129 28.6459 108.379 25.2317 105.207C22.8996 101.308 22.04 98.3699 22.0253 95.5326Z" stroke="black" stroke-width="3.04634"/>
<path d="M101.133 105.96C101.133 105.96 101.133 105.96 101.134 105.96C101.134 105.959 101.134 105.959 101.134 105.959M101.133 105.96L101.134 105.959M101.133 105.96C101.133 105.961 101.132 105.962 101.131 105.963C101.133 105.96 101.134 105.959 101.134 105.959M101.133 105.96L101.134 105.959M104.34 96.2857C104.355 93.3934 103.498 90.4492 102.073 86.4707L73.2125 88.2732C71.9184 93.7145 71.4952 97.5817 72.2276 100.895C72.9461 104.146 74.8274 107.069 78.6184 110.493C84.3652 111.929 88.3177 112.272 91.624 111.573C94.8909 110.882 97.7194 109.132 101.133 105.96C103.466 102.061 104.325 99.123 104.34 96.2857Z" stroke="black" stroke-width="3.04634"/>
<path d="M96.473 73.7857C87.912 73.5533 82.638 76.8291 74.4047 80.6816C80.5495 71.399 86.6928 68.7411 97.6382 69.003C102.429 69.634 104.624 72.9998 105.947 78.3431C102.927 75.827 100.515 74.4798 96.473 73.7857Z" fill="#1B1B1B"/>
<path d="M45.4583 73.7756C37.0627 73.5471 31.889 76.8254 23.8129 80.6816C29.8433 71.3962 35.8692 68.7355 46.6032 68.9924C51.3016 69.6212 53.4523 72.9859 54.7469 78.3285C51.7867 75.8139 49.4218 74.4678 45.4583 73.7756Z" fill="#1B1B1B"/>
<rect x="53.1328" y="130.992" width="5.6098" height="1.84116" transform="rotate(-13.04 53.1328 130.992)" fill="#FDE6D7"/>
<rect x="65.3887" y="128.569" width="4.72361" height="1.84116" transform="rotate(13.4607 65.3887 128.569)" fill="#FDE6D7"/>
<rect x="152.285" y="15.007" width="106.814" height="36.5417" rx="16.0623" fill="#FFDD86"/>
<circle cx="173.914" cy="33.1035" r="3.08967" fill="white"/>
<circle cx="189.803" cy="33.1035" r="3.08967" fill="white"/>
<circle cx="205.693" cy="33.1035" r="3.08967" fill="white"/>
<circle cx="221.582" cy="33.1035" r="3.08967" fill="white"/>
<circle cx="237.472" cy="33.1035" r="3.08967" fill="white"/>
</svg>
