<svg width="1240" height="784" viewBox="0 0 1240 784" fill="none" xmlns="http://www.w3.org/2000/svg">
<g clip-path="url(#clip0_354_1444)">
<path d="M76.798 735.103C73.3131 740.7 70.2999 729.12 72.1238 704.617L79.9135 706.406V722.641L76.798 735.103Z" fill="#47484A" stroke="white" stroke-width="0.778875"/>
<path d="M197.877 717.561L210.259 308.4L224.793 314.56L227.835 717.561H197.877Z" fill="#EDA7D1" stroke="white" stroke-width="2.93447"/>
<path d="M319.393 360.107L114.357 260.969L116.611 44.6687L154.914 31.1499L357.696 164.085V351.095L319.393 360.107Z" fill="white" stroke="white" stroke-width="3.06086"/>
<g clip-path="url(#clip1_354_1444)">
<path d="M157.16 249.699L159.413 42.4111L353.183 166.717V346.584L157.16 249.699Z" fill="#64DBBE" stroke="#FDC008" stroke-width="3.15346"/>
</g>
<path d="M153.343 251.061L114.757 261.083" stroke="#EDEDED" stroke-width="0.50112"/>
<path d="M307.939 205.091C304.356 201.943 300.128 201.112 295.523 203.969C295.159 204.195 295.266 204.759 295.712 204.999C299.679 207.141 303.262 208.598 306.711 209.292L307.939 205.091Z" stroke="#0F0303" stroke-width="0.644294"/>
<path d="M260.338 220.236C267.836 219.885 273.81 220.298 281.354 226.07C287.064 225.969 288.232 227.509 287.951 231.437C277.818 229.666 273.022 226.639 260.338 220.236Z" fill="#FF96D5"/>
<path d="M275.19 237.422C266.5 233.54 263.498 229.288 259.697 219.98C266.279 226.613 269.284 229.623 276.595 232.617C281.585 233.637 283.646 233.939 287.781 231.998C284.649 237.434 282.331 239.441 275.19 237.422Z" fill="#FA79C6"/>
<path d="M286.752 197.851C289.868 207.326 288.715 213.001 288.392 220.177C288.392 220.177 287.333 222.586 283.779 221.384C280.226 220.181 278.663 218.24 278.663 218.24C273.124 217.006 269.027 215.599 272.975 209.764" stroke="#0F0303" stroke-width="0.644294"/>
<path d="M259.666 188.478C259.244 188.381 258.891 187.14 258.735 186.807C259.213 186.713 260.256 187.416 260.71 187.335C269.92 185.69 273.705 186.132 275.429 196.495C272.43 184.29 262.781 189.19 259.666 188.478Z" fill="#0F0303"/>
<path d="M260.067 188.333C268.623 187.1 272.569 187.991 275.34 195.937C275.498 196.39 275.12 196.749 274.648 196.598C268.625 194.672 265.336 192.788 260.067 188.333Z" stroke="#0F0303" stroke-width="0.644294"/>
<path d="M270.531 195.043C269.749 192.721 270.002 191.655 272.251 190.373C273.369 192.714 276.008 194.524 275.031 196.651L270.531 195.043Z" fill="#0F0303"/>
<path d="M281.299 189.787C282.288 188.399 282.933 187.743 280.232 186.151C280.232 186.151 266.678 179.079 263.357 178.294C260.037 177.509 252.622 181.014 252.622 181.014L263.245 181.108L281.299 189.787Z" fill="#0F0303"/>
<path d="M269.756 158.294C262.364 161.746 256.506 163.05 246.568 161.586C243.168 178.513 238.825 186.674 230.171 201.289C226.736 213.951 222.71 218.295 224.194 233.203C225.59 245.305 232.434 258.524 234.351 261.961C236.268 265.398 220.133 244.903 215.46 231.633L217.155 238.772C229.558 305.708 212.447 231.507 209.385 225.876L219.95 277.105C212.024 264.904 190.389 227.447 195.671 194.377C200.634 167.293 209.787 155.839 228.65 136.52C248.138 121.282 266.675 123.173 285.863 138.976C307.564 140.011 318.116 158.209 321.954 167.292C325.793 176.375 334.239 209.184 304.062 250.727C305.637 254.747 307.297 255.478 310.512 256.279C310.512 256.279 304.899 259.102 298.624 257.462L305.058 258.895C301.444 261.037 298.678 261.115 292.614 259.511L298.963 261.238C291.414 263.618 283.746 261.9 278.955 255.646C277.949 250.482 279.395 247.902 285.128 243.766C285.128 243.766 295.649 237.158 300.834 227.054C306.019 216.949 321.795 177.687 286.8 157.478C276.428 159.64 270.567 159.693 266.488 173.649C263.662 189.547 260.153 207.665 255.747 210.4C251.34 213.135 242.454 215.92 242.454 215.92C250.594 211.892 255.904 208.776 258.946 195.284C261.422 179.332 262.007 172.7 269.756 158.294Z" stroke="#0F0303" stroke-width="1.76025"/>
<path d="M282.798 147.079C260.011 134.604 247.354 134.871 231.462 146.887C213.769 166.153 209.165 160.726 200.154 198.847C200.999 217.862 207.536 251.984 212.218 257.722" stroke="#BF9F6A" stroke-width="1.32556"/>
<path d="M279.251 249.021C275.585 250.632 274.441 250.902 268.395 248.51C248.666 240.703 232.523 223.232 230.171 201.29" stroke="#0F0303" stroke-width="0.644294"/>
<path d="M300.127 195.3C300.127 195.3 295.762 195.658 295.912 196.359C296.062 197.059 301.327 198.207 303.883 199.452C305.477 200.228 307.903 201.49 307.903 201.49L308.398 199.794C306.52 197.718 302.418 195.963 300.127 195.3Z" fill="#0F0303"/>
<path d="M244.488 147.777C260.287 139.97 263.137 141.189 280.849 150.058C264.636 142.153 251.484 138.28 235.09 159.148C210.688 183.547 210.015 203.505 216.493 223.996L218.07 230.791L216.69 228.268C213.346 221.36 212.084 216.897 211.27 199.21C219.637 163.772 239.501 151.37 244.488 147.777Z" fill="#0F0303"/>
<path d="M247.926 153.257C260.6 144.283 268.554 146.5 281.643 153.375C269.649 147.287 255.203 142.49 241.241 164.07C221.594 190.643 220.36 211.084 224.051 230.173L229.191 238.097L224.803 233.675C222.226 230.346 219.742 224.127 220.239 207.204C228.94 172.368 243.853 157.174 247.926 153.257Z" fill="#BF9F6A"/>
<path d="M311.289 177.783C306.797 162.305 299.603 157.561 285.966 151.8C298.344 157.214 311.839 165.34 310.269 189.798C310.174 221.813 299.705 235.713 286.299 244.951L274.63 244.544L283.784 246.588C287.57 246.471 292.897 244.451 301.958 233.349C314.858 204.56 312.156 183.411 311.289 177.783Z" fill="#BF9F6A"/>
<path d="M295.253 204.023C300.657 200.04 304.212 202.87 307.905 205.229L308.236 204.098C303.993 199.524 300.56 198.698 295.253 204.023Z" fill="#0F0303"/>
<path d="M302.655 208.225C302.086 205.886 302.106 204.096 304.219 202.875L307.973 205.019L306.734 209.259L302.655 208.225Z" fill="#0F0303"/>
<path d="M286.449 231.74C278.065 230.061 273.497 227.47 265.773 223.529C268.103 227.706 271.012 229.481 276.457 231.917C281.363 233.178 283.715 232.044 286.449 231.74Z" fill="#E1C77A"/>
<path d="M283.987 139.34C305.301 140.51 315.76 158.169 319.578 166.972C323.395 175.775 335.406 202.498 305.998 242.385C308.402 240.233 350.983 156.693 283.987 139.34Z" stroke="#0F0303" stroke-width="0.644294"/>
<path d="M282.28 144.819C349.276 162.173 303.714 243.017 301.31 245.169L304.566 249.882L299.448 245.202C322.19 211.774 327.274 161.246 282.28 144.819Z" fill="#BF9F6A" stroke="#BF9F6A" stroke-width="0.644294"/>
<path d="M286.232 139.428C263.688 127.158 253.115 130.106 237.529 141.56C220.215 160 216.55 162.906 207.919 199.644C206.611 211.174 207.368 216.723 212.021 222.311" stroke="#0F0303" stroke-width="1.28859"/>
<path d="M441.486 212.976L376.842 233.548L456.33 239.455L456.33 305.035C456.33 306.777 457.742 308.188 459.484 308.188L1210.06 308.189C1211.8 308.189 1213.21 306.777 1213.21 305.035L1213.21 99.1535C1213.21 97.4119 1211.8 96 1210.06 96L444.64 96.0001C442.898 96.0001 441.486 97.4119 441.486 99.1535L441.486 212.976Z" fill="#64DBBE" stroke="white" stroke-width="8.01791"/>
<path d="M164.56 791.602C160.143 788.289 156.291 780.83 154.017 771.717C151.877 763.143 151.183 753.296 152.646 744.491L183.387 769.858C181.615 777.088 178.941 784.156 175.65 788.61C173.961 790.895 172.182 792.392 170.375 792.954C168.628 793.497 166.706 793.212 164.56 791.602Z" fill="#47484A" stroke="white" stroke-width="1.81088"/>
<path d="M167.722 655.439C140.205 655.391 116.493 659.963 108.917 664.591C106.307 665.395 103.739 679.526 103.27 687.763L77.9568 684.258C70.5085 684.164 66.5819 684.479 64.1318 691.852C64.1318 691.852 62.7652 726.123 64.1318 720.866C65.4983 715.608 64.9072 698.278 72.5013 704.315C78.3856 722.003 80.14 727.681 85.5508 735.274L142.798 765.65C137.59 750.549 133.747 741.12 148.056 746.373C175.935 760.082 181.408 773.798 198.877 793.69L221.075 800.31H237.369L330.702 755.94C339.458 749.149 337.622 727.825 334.704 713.61L330.702 702.519C308.885 697.309 293.268 692.382 271.312 690.099L254.177 670.822C243.399 662.499 243.058 657.262 167.722 655.439Z" fill="#5DB6D6" stroke="white" stroke-width="0.778875"/>
<path d="M124.297 693.022C124.297 693.022 129.949 665.964 130.917 665.566C131.885 665.168 139.808 665.169 147.051 668.791C154.295 672.412 157.011 697.539 157.011 697.539L147.051 698.218C142.524 698.218 138.45 697.539 134.812 696.527L124.297 693.022Z" fill="#69D8FF" stroke="white" stroke-width="0.778875"/>
<path d="M111.738 689.841L119.435 664.715C119.435 664.715 111.88 664.452 108.569 665.621C105.259 666.79 104.5 679.236 103.137 687.804L111.738 689.841Z" fill="#69D8FF" stroke="white" stroke-width="0.778875"/>
<path d="M108.348 665.622C111.29 663.812 131.311 663.424 143.773 666.929C153.119 669.558 154.199 683.498 157.015 697.539C169.918 702.066 174.219 704.103 189.611 702.066L271.101 690.748" stroke="white" stroke-width="0.778875"/>
<path d="M242.106 736.832C242.106 736.832 241.132 752.02 244.637 759.225C248.142 766.429 293.2 745.229 321.551 730.017C322.598 721.63 322.984 716.805 320.188 706.066C302.353 693.649 293.53 693.916 270.646 690.294" stroke="white" stroke-width="0.778875"/>
<path d="M331.305 716.78C319.987 716.554 320.002 701.482 331.305 702.067C335.152 703.544 338.198 707.046 338.774 708.858C339.351 710.669 340.132 713.837 331.305 716.78Z" fill="#F0A29F"/>
<path d="M188.702 706.592L238.208 718.363C232.172 720.115 230.614 719.891 229.64 725.538C228.667 731.185 231.269 737.579 238.208 736.637" stroke="white" stroke-width="0.778875"/>
<path d="M237.592 736.698C225.823 736.698 227.494 717.36 238.797 717.945C242.643 719.422 245.741 721.985 246.42 726.738C247.099 731.492 242.778 735.244 237.592 736.698Z" fill="#F0A29F"/>
<path d="M183.095 669.656C210.36 666.149 224.571 666.543 252.026 668.686L268.605 687.126L189.153 696.859C169.772 697.233 156.74 695.502 160.631 687.126C164.522 678.75 174.726 671.017 183.095 669.656Z" fill="#69D8FF" stroke="white" stroke-width="0.778875"/>
<path d="M113.1 690.07L120.796 665.623C124.144 665.314 125.608 665.415 128.945 666.075L122.833 692.333L113.1 690.07Z" fill="#B2EBFB"/>
<path d="M101.328 696.634C98.838 694.597 102.233 687.806 102.233 687.806L80.2765 685.089C66.9212 683.052 66.0158 686.221 63.9785 696.634L179.196 737.379C180.324 728.047 177.159 720.334 168.104 717.006C143.291 707.888 103.818 698.671 101.328 696.634Z" fill="#B2EBFB"/>
<path d="M195.268 741.904L229.901 750.506" stroke="white" stroke-width="0.905442"/>
<path d="M137.807 433.969L-60.1348 416.43V614.874L137.807 605.853V433.969Z" fill="#CBB9D4" stroke="white" stroke-width="2.00448"/>
<path d="M66.1475 579.224V552.233H126.48V587.957H119.336L117.351 585.972H104.252L99.8862 592.323L94.3292 579.224H66.1475Z" fill="#488E75" stroke="white" stroke-width="1.58771"/>
<path d="M101.727 313.701L138.309 326.892V437.978L99.2217 430.341L92.2061 429.459L96.215 313.701H101.727Z" fill="#FDC008"/>
<path d="M101.727 313.701L138.309 326.892V437.978L99.2217 430.341M101.727 313.701L99.2217 430.341M101.727 313.701H96.215L92.2061 429.459L99.2217 430.341" stroke="white" stroke-width="2.00448"/>
<path d="M122.895 340.116C122.873 340.309 122.884 340.499 122.928 340.684C122.971 340.87 123.023 341.056 123.082 341.243C123.158 341.416 123.226 341.596 123.286 341.784C123.346 341.971 123.389 342.156 123.416 342.34C123.442 342.572 123.435 342.825 123.394 343.098C123.355 343.355 123.29 343.609 123.202 343.86C123.114 344.094 123.002 344.31 122.867 344.506C122.731 344.686 122.573 344.813 122.393 344.889C122.157 345.155 121.876 345.349 121.547 345.473C121.219 345.596 120.913 345.755 120.632 345.949C120.45 346.042 120.246 346.098 120.018 346.119C119.806 346.142 119.586 346.165 119.358 346.186C119.177 346.262 118.963 346.342 118.717 346.426C118.471 346.494 118.218 346.561 117.956 346.627C117.694 346.677 117.433 346.71 117.173 346.727C116.913 346.728 116.686 346.708 116.492 346.668C116.001 346.788 115.52 346.843 115.049 346.835C114.594 346.844 114.061 346.746 113.449 346.54C112.864 346.55 112.323 346.459 111.824 346.267C111.342 346.076 110.911 345.819 110.53 345.494C110.166 345.155 109.844 344.772 109.564 344.344C109.301 343.903 109.086 343.451 108.921 342.989C108.818 342.044 108.874 341.208 109.09 340.482C109.307 339.739 109.602 339.072 109.976 338.48C110.367 337.873 110.806 337.33 111.291 336.849C111.776 336.353 112.245 335.87 112.697 335.402C112.793 335.447 112.866 335.456 112.916 335.429C112.982 335.388 113.04 335.338 113.09 335.279C113.141 335.203 113.192 335.136 113.242 335.076C113.309 335.019 113.383 334.987 113.465 334.981C113.585 334.75 113.752 334.591 113.966 334.503C114.196 334.4 114.379 334.242 114.515 334.03C114.662 334.015 114.785 333.981 114.884 333.928C114.983 333.875 115.074 333.812 115.157 333.741C115.257 333.671 115.356 333.61 115.455 333.556C115.555 333.487 115.67 333.444 115.8 333.427L115.808 333.158C116.103 333.063 116.318 332.942 116.452 332.795C116.603 332.634 116.779 332.443 116.98 332.222C117.126 332.224 117.24 332.229 117.321 332.239C117.418 332.251 117.556 332.252 117.735 332.241C117.871 332.029 117.99 331.871 118.09 331.769C118.207 331.669 118.372 331.567 118.586 331.462C118.778 331.584 118.986 331.675 119.212 331.735C119.454 331.798 119.661 331.93 119.834 332.131C119.846 332.296 119.891 332.432 119.969 332.54C120.047 332.632 120.134 332.724 120.229 332.817C120.324 332.895 120.411 332.979 120.49 333.07C120.585 333.164 120.646 333.286 120.674 333.437C120.739 333.461 120.779 333.458 120.796 333.427C120.83 333.399 120.878 333.396 120.943 333.421C120.985 333.655 121.037 333.817 121.099 333.906C121.162 333.979 121.223 334.126 121.282 334.346C121.196 334.499 121.126 334.662 121.073 334.836C121.036 334.995 120.935 335.105 120.771 335.167C120.751 335.279 120.782 335.348 120.862 335.374C120.943 335.384 120.991 335.431 121.005 335.514C121.016 335.663 120.989 335.766 120.923 335.823C121.293 336.507 121.621 337.227 121.909 337.982C122.196 338.721 122.525 339.432 122.895 340.116ZM119.793 342.066C119.863 341.895 119.948 341.758 120.048 341.656C120.165 341.556 120.235 341.392 120.257 341.166C120.18 341.026 120.134 340.922 120.12 340.855C120.106 340.771 120.102 340.648 120.106 340.485C119.765 339.936 119.472 339.36 119.23 338.757C118.988 338.138 118.712 337.556 118.402 337.011C118.368 337.072 118.31 337.131 118.227 337.186C118.144 337.241 118.055 337.214 117.961 337.104C117.925 337.231 117.866 337.322 117.783 337.377C117.7 337.416 117.611 337.429 117.513 337.417C117.417 337.389 117.312 337.352 117.2 337.305C117.104 337.244 117.017 337.176 116.938 337.101C116.457 337.419 115.977 337.728 115.497 338.029C115.018 338.33 114.585 338.694 114.199 339.121C114.133 339.146 114.092 339.157 114.076 339.155C114.06 339.137 114.011 339.139 113.929 339.162C113.791 339.456 113.621 339.721 113.419 339.958C113.234 340.181 113.049 340.412 112.863 340.651C112.677 340.89 112.516 341.148 112.378 341.426C112.24 341.703 112.157 342.037 112.13 342.426C112.398 342.688 112.718 342.866 113.089 342.961C113.46 343.056 113.84 343.111 114.23 343.126C114.636 343.143 115.026 343.142 115.4 343.122C115.791 343.088 116.148 343.091 116.472 343.131C117.157 343.052 117.746 342.911 118.239 342.71C118.732 342.493 119.25 342.278 119.793 342.066ZM117.371 357.664C118.048 357.829 118.651 358.042 119.18 358.303C119.709 358.565 120.155 358.881 120.518 359.253C120.765 359.692 120.995 360.163 121.208 360.663C121.438 361.166 121.601 361.685 121.7 362.221C121.815 362.742 121.856 363.271 121.825 363.807C121.809 364.345 121.68 364.877 121.438 365.404C120.951 365.933 120.363 366.344 119.672 366.635C118.998 366.912 118.269 367.117 117.485 367.25C116.702 367.383 115.886 367.479 115.04 367.539C114.209 367.601 113.395 367.664 112.597 367.73C112.603 368.107 112.591 368.506 112.563 368.928C112.551 369.336 112.499 369.747 112.405 370.161C112.329 370.56 112.212 370.947 112.055 371.32C111.898 371.694 111.694 372.029 111.442 372.325C111.166 372.291 110.882 372.289 110.589 372.318C110.295 372.364 110.034 372.398 109.806 372.419C109.694 372.34 109.591 372.261 109.496 372.184C109.416 372.125 109.296 372.078 109.134 372.042C109.171 371.883 109.136 371.715 109.027 371.538C108.919 371.344 108.811 371.151 108.702 370.958C108.594 370.764 108.518 370.583 108.474 370.414C108.447 370.247 108.532 370.102 108.73 369.979C108.62 369.851 108.568 369.698 108.573 369.518C108.692 369.336 108.797 369.079 108.888 368.747C108.995 368.416 109.077 368.091 109.135 367.771C109.21 367.436 109.235 367.129 109.21 366.847C109.186 366.566 109.03 366.343 108.742 366.176C108.759 366.146 108.792 366.133 108.841 366.139C108.889 366.145 108.938 366.143 108.987 366.133C108.86 366.019 108.783 365.87 108.756 365.687C108.745 365.506 108.693 365.344 108.6 365.202C108.634 365.124 108.661 365.054 108.679 364.99C108.697 364.927 108.754 364.91 108.851 364.938C108.811 364.638 108.819 364.361 108.875 364.106C108.947 363.853 109.043 363.62 109.163 363.405C109.283 363.175 109.428 362.955 109.596 362.747C109.765 362.538 109.925 362.329 110.077 362.119C110.191 362.116 110.255 362.14 110.27 362.191C110.301 362.244 110.358 362.243 110.441 362.188C110.656 362.051 110.807 361.897 110.893 361.728C110.979 361.558 111.025 361.36 111.032 361.131C111.155 360.803 111.302 360.477 111.474 360.155C111.646 359.816 111.834 359.512 112.037 359.242C112.239 358.972 112.457 358.737 112.691 358.537C112.94 358.339 113.196 358.198 113.458 358.116C113.657 357.977 113.904 357.86 114.199 357.765C114.495 357.654 114.814 357.587 115.156 357.563C115.498 357.524 115.839 357.525 116.179 357.566C116.536 357.594 116.859 357.666 117.148 357.784C117.228 357.826 117.269 357.815 117.271 357.75C117.289 357.686 117.322 357.658 117.371 357.664ZM116.207 363.387C116.617 363.257 117.05 363.171 117.506 363.129C117.979 363.073 118.373 362.917 118.689 362.661C118.5 362.458 118.221 362.268 117.853 362.092C117.485 361.899 117.082 361.76 116.646 361.674C116.21 361.587 115.764 361.573 115.307 361.632C114.867 361.676 114.481 361.825 114.149 362.079C114.043 362.36 113.955 362.587 113.885 362.758C113.816 362.913 113.721 363.106 113.601 363.337C113.631 363.422 113.677 363.494 113.741 363.55C113.821 363.593 113.876 363.657 113.906 363.742C114.284 363.593 114.659 363.532 115.032 363.562C115.422 363.577 115.813 363.519 116.207 363.387ZM121.009 384.588C121.022 384.704 121.019 384.793 121.001 384.857C121 384.905 120.99 384.953 120.972 385C120.971 385.049 120.969 385.106 120.968 385.172C120.966 385.22 120.98 385.304 121.009 385.422C120.653 385.935 120.245 386.269 119.786 386.425C119.343 386.567 118.861 386.656 118.341 386.69C117.82 386.708 117.283 386.732 116.73 386.762C116.193 386.794 115.652 386.94 115.109 387.201C114.901 387.093 114.706 387.07 114.526 387.129C114.362 387.191 114.118 387.186 113.795 387.113C113.695 387.199 113.572 387.258 113.425 387.289C113.278 387.303 113.131 387.326 112.984 387.357C113.044 387.512 113.064 387.67 113.043 387.831C113.039 387.978 113.06 388.103 113.106 388.207C113.671 388.325 114.295 388.394 114.976 388.412C115.675 388.432 116.356 388.475 117.02 388.54C117.034 388.624 117.024 388.68 116.991 388.708C116.958 388.721 116.949 388.761 116.963 388.828C117.074 388.923 117.184 389.043 117.294 389.187C117.404 389.316 117.514 389.444 117.624 389.572C117.734 389.7 117.845 389.811 117.956 389.907C118.083 389.988 118.228 390.03 118.391 390.034C118.452 390.172 118.488 390.324 118.499 390.489C118.528 390.64 118.507 390.793 118.438 390.948C118.173 391.095 117.909 391.251 117.644 391.415C117.38 391.563 117.1 391.692 116.804 391.803C116.525 391.916 116.222 392.001 115.895 392.059C115.585 392.103 115.236 392.093 114.848 392.029C114.767 392.019 114.703 392.011 114.654 392.005C114.622 392.001 114.574 391.971 114.51 391.914C114.378 391.979 114.192 391.981 113.95 391.918C113.724 391.858 113.545 391.861 113.413 391.926C113.237 391.823 113.02 391.763 112.76 391.748C112.517 391.718 112.3 391.658 112.107 391.569C111.839 391.88 111.593 392.218 111.371 392.583C111.15 392.949 110.952 393.342 110.777 393.762C111.325 393.911 111.778 394 112.134 394.027C112.507 394.057 112.856 394.075 113.181 394.082C113.506 394.073 113.839 394.073 114.18 394.082C114.521 394.075 114.951 394.111 115.469 394.191C115.797 394.052 116.181 393.984 116.62 393.989C117.075 393.98 117.491 393.932 117.867 393.848C117.995 393.913 118.106 394.016 118.199 394.159C118.293 394.285 118.379 394.41 118.456 394.534C118.551 394.644 118.645 394.745 118.74 394.839C118.835 394.932 118.955 394.98 119.102 394.981C119.165 395.054 119.203 395.141 119.216 395.241C119.246 395.326 119.268 395.411 119.282 395.494C119.296 395.578 119.318 395.654 119.348 395.723C119.396 395.778 119.468 395.803 119.566 395.799C119.307 396.307 119.012 396.688 118.68 396.942C118.364 397.181 118.002 397.35 117.593 397.447C117.184 397.544 116.727 397.602 116.223 397.622C115.735 397.644 115.19 397.675 114.587 397.716C114.441 397.73 114.32 397.707 114.224 397.646C114.128 397.602 114.015 397.572 113.885 397.556C113.51 397.592 113.063 397.61 112.543 397.612C112.023 397.613 111.496 397.573 110.962 397.491C110.429 397.409 109.921 397.273 109.439 397.083C108.956 396.909 108.566 396.649 108.267 396.301C108.141 396.171 108.055 396.03 108.011 395.877C107.983 395.71 107.882 395.575 107.706 395.471C107.696 395.257 107.67 395.017 107.629 394.75C107.588 394.483 107.547 394.208 107.507 393.925C107.466 393.626 107.434 393.335 107.41 393.054C107.401 392.775 107.425 392.524 107.48 392.302C107.536 392.063 107.639 391.855 107.79 391.677C107.958 391.501 108.021 391.296 107.979 391.062C108.06 391.056 108.11 391.021 108.128 390.958C108.147 390.878 108.212 390.854 108.325 390.884C108.431 390.602 108.544 390.338 108.665 390.091C108.786 389.844 108.906 389.605 109.026 389.375C109.163 389.146 109.291 388.916 109.412 388.686C109.549 388.441 109.678 388.17 109.801 387.874C109.58 387.634 109.417 387.385 109.31 387.127C109.221 386.854 109.155 386.592 109.114 386.342C109.072 386.075 109.039 385.809 109.015 385.544C108.99 385.263 108.941 384.979 108.868 384.692C109.037 384.467 109.237 384.295 109.468 384.176C109.716 384.043 109.979 383.944 110.257 383.88C110.535 383.816 110.837 383.772 111.162 383.746C111.488 383.721 111.83 383.689 112.189 383.651C112.842 383.519 113.422 383.426 113.927 383.374C114.448 383.323 114.953 383.295 115.44 383.29C115.945 383.27 116.465 383.26 117.001 383.261C117.537 383.261 118.147 383.238 118.831 383.191C118.972 383.356 119.108 383.446 119.237 383.462C119.306 383.323 119.38 383.291 119.46 383.366C119.555 383.427 119.597 383.383 119.585 383.234C119.739 383.532 119.935 383.793 120.172 384.018C120.426 384.23 120.705 384.419 121.009 384.588ZM111.45 417.843C111.304 417.858 111.196 417.934 111.127 418.073C111.058 418.196 110.99 418.326 110.921 418.465C110.868 418.606 110.807 418.737 110.739 418.86C110.687 418.968 110.604 419.015 110.491 419.001C110.471 419.13 110.419 419.238 110.335 419.326C110.268 419.416 110.2 419.514 110.132 419.62C110.064 419.71 110.012 419.818 109.976 419.944C109.941 420.055 109.953 420.195 110.013 420.366C109.881 420.448 109.796 420.577 109.758 420.752C109.721 420.928 109.675 421.094 109.622 421.251C109.585 421.41 109.516 421.541 109.416 421.643C109.315 421.745 109.136 421.772 108.877 421.724C108.827 421.783 108.818 421.823 108.849 421.843C108.881 421.864 108.904 421.924 108.917 422.023C108.74 421.969 108.602 421.96 108.504 421.997C108.421 422.052 108.315 422.08 108.185 422.081C107.88 421.945 107.626 421.742 107.422 421.472C107.235 421.203 107.065 420.912 106.911 420.599C106.774 420.271 106.646 419.944 106.525 419.619C106.42 419.295 106.315 419.012 106.208 418.77C106.262 418.596 106.275 418.426 106.247 418.259C106.22 418.076 106.167 417.922 106.09 417.798C106.932 416.2 107.85 414.496 108.844 412.687C109.839 410.879 110.784 409.088 111.679 407.317C112.048 407.509 112.407 407.725 112.758 407.965C113.125 408.19 113.451 408.442 113.735 408.723C114.036 409.005 114.287 409.322 114.488 409.674C114.689 410.01 114.817 410.377 114.87 410.777C114.835 410.871 114.793 410.906 114.745 410.884C114.714 410.848 114.681 410.852 114.648 410.897C114.71 410.986 114.741 411.047 114.74 411.08C114.755 411.114 114.754 411.147 114.737 411.178C114.736 411.21 114.735 411.259 114.733 411.324C114.731 411.373 114.754 411.45 114.799 411.553C114.735 411.529 114.686 411.531 114.653 411.56C114.636 411.591 114.587 411.585 114.507 411.542C114.567 411.729 114.579 411.878 114.543 411.988C114.524 412.1 114.488 412.203 114.437 412.294C114.386 412.37 114.343 412.463 114.307 412.573C114.272 412.667 114.276 412.798 114.32 412.967C114.271 412.961 114.23 412.973 114.197 413.001C114.18 413.016 114.164 413.038 114.146 413.069C114.13 413.083 114.105 413.104 114.071 413.133C114.055 413.147 114.022 413.143 113.974 413.121C114.013 413.486 114.018 413.847 113.992 414.203C113.966 414.56 113.939 414.925 113.912 415.298C113.902 415.657 113.899 416.041 113.903 416.451C113.908 416.844 113.953 417.258 114.038 417.694C114.631 417.424 115.105 417.04 115.46 416.544C115.832 416.049 116.133 415.481 116.362 414.838C116.608 414.197 116.799 413.501 116.934 412.748C117.069 411.996 117.213 411.228 117.366 410.445C117.516 410.316 117.634 410.151 117.721 409.949C117.808 409.747 117.887 409.536 117.959 409.315C118.031 409.079 118.102 408.85 118.173 408.63C118.245 408.393 118.333 408.183 118.435 407.999C118.677 408.062 118.877 408.168 119.035 408.318C119.21 408.454 119.368 408.605 119.51 408.769C119.652 408.918 119.802 409.067 119.96 409.217C120.119 409.351 120.319 409.45 120.561 409.512C120.747 409.813 120.918 410.104 121.072 410.385C121.226 410.666 121.324 410.956 121.364 411.255C121.279 411.376 121.21 411.515 121.157 411.672C121.12 411.831 121.075 411.989 121.021 412.146C120.968 412.303 120.899 412.45 120.814 412.587C120.729 412.707 120.612 412.808 120.464 412.887C120.403 413.305 120.327 413.689 120.236 414.038C120.161 414.372 120.079 414.706 119.988 415.038C119.913 415.372 119.846 415.724 119.787 416.093C119.728 416.446 119.7 416.844 119.704 417.286C119.564 417.645 119.415 418.028 119.257 418.434C119.099 418.84 118.974 419.209 118.884 419.541C118.619 419.722 118.409 419.949 118.255 420.225C118.101 420.501 117.938 420.775 117.768 421.049C117.701 421.106 117.66 421.117 117.645 421.083C117.63 421.048 117.574 421.017 117.477 420.989C117.492 421.056 117.49 421.105 117.473 421.135C117.456 421.166 117.431 421.196 117.397 421.224C117.381 421.239 117.364 421.269 117.346 421.316C117.345 421.365 117.359 421.432 117.389 421.518C117.159 421.588 116.953 421.701 116.77 421.859C116.587 422.016 116.388 422.156 116.173 422.277C115.974 422.399 115.729 422.467 115.436 422.481C115.159 422.496 114.797 422.394 114.348 422.175C113.698 421.604 113.123 420.969 112.624 420.27C112.14 419.572 111.749 418.763 111.45 417.843Z" fill="black"/>
<path d="M129.207 343.798L129.418 342.681L131.036 342.911L131.458 340.677C131.61 339.914 131.583 339.81 131.08 339.266C130.617 338.767 130.359 338.379 130.374 337.858C130.401 336.896 131.452 336.029 133.377 336.302C134.191 336.418 134.913 336.611 135.46 336.99L135.237 338.156C134.492 337.728 133.958 337.582 133.383 337.5C132.768 337.413 131.752 337.389 131.736 337.95C131.73 338.161 131.846 338.288 132.078 338.532C132.581 339.066 132.821 339.372 132.878 339.823L134.346 340.031L134.135 341.148L132.776 340.955L132.365 343.1L134.251 343.367L134.049 344.485L129.207 343.798ZM131.26 356.274C129.97 356.091 129.247 354.912 129.289 353.459C129.345 351.496 130.749 349.774 132.446 350.015C133.756 350.201 134.468 351.408 134.426 352.881C134.373 354.744 133.017 356.523 131.26 356.274ZM131.46 355.226C132.323 355.349 133.039 353.992 133.077 352.679C133.102 351.808 132.822 351.144 132.257 351.064C131.413 350.944 130.687 352.29 130.649 353.632C130.624 354.504 130.894 355.146 131.46 355.226ZM128.509 367.787L128.72 366.67L129.842 366.829L130.229 364.792C130.452 363.616 130.205 363.189 129.714 362.938L129.947 361.754C130.926 362.014 131.683 362.735 131.688 363.953L134.558 362.187L134.242 363.812L131.547 365.039L131.181 367.019L133.275 367.316L133.074 368.435L128.509 367.787ZM129.166 392.109C128.085 391.955 128.167 389.442 128.8 385.77L130.07 385.95C129.536 388.942 129.302 390.86 129.639 390.908C129.947 390.952 130.342 389.328 130.505 388.526L130.598 388.047L131.442 388.167L131.348 388.656C131.16 389.635 130.999 391.101 131.277 391.141C131.634 391.191 132.096 389.306 132.7 386.323L133.97 386.504C133.208 390.158 132.372 392.564 131.28 392.409C130.575 392.309 130.546 390.916 130.638 390.115C130.427 390.899 129.881 392.21 129.166 392.109ZM129.884 404.254C128.594 404.071 127.871 402.892 127.912 401.44C127.969 399.476 129.373 397.754 131.07 397.995C132.38 398.181 133.092 399.389 133.05 400.861C132.997 402.725 131.641 404.504 129.884 404.254ZM130.084 403.206C130.947 403.329 131.663 401.972 131.701 400.66C131.726 399.788 131.446 399.125 130.88 399.044C130.037 398.925 129.311 400.27 129.272 401.613C129.247 402.484 129.518 403.126 130.084 403.206ZM127.133 415.767L127.344 414.65L128.466 414.809L128.853 412.772C129.076 411.597 128.829 411.169 128.338 410.918L128.571 409.734C129.55 409.994 130.307 410.715 130.312 411.933L133.182 410.168L132.866 411.793L130.171 413.019L129.805 415L131.899 415.297L131.697 416.415L127.133 415.767ZM127.156 427.814L128.623 420.076L129.953 420.264L129.179 424.329L129.735 424.408L132.797 422.187L132.456 424.02L130.77 425.118L132.144 426.883L131.793 428.724L129.514 425.503L128.968 425.426L128.486 428.003L127.156 427.814Z" fill="white"/>
<path d="M80.179 399.671L-80.5968 376.842L-85.1904 441.987L80.179 457.021V399.671Z" fill="#FDC008" stroke="white" stroke-width="2.00448"/>
<path d="M517.696 192.549V195.537H508.717V192.549H517.696ZM509.552 183.672V205H505.992V183.672H509.552ZM520.479 183.672V205H516.935V183.672H520.479ZM527.848 189.15V205H524.435V189.15H527.848ZM524.259 185.005C524.259 184.458 524.425 184.004 524.757 183.643C525.089 183.271 525.553 183.086 526.148 183.086C526.744 183.086 527.208 183.271 527.54 183.643C527.872 184.004 528.038 184.458 528.038 185.005C528.038 185.532 527.872 185.977 527.54 186.338C527.208 186.699 526.744 186.88 526.148 186.88C525.553 186.88 525.089 186.699 524.757 186.338C524.425 185.977 524.259 185.532 524.259 185.005ZM535.465 183.672L535.113 198.687H532.198L531.847 183.672H535.465ZM531.788 203.286C531.788 202.749 531.954 202.295 532.286 201.924C532.628 201.543 533.092 201.353 533.678 201.353C534.273 201.353 534.737 201.543 535.069 201.924C535.401 202.295 535.567 202.749 535.567 203.286C535.567 203.823 535.401 204.282 535.069 204.663C534.737 205.034 534.273 205.22 533.678 205.22C533.092 205.22 532.628 205.034 532.286 204.663C531.954 204.282 531.788 203.823 531.788 203.286ZM550.011 183.672V205H546.451V183.672H550.011ZM564.381 182.5V205H560.968V182.5H564.381ZM571.646 189.15V205H568.233V189.15H571.646ZM568.058 185.005C568.058 184.458 568.224 184.004 568.556 183.643C568.888 183.271 569.352 183.086 569.947 183.086C570.543 183.086 571.007 183.271 571.339 183.643C571.671 184.004 571.837 184.458 571.837 185.005C571.837 185.532 571.671 185.977 571.339 186.338C571.007 186.699 570.543 186.88 569.947 186.88C569.352 186.88 568.888 186.699 568.556 186.338C568.224 185.977 568.058 185.532 568.058 185.005ZM578.722 182.5V205H575.309V182.5H578.722ZM586.925 189.15L581.3 196.812L577.887 200.693L577.022 197.676L579.527 194.116L582.838 189.15H586.925ZM583.512 205L579.601 197.588L581.739 195.083L587.438 205H583.512ZM595.04 205.293C594.015 205.293 593.102 205.142 592.301 204.839C591.5 204.526 590.821 204.067 590.265 203.462C589.708 202.847 589.283 202.095 588.99 201.206C588.697 200.308 588.551 199.268 588.551 198.086V196.562C588.551 195.225 588.702 194.072 589.005 193.105C589.317 192.129 589.747 191.328 590.294 190.703C590.841 190.078 591.485 189.614 592.228 189.312C592.979 189.009 593.795 188.857 594.674 188.857C595.67 188.857 596.534 189.019 597.267 189.341C597.999 189.663 598.6 190.146 599.068 190.791C599.547 191.436 599.898 192.231 600.123 193.179C600.357 194.126 600.475 195.215 600.475 196.445V198.159H590.191V195.581H597.105V195.215C597.086 194.492 596.998 193.872 596.842 193.354C596.686 192.827 596.432 192.427 596.08 192.153C595.738 191.87 595.265 191.729 594.659 191.729C594.22 191.729 593.829 191.812 593.487 191.978C593.146 192.144 592.862 192.412 592.638 192.783C592.423 193.154 592.257 193.652 592.14 194.277C592.022 194.893 591.964 195.654 591.964 196.562V198.086C591.964 198.877 592.032 199.546 592.169 200.093C592.315 200.64 592.53 201.089 592.813 201.44C593.097 201.782 593.438 202.036 593.839 202.202C594.249 202.358 594.723 202.437 595.26 202.437C596.051 202.437 596.729 202.29 597.296 201.997C597.872 201.694 598.37 201.304 598.79 200.825L600.299 202.92C600.016 203.301 599.635 203.677 599.156 204.048C598.678 204.409 598.097 204.707 597.413 204.941C596.739 205.176 595.948 205.293 595.04 205.293ZM616.529 189.15V191.787H608.751V189.15H616.529ZM610.875 185.269H614.273V200.576C614.273 201.064 614.327 201.436 614.435 201.689C614.542 201.943 614.693 202.114 614.889 202.202C615.084 202.29 615.313 202.334 615.577 202.334C615.772 202.334 615.963 202.319 616.148 202.29C616.344 202.251 616.485 202.217 616.573 202.188V204.941C616.319 205.039 616.026 205.122 615.694 205.19C615.362 205.259 614.962 205.293 614.493 205.293C613.8 205.293 613.18 205.151 612.633 204.868C612.086 204.575 611.656 204.102 611.344 203.447C611.031 202.783 610.875 201.904 610.875 200.811V185.269ZM618.302 197.72V196.445C618.302 195.215 618.453 194.126 618.756 193.179C619.059 192.231 619.488 191.44 620.045 190.806C620.611 190.161 621.275 189.678 622.037 189.355C622.799 189.023 623.639 188.857 624.557 188.857C625.494 188.857 626.344 189.023 627.105 189.355C627.877 189.678 628.541 190.161 629.098 190.806C629.664 191.44 630.099 192.231 630.401 193.179C630.704 194.126 630.855 195.215 630.855 196.445V197.72C630.855 198.95 630.704 200.039 630.401 200.986C630.099 201.934 629.664 202.729 629.098 203.374C628.541 204.009 627.882 204.487 627.12 204.81C626.358 205.132 625.514 205.293 624.586 205.293C623.668 205.293 622.823 205.132 622.052 204.81C621.29 204.487 620.626 204.009 620.06 203.374C619.493 202.729 619.059 201.934 618.756 200.986C618.453 200.039 618.302 198.95 618.302 197.72ZM621.715 196.445V197.72C621.715 198.511 621.783 199.204 621.92 199.8C622.057 200.386 622.252 200.874 622.506 201.265C622.76 201.655 623.062 201.948 623.414 202.144C623.766 202.339 624.156 202.437 624.586 202.437C625.064 202.437 625.479 202.339 625.831 202.144C626.192 201.948 626.49 201.655 626.725 201.265C626.969 200.874 627.149 200.386 627.267 199.8C627.384 199.204 627.442 198.511 627.442 197.72V196.445C627.442 195.664 627.374 194.98 627.237 194.395C627.101 193.799 626.905 193.306 626.651 192.915C626.397 192.515 626.09 192.217 625.729 192.021C625.377 191.826 624.986 191.729 624.557 191.729C624.137 191.729 623.751 191.826 623.399 192.021C623.058 192.217 622.76 192.515 622.506 192.915C622.252 193.306 622.057 193.799 621.92 194.395C621.783 194.98 621.715 195.664 621.715 196.445ZM640.729 182.5H644.127V201.602L643.863 205H640.729V182.5ZM652.667 196.46V197.705C652.667 198.975 652.56 200.083 652.345 201.03C652.13 201.978 651.808 202.769 651.378 203.403C650.948 204.038 650.411 204.512 649.767 204.824C649.122 205.137 648.37 205.293 647.511 205.293C646.71 205.293 646.017 205.117 645.431 204.766C644.854 204.404 644.366 203.901 643.966 203.257C643.575 202.603 643.263 201.826 643.028 200.928C642.804 200.029 642.638 199.038 642.53 197.954V196.211C642.628 195.127 642.789 194.136 643.014 193.237C643.248 192.329 643.561 191.553 643.951 190.908C644.342 190.254 644.83 189.751 645.416 189.399C646.002 189.038 646.695 188.857 647.496 188.857C648.365 188.857 649.122 189.014 649.767 189.326C650.411 189.639 650.948 190.112 651.378 190.747C651.808 191.372 652.13 192.163 652.345 193.12C652.56 194.067 652.667 195.181 652.667 196.46ZM649.254 197.705V196.46C649.254 195.659 649.21 194.966 649.122 194.38C649.044 193.794 648.902 193.311 648.697 192.93C648.502 192.539 648.229 192.246 647.877 192.051C647.525 191.855 647.081 191.758 646.544 191.758C646.075 191.758 645.67 191.851 645.328 192.036C644.996 192.222 644.713 192.485 644.479 192.827C644.244 193.159 644.059 193.545 643.922 193.984C643.785 194.414 643.692 194.878 643.644 195.376V198.789C643.712 199.443 643.849 200.044 644.054 200.591C644.269 201.138 644.576 201.572 644.977 201.895C645.387 202.217 645.919 202.378 646.573 202.378C647.091 202.378 647.521 202.29 647.862 202.114C648.204 201.938 648.478 201.66 648.683 201.279C648.897 200.898 649.044 200.415 649.122 199.829C649.21 199.233 649.254 198.525 649.254 197.705ZM658.951 192.212V205H655.538V189.15H658.79L658.951 192.212ZM662.774 189.048L662.76 192.417C662.564 192.368 662.354 192.339 662.13 192.329C661.915 192.31 661.7 192.3 661.485 192.3C661.017 192.3 660.611 192.383 660.27 192.549C659.928 192.715 659.64 192.954 659.405 193.267C659.171 193.579 658.985 193.955 658.849 194.395C658.722 194.834 658.644 195.332 658.614 195.889L657.882 195.918C657.882 194.922 657.96 193.999 658.116 193.149C658.272 192.29 658.507 191.543 658.819 190.908C659.142 190.264 659.542 189.761 660.021 189.399C660.499 189.038 661.056 188.857 661.69 188.857C661.866 188.857 662.066 188.877 662.291 188.916C662.516 188.955 662.677 188.999 662.774 189.048ZM668.736 189.15V205H665.323V189.15H668.736ZM665.147 185.005C665.147 184.458 665.313 184.004 665.646 183.643C665.978 183.271 666.441 183.086 667.037 183.086C667.633 183.086 668.097 183.271 668.429 183.643C668.761 184.004 668.927 184.458 668.927 185.005C668.927 185.532 668.761 185.977 668.429 186.338C668.097 186.699 667.633 186.88 667.037 186.88C666.441 186.88 665.978 186.699 665.646 186.338C665.313 185.977 665.147 185.532 665.147 185.005ZM675.753 192.534V205H672.34V189.15H675.548L675.753 192.534ZM675.138 196.504H674.054C674.044 195.361 674.166 194.321 674.42 193.384C674.674 192.446 675.035 191.641 675.504 190.967C675.982 190.293 676.549 189.775 677.203 189.414C677.867 189.043 678.604 188.857 679.415 188.857C680.04 188.857 680.611 188.965 681.129 189.18C681.656 189.385 682.105 189.722 682.477 190.19C682.848 190.659 683.131 191.27 683.326 192.021C683.531 192.773 683.634 193.691 683.634 194.775V205H680.221V194.746C680.221 194.004 680.138 193.418 679.972 192.988C679.815 192.549 679.581 192.236 679.269 192.051C678.956 191.855 678.561 191.758 678.082 191.758C677.643 191.758 677.237 191.885 676.866 192.139C676.505 192.383 676.192 192.725 675.929 193.164C675.675 193.594 675.479 194.097 675.343 194.673C675.206 195.239 675.138 195.85 675.138 196.504ZM695.514 189.15H698.604V205.059C698.604 206.484 698.341 207.651 697.813 208.56C697.296 209.478 696.573 210.156 695.646 210.596C694.718 211.035 693.644 211.255 692.423 211.255C691.974 211.255 691.441 211.182 690.826 211.035C690.211 210.889 689.61 210.674 689.024 210.391C688.438 210.107 687.95 209.756 687.56 209.336L688.805 206.963C689.264 207.432 689.806 207.793 690.431 208.047C691.056 208.311 691.656 208.442 692.232 208.442C692.857 208.442 693.385 208.335 693.814 208.12C694.254 207.915 694.591 207.568 694.825 207.08C695.06 206.602 695.177 205.952 695.177 205.132V192.739L695.514 189.15ZM686.549 197.72V196.475C686.549 195.176 686.671 194.053 686.915 193.105C687.159 192.148 687.511 191.353 687.97 190.718C688.429 190.083 688.99 189.614 689.654 189.312C690.318 189.009 691.061 188.857 691.881 188.857C692.73 188.857 693.448 189.038 694.034 189.399C694.63 189.751 695.113 190.254 695.484 190.908C695.865 191.562 696.163 192.344 696.378 193.252C696.593 194.15 696.749 195.156 696.847 196.27V197.998C696.749 199.072 696.583 200.059 696.349 200.957C696.114 201.846 695.797 202.612 695.396 203.257C695.006 203.901 694.518 204.404 693.932 204.766C693.355 205.117 692.662 205.293 691.852 205.293C691.041 205.293 690.309 205.132 689.654 204.81C689 204.487 688.438 204.009 687.97 203.374C687.511 202.739 687.159 201.953 686.915 201.016C686.671 200.068 686.549 198.97 686.549 197.72ZM689.962 196.475V197.72C689.962 198.53 690.016 199.229 690.123 199.814C690.24 200.4 690.411 200.884 690.636 201.265C690.86 201.636 691.153 201.914 691.515 202.1C691.876 202.275 692.306 202.363 692.804 202.363C693.458 202.363 693.985 202.207 694.386 201.895C694.796 201.582 695.108 201.162 695.323 200.635C695.548 200.098 695.704 199.502 695.792 198.848V195.435C695.743 194.917 695.646 194.438 695.499 193.999C695.362 193.55 695.172 193.159 694.928 192.827C694.693 192.495 694.4 192.236 694.049 192.051C693.707 191.855 693.302 191.758 692.833 191.758C692.345 191.758 691.915 191.855 691.544 192.051C691.183 192.236 690.885 192.524 690.65 192.915C690.416 193.296 690.24 193.784 690.123 194.38C690.016 194.966 689.962 195.664 689.962 196.475ZM709.078 189.15H712.506V206.348C712.506 207.432 712.345 208.35 712.022 209.102C711.71 209.854 711.246 210.425 710.631 210.815C710.016 211.206 709.254 211.401 708.346 211.401C708.072 211.401 707.784 211.377 707.481 211.328C707.188 211.289 706.91 211.23 706.646 211.152L706.661 208.34C706.847 208.379 707.032 208.408 707.218 208.428C707.403 208.457 707.569 208.472 707.716 208.472C708.019 208.472 708.268 208.398 708.463 208.252C708.668 208.105 708.819 207.876 708.917 207.563C709.024 207.251 709.078 206.846 709.078 206.348V189.15ZM708.829 185.005C708.829 184.458 708.995 184.004 709.327 183.643C709.669 183.271 710.128 183.086 710.704 183.086C711.3 183.086 711.764 183.271 712.096 183.643C712.438 184.004 712.608 184.458 712.608 185.005C712.608 185.532 712.438 185.977 712.096 186.338C711.764 186.699 711.3 186.88 710.704 186.88C710.128 186.88 709.669 186.699 709.327 186.338C708.995 185.977 708.829 185.532 708.829 185.005ZM715.538 197.72V196.445C715.538 195.215 715.689 194.126 715.992 193.179C716.295 192.231 716.725 191.44 717.281 190.806C717.848 190.161 718.512 189.678 719.273 189.355C720.035 189.023 720.875 188.857 721.793 188.857C722.73 188.857 723.58 189.023 724.342 189.355C725.113 189.678 725.777 190.161 726.334 190.806C726.9 191.44 727.335 192.231 727.638 193.179C727.94 194.126 728.092 195.215 728.092 196.445V197.72C728.092 198.95 727.94 200.039 727.638 200.986C727.335 201.934 726.9 202.729 726.334 203.374C725.777 204.009 725.118 204.487 724.356 204.81C723.595 205.132 722.75 205.293 721.822 205.293C720.904 205.293 720.06 205.132 719.288 204.81C718.526 204.487 717.862 204.009 717.296 203.374C716.729 202.729 716.295 201.934 715.992 200.986C715.689 200.039 715.538 198.95 715.538 197.72ZM718.951 196.445V197.72C718.951 198.511 719.02 199.204 719.156 199.8C719.293 200.386 719.488 200.874 719.742 201.265C719.996 201.655 720.299 201.948 720.65 202.144C721.002 202.339 721.393 202.437 721.822 202.437C722.301 202.437 722.716 202.339 723.067 202.144C723.429 201.948 723.727 201.655 723.961 201.265C724.205 200.874 724.386 200.386 724.503 199.8C724.62 199.204 724.679 198.511 724.679 197.72V196.445C724.679 195.664 724.61 194.98 724.474 194.395C724.337 193.799 724.142 193.306 723.888 192.915C723.634 192.515 723.326 192.217 722.965 192.021C722.613 191.826 722.223 191.729 721.793 191.729C721.373 191.729 720.987 191.826 720.636 192.021C720.294 192.217 719.996 192.515 719.742 192.915C719.488 193.306 719.293 193.799 719.156 194.395C719.02 194.98 718.951 195.664 718.951 196.445ZM734.654 203.257L738.053 189.15H741.642L736.412 207.402C736.295 207.803 736.129 208.232 735.914 208.691C735.709 209.15 735.44 209.585 735.108 209.995C734.786 210.415 734.381 210.752 733.893 211.006C733.414 211.27 732.843 211.401 732.179 211.401C731.905 211.401 731.642 211.377 731.388 211.328C731.134 211.279 730.89 211.221 730.655 211.152V208.398C730.733 208.408 730.821 208.418 730.919 208.428C731.017 208.438 731.104 208.442 731.183 208.442C731.661 208.442 732.057 208.369 732.369 208.223C732.682 208.086 732.94 207.861 733.146 207.549C733.351 207.246 733.531 206.841 733.688 206.333L734.654 203.257ZM733.146 189.15L735.929 200.942L736.529 204.766L734.186 205.366L729.469 189.15H733.146ZM753.888 193.398L756.964 190.923C757.481 190.513 757.828 190.112 758.004 189.722C758.189 189.321 758.282 188.833 758.282 188.257C758.282 187.759 758.131 187.3 757.828 186.88C757.535 186.45 757.12 186.235 756.583 186.235C756.202 186.235 755.885 186.348 755.631 186.572C755.387 186.797 755.201 187.1 755.074 187.48C754.947 187.852 754.884 188.262 754.884 188.711C754.884 189.15 754.981 189.6 755.177 190.059C755.382 190.518 755.65 191.001 755.982 191.509C756.314 192.007 756.686 192.544 757.096 193.12L765.46 205H761.52L754.811 195.347C754.215 194.487 753.683 193.701 753.214 192.988C752.745 192.266 752.379 191.567 752.115 190.894C751.852 190.21 751.72 189.507 751.72 188.784C751.72 187.671 751.92 186.709 752.32 185.898C752.73 185.088 753.297 184.468 754.02 184.038C754.752 183.599 755.611 183.379 756.598 183.379C757.535 183.379 758.351 183.599 759.044 184.038C759.737 184.468 760.27 185.044 760.641 185.767C761.021 186.479 761.212 187.266 761.212 188.125C761.212 188.799 761.114 189.414 760.919 189.971C760.724 190.518 760.445 191.025 760.084 191.494C759.732 191.953 759.303 192.388 758.795 192.798L754.884 196.064C754.522 196.465 754.254 196.855 754.078 197.236C753.912 197.617 753.8 197.969 753.741 198.291C753.692 198.604 753.668 198.882 753.668 199.126C753.668 199.741 753.771 200.303 753.976 200.811C754.19 201.309 754.493 201.704 754.884 201.997C755.274 202.28 755.743 202.422 756.29 202.422C756.935 202.422 757.56 202.241 758.165 201.88C758.771 201.519 759.317 201.001 759.806 200.327C760.294 199.653 760.68 198.853 760.963 197.925C761.246 196.987 761.388 195.952 761.388 194.819H764.332C764.332 195.864 764.244 196.855 764.068 197.793C763.902 198.721 763.624 199.58 763.233 200.371C762.843 201.162 762.335 201.875 761.71 202.51C761.651 202.568 761.583 202.651 761.505 202.759C761.427 202.866 761.354 202.954 761.285 203.022C760.582 203.784 759.791 204.355 758.912 204.736C758.033 205.107 757.12 205.293 756.173 205.293C754.962 205.293 753.912 205.034 753.023 204.517C752.135 203.999 751.451 203.286 750.973 202.378C750.494 201.47 750.255 200.43 750.255 199.258C750.255 198.379 750.406 197.612 750.709 196.958C751.021 196.294 751.451 195.679 751.998 195.112C752.545 194.546 753.175 193.975 753.888 193.398ZM781.822 200.825C781.822 200.493 781.725 200.2 781.529 199.946C781.344 199.683 781.041 199.424 780.621 199.17C780.201 198.916 779.64 198.643 778.937 198.35C778.204 198.047 777.555 197.744 776.988 197.441C776.422 197.139 775.943 196.807 775.553 196.445C775.162 196.074 774.864 195.649 774.659 195.171C774.454 194.692 774.352 194.136 774.352 193.501C774.352 192.847 774.474 192.241 774.718 191.685C774.962 191.128 775.313 190.64 775.772 190.22C776.231 189.79 776.783 189.458 777.428 189.224C778.072 188.979 778.8 188.857 779.61 188.857C780.753 188.857 781.729 189.067 782.54 189.487C783.36 189.897 783.985 190.474 784.415 191.216C784.854 191.948 785.074 192.793 785.074 193.75H781.661C781.661 193.35 781.588 192.988 781.441 192.666C781.295 192.334 781.07 192.07 780.768 191.875C780.465 191.67 780.079 191.567 779.61 191.567C779.181 191.567 778.819 191.65 778.526 191.816C778.243 191.973 778.028 192.188 777.882 192.461C777.745 192.725 777.677 193.022 777.677 193.354C777.677 193.599 777.721 193.813 777.809 193.999C777.896 194.185 778.043 194.365 778.248 194.541C778.453 194.707 778.727 194.878 779.068 195.054C779.42 195.229 779.864 195.43 780.401 195.654C781.466 196.064 782.35 196.489 783.053 196.929C783.756 197.368 784.283 197.881 784.635 198.467C784.986 199.053 785.162 199.78 785.162 200.649C785.162 201.353 785.03 201.987 784.767 202.554C784.513 203.12 784.142 203.608 783.653 204.019C783.175 204.429 782.594 204.746 781.91 204.971C781.236 205.186 780.484 205.293 779.654 205.293C778.414 205.293 777.364 205.049 776.505 204.561C775.655 204.062 775.011 203.423 774.571 202.642C774.132 201.86 773.912 201.035 773.912 200.166H777.208C777.237 200.791 777.369 201.279 777.604 201.631C777.848 201.982 778.155 202.227 778.526 202.363C778.897 202.49 779.283 202.554 779.684 202.554C780.162 202.554 780.558 202.49 780.87 202.363C781.183 202.227 781.417 202.026 781.573 201.763C781.739 201.499 781.822 201.187 781.822 200.825ZM787.638 197.72V196.445C787.638 195.215 787.789 194.126 788.092 193.179C788.395 192.231 788.824 191.44 789.381 190.806C789.947 190.161 790.611 189.678 791.373 189.355C792.135 189.023 792.975 188.857 793.893 188.857C794.83 188.857 795.68 189.023 796.441 189.355C797.213 189.678 797.877 190.161 798.434 190.806C799 191.44 799.435 192.231 799.737 193.179C800.04 194.126 800.191 195.215 800.191 196.445V197.72C800.191 198.95 800.04 200.039 799.737 200.986C799.435 201.934 799 202.729 798.434 203.374C797.877 204.009 797.218 204.487 796.456 204.81C795.694 205.132 794.85 205.293 793.922 205.293C793.004 205.293 792.159 205.132 791.388 204.81C790.626 204.487 789.962 204.009 789.396 203.374C788.829 202.729 788.395 201.934 788.092 200.986C787.789 200.039 787.638 198.95 787.638 197.72ZM791.051 196.445V197.72C791.051 198.511 791.119 199.204 791.256 199.8C791.393 200.386 791.588 200.874 791.842 201.265C792.096 201.655 792.398 201.948 792.75 202.144C793.102 202.339 793.492 202.437 793.922 202.437C794.4 202.437 794.815 202.339 795.167 202.144C795.528 201.948 795.826 201.655 796.061 201.265C796.305 200.874 796.485 200.386 796.603 199.8C796.72 199.204 796.778 198.511 796.778 197.72V196.445C796.778 195.664 796.71 194.98 796.573 194.395C796.437 193.799 796.241 193.306 795.987 192.915C795.733 192.515 795.426 192.217 795.064 192.021C794.713 191.826 794.322 191.729 793.893 191.729C793.473 191.729 793.087 191.826 792.735 192.021C792.394 192.217 792.096 192.515 791.842 192.915C791.588 193.306 791.393 193.799 791.256 194.395C791.119 194.98 791.051 195.664 791.051 196.445ZM806.754 182.5V205H803.341V182.5H806.754ZM814.825 202.158L817.755 189.15H821.285L816.773 205H814.591L814.825 202.158ZM812.745 189.15L815.777 202.202L815.924 205H813.756L809.215 189.15H812.745ZM829.444 205.293C828.419 205.293 827.506 205.142 826.705 204.839C825.904 204.526 825.226 204.067 824.669 203.462C824.112 202.847 823.688 202.095 823.395 201.206C823.102 200.308 822.955 199.268 822.955 198.086V196.562C822.955 195.225 823.106 194.072 823.409 193.105C823.722 192.129 824.151 191.328 824.698 190.703C825.245 190.078 825.89 189.614 826.632 189.312C827.384 189.009 828.199 188.857 829.078 188.857C830.074 188.857 830.938 189.019 831.671 189.341C832.403 189.663 833.004 190.146 833.473 190.791C833.951 191.436 834.303 192.231 834.527 193.179C834.762 194.126 834.879 195.215 834.879 196.445V198.159H824.596V195.581H831.51V195.215C831.49 194.492 831.402 193.872 831.246 193.354C831.09 192.827 830.836 192.427 830.484 192.153C830.143 191.87 829.669 191.729 829.063 191.729C828.624 191.729 828.233 191.812 827.892 191.978C827.55 192.144 827.267 192.412 827.042 192.783C826.827 193.154 826.661 193.652 826.544 194.277C826.427 194.893 826.368 195.654 826.368 196.562V198.086C826.368 198.877 826.437 199.546 826.573 200.093C826.72 200.64 826.935 201.089 827.218 201.44C827.501 201.782 827.843 202.036 828.243 202.202C828.653 202.358 829.127 202.437 829.664 202.437C830.455 202.437 831.134 202.29 831.7 201.997C832.276 201.694 832.774 201.304 833.194 200.825L834.703 202.92C834.42 203.301 834.039 203.677 833.561 204.048C833.082 204.409 832.501 204.707 831.817 204.941C831.144 205.176 830.353 205.293 829.444 205.293ZM847.945 192.197V211.094H844.547V189.15H847.667L847.945 192.197ZM856.471 196.445V197.705C856.471 198.945 856.358 200.039 856.134 200.986C855.909 201.934 855.577 202.729 855.138 203.374C854.708 204.009 854.176 204.487 853.541 204.81C852.906 205.132 852.164 205.293 851.314 205.293C850.514 205.293 849.815 205.117 849.22 204.766C848.634 204.414 848.141 203.921 847.74 203.286C847.34 202.651 847.018 201.899 846.773 201.03C846.539 200.151 846.368 199.194 846.261 198.159V196.226C846.368 195.132 846.534 194.136 846.759 193.237C846.993 192.329 847.311 191.548 847.711 190.894C848.121 190.239 848.619 189.736 849.205 189.385C849.791 189.033 850.489 188.857 851.3 188.857C852.149 188.857 852.896 189.009 853.541 189.312C854.186 189.614 854.723 190.078 855.152 190.703C855.592 191.328 855.919 192.119 856.134 193.076C856.358 194.023 856.471 195.146 856.471 196.445ZM853.058 197.705V196.445C853.058 195.635 853.004 194.937 852.896 194.351C852.799 193.755 852.633 193.267 852.398 192.886C852.174 192.505 851.886 192.222 851.534 192.036C851.192 191.851 850.768 191.758 850.26 191.758C849.811 191.758 849.415 191.851 849.073 192.036C848.731 192.222 848.443 192.48 848.209 192.812C847.975 193.135 847.789 193.521 847.652 193.97C847.516 194.409 847.428 194.888 847.389 195.405V198.994C847.477 199.619 847.623 200.195 847.828 200.723C848.033 201.24 848.331 201.655 848.722 201.968C849.122 202.28 849.645 202.437 850.289 202.437C850.787 202.437 851.212 202.339 851.563 202.144C851.915 201.948 852.198 201.655 852.413 201.265C852.638 200.874 852.799 200.386 852.896 199.8C853.004 199.204 853.058 198.506 853.058 197.705ZM862.77 192.212V205H859.356V189.15H862.608L862.77 192.212ZM866.593 189.048L866.578 192.417C866.383 192.368 866.173 192.339 865.948 192.329C865.733 192.31 865.519 192.3 865.304 192.3C864.835 192.3 864.43 192.383 864.088 192.549C863.746 192.715 863.458 192.954 863.224 193.267C862.989 193.579 862.804 193.955 862.667 194.395C862.54 194.834 862.462 195.332 862.433 195.889L861.7 195.918C861.7 194.922 861.778 193.999 861.935 193.149C862.091 192.29 862.325 191.543 862.638 190.908C862.96 190.264 863.36 189.761 863.839 189.399C864.317 189.038 864.874 188.857 865.509 188.857C865.685 188.857 865.885 188.877 866.109 188.916C866.334 188.955 866.495 188.999 866.593 189.048ZM867.999 197.72V196.445C867.999 195.215 868.15 194.126 868.453 193.179C868.756 192.231 869.186 191.44 869.742 190.806C870.309 190.161 870.973 189.678 871.734 189.355C872.496 189.023 873.336 188.857 874.254 188.857C875.191 188.857 876.041 189.023 876.803 189.355C877.574 189.678 878.238 190.161 878.795 190.806C879.361 191.44 879.796 192.231 880.099 193.179C880.401 194.126 880.553 195.215 880.553 196.445V197.72C880.553 198.95 880.401 200.039 880.099 200.986C879.796 201.934 879.361 202.729 878.795 203.374C878.238 204.009 877.579 204.487 876.817 204.81C876.056 205.132 875.211 205.293 874.283 205.293C873.365 205.293 872.521 205.132 871.749 204.81C870.987 204.487 870.323 204.009 869.757 203.374C869.19 202.729 868.756 201.934 868.453 200.986C868.15 200.039 867.999 198.95 867.999 197.72ZM871.412 196.445V197.72C871.412 198.511 871.48 199.204 871.617 199.8C871.754 200.386 871.949 200.874 872.203 201.265C872.457 201.655 872.76 201.948 873.111 202.144C873.463 202.339 873.854 202.437 874.283 202.437C874.762 202.437 875.177 202.339 875.528 202.144C875.89 201.948 876.188 201.655 876.422 201.265C876.666 200.874 876.847 200.386 876.964 199.8C877.081 199.204 877.14 198.511 877.14 197.72V196.445C877.14 195.664 877.071 194.98 876.935 194.395C876.798 193.799 876.603 193.306 876.349 192.915C876.095 192.515 875.787 192.217 875.426 192.021C875.074 191.826 874.684 191.729 874.254 191.729C873.834 191.729 873.448 191.826 873.097 192.021C872.755 192.217 872.457 192.515 872.203 192.915C871.949 193.306 871.754 193.799 871.617 194.395C871.48 194.98 871.412 195.664 871.412 196.445ZM883.512 182.5H886.91V201.602L886.646 205H883.512V182.5ZM895.45 196.46V197.705C895.45 198.975 895.343 200.083 895.128 201.03C894.913 201.978 894.591 202.769 894.161 203.403C893.731 204.038 893.194 204.512 892.55 204.824C891.905 205.137 891.153 205.293 890.294 205.293C889.493 205.293 888.8 205.117 888.214 204.766C887.638 204.404 887.149 203.901 886.749 203.257C886.358 202.603 886.046 201.826 885.812 200.928C885.587 200.029 885.421 199.038 885.313 197.954V196.211C885.411 195.127 885.572 194.136 885.797 193.237C886.031 192.329 886.344 191.553 886.734 190.908C887.125 190.254 887.613 189.751 888.199 189.399C888.785 189.038 889.479 188.857 890.279 188.857C891.148 188.857 891.905 189.014 892.55 189.326C893.194 189.639 893.731 190.112 894.161 190.747C894.591 191.372 894.913 192.163 895.128 193.12C895.343 194.067 895.45 195.181 895.45 196.46ZM892.037 197.705V196.46C892.037 195.659 891.993 194.966 891.905 194.38C891.827 193.794 891.686 193.311 891.48 192.93C891.285 192.539 891.012 192.246 890.66 192.051C890.309 191.855 889.864 191.758 889.327 191.758C888.858 191.758 888.453 191.851 888.111 192.036C887.779 192.222 887.496 192.485 887.262 192.827C887.027 193.159 886.842 193.545 886.705 193.984C886.568 194.414 886.476 194.878 886.427 195.376V198.789C886.495 199.443 886.632 200.044 886.837 200.591C887.052 201.138 887.359 201.572 887.76 201.895C888.17 202.217 888.702 202.378 889.356 202.378C889.874 202.378 890.304 202.29 890.646 202.114C890.987 201.938 891.261 201.66 891.466 201.279C891.681 200.898 891.827 200.415 891.905 199.829C891.993 199.233 892.037 198.525 892.037 197.705ZM901.939 182.5V205H898.526V182.5H901.939ZM911.651 205.293C910.626 205.293 909.713 205.142 908.912 204.839C908.111 204.526 907.433 204.067 906.876 203.462C906.319 202.847 905.895 202.095 905.602 201.206C905.309 200.308 905.162 199.268 905.162 198.086V196.562C905.162 195.225 905.313 194.072 905.616 193.105C905.929 192.129 906.358 191.328 906.905 190.703C907.452 190.078 908.097 189.614 908.839 189.312C909.591 189.009 910.406 188.857 911.285 188.857C912.281 188.857 913.146 189.019 913.878 189.341C914.61 189.663 915.211 190.146 915.68 190.791C916.158 191.436 916.51 192.231 916.734 193.179C916.969 194.126 917.086 195.215 917.086 196.445V198.159H906.803V195.581H913.717V195.215C913.697 194.492 913.609 193.872 913.453 193.354C913.297 192.827 913.043 192.427 912.691 192.153C912.35 191.87 911.876 191.729 911.271 191.729C910.831 191.729 910.44 191.812 910.099 191.978C909.757 192.144 909.474 192.412 909.249 192.783C909.034 193.154 908.868 193.652 908.751 194.277C908.634 194.893 908.575 195.654 908.575 196.562V198.086C908.575 198.877 908.644 199.546 908.78 200.093C908.927 200.64 909.142 201.089 909.425 201.44C909.708 201.782 910.05 202.036 910.45 202.202C910.86 202.358 911.334 202.437 911.871 202.437C912.662 202.437 913.341 202.29 913.907 201.997C914.483 201.694 914.981 201.304 915.401 200.825L916.91 202.92C916.627 203.301 916.246 203.677 915.768 204.048C915.289 204.409 914.708 204.707 914.024 204.941C913.351 205.176 912.56 205.293 911.651 205.293ZM923.253 192.373V205H919.84V189.15H923.048L923.253 192.373ZM922.696 196.504H921.539C921.52 195.4 921.617 194.385 921.832 193.457C922.057 192.529 922.389 191.719 922.828 191.025C923.277 190.332 923.839 189.8 924.513 189.429C925.187 189.048 925.978 188.857 926.886 188.857C927.472 188.857 928.014 188.965 928.512 189.18C929.02 189.385 929.459 189.712 929.83 190.161C930.211 190.61 930.504 191.187 930.709 191.89C930.914 192.593 931.017 193.442 931.017 194.438V205H927.604V194.761C927.604 193.999 927.516 193.403 927.34 192.974C927.174 192.534 926.93 192.222 926.607 192.036C926.285 191.851 925.895 191.758 925.436 191.758C924.938 191.758 924.513 191.885 924.161 192.139C923.81 192.383 923.526 192.725 923.312 193.164C923.097 193.594 922.94 194.097 922.843 194.673C922.745 195.239 922.696 195.85 922.696 196.504ZM930.797 195.596L929.2 195.962C929.181 194.995 929.278 194.087 929.493 193.237C929.708 192.378 930.03 191.621 930.46 190.967C930.899 190.312 931.446 189.8 932.101 189.429C932.765 189.048 933.531 188.857 934.4 188.857C935.074 188.857 935.68 188.97 936.217 189.194C936.764 189.409 937.228 189.751 937.608 190.22C937.989 190.688 938.277 191.299 938.473 192.051C938.678 192.793 938.78 193.696 938.78 194.761V205H935.353V194.746C935.353 193.955 935.265 193.345 935.089 192.915C934.923 192.485 934.679 192.188 934.356 192.021C934.034 191.846 933.648 191.758 933.199 191.758C932.809 191.758 932.462 191.86 932.159 192.065C931.866 192.261 931.617 192.534 931.412 192.886C931.207 193.237 931.051 193.647 930.943 194.116C930.846 194.575 930.797 195.068 930.797 195.596ZM949.576 200.825C949.576 200.493 949.479 200.2 949.283 199.946C949.098 199.683 948.795 199.424 948.375 199.17C947.955 198.916 947.394 198.643 946.69 198.35C945.958 198.047 945.309 197.744 944.742 197.441C944.176 197.139 943.697 196.807 943.307 196.445C942.916 196.074 942.618 195.649 942.413 195.171C942.208 194.692 942.105 194.136 942.105 193.501C942.105 192.847 942.228 192.241 942.472 191.685C942.716 191.128 943.067 190.64 943.526 190.22C943.985 189.79 944.537 189.458 945.182 189.224C945.826 188.979 946.554 188.857 947.364 188.857C948.507 188.857 949.483 189.067 950.294 189.487C951.114 189.897 951.739 190.474 952.169 191.216C952.608 191.948 952.828 192.793 952.828 193.75H949.415C949.415 193.35 949.342 192.988 949.195 192.666C949.049 192.334 948.824 192.07 948.521 191.875C948.219 191.67 947.833 191.567 947.364 191.567C946.935 191.567 946.573 191.65 946.28 191.816C945.997 191.973 945.782 192.188 945.636 192.461C945.499 192.725 945.431 193.022 945.431 193.354C945.431 193.599 945.475 193.813 945.562 193.999C945.65 194.185 945.797 194.365 946.002 194.541C946.207 194.707 946.48 194.878 946.822 195.054C947.174 195.229 947.618 195.43 948.155 195.654C949.22 196.064 950.104 196.489 950.807 196.929C951.51 197.368 952.037 197.881 952.389 198.467C952.74 199.053 952.916 199.78 952.916 200.649C952.916 201.353 952.784 201.987 952.521 202.554C952.267 203.12 951.896 203.608 951.407 204.019C950.929 204.429 950.348 204.746 949.664 204.971C948.99 205.186 948.238 205.293 947.408 205.293C946.168 205.293 945.118 205.049 944.259 204.561C943.409 204.062 942.765 203.423 942.325 202.642C941.886 201.86 941.666 201.035 941.666 200.166H944.962C944.991 200.791 945.123 201.279 945.357 201.631C945.602 201.982 945.909 202.227 946.28 202.363C946.651 202.49 947.037 202.554 947.438 202.554C947.916 202.554 948.312 202.49 948.624 202.363C948.937 202.227 949.171 202.026 949.327 201.763C949.493 201.499 949.576 201.187 949.576 200.825ZM966.319 201.455L969.425 189.15H971.578L971.153 192.915L968.062 205H966.158L966.319 201.455ZM965.016 189.15L967.389 201.499L967.403 205H965.265L961.705 189.15H965.016ZM974.083 201.353L976.354 189.15H979.679L976.119 205H973.98L974.083 201.353ZM971.944 189.15L975.006 201.294L975.226 205H973.321L970.172 192.915L969.762 189.15H971.944ZM985.641 189.15V205H982.228V189.15H985.641ZM982.052 185.005C982.052 184.458 982.218 184.004 982.55 183.643C982.882 183.271 983.346 183.086 983.941 183.086C984.537 183.086 985.001 183.271 985.333 183.643C985.665 184.004 985.831 184.458 985.831 185.005C985.831 185.532 985.665 185.977 985.333 186.338C985.001 186.699 984.537 186.88 983.941 186.88C983.346 186.88 982.882 186.699 982.55 186.338C982.218 185.977 982.052 185.532 982.052 185.005ZM995.689 189.15V191.787H987.911V189.15H995.689ZM990.035 185.269H993.434V200.576C993.434 201.064 993.487 201.436 993.595 201.689C993.702 201.943 993.854 202.114 994.049 202.202C994.244 202.29 994.474 202.334 994.737 202.334C994.933 202.334 995.123 202.319 995.309 202.29C995.504 202.251 995.646 202.217 995.733 202.188V204.941C995.479 205.039 995.187 205.122 994.854 205.19C994.522 205.259 994.122 205.293 993.653 205.293C992.96 205.293 992.34 205.151 991.793 204.868C991.246 204.575 990.816 204.102 990.504 203.447C990.191 202.783 990.035 201.904 990.035 200.811V185.269ZM1001.7 182.5V205H998.297V182.5H1001.7ZM1001.09 196.504H1000.01C1000 195.4 1000.12 194.385 1000.36 193.457C1000.61 192.529 1000.96 191.719 1001.42 191.025C1001.88 190.332 1002.43 189.8 1003.07 189.429C1003.73 189.048 1004.45 188.857 1005.24 188.857C1005.89 188.857 1006.49 188.97 1007.01 189.194C1007.55 189.409 1008.01 189.751 1008.39 190.22C1008.78 190.688 1009.08 191.304 1009.28 192.065C1009.49 192.817 1009.59 193.735 1009.59 194.819V205H1006.18V194.79C1006.18 194.038 1006.09 193.442 1005.93 193.003C1005.77 192.563 1005.54 192.246 1005.23 192.051C1004.91 191.855 1004.52 191.758 1004.04 191.758C1003.57 191.758 1003.15 191.885 1002.78 192.139C1002.41 192.383 1002.1 192.725 1001.84 193.164C1001.6 193.594 1001.41 194.097 1001.29 194.673C1001.16 195.239 1001.09 195.85 1001.09 196.504ZM1023.33 192.373V205H1019.92V189.15H1023.13L1023.33 192.373ZM1022.77 196.504H1021.62C1021.6 195.4 1021.7 194.385 1021.91 193.457C1022.13 192.529 1022.47 191.719 1022.91 191.025C1023.36 190.332 1023.92 189.8 1024.59 189.429C1025.26 189.048 1026.06 188.857 1026.96 188.857C1027.55 188.857 1028.09 188.965 1028.59 189.18C1029.1 189.385 1029.54 189.712 1029.91 190.161C1030.29 190.61 1030.58 191.187 1030.79 191.89C1030.99 192.593 1031.09 193.442 1031.09 194.438V205H1027.68V194.761C1027.68 193.999 1027.59 193.403 1027.42 192.974C1027.25 192.534 1027.01 192.222 1026.69 192.036C1026.36 191.851 1025.97 191.758 1025.51 191.758C1025.02 191.758 1024.59 191.885 1024.24 192.139C1023.89 192.383 1023.6 192.725 1023.39 193.164C1023.17 193.594 1023.02 194.097 1022.92 194.673C1022.82 195.239 1022.77 195.85 1022.77 196.504ZM1030.88 195.596L1029.28 195.962C1029.26 194.995 1029.36 194.087 1029.57 193.237C1029.79 192.378 1030.11 191.621 1030.54 190.967C1030.98 190.312 1031.52 189.8 1032.18 189.429C1032.84 189.048 1033.61 188.857 1034.48 188.857C1035.15 188.857 1035.76 188.97 1036.29 189.194C1036.84 189.409 1037.31 189.751 1037.69 190.22C1038.07 190.688 1038.36 191.299 1038.55 192.051C1038.76 192.793 1038.86 193.696 1038.86 194.761V205H1035.43V194.746C1035.43 193.955 1035.34 193.345 1035.17 192.915C1035 192.485 1034.76 192.188 1034.43 192.021C1034.11 191.846 1033.73 191.758 1033.28 191.758C1032.89 191.758 1032.54 191.86 1032.24 192.065C1031.94 192.261 1031.7 192.534 1031.49 192.886C1031.29 193.237 1031.13 193.647 1031.02 194.116C1030.92 194.575 1030.88 195.068 1030.88 195.596ZM1046.17 203.257L1049.57 189.15H1053.16L1047.93 207.402C1047.81 207.803 1047.64 208.232 1047.43 208.691C1047.22 209.15 1046.95 209.585 1046.62 209.995C1046.3 210.415 1045.89 210.752 1045.41 211.006C1044.93 211.27 1044.36 211.401 1043.69 211.401C1043.42 211.401 1043.16 211.377 1042.9 211.328C1042.65 211.279 1042.4 211.221 1042.17 211.152V208.398C1042.25 208.408 1042.33 208.418 1042.43 208.428C1042.53 208.438 1042.62 208.442 1042.7 208.442C1043.17 208.442 1043.57 208.369 1043.88 208.223C1044.2 208.086 1044.45 207.861 1044.66 207.549C1044.86 207.246 1045.04 206.841 1045.2 206.333L1046.17 203.257ZM1044.66 189.15L1047.44 200.942L1048.04 204.766L1045.7 205.366L1040.98 189.15H1044.66ZM1070.18 201.689V182.5H1073.59V205L1070.5 205.015L1070.18 201.689ZM1061.67 197.72V196.475C1061.67 195.176 1061.78 194.053 1062.02 193.105C1062.25 192.148 1062.59 191.353 1063.04 190.718C1063.5 190.083 1064.05 189.614 1064.7 189.312C1065.34 189.009 1066.07 188.857 1066.88 188.857C1067.67 188.857 1068.36 189.038 1068.93 189.399C1069.51 189.751 1070 190.254 1070.4 190.908C1070.8 191.562 1071.11 192.344 1071.35 193.252C1071.59 194.15 1071.76 195.156 1071.85 196.27V197.998C1071.74 199.072 1071.57 200.059 1071.33 200.957C1071.1 201.846 1070.78 202.612 1070.38 203.257C1069.98 203.901 1069.49 204.404 1068.9 204.766C1068.33 205.117 1067.65 205.293 1066.87 205.293C1066.06 205.293 1065.33 205.132 1064.68 204.81C1064.05 204.487 1063.5 204.009 1063.04 203.374C1062.59 202.739 1062.25 201.953 1062.02 201.016C1061.78 200.068 1061.67 198.97 1061.67 197.72ZM1065.08 196.475V197.72C1065.08 198.53 1065.13 199.229 1065.23 199.814C1065.32 200.4 1065.48 200.884 1065.69 201.265C1065.91 201.636 1066.19 201.914 1066.54 202.1C1066.9 202.275 1067.32 202.363 1067.82 202.363C1068.44 202.363 1068.95 202.207 1069.34 201.895C1069.74 201.582 1070.05 201.162 1070.26 200.635C1070.49 200.098 1070.65 199.502 1070.73 198.848V195.435C1070.68 194.917 1070.59 194.438 1070.44 193.999C1070.29 193.55 1070.1 193.159 1069.87 192.827C1069.63 192.495 1069.35 192.236 1069 192.051C1068.67 191.855 1068.28 191.758 1067.83 191.758C1067.33 191.758 1066.91 191.855 1066.56 192.051C1066.21 192.236 1065.92 192.524 1065.71 192.915C1065.49 193.296 1065.33 193.784 1065.23 194.38C1065.13 194.966 1065.08 195.664 1065.08 196.475ZM1083.16 205.293C1082.13 205.293 1081.22 205.142 1080.42 204.839C1079.62 204.526 1078.94 204.067 1078.38 203.462C1077.82 202.847 1077.4 202.095 1077.11 201.206C1076.81 200.308 1076.67 199.268 1076.67 198.086V196.562C1076.67 195.225 1076.82 194.072 1077.12 193.105C1077.43 192.129 1077.86 191.328 1078.41 190.703C1078.96 190.078 1079.6 189.614 1080.34 189.312C1081.09 189.009 1081.91 188.857 1082.79 188.857C1083.79 188.857 1084.65 189.019 1085.38 189.341C1086.11 189.663 1086.71 190.146 1087.18 190.791C1087.66 191.436 1088.01 192.231 1088.24 193.179C1088.47 194.126 1088.59 195.215 1088.59 196.445V198.159H1078.31V195.581H1085.22V195.215C1085.2 194.492 1085.11 193.872 1084.96 193.354C1084.8 192.827 1084.55 192.427 1084.2 192.153C1083.85 191.87 1083.38 191.729 1082.77 191.729C1082.33 191.729 1081.94 191.812 1081.6 191.978C1081.26 192.144 1080.98 192.412 1080.75 192.783C1080.54 193.154 1080.37 193.652 1080.25 194.277C1080.14 194.893 1080.08 195.654 1080.08 196.562V198.086C1080.08 198.877 1080.15 199.546 1080.28 200.093C1080.43 200.64 1080.65 201.089 1080.93 201.44C1081.21 201.782 1081.55 202.036 1081.95 202.202C1082.36 202.358 1082.84 202.437 1083.38 202.437C1084.17 202.437 1084.84 202.29 1085.41 201.997C1085.99 201.694 1086.49 201.304 1086.91 200.825L1088.41 202.92C1088.13 203.301 1087.75 203.677 1087.27 204.048C1086.79 204.409 1086.21 204.707 1085.53 204.941C1084.85 205.176 1084.06 205.293 1083.16 205.293ZM1098.67 200.825C1098.67 200.493 1098.57 200.2 1098.38 199.946C1098.19 199.683 1097.89 199.424 1097.47 199.17C1097.05 198.916 1096.49 198.643 1095.78 198.35C1095.05 198.047 1094.4 197.744 1093.83 197.441C1093.27 197.139 1092.79 196.807 1092.4 196.445C1092.01 196.074 1091.71 195.649 1091.5 195.171C1091.3 194.692 1091.2 194.136 1091.2 193.501C1091.2 192.847 1091.32 192.241 1091.56 191.685C1091.81 191.128 1092.16 190.64 1092.62 190.22C1093.08 189.79 1093.63 189.458 1094.27 189.224C1094.92 188.979 1095.65 188.857 1096.46 188.857C1097.6 188.857 1098.58 189.067 1099.39 189.487C1100.21 189.897 1100.83 190.474 1101.26 191.216C1101.7 191.948 1101.92 192.793 1101.92 193.75H1098.51C1098.51 193.35 1098.43 192.988 1098.29 192.666C1098.14 192.334 1097.92 192.07 1097.61 191.875C1097.31 191.67 1096.92 191.567 1096.46 191.567C1096.03 191.567 1095.67 191.65 1095.37 191.816C1095.09 191.973 1094.87 192.188 1094.73 192.461C1094.59 192.725 1094.52 193.022 1094.52 193.354C1094.52 193.599 1094.57 193.813 1094.65 193.999C1094.74 194.185 1094.89 194.365 1095.09 194.541C1095.3 194.707 1095.57 194.878 1095.91 195.054C1096.27 195.229 1096.71 195.43 1097.25 195.654C1098.31 196.064 1099.2 196.489 1099.9 196.929C1100.6 197.368 1101.13 197.881 1101.48 198.467C1101.83 199.053 1102.01 199.78 1102.01 200.649C1102.01 201.353 1101.88 201.987 1101.61 202.554C1101.36 203.12 1100.99 203.608 1100.5 204.019C1100.02 204.429 1099.44 204.746 1098.76 204.971C1098.08 205.186 1097.33 205.293 1096.5 205.293C1095.26 205.293 1094.21 205.049 1093.35 204.561C1092.5 204.062 1091.86 203.423 1091.42 202.642C1090.98 201.86 1090.76 201.035 1090.76 200.166H1094.05C1094.08 200.791 1094.21 201.279 1094.45 201.631C1094.69 201.982 1095 202.227 1095.37 202.363C1095.74 202.49 1096.13 202.554 1096.53 202.554C1097.01 202.554 1097.4 202.49 1097.72 202.363C1098.03 202.227 1098.26 202.026 1098.42 201.763C1098.58 201.499 1098.67 201.187 1098.67 200.825ZM1108.6 189.15V205H1105.19V189.15H1108.6ZM1105.01 185.005C1105.01 184.458 1105.18 184.004 1105.51 183.643C1105.84 183.271 1106.3 183.086 1106.9 183.086C1107.5 183.086 1107.96 183.271 1108.29 183.643C1108.62 184.004 1108.79 184.458 1108.79 185.005C1108.79 185.532 1108.62 185.977 1108.29 186.338C1107.96 186.699 1107.5 186.88 1106.9 186.88C1106.3 186.88 1105.84 186.699 1105.51 186.338C1105.18 185.977 1105.01 185.532 1105.01 185.005ZM1120.7 189.15H1123.79V205.059C1123.79 206.484 1123.53 207.651 1123 208.56C1122.48 209.478 1121.76 210.156 1120.83 210.596C1119.9 211.035 1118.83 211.255 1117.61 211.255C1117.16 211.255 1116.63 211.182 1116.01 211.035C1115.4 210.889 1114.8 210.674 1114.21 210.391C1113.62 210.107 1113.14 209.756 1112.75 209.336L1113.99 206.963C1114.45 207.432 1114.99 207.793 1115.62 208.047C1116.24 208.311 1116.84 208.442 1117.42 208.442C1118.04 208.442 1118.57 208.335 1119 208.12C1119.44 207.915 1119.78 207.568 1120.01 207.08C1120.25 206.602 1120.36 205.952 1120.36 205.132V192.739L1120.7 189.15ZM1111.73 197.72V196.475C1111.73 195.176 1111.86 194.053 1112.1 193.105C1112.34 192.148 1112.7 191.353 1113.16 190.718C1113.61 190.083 1114.18 189.614 1114.84 189.312C1115.5 189.009 1116.25 188.857 1117.07 188.857C1117.92 188.857 1118.63 189.038 1119.22 189.399C1119.82 189.751 1120.3 190.254 1120.67 190.908C1121.05 191.562 1121.35 192.344 1121.56 193.252C1121.78 194.15 1121.93 195.156 1122.03 196.27V197.998C1121.93 199.072 1121.77 200.059 1121.53 200.957C1121.3 201.846 1120.98 202.612 1120.58 203.257C1120.19 203.901 1119.7 204.404 1119.12 204.766C1118.54 205.117 1117.85 205.293 1117.04 205.293C1116.23 205.293 1115.49 205.132 1114.84 204.81C1114.19 204.487 1113.62 204.009 1113.16 203.374C1112.7 202.739 1112.34 201.953 1112.1 201.016C1111.86 200.068 1111.73 198.97 1111.73 197.72ZM1115.15 196.475V197.72C1115.15 198.53 1115.2 199.229 1115.31 199.814C1115.43 200.4 1115.6 200.884 1115.82 201.265C1116.05 201.636 1116.34 201.914 1116.7 202.1C1117.06 202.275 1117.49 202.363 1117.99 202.363C1118.64 202.363 1119.17 202.207 1119.57 201.895C1119.98 201.582 1120.29 201.162 1120.51 200.635C1120.73 200.098 1120.89 199.502 1120.98 198.848V195.435C1120.93 194.917 1120.83 194.438 1120.68 193.999C1120.55 193.55 1120.36 193.159 1120.11 192.827C1119.88 192.495 1119.59 192.236 1119.23 192.051C1118.89 191.855 1118.49 191.758 1118.02 191.758C1117.53 191.758 1117.1 191.855 1116.73 192.051C1116.37 192.236 1116.07 192.524 1115.84 192.915C1115.6 193.296 1115.43 193.784 1115.31 194.38C1115.2 194.966 1115.15 195.664 1115.15 196.475ZM1130.59 192.534V205H1127.17V189.15H1130.38L1130.59 192.534ZM1129.97 196.504H1128.89C1128.88 195.361 1129 194.321 1129.25 193.384C1129.51 192.446 1129.87 191.641 1130.34 190.967C1130.82 190.293 1131.38 189.775 1132.04 189.414C1132.7 189.043 1133.44 188.857 1134.25 188.857C1134.87 188.857 1135.45 188.965 1135.96 189.18C1136.49 189.385 1136.94 189.722 1137.31 190.19C1137.68 190.659 1137.96 191.27 1138.16 192.021C1138.37 192.773 1138.47 193.691 1138.47 194.775V205H1135.05V194.746C1135.05 194.004 1134.97 193.418 1134.81 192.988C1134.65 192.549 1134.42 192.236 1134.1 192.051C1133.79 191.855 1133.39 191.758 1132.92 191.758C1132.48 191.758 1132.07 191.885 1131.7 192.139C1131.34 192.383 1131.03 192.725 1130.76 193.164C1130.51 193.594 1130.31 194.097 1130.18 194.673C1130.04 195.239 1129.97 195.85 1129.97 196.504ZM1145.87 183.672L1145.51 198.687H1142.6L1142.25 183.672H1145.87ZM1142.19 203.286C1142.19 202.749 1142.35 202.295 1142.69 201.924C1143.03 201.543 1143.49 201.353 1144.08 201.353C1144.67 201.353 1145.14 201.543 1145.47 201.924C1145.8 202.295 1145.97 202.749 1145.97 203.286C1145.97 203.823 1145.8 204.282 1145.47 204.663C1145.14 205.034 1144.67 205.22 1144.08 205.22C1143.49 205.22 1143.03 205.034 1142.69 204.663C1142.35 204.282 1142.19 203.823 1142.19 203.286Z" fill="#292929"/>
<path opacity="0.8" d="M44.1158 506.033L-13.8281 509.488L-13.8281 613.721L31.7738 611.215L44.1158 506.033Z" stroke="white" stroke-width="2.00448"/>
<circle cx="27.0604" cy="560.252" r="3.00672" fill="white"/>
</g>
<defs>
<clipPath id="clip0_354_1444">
<rect width="1240" height="784" fill="white"/>
</clipPath>
<clipPath id="clip1_354_1444">
<rect width="196.023" height="304.173" fill="white" transform="translate(157.16 42.4111)"/>
</clipPath>
</defs>
</svg>
