<svg width="836" height="396" viewBox="0 0 836 396" fill="none" xmlns="http://www.w3.org/2000/svg">
<path d="M753.298 93.9874C751.294 92.484 754.802 86.9717 754.802 86.9717L765.826 90.9806C765.826 90.9806 765.325 94.9896 764.824 96.493C764.323 97.9963 755.303 95.4907 753.298 93.9874Z" fill="#FFDD76"/>
<path d="M29.2411 94.652L28.8781 85.2602C28.8781 85.2602 49.4619 85.5486 50.1315 86.1175C50.8011 86.6864 53.617 95.1437 52.6044 95.3427C51.5918 95.5417 29.2411 94.652 29.2411 94.652Z" fill="#13755D" stroke="white" stroke-width="0.554627"/>
<path d="M26.3496 98.0865C17.3088 96.8224 12.1196 95.8453 3.92915 96.4628C3.024 99.6965 3.35837 101.599 4.3622 105.033C11.7801 106.978 17.0469 107.297 26.8 107.618L26.3496 98.0865Z" fill="#13755D" stroke="white" stroke-width="0.554627"/>
<path d="M118.072 89.7261L115.145 89.6396L114.66 92.1421C114.66 92.1421 111.051 91.9439 110.627 92.3432C110.203 92.7425 110.55 94.9493 110.905 95.3258C111.26 95.7024 115.104 95.6788 115.372 95.9155C115.639 96.1522 116.146 97.5858 115.826 97.5763C115.506 97.5669 112.186 96.8738 112.221 97.2409C112.256 97.608 111.645 99.695 112.228 100.078C112.812 100.462 116.527 100.205 116.559 100.664C116.591 101.122 116.509 102.356 116.509 102.356C116.509 102.356 115.052 102.084 113.818 102.047C112.584 102.011 113.215 105.416 113.215 105.416C113.215 105.416 118.962 106.043 119.38 105.827C119.799 105.61 118.072 89.7261 118.072 89.7261Z" stroke="white" stroke-width="1.10925"/>
<path d="M28.4202 72.9355L28.4918 70.5123C53.918 71.081 73.7046 73.5669 86.0121 75.1872C98.3196 76.8075 115.619 86.0384 118.028 89.6789L115.102 89.5924C112.417 87.5453 107.689 84.9345 104.266 83.0943C100.842 81.2542 90.4353 78.1644 86.7621 77.6804C84.1958 77.3423 76.8364 76.1927 68.0652 75.4803C50.8184 74.0796 28.4202 72.9355 28.4202 72.9355Z" fill="#FDC008" stroke="white" stroke-width="1.10925"/>
<path d="M33.0311 215.8L27.8139 53.2866L43.2218 53.7421L42.2929 51.1063L9.87695 50.1479L9.79991 52.754L25.0249 53.2041L30.1964 215.716L33.0311 215.8Z" fill="#FDC008" stroke="white" stroke-width="1.10925"/>
<path d="M38.9219 53.6147L92.9215 76.7644" stroke="white" stroke-width="0.554627"/>
<path d="M5.00977 303.456L326.693 338.464L822.99 394.876" stroke="white" stroke-width="2.00448"/>
<path d="M244.545 295.768L440.794 316.564L832.358 361.084" stroke="white" stroke-width="0.50112"/>
<path d="M387.865 261.692L584.114 282.488L832.358 308.968" stroke="white" stroke-width="0.50112"/>
<path d="M134.299 169.024L330.89 186.282L837.473 231.483" stroke="white" stroke-width="1.00224"/>
<g opacity="0.4">
<path d="M730.586 27.8123V146.835L730.587 158.632" stroke="#292929" stroke-width="0.806931"/>
<path d="M768.107 26.1973V161.639" stroke="#292929" stroke-width="0.806931"/>
<path d="M676.119 32.6533V154.122" stroke="#292929" stroke-width="0.806931"/>
<path d="M818.137 16.9187L809.664 24.1811V164.144" stroke="#292929" stroke-width="0.806931"/>
<path d="M604.705 24.9872V137.958V32.2496L486.086 64.5268L604.705 24.9872ZM604.705 24.9872H662.4L636.175 32.2496M636.175 32.2496L678.942 20.5491H712.027L739.462 10.8659H783.44L797.158 6.02435L839.522 10.8659L883.903 0.779297H898.428V10.8659L854.853 17.3214H807.244L790.299 20.5491H739.462L712.027 28.215H682.17L636.175 36.2843V32.2496ZM489.717 64.5268V140.091" stroke="#292929" stroke-width="0.806931"/>
<path d="M604.707 32.6533V148.61" stroke="#292929" stroke-width="0.806931"/>
<path d="M641.422 38.3005V152.117" stroke="#292929" stroke-width="0.806931"/>
<path d="M597.441 38.7058L586.951 41.9335V57.2652L597.441 54.441V38.7058Z" stroke="#292929" stroke-width="0.806931"/>
<path d="M560.323 49.5994L549.43 52.4236V66.1415L560.323 63.7207V49.5994Z" stroke="#292929" stroke-width="0.806931"/>
<path d="M531.678 57.668L520.381 60.2856V72.9997L531.678 70.756V57.668Z" stroke="#292929" stroke-width="0.806931"/>
<path d="M505.046 64.1238L495.363 66.6036V78.6485L505.046 76.523V64.1238Z" stroke="#292929" stroke-width="0.806931"/>
<path d="M848.841 33.853H825.844V53.6228H848.841V33.853Z" stroke="#292929" stroke-width="0.806931"/>
<path d="M784.609 40.7249V31.8486H775.732V40.7249H784.609Z" stroke="#292929" stroke-width="0.806931"/>
<path d="M784.609 88.7373V78.6506H775.732V88.7373H784.609Z" stroke="#292929" stroke-width="0.806931"/>
<path d="M784.609 133.522V123.839H775.732V133.522H784.609Z" stroke="#292929" stroke-width="0.806931"/>
</g>
<path d="M435.973 136.082L555.789 145.266L836.868 166.65" stroke="white" stroke-width="1.00224"/>
<path d="M781.323 212.234V95.9496L779.186 154.519L777.048 212.234H772.773V222.922L785.171 223.777V212.234H781.323Z" fill="#CBB9D4"/>
<path d="M781.323 95.9496V212.234H785.171V223.777L772.773 222.922V212.234H777.048L779.186 154.519L781.323 95.9496ZM781.323 95.9496L752.68 86.9717" stroke="#CBB9D4" stroke-width="1.71007"/>
<path d="M378.723 267.665C377.451 247.398 374.214 239.233 369.966 216.79L365.628 221.338L372.58 252.468C372.58 252.468 371.475 251.338 370.699 250.796C369.923 250.255 369.08 249.987 369.08 249.987C367.038 250.023 366.759 252.366 365.409 256.423C364.699 260.235 364.58 262.256 370.267 264.813C372.784 265.885 374.156 266.293 375.606 262.118L376.599 267.887L378.723 267.665Z" fill="#FFF8F8"/>
<path d="M349.7 266.968L352.271 266.699L349.162 243.353L347.164 219.179L342.452 213.621L344.846 251.992C341.925 248.779 341.243 250.234 339.726 251.995C337.13 256.838 337.267 261.507 340.362 262.963C343.457 264.418 346.7 266.316 348.857 262.073L349.7 266.968Z" fill="#FFF8F8"/>
<path d="M378.723 267.665C377.451 247.398 374.214 239.233 369.966 216.79L365.628 221.338L372.58 252.468C372.58 252.468 371.475 251.338 370.699 250.796C369.923 250.255 369.08 249.987 369.08 249.987C367.038 250.023 366.759 252.366 365.409 256.423C364.699 260.235 364.58 262.256 370.267 264.813C372.784 265.885 374.156 266.293 375.606 262.118L376.599 267.887L378.723 267.665Z" stroke="#13755D" stroke-width="1.15522"/>
<path d="M349.7 266.968L352.271 266.699L349.162 243.353L347.164 219.179L342.452 213.621L344.846 251.992C341.925 248.779 341.243 250.234 339.726 251.995C337.13 256.838 337.267 261.507 340.362 262.963C343.457 264.418 346.7 266.316 348.857 262.073L349.7 266.968Z" stroke="#13755D" stroke-width="1.15522"/>
<path d="M305.275 165.199L334.31 193.979L331.806 200.765L302.039 171.728C298.605 170.899 296.145 172.535 293.604 166.797C291.976 163.123 291.608 161.495 293.616 160.71C292.584 156.59 292.549 154.949 296.268 155.335C297.163 152.17 297.928 150.498 300.455 153.33C299.867 151.454 300.063 152.656 299.97 150.712C300.831 149.366 301.456 150.041 302.669 151.354L302.721 151.409C305.72 156.565 305.176 158.261 305.275 165.199Z" fill="#FFF8F8"/>
<path d="M394.759 165.299L375.262 193.563L376.155 204.538L399.595 172.333C399.595 172.333 405.023 170.874 406.084 169.834C407.145 168.794 408.305 167.462 406.652 163.671C406.788 161.966 406.279 161.095 404.209 159.71C404.221 157.094 403.507 156.506 401.529 156.318C399.199 154.072 398.26 154.793 396.75 156.972C394.265 157.994 394.007 160.05 394.759 165.299Z" fill="#FFF8F8"/>
<path d="M305.275 165.199L334.31 193.979L331.806 200.765L302.039 171.728C298.605 170.899 296.145 172.535 293.604 166.797C291.976 163.123 291.608 161.495 293.616 160.71C292.584 156.59 292.549 154.949 296.268 155.335C297.163 152.17 297.928 150.498 300.455 153.33C299.867 151.454 300.063 152.656 299.97 150.712C300.831 149.366 301.456 150.041 302.669 151.354L302.721 151.409C305.72 156.565 305.176 158.261 305.275 165.199Z" stroke="#13755D" stroke-width="1.15522"/>
<path d="M394.759 165.299L375.262 193.563L376.155 204.538L399.595 172.333C399.595 172.333 405.023 170.874 406.084 169.834C407.145 168.794 408.305 167.462 406.652 163.671C406.788 161.966 406.279 161.095 404.209 159.71C404.221 157.094 403.507 156.506 401.529 156.318C399.199 154.072 398.26 154.793 396.75 156.972C394.265 157.994 394.007 160.05 394.759 165.299Z" stroke="#13755D" stroke-width="1.15522"/>
<path d="M338.543 181.926C343.787 182.423 348.418 187.302 351.881 198.106C355.28 188.464 357.823 184.581 362.837 181.691C367.851 178.801 378.063 182.496 378.102 200.05C376.559 212.997 369.625 220.345 356.992 233.455C344.657 220.501 334.406 208.298 330.586 199.603C326.766 190.909 331.426 181.767 338.543 181.926Z" fill="#F16762"/>
</svg>
