<svg width="714" height="290" viewBox="0 0 714 290" fill="none" xmlns="http://www.w3.org/2000/svg">
<path d="M633.885 236.13C682.788 249.847 660.554 271.551 622.937 275.32H107.013C106.92 275.32 106.825 275.309 106.734 275.29C92.6408 272.281 83.6465 271.184 84.1775 259.354C84.1839 259.209 84.1662 259.053 84.13 258.913C78.3839 236.75 140.953 227.474 96.4469 226.769C67.1144 224.398 2.88273 199.307 54.2131 181.575C74.8491 177.063 82.3906 173.081 90.1731 164.437C90.4824 164.094 90.5913 163.625 90.4533 163.184C86.1727 149.511 74.6786 116.54 115.431 116.54H172.177C173.809 116.54 174.206 113.125 172.668 112.578C149.209 104.229 147.381 88.7368 185.354 79.9134C315.734 54.7454 482.036 78.5676 508.332 85.4627C534.627 92.3578 578.254 102.542 588.911 108.77C606.002 118.759 595.055 127.654 615.991 128.748C682.841 137.139 649.232 191.873 589.019 190.237C588.948 190.235 588.873 190.239 588.803 190.248C566.354 193.229 561.27 197.03 554.464 204.132C554.216 204.391 554.084 204.748 554.095 205.107C554.524 218.281 551.081 225.063 537.636 232.054C536.375 232.71 536.798 234.723 538.22 234.743L633.54 236.079C633.654 236.08 633.775 236.099 633.885 236.13Z" fill="#FF7BA2"/>
<path opacity="0.4" d="M686.652 250.411C725.462 261.496 719.516 278.854 686.672 289.944C686.566 289.98 686.452 289.999 686.339 289.999H137.515C137.459 289.999 137.402 289.995 137.347 289.986C122.28 287.534 112.651 286.652 113.187 277.06C113.195 276.914 113.176 276.765 113.125 276.628C106.386 258.531 83.0121 238.659 35.4987 238.085C-14.3523 237.26 9.2017 214.921 35.4987 216.864C59.2865 218.621 67.7141 220.423 69.1058 220.751C69.2489 220.785 69.4428 220.784 69.5874 220.758C90.7662 216.901 -38.2144 197.515 11.4855 171.419C11.5326 171.394 11.5791 171.367 11.6221 171.335C27.4317 159.762 106.994 143.555 156.295 169.347C154.696 153.67 215.357 116.809 255.146 109.77C338.871 94.9586 448.308 103.411 465.323 118.912C482.236 134.322 503.879 161.1 536.791 168.732C537.155 168.816 537.453 169.107 537.574 169.461C547.836 199.618 627.546 163.733 660.409 168.855C660.463 168.863 660.517 168.867 660.572 168.867C734.533 168.891 712.84 199.965 648.477 198.579C623.944 201.05 616.09 227.842 608.593 233.841C594.044 245.482 607.028 249.893 608.466 250.333C608.555 250.36 608.64 250.371 608.732 250.371H686.364C686.46 250.371 686.56 250.385 686.652 250.411Z" fill="#E0797B"/>
<path d="M144.369 193.586V169.521H150.385V193.586H144.369Z" fill="#FFD949"/>
<path d="M218.816 193.212V169.147H224.833V193.212H218.816Z" fill="#C4C3D0"/>
<path d="M234.826 117.671L139.397 117.951C132.177 117.973 126.342 123.842 126.363 131.062L126.493 175.207C126.496 176.456 127.522 177.467 128.772 177.463L248.074 177.112L247.937 130.705C247.916 123.485 242.046 117.649 234.826 117.671Z" fill="#FFD949"/>
<path d="M229.12 188.547C228.945 185.759 226.23 178.083 224.067 164.853C229.264 163.789 234.634 162.264 239.921 160.498L244.276 181.578C245.844 186.805 238.63 204.1 235.566 211.021L228.249 229.487L216.576 225.829C216.576 225.829 229.294 191.334 229.12 188.547Z" fill="#C29473"/>
<path d="M152.029 157.121L163.027 136.909C160.613 133.897 159.176 131.579 156.785 126.209L150.543 110.455C150.543 110.455 150.824 108.078 150.543 105.402C150.262 102.727 144.022 90.7289 139.843 81.3268C138.352 79.4496 137.545 78.1664 136.276 74.7877C136.276 74.7877 135.681 72.1126 135.384 71.5182C135.087 70.9238 130.034 57.8456 130.034 57.8456C131.246 54.4477 131.368 52.0444 131.223 47.4426C131.671 45.8736 132.79 44.0364 133.656 42.7633C134.29 41.8326 134.263 40.4882 133.182 40.1735C132.632 40.0132 131.965 39.991 131.223 40.309L127.656 44.4702C126.918 45.3207 126.394 45.5736 125.278 45.6591C121.04 40.222 119.027 36.0202 115.767 29.3115C114.408 29.1487 113.986 29.4419 113.687 30.5004L117.253 41.2007C116.747 41.3678 116.444 41.3993 115.767 41.2007L107.147 31.3921C105.903 31.0807 105.067 31.9866 105.067 32.8783L112.498 43.5786C112.521 44.1416 112.364 44.3518 111.606 44.4702L101.797 37.9312C99.9927 38.1559 99.898 38.7674 100.014 40.0118L109.525 48.037C109.525 48.037 109.525 48.6315 108.931 48.9287C108.336 49.2259 106.805 49.154 105.067 48.9287C105.067 48.9287 100.906 47.4426 98.825 47.4426C96.7443 47.4426 96.5653 48.6903 97.6361 49.8204C103.409 51.4742 106.4 52.8278 111.606 55.4678C115.476 58.5706 117.063 60.7014 119.631 64.6819L131.223 96.7828L135.384 107.483C135.899 111.535 136.448 113.719 138.357 117.292C139.298 124.722 140.514 128.45 143.112 134.828L148.462 151.77C149.692 154.792 150.458 156.071 152.029 157.121Z" fill="#C29473"/>
<path d="M111.979 54.8863C111.979 54.1393 112.099 53.666 112.502 53.0393C112.797 52.5804 113.236 52.058 113.672 51.7191C113.831 51.595 113.959 51.4283 114.103 51.2847C114.243 51.1444 114.44 51.0703 114.564 50.9153C114.759 50.6721 115.172 50.5325 115.303 50.2381C115.41 49.9984 115.649 49.7974 115.796 49.5779C115.945 49.3536 116.08 49.1243 116.227 48.9007C116.675 48.2155 116.824 47.6001 117.013 46.8211C117.061 46.6235 117.135 46.3473 117.26 46.1918C117.304 46.1359 117.273 45.9577 117.273 45.8908C117.273 45.6697 117.324 45.4466 117.383 45.2341C117.455 44.9716 117.376 44.2354 117.827 44.2354" stroke="#946228" stroke-opacity="0.75" stroke-width="0.29723" stroke-linecap="round"/>
<path d="M122.15 43.9263C121.528 43.9885 121.064 44.7536 120.765 45.2192C120.608 45.4632 120.456 45.7063 120.327 45.9648C120.124 46.3707 119.797 46.8149 119.688 47.2543C119.561 47.7625 119.328 48.2896 119.134 48.7763C118.918 49.3158 118.716 49.8709 118.456 50.3907C118.144 51.0161 117.983 51.4341 118.21 52.1146" stroke="#946228" stroke-opacity="0.75" stroke-width="0.29723" stroke-linecap="round"/>
<path d="M121.574 44.4199C121.503 45.1993 121.081 45.9032 121.081 46.7116C121.081 47.1759 120.835 47.5992 120.835 48.0523C120.835 48.4012 120.835 48.7501 120.835 49.099C120.835 49.3489 120.807 49.8373 120.927 50.0532C120.99 50.1671 121.01 50.4339 121.019 50.5629C121.034 50.755 121.122 50.945 121.143 51.1306C121.175 51.4248 121.328 51.7329 121.392 52.0234C121.452 52.2918 121.603 52.5842 121.635 52.8545C121.66 53.0641 121.887 53.2882 121.946 53.4975C121.995 53.6683 122.188 53.8873 122.282 54.055C122.391 54.2516 122.611 54.4006 122.805 54.5031C123.02 54.617 123.238 54.8313 123.359 55.0435C123.525 55.3338 123.792 55.4755 124.098 55.6113C124.776 55.9125 125.527 55.9 126.191 56.1654C126.508 56.2923 126.99 56.1616 127.33 56.2372C127.775 56.3361 128.183 56.3638 128.654 56.3638" stroke="#946228" stroke-opacity="0.75" stroke-width="0.29723" stroke-linecap="round"/>
<path d="M119.41 63.9473C119.836 63.569 120.601 63.5762 121.122 63.4274C121.383 63.3526 121.848 63.3284 122.057 63.1395C122.588 62.6619 123.362 62.3834 123.981 62.0399C124.616 61.6872 125.131 61.0529 125.708 60.6043C125.996 60.3804 126.447 60.2711 126.792 60.2084C127.296 60.1167 127.823 59.9165 128.335 59.9165" stroke="#946228" stroke-opacity="0.75" stroke-width="0.29723" stroke-linecap="round"/>
<path d="M120.002 65.1001C121.224 65.1001 122.142 64.6504 123.257 64.2523C123.821 64.051 125.115 63.5839 125.4 63.0127" stroke="#946228" stroke-opacity="0.75" stroke-width="0.29723" stroke-linecap="round"/>
<path d="M120.57 66.5391C122.052 66.5391 123.292 66.2843 124.529 65.4595" stroke="#946228" stroke-opacity="0.75" stroke-width="0.29723" stroke-linecap="round"/>
<path d="M116.652 35.959C116.652 35.6008 117.187 35.3649 117.499 35.3475C117.667 35.3382 118.337 35.0494 118.44 35.2535" stroke="#946228" stroke-opacity="0.75" stroke-width="0.29723" stroke-linecap="round"/>
<path d="M114.539 32.9515C114.681 32.8093 114.861 32.7952 115.011 32.6682C115.127 32.5712 115.378 32.4321 115.531 32.4321" stroke="#946228" stroke-opacity="0.75" stroke-width="0.29723" stroke-linecap="round"/>
<path d="M106.596 34.9245C106.921 34.5991 107.368 33.8428 107.913 33.8428" stroke="#946228" stroke-opacity="0.75" stroke-width="0.29723" stroke-linecap="round"/>
<path d="M109.734 39.112C109.86 39.0981 110.065 38.8688 110.132 38.7723C110.227 38.6343 110.412 38.5287 110.534 38.4065C110.73 38.2109 110.967 38.1428 111.192 38.0303" stroke="#946228" stroke-opacity="0.75" stroke-width="0.29723" stroke-linecap="round"/>
<path d="M105.414 44.4715C105.414 44.194 105.603 43.9992 105.78 43.8026C105.915 43.6521 106.278 43.4952 106.355 43.3428" stroke="#946228" stroke-opacity="0.75" stroke-width="0.29723" stroke-linecap="round"/>
<path d="M109.553 47.6232C109.812 47.332 110.063 47.0453 110.342 46.7662C110.556 46.5523 110.76 46.2855 111.011 46.1182" stroke="#946228" stroke-opacity="0.75" stroke-width="0.29723" stroke-linecap="round"/>
<path d="M109.689 46.2155C109.712 46.0119 109.979 45.8312 110.114 45.6961C110.227 45.5839 110.477 45.443 110.539 45.3184" stroke="#946228" stroke-opacity="0.75" stroke-width="0.29723" stroke-linecap="round"/>
<path d="M100.33 40.0569C100.33 39.6137 100.82 39.198 101.18 39.0181" stroke="#946228" stroke-opacity="0.75" stroke-width="0.29723" stroke-linecap="round"/>
<path d="M104.662 51.9501C104.662 51.5565 104.699 51.1358 104.864 50.8042" stroke="#946228" stroke-opacity="0.75" stroke-width="0.29723" stroke-linecap="round"/>
<path d="M100.874 50.5393C100.874 50.2283 100.823 49.6172 101.145 49.4565" stroke="#946228" stroke-opacity="0.75" stroke-width="0.29723" stroke-linecap="round"/>
<path d="M98.3125 49.187V49.8637" stroke="#946228" stroke-opacity="0.75" stroke-width="0.29723" stroke-linecap="round"/>
<path d="M139.366 117.863C136.283 100.338 129.746 86.6697 122.021 68.8438C126.759 84.0517 130.327 92.3164 136.279 107.163C136.285 107.178 136.288 107.195 136.288 107.212C136.109 111.755 137.589 115.111 139.558 118.184L139.382 117.907C139.374 117.894 139.368 117.879 139.366 117.863Z" fill="#C5A187"/>
<path d="M159.023 136.191C156.158 126.814 154.484 121.634 149.957 114.347L149.406 113.428C154.003 122.792 155.714 128.587 158.898 138.634C158.94 138.766 159.136 138.733 159.13 138.594L159.029 136.221C159.028 136.211 159.026 136.201 159.023 136.191Z" fill="#C5A187"/>
<path d="M131.218 41.3953C129.644 43.4779 128.892 44.7699 126.43 46.0113C126.336 46.0587 126.343 46.1989 126.44 46.2406C129.32 47.4863 129.915 51.207 130.027 56.0457C130.03 56.1822 130.223 56.2081 130.261 56.0768C131.167 52.8902 131.482 50.9287 130.939 47.3662C130.935 47.3399 130.939 47.3125 130.952 47.2893L133.587 42.6064C133.6 42.5825 133.605 42.5539 133.6 42.5269C133.299 40.8766 132.52 40.4711 131.245 41.3697C131.235 41.3767 131.226 41.3856 131.218 41.3953Z" fill="#C5A187"/>
<path d="M171.119 136.053C171.837 135.044 172.396 134.729 173.976 135.101L182.548 139.228C185.164 141.364 187.195 141.1 191.12 139.863C198.045 137.529 201.279 135.736 201.279 135.736L203.785 131.291L210.405 131.926L215.98 132.93C223.877 133.864 228.118 134.717 233.227 140.596C237.408 146.693 242.632 160.46 243.332 167.599C236.958 169.703 229.578 172.664 223.297 172.564L221.903 169.864L228.265 222.826C203.819 234.572 178.103 237.824 158.102 230.84V176.373L156.197 172.564L153.34 161.452C152.036 158.476 151.259 156.808 148.895 153.832L146.99 152.88C146.99 152.88 146.038 152.562 145.72 151.61C145.352 150.202 145.545 149.201 146.355 147.165C147.169 149.541 147.752 150.474 148.895 151.61C153.677 144.529 156.434 140.557 159.054 133.513L159.689 127.799C161.743 130.099 162.33 131.139 164.769 131.926C169.252 131.614 169.988 133.147 171.119 136.053Z" fill="#8F2020"/>
<g opacity="0.8">
<path d="M203.203 134.782C203.04 141.297 202.037 144.456 197.171 148.433C195.956 151.709 195.808 153.499 195.584 156.688C195.501 158.718 195.158 159.557 193.996 160.498" stroke="url(#paint0_linear_622_1591)" stroke-width="0.317481"/>
<path d="M206.369 132.243C206.541 147.866 203.653 155.583 194.939 168.119" stroke="url(#paint1_linear_622_1591)" stroke-width="0.317481"/>
<path d="M213.036 129.385C214.135 137.025 216.128 140.33 219.704 146.211M212.084 131.29C213.021 136.274 213.912 138.552 215.894 142.084" stroke="url(#paint2_linear_622_1591)" stroke-width="0.317481"/>
<path d="M210.811 129.066C210.473 133.22 210.722 135.238 212.081 138.273" stroke="url(#paint3_linear_622_1591)" stroke-width="0.126993"/>
<path d="M211.748 141.132C217.599 144.614 223.812 153.197 224.765 151.927" stroke="url(#paint4_linear_622_1591)" stroke-width="0.317481"/>
<path d="M227.316 146.212L225.411 148.434C225.089 148.956 225.199 149.149 225.728 149.387L228.268 146.847" stroke="url(#paint5_linear_622_1591)" stroke-width="0.317481"/>
<path d="M214.297 131.29C218.369 138.53 220.836 142.222 226.044 147.164" stroke="url(#paint6_linear_622_1591)" stroke-width="0.317481"/>
<path d="M215.576 135.416C218.744 141.547 221.061 143.953 225.418 147.798" stroke="url(#paint7_linear_622_1591)" stroke-width="0.317481"/>
<path d="M171.418 136.687C173.491 143.054 175.161 145.942 178.72 150.021" stroke="url(#paint8_linear_622_1591)" stroke-width="0.317481"/>
<path d="M170.473 138.274C171.01 141.612 171.648 143.152 173.33 145.259" stroke="url(#paint9_linear_622_1591)" stroke-width="0.317481"/>
<path d="M152.385 157.64C156.657 152.083 159.316 149.04 165.401 143.988" stroke="url(#paint10_linear_622_1591)" stroke-width="0.317481"/>
<path d="M166.358 144.623L165.723 143.988L164.453 146.528" stroke="url(#paint11_linear_622_1591)" stroke-width="0.126993"/>
<path d="M170.473 146.529C171.704 152.191 172.873 154.154 175.552 156.054" stroke="url(#paint12_linear_622_1591)" stroke-width="0.317481"/>
<path d="M171.746 143.988C172.272 147.145 172.791 148.659 174.921 150.02" stroke="url(#paint13_linear_622_1591)" stroke-width="0.317481"/>
<path d="M181.91 151.291C185.382 156.026 186.753 158.728 187.942 163.672" stroke="url(#paint14_linear_622_1591)" stroke-width="0.317481"/>
</g>
<g filter="url(#filter0_d_622_1591)">
<path d="M186.365 141.768C194.937 147.8 198.112 145.577 199.382 144.307C202.351 141.252 202.873 139.22 203.192 135.418" stroke="#E0797B" stroke-width="0.634963"/>
</g>
<g filter="url(#filter1_d_622_1591)">
<path d="M186.685 141.767C183.51 151.927 177.796 148.117 176.526 145.895L171.764 137.323" stroke="#E0797B" stroke-width="0.634963"/>
</g>
<path d="M187.558 141.124C185.523 140.96 182.583 140.723 180.971 139.543L202.242 123.034C202.242 127.994 201.29 130.774 201.29 135.733C196.08 138.702 193.322 139.612 187.638 141.131L187.558 141.124Z" fill="#B58665"/>
<g filter="url(#filter2_d_622_1591)">
<path d="M196.839 130.655C196.979 131.395 204.953 119.498 205.094 117.638C205.235 115.778 205.778 110.222 205.729 109.168C204.327 102.828 198.722 97.3455 193.166 93.3468C183.51 89.6261 178.549 89.481 171.915 98.726C170.69 102.196 170.861 104.453 169.853 109.066C169.083 114.669 168.889 121.393 169.103 123.988C169.317 126.582 171.71 131.99 173.334 134.465C177.778 139.227 178.253 139.544 182.541 139.544C190.478 137.322 193.561 135.054 196.839 130.655Z" fill="#C29473"/>
</g>
<path d="M199.367 127.164C194.621 134.641 190.888 137.404 182.223 139.545" stroke="url(#paint15_linear_622_1591)" stroke-width="0.253985"/>
<path d="M170.489 113.512L170.172 111.607C169.254 117.101 169.021 119.548 169.536 124.942C170.976 129.566 172.276 132.191 174.299 134.784L173.981 133.831C172.359 131.888 172.34 129.827 171.124 126.847C169.854 121.132 169.428 119.873 170.489 113.512Z" fill="#C5A187"/>
<path d="M188 136.029L187.063 137.202C190.923 135.239 192.531 134.228 195.426 131.202C197.278 127.835 198.023 125.549 198.293 122.72L197.925 123.429C197.79 125.633 196.571 126.651 195.56 129.044C192.951 132.811 192.469 133.754 188 136.029Z" fill="#C5A187"/>
<path d="M189.07 122.867C189.067 124.087 189.053 123.873 188.155 124.438C189.089 124.066 189.324 123.76 189.334 123.557C189.529 123.184 189.672 122.815 188.989 121.679L188.694 121.479C189.131 122.455 189.072 121.997 189.07 122.867Z" fill="#C5A187"/>
<path d="M181.915 101.177C182.229 101.317 182.565 101.398 181.673 102.407C179.372 101.445 176.192 101.214 173.993 101.668L171.2 102.795C171.356 101.867 172.467 101.219 173.975 100.175C176.912 99.9493 179.144 99.9372 181.915 101.177Z" fill="black" stroke="black" stroke-width="0.0672973"/>
<path d="M187.493 101.387C187.167 101.496 186.825 101.543 187.614 102.635C190.485 102.081 193.186 101.98 195.33 102.645L198 104.039C197.936 103.1 196.893 102.347 195.493 101.162C192.592 100.651 190.372 100.422 187.493 101.387Z" fill="black" stroke="black" stroke-width="0.0672973"/>
<path d="M204.932 130.654C204.367 133.951 203.149 135.341 200.955 135.733L201.539 128.431L204.447 118.272L204.447 115.097C202.588 114.661 202.528 112.837 202.542 109.382L202.225 104.938C202.469 103.413 202.124 102.663 200.955 101.445C199.295 100.589 198.401 99.303 196.828 96.6831L194.288 95.7307C191.748 94.7783 191.113 93.1908 191.113 93.1908C187.938 93.1908 186.351 93.5083 182.224 91.9209C182.224 91.9209 177.144 92.8734 174.604 96.3657C172.064 99.858 170.795 103.668 170.16 108.112C168.743 106.59 167.049 103.638 169.842 98.9413C168.895 97.6875 169.189 96.9845 169.842 95.7307C171.046 93.2632 172.227 93.0205 174.604 93.1908C174.034 92.2211 173.567 91.7493 174.604 90.016C174.718 88.9415 175.149 88.4593 176.509 87.7937C178.841 86.8626 179.762 86.9476 180.954 87.7937C185.081 81.7615 190.161 82.079 192.383 87.7937C197.781 85.5712 202.203 86.5317 204.932 93.1908C207.328 93.8598 205.834 98.9413 205.834 98.9413C208.093 99.1769 208.448 100.222 208.088 103.077L209.871 104.541C214.212 103.414 218.044 107.861 214.704 113.426C214.217 114.238 214.93 116.593 214.93 116.593C215.215 119.35 214.584 120.234 212.741 121.205C215.34 127.385 213.535 128.984 209.21 127.796C208.532 129.949 208.088 132.222 204.932 130.654Z" fill="#242121"/>
<g filter="url(#filter3_d_622_1591)">
<ellipse cx="200.675" cy="129.66" rx="1.26993" ry="1.38537" transform="rotate(12.3953 200.675 129.66)" fill="#EB585D"/>
<path d="M200.433 130.199C200.31 130.759 200.397 131.255 200.21 131.214C200.023 131.172 199.633 130.611 199.756 130.05C199.879 129.49 200.081 129.294 200.268 129.335C200.455 129.376 200.556 129.638 200.433 130.199Z" fill="#FF53A5"/>
<path d="M199.991 130.1C199.868 130.66 200.293 131.23 200.107 131.189C199.92 131.148 199.192 130.511 199.315 129.951C199.438 129.39 199.64 129.195 199.827 129.236C200.013 129.277 200.115 129.539 199.991 130.1Z" fill="#FF53A5"/>
<path d="M200.882 130.297C200.759 130.858 200.507 131.279 200.321 131.238C200.134 131.197 200.082 130.709 200.205 130.149C200.329 129.588 200.53 129.393 200.717 129.434C200.904 129.475 201.005 129.737 200.882 130.297Z" fill="#FF53A5"/>
<path d="M201.348 130.396C201.225 130.956 200.635 131.303 200.448 131.262C200.261 131.221 200.548 130.807 200.671 130.247C200.794 129.687 200.996 129.491 201.183 129.532C201.37 129.573 201.471 129.835 201.348 130.396Z" fill="#FF53A5"/>
<path d="M201.79 130.496C201.667 131.056 200.627 131.304 200.441 131.263C200.254 131.222 200.991 130.907 201.114 130.347C201.237 129.786 201.439 129.591 201.625 129.632C201.812 129.673 201.913 129.935 201.79 130.496Z" fill="#FF53A5"/>
<path d="M201.443 126.163L201.407 126.864L201.035 128.556L200.81 128.506L201.181 126.815L201.443 126.163Z" fill="#EB585D"/>
</g>
<path d="M186.687 103.419C186.543 104.803 186.673 104.984 187.874 105.826C187.925 105.862 187.998 105.854 188.041 105.809C191.458 102.236 192.63 102.24 194.578 106.1C194.607 106.159 194.679 106.188 194.739 106.161C196.006 105.605 196.637 104.447 196.806 104.091C196.834 104.031 196.812 103.963 196.752 103.935C195.971 103.57 190.844 101.324 186.757 103.318C186.718 103.337 186.691 103.376 186.687 103.419Z" fill="#C5A187"/>
<path d="M194.548 106.32C194.539 105.957 187.861 105.815 187.712 105.832C187.563 105.849 189.301 103.58 191.416 103.53C193.532 103.48 194.247 104.85 194.548 106.32Z" fill="url(#paint16_linear_622_1591)" stroke="black" stroke-width="0.253985"/>
<mask id="mask0_622_1591" style="mask-type:alpha" maskUnits="userSpaceOnUse" x="187" y="103" width="8" height="4">
<path d="M194.515 106.315C194.506 105.951 187.828 105.809 187.679 105.827C187.53 105.844 189.268 103.574 191.383 103.525C193.498 103.475 194.214 104.845 194.515 106.315Z" fill="white"/>
</mask>
<g mask="url(#mask0_622_1591)">
<circle opacity="0.95" cx="1.26993" cy="1.26993" r="1.26993" transform="matrix(-0.999725 0.023437 0.023437 0.999725 192.559 103.498)" fill="#3C2325"/>
</g>
<g filter="url(#filter4_d_622_1591)">
<path d="M194.52 105.991C193.818 103.149 190.954 102.899 188.77 104.538C191.227 102.252 192.649 102.994 195.767 105.009L194.52 105.991Z" fill="black"/>
<path d="M194.52 105.991C193.818 103.149 190.954 102.899 188.77 104.538C191.227 102.252 192.649 102.994 195.767 105.009L194.52 105.991Z" stroke="black" stroke-width="0.126993"/>
</g>
<path d="M180.993 102.785C181.128 104.176 180.777 104.836 179.807 105.8C179.757 105.85 179.674 105.846 179.625 105.795C176.227 102.252 175.053 102.556 173.117 106.389C173.081 106.459 172.99 106.483 172.93 106.433C171.779 105.479 171.514 103.54 171.469 103.116C171.463 103.065 171.488 103.019 171.535 102.997C172.173 102.699 176.808 100.671 180.923 102.684C180.962 102.703 180.988 102.742 180.993 102.785Z" fill="#C5A187"/>
<path d="M173.062 106.539C173.062 106.175 179.735 105.877 179.885 105.891C180.034 105.905 178.243 103.676 176.127 103.676C174.012 103.676 173.329 105.062 173.062 106.539Z" fill="url(#paint17_linear_622_1591)" stroke="black" stroke-width="0.253985"/>
<mask id="mask1_622_1591" style="mask-type:alpha" maskUnits="userSpaceOnUse" x="173" y="103" width="7" height="4">
<path d="M173.052 106.529C173.052 106.166 179.726 105.867 179.875 105.881C180.024 105.895 178.234 103.667 176.118 103.667C174.002 103.666 173.319 105.053 173.052 106.529Z" fill="white"/>
</mask>
<g mask="url(#mask1_622_1591)">
<circle opacity="0.95" cx="176.215" cy="104.936" r="1.26993" fill="#3C2325"/>
</g>
<g filter="url(#filter5_d_622_1591)">
<path d="M173.051 106.207C173.686 103.35 176.543 103.033 178.766 104.62C176.255 102.393 174.851 103.168 171.781 105.255L173.051 106.207Z" fill="black"/>
<path d="M173.051 106.207C173.686 103.35 176.543 103.033 178.766 104.62C176.255 102.393 174.851 103.168 171.781 105.255L173.051 106.207Z" stroke="black" stroke-width="0.126993"/>
</g>
<g filter="url(#filter6_d_622_1591)">
<path d="M197.801 103.985C197.712 103.229 197.553 102.901 197.166 102.397H199.071L205.738 112.239L207.008 118.589H206.373L205.103 112.557L199.071 103.985H197.801Z" fill="#9F6F97"/>
<path d="M197.801 103.985C197.712 103.229 197.553 102.901 197.166 102.397H199.071L205.738 112.239L207.008 118.589H206.373L205.103 112.557L199.071 103.985H197.801Z" stroke="#9F6F97" stroke-width="0.253985"/>
</g>
<g filter="url(#filter7_d_622_1591)">
<path d="M181.945 104.939C181.945 104.939 181.874 103.28 182.254 102.716C182.635 102.152 184.794 102.399 184.943 102.885C185.092 103.372 184.943 104.939 184.943 104.939H184.159V103.669C184.159 103.386 182.572 103.351 182.572 103.81V104.939H181.945Z" fill="#9F6F97" stroke="#B99CB4" stroke-width="0.126993"/>
<path d="M185.104 105.448V102.908C189.898 100.392 195.898 101.446 197.168 102.398L197.803 104.303C197.579 106.675 197.817 107.678 196.533 109.258C193.632 110.23 191.825 110.39 188.596 109.893C186.414 109.163 185.578 108.279 185.104 105.448Z" fill="#94DBF5" fill-opacity="0.2" stroke="#B99CB4" stroke-width="0.634963"/>
<path d="M177.865 109.144C179.93 107.683 180.805 106.772 181.992 105.016V102.477C180.924 101.754 179.873 101.369 178.128 100.811C175.588 100.493 174.318 100.176 171.198 100.572C170.56 100.785 170.198 101.224 169.611 102.477C169.207 104.336 169.029 105.379 169.611 107.239C170.087 108.146 170.412 108.524 171.198 108.826C173.815 109.373 175.272 109.39 177.865 109.144Z" fill="#94DBF5" fill-opacity="0.2" stroke="#B99CB4" stroke-width="0.634963"/>
</g>
<g filter="url(#filter8_d_622_1591)">
<path d="M208.269 116.685C207.317 115.415 205.548 115.933 203.824 117.002L202.237 119.542C200.651 123.283 200.445 124.358 200.332 125.892C200.903 128.747 202.501 128.264 204.896 127.214C205.435 126.977 205.875 126.557 206.124 126.023C206.813 124.542 207.286 123.382 208.904 121.764C209.425 121.244 209.222 117.955 208.269 116.685Z" fill="#C29473"/>
<path d="M204.819 124.303C204.265 124.034 203.74 123.978 203.851 123.351C204.819 123.986 205.597 122.898 205.91 122.538C206.135 121.889 205.884 120.176 206.15 120.176C206.416 120.176 206.682 121.039 206.682 121.327C206.682 121.615 205.588 124.452 204.819 124.303Z" fill="#C5A187"/>
<path d="M206.733 119.264C205.852 118.21 205.357 117.695 204.476 119.264L204.978 119.541C205.262 118.471 205.569 118.375 206.348 119.264C206.678 120.499 206.758 121.152 206.348 122.081C205.898 123.72 205.528 124.227 204.476 123.986L203.976 122.773C202.894 122.953 202.711 122.809 202.856 122.272L203.724 121.446C203.874 120.823 204.001 120.602 204.443 120.811C204.599 120.991 204.64 121.114 204.443 121.446L204.978 121.269C204.688 120.415 204.728 120.267 203.976 120.267C203.475 120.517 203.734 120.697 203.474 121.019C203.129 121.446 202.314 121.803 202.221 122.773C202.471 123.275 202.995 123.388 203.724 123.275C204.029 124.457 204.325 124.742 204.978 124.779C205.837 124.123 206.234 123.582 206.733 122.272C207.026 121.097 207.105 120.439 206.733 119.264Z" fill="#AE7F5D" stroke="#AE7F5D" stroke-width="0.100274"/>
<path d="M203.552 124.72C202.972 124.966 202.719 124.876 202.528 124.002C202.057 124.462 202.427 125.267 202.427 125.267C202.427 125.267 203.344 125.288 203.552 124.72Z" fill="#C5A187"/>
<circle cx="201.463" cy="126.336" r="0.318746" fill="#C5A187"/>
<path d="M205.366 121.026C205.277 121.427 205.182 121.673 205.01 121.871C204.935 121.957 204.976 122.109 205.09 122.103C205.293 122.094 205.465 122.017 205.704 121.787C205.72 121.772 205.731 121.753 205.737 121.733C205.857 121.315 205.766 121.141 205.574 120.957C205.504 120.89 205.387 120.931 205.366 121.026Z" fill="#C5A187"/>
</g>
<path d="M207.631 102.21L204.139 97.4478C204.139 97.4478 206.044 95.543 207.313 96.1779C208.583 96.8129 209.536 97.4478 209.853 99.0353C210.171 100.623 207.631 102.21 207.631 102.21Z" fill="#242121"/>
<path d="M209.656 113.712L211.957 119.15C211.957 119.15 209.677 120.771 208.588 119.861C207.498 118.951 206.705 117.907 206.762 116.29C206.819 114.672 209.656 113.712 209.656 113.712Z" fill="#242121"/>
<path opacity="0.6" d="M207.951 103.033C208.493 100.347 208.078 99.3974 205.728 98.906C206.43 96.0564 206.681 94.1438 204.776 93.1913C203.853 92.8123 203.43 92.8643 202.871 93.5088" stroke="url(#paint18_linear_622_1591)" stroke-width="0.317481" stroke-linecap="round"/>
<path opacity="0.6" d="M188.661 89.5401C187.745 86.6198 185.142 87.1593 183.684 88.6271C183.045 89.364 182.824 90.6306 183.146 91.3516" stroke="url(#paint19_linear_622_1591)" stroke-width="0.317481" stroke-linecap="round"/>
<path opacity="0.6" d="M174.071 95.5255C172.264 94.5949 171.184 96.0399 171.113 97.3885C171.125 98.0231 171.593 98.7107 172.088 98.8967" stroke="url(#paint20_linear_622_1591)" stroke-width="0.259074" stroke-linecap="round"/>
<path opacity="0.6" d="M193.875 91.7534C194.847 91.484 196.585 91.9911 197.201 93.6462" stroke="url(#paint21_linear_622_1591)" stroke-width="0.317481" stroke-linecap="round"/>
<path opacity="0.6" d="M177.297 91.7261C177.465 90.7316 178.66 89.3718 180.421 89.515" stroke="url(#paint22_linear_622_1591)" stroke-width="0.317481" stroke-linecap="round"/>
<path opacity="0.6" d="M176.027 93.6304C176.195 92.6359 177.391 91.2761 179.151 91.4193" stroke="url(#paint23_linear_622_1591)" stroke-width="0.317481" stroke-linecap="round"/>
<path opacity="0.6" d="M212.399 118.556C214.488 116.059 212.707 113.709 210.692 113.02C209.727 112.767 208.51 113.224 208.042 113.937" stroke="url(#paint24_linear_622_1591)" stroke-width="0.317481" stroke-linecap="round"/>
<path opacity="0.6" d="M207.969 112.843C210.058 110.345 208.277 107.996 206.262 107.307C205.297 107.054 204.08 107.51 203.612 108.224" stroke="url(#paint25_linear_622_1591)" stroke-width="0.317481" stroke-linecap="round"/>
<path opacity="0.6" d="M198.985 91.2162C198.801 87.9656 195.896 87.4692 193.954 88.344C193.077 88.8198 192.501 89.9848 192.647 90.8251" stroke="url(#paint26_linear_622_1591)" stroke-width="0.317481" stroke-linecap="round"/>
<path opacity="0.6" d="M203.709 97.8441C203.016 95.3126 200.5 94.4493 199.018 94.8007C198.363 95.0215 198.073 95.8225 198.335 96.4933" stroke="url(#paint27_linear_622_1591)" stroke-width="0.317481" stroke-linecap="round"/>
<path opacity="0.6" d="M213.872 110.441C213.179 107.909 210.663 107.046 209.181 107.397C208.525 107.618 206.42 108.076 206.682 108.746" stroke="url(#paint28_linear_622_1591)" stroke-width="0.317481" stroke-linecap="round"/>
<g filter="url(#filter9_d_622_1591)">
<path d="M191.62 96.3365C191.655 96.6521 188.958 94.5721 187.696 92.6165L188.574 91.8811C189.334 94.1334 191.585 96.0209 191.62 96.3365Z" fill="#242121"/>
</g>
<path d="M208.136 121.63C207.935 121.875 207.533 118.493 208.047 116.224L209.186 116.336C207.804 118.342 208.337 121.384 208.136 121.63Z" fill="#242121"/>
<path d="M208.781 120.994C208.58 121.24 208.178 117.858 208.692 115.589L209.831 115.7C208.449 117.707 208.982 120.749 208.781 120.994Z" fill="#242121"/>
<g filter="url(#filter10_d_622_1591)">
<path d="M198.861 100.489C198.794 100.799 196.069 98.4582 196.149 95.5926L196.908 95.5685C196.164 98.0517 198.928 100.178 198.861 100.489Z" fill="#242121"/>
</g>
<path d="M202.678 104.299C202.611 104.609 199.885 102.269 199.965 99.4031L200.724 99.3791C199.98 101.862 202.745 103.989 202.678 104.299Z" fill="#242121"/>
<path d="M206.041 118.862C206.08 119.219 202.935 117.819 202.94 112.789L203.664 113.148C204.023 116.381 206.002 118.505 206.041 118.862Z" fill="#242121"/>
<path d="M207.309 118.895C207.348 119.252 204.203 117.852 204.207 112.822L204.932 113.18C205.291 116.414 207.269 118.538 207.309 118.895Z" fill="#242121"/>
<path d="M178.76 94.1317C178.721 94.4888 181.866 93.0889 181.861 88.0584L181.137 88.4171C180.778 91.6506 178.799 93.7745 178.76 94.1317Z" fill="#242121"/>
<g filter="url(#filter11_d_622_1591)">
<path d="M174.139 98.6667C175.846 96.8239 175.751 96.0319 175.509 94.1436C174.889 95.919 174.961 97.0703 173.865 98.1345C172.77 99.1988 171.127 98.9327 171.127 98.9327C172.025 99.3547 172.508 99.3585 174.139 98.6667Z" fill="#242121"/>
</g>
<path d="M192.262 95.0679C192.262 95.0679 189.539 93.8267 188.339 91.3479L189.216 90.6125C189.539 93.1917 192.262 95.0679 192.262 95.0679Z" fill="#242121"/>
<path d="M190.999 94.4317C190.999 94.4317 188.276 93.1904 187.075 90.7117L187.953 89.9763C188.276 92.5555 190.999 94.4317 190.999 94.4317Z" fill="#242121"/>
<path d="M216.414 122.998C212.847 120.21 214.645 120.283 209.54 122.398C212.898 121.007 208.308 120.496 211.669 120.359C211.81 120.354 211.958 120.361 212.098 120.381C215.351 120.849 215.5 121.622 216.414 122.998Z" fill="#242121"/>
<path d="M212.948 104.06C208.542 103.018 207.577 103.423 203.824 107.478C206.293 104.81 204.431 105.219 207.536 103.645C207.661 103.581 207.798 103.526 207.933 103.486C211.083 102.551 211.542 103.192 212.948 104.06Z" fill="#242121"/>
<path d="M200.894 86.9165C196.488 85.8745 194.262 87.2141 190.509 91.2692C192.98 88.6001 192.328 88.1118 195.483 86.5017C195.608 86.4376 195.744 86.3832 195.879 86.3431C199.029 85.4083 199.488 86.0489 200.894 86.9165Z" fill="#242121"/>
<path d="M212.328 125.303C214.804 122.869 214.305 121.339 211.778 118.472C213.384 120.294 214.073 120.072 214.512 121.961C214.564 122.186 214.577 122.42 214.548 122.649C214.32 124.457 213.572 124.637 212.328 125.303Z" fill="#242121"/>
<path d="M213.583 117.049C216.06 114.615 215.561 113.085 213.034 110.218C214.639 112.04 215.329 111.818 215.768 113.707C215.82 113.932 215.833 114.166 215.804 114.395C215.576 116.203 214.828 116.384 213.583 117.049Z" fill="#242121"/>
<path d="M197.893 87.1697C193.645 85.6045 191.274 86.6662 187.06 90.2396C189.834 87.8875 189.245 87.3242 192.571 86.1059C192.703 86.0575 192.845 86.0198 192.984 85.9963C196.224 85.4478 196.602 86.1391 197.893 87.1697Z" fill="#242121"/>
<path d="M187.717 87.7459C183.441 84.5101 181.049 85.5225 176.792 89.778C179.565 87.0058 179.162 86.5191 182.411 85.5334C182.613 85.4719 182.824 85.4376 183.036 85.4327C186.195 85.3595 186.433 85.9742 187.717 87.7459Z" fill="#242121" stroke="#242121" stroke-width="0.634963"/>
<path d="M178.426 112.875C179.544 110.503 181.459 107.304 182.625 104.938C182.066 107.648 179.693 110.326 179.83 112.392C180.631 114.086 182.437 111.377 182.346 111.714C182.254 112.051 184.023 114.378 185.7 111.714C185.749 112.452 185.844 114.133 184.862 114.425C184.142 114.468 182.931 114.295 182.346 113.408C181.778 114.274 180.811 114.38 179.823 114.23C179.823 114.23 178.743 114.23 178.426 112.875Z" fill="#AE7F5D"/>
<path d="M181.76 114.037C179.645 114.717 179.314 114.49 178.731 112.677" stroke="#AD7750" stroke-width="0.253985" stroke-linecap="round"/>
<path d="M183.826 114.462C185.701 114.17 185.629 113.927 185.683 112.557" stroke="#AD7750" stroke-width="0.253985" stroke-linecap="round"/>
<path d="M184.584 111.13C184.836 111.777 184.746 111.588 184.91 111.524C185.073 111.461 185.592 110.654 185.34 110.006C185.088 109.359 184.451 108.58 184.587 108.949C184.383 109.299 184.331 110.483 184.584 111.13Z" fill="#C5A187"/>
<g filter="url(#filter12_d_622_1591)">
<path d="M179.684 127.477C177.744 126.511 176.826 124.937 176.826 122.397C176.826 120.492 177.461 118.905 179.684 118.27C181.249 118.043 182.062 118.198 183.493 118.587C185.55 119.836 186.668 120.492 187.938 122.714C186.351 125.572 183.113 127.49 179.684 127.477Z" fill="#A67A5B"/>
<path opacity="0.3" d="M185.081 125.298C185.081 127.227 182.882 127.838 180.953 127.838C179.025 127.838 176.826 126.274 176.826 124.345C176.826 122.417 179.049 120.598 180.953 121.868C183.493 120.915 185.081 123.369 185.081 125.298Z" fill="#D0867D"/>
<path d="M177.457 119.093V118.196L179.093 117.3H179.42L181.382 117.001H181.709L183.672 117.3H183.999L186.616 119.69L188.251 122.081L183.999 119.093V117.3H183.672V119.093H181.709V117.001H181.382V119.093H179.42V117.3H179.093V119.093H177.457Z" fill="white"/>
<path d="M179.093 117.3V119.093H177.457V118.196L179.093 117.3ZM179.093 117.3H179.42M179.42 117.3V119.093H181.382V117.001M179.42 117.3L181.382 117.001M181.382 117.001H181.709M181.709 117.001V119.093H183.672V117.3M181.709 117.001L183.672 117.3M183.672 117.3H183.999M183.999 117.3V119.093L188.251 122.081L186.616 119.69L183.999 117.3Z" stroke="white" stroke-width="0.126993"/>
<path d="M188.552 122.957C187.801 120.374 187.276 118.569 184.447 116.683C182.859 115.694 181.907 115.731 180.955 116.366C179.871 116.356 179.218 115.49 177.78 116.683C175.349 118.701 175.795 122.115 176.193 123.35C176.193 123.668 176.828 123.35 176.828 123.35C176.827 120.493 176.797 119.953 178.733 118.27C180.932 117.493 181.463 117.643 183.495 118.27C185.821 119.442 186.67 120.81 187.939 123.033H188.574L188.552 122.957Z" fill="#DA8B81"/>
<path d="M188.217 122.398C182.502 129.065 177.445 128.266 176.81 122.715C176.197 122.715 176.197 123.35 176.197 123.35C175.075 126.206 175.562 127.795 176.81 128.748C179.69 131.287 181.912 129.79 183.786 128.748C186.674 127.141 187.31 125.667 188.548 123.033L188.217 122.398Z" fill="#DA8B81"/>
<path d="M180.023 117.269C178.636 117.801 178.035 118.258 177.089 119.391C176.777 119.181 179.399 116.929 180.023 117.269Z" fill="#D07E73"/>
<path d="M184.122 126.207C185.489 125.627 186.074 125.149 186.98 123.984C187.299 124.183 184.757 126.525 184.122 126.207Z" fill="#D07E73"/>
<path d="M183 127.941C179.745 128.845 179.294 128.265 177.939 126.525C178.436 127.958 178.926 129.007 179.971 129.135C181.016 129.263 181.84 128.844 183 127.941Z" fill="#D07E73"/>
</g>
<circle cx="190.174" cy="163.354" r="0.761956" fill="#8F1C1C"/>
<circle cx="189.922" cy="162.594" r="0.509993" fill="#EB585D"/>
<circle cx="190.942" cy="163.102" r="0.509993" fill="#EB585D"/>
<circle cx="190.942" cy="163.611" r="0.509993" fill="#EB585D"/>
<circle cx="190.426" cy="164.118" r="0.509993" fill="#EB585D"/>
<circle cx="189.922" cy="164.118" r="0.509993" fill="#EB585D"/>
<circle cx="189.412" cy="163.611" r="0.509993" fill="#EB585D"/>
<circle cx="189.412" cy="163.102" r="0.509993" fill="#EB585D"/>
<circle cx="190.426" cy="162.594" r="0.509993" fill="#EB585D"/>
<circle cx="189.537" cy="157.003" r="0.761956" fill="#8F1C1C"/>
<circle cx="189.285" cy="156.243" r="0.509993" fill="#EB585D"/>
<circle cx="190.303" cy="156.751" r="0.509993" fill="#EB585D"/>
<circle cx="190.303" cy="157.258" r="0.509993" fill="#EB585D"/>
<circle cx="189.787" cy="157.767" r="0.509993" fill="#EB585D"/>
<circle cx="189.285" cy="157.767" r="0.509993" fill="#EB585D"/>
<circle cx="188.774" cy="157.258" r="0.509993" fill="#EB585D"/>
<circle cx="188.774" cy="156.751" r="0.509993" fill="#EB585D"/>
<circle cx="189.787" cy="156.243" r="0.509993" fill="#EB585D"/>
<circle cx="188.903" cy="150.023" r="0.761956" fill="#8F1C1C"/>
<circle cx="188.651" cy="149.262" r="0.509993" fill="#EB585D"/>
<circle cx="189.67" cy="149.771" r="0.509993" fill="#EB585D"/>
<circle cx="189.67" cy="150.277" r="0.509993" fill="#EB585D"/>
<circle cx="189.155" cy="150.786" r="0.509993" fill="#EB585D"/>
<circle cx="188.651" cy="150.786" r="0.509993" fill="#EB585D"/>
<circle cx="188.141" cy="150.277" r="0.509993" fill="#EB585D"/>
<circle cx="188.141" cy="149.771" r="0.509993" fill="#EB585D"/>
<circle cx="189.155" cy="149.262" r="0.509993" fill="#EB585D"/>
<path d="M147.198 185.236L131.047 185.037C127.478 184.993 124.76 188.225 125.416 191.733L139.444 266.816C139.943 269.49 142.275 271.43 144.995 271.435L216.805 271.562C220.673 271.569 223.407 267.779 222.18 264.11L209.374 225.808C208.61 223.522 206.482 221.972 204.072 221.944L166.196 221.512C163.709 221.484 161.533 219.836 160.832 217.45L152.557 189.298C151.856 186.914 149.682 185.267 147.198 185.236Z" fill="#FFD949"/>
<path d="M150.144 218.899L158.348 218.875L206.719 217.601L228.614 255.868L228.614 260.288L166.692 264.749L148.747 223.46L150.144 218.899Z" fill="#F4D2D2"/>
<path d="M150.144 218.899L158.348 218.875L206.719 217.601L228.614 255.868M150.144 218.899L168.654 260.288M150.144 218.899L148.747 223.46L166.692 264.749M168.654 260.288L228.614 255.868M168.654 260.288L166.692 264.749M228.614 255.868L228.614 260.288L166.692 264.749" stroke="#C89C9C" stroke-width="0.348431"/>
<path d="M172.342 212.241L180.545 212.217L228.916 210.943L250.812 249.21L250.812 253.63L188.889 258.091L170.944 216.802L172.342 212.241Z" fill="#FDE6E6"/>
<path d="M172.342 212.241L180.545 212.217L228.916 210.943L250.812 249.21M172.342 212.241L190.851 253.63M172.342 212.241L170.944 216.802L188.889 258.091M190.851 253.63L250.812 249.21M190.851 253.63L188.889 258.091M250.812 249.21L250.812 253.63L188.889 258.091" stroke="#C7A4A4" stroke-width="0.348431"/>
<path d="M391.148 140.908L390.451 124.319L408.946 118.217L431.075 112.31L391.148 140.908Z" fill="#FF69E1"/>
<path d="M431.078 112.31L397.434 130.998L408.703 139.484L431.078 112.31Z" fill="#FFBDF2"/>
<path d="M389.694 125.066L379.735 119.802L431.081 112.31L389.694 125.066Z" fill="#FFBDF2"/>
<g clip-path="url(#clip0_622_1591)">
<path d="M298.57 191.149V166.597H308.974V191.149H298.57Z" fill="#013E6B"/>
<path d="M401.093 118.462H307.506C300.425 118.462 294.686 124.202 294.686 131.283L294.686 174.575C294.686 175.801 295.689 176.794 296.915 176.794H413.914V131.283C413.914 124.202 408.174 118.462 401.093 118.462Z" fill="#FFD949"/>
<path d="M326.301 144.541H387.058V217.505L355.57 224.302L326.301 205.576V144.541Z" fill="#90B0F2"/>
<path d="M361.257 220.557C363.06 219.17 372.853 179.732 370.411 150.783L392.745 172.7C392.85 192.351 388.599 209.488 383.035 228.325C383.035 228.325 359.453 221.944 361.257 220.557Z" fill="url(#paint29_linear_622_1591)"/>
<path d="M380.271 241.087C399.316 224.826 420.776 206.824 419.805 190.456C413.694 169.411 407.838 160.85 395.902 146.206C395.837 144.729 395.062 143.503 393.015 142.738C390.001 140.604 388.167 139.181 384.71 136.357C382.575 132.956 380.315 135.074 377.081 133.721C377.081 133.721 381.381 145.512 368.619 153.28L392.062 186.017C392.062 186.017 392.997 187.265 393.015 187.82C393.033 188.375 393.588 188.375 393.588 188.652C393.588 188.93 393.65 189.128 393.922 189.252C394.662 190.58 394.787 193.036 395.902 195.033L370.006 229.851C378.893 232.668 377.486 233.12 380.271 241.087Z" fill="#1E325A"/>
<path d="M313.234 186.465L297.404 187.037C293.906 187.164 291.397 190.459 292.206 193.864L309.513 266.745C310.13 269.34 312.506 271.13 315.171 271.005L385.517 267.719C389.307 267.542 391.805 263.7 390.429 260.165L376.065 223.254C375.208 221.051 373.05 219.634 370.689 219.721L333.566 221.097C331.129 221.187 328.919 219.676 328.119 217.373L318.676 190.189C317.876 187.888 315.669 186.377 313.234 186.465Z" fill="#FFD949"/>
<path d="M301.891 211.125H309.936L357.377 210.015L378.739 247.607L319.924 251.768L301.891 211.125Z" fill="white"/>
<path d="M376.14 244.138C369.526 236.75 366.903 234.51 359.867 229.157L349.059 235.727L354.404 239.932C355.95 245.487 356.811 248.616 358.68 253.423L361.768 263.41C362.74 264.399 363.29 264.224 364.262 263.41V260.869L364.04 253.71L367.113 264.111C369.016 269.888 370.421 265.735 370.32 264.716C370.219 263.696 370.072 263.261 370.005 262.549C369.727 259.618 369.727 255.029 369.727 255.029C369.87 254.557 369.727 253.849 370.282 255.029C370.282 255.029 372.789 265.225 373.408 266.755C374.027 268.284 376.14 267.774 376.14 266.755C376.14 265.735 375.831 259.618 375.831 259.618L375.414 254.265C375.414 254.265 375.585 253.755 376.14 254.265C376.695 254.775 379.992 264.111 379.992 264.111C381.662 265.887 382.628 265.194 382.628 263.41C382.628 261.625 379.992 250.519 379.992 250.519C379.321 247.315 377.738 246.59 376.14 244.138Z" fill="#F8D9C5"/>
<path d="M359.597 160.632L350.719 139.27L376.104 129.421L374.439 145.928L359.597 160.632Z" fill="url(#paint30_linear_622_1591)"/>
<path d="M356.542 144.263C355.987 142.738 351.825 141.212 349.467 138.854L329.076 171.59H357.374L361.674 162.574C359.407 155.693 357.097 145.789 356.542 144.263Z" fill="#90B0F2"/>
<path d="M350.027 209.875C344.044 188.374 345.362 172.686 352.385 141.072L320.203 132.611L319.371 204.604L350.027 209.875Z" fill="#22365F"/>
<path d="M308.162 140.983C316.309 127.572 322.043 125.43 332.692 125.031L339.507 136.688L336.854 146.206C333.115 163.024 331.862 179.147 328.115 182.133L341.57 196.282C352.275 207.479 354.363 208.397 360.078 221.874L365.926 230.206C365.926 230.206 351.435 230.021 349.311 242.38C329.59 225.097 307.047 196.303 305.42 193.279C303.793 190.255 298.175 191.059 300.672 176.772C300.672 176.772 301.92 157.49 303.307 153.606C304.695 149.722 305.645 147.676 308.162 140.983Z" fill="#1E325A"/>
<path d="M349.061 242.058C350.436 234.689 355.58 230.405 365.429 229.851C366.7 230.59 366.615 232.757 366.261 233.873C359.464 236.925 358.077 237.757 354.47 242.751C353.067 243.02 350.111 243.461 349.061 242.058Z" fill="#364F82"/>
<path d="M337.246 104.036C338.355 99.7355 339.866 97.5902 342.655 94.4644L370.677 116.834L373.316 132.888L368.738 135.385L366.796 137.05C355.68 140.615 349.392 141.712 338.218 142.219C333.698 141.433 331.873 140.182 331.243 135.005L333.64 132.231L329.339 126.266C329.104 125.057 329.64 123.32 331.243 122.7C329.409 121.877 328.723 118.656 329.066 118.185C331.285 115.133 334.198 114.439 337.662 111.84C337.348 108.896 337.084 107.307 337.246 104.036Z" fill="#FAD3BA"/>
<path d="M376.251 133.167C379.719 134.138 380.69 145.79 372.089 152.032L373.199 157.303L365.57 160.771L360.16 200.305L355.443 207.241L358.634 157.303C367.789 150.506 370.563 148.842 376.251 133.167Z" fill="#83A4EA"/>
<path d="M344.883 117.113C344.189 115.864 339.89 111.426 339.334 111.98C338.918 112.119 338.669 112.726 339.057 113.506L343.633 117.668L346.547 120.581C346.547 120.581 345.576 118.361 344.883 117.113Z" fill="#242121"/>
<path d="M330.596 127.931L333.925 132.231L331.706 135.283C331.706 135.283 330.838 134.684 330.153 132.55C329.467 130.417 329.686 129.545 330.596 127.931Z" fill="url(#paint31_linear_622_1591)"/>
<path d="M329.361 126.267C329.637 126.96 329.955 127.741 330.469 128.209L333.939 132.231L334.493 131.399L329.361 124.879C329.299 125.38 329.293 125.794 329.361 126.267Z" fill="url(#paint32_linear_622_1591)"/>
<path d="M351.951 105.7C352.728 105.241 353.105 104.959 353.477 104.312L354.032 104.867C353.43 105.344 352.943 105.501 351.951 105.7Z" fill="#242121"/>
<path d="M351.4 105.699C352.177 105.24 353.109 104.266 353.481 103.619V104.867C352.879 105.343 352.393 105.5 351.4 105.699Z" fill="#242121"/>
<path d="M375.959 135.247C376.375 133.721 377.762 131.64 377.762 131.64C379.204 130.121 379.704 130.114 381.508 127.756C384.559 125.953 388.648 122.315 389.83 119.711L365.278 99.5972L363.613 122.763C365.727 126.604 366.11 127.895 371.104 128.311L371.659 128.866C372.486 130.414 372.285 130.507 372.491 133.166C372.075 135.386 375.543 136.773 375.959 135.247Z" fill="#272323"/>
<path d="M386.911 89.1921L385.523 93.9084L386.494 95.7117L390.795 91.1341L386.494 94.602L387.882 88.4985L386.078 94.1859L386.911 89.1921Z" fill="#242121"/>
<path d="M388.288 89.1921L386.9 93.9084L387.871 95.7117L391.339 91.9664L387.871 94.602L389.259 88.4985L387.455 94.1859L388.288 89.1921Z" fill="#242121"/>
<path d="M386.764 91.968C386.21 86.5581 374.835 81.9805 369.702 81.9805L359.438 98.765L389.539 120.266C393.57 113.331 392.909 104.591 392.036 101.678C391.162 98.765 391.203 93.6325 386.764 91.968Z" fill="#272323"/>
<path d="M353.336 103.619C348.619 104.174 348.481 96.961 341.684 95.1594C349.812 84.8715 357.223 81.7516 372.062 82.5346C373.427 93.0678 373.042 98.9295 370.398 109.445L365.543 123.317C363.739 122.901 360.849 121.829 359.855 117.075C359.855 114.023 353.336 114.3 352.226 107.505C352.069 106.541 352.71 104.5 353.336 103.619Z" fill="#332E2E"/>
<path d="M371.104 83.2278L357.51 80.731C359.729 80.8696 361.255 81.0084 362.92 80.8697C365.833 80.8697 368.421 81.6095 371.381 82.3955L371.104 83.2278Z" fill="#242121"/>
<path d="M373.054 82.6729L357.24 81.0083C359.46 81.147 360.986 81.2858 362.65 81.147C365.563 81.147 368.29 81.3319 371.25 82.118C371.773 82.2567 373.054 82.2567 373.054 82.6729Z" fill="#242121"/>
<path d="M369.435 81.7033C360.915 82.1698 353.621 85.0687 351.402 86.1785C349.183 87.2882 345.992 90.0625 343.079 94.0852C341.22 96.242 339.611 95.7887 339.611 95.7887C339.75 95.7135 340.04 95.8133 340.166 95.7135C341.541 94.6266 341.007 94.8812 341.831 93.6328C343.596 89.5586 346.732 86.6945 350.986 84.0615C358.333 80.5318 362.052 80.6857 369.435 81.7033Z" fill="#242121"/>
<path d="M372.246 83.1362C363.714 83.194 354.247 85.4929 351.977 86.4951C349.707 87.4972 346.388 90.1155 343.285 93.9942C341.325 96.0594 339.74 95.5296 339.74 95.5296C339.882 95.4611 340.167 95.5747 340.298 95.4811C341.723 94.4612 341.177 94.69 342.06 93.4824C344.019 89.4975 347.288 86.7869 351.663 84.3605C359.171 81.1869 372.246 81.5823 372.246 83.1362Z" fill="#2E2222"/>
<path d="M381.94 125.758C386.809 121.386 389.779 115.234 390.441 113.314C391.103 111.395 391.332 107.704 390.627 103.159C390.428 100.582 391.68 100.184 391.68 100.184C391.642 100.308 391.406 100.366 391.39 100.504C391.225 102.008 391.392 101.556 391.66 102.929C393.09 106.977 392.95 110.712 391.991 114.791C389.711 121.031 387.032 123.092 381.94 125.758Z" fill="#242121"/>
<path d="M376.156 128.978C377.414 125.992 372.973 125.391 367.61 127.424C365.75 129.239 365.547 129.456 363.725 131.309L361.541 133.704C362.402 138.406 365.47 138.262 367.356 137.162C368.402 136.552 370.644 134.625 372.228 132.918C374.114 131.346 375.596 130.308 376.156 128.978Z" fill="url(#paint33_linear_622_1591)"/>
<path d="M339.192 116.66C339.884 118.884 341.689 119.851 343.769 120.267C340.842 120.123 339.496 119.318 337.805 117.076C338.276 117.132 338.637 116.938 339.192 116.66Z" fill="#242121" stroke="#242121" stroke-width="0.27743"/>
<circle cx="360.432" cy="166.18" r="1.38715" fill="white"/>
<circle cx="360.432" cy="166.181" r="0.832291" fill="#F4F1F1"/>
<circle cx="354.332" cy="145.651" r="1.38715" fill="white"/>
<circle cx="354.326" cy="145.651" r="0.832291" fill="#F4F1F1"/>
<path d="M419.668 190.594C419.435 188.779 417.567 183.939 416.894 182.826C413.009 185.323 413.428 193.696 415.645 197.391C416.893 199.471 417.865 199.471 417.865 199.471C419.283 196.541 419.66 194.584 419.668 190.594Z" fill="#364F82"/>
<path d="M305.64 182.271C305.407 180.456 303.273 173.255 300.914 173.81C299.388 177.278 298.963 186.571 301.608 189.484C303.239 191.281 305.215 193.23 305.215 193.23C306.633 190.3 305.632 186.262 305.64 182.271Z" fill="#364F82"/>
</g>
<path d="M486.904 187.12V166.053H492.171V187.12H486.904Z" fill="#FFD949"/>
<path d="M583.426 115.071L486.667 115.356C479.347 115.377 473.43 121.329 473.451 128.649L473.583 173.409C473.586 174.676 474.627 175.7 475.894 175.697L596.858 175.341L596.72 128.287C596.698 120.966 590.746 115.049 583.426 115.071Z" fill="#FFD949"/>
<path d="M573.433 228.751L560.361 226.102L576.259 205.258L577.672 186.357C577.672 186.357 590.744 180.174 591.804 180.174C592.864 180.174 590.567 193.953 589.507 202.961C588.448 211.97 573.433 228.751 573.433 228.751Z" fill="#BF8B65"/>
<path d="M495.173 183.142L478.796 183.029C475.177 183.004 472.439 186.295 473.123 189.849L487.759 265.9C488.28 268.608 490.655 270.563 493.413 270.552L566.223 270.287C570.145 270.272 572.897 266.414 571.633 262.702L558.437 223.936C557.65 221.623 555.484 220.063 553.041 220.048L514.634 219.818C512.113 219.803 509.898 218.144 509.174 215.729L500.628 187.231C499.905 184.818 497.692 183.159 495.173 183.142Z" fill="#FFD949"/>
<g filter="url(#filter13_d_622_1591)">
<path d="M518.97 265.452L535.084 228.509L537.034 225.251L513.27 224.501L485.096 224.641L459.088 263.332C489.648 263.332 505.53 263.693 518.97 265.452Z" fill="white" stroke="black" stroke-opacity="0.25" stroke-width="0.160983"/>
<rect width="27.0976" height="1.87805" transform="matrix(1.01092 -0.0047219 -0.93001 0.746175 471.053 253.843)" fill="#D9D9D9"/>
<rect width="27.0976" height="1.87805" transform="matrix(1.01092 -0.00472187 -0.93001 0.746175 490.273 247.684)" fill="#D9D9D9"/>
<rect width="27.0976" height="1.87805" transform="matrix(1.01092 -0.00472187 -0.93001 0.746175 480.41 237.404)" fill="#D9D9D9"/>
<rect width="27.0976" height="1.87805" transform="matrix(1.01092 -0.00472187 -0.93001 0.746175 488.342 231.213)" fill="#D9D9D9"/>
<rect width="48.0246" height="3.32844" transform="matrix(1.01038 -0.00208285 -0.91029 0.756174 477.627 245.295)" fill="#D9D9D9"/>
</g>
<path d="M480.869 206.494C479.632 199.605 496.766 170.988 496.766 170.988L511.251 178.584L495.707 206.494L504.009 233.697L496.766 242.706C496.766 242.706 482.105 213.383 480.869 206.494Z" fill="#BF8B65"/>
<path d="M508.002 151.737C511.037 150.574 512.605 149.646 515.664 149.63L560.16 158.687L578.587 154.002C585.103 152.646 586.554 155.128 589.519 159C591.226 164.488 592.68 176.29 593.917 182.119C592.611 183.059 591.389 183.914 590.207 184.681C585.705 187.604 581.776 189.259 575.899 189.539C573.862 185.122 573.917 182.119 574.216 180.412L567.95 216.212H511.75V196.479L510.153 183.705L508.002 187.419C499.808 183.145 496.314 183.04 491.287 173.054L508.002 151.737Z" fill="#006D50"/>
<path d="M551.24 174.769C556.081 175.23 558.546 174.637 559.89 170.615L560.702 162.942" stroke="#529D89" stroke-width="0.210265"/>
<path d="M526.807 169.777L525.756 172.931C525.705 173.831 526.154 173.837 527.333 173.456C529.212 171.854 530.938 171.549 534.692 171.617L539.16 173.456M539.16 173.456L542.051 175.033M539.16 173.456C539.952 175.833 540.19 177.203 539.949 179.764M539.949 179.764C538.607 185.081 538.577 188.083 538.372 193.432V195.797C538.335 189.598 538.337 186.121 539.949 179.764ZM539.949 179.764C540.58 177.836 541.13 176.994 543.891 177.662" stroke="#529D89" stroke-width="0.210265"/>
<path d="M581.469 168.201C582.783 168.989 583.616 172.447 583.619 173.464C584.097 172.143 583.571 166.624 581.469 168.201Z" fill="#094737"/>
<path d="M525.211 173.193L526.262 169.776L524.685 168.988L523.371 173.982C524.08 175.961 524.809 176.285 526.525 175.821C529.751 173.224 533.064 173.248 535.987 174.244L536.776 175.296C537.275 183.316 537.301 188.7 536.776 195.534H537.827C538.09 191.854 538.09 189.489 538.353 185.283C538.353 185.021 539.23 174.871 538.878 174.244C538.527 173.618 536.553 172.742 534.41 171.879C531.079 171.985 529.37 172.534 526.525 174.244C525.852 174.285 525.496 174.255 525.211 173.193Z" fill="#037456"/>
<path d="M499.21 170.828L517.61 153.481C517.346 150.852 516.558 150.327 511.827 151.641C506.307 157.16 501.839 161.103 496.057 166.885C495.787 168.206 498.685 171.09 499.21 170.828Z" fill="#037456"/>
<path d="M549.667 174.509C548.051 174.584 547.172 174.486 545.725 173.721" stroke="#529D89" stroke-width="0.210265"/>
<path d="M564.902 189.49C563.078 192.034 553.6 193.432 553.6 193.432L553.074 191.855L563.85 188.701C564.378 181.579 564.636 177.594 565.953 170.303C568.507 167.493 570.036 166.574 573.049 165.309C576.576 164.983 578.004 165.228 580.672 165.572L581.197 166.36C578.279 165.673 575.415 166.098 573.312 166.623C571.21 167.149 566.586 170.113 566.741 171.617C566.897 173.121 566.726 186.945 564.902 189.49Z" fill="#037456"/>
<path d="M564.394 163.469H561.24C561.447 167.676 560.785 169.95 559.4 173.983C556.064 176.042 554.143 175.822 550.989 175.559L550.727 177.925C555.983 178.976 559.663 177.925 562.028 174.771C564.144 170.462 564.242 167.95 564.394 163.469Z" fill="#037456"/>
<ellipse cx="541.272" cy="184.233" rx="1.57699" ry="1.31416" fill="#0B8D6B"/>
<ellipse cx="541.221" cy="183.971" rx="1.40387" ry="1.2978" transform="rotate(12.8223 541.221 183.971)" fill="#F69B30"/>
<path d="M542.035 190.279C542.035 191.005 541.329 191.593 540.458 191.593C539.587 191.593 538.881 191.005 538.881 190.279C538.881 189.553 539.587 188.965 540.458 188.965C541.329 188.965 542.035 189.553 542.035 190.279Z" fill="#0B8D6B"/>
<ellipse cx="540.591" cy="190.035" rx="1.40387" ry="1.2978" transform="rotate(1.52474 540.591 190.035)" fill="#F69B30"/>
<path d="M542.343 171.554C540.736 170.482 540.468 170.214 539.129 169.679C537.789 169.143 553.327 153.605 553.327 153.605L557.613 156.284C555.369 161.497 554.058 164.398 549.308 168.607C546.846 170.296 546.468 171.543 545.558 173.697C544.214 173.126 543.683 172.893 542.343 171.554Z" fill="url(#paint34_linear_622_1591)"/>
<g filter="url(#filter14_d_622_1591)">
<path d="M521.447 159.768C518.475 152.136 517.67 147.672 520.108 138.873V136.729V132.711C521.678 129.449 523.022 127.993 526.805 126.55H547.433L560.023 142.623L554.665 158.16C552.451 161.872 550.132 163.922 544.485 167.536C539.367 169.589 536.985 170.483 531.091 170.215C528.071 169.629 525.466 167.536 524.394 166.197C523.322 164.857 521.447 159.768 521.447 159.768Z" fill="#BF8B65"/>
</g>
<path d="M547.978 162.983C554.548 156.703 553.619 154.608 553.871 150.124C554.943 154.678 555.479 157.089 549.853 162.983C546.581 166.411 544.044 167.434 540.209 168.34C536.08 169.361 534.601 169.462 533.244 168.876C539.94 167.728 543.805 166.426 547.978 162.983Z" fill="#B58665"/>
<path d="M520.912 138.075C520.829 139.223 520.598 140.137 520.911 141.29C521.567 143.701 523.255 144.293 525.733 144.504C526.394 144.43 527.102 144.104 527.341 143.433C525.171 141.179 523.671 139.663 520.912 138.075Z" fill="#B58665"/>
<path d="M534.58 149.326C534.057 148.384 533.496 147.053 532.973 146.111C538.282 146.579 541.6 146.804 547.171 148.254C546.272 149.559 545.433 151.319 543.152 151.737C539.319 152.148 537.683 151.491 534.58 149.326Z" fill="#B58665"/>
<path d="M543.419 151.468C539.901 151.971 538.504 152.002 535.692 149.794C535.46 149.611 534.283 149.586 534.578 149.586C537.792 154.14 545.294 153.336 544.758 153.068L544.746 153.062C544.214 152.796 543.684 152.532 543.419 151.468Z" fill="black" stroke="black" stroke-width="0.107154"/>
<path d="M524.931 144.504C523.859 144.29 521.448 143.165 520.912 141.558C520.644 142.361 519.841 142.361 519.037 142.361C521.556 144.484 526.538 145.576 526.538 145.576C526.538 145.576 526.002 144.719 524.931 144.504Z" fill="black" stroke="black" stroke-width="0.107154"/>
<path d="M527.056 148.792C527.061 148.829 527.617 145.141 527.592 145.304L527.324 143.429L528.128 145.037L527.86 149.055L524.109 154.686C523.901 155.819 524.303 156.055 524.913 156.561C526.41 157.504 527.346 157.718 529.199 157.632C530.457 157.582 530.429 157.105 530.003 156.025C530.046 156.088 530.272 156.174 530.539 156.293C531.199 157.666 531.906 158.998 529.736 159.24C529.813 158.678 524.914 158.168 524.378 158.168C523.842 158.168 522.566 156.657 522.502 154.954C523.876 151.885 527.051 148.755 527.056 148.792Z" fill="#B58665"/>
<path d="M524.126 139.143C522.777 137.722 522.088 136.817 520.911 135.125C520.609 136.275 520.623 136.921 520.911 138.071C523.577 139.645 524.93 141.554 527.34 143.429L524.126 139.143Z" fill="black" stroke="black" stroke-width="0.107154"/>
<path d="M543.952 145.94C541.47 145.683 533.209 144.286 532.939 144.947C532.668 145.607 532.668 145.94 532.668 145.94C538.281 146.384 546.037 148.163 547.55 148.519C547.646 148.541 547.707 148.415 547.644 148.324C547.207 147.701 545.929 146.145 543.952 145.94Z" fill="black" stroke="black" stroke-width="0.107154"/>
<path d="M521.426 159.506C523.837 166.471 527.855 166.739 533.481 164.864C531.118 163.581 529.462 161.917 526.783 161.917C525.272 160.729 525.444 160.31 521.426 159.506Z" fill="#C65644" fill-opacity="0.64"/>
<path d="M521.691 159.772C523.536 161.491 524.507 162.755 527.038 163.459C527.571 163.607 529.677 164.371 530.988 164.692C531.948 164.731 532.212 164.776 533.074 164.883" stroke="url(#paint35_linear_622_1591)" stroke-width="0.214309"/>
<path d="M528.664 164.326C526.521 164.059 525.182 163.523 523.574 161.916C523.631 162.43 523.831 162.726 524.171 163.278C525.2 164.46 525.893 164.771 527.321 164.764C528.001 164.653 528.237 164.565 528.664 164.326Z" fill="#CC7057"/>
<circle cx="557.069" cy="157.895" r="0.803657" fill="#E0797B"/>
<circle cx="556.801" cy="157.092" r="0.535771" fill="#E0797B"/>
<circle cx="557.87" cy="157.627" r="0.535771" fill="#E0797B"/>
<circle cx="557.87" cy="158.163" r="0.535771" fill="#E0797B"/>
<circle cx="557.333" cy="158.697" r="0.535771" fill="#E0797B"/>
<circle cx="556.801" cy="158.697" r="0.535771" fill="#E0797B"/>
<circle cx="556.256" cy="158.164" r="0.535771" fill="#E0797B"/>
<circle cx="556.256" cy="157.629" r="0.535771" fill="#E0797B"/>
<circle cx="557.333" cy="157.092" r="0.535771" fill="#E0797B"/>
<path d="M557.594 158.43C556.777 157.289 556.38 156.489 555.719 154.947C556.255 152.863 556.412 151.71 554.915 149.857C552.235 147.446 547.949 143.428 543.931 135.391C537.603 134.413 532.875 132.609 528.125 127.891L523.037 129.766C521.516 130.028 521.008 130.794 520.117 132.136L520.09 132.177C520.598 127.3 520.216 124.467 522.501 119.854C524.896 115.001 526.692 112.943 530.537 110.21C533.465 108.613 535.344 108.075 539.038 107.016L539.11 106.996C552.026 106.286 556.79 107.799 565.363 115.3C569.376 121.784 571.221 124.396 572.06 131.105C572.957 142.709 573.733 146.751 576.882 151.465C579.701 154.398 580.959 156.283 583.043 159.769C583.543 163.201 584.651 165.636 585.185 168.341C582.808 165.571 579.292 157.358 579.292 157.358C574.737 155.483 575.616 161.46 564.826 162.448C563.452 162.555 558.267 161.039 557.594 158.43Z" fill="#423C34"/>
<path d="M544.778 136.194C538.349 135.658 531.178 131.64 527.098 126.55C528.437 129.497 530.069 131.388 532.831 133.408C538.215 135.653 542.414 136.837 544.778 136.194Z" fill="#423C34"/>
<path d="M533.526 122.881C529.059 129.203 526.387 129.309 519.82 130.242C523 130.85 523.773 130.711 527.018 129.622C531.959 126.523 532.686 125.183 533.526 122.881Z" fill="#423C34"/>
<path d="M531.33 122.881C535.797 129.203 538.469 129.309 545.035 130.242C541.856 130.85 541.083 130.711 537.838 129.622C532.896 126.523 532.17 125.183 531.33 122.881Z" fill="#5A4B4B"/>
<path d="M532.393 119.13C530.364 123.253 528.386 123.605 523.564 122.533C526.113 123.71 526.69 123.512 528.922 123.337C532.009 121.91 532.252 120.801 532.393 119.13Z" fill="#5A4B4B"/>
<path d="M540.457 126.282C535.889 126.78 534.531 125.3 532.85 120.656C533.223 123.438 533.7 123.819 535.045 125.609C537.904 127.449 538.971 127.06 540.457 126.282Z" fill="#352F2F"/>
<path d="M531.877 122.342C535.259 127.685 537.635 127.524 543.41 127.744C540.512 128.605 539.834 128.553 537.041 127.871C532.926 125.517 532.406 124.363 531.877 122.342Z" fill="#352F2F"/>
<path d="M534.071 119.667C529.604 125.989 526.932 126.095 520.365 127.029C523.544 127.637 524.318 127.498 527.563 126.409C532.504 123.31 533.231 121.969 534.071 119.667Z" fill="#5A4B4B"/>
<path d="M545.046 130.059C541.89 129.372 538.668 129.255 536.176 130.57C542.088 129.678 546.827 131.045 551.162 135.901C552.273 140.118 552.821 141.743 555.831 143.997C557.059 145.539 557.765 146.325 559.082 147.36L560.918 150.451C561.177 150.576 561.304 150.555 561.433 150.145C561.272 149.404 560.274 147.489 560.274 147.489C558.836 145.944 557.765 145.225 556.121 143.546C554.174 141.098 553.409 139.118 552.193 135.289C549.907 132.608 548.84 130.791 545.046 130.059Z" fill="#352F2F"/>
<path d="M549.792 128.376C546.636 127.689 543.414 127.573 540.922 128.888C546.834 127.996 551.573 129.362 555.909 134.218C557.019 138.435 557.567 140.061 560.577 142.314C561.806 143.856 562.511 144.642 563.829 145.678L565.664 148.768C565.923 148.893 566.05 148.872 566.179 148.462C566.018 147.722 565.02 145.806 565.02 145.806C563.582 144.261 562.511 143.542 560.867 141.863C558.92 139.416 558.155 137.436 556.939 133.606C554.653 130.925 553.586 129.108 549.792 128.376Z" fill="#5A4B4B"/>
<path d="M548.173 119.8C545.017 119.114 541.795 118.997 539.303 120.312C545.215 119.42 549.954 120.786 554.289 125.642C555.4 129.859 555.948 131.485 558.958 133.738C560.186 135.28 560.892 136.067 562.209 137.102L564.045 140.192C564.304 140.318 564.431 140.297 564.56 139.886C564.399 139.146 563.401 137.231 563.401 137.231C561.963 135.686 560.892 134.967 559.248 133.288C557.301 130.84 556.536 128.86 555.319 125.031C553.034 122.35 551.967 120.532 548.173 119.8Z" fill="#5A4B4B"/>
<path d="M569.769 149.662C572.238 150.085 574.604 150.537 576.888 149.174C569.928 150.229 566.075 148.698 565.79 144.718C564.884 140.99 564.786 140.129 563.404 137.622C562.671 136.292 562.233 135.619 561.336 134.758L560.381 132.052C560.191 131.954 560.083 131.982 559.904 132.365C559.903 133.032 560.38 134.717 560.38 134.717C561.285 136.036 562.036 136.624 563.086 138.052C564.247 140.163 564.521 141.923 564.834 145.344C566.231 147.647 566.783 149.238 569.769 149.662Z" fill="#352F2F"/>
<path d="M556.244 123.649C553.17 122.836 554.554 124.667 555.318 124.606C559.52 126.079 558.016 124.65 562.477 129.311C563.8 133.198 564.424 134.704 567.454 136.927C568.728 138.398 569.454 139.153 570.783 140.171L572.733 143.081C572.99 143.21 573.111 143.199 573.21 142.835C573.01 142.155 571.935 140.359 571.935 140.359C570.46 138.873 569.387 138.157 567.705 136.536C565.686 134.201 564.831 132.361 563.43 128.819C561.071 126.252 559.935 124.542 556.244 123.649Z" fill="#352F2F"/>
<path d="M562.934 136.809C560.404 134.358 559.168 132.65 555.322 132.282L554.518 132.603C557.734 133.535 559.329 134.71 561.966 137.516C563.473 141.608 564.173 143.174 567.384 145.131C568.753 146.55 569.531 147.265 570.94 148.17L573.061 151.072C573.331 151.172 573.456 151.139 573.545 150.719C573.314 149.997 572.138 148.185 572.138 148.185C570.56 146.784 569.426 146.17 567.629 144.655C565.459 142.404 564.509 140.505 562.934 136.809Z" fill="#5A4B4B"/>
<path d="M551.922 128.075C549.604 126.59 548.385 125.385 545.442 126.28L544.896 126.841C547.465 126.678 549.021 126.629 551.48 128.412C555.68 130.348 556.674 132.846 557.119 134.138C557.564 135.429 559.085 134.683 559.879 136.156C560.672 137.628 561.968 138.195 561.968 138.195C562.187 138.202 562.275 138.131 562.268 137.708C561.971 137.105 560.778 135.783 560.778 135.783C559.354 134.977 558.712 133.923 557.507 133.004C556.227 131.014 555.431 129.842 551.922 128.075Z" fill="#352F2F"/>
<path d="M546.068 143.161C544.728 140.75 543.956 138.618 543.389 135.124L543.924 135.392C544.734 138.375 544.923 140.705 546.871 143.161C549.162 146.034 550.682 146.046 553.3 147.447L553.033 147.983C550.245 146.404 548.479 146.107 546.068 143.161Z" fill="#423C34"/>
<path d="M542.05 136.673C541.394 135.353 541.255 134.395 541.289 132.413L542.076 132.575C541.835 134.12 541.925 134.935 542.683 136.257C543.984 137.417 544.912 137.707 546.51 137.594L546.293 138.644C544.571 138.086 543.584 137.839 542.05 136.673Z" fill="#423C34"/>
<path d="M568.721 129.664C563.761 121.983 560.562 118.097 549.629 116.776L548.431 116.802C558.226 118.649 563.654 122.836 569.116 131.334L568.721 129.664Z" fill="#5A4B4B"/>
<path d="M543.537 109.367C534.436 110.251 529.516 111.312 523.327 120.422L522.801 121.498C528.935 113.641 535.145 110.738 545.201 109.781L543.537 109.367Z" fill="#5A4B4B"/>
<path d="M546.197 112.583C537.096 113.466 532.176 114.528 525.988 123.637L525.461 124.713C531.595 116.856 537.805 113.954 547.862 112.997L546.197 112.583Z" fill="#5A4B4B"/>
<path d="M580.352 164.666C574.751 161.942 572.044 159.512 569.279 154.946C570.252 157.58 570.993 158.992 573.478 161.127C576.22 163.238 577.719 163.912 580.352 164.666Z" fill="#423C34"/>
<path d="M582.639 163.204C576.417 162.935 572.966 161.785 568.611 158.698C570.552 160.726 571.794 161.726 574.924 162.695C578.28 163.54 579.923 163.561 582.639 163.204Z" fill="#423C34"/>
<path d="M580.351 158.162C578.259 158.432 577.221 158.174 575.529 157.09C576.153 157.721 576.456 158.098 577.672 158.43C578.885 158.667 579.395 158.452 580.351 158.162Z" fill="#423C34"/>
<path d="M536.954 109.973C542.527 111.062 545.14 110.402 550.932 109.788C545.417 110.838 543.16 111.593 538.507 110.878C537.566 110.508 537.308 110.314 536.954 109.973Z" fill="#352F2F"/>
<path d="M557.819 117.422C554.134 113.103 551.678 111.993 546.762 108.87C551.732 111.48 553.969 112.293 557.166 115.748C557.673 116.623 557.754 116.935 557.819 117.422Z" fill="#352F2F"/>
<path d="M559.708 115.51C552.629 109.723 548.391 107.008 537.58 109.107L536.448 109.5C546.338 108.25 552.789 110.568 560.597 116.977L559.708 115.51Z" fill="#5A4B4B"/>
<path d="M533.506 119.131C530.124 124.473 527.748 124.312 521.973 124.532C524.871 125.394 525.548 125.341 528.342 124.66C532.457 122.306 532.977 121.152 533.506 119.131Z" fill="#352F2F"/>
<path d="M552.252 118.51C548.384 117.633 546.354 116.737 542.314 118.244L540.768 119.001C544.495 117.633 548.741 117.977 552.08 119.295C556.333 120.047 558.779 122.43 561.575 125.631L561.123 124.37C558.106 121.701 556.69 119.688 552.252 118.51Z" fill="#352F2F"/>
<path d="M548.632 112.464C544.665 112.439 542.491 112 538.868 114.34L537.521 115.411C540.867 113.275 545.088 112.698 548.632 113.268C552.948 113.089 555.848 114.891 559.267 117.416L558.555 116.282C555.035 114.323 553.219 112.662 548.632 112.464Z" fill="#352F2F"/>
<path d="M566.997 127.891C562.389 114.825 555.203 106.728 543.148 107.263C538.42 107.209 533.9 109.069 528.146 112.085C530.022 110.21 532.433 108.335 536.19 106.728C543.155 104.852 546.898 105.656 549.577 105.924C552.256 106.192 558.15 108.067 562.711 112.085C568.556 118.368 568.316 121.757 570.211 127.891C572.354 136.463 565.657 147.714 566.997 147.982C566.997 147.982 568.872 148.786 569.14 150.661C569.14 154.411 567.636 156.525 562.711 158.697C560.597 158.871 559.65 158.652 560.032 155.483C561.024 151.325 561.687 149.005 564.318 145.035C567.083 139.178 568.136 135.652 566.997 127.891Z" fill="white"/>
<path d="M550.381 176.11C553.671 169.663 555.383 166.039 557.346 159.501L558.686 157.358L560.293 155.751L561.097 156.287C558.951 157.519 558.234 158.948 557.615 161.644C555.693 166.951 554.983 168.966 552.793 173.431C550.667 177.765 549.042 179.861 546.631 184.147C545.044 186.751 544.085 192.451 544.086 192.987C544.087 193.523 544.466 194.837 544.466 194.837L544.82 196.427L556.301 245.711C556.301 245.711 542.7 196.674 542.881 192.987C543.062 189.3 545.559 184.415 545.559 184.415C547.167 181.468 548.239 179.593 550.381 176.11Z" fill="white"/>
<path d="M506.352 210.759C506.967 208.921 509.553 207.187 511.68 207.187L583.601 207.187C585.204 207.187 586 208.193 585.5 209.584L569.923 252.866C569.276 254.664 566.775 256.338 564.684 256.375L492.982 257.642C491.344 257.671 490.512 256.666 491.011 255.26L499.245 232.012L506.352 210.759Z" fill="#FDE6E6"/>
<path d="M68.2939 250.483C67.5339 249.339 69.9274 246.796 70.725 246.108C71.9747 245.029 73.5101 246.072 74.6071 246.887C76.5058 248.297 75.3077 250.191 73.4619 248.885C72.7457 248.379 71.237 247.463 71.7468 246.409C72.1573 245.56 73.6058 243.654 74.5436 243.517C75.0883 243.437 78.8903 244.471 78.5029 245.641C78.0039 247.148 76.068 244.837 75.8627 244.17C75.6085 243.345 77.9308 240.574 78.6591 240.652C79.2232 240.712 80.0625 241.87 80.4353 242.312C80.9391 242.908 80.927 243.953 79.9948 243.245C79.0113 242.498 78.1962 242.033 78.7287 240.694C79.4802 238.804 81.0674 237.164 82.849 236.44" stroke="white" stroke-width="0.53333" stroke-linecap="round"/>
<path d="M88.9633 235.094L84.7947 220.388L100.08 210.292L118.666 199.463L88.9633 235.094Z" fill="#2764C8"/>
<path d="M118.65 199.462L92.4656 224.634L104.386 229.429L118.65 199.462Z" fill="#3B82F6"/>
<path d="M84.2576 221.251L74.2006 219.019L118.654 199.464L84.2576 221.251Z" fill="#3B82F6"/>
<defs>
<filter id="filter0_d_622_1591" x="183.642" y="135.392" width="22.4059" height="15.7828" filterUnits="userSpaceOnUse" color-interpolation-filters="sRGB">
<feFlood flood-opacity="0" result="BackgroundImageFix"/>
<feColorMatrix in="SourceAlpha" type="matrix" values="0 0 0 0 0 0 0 0 0 0 0 0 0 0 0 0 0 0 127 0" result="hardAlpha"/>
<feOffset dy="2.53985"/>
<feGaussianBlur stdDeviation="1.26993"/>
<feComposite in2="hardAlpha" operator="out"/>
<feColorMatrix type="matrix" values="0 0 0 0 0 0 0 0 0 0 0 0 0 0 0 0 0 0 0.25 0"/>
<feBlend mode="normal" in2="BackgroundImageFix" result="effect1_dropShadow_622_1591"/>
<feBlend mode="normal" in="SourceGraphic" in2="effect1_dropShadow_622_1591" result="shape"/>
</filter>
<filter id="filter1_d_622_1591" x="168.946" y="137.168" width="20.5817" height="16.7037" filterUnits="userSpaceOnUse" color-interpolation-filters="sRGB">
<feFlood flood-opacity="0" result="BackgroundImageFix"/>
<feColorMatrix in="SourceAlpha" type="matrix" values="0 0 0 0 0 0 0 0 0 0 0 0 0 0 0 0 0 0 127 0" result="hardAlpha"/>
<feOffset dy="2.53985"/>
<feGaussianBlur stdDeviation="1.26993"/>
<feComposite in2="hardAlpha" operator="out"/>
<feColorMatrix type="matrix" values="0 0 0 0 0 0 0 0 0 0 0 0 0 0 0 0 0 0 0.25 0"/>
<feBlend mode="normal" in2="BackgroundImageFix" result="effect1_dropShadow_622_1591"/>
<feBlend mode="normal" in="SourceGraphic" in2="effect1_dropShadow_622_1591" result="shape"/>
</filter>
<filter id="filter2_d_622_1591" x="166.482" y="90.9697" width="41.7906" height="53.6544" filterUnits="userSpaceOnUse" color-interpolation-filters="sRGB">
<feFlood flood-opacity="0" result="BackgroundImageFix"/>
<feColorMatrix in="SourceAlpha" type="matrix" values="0 0 0 0 0 0 0 0 0 0 0 0 0 0 0 0 0 0 127 0" result="hardAlpha"/>
<feOffset dy="2.53985"/>
<feGaussianBlur stdDeviation="1.26993"/>
<feComposite in2="hardAlpha" operator="out"/>
<feColorMatrix type="matrix" values="0 0 0 0 0 0 0 0 0 0 0 0 0 0 0 0 0 0 0.25 0"/>
<feBlend mode="normal" in2="BackgroundImageFix" result="effect1_dropShadow_622_1591"/>
<feBlend mode="normal" in="SourceGraphic" in2="effect1_dropShadow_622_1591" result="shape"/>
</filter>
<filter id="filter3_d_622_1591" x="196.761" y="126.163" width="7.73009" height="10.1837" filterUnits="userSpaceOnUse" color-interpolation-filters="sRGB">
<feFlood flood-opacity="0" result="BackgroundImageFix"/>
<feColorMatrix in="SourceAlpha" type="matrix" values="0 0 0 0 0 0 0 0 0 0 0 0 0 0 0 0 0 0 127 0" result="hardAlpha"/>
<feOffset dy="2.53985"/>
<feGaussianBlur stdDeviation="1.26993"/>
<feComposite in2="hardAlpha" operator="out"/>
<feColorMatrix type="matrix" values="0 0 0 0 0 0 0 0 0 0 0 0 0 0 0 0 0 0 0.25 0"/>
<feBlend mode="normal" in2="BackgroundImageFix" result="effect1_dropShadow_622_1591"/>
<feBlend mode="normal" in="SourceGraphic" in2="effect1_dropShadow_622_1591" result="shape"/>
</filter>
<filter id="filter4_d_622_1591" x="186.187" y="103.066" width="12.2301" height="8.11535" filterUnits="userSpaceOnUse" color-interpolation-filters="sRGB">
<feFlood flood-opacity="0" result="BackgroundImageFix"/>
<feColorMatrix in="SourceAlpha" type="matrix" values="0 0 0 0 0 0 0 0 0 0 0 0 0 0 0 0 0 0 127 0" result="hardAlpha"/>
<feOffset dy="2.53985"/>
<feGaussianBlur stdDeviation="1.26993"/>
<feComposite in2="hardAlpha" operator="out"/>
<feColorMatrix type="matrix" values="0 0 0 0 0 0 0 0 0 0 0 0 0 0 0 0 0 0 0.25 0"/>
<feBlend mode="normal" in2="BackgroundImageFix" result="effect1_dropShadow_622_1591"/>
<feBlend mode="normal" in="SourceGraphic" in2="effect1_dropShadow_622_1591" result="shape"/>
</filter>
<filter id="filter5_d_622_1591" x="169.132" y="103.214" width="12.2164" height="8.18322" filterUnits="userSpaceOnUse" color-interpolation-filters="sRGB">
<feFlood flood-opacity="0" result="BackgroundImageFix"/>
<feColorMatrix in="SourceAlpha" type="matrix" values="0 0 0 0 0 0 0 0 0 0 0 0 0 0 0 0 0 0 127 0" result="hardAlpha"/>
<feOffset dy="2.53985"/>
<feGaussianBlur stdDeviation="1.26993"/>
<feComposite in2="hardAlpha" operator="out"/>
<feColorMatrix type="matrix" values="0 0 0 0 0 0 0 0 0 0 0 0 0 0 0 0 0 0 0.25 0"/>
<feBlend mode="normal" in2="BackgroundImageFix" result="effect1_dropShadow_622_1591"/>
<feBlend mode="normal" in="SourceGraphic" in2="effect1_dropShadow_622_1591" result="shape"/>
</filter>
<filter id="filter6_d_622_1591" x="194.368" y="102.271" width="15.3336" height="21.525" filterUnits="userSpaceOnUse" color-interpolation-filters="sRGB">
<feFlood flood-opacity="0" result="BackgroundImageFix"/>
<feColorMatrix in="SourceAlpha" type="matrix" values="0 0 0 0 0 0 0 0 0 0 0 0 0 0 0 0 0 0 127 0" result="hardAlpha"/>
<feOffset dy="2.53985"/>
<feGaussianBlur stdDeviation="1.26993"/>
<feComposite in2="hardAlpha" operator="out"/>
<feColorMatrix type="matrix" values="0 0 0 0 0 0 0 0 0 0 0 0 0 0 0 0 0 0 0.25 0"/>
<feBlend mode="normal" in2="BackgroundImageFix" result="effect1_dropShadow_622_1591"/>
<feBlend mode="normal" in="SourceGraphic" in2="effect1_dropShadow_622_1591" result="shape"/>
</filter>
<filter id="filter7_d_622_1591" x="166.38" y="98.7999" width="34.2848" height="15.4943" filterUnits="userSpaceOnUse" color-interpolation-filters="sRGB">
<feFlood flood-opacity="0" result="BackgroundImageFix"/>
<feColorMatrix in="SourceAlpha" type="matrix" values="0 0 0 0 0 0 0 0 0 0 0 0 0 0 0 0 0 0 127 0" result="hardAlpha"/>
<feOffset dy="1.26993"/>
<feGaussianBlur stdDeviation="1.26993"/>
<feComposite in2="hardAlpha" operator="out"/>
<feColorMatrix type="matrix" values="0 0 0 0 0 0 0 0 0 0 0 0 0 0 0 0 0 0 0.25 0"/>
<feBlend mode="normal" in2="BackgroundImageFix" result="effect1_dropShadow_622_1591"/>
<feBlend mode="normal" in="SourceGraphic" in2="effect1_dropShadow_622_1591" result="shape"/>
</filter>
<filter id="filter8_d_622_1591" x="197.792" y="115.939" width="13.9313" height="17.1754" filterUnits="userSpaceOnUse" color-interpolation-filters="sRGB">
<feFlood flood-opacity="0" result="BackgroundImageFix"/>
<feColorMatrix in="SourceAlpha" type="matrix" values="0 0 0 0 0 0 0 0 0 0 0 0 0 0 0 0 0 0 127 0" result="hardAlpha"/>
<feOffset dy="2.53985"/>
<feGaussianBlur stdDeviation="1.26993"/>
<feComposite in2="hardAlpha" operator="out"/>
<feColorMatrix type="matrix" values="0 0 0 0 0 0 0 0 0 0 0 0 0 0 0 0 0 0 0.25 0"/>
<feBlend mode="normal" in2="BackgroundImageFix" result="effect1_dropShadow_622_1591"/>
<feBlend mode="normal" in="SourceGraphic" in2="effect1_dropShadow_622_1591" result="shape"/>
</filter>
<filter id="filter9_d_622_1591" x="185.157" y="91.8809" width="9.00158" height="9.56749" filterUnits="userSpaceOnUse" color-interpolation-filters="sRGB">
<feFlood flood-opacity="0" result="BackgroundImageFix"/>
<feColorMatrix in="SourceAlpha" type="matrix" values="0 0 0 0 0 0 0 0 0 0 0 0 0 0 0 0 0 0 127 0" result="hardAlpha"/>
<feOffset dy="2.53985"/>
<feGaussianBlur stdDeviation="1.26993"/>
<feComposite in2="hardAlpha" operator="out"/>
<feColorMatrix type="matrix" values="0 0 0 0 0 0 0 0 0 0 0 0 0 0 0 0 0 0 0.25 0"/>
<feBlend mode="normal" in2="BackgroundImageFix" result="effect1_dropShadow_622_1591"/>
<feBlend mode="normal" in="SourceGraphic" in2="effect1_dropShadow_622_1591" result="shape"/>
</filter>
<filter id="filter10_d_622_1591" x="193.607" y="95.5684" width="7.7965" height="10.0275" filterUnits="userSpaceOnUse" color-interpolation-filters="sRGB">
<feFlood flood-opacity="0" result="BackgroundImageFix"/>
<feColorMatrix in="SourceAlpha" type="matrix" values="0 0 0 0 0 0 0 0 0 0 0 0 0 0 0 0 0 0 127 0" result="hardAlpha"/>
<feOffset dy="2.53985"/>
<feGaussianBlur stdDeviation="1.26993"/>
<feComposite in2="hardAlpha" operator="out"/>
<feColorMatrix type="matrix" values="0 0 0 0 0 0 0 0 0 0 0 0 0 0 0 0 0 0 0.25 0"/>
<feBlend mode="normal" in2="BackgroundImageFix" result="effect1_dropShadow_622_1591"/>
<feBlend mode="normal" in="SourceGraphic" in2="effect1_dropShadow_622_1591" result="shape"/>
</filter>
<filter id="filter11_d_622_1591" x="168.587" y="94.1436" width="9.59533" height="10.1593" filterUnits="userSpaceOnUse" color-interpolation-filters="sRGB">
<feFlood flood-opacity="0" result="BackgroundImageFix"/>
<feColorMatrix in="SourceAlpha" type="matrix" values="0 0 0 0 0 0 0 0 0 0 0 0 0 0 0 0 0 0 127 0" result="hardAlpha"/>
<feOffset dy="2.53985"/>
<feGaussianBlur stdDeviation="1.26993"/>
<feComposite in2="hardAlpha" operator="out"/>
<feColorMatrix type="matrix" values="0 0 0 0 0 0 0 0 0 0 0 0 0 0 0 0 0 0 0.25 0"/>
<feBlend mode="normal" in2="BackgroundImageFix" result="effect1_dropShadow_622_1591"/>
<feBlend mode="normal" in="SourceGraphic" in2="effect1_dropShadow_622_1591" result="shape"/>
</filter>
<filter id="filter12_d_622_1591" x="173.029" y="114.641" width="18.0856" height="19.3141" filterUnits="userSpaceOnUse" color-interpolation-filters="sRGB">
<feFlood flood-opacity="0" result="BackgroundImageFix"/>
<feColorMatrix in="SourceAlpha" type="matrix" values="0 0 0 0 0 0 0 0 0 0 0 0 0 0 0 0 0 0 127 0" result="hardAlpha"/>
<feOffset dy="1.26993"/>
<feGaussianBlur stdDeviation="1.26993"/>
<feComposite in2="hardAlpha" operator="out"/>
<feColorMatrix type="matrix" values="0 0 0 0 0 0 0 0 0 0 0 0 0 0 0 0 0 0 0.25 0"/>
<feBlend mode="normal" in2="BackgroundImageFix" result="effect1_dropShadow_622_1591"/>
<feBlend mode="normal" in="SourceGraphic" in2="effect1_dropShadow_622_1591" result="shape"/>
</filter>
<filter id="filter13_d_622_1591" x="455.099" y="224.42" width="85.914" height="48.7968" filterUnits="userSpaceOnUse" color-interpolation-filters="sRGB">
<feFlood flood-opacity="0" result="BackgroundImageFix"/>
<feColorMatrix in="SourceAlpha" type="matrix" values="0 0 0 0 0 0 0 0 0 0 0 0 0 0 0 0 0 0 127 0" result="hardAlpha"/>
<feOffset dy="3.83882"/>
<feGaussianBlur stdDeviation="1.91941"/>
<feComposite in2="hardAlpha" operator="out"/>
<feColorMatrix type="matrix" values="0 0 0 0 0 0 0 0 0 0 0 0 0 0 0 0 0 0 0.25 0"/>
<feBlend mode="normal" in2="BackgroundImageFix" result="effect1_dropShadow_622_1591"/>
<feBlend mode="normal" in="SourceGraphic" in2="effect1_dropShadow_622_1591" result="shape"/>
</filter>
<filter id="filter14_d_622_1591" x="516.527" y="126.55" width="45.6397" height="47.9981" filterUnits="userSpaceOnUse" color-interpolation-filters="sRGB">
<feFlood flood-opacity="0" result="BackgroundImageFix"/>
<feColorMatrix in="SourceAlpha" type="matrix" values="0 0 0 0 0 0 0 0 0 0 0 0 0 0 0 0 0 0 127 0" result="hardAlpha"/>
<feOffset dy="2.14309"/>
<feGaussianBlur stdDeviation="1.07154"/>
<feComposite in2="hardAlpha" operator="out"/>
<feColorMatrix type="matrix" values="0 0 0 0 0 0 0 0 0 0 0 0 0 0 0 0 0 0 0.25 0"/>
<feBlend mode="normal" in2="BackgroundImageFix" result="effect1_dropShadow_622_1591"/>
<feBlend mode="normal" in="SourceGraphic" in2="effect1_dropShadow_622_1591" result="shape"/>
</filter>
<linearGradient id="paint0_linear_622_1591" x1="198.6" y1="134.782" x2="198.6" y2="160.498" gradientUnits="userSpaceOnUse">
<stop stop-color="#E0797B" stop-opacity="0.54"/>
<stop offset="1" stop-color="#FAEAE9" stop-opacity="0.67"/>
</linearGradient>
<linearGradient id="paint1_linear_622_1591" x1="200.658" y1="132.243" x2="200.658" y2="168.119" gradientUnits="userSpaceOnUse">
<stop stop-color="#E0797B" stop-opacity="0.54"/>
<stop offset="1" stop-color="#FAEAE9" stop-opacity="0.67"/>
</linearGradient>
<linearGradient id="paint2_linear_622_1591" x1="215.894" y1="129.385" x2="215.894" y2="146.211" gradientUnits="userSpaceOnUse">
<stop stop-color="#E0797B" stop-opacity="0.54"/>
<stop offset="1" stop-color="#FAEAE9" stop-opacity="0.67"/>
</linearGradient>
<linearGradient id="paint3_linear_622_1591" x1="211.379" y1="129.066" x2="211.379" y2="138.273" gradientUnits="userSpaceOnUse">
<stop stop-color="#E0797B" stop-opacity="0.54"/>
<stop offset="1" stop-color="#FAEAE9" stop-opacity="0.67"/>
</linearGradient>
<linearGradient id="paint4_linear_622_1591" x1="218.256" y1="141.132" x2="218.256" y2="152.054" gradientUnits="userSpaceOnUse">
<stop stop-color="#E0797B" stop-opacity="0.54"/>
<stop offset="1" stop-color="#FAEAE9" stop-opacity="0.67"/>
</linearGradient>
<linearGradient id="paint5_linear_622_1591" x1="226.749" y1="146.212" x2="226.749" y2="149.387" gradientUnits="userSpaceOnUse">
<stop stop-color="#E0797B" stop-opacity="0.54"/>
<stop offset="1" stop-color="#FAEAE9" stop-opacity="0.67"/>
</linearGradient>
<linearGradient id="paint6_linear_622_1591" x1="220.17" y1="131.29" x2="220.17" y2="147.164" gradientUnits="userSpaceOnUse">
<stop stop-color="#E0797B" stop-opacity="0.54"/>
<stop offset="1" stop-color="#FAEAE9" stop-opacity="0.67"/>
</linearGradient>
<linearGradient id="paint7_linear_622_1591" x1="220.497" y1="135.416" x2="220.497" y2="147.798" gradientUnits="userSpaceOnUse">
<stop stop-color="#E0797B" stop-opacity="0.54"/>
<stop offset="1" stop-color="#FAEAE9" stop-opacity="0.67"/>
</linearGradient>
<linearGradient id="paint8_linear_622_1591" x1="175.069" y1="136.687" x2="175.069" y2="150.021" gradientUnits="userSpaceOnUse">
<stop stop-color="#E3B9B8"/>
<stop offset="1" stop-color="#FAEAE9" stop-opacity="0.66"/>
</linearGradient>
<linearGradient id="paint9_linear_622_1591" x1="171.901" y1="138.274" x2="171.901" y2="145.259" gradientUnits="userSpaceOnUse">
<stop stop-color="#E0797B" stop-opacity="0.54"/>
<stop offset="1" stop-color="#FAEAE9" stop-opacity="0.67"/>
</linearGradient>
<linearGradient id="paint10_linear_622_1591" x1="158.893" y1="143.988" x2="158.893" y2="157.64" gradientUnits="userSpaceOnUse">
<stop stop-color="#E0797B" stop-opacity="0.54"/>
<stop offset="1" stop-color="#FAEAE9" stop-opacity="0.67"/>
</linearGradient>
<linearGradient id="paint11_linear_622_1591" x1="165.406" y1="143.988" x2="165.406" y2="146.528" gradientUnits="userSpaceOnUse">
<stop stop-color="#E0797B" stop-opacity="0.54"/>
<stop offset="1" stop-color="#FAEAE9" stop-opacity="0.67"/>
</linearGradient>
<linearGradient id="paint12_linear_622_1591" x1="173.013" y1="146.529" x2="173.013" y2="156.054" gradientUnits="userSpaceOnUse">
<stop stop-color="#E0797B" stop-opacity="0.54"/>
<stop offset="1" stop-color="#FAEAE9" stop-opacity="0.67"/>
</linearGradient>
<linearGradient id="paint13_linear_622_1591" x1="173.334" y1="143.988" x2="173.334" y2="150.02" gradientUnits="userSpaceOnUse">
<stop stop-color="#E0797B" stop-opacity="0.54"/>
<stop offset="1" stop-color="#FAEAE9" stop-opacity="0.67"/>
</linearGradient>
<linearGradient id="paint14_linear_622_1591" x1="184.926" y1="151.291" x2="184.926" y2="163.672" gradientUnits="userSpaceOnUse">
<stop stop-color="#E0797B" stop-opacity="0.54"/>
<stop offset="1" stop-color="#FAEAE9" stop-opacity="0.67"/>
</linearGradient>
<linearGradient id="paint15_linear_622_1591" x1="200.002" y1="127.164" x2="182.858" y2="139.545" gradientUnits="userSpaceOnUse">
<stop offset="0.0208333" stop-color="#946228" stop-opacity="0"/>
<stop offset="0.484375" stop-color="#946228"/>
<stop offset="1" stop-color="#946228" stop-opacity="0"/>
</linearGradient>
<linearGradient id="paint16_linear_622_1591" x1="191.145" y1="104.936" x2="191.145" y2="103.031" gradientUnits="userSpaceOnUse">
<stop stop-color="white"/>
<stop offset="1" stop-opacity="0.99"/>
</linearGradient>
<linearGradient id="paint17_linear_622_1591" x1="176.549" y1="105.257" x2="176.549" y2="102.082" gradientUnits="userSpaceOnUse">
<stop stop-color="white"/>
<stop offset="1"/>
</linearGradient>
<linearGradient id="paint18_linear_622_1591" x1="202.871" y1="93.5088" x2="208.586" y2="103.033" gradientUnits="userSpaceOnUse">
<stop stop-color="#242121"/>
<stop offset="0.402542" stop-color="#9A9087"/>
<stop offset="1" stop-color="#242121"/>
</linearGradient>
<linearGradient id="paint19_linear_622_1591" x1="183.257" y1="90.4944" x2="193.17" y2="89.3671" gradientUnits="userSpaceOnUse">
<stop stop-color="#242121"/>
<stop offset="0.402542" stop-color="#9A9087"/>
<stop offset="1" stop-color="#242121"/>
</linearGradient>
<linearGradient id="paint20_linear_622_1591" x1="171.751" y1="98.449" x2="175.981" y2="93.1282" gradientUnits="userSpaceOnUse">
<stop stop-color="#242121"/>
<stop offset="0.402542" stop-color="#9A9087"/>
<stop offset="1" stop-color="#242121"/>
</linearGradient>
<linearGradient id="paint21_linear_622_1591" x1="193.592" y1="92.5145" x2="199.711" y2="91.5843" gradientUnits="userSpaceOnUse">
<stop stop-color="#242121"/>
<stop offset="0.402542" stop-color="#9A9087"/>
<stop offset="1" stop-color="#242121"/>
</linearGradient>
<linearGradient id="paint22_linear_622_1591" x1="177.866" y1="92.3053" x2="179.616" y2="86.3677" gradientUnits="userSpaceOnUse">
<stop stop-color="#242121"/>
<stop offset="0.402542" stop-color="#9A9087"/>
<stop offset="1" stop-color="#242121"/>
</linearGradient>
<linearGradient id="paint23_linear_622_1591" x1="176.597" y1="94.2096" x2="178.347" y2="88.272" gradientUnits="userSpaceOnUse">
<stop stop-color="#242121"/>
<stop offset="0.402542" stop-color="#9A9087"/>
<stop offset="1" stop-color="#242121"/>
</linearGradient>
<linearGradient id="paint24_linear_622_1591" x1="208.846" y1="113.589" x2="215.782" y2="122.265" gradientUnits="userSpaceOnUse">
<stop stop-color="#242121"/>
<stop offset="0.402542" stop-color="#9A9087"/>
<stop offset="1" stop-color="#242121"/>
</linearGradient>
<linearGradient id="paint25_linear_622_1591" x1="204.417" y1="107.876" x2="211.352" y2="116.552" gradientUnits="userSpaceOnUse">
<stop stop-color="#242121"/>
<stop offset="0.402542" stop-color="#9A9087"/>
<stop offset="1" stop-color="#242121"/>
</linearGradient>
<linearGradient id="paint26_linear_622_1591" x1="192.996" y1="90.0212" x2="203.989" y2="91.6091" gradientUnits="userSpaceOnUse">
<stop stop-color="#242121"/>
<stop offset="0.402542" stop-color="#9A9087"/>
<stop offset="1" stop-color="#242121"/>
</linearGradient>
<linearGradient id="paint27_linear_622_1591" x1="198.494" y1="95.9326" x2="207.75" y2="95.3779" gradientUnits="userSpaceOnUse">
<stop stop-color="#242121"/>
<stop offset="0.402542" stop-color="#9A9087"/>
<stop offset="1" stop-color="#242121"/>
</linearGradient>
<linearGradient id="paint28_linear_622_1591" x1="208.657" y1="108.529" x2="217.913" y2="107.974" gradientUnits="userSpaceOnUse">
<stop stop-color="#242121"/>
<stop offset="0.402542" stop-color="#9A9087"/>
<stop offset="1" stop-color="#242121"/>
</linearGradient>
<linearGradient id="paint29_linear_622_1591" x1="371.105" y1="194.617" x2="380.538" y2="169.232" gradientUnits="userSpaceOnUse">
<stop stop-color="#22365F"/>
<stop offset="1" stop-color="#1E325A"/>
</linearGradient>
<linearGradient id="paint30_linear_622_1591" x1="358.626" y1="133.444" x2="376.242" y2="145.096" gradientUnits="userSpaceOnUse">
<stop stop-color="#FAD3BA"/>
<stop offset="1" stop-color="#F8C8A9"/>
</linearGradient>
<linearGradient id="paint31_linear_622_1591" x1="331.012" y1="130.705" x2="333.509" y2="133.341" gradientUnits="userSpaceOnUse">
<stop stop-color="#EDB9AE"/>
<stop offset="0.960435" stop-color="#F8D9C5"/>
</linearGradient>
<linearGradient id="paint32_linear_622_1591" x1="329.637" y1="125.573" x2="334.353" y2="131.954" gradientUnits="userSpaceOnUse">
<stop stop-color="#EFBFB2"/>
<stop offset="1" stop-color="#F8D9C5"/>
</linearGradient>
<linearGradient id="paint33_linear_622_1591" x1="369.556" y1="128.203" x2="366.728" y2="126.16" gradientUnits="userSpaceOnUse">
<stop stop-color="#F5CBB0"/>
<stop offset="0.722351" stop-color="#FAD3BA"/>
</linearGradient>
<linearGradient id="paint34_linear_622_1591" x1="552.791" y1="165.66" x2="543.415" y2="164.321" gradientUnits="userSpaceOnUse">
<stop stop-color="#966E52"/>
<stop offset="1" stop-color="#B58665"/>
</linearGradient>
<linearGradient id="paint35_linear_622_1591" x1="521.691" y1="160.04" x2="532.675" y2="164.862" gradientUnits="userSpaceOnUse">
<stop offset="0.03125" stop-color="#CF7C65" stop-opacity="0.42"/>
<stop offset="0.505208" stop-color="#CF7C65"/>
<stop offset="1" stop-color="#CF7C65" stop-opacity="0"/>
</linearGradient>
<clipPath id="clip0_622_1591">
<rect width="163.716" height="271.943" fill="white" transform="translate(277.475)"/>
</clipPath>
</defs>
</svg>
