<svg width="174" height="269" viewBox="0 0 174 269" fill="none" xmlns="http://www.w3.org/2000/svg">
<rect x="72.1836" y="196.39" width="43.0828" height="68.9099" rx="5.6502" transform="rotate(-14.5229 72.1836 196.39)" fill="black"/>
<rect x="79.9863" y="201.078" width="14.8318" height="14.1255" rx="2.8251" transform="rotate(-14.7892 79.9863 201.078)" fill="#FFF9F9"/>
<ellipse cx="93.513" cy="204.915" rx="2.47196" ry="2.11882" transform="rotate(-14.7892 93.513 204.915)" fill="#423C3C"/>
<ellipse cx="86.9485" cy="209.466" rx="2.47196" ry="2.11882" transform="rotate(-14.7892 86.9485 209.466)" fill="#423C3C"/>
<ellipse cx="85.5071" cy="204.003" rx="2.47196" ry="2.11882" transform="rotate(-14.7892 85.5071 204.003)" fill="#423C3C"/>
<path d="M11.472 149.668C32.128 137.351 18.7567 145.408 43.7381 143.662C19.2772 157.296 48.3635 150.781 40.6779 182.998L38.2082 209.132L34.3271 236.24H53.3508L62.8266 233.239L69.7819 221.515C77.0098 212.378 88.107 200.19 90.3292 200.951C92.5513 201.713 92.9136 207.542 90.3292 213.391C87.7448 219.241 80.8885 218.469 80.8885 218.469C80.4439 219.969 82.9341 219.838 86.9972 219.738C102.094 209.837 101.781 211.28 118.928 203.998C122.536 203.236 124.757 202.982 123.926 205.775C112.818 215.168 113.374 213.391 99.491 221.515C95.86 225.209 95.8813 223.8 99.491 223.8C112.581 217.152 113.097 214.915 126.702 209.075C131.833 208.702 131.7 210.345 130.312 213.391C114.485 223.039 116.824 224.502 101.157 231.163C116.984 226.339 116.985 224.816 130.312 218.469C134.521 217.457 134.921 218.898 135.588 221.515C130.893 229.565 119.741 232.106 103.934 238.525C107.821 239.541 139.475 227.101 125.592 236.24C119.154 239.846 112.279 242.171 102.822 245.888C89.9289 250.621 82.5146 251.201 69.7819 251.219C63.7173 255.955 11.0097 279.108 5.30729 262.71C2.31491 254.104 3.02949 226.632 3.36296 200.951C1.47623 174.04 5.97755 155.642 11.472 149.668Z" fill="#EFC1AB"/>
<path d="M38.0539 81.4457C36.1672 42.5842 47.3882 25.6433 75.4383 18.6277C96.473 16.294 124.521 32.4614 129.204 67.4225C133.888 102.384 129.194 128.474 91.7986 133.148C65.0886 131.654 45.281 137.475 38.0539 81.4457Z" fill="#EFC1AB"/>
<path d="M125.954 55.66C116.581 30.8717 105.427 23.6739 76.1414 18.6567C50.6609 26.4794 45.1791 34.1498 39.8497 52.8136C36.4162 105.366 44.8309 111.171 54.7934 126.109L59.063 148.168C68.3521 161.031 71.6121 167.371 71.8718 175.921C70.4452 190.207 69.8591 198.896 64.7558 201.538C56.2215 197.528 51.6507 194.93 48.3889 180.902L39.8497 195.134C27.6019 203.617 23.1785 201.79 17.0784 193.711L25.6177 187.306C20.5058 183.726 17.7197 184.859 12.8088 188.736C14.0873 185.255 14.1029 183.362 20.6365 179.479C24.8277 178.826 25.8965 174.553 25.6177 160.265C20.9469 159.528 17.7731 160.745 10.674 166.67L18.5017 156.707C11.3472 156.774 7.30357 159.166 0 166.67C2.65626 159.926 4.21171 156.134 18.5017 150.303C21.8426 144.887 24.9347 143.588 31.3105 142.475C28.489 128.478 20.211 125.623 22.7713 110.459C12.4052 99.9202 17.3717 87.7073 22.7713 74.8793C19.295 54.2443 17.7901 30.0544 41.9845 17.2395C50.3265 5.63102 56.6796 2.80369 71.8718 7.27103C83.847 -4.07362 90.7767 -0.248201 103.182 8.69424C134.087 26.7667 136.379 37.2152 140.897 58.5124C157.428 82.4616 159.19 99.7069 156.552 136.783L157.976 150.303C165.07 152.163 168.675 154.167 173.631 161.689C170.189 174.037 166.596 177.598 157.976 179.479V170.939C144.281 187.154 136.516 189.926 122.396 180.902C119.492 185.415 119.567 187.741 122.396 192.288C115.908 191.171 114.216 184.488 111.722 170.939C114.214 155.056 115.556 145.956 116.703 125.397C136.182 103.805 131.323 86.0858 125.954 55.66Z" fill="black"/>
<path d="M30.8535 87.7559C32.114 81.7228 35.714 81.8814 40.1043 83.4567C41.5275 96.2656 42.2391 101.979 46.5088 112.662C44.4962 116.351 43.1623 117.201 40.1043 114.797C39.2209 112.463 38.9417 110.368 38.6811 104.834C34.5597 99.1628 32.3071 95.9318 30.8535 87.7559Z" fill="#FBB796"/>
<path d="M139.477 86.9765C138.216 80.9434 134.616 81.8406 130.226 83.4159C130.937 95.5131 130.226 101.449 125.956 112.132C127.969 115.821 129.303 116.67 132.361 114.267C133.244 111.933 133.523 109.838 133.784 104.304C137.905 98.6327 138.023 95.1523 139.477 86.9765Z" fill="#FBB796"/>
<path d="M111.921 46.9377C103.019 46.693 97.5252 50.4757 88.9524 54.9297C95.3675 44.234 101.763 41.1598 113.146 41.4322C118.127 42.1455 120.401 46.012 121.762 52.1558C118.628 49.2691 116.123 47.7256 111.921 46.9377Z" fill="#1B1B1B"/>
<path d="M52.0909 58.1038C60.1065 54.222 66.6693 55.4129 76.3151 55.9503C66.0712 48.8359 58.9769 48.6619 48.7121 53.5879C44.4642 56.2853 43.9805 60.7445 45.2643 66.905C46.9349 62.9855 48.5842 60.5488 52.0909 58.1038Z" fill="#1B1B1B"/>
<path d="M101.142 103.238C96.4686 112.115 79.661 112.004 75.4328 107.912C75.4328 107.912 73.0966 105.116 84.7816 103.238C91.6681 102.124 101.143 102.766 101.142 103.238Z" fill="#BE4366"/>
<path d="M60.7561 62.2514C64.7098 61.4265 71.2125 60.8783 76.8487 66.7375L63.0333 71.0548L55.6942 72.3501L49.2176 71.9183C51.9613 67.784 55.5345 63.3407 60.7561 62.2514Z" fill="#F6D5C5"/>
<path d="M91.7952 95.7943C89.2248 95.1913 88.0531 95.3053 87.1208 98.1315C85.2453 95.8678 84.2385 95.7212 82.4599 95.7937C82.4512 95.7941 82.4424 95.797 82.4352 95.8019C76.2755 99.9856 73.8105 102.329 73.1091 107.396C73.1041 107.433 73.1415 107.461 73.1749 107.446C78.5932 105.032 81.6388 103.251 87.1208 102.806C94.5754 102.247 97.623 102.505 103.315 102.797C103.362 102.8 103.384 102.739 103.345 102.712C98.2652 99.187 94.6176 96.1175 91.7952 95.7943Z" fill="#BE4366"/>
<path d="M71.8691 86.9766C73.8619 80.9181 75.2737 77.8847 78.9852 74.1677L81.8316 73.4561L87.5244 72.7445C91.1625 75.6364 93.1797 77.857 96.7752 82.7069C97.0854 87.4699 95.6593 89.4569 87.5244 90.5346C85.2268 91.5901 83.6471 91.5427 80.4084 90.5346C76.3887 91.0626 73.7949 92.3188 71.8691 86.9766Z" fill="#F0B496"/>
<path d="M81.1218 84.8418L76.1406 86.9766L76.8522 89.1114L81.8334 86.9766L81.1218 84.8418Z" fill="#F4D2C3"/>
<path d="M87.5263 85.5534L88.2379 83.4186L93.2191 84.8418L92.5075 86.9766L87.5263 85.5534Z" fill="#F4D2C3"/>
<ellipse cx="84.6798" cy="79.8607" rx="4.26961" ry="3.55801" fill="#F4C8B2"/>
<path d="M69.5406 71.2551C69.5406 73.2201 66.5244 76.2363 64.5593 76.2363C62.5943 76.2363 59.5781 73.9317 59.5781 71.9667C60.4416 71.8625 62.3622 70.9991 64.3272 70.9991C66.9177 70.5673 69.5406 69.29 69.5406 71.2551Z" fill="#242121"/>
<circle cx="42.698" cy="116.864" r="4.98121" fill="#FFD949"/>
<circle cx="130.936" cy="112.594" r="4.98121" fill="#FFD949"/>
<path d="M48.3407 71.4478C49.6495 75.7648 78.4817 70.2051 77.8032 66.0919C77.2996 63.6462 74.69 67.1693 71.6682 68.0328C68.6464 68.8962 63.4648 71.0549 56.9887 71.4867C51.8079 72.7819 51.3761 70.6232 48.3407 71.4478Z" fill="#1B1B1B"/>
<path d="M103.944 53.8058C107.897 52.981 114.4 52.4327 120.036 58.2919L106.221 62.6093L98.8817 63.9045L92.4051 63.4728C95.1488 59.3385 98.722 54.8951 103.944 53.8058Z" fill="#F6D5C5"/>
<path d="M112.73 62.8095C112.73 64.7745 109.714 67.7907 107.749 67.7907C105.784 67.7907 102.768 65.4861 102.768 63.5211C103.631 63.417 105.552 62.5535 107.517 62.5535C110.107 62.1217 112.73 60.8445 112.73 62.8095Z" fill="#242121"/>
<path d="M91.5301 63.0022C92.839 67.3193 121.671 61.7595 120.993 57.6464C120.489 55.2006 117.879 58.7238 114.858 59.5872C111.836 60.4507 106.654 62.6094 100.178 63.0411C94.9973 64.3363 94.5656 62.1777 91.5301 63.0022Z" fill="#1B1B1B"/>
</svg>
