<svg width="416" height="273" viewBox="0 0 416 273" fill="none" xmlns="http://www.w3.org/2000/svg">
<path d="M34.1784 190.718C28.3734 165.82 33.6277 153.546 50.9314 145.701C64.2529 141.711 84.2906 148.852 91.4432 170.898C98.5958 192.944 98.6401 210.363 75.0195 217.797C57.5779 219.982 45.4611 226.082 34.1784 190.718Z" fill="#EFC1AB"/>
<path d="M87.9543 163.678C78.9712 148.761 70.9118 145.424 51.3896 145.637C35.8421 153.7 33.2037 159.305 31.961 171.998C35.9425 206.373 42.0667 209.132 50.269 217.612L55.6318 231.368C63.154 238.587 66.0093 242.3 67.186 247.796C67.9495 257.199 68.596 262.885 65.609 265.195C59.6193 263.61 56.3581 262.469 52.5945 253.786L48.754 263.994C41.838 270.922 38.7632 270.263 33.8668 265.761L38.6308 260.613C34.904 258.902 33.2367 259.963 30.5199 263.048C30.9356 260.648 30.7223 259.422 34.4874 256.141C37.1196 255.225 37.3063 252.337 35.4402 243.134C32.3339 243.208 30.4261 244.37 26.5363 249.037L30.4205 241.674C25.8037 242.561 23.4722 244.584 19.6366 250.297C20.5579 245.624 21.1158 242.989 29.6649 237.534C31.1854 233.639 33.0308 232.434 37.0209 230.963C33.5455 222.248 27.8577 221.379 27.7234 211.275C19.7793 205.686 21.5485 197.205 23.5252 188.276C18.8433 175.348 15.0162 159.889 29.1434 148.751C33.1659 140.263 36.939 137.686 47.2863 138.781C53.6884 130.035 58.6192 131.69 67.6933 136.006C89.8027 144.042 92.5168 150.525 97.9504 163.759C111.462 177.289 114.636 188.228 117.305 212.505L119.821 221.077C124.626 221.442 127.193 222.312 131.284 226.589C130.516 234.977 128.613 237.703 123.263 239.936L122.256 234.416C115.316 246.513 110.624 249.221 100.432 245.054C99.0876 248.314 99.4106 249.809 101.776 252.414C97.4504 252.457 95.568 248.338 92.3571 239.874C92.094 229.312 91.8878 223.272 90.2032 209.847C100.247 193.592 95.0154 182.712 87.9543 163.678Z" fill="black"/>
<path d="M30.2692 195.646C30.3721 191.597 32.7178 191.275 35.7416 191.775C38.1729 199.887 39.3071 203.496 43.3275 209.898C42.4619 212.52 41.6998 213.227 39.4396 212.034C38.5932 210.63 38.1655 209.308 37.3441 205.762C34.0108 202.582 32.1735 200.759 30.2692 195.646Z" fill="#FBB796"/>
<path d="M100.39 182.325C98.863 178.574 96.6418 179.579 93.9898 181.115C95.8771 188.851 96.1176 192.772 94.6182 200.181C96.3544 202.328 97.3169 202.72 99.0099 200.805C99.3057 199.193 99.2389 197.806 98.7544 194.198C100.749 190.045 100.415 187.782 100.39 182.325Z" fill="#FBB796"/>
<path d="M77.8543 159.696C72.0707 160.588 68.9661 163.681 63.9502 167.572C66.8348 159.901 70.6065 157.159 77.9962 155.992C81.3002 155.866 83.226 158.097 84.8309 161.907C82.4646 160.411 80.6633 159.709 77.8543 159.696Z" fill="#1B1B1B"/>
<path d="M40.497 173.973C45.2202 170.518 49.6029 170.514 55.9014 169.723C48.4403 166.333 43.834 167.057 37.7801 171.453C35.3525 173.698 35.566 176.637 37.1228 180.468C37.7402 177.737 38.5188 175.967 40.497 173.973Z" fill="#1B1B1B"/>
<path d="M77.9217 199.93C76.1485 207.319 66.5259 210.17 61.8037 206.418C61.8037 206.418 60.3473 206.449 67.6377 203.623C71.9335 201.953 77.8562 199.567 77.9217 199.93Z" fill="#BE4366"/>
<path d="M67.7247 172.526L85.7003 167.135L85.6644 167.201C84.2855 169.758 82.6482 172.793 79.4044 173.994C76.9268 174.912 71.9138 175.036 67.7247 172.526Z" fill="#F6D5C5"/>
<path d="M56.9359 175.926L39.4397 182.743L39.5111 182.777C42.2571 184.084 45.5174 185.635 48.8245 184.6C51.3504 183.81 55.326 180.731 56.9359 175.926Z" fill="#F6D5C5"/>
<path d="M70.6111 193.651C68.8785 193.565 68.1346 193.777 67.8654 195.713C66.386 194.472 65.7179 194.496 64.5767 194.752C64.5712 194.754 64.5658 194.756 64.5618 194.761C61.0738 198.192 59.7569 199.997 59.9014 203.356C59.9025 203.38 59.93 203.393 59.9498 203.38C63.1675 201.18 64.9259 199.669 68.4169 198.735C73.1697 197.494 75.17 197.301 78.8841 196.819C78.9148 196.815 78.9215 196.773 78.8934 196.76C75.1937 195.081 72.4737 193.527 70.6111 193.651Z" fill="#BE4366"/>
<path d="M56.6891 190.302C57.2623 186.151 57.817 184.024 59.7775 181.183L61.5334 180.387L65.1293 179.256C67.8222 180.696 69.3881 181.893 72.2845 184.604C73.047 187.646 72.3596 189.099 67.2284 190.755C65.8678 191.709 64.8411 191.864 62.6286 191.595C60.0927 192.41 58.5642 193.528 56.6891 190.302Z" fill="#F0B496"/>
<path d="M62.4171 187.831L59.4491 189.799L60.161 191.095L63.129 189.127L62.4171 187.831Z" fill="#F4D2C3"/>
<path d="M66.6409 187.535L66.8489 186.071L70.2367 186.404L70.0286 187.867L66.6409 187.535Z" fill="#F4D2C3"/>
<ellipse cx="64.1309" cy="184.191" rx="2.80548" ry="2.3379" transform="rotate(-10.3449 64.1309 184.191)" fill="#F4C8B2"/>
<path d="M83.9279 167.946C84.1598 169.216 82.566 171.522 81.2958 171.753C80.0256 171.985 77.804 170.851 77.5722 169.581C77.3403 168.311 79.102 166.925 80.3722 166.694C81.6424 166.462 83.696 166.676 83.9279 167.946Z" fill="#242121"/>
<path d="M49.4175 179.636C50.0239 180.776 52.4563 181.701 53.5962 181.095C54.7361 180.488 56.0228 178.114 55.4164 176.974C54.81 175.834 52.5687 175.841 51.4287 176.447C50.2888 177.054 48.8111 178.496 49.4175 179.636Z" fill="#242121"/>
<path d="M85.6544 167.179C85.2655 167.296 66.8839 173.039 66.8839 173.039C66.4432 171.569 68.0885 170.233 69.0793 168.961C70.0701 167.689 75.6099 163.177 79.6163 164.214C83.6227 165.251 83.7496 165.849 83.7496 165.849C83.7496 165.849 86.0434 167.063 85.6544 167.179Z" fill="#1B1B1B"/>
<path d="M39.5024 182.748C39.8797 182.598 57.8583 175.695 57.8583 175.695C57.2914 174.269 55.1723 174.243 53.6058 173.86C52.0393 173.477 44.8952 173.377 42.3972 176.676C39.8992 179.976 40.1708 180.523 40.1708 180.523C40.1708 180.523 39.1251 182.898 39.5024 182.748Z" fill="#1B1B1B"/>
<circle cx="41.3584" cy="213.064" r="3.27306" transform="rotate(-10.3449 41.3584 213.064)" fill="#FFD949"/>
<circle cx="97.8935" cy="199.892" r="3.27306" transform="rotate(-10.3449 97.8935 199.892)" fill="#FFD949"/>
<path d="M401.418 64.0937C398.743 65.8989 394.981 78.915 394.981 78.915L395.202 91.8384C397.707 95.0443 399.163 96.5641 402.336 96.0755C407.566 95.5112 402.11 87.1544 405.776 82.7189C409.442 78.2833 404.094 62.2885 401.418 64.0937Z" fill="#F3D3BD"/>
<path d="M326.145 78.488C329.177 79.5946 335.967 91.3195 335.967 91.3195L338.869 103.915C337.21 107.63 336.164 109.456 332.967 109.747C327.755 110.461 331.034 101.035 326.407 97.6144C321.78 94.1936 323.113 77.3813 326.145 78.488Z" fill="#F3D3BD"/>
<path d="M369.176 28.8005L351.443 37.5884L339.921 36.9701C327.698 37.1514 327.686 44.0137 328.784 56.1314C329.928 76.1944 330.969 104.22 334.633 106.066C344.276 122.006 355.937 128.76 366.315 129.321C375.706 131.432 384.644 121.983 390.839 114.505C397.685 107.251 399.778 89.4374 396.384 71.851C389.591 61.6929 384.848 56.1478 383.552 45.1046C380.696 36.6384 378.783 32.1301 369.176 28.8005Z" fill="#ECBB99"/>
<path d="M355.872 99.572C354.602 91.7169 356.16 86.949 358.303 78.5471C361.996 86.2666 364.16 90.5326 370.087 96.7099C368.709 97.2101 368.275 97.7846 366.026 97.5276L364.052 96.8734L362.277 98.2825C360.066 99.7565 358.788 100.451 355.872 99.572Z" fill="#BE9173"/>
<path d="M382.9 70.9867L367.575 74.2876C369.713 75.7024 372.526 76.5453 375.418 76.1231C377.608 75.8034 381 74.6748 382.9 70.9867Z" fill="#F6EBEB"/>
<path d="M336.347 80.1923L351.598 76.561C350.279 78.7594 348.104 80.7332 345.313 81.5995C343.2 82.2555 339.653 82.7001 336.347 80.1923Z" fill="#F6EBEB"/>
<path d="M369.899 72.6353C370.236 73.5395 372.317 74.3997 373.335 74.0559C374.354 73.7121 375.522 72.124 375.185 71.2198C374.848 70.3156 373.011 70.1103 371.993 70.4541C370.974 70.7979 369.562 71.7311 369.899 72.6353Z" fill="#242121"/>
<path d="M343.058 77.7806C343.144 78.7418 341.637 80.4153 340.57 80.5443C339.503 80.6734 337.765 79.7443 337.679 78.7831C337.593 77.8219 339.161 76.8446 340.229 76.7155C341.296 76.5865 342.972 76.8195 343.058 77.7806Z" fill="#242121"/>
<path d="M367.625 74.3021C367.955 74.2259 383.645 70.7822 383.645 70.7822C383.381 69.6688 381.649 69.4502 380.419 69.0187C379.19 68.5871 373.896 68.5132 371.265 70.3617C368.634 72.2103 368.484 72.7109 368.484 72.7109C368.484 72.7109 367.295 74.3782 367.625 74.3021Z" fill="#1B1B1B"/>
<path d="M351.548 76.5815C351.218 76.6551 335.576 80.315 335.576 80.315C335.335 79.1963 336.803 78.2523 337.726 77.3327C338.649 76.4131 343.394 74.0631 346.565 74.5962C349.736 75.1293 350.087 75.5163 350.087 75.5163C350.087 75.5163 351.879 76.5078 351.548 76.5815Z" fill="#1B1B1B"/>
<path d="M357.554 66.4145C355.122 67.4649 353.894 68.283 352.145 70.4924L354.298 78.9236C355.303 75.2397 355.613 73.037 359.869 71.1155C363.293 71.949 363.753 73.379 364.764 75.8034L364.452 68.4703C362.355 67.0719 361.467 66.0002 357.554 66.4145Z" fill="black" stroke="black" stroke-width="0.198639"/>
<path d="M375.902 104.758C370.903 104.088 370.217 102.198 365.576 105.065L360.993 104.035C360.977 104.031 360.959 104.032 360.943 104.036C357.937 104.924 356.403 106.029 354.581 110.962C354.555 111.033 354.615 111.107 354.689 111.096C359.091 110.419 361.33 108.355 365.684 108.364C371.137 107.37 371.631 108.182 375.949 104.939C376.021 104.886 375.991 104.77 375.902 104.758Z" fill="#634645"/>
<path d="M367.468 114.464C366.773 114.604 360.696 113.869 355.897 112.399C355.8 112.369 355.728 112.49 355.796 112.565C361.34 118.622 364.347 119.489 369.457 118.131C377.363 113.114 374.893 111.861 376.503 107.71C376.541 107.613 376.427 107.52 376.346 107.586C374.807 108.85 368.098 114.337 367.468 114.464Z" fill="#634645"/>
<path d="M321.323 52.7718C315.305 71.3477 322.755 76.9851 330.668 87.3625L330.14 55.0491C328.443 43.7003 330.182 40.12 336.944 37.5198C344.986 39.6288 350.675 44.5297 358.123 42.8296C364.755 39.1896 365.521 33.2077 369.549 29.1317C378.967 36.6577 383.016 42.1745 383.718 50.6952C388.492 62.8418 390.309 66.6151 394.654 73.0615L397.612 78.1903C396.67 73.615 400.594 71.8657 401.402 64.5604C399.691 53.2525 397.637 46.5239 393.321 35.7431C388.022 29.6596 386.677 26.5131 377.352 23.103C373.152 17.0839 368.663 11.4642 359.886 12.0814C341.955 12.1835 331.887 14.9003 322.96 30.7109C319.732 38.1074 318.755 45.9973 321.323 52.7718Z" fill="black"/>
<path d="M332.823 79.2929C332.441 77.446 332.61 75.4537 333.008 72.7271C336.529 70.9237 339.331 70.1504 342.149 69.8863C344.882 69.6302 347.653 69.8479 351.204 70.1269C351.364 70.1395 351.526 70.1522 351.689 70.165C353.217 73.4766 353.985 75.8942 353.943 78.1064C353.902 80.2769 353.076 82.3877 351.093 85.0641C347.605 86.7216 345.122 87.4497 342.919 87.4285C340.742 87.4075 338.708 86.6528 336.118 85.064C334.125 82.8724 333.197 81.1047 332.823 79.2929ZM351.094 85.064C351.094 85.0638 351.095 85.0635 351.095 85.0631C351.095 85.0634 351.094 85.0637 351.094 85.0639C351.095 85.0631 351.095 85.0632 351.094 85.0638C351.093 85.0645 351.093 85.0646 351.093 85.0643C351.092 85.0654 351.092 85.0665 351.091 85.0676L351.094 85.064ZM336.115 85.0627C336.116 85.0634 336.117 85.0638 336.118 85.0641C336.118 85.0644 336.118 85.065 336.119 85.066C336.119 85.0654 336.118 85.0649 336.118 85.0643C336.118 85.0642 336.118 85.0642 336.118 85.0641C336.117 85.064 336.117 85.0639 336.117 85.0639C336.117 85.0635 336.116 85.0631 336.115 85.0627Z" stroke="black" stroke-width="1.98639"/>
<path d="M385.537 69.1801C385.175 67.3293 384.248 65.5575 382.825 63.1977C378.881 62.8973 375.998 63.2687 373.297 64.1157C370.679 64.937 368.208 66.2099 365.041 67.8416C364.898 67.9152 364.754 67.9894 364.609 68.0644C364.482 71.7092 364.709 74.2357 365.603 76.2594C366.481 78.2449 368.06 79.8715 370.924 81.5721C374.782 81.7504 377.353 81.4611 379.377 80.5888C381.376 79.7269 382.959 78.2442 384.733 75.7766C385.722 72.9846 385.893 70.9957 385.537 69.1801ZM370.924 81.5721C370.923 81.5721 370.922 81.572 370.922 81.572C370.922 81.572 370.923 81.5721 370.923 81.5721C370.922 81.5716 370.922 81.5717 370.923 81.572C370.924 81.5723 370.925 81.5723 370.924 81.5722C370.925 81.5729 370.926 81.5736 370.928 81.5743L370.924 81.5721ZM384.734 75.7745C384.734 75.7756 384.733 75.7763 384.733 75.7766C384.733 75.7771 384.732 75.7779 384.732 75.7791C384.732 75.7784 384.732 75.7776 384.733 75.7769C384.733 75.7769 384.733 75.7768 384.733 75.7766C384.733 75.7765 384.733 75.7764 384.733 75.7763C384.733 75.7757 384.734 75.7751 384.734 75.7745Z" stroke="black" stroke-width="1.98639"/>
<path d="M377.612 55.8101C372.109 56.7633 369.16 59.5361 364.393 63.0584C367.126 56.3338 370.711 53.8441 377.741 52.6029C380.885 52.3896 382.721 54.2587 384.254 57.5041C382 56.2844 380.285 55.7336 377.612 55.8101Z" fill="#1B1B1B"/>
<path d="M345 62.3692C339.604 63.3037 336.719 66.0651 332.053 69.5695C334.712 62.8579 338.222 60.3815 345.117 59.1643C348.201 58.9615 350.009 60.8356 351.524 64.0841C349.308 62.8577 347.623 62.3016 345 62.3692Z" fill="#1B1B1B"/>
<rect x="357.27" y="97.9561" width="3.65792" height="1.20054" transform="rotate(-24.4236 357.27 97.9561)" fill="#FDE6D7"/>
<rect x="364.793" y="94.83" width="3.08007" height="1.20054" transform="rotate(2.07719 364.793 94.83)" fill="#FDE6D7"/>
<path d="M152.762 131.659C156.458 133.612 158.088 145.352 158.088 145.352L159.285 160.904C156.386 164.96 150.93 169.205 146.736 168.875C139.851 168.622 148.379 156.145 143.089 151.111C137.799 146.077 149.065 129.707 152.762 131.659Z" fill="#F3D3BD"/>
<path d="M245.012 129.681C241.315 131.633 239.685 143.374 239.685 143.374L238.488 158.925C241.387 162.982 246.844 167.227 251.038 166.897C257.922 166.644 249.395 154.166 254.685 149.133C259.975 144.099 248.709 127.729 245.012 129.681Z" fill="#F3D3BD"/>
<path d="M219.349 89.6217L194.521 96.868L179.766 93.7436C153.79 90.006 147.11 170.63 157.897 178.184C166.889 199.889 180.487 210.637 193.777 213.455C205.453 217.991 219.059 208.126 228.691 200.139C255.805 180.434 247.941 104.513 219.349 89.6217Z" fill="#ECBB99"/>
<path d="M177.367 152.44C174.568 153.18 170.011 152.84 166.393 145.48L176.172 139.753L186.355 142.797C184.224 147.571 181.064 151.463 177.367 152.44Z" fill="#F6EBEB"/>
<path d="M180.877 145.155C180.777 147.371 178.235 150.593 176.68 150.477C175.125 150.361 172.856 147.585 172.956 145.369C173.057 143.154 175.526 141.536 177.081 141.652C178.636 141.768 180.978 142.94 180.877 145.155Z" fill="#242121"/>
<path d="M184.673 140.265C184.673 140.265 186.672 143.193 186.25 143.236C186.043 143.257 181.144 141.892 176.193 142.49C171.029 143.114 165.807 145.701 165.807 145.701C165.743 143.069 167.747 141.477 169.076 139.736C170.404 137.994 176.735 134.442 180.528 136.848C184.321 139.254 184.673 140.265 184.673 140.265Z" fill="#1B1B1B"/>
<path d="M219.217 151.407C216.418 152.161 211.861 151.81 208.237 144.286L218.012 138.44L228.198 141.558C226.07 146.435 222.913 150.41 219.217 151.407Z" fill="#F6EBEB"/>
<path d="M222.722 143.964C222.623 146.228 220.084 149.519 218.528 149.399C216.973 149.28 214.702 146.441 214.801 144.177C214.9 141.913 217.368 140.262 218.923 140.381C220.478 140.501 222.821 141.7 222.722 143.964Z" fill="#242121"/>
<path d="M226.514 138.969C226.514 138.969 228.516 141.963 228.094 142.006C227.887 142.027 222.987 140.629 218.037 141.236C212.872 141.87 207.653 144.511 207.653 144.511C207.587 141.821 209.59 140.195 210.916 138.416C212.243 136.638 218.572 133.012 222.367 135.474C226.162 137.935 226.514 138.969 226.514 138.969Z" fill="#1B1B1B"/>
<path d="M208.477 184.915C203.318 182.932 202.913 180.335 197.542 182.999L193.084 180.443C193.059 180.428 193.029 180.423 193.001 180.427C189.693 180.903 187.715 182.199 184.968 188.164C184.929 188.248 184.989 188.347 185.081 188.349C189.821 188.455 192.524 186.297 197.104 187.282C203.017 187.218 203.398 188.379 208.5 185.152C208.591 185.094 208.577 184.954 208.477 184.915Z" fill="#7B6160"/>
<path d="M197.103 190.312C195.743 190.312 191.215 190.312 185.416 188.898C185.306 188.872 185.218 188.992 185.271 189.091C190.098 198.238 190.867 197.849 196.507 197.236C205.705 193.847 204.664 191.773 207.217 186.689C207.272 186.579 207.164 186.454 207.052 186.504C205.416 187.224 198.325 190.312 197.104 190.312L197.103 190.312Z" fill="#7B6160"/>
<path d="M223.688 130.577C215.775 131.458 211.401 131.103 203.887 132.754C209.247 126.887 214.788 125.105 224.8 125.011C229.197 125.289 231.295 127.313 232.652 130.577C230.118 130.577 227.402 130.911 223.688 130.577Z" fill="#1B1B1B"/>
<path d="M184.064 128.963C175.119 129.962 170.196 130.778 162.566 134.309C168.065 126.202 173.764 123.752 184.071 123.656C188.598 124.055 190.765 126.865 192.173 131.39C189.255 129.329 187.889 129.438 184.064 128.963Z" fill="#1B1B1B"/>
<path d="M206.892 163.183C206.892 165.634 205.906 168.06 204.018 170.107C203.453 171.812 202.299 173.159 199.968 173.628C198.454 174.696 197.133 175.391 196.506 175.548C195.797 175.725 194.136 174.959 192.296 173.628C189.946 173.833 188.649 172.559 188.417 170.107C186.558 167.995 185.625 165.525 185.625 163.183C185.625 157.174 191.316 158.237 196.506 158.237C201.696 158.237 206.892 157.174 206.892 163.183Z" fill="#CB9C7D" fill-opacity="0.93"/>
<rect x="191.043" y="169.045" width="2.96744" height="0.989148" transform="rotate(28.4369 191.043 169.045)" fill="#FDE6D7"/>
<rect width="2.96744" height="0.989148" transform="matrix(-0.879342 0.47619 0.47619 0.879342 200.105 169.045)" fill="#FDE6D7"/>
<path d="M221.73 205.149C202.471 221.158 187.605 214.546 172.768 201.193C181.073 203.51 188.594 209.6 192.056 209.6C195.518 209.6 194.529 201.193 196.507 201.193C198.485 201.193 199.969 209.6 199.969 209.6C199.969 209.6 211.344 211.084 221.73 205.149Z" fill="#66462E"/>
<path d="M175.879 96.3093C167.897 119.093 164.462 125.382 154.435 133.861C144.443 135.235 143.896 130.016 147.454 115.374C137.931 97.3003 141.239 92.2829 156.43 88.799C155.679 77.0278 157.562 70.5805 167.897 73.2009C172.814 48.0913 184.855 71.4675 193.829 58.1802C202.803 44.8929 212.281 70.3123 215.774 66.8455C219.268 63.3787 228.174 60.3224 230.735 66.8455C247.631 67.5656 245.259 72.9776 244.2 81.2886C257.038 83.6635 255.884 90.6982 254.672 102.664C261.37 113.588 259.424 118.093 252.677 125.195C249.54 136.428 247.031 138.472 240.709 130.973L235.722 125.195C231.533 118.5 230.179 114.425 229.239 106.708C220.551 107.814 216.228 106.331 208.793 102.664C204.952 102.664 201.096 103.796 198.967 96.3093C189.601 103.71 184.401 97.7642 175.879 96.3093Z" fill="#66462E"/>
<path d="M102.275 45.2466L74.7246 52.0397L94.7266 85.628L102.275 81.0992V45.2466Z" fill="#FFA629"/>
<path d="M292.234 13.5091L264.681 6.7299L266.795 45.7655L275.583 45.2604L292.234 13.5091Z" fill="#FFA629"/>
<path d="M111.513 91.1701C111.173 95.3248 105.896 98.2836 101.118 97.8926C96.3398 97.5016 93.8706 93.9089 94.2106 89.7542C97.1513 86.2083 99.0628 85.986 104.982 83.0625C109.76 83.4535 111.853 87.0154 111.513 91.1701Z" fill="#FFA629"/>
<path d="M279.087 58.4696C276.857 61.9911 270.809 62.1604 266.759 59.5951C262.709 57.0298 262.191 52.7013 264.422 49.1798C268.673 47.4053 270.469 48.0962 277.069 48.2562C281.119 50.8215 281.318 54.948 279.087 58.4696Z" fill="#FFA629"/>
</svg>
