<svg width="187" height="290" viewBox="0 0 187 290" fill="none" xmlns="http://www.w3.org/2000/svg">
<path d="M33.3421 129.613L41.7834 95.3577L130.509 85.0283L145.017 153.489C132.137 168.158 120.052 176.87 93.0643 200.728L56.6004 274.711L14.1565 249.766L41.7834 181.467L33.3421 129.613Z" fill="url(#paint0_linear_622_2094)"/>
<path d="M162.602 53.2944C164.054 52.6394 165.778 52.7827 166.952 53.86C170.033 56.6879 171.343 59.8282 171.964 65.3143C172.172 67.1479 171.115 68.8738 169.433 69.6325L157.59 74.9741C156.129 75.6327 154.407 75.4713 153.186 74.4336C149.119 70.9752 147.683 67.8448 147.795 62.4844C147.828 60.8889 148.846 59.4985 150.301 58.8423L162.602 53.2944Z" fill="#EFC1AB"/>
<rect x="84.0996" y="9.91351" width="82.121" height="146.148" rx="13.5708" transform="rotate(10.1441 84.0996 9.91351)" fill="#423C3C" stroke="black" stroke-width="4.87158"/>
<rect x="134.852" y="28.5388" width="18.7904" height="4.17564" rx="1.39188" transform="rotate(10.1441 134.852 28.5388)" fill="white"/>
<rect x="93.0625" y="21.0618" width="18.7904" height="4.17564" rx="1.39188" transform="rotate(10.1441 93.0625 21.0618)" fill="white"/>
<rect x="43.1252" y="25.9885" width="106.152" height="89.0304" rx="11.5568" transform="rotate(10.1441 43.1252 25.9885)" fill="#FFF8F8" stroke="black" stroke-width="0.856061"/>
<path d="M47.6235 32.4458C48.7893 25.9302 55.0163 21.5934 61.5319 22.7592L137.373 36.3288C143.889 37.4946 148.225 43.7216 147.06 50.2371L144.044 67.0907L139.514 67.551C138.406 67.6636 137.288 67.6212 136.192 67.425L44.3065 50.9848L47.6235 32.4458Z" fill="#E43D3D"/>
<path d="M41.7251 31.3905C42.8909 24.8749 49.1179 20.5381 55.6334 21.7039L131.475 35.2735C137.99 36.4393 142.327 42.6663 141.161 49.1818L137.844 67.7208L38.4081 49.9295L41.7251 31.3905Z" fill="#FF4242"/>
<path opacity="0.4" d="M127.202 122.344L137.875 67.5523C138.554 67.7103 140.458 67.4706 143.157 67.193L133.251 122.557C131.007 127.808 126.158 130.363 121.481 130.017C124.713 127.45 126.127 125.839 127.202 122.344Z" fill="#F0D9D9"/>
<ellipse cx="69.2354" cy="25.8769" rx="2.99621" ry="6.84849" transform="rotate(10.1441 69.2354 25.8769)" fill="black"/>
<ellipse cx="121.181" cy="36.9104" rx="2.99621" ry="6.84849" transform="rotate(10.1441 121.181 36.9104)" fill="black"/>
<rect x="48.457" y="56.9454" width="23.1137" height="19.6894" rx="6.84849" transform="rotate(10.1441 48.457 56.9454)" fill="#FAEAE9"/>
<rect x="77.8555" y="82.2074" width="23.1137" height="19.6894" rx="6.84849" transform="rotate(10.1441 77.8555 82.2074)" fill="#FAEAE9"/>
<rect x="42.4277" y="90.6527" width="23.1137" height="19.6894" rx="6.84849" transform="rotate(10.1441 42.4277 90.6527)" fill="#FF6E6E"/>
<rect x="108.289" y="67.6504" width="23.1137" height="19.6894" rx="6.84849" transform="rotate(10.1441 108.289 67.6504)" fill="#FAEAE9"/>
<path d="M162.097 79.0814C164.325 78.0765 166.945 79.068 167.95 81.296L171.589 89.3642C172.594 91.5922 171.603 94.2129 169.375 95.2178L157.325 100.653C155.913 101.29 154.251 101.161 153.036 100.2C148.679 96.7525 147.226 93.591 147.541 88.0188C147.627 86.4782 148.63 85.1554 150.036 84.521L162.097 79.0814Z" fill="#EFC1AB"/>
<path d="M158.001 105.921C160.229 104.916 162.85 105.908 163.855 108.136L167.494 116.204C168.499 118.432 167.507 121.053 165.279 122.058L154.674 126.841C153.213 127.5 151.491 127.339 150.27 126.301C146.203 122.842 144.767 119.712 144.879 114.352C144.912 112.756 145.93 111.366 147.385 110.71L158.001 105.921Z" fill="#EFC1AB"/>
<path d="M152.857 134.459C154.258 133.827 155.907 134.45 156.539 135.852L159.856 143.205C160.488 144.607 159.864 146.255 158.463 146.887L145.288 152.829C144.476 153.196 143.53 153.158 142.777 152.682C138.48 149.962 137.302 147.418 138.127 142.372C138.27 141.497 138.868 140.769 139.676 140.404L152.857 134.459Z" fill="#EFC1AB"/>
<path d="M162.048 93.853C162.618 93.1864 159.264 86.7789 158.76 86.5482C158.255 86.3174 151.235 89.0903 150.085 89.5915C148.934 90.0926 150.419 95.2588 154.278 97.7652L162.048 93.853Z" fill="#423C3C"/>
<path d="M159.003 120.177C159.573 119.511 156.219 113.103 155.715 112.872C155.21 112.642 148.19 115.414 147.04 115.916C145.889 116.417 147.374 121.583 151.233 124.089L159.003 120.177Z" fill="#423C3C"/>
<path d="M150.5 146.402C150.965 145.858 148.23 140.634 147.819 140.446C147.408 140.258 141.684 142.519 140.746 142.927C139.808 143.336 141.019 147.548 144.165 149.592L150.5 146.402Z" fill="#423C3C"/>
<defs>
<linearGradient id="paint0_linear_622_2094" x1="55.8217" y1="203.519" x2="33.1366" y2="249.303" gradientUnits="userSpaceOnUse">
<stop stop-color="#EFC1AB"/>
<stop offset="1" stop-color="#EFC1AB" stop-opacity="0"/>
</linearGradient>
</defs>
</svg>
