<svg width="23" height="16" viewBox="0 0 23 16" fill="none" xmlns="http://www.w3.org/2000/svg">
<path d="M1.09164 2.60121C8.82811 0.842407 13.506 0.981383 22.3703 2.76073M1.09164 2.60121L1.01264 13.1394C1.00607 14.0159 1.7113 14.7318 2.58782 14.7384L20.6923 14.8741C21.5689 14.8807 22.2848 14.1754 22.2913 13.2989L22.3703 2.76073M1.09164 2.60121L10.1083 8.56418C10.6012 8.89013 11.2344 8.91528 11.7515 8.62945L22.3703 2.76073" stroke="white" stroke-width="0.756037"/>
<path d="M14.6648 5.12386C13.6072 5.18611 12.7909 5.77733 12.371 7.08374C11.4206 5.92055 10.7979 5.45255 9.69713 5.10555C8.59639 4.75855 6.60893 5.2091 7.06754 7.32941C7.72692 8.89265 9.3383 9.77738 12.2668 11.3557C14.4416 9.78581 16.2107 8.30764 16.7598 7.25584C17.3089 6.20411 16.1142 5.10172 14.6648 5.12386Z" fill="#F16762"/>
</svg>
