<svg width="631" height="316" viewBox="0 0 631 316" fill="none" xmlns="http://www.w3.org/2000/svg">
<g clip-path="url(#clip0_322_87)">
<rect width="631" height="316" fill="#64DBBE"/>
<path d="M135.105 288.371L139.539 141.866L144.743 144.072L145.832 288.371H135.105Z" fill="#EDA7D1" stroke="white" stroke-width="1.05072"/>
<path d="M178.614 160.38L105.199 124.883L106.006 47.4338L119.721 42.5933L192.329 90.1921V157.153L178.614 160.38Z" fill="white" stroke="white" stroke-width="1.09598"/>
<g clip-path="url(#clip1_322_87)">
<path d="M120.525 120.848L121.332 46.626L190.714 91.135V155.539L120.525 120.848Z" fill="#64DBBE" stroke="#FDC008" stroke-width="1.12913"/>
</g>
<path d="M119.156 121.335L105.34 124.924" stroke="#EDEDED" stroke-width="0.179432"/>
<path d="M174.513 104.875C173.23 103.748 171.716 103.45 170.067 104.473C169.937 104.554 169.975 104.756 170.135 104.842C171.555 105.608 172.838 106.13 174.074 106.379L174.513 104.875Z" stroke="#0F0303" stroke-width="0.230697"/>
<path d="M157.472 110.298C160.157 110.172 162.296 110.32 164.997 112.387C167.042 112.35 167.46 112.902 167.359 114.308C163.731 113.674 162.014 112.59 157.472 110.298Z" fill="#FF96D5"/>
<path d="M162.79 116.451C159.678 115.061 158.603 113.539 157.242 110.206C159.599 112.581 160.675 113.659 163.293 114.731C165.079 115.096 165.817 115.204 167.298 114.509C166.176 116.455 165.347 117.174 162.79 116.451Z" fill="#FA79C6"/>
<path d="M166.926 102.282C168.042 105.675 167.629 107.707 167.513 110.276C167.513 110.276 167.134 111.139 165.862 110.708C164.589 110.278 164.03 109.583 164.03 109.583C162.046 109.141 160.579 108.637 161.993 106.548" stroke="#0F0303" stroke-width="0.230697"/>
<path d="M157.233 98.9262C157.082 98.8916 156.956 98.4471 156.899 98.328C157.071 98.2942 157.444 98.5459 157.607 98.5169C160.905 97.9282 162.26 98.0863 162.877 101.797C161.803 97.4267 158.348 99.1814 157.233 98.9262Z" fill="#0F0303"/>
<path d="M157.376 98.8746C160.439 98.4332 161.852 98.7523 162.844 101.597C162.901 101.76 162.765 101.888 162.596 101.834C160.44 101.144 159.262 100.47 157.376 98.8746Z" stroke="#0F0303" stroke-width="0.230697"/>
<path d="M161.122 101.277C160.843 100.446 160.933 100.064 161.738 99.6047C162.139 100.443 163.084 101.091 162.734 101.853L161.122 101.277Z" fill="#0F0303"/>
<path d="M164.977 99.395C165.332 98.8979 165.562 98.6631 164.595 98.0929C164.595 98.0929 159.742 95.5607 158.553 95.2796C157.364 94.9985 154.709 96.2536 154.709 96.2536L158.513 96.2872L164.977 99.395Z" fill="#0F0303"/>
<path d="M160.846 88.1186C158.199 89.3547 156.101 89.8214 152.542 89.2973C151.325 95.3581 149.77 98.2801 146.671 103.514C145.442 108.047 144 109.603 144.531 114.94C145.031 119.274 147.482 124.007 148.168 125.238C148.854 126.468 143.077 119.13 141.404 114.378L142.011 116.935C146.452 140.902 140.325 114.333 139.229 112.317L143.012 130.66C140.174 126.291 132.427 112.879 134.318 101.039C136.095 91.3407 139.373 87.2395 146.127 80.3219C153.105 74.8661 159.742 75.5432 166.613 81.2014C174.383 81.572 178.161 88.088 179.536 91.3403C180.91 94.5925 183.934 106.34 173.129 121.215C173.693 122.655 174.287 122.916 175.439 123.203C175.439 123.203 173.429 124.214 171.182 123.627L173.486 124.14C172.192 124.907 171.201 124.935 169.03 124.36L171.303 124.979C168.6 125.831 165.855 125.216 164.139 122.977C163.779 121.127 164.297 120.204 166.35 118.723C166.35 118.723 170.117 116.357 171.973 112.739C173.83 109.121 179.479 95.0624 166.948 87.8262C163.234 88.6006 161.136 88.6194 159.675 93.6167C158.663 99.3089 157.407 105.796 155.829 106.776C154.251 107.755 151.069 108.752 151.069 108.752C153.984 107.31 155.885 106.194 156.975 101.363C157.861 95.6516 158.071 93.2769 160.846 88.1186Z" stroke="#0F0303" stroke-width="0.630278"/>
<path d="M165.512 84.1029C157.353 79.6362 152.821 79.7316 147.131 84.0339C140.795 90.9324 139.147 88.9895 135.92 102.639C136.223 109.448 138.564 121.665 140.24 123.72" stroke="#BF9F6A" stroke-width="0.47463"/>
<path d="M164.242 120.604C162.929 121.181 162.519 121.278 160.355 120.421C153.29 117.626 147.51 111.37 146.668 103.514" stroke="#0F0303" stroke-width="0.230697"/>
<path d="M171.718 101.369C171.718 101.369 170.155 101.497 170.208 101.748C170.262 101.999 172.147 102.41 173.063 102.856C173.633 103.133 174.502 103.585 174.502 103.585L174.679 102.978C174.007 102.235 172.538 101.606 171.718 101.369Z" fill="#0F0303"/>
<path d="M151.796 84.3527C157.453 81.5572 158.473 81.9938 164.815 85.1692C159.01 82.3389 154.301 80.9519 148.431 88.424C139.693 97.1604 139.452 104.307 141.772 111.644L142.336 114.077L141.842 113.173C140.645 110.7 140.193 109.102 139.902 102.769C142.898 90.0797 150.01 85.6393 151.796 84.3527Z" fill="#0F0303"/>
<path d="M153.026 86.3146C157.565 83.1016 160.413 83.8954 165.099 86.3569C160.805 84.1771 155.632 82.4594 150.633 90.1866C143.598 99.7013 143.156 107.02 144.478 113.856L146.318 116.693L144.747 115.109C143.824 113.917 142.935 111.69 143.113 105.631C146.229 93.1577 151.568 87.7172 153.026 86.3146Z" fill="#BF9F6A"/>
<path d="M175.715 95.097C174.107 89.5548 171.531 87.8564 166.648 85.7934C171.08 87.7319 175.912 90.6415 175.35 99.3992C175.316 110.862 171.568 115.839 166.767 119.147L162.589 119.001L165.867 119.733C167.223 119.691 169.13 118.968 172.374 114.993C176.993 104.685 176.026 97.1122 175.715 95.097Z" fill="#BF9F6A"/>
<path d="M169.97 104.492C171.905 103.066 173.178 104.079 174.5 104.924L174.619 104.519C173.1 102.881 171.871 102.585 169.97 104.492Z" fill="#0F0303"/>
<path d="M172.624 105.997C172.42 105.159 172.427 104.518 173.184 104.081L174.528 104.849L174.084 106.367L172.624 105.997Z" fill="#0F0303"/>
<path d="M166.821 114.417C163.819 113.815 162.183 112.887 159.417 111.476C160.251 112.972 161.293 113.607 163.243 114.48C164.999 114.931 165.842 114.525 166.821 114.417Z" fill="#E1C77A"/>
<path d="M165.936 81.3315C173.568 81.7506 177.313 88.0736 178.68 91.2255C180.047 94.3774 184.348 103.946 173.818 118.228C174.679 117.458 189.925 87.545 165.936 81.3315Z" stroke="#0F0303" stroke-width="0.230697"/>
<path d="M165.327 83.294C189.316 89.5076 173.002 118.455 172.142 119.225L173.307 120.913L171.475 119.237C179.618 107.268 181.438 89.1759 165.327 83.294Z" fill="#BF9F6A" stroke="#BF9F6A" stroke-width="0.230697"/>
<path d="M166.742 81.3635C158.67 76.9699 154.884 78.0254 149.304 82.1267C143.104 88.7295 141.792 89.7699 138.702 102.924C138.233 107.053 138.504 109.04 140.17 111.041" stroke="#0F0303" stroke-width="0.461394"/>
<path d="M123.176 314.882C121.595 313.696 120.215 311.025 119.401 307.762C118.635 304.692 118.386 301.166 118.91 298.014L129.917 307.097C129.283 309.685 128.326 312.216 127.147 313.811C126.542 314.629 125.905 315.165 125.258 315.366C124.633 315.561 123.945 315.459 123.176 314.882Z" fill="#47484A" stroke="white" stroke-width="0.648407"/>
<path d="M124.307 266.127C114.454 266.11 105.964 267.747 103.251 269.404C102.317 269.692 101.397 274.752 101.229 277.701L92.1657 276.446C89.4988 276.413 88.0928 276.525 87.2155 279.165C87.2155 279.165 86.7262 291.436 87.2155 289.554C87.7048 287.672 87.4932 281.466 90.2123 283.628C92.3193 289.961 92.9474 291.994 94.8849 294.713L115.383 305.59C113.518 300.182 112.142 296.806 117.265 298.687C127.248 303.596 129.208 308.507 135.463 315.629L143.411 318H149.245L182.664 302.113C185.799 299.681 185.142 292.046 184.097 286.956L182.664 282.985C174.852 281.119 169.26 279.355 161.399 278.538L155.263 271.635C151.404 268.655 151.282 266.78 124.307 266.127Z" fill="#5DB6D6" stroke="white" stroke-width="0.278885"/>
<path d="M108.76 279.584C108.76 279.584 110.784 269.896 111.13 269.753C111.477 269.611 114.314 269.611 116.907 270.908C119.501 272.204 120.474 281.201 120.474 281.201L116.907 281.444C115.286 281.444 113.827 281.201 112.525 280.839L108.76 279.584Z" fill="#69D8FF" stroke="white" stroke-width="0.278885"/>
<path d="M104.264 278.445L107.019 269.449C107.019 269.449 104.314 269.354 103.129 269.773C101.944 270.192 101.672 274.648 101.184 277.716L104.264 278.445Z" fill="#69D8FF" stroke="white" stroke-width="0.278885"/>
<path d="M103.047 269.773C104.101 269.125 111.269 268.986 115.731 270.242C119.078 271.183 119.465 276.174 120.473 281.202C125.093 282.823 126.633 283.552 132.144 282.823L161.323 278.77" stroke="white" stroke-width="0.278885"/>
<path d="M150.943 295.271C150.943 295.271 150.594 300.709 151.849 303.289C153.104 305.869 169.238 298.278 179.389 292.831C179.764 289.828 179.902 288.1 178.901 284.255C172.515 279.809 169.356 279.904 161.162 278.608" stroke="white" stroke-width="0.278885"/>
<path d="M182.879 288.091C178.827 288.01 178.832 282.614 182.879 282.823C184.256 283.352 185.347 284.606 185.554 285.254C185.76 285.903 186.04 287.037 182.879 288.091Z" fill="#F0A29F"/>
<path d="M131.822 284.443L149.548 288.658C147.387 289.285 146.829 289.205 146.481 291.227C146.132 293.249 147.064 295.538 149.548 295.201" stroke="white" stroke-width="0.278885"/>
<path d="M149.324 295.223C145.11 295.223 145.708 288.299 149.755 288.508C151.133 289.037 152.242 289.954 152.485 291.656C152.728 293.359 151.181 294.702 149.324 295.223Z" fill="#F0A29F"/>
<path d="M129.815 271.218C139.578 269.962 144.666 270.103 154.497 270.87L160.433 277.473L131.984 280.958C125.045 281.092 120.379 280.472 121.772 277.473C123.165 274.474 126.819 271.705 129.815 271.218Z" fill="#69D8FF" stroke="white" stroke-width="0.278885"/>
<path d="M104.752 278.527L107.508 269.773C108.707 269.663 109.231 269.699 110.426 269.936L108.237 279.337L104.752 278.527Z" fill="#B2EBFB"/>
<path d="M100.534 280.877C99.642 280.148 100.858 277.716 100.858 277.716L92.9958 276.744C88.2138 276.014 87.8896 277.149 87.1602 280.877L128.415 295.467C128.819 292.125 127.686 289.363 124.443 288.172C115.559 284.907 101.425 281.607 100.534 280.877Z" fill="#B2EBFB"/>
<path d="M134.172 297.087L146.573 300.167" stroke="white" stroke-width="0.324204"/>
<path d="M91.7513 294.652C90.5035 296.656 89.4246 292.509 90.0776 283.736L92.8668 284.376L92.8668 290.189L91.7513 294.652Z" fill="#47484A" stroke="white" stroke-width="0.278885"/>
<g clip-path="url(#clip2_322_87)">
<path d="M74.423 210.508L-10.3496 202.996V287.983L74.423 284.12V210.508Z" fill="#CBB9D4" stroke="white" stroke-width="0.858457"/>
<path d="M43.7344 272.716V261.156H69.5731V276.455H66.5132L65.6633 275.606H60.0536L58.1836 278.325L55.8038 272.716H43.7344Z" fill="#488E75" stroke="white" stroke-width="0.679966"/>
<path d="M58.9683 159L74.6351 164.65V212.224L57.8952 208.954L54.8906 208.576L56.6075 159H58.9683Z" fill="#FDC008"/>
<path d="M58.9683 159L74.6351 164.65V212.224L57.8952 208.954M58.9683 159L57.8952 208.954M58.9683 159H56.6075L54.8906 208.576L57.8952 208.954" stroke="white" stroke-width="0.858457"/>
<path d="M68.0213 170.891C68.0119 170.973 68.0165 171.055 68.0351 171.134C68.0537 171.213 68.0758 171.293 68.1013 171.373C68.134 171.447 68.1631 171.525 68.1886 171.605C68.2142 171.685 68.2328 171.764 68.2444 171.843C68.2555 171.942 68.2524 172.051 68.2351 172.168C68.218 172.278 68.1905 172.386 68.1527 172.494C68.115 172.594 68.0671 172.687 68.009 172.771C67.9511 172.848 67.8835 172.902 67.806 172.935C67.7053 173.049 67.5846 173.132 67.4439 173.185C67.3032 173.238 67.1726 173.306 67.0519 173.389C66.9742 173.428 66.8865 173.453 66.7888 173.462C66.6981 173.472 66.6039 173.481 66.5062 173.49C66.4287 173.523 66.3373 173.557 66.2319 173.593C66.1266 173.622 66.018 173.651 65.9058 173.679C65.7939 173.7 65.6821 173.715 65.5706 173.722C65.4592 173.722 65.3621 173.714 65.279 173.697C65.0688 173.748 64.8629 173.772 64.6612 173.768C64.4662 173.772 64.2378 173.73 63.9759 173.642C63.7253 173.646 63.4933 173.607 63.2799 173.525C63.0735 173.443 62.8888 173.333 62.7258 173.194C62.5699 173.049 62.432 172.884 62.312 172.702C62.1991 172.512 62.1073 172.319 62.0364 172.121C61.9924 171.716 62.0166 171.358 62.109 171.047C62.2016 170.729 62.3281 170.443 62.4885 170.19C62.656 169.93 62.8436 169.697 63.0513 169.492C63.2592 169.279 63.46 169.072 63.6536 168.872C63.6948 168.891 63.7261 168.895 63.7473 168.883C63.7756 168.866 63.8006 168.844 63.8222 168.819C63.844 168.787 63.8657 168.758 63.8873 168.732C63.9158 168.708 63.9475 168.694 63.9824 168.691C64.0339 168.593 64.1055 168.524 64.197 168.487C64.2957 168.443 64.3742 168.375 64.4325 168.284C64.4953 168.278 64.5479 168.263 64.5903 168.241C64.6327 168.218 64.6717 168.191 64.7074 168.16C64.75 168.131 64.7925 168.104 64.8349 168.081C64.8775 168.052 64.9268 168.033 64.9827 168.026L64.986 167.911C65.1124 167.87 65.2043 167.818 65.2618 167.755C65.3264 167.686 65.4018 167.604 65.4881 167.51C65.5507 167.511 65.5993 167.513 65.634 167.517C65.6756 167.522 65.7347 167.523 65.8114 167.518C65.8697 167.427 65.9203 167.36 65.9633 167.316C66.0133 167.273 66.0841 167.229 66.1759 167.184C66.2579 167.237 66.3472 167.276 66.4439 167.301C66.5475 167.328 66.6363 167.385 66.7104 167.471C66.7153 167.542 66.7345 167.6 66.768 167.646C66.8016 167.685 66.8388 167.725 66.8794 167.765C66.9202 167.798 66.9574 167.834 66.9911 167.873C67.0317 167.913 67.058 167.966 67.0701 168.03C67.0976 168.04 67.1151 168.039 67.1224 168.026C67.1367 168.014 67.1576 168.013 67.1851 168.023C67.2031 168.124 67.2255 168.193 67.2522 168.231C67.2791 168.262 67.3052 168.325 67.3303 168.419C67.2936 168.485 67.2638 168.555 67.2408 168.629C67.2249 168.697 67.1818 168.745 67.1114 168.771C67.1031 168.819 67.1162 168.849 67.1506 168.86C67.1853 168.864 67.2056 168.884 67.2115 168.92C67.2167 168.984 67.205 169.028 67.1764 169.052C67.335 169.345 67.4758 169.653 67.5987 169.977C67.7218 170.293 67.8627 170.598 68.0213 170.891ZM66.6926 171.726C66.7225 171.653 66.759 171.594 66.802 171.55C66.8519 171.507 66.8818 171.437 66.8915 171.34C66.8584 171.28 66.8388 171.236 66.8327 171.207C66.8268 171.171 66.8248 171.118 66.8268 171.049C66.6805 170.813 66.5554 170.567 66.4514 170.309C66.3477 170.044 66.2296 169.794 66.0972 169.561C66.0825 169.587 66.0574 169.612 66.0219 169.636C65.9865 169.659 65.9485 169.648 65.9081 169.601C65.8927 169.655 65.8672 169.694 65.8317 169.718C65.7964 169.734 65.758 169.74 65.7164 169.735C65.675 169.723 65.6302 169.707 65.5821 169.687C65.5411 169.661 65.5037 169.632 65.4698 169.599C65.2641 169.735 65.0585 169.868 64.853 169.997C64.6475 170.126 64.4621 170.282 64.2968 170.465C64.2687 170.475 64.2511 170.48 64.2442 170.479C64.2375 170.471 64.2165 170.472 64.1815 170.482C64.1222 170.608 64.0493 170.721 63.9629 170.823C63.8836 170.918 63.8043 171.017 63.7248 171.12C63.6453 171.222 63.576 171.333 63.5169 171.451C63.4578 171.57 63.4224 171.713 63.4107 171.88C63.5258 171.992 63.6627 172.069 63.8216 172.109C63.9805 172.15 64.1433 172.173 64.3102 172.18C64.4839 172.187 64.6509 172.186 64.8112 172.178C64.9786 172.164 65.1317 172.165 65.2704 172.182C65.5636 172.148 65.8158 172.088 66.0271 172.002C66.2385 171.908 66.4603 171.817 66.6926 171.726ZM65.6878 177.271C65.9781 177.342 66.2364 177.433 66.4628 177.545C66.6892 177.657 66.8802 177.793 67.0356 177.952C67.1416 178.14 67.2402 178.341 67.3314 178.556C67.4296 178.771 67.4998 178.993 67.5419 179.223C67.5911 179.446 67.609 179.673 67.5954 179.902C67.5888 180.133 67.5336 180.361 67.4297 180.586C67.2214 180.813 66.9693 180.989 66.6734 181.113C66.3847 181.232 66.0726 181.32 65.7369 181.377C65.4013 181.434 65.0522 181.475 64.6896 181.501C64.334 181.527 63.9853 181.554 63.6435 181.582C63.6458 181.744 63.6409 181.915 63.6287 182.096C63.6237 182.27 63.6013 182.446 63.5614 182.623C63.5286 182.795 63.4787 182.96 63.4114 183.12C63.3442 183.28 63.2566 183.423 63.1486 183.55C63.0307 183.536 62.9089 183.535 62.7833 183.547C62.6575 183.567 62.5458 183.581 62.4481 183.59C62.4004 183.556 62.3561 183.523 62.3153 183.49C62.2812 183.465 62.2296 183.444 62.1605 183.429C62.1763 183.361 62.161 183.289 62.1145 183.213C62.0682 183.13 62.0218 183.047 61.9755 182.965C61.9292 182.882 61.8966 182.804 61.8778 182.732C61.8659 182.66 61.9025 182.598 61.9875 182.546C61.9404 182.491 61.9179 182.425 61.9201 182.348C61.9711 182.27 62.016 182.16 62.0549 182.018C62.1007 181.876 62.136 181.737 62.1608 181.6C62.1928 181.457 62.2035 181.325 62.1931 181.204C62.1826 181.084 62.1158 180.988 61.9926 180.917C61.9999 180.904 62.014 180.899 62.0348 180.901C62.0556 180.904 62.0765 180.903 62.0975 180.898C62.0432 180.85 62.0102 180.786 61.9986 180.707C61.9938 180.63 61.9715 180.56 61.9315 180.499C61.9463 180.466 61.9577 180.436 61.9654 180.409C61.9731 180.382 61.9977 180.374 62.0391 180.387C62.0219 180.258 62.0253 180.14 62.0493 180.03C62.0803 179.922 62.1214 179.822 62.1728 179.73C62.2243 179.631 62.2862 179.537 62.3583 179.448C62.4305 179.359 62.4991 179.269 62.5643 179.179C62.6131 179.178 62.6406 179.189 62.647 179.21C62.6602 179.233 62.6846 179.232 62.7201 179.209C62.8122 179.15 62.8767 179.084 62.9136 179.012C62.9505 178.939 62.9703 178.854 62.9731 178.756C63.0259 178.616 63.089 178.476 63.1626 178.338C63.2363 178.193 63.3166 178.063 63.4034 177.947C63.4903 177.832 63.5836 177.731 63.6835 177.645C63.7903 177.56 63.8999 177.5 64.0122 177.465C64.0975 177.405 64.2033 177.355 64.3297 177.315C64.4563 177.267 64.5928 177.238 64.7392 177.228C64.8859 177.211 65.032 177.212 65.1776 177.23C65.3303 177.241 65.4686 177.272 65.5924 177.323C65.6267 177.341 65.6442 177.336 65.645 177.308C65.6528 177.281 65.667 177.269 65.6878 177.271ZM65.1895 179.722C65.365 179.667 65.5505 179.63 65.7459 179.612C65.9483 179.588 66.1173 179.521 66.2526 179.411C66.1716 179.324 66.0522 179.243 65.8943 179.168C65.7366 179.085 65.5644 179.026 65.3776 178.989C65.1907 178.952 64.9996 178.946 64.804 178.971C64.6156 178.99 64.4502 179.053 64.3079 179.162C64.2627 179.283 64.2251 179.38 64.1952 179.453C64.1655 179.519 64.1248 179.602 64.0733 179.701C64.0861 179.737 64.1061 179.768 64.1333 179.792C64.1675 179.811 64.1911 179.838 64.204 179.875C64.3659 179.81 64.5266 179.785 64.6863 179.797C64.8531 179.804 65.0209 179.779 65.1895 179.722ZM67.2375 189.095C67.243 189.145 67.2419 189.183 67.2342 189.21C67.2336 189.231 67.2295 189.252 67.222 189.272C67.2214 189.293 67.2207 189.317 67.2199 189.345C67.2193 189.366 67.2252 189.402 67.2376 189.452C67.0852 189.672 66.9106 189.815 66.7139 189.882C66.5242 189.943 66.3179 189.981 66.0948 189.995C65.8719 190.003 65.642 190.013 65.405 190.026C65.175 190.04 64.9435 190.103 64.7107 190.214C64.6216 190.168 64.5384 190.158 64.4611 190.184C64.3907 190.21 64.2864 190.208 64.1482 190.177C64.1054 190.213 64.0524 190.239 63.9894 190.252C63.9266 190.258 63.8637 190.268 63.8007 190.281C63.8266 190.347 63.8351 190.415 63.8262 190.484C63.8244 190.547 63.8333 190.601 63.8529 190.645C64.095 190.696 64.362 190.725 64.6541 190.733C64.953 190.742 65.2448 190.76 65.5293 190.788C65.5352 190.824 65.531 190.848 65.5168 190.86C65.5027 190.865 65.4987 190.882 65.5048 190.911C65.5524 190.952 65.5996 191.003 65.6466 191.065C65.6937 191.12 65.7408 191.175 65.788 191.23C65.8351 191.284 65.8824 191.332 65.93 191.373C65.9846 191.408 66.0467 191.426 66.1163 191.428C66.1424 191.487 66.1579 191.552 66.1629 191.623C66.1749 191.687 66.1661 191.753 66.1363 191.819C66.0232 191.882 65.9099 191.949 65.7966 192.019C65.6834 192.082 65.5636 192.138 65.4369 192.185C65.3173 192.233 65.1875 192.27 65.0476 192.295C64.9148 192.314 64.7654 192.309 64.5991 192.282C64.5645 192.278 64.5367 192.274 64.5159 192.272C64.5021 192.27 64.4816 192.257 64.4544 192.233C64.398 192.261 64.3179 192.261 64.2143 192.235C64.1176 192.209 64.0411 192.21 63.9846 192.238C63.9093 192.194 63.8161 192.168 63.705 192.162C63.6009 192.149 63.5077 192.123 63.4253 192.085C63.3102 192.218 63.2051 192.363 63.1102 192.519C63.0152 192.676 62.9304 192.844 62.8556 193.024C63.0904 193.088 63.2841 193.126 63.4369 193.138C63.5965 193.15 63.7459 193.158 63.885 193.161C64.0243 193.157 64.1669 193.157 64.3129 193.161C64.4592 193.158 64.6431 193.174 64.8648 193.208C65.0057 193.148 65.17 193.119 65.3579 193.121C65.5528 193.117 65.7308 193.097 65.8919 193.061C65.9468 193.089 65.9942 193.133 66.0342 193.194C66.0744 193.248 66.1112 193.302 66.1444 193.355C66.1848 193.402 66.2253 193.445 66.2659 193.485C66.3065 193.525 66.3581 193.546 66.4207 193.546C66.4477 193.578 66.464 193.615 66.4697 193.657C66.4826 193.694 66.492 193.73 66.4979 193.766C66.5039 193.802 66.5134 193.835 66.5264 193.864C66.5466 193.888 66.5776 193.898 66.6194 193.897C66.5088 194.114 66.3823 194.277 66.2401 194.386C66.1049 194.489 65.9497 194.561 65.7746 194.602C65.5994 194.644 65.4039 194.669 65.1879 194.677C64.9789 194.687 64.7454 194.7 64.4874 194.717C64.4246 194.724 64.3727 194.714 64.3317 194.688C64.2905 194.669 64.2422 194.656 64.1867 194.649C64.0262 194.664 63.8346 194.672 63.612 194.673C63.3893 194.674 63.1636 194.656 62.935 194.621C62.7064 194.586 62.4888 194.528 62.2824 194.447C62.0758 194.372 61.9085 194.26 61.7806 194.112C61.7265 194.056 61.69 193.995 61.671 193.93C61.6591 193.858 61.6156 193.801 61.5403 193.756C61.536 193.665 61.525 193.562 61.5074 193.447C61.4898 193.333 61.4723 193.215 61.4549 193.094C61.4377 192.966 61.4239 192.841 61.4135 192.721C61.4099 192.601 61.42 192.494 61.4436 192.399C61.4674 192.297 61.5117 192.207 61.5765 192.131C61.6483 192.056 61.6752 191.968 61.6572 191.868C61.692 191.865 61.7133 191.85 61.7211 191.823C61.729 191.789 61.7571 191.779 61.8055 191.792C61.8507 191.671 61.8992 191.558 61.9509 191.452C62.0027 191.346 62.0543 191.244 62.1059 191.145C62.1643 191.047 62.2194 190.949 62.2709 190.85C62.3296 190.745 62.3851 190.629 62.4374 190.503C62.343 190.4 62.273 190.293 62.2274 190.183C62.1891 190.066 62.161 189.954 62.1432 189.846C62.1256 189.732 62.1114 189.618 62.1008 189.505C62.0903 189.384 62.0695 189.263 62.0382 189.14C62.1106 189.043 62.1962 188.97 62.2951 188.919C62.4011 188.862 62.5136 188.82 62.6327 188.792C62.7518 188.765 62.8811 188.746 63.0205 188.735C63.16 188.724 63.3065 188.71 63.4601 188.694C63.7401 188.637 63.9882 188.598 64.2046 188.575C64.4279 188.554 64.6439 188.542 64.8528 188.539C65.0687 188.531 65.2915 188.527 65.5211 188.527C65.7508 188.527 66.012 188.517 66.3048 188.497C66.3654 188.567 66.4235 188.606 66.4789 188.613C66.5085 188.553 66.5402 188.54 66.574 188.572C66.615 188.598 66.633 188.579 66.6279 188.516C66.6938 188.643 66.7776 188.755 66.8792 188.851C66.9879 188.942 67.1073 189.023 67.2375 189.095ZM63.1355 203.63C63.0727 203.637 63.0265 203.67 62.997 203.729C62.9676 203.781 62.9382 203.837 62.9087 203.897C62.886 203.957 62.8601 204.014 62.8307 204.066C62.8085 204.112 62.7732 204.133 62.7246 204.127C62.7161 204.182 62.6939 204.228 62.658 204.266C62.6291 204.304 62.6 204.346 62.5709 204.391C62.5419 204.43 62.5197 204.476 62.5043 204.53C62.489 204.578 62.4942 204.638 62.5199 204.711C62.4633 204.746 62.4269 204.801 62.4108 204.876C62.3947 204.952 62.3753 205.023 62.3525 205.09C62.3366 205.158 62.3072 205.214 62.2642 205.258C62.2212 205.302 62.1443 205.313 62.0335 205.293C62.0119 205.318 62.008 205.335 62.0216 205.344C62.0353 205.352 62.045 205.378 62.0507 205.421C61.9749 205.397 61.9158 205.394 61.8736 205.41C61.8381 205.433 61.7926 205.445 61.7369 205.445C61.6064 205.387 61.4975 205.3 61.4104 205.184C61.3302 205.07 61.2572 204.945 61.1915 204.811C61.1329 204.67 61.0778 204.53 61.0261 204.391C60.9814 204.252 60.9362 204.131 60.8904 204.027C60.9134 203.953 60.919 203.88 60.9071 203.809C60.8955 203.73 60.873 203.664 60.8397 203.611C61.2004 202.927 61.5936 202.197 62.0194 201.422C62.4453 200.648 62.85 199.881 63.2337 199.122C63.3913 199.205 63.5452 199.297 63.6954 199.4C63.8527 199.496 63.9922 199.604 64.114 199.725C64.2427 199.846 64.3502 199.981 64.4363 200.132C64.5226 200.276 64.5773 200.433 64.6002 200.604C64.5851 200.644 64.5673 200.66 64.5467 200.65C64.5332 200.635 64.5192 200.636 64.5048 200.656C64.5315 200.694 64.5447 200.72 64.5443 200.734C64.5508 200.749 64.5504 200.763 64.5431 200.776C64.5427 200.79 64.5421 200.811 64.5413 200.839C64.5407 200.86 64.5502 200.892 64.5698 200.937C64.5422 200.926 64.5213 200.927 64.5071 200.94C64.4997 200.953 64.4789 200.95 64.4446 200.932C64.4702 201.012 64.4753 201.076 64.46 201.123C64.4517 201.171 64.4365 201.215 64.4145 201.254C64.3927 201.287 64.3742 201.326 64.3589 201.373C64.3438 201.414 64.3457 201.47 64.3645 201.542C64.3437 201.54 64.3262 201.545 64.3119 201.557C64.3047 201.563 64.2975 201.573 64.2902 201.586C64.283 201.592 64.2723 201.601 64.2581 201.613C64.2509 201.62 64.2371 201.618 64.2165 201.608C64.2329 201.764 64.2354 201.919 64.224 202.072C64.2127 202.224 64.2012 202.381 64.1897 202.541C64.1853 202.694 64.184 202.859 64.186 203.034C64.1881 203.203 64.2073 203.38 64.2437 203.567C64.4976 203.451 64.7006 203.287 64.8528 203.074C65.012 202.862 65.1408 202.619 65.2391 202.344C65.3444 202.069 65.4261 201.771 65.484 201.449C65.542 201.126 65.6036 200.798 65.6689 200.462C65.7331 200.407 65.7839 200.336 65.8211 200.25C65.8584 200.163 65.8923 200.073 65.9229 199.978C65.9536 199.877 65.9843 199.779 66.0148 199.685C66.0456 199.583 66.0829 199.493 66.1269 199.415C66.2306 199.441 66.3162 199.487 66.384 199.551C66.4588 199.61 66.5266 199.674 66.5872 199.745C66.648 199.808 66.7122 199.872 66.78 199.936C66.8479 199.994 66.9337 200.036 67.0373 200.063C67.1171 200.192 67.1901 200.316 67.2562 200.436C67.3223 200.557 67.364 200.681 67.3812 200.809C67.3449 200.861 67.3154 200.92 67.2926 200.988C67.2767 201.056 67.2573 201.123 67.2345 201.191C67.2117 201.258 67.1821 201.321 67.1456 201.379C67.1093 201.431 67.0594 201.474 66.9958 201.508C66.9698 201.687 66.9372 201.851 66.8981 202.001C66.8662 202.144 66.8308 202.287 66.7919 202.429C66.7599 202.572 66.7313 202.723 66.7058 202.881C66.6806 203.032 66.6688 203.202 66.6703 203.392C66.6102 203.546 66.5464 203.71 66.4787 203.883C66.4111 204.057 66.3579 204.215 66.319 204.358C66.2054 204.435 66.1156 204.533 66.0496 204.651C65.9836 204.769 65.9141 204.886 65.8412 205.003C65.8126 205.028 65.7951 205.033 65.7886 205.018C65.782 205.003 65.7581 204.99 65.7167 204.978C65.7228 205.006 65.7222 205.027 65.7149 205.04C65.7075 205.054 65.6967 205.066 65.6825 205.079C65.6753 205.085 65.668 205.098 65.6605 205.118C65.6599 205.139 65.666 205.168 65.6788 205.204C65.5806 205.234 65.4922 205.283 65.4137 205.35C65.3352 205.418 65.25 205.477 65.1581 205.529C65.0731 205.582 64.9678 205.611 64.8424 205.617C64.7239 205.623 64.5686 205.579 64.3765 205.486C64.0982 205.241 63.852 204.969 63.638 204.67C63.4308 204.371 63.2633 204.025 63.1355 203.63Z" fill="black"/>
<path d="M70.7526 171.607L70.8431 171.129L71.5358 171.227L71.7168 170.271C71.7817 169.944 71.7702 169.899 71.555 169.666C71.3563 169.453 71.2458 169.286 71.2522 169.063C71.2641 168.651 71.7142 168.28 72.5386 168.397C72.8871 168.447 73.1962 168.529 73.4305 168.692L73.3351 169.191C73.0161 169.008 72.7875 168.945 72.541 168.91C72.2775 168.873 71.8426 168.863 71.8357 169.103C71.8331 169.193 71.8827 169.247 71.9821 169.352C72.1975 169.581 72.3004 169.712 72.3247 169.905L72.9537 169.994L72.8631 170.472L72.2809 170.39L72.1053 171.308L72.9127 171.423L72.8264 171.902L70.7526 171.607ZM71.6359 176.811C71.0835 176.733 70.7737 176.228 70.7915 175.606C70.8156 174.765 71.4171 174.027 72.1438 174.131C72.7047 174.21 73.0099 174.727 72.9918 175.358C72.969 176.156 72.3881 176.918 71.6359 176.811ZM71.7214 176.362C72.0911 176.415 72.3979 175.834 72.414 175.272C72.4247 174.898 72.3049 174.614 72.0626 174.58C71.7014 174.529 71.3905 175.105 71.374 175.68C71.3633 176.053 71.4791 176.328 71.7214 176.362ZM70.4617 181.602L70.5522 181.124L71.0324 181.192L71.1982 180.32C71.2937 179.816 71.188 179.633 70.9778 179.526L71.0777 179.019C71.4969 179.13 71.8209 179.439 71.823 179.961L73.0522 179.205L72.917 179.9L71.7627 180.426L71.6061 181.274L72.5028 181.401L72.4165 181.88L70.4617 181.602ZM70.7225 192.74C70.2593 192.674 70.2945 191.598 70.5657 190.025L71.1097 190.103C70.8809 191.384 70.7805 192.206 70.925 192.226C71.0568 192.245 71.2261 191.549 71.2956 191.206L71.3357 191.001L71.6969 191.052L71.6567 191.262C71.5764 191.681 71.5072 192.309 71.6262 192.326C71.7792 192.347 71.9773 191.54 72.2358 190.262L72.7798 190.34C72.4533 191.905 72.0952 192.935 71.6277 192.869C71.326 192.826 71.3132 192.229 71.3529 191.886C71.2622 192.222 71.0285 192.784 70.7225 192.74ZM71.0339 197.803C70.4815 197.724 70.1717 197.219 70.1895 196.597C70.2136 195.756 70.8151 195.019 71.5418 195.122C72.1027 195.202 72.4079 195.719 72.3898 196.349C72.3669 197.147 71.7861 197.909 71.0339 197.803ZM71.1193 197.354C71.4891 197.406 71.7959 196.825 71.812 196.263C71.8227 195.89 71.7028 195.606 71.4606 195.571C71.0994 195.52 70.7884 196.096 70.772 196.671C70.7612 197.044 70.8771 197.319 71.1193 197.354ZM69.8596 202.594L69.9502 202.116L70.4304 202.184L70.5962 201.311C70.6917 200.808 70.586 200.625 70.3758 200.517L70.4756 200.01C70.8949 200.122 71.2188 200.43 71.221 200.952L72.4502 200.196L72.315 200.892L71.1607 201.417L71.0041 202.265L71.9008 202.393L71.8145 202.871L69.8596 202.594ZM69.8735 207.614L70.502 204.3L71.0714 204.381L70.7399 206.122L70.9778 206.155L72.2895 205.204L72.1432 205.989L71.4214 206.46L72.0099 207.215L71.8593 208.004L70.8833 206.624L70.6496 206.591L70.443 207.695L69.8735 207.614Z" fill="white"/>
<path d="M49.7426 195.818L-19.1128 186.042L-21.0801 213.941L49.7426 220.38V195.818Z" fill="#FDC008" stroke="white" stroke-width="0.858457"/>
<path opacity="0.8" d="M14.4211 241.954L-10.3945 243.434L-10.3945 288.074L9.13538 287.001L14.4211 241.954Z" stroke="white" stroke-width="0.858457"/>
<circle cx="7.11776" cy="265.174" r="1.28768" fill="white"/>
</g>
<path d="M591.311 223.5C590.311 222.75 592.061 220 592.061 220L597.561 222C597.561 222 597.311 224 597.061 224.75C596.811 225.5 592.311 224.25 591.311 223.5Z" fill="#FFDD76"/>
<path d="M430 244.182L490.511 248.996L632.466 260.209" stroke="white" stroke-width="0.5"/>
<path d="M510.459 183.565C509.955 176.006 508.736 172.964 507.119 164.597L505.507 166.3L508.145 177.904C508.145 177.904 507.731 177.484 507.441 177.283C507.151 177.082 506.836 176.983 506.836 176.983C506.074 177 505.973 177.874 505.475 179.39C505.216 180.813 505.175 181.567 507.3 182.513C508.24 182.909 508.753 183.06 509.288 181.5L509.667 183.651L510.459 183.565Z" fill="#FFF8F8"/>
<path d="M499.63 183.346L500.589 183.242L499.396 174.537L498.615 165.521L496.85 163.454L497.798 177.766C496.703 176.571 496.451 177.115 495.887 177.774C494.926 179.585 494.984 181.327 496.14 181.865C497.297 182.404 498.51 183.107 499.308 181.521L499.63 183.346Z" fill="#FFF8F8"/>
<path d="M510.459 183.565C509.955 176.006 508.736 172.964 507.119 164.597L505.507 166.3L508.145 177.904C508.145 177.904 507.731 177.484 507.441 177.283C507.151 177.082 506.836 176.983 506.836 176.983C506.074 177 505.973 177.874 505.475 179.39C505.216 180.813 505.175 181.567 507.3 182.513C508.24 182.909 508.753 183.06 509.288 181.5L509.667 183.651L510.459 183.565Z" stroke="#13755D" stroke-width="0.430985"/>
<path d="M499.63 183.346L500.589 183.242L499.396 174.537L498.615 165.521L496.85 163.454L497.798 177.766C496.703 176.571 496.451 177.115 495.887 177.774C494.926 179.585 494.984 181.327 496.14 181.865C497.297 182.404 498.51 183.107 499.308 181.521L499.63 183.346Z" stroke="#13755D" stroke-width="0.430985"/>
<path d="M482.914 145.443L493.787 156.138L492.863 158.673L481.716 147.883C480.434 147.579 479.518 148.192 478.562 146.055C477.949 144.687 477.81 144.08 478.558 143.784C478.167 142.249 478.151 141.637 479.539 141.775C479.869 140.593 480.152 139.968 481.099 141.021C480.877 140.322 480.951 140.771 480.914 140.045C481.233 139.542 481.467 139.793 481.922 140.281L481.941 140.301C483.067 142.221 482.867 142.854 482.914 145.443Z" fill="#FFF8F8"/>
<path d="M516.298 145.352L509.065 155.924L509.413 160.017L518.112 147.969C518.112 147.969 520.135 147.417 520.529 147.028C520.924 146.638 521.355 146.14 520.733 144.728C520.781 144.091 520.59 143.767 519.815 143.253C519.816 142.278 519.549 142.059 518.811 141.992C517.939 141.157 517.589 141.427 517.029 142.243C516.103 142.627 516.01 143.395 516.298 145.352Z" fill="#FFF8F8"/>
<path d="M482.914 145.443L493.787 156.138L492.863 158.673L481.716 147.883C480.434 147.579 479.518 148.192 478.562 146.055C477.949 144.687 477.81 144.08 478.558 143.784C478.167 142.249 478.151 141.637 479.539 141.775C479.869 140.593 480.152 139.968 481.099 141.021C480.877 140.322 480.951 140.771 480.914 140.045C481.233 139.542 481.467 139.793 481.922 140.281L481.941 140.301C483.067 142.221 482.867 142.854 482.914 145.443Z" stroke="#13755D" stroke-width="0.430985"/>
<path d="M516.298 145.352L509.065 155.924L509.413 160.017L518.112 147.969C518.112 147.969 520.135 147.417 520.529 147.028C520.924 146.638 521.355 146.14 520.733 144.728C520.781 144.091 520.59 143.767 519.815 143.253C519.816 142.278 519.549 142.059 518.811 141.992C517.939 141.157 517.589 141.427 517.029 142.243C516.103 142.627 516.01 143.395 516.298 145.352Z" stroke="#13755D" stroke-width="0.430985"/>
<path d="M495.347 151.635C497.304 151.813 499.039 153.627 500.346 157.652C501.601 154.051 502.544 152.598 504.41 151.513C506.277 150.428 510.092 151.792 510.131 158.34C509.574 163.173 506.998 165.924 502.304 170.833C497.683 166.018 493.841 161.48 492.404 158.242C490.966 155.003 492.692 151.586 495.347 151.635Z" fill="#F16762"/>
<path d="M556.094 185.329V245.493L556.094 251.457" stroke="white" stroke-width="1.00946"/>
<path d="M575.059 184.513V252.977" stroke="white" stroke-width="1.00946"/>
<path d="M528.562 187.776V249.177" stroke="white" stroke-width="1.00946"/>
<path d="M600.351 179.823L596.068 183.494V254.243" stroke="white" stroke-width="1.00946"/>
<path d="M492.462 183.901V241.006V187.572L432.502 203.888L492.462 183.901ZM492.462 183.901H521.627L508.37 187.572M508.37 187.572L529.989 181.658H546.712L560.581 176.763H582.811L589.745 174.316L611.16 176.763L633.594 171.664L633.594 178L618.91 180.026H594.844L586.278 181.658H560.581L546.712 185.533H531.62L508.37 189.612V187.572ZM434.337 203.888V242.085" stroke="white" stroke-width="1.00946"/>
<path d="M492.461 187.776V246.391" stroke="white" stroke-width="1.00946"/>
<path d="M511.023 190.631V248.164" stroke="white" stroke-width="1.00946"/>
<path d="M488.791 190.835L483.488 192.467V200.217L488.791 198.789V190.835Z" stroke="white" stroke-width="1.00946"/>
<path d="M470.028 196.342L464.521 197.77V204.704L470.028 203.48V196.342Z" stroke="white" stroke-width="1.00946"/>
<path d="M455.546 200.421L449.836 201.744V208.171L455.546 207.036V200.421Z" stroke="white" stroke-width="1.00946"/>
<path d="M442.086 203.685L437.191 204.938V211.027L442.086 209.952V203.685Z" stroke="white" stroke-width="1.00946"/>
<path d="M615.871 188.383H604.246V198.376H615.871V188.383Z" stroke="white" stroke-width="1.00946"/>
<path d="M583.401 191.856V187.37H578.914V191.856H583.401Z" stroke="white" stroke-width="1.00946"/>
<path d="M583.401 216.126V211.027H578.914V216.126H583.401Z" stroke="white" stroke-width="1.00946"/>
<path d="M583.401 238.764V233.87H578.914V238.764H583.401Z" stroke="white" stroke-width="1.00946"/>
<path d="M605.292 282.491V224.478L604.225 253.698L603.159 282.491H601.026V287.823L607.211 288.25V282.491H605.292Z" fill="#CBB9D4"/>
<path d="M605.292 224.478V282.491H607.211V288.25L601.026 287.823V282.491H603.159L604.225 253.698L605.292 224.478ZM605.292 224.478L591.002 220" stroke="#CBB9D4" stroke-width="0.853125"/>
</g>
<defs>
<clipPath id="clip0_322_87">
<rect width="631" height="316" fill="white"/>
</clipPath>
<clipPath id="clip1_322_87">
<rect width="70.1881" height="108.913" fill="white" transform="translate(120.525 46.626)"/>
</clipPath>
<clipPath id="clip2_322_87">
<rect width="86.9573" height="139" fill="white" transform="translate(0 159)"/>
</clipPath>
</defs>
</svg>
