<svg width="67" height="54" viewBox="0 0 67 54" fill="none" xmlns="http://www.w3.org/2000/svg">
<path d="M2.60688 43.9998V22.8798H9.35888C13.9989 22.8798 16.3989 25.0558 16.3989 29.2798C16.3989 32.2238 15.2469 34.1758 12.9749 35.0718L16.9109 43.9998H12.3669L8.84688 35.6798H6.76688V43.9998H2.60688ZM6.76688 31.9358H8.91088C11.1509 31.9358 12.0469 31.1358 12.0469 29.2798C12.0469 27.4238 11.1509 26.6238 8.91088 26.6238H6.76688V31.9358Z" fill="black"/>
<path d="M25.5486 43.9213C24.7813 36.5451 26.0032 33.5699 26.7484 25.3977L29.5178 27.0474L27.8889 38.3839C27.8889 38.3839 28.4268 37.9714 28.8234 37.7731C29.2197 37.575 29.6736 37.4768 29.6736 37.4768C30.8233 37.4873 31.1517 38.3395 32.2068 39.814C32.8842 41.2003 33.0987 41.9355 30.0912 42.8731C28.7552 43.2664 28.0141 43.4164 26.8941 41.8991L26.7581 43.9998L25.5486 43.9213Z" fill="#FFF8F8"/>
<path d="M41.8021 43.6321L40.3378 43.5374L40.3771 35.0382L39.7324 26.2393L41.9732 24.2109L43.4338 38.1765C44.8399 37.0037 45.3291 37.5324 46.3105 38.1711C48.1232 39.9304 48.3879 41.6296 46.7551 42.1632C45.1226 42.6965 43.4395 43.3912 41.9175 41.8497L41.8021 43.6321Z" fill="#FFF8F8"/>
<path d="M25.5486 43.9213C24.7813 36.5451 26.0032 33.5699 26.7484 25.3977L29.5178 27.0474L27.8889 38.3839C27.8889 38.3839 28.4268 37.9714 28.8234 37.7731C29.2197 37.575 29.6736 37.4768 29.6736 37.4768C30.8233 37.4873 31.1517 38.3395 32.2068 39.814C32.8842 41.2003 33.0987 41.9355 30.0912 42.8731C28.7552 43.2664 28.0141 43.4164 26.8941 41.8991L26.7581 43.9998L25.5486 43.9213Z" stroke="#13755D" stroke-width="0.5"/>
<path d="M41.8021 43.6321L40.3378 43.5374L40.3771 35.0382L39.7324 26.2393L41.9732 24.2109L43.4338 38.1765C44.8399 37.0037 45.3291 37.5324 46.3105 38.1711C48.1232 39.9304 48.3879 41.6296 46.7551 42.1632C45.1226 42.6965 43.4395 43.3912 41.9175 41.8497L41.8021 43.6321Z" stroke="#13755D" stroke-width="0.5"/>
<path d="M59.3179 6.5445L45.1094 17.0529L47.0126 19.5194L61.613 8.91609C63.4813 8.61031 64.9833 9.20239 65.9914 7.11143C66.6371 5.77236 66.7249 5.17978 65.5394 4.89658C65.818 3.3959 65.7177 2.79895 63.6568 2.94415C62.9224 1.79337 62.3703 1.18592 61.1577 2.21972C61.3506 1.53608 61.3288 1.97396 61.2385 1.26621C60.6562 0.777522 60.3548 1.02405 59.7691 1.50298L59.7442 1.5235C58.436 3.40333 58.8659 4.01951 59.3179 6.5445Z" fill="#FFF8F8"/>
<path d="M9.05122 6.69211L22.0715 16.9527L22.3724 20.9473L6.84868 9.25764C6.84868 9.25764 3.69237 8.73356 3.02027 8.35646C2.34791 7.97911 1.59911 7.49581 2.25043 6.11441C2.04906 5.49413 2.27147 5.17655 3.33323 4.66991C3.13545 3.7182 3.49331 3.50348 4.59073 3.43242C5.73535 2.61205 6.31587 2.87319 7.32377 3.66458C8.79444 4.03321 9.0897 4.78099 9.05122 6.69211Z" fill="#FFF8F8"/>
<path d="M59.3179 6.5445L45.1094 17.0529L47.0126 19.5194L61.613 8.91609C63.4813 8.61031 64.9833 9.20239 65.9914 7.11143C66.6371 5.77236 66.7249 5.17978 65.5395 4.89658C65.818 3.3959 65.7177 2.79895 63.6568 2.94415C62.9224 1.79337 62.3703 1.18592 61.1577 2.21972C61.3506 1.53608 61.3288 1.97396 61.2385 1.26621C60.6562 0.777522 60.3548 1.02405 59.7691 1.50298L59.7442 1.5235C58.436 3.40333 58.8659 4.01951 59.3179 6.5445Z" stroke="#13755D" stroke-width="0.5"/>
<path d="M9.05122 6.69211L22.0715 16.9527L22.3724 20.9473L6.84868 9.25764C6.84868 9.25764 3.69237 8.73356 3.02027 8.35646C2.34791 7.97911 1.59911 7.49581 2.25043 6.11441C2.04906 5.49413 2.27147 5.17655 3.33323 4.66991C3.13545 3.7182 3.49331 3.50348 4.59073 3.43242C5.73535 2.61205 6.31587 2.87319 7.32377 3.66458C8.79444 4.03321 9.0897 4.78099 9.05122 6.69211Z" stroke="#13755D" stroke-width="0.5"/>
<path d="M41.8509 12.672C38.9414 12.8595 36.696 14.6406 35.5409 18.5762C32.9264 15.072 31.2133 13.6622 28.1852 12.6168C25.1572 11.5715 19.6898 12.9288 20.9514 19.3163C22.7653 24.0256 27.1981 26.6909 35.2541 31.4456C41.2368 26.7163 46.1036 22.2633 47.6141 19.0946C49.1245 15.9263 45.8381 12.6053 41.8509 12.672Z" fill="#F16762"/>
</svg>
