<svg width="39" height="271" viewBox="0 0 39 271" fill="none" xmlns="http://www.w3.org/2000/svg">
<path d="M29.615 44.3333C29.1176 49.3206 19.1164 48.1777 19.185 49.6111L19.6663 54.882C19.3232 55.2457 26.6717 54.4803 27.2947 55.954C28.0734 57.7962 29.0306 79.1036 27.6228 82.4129C26.4966 85.0604 21.8267 84.6836 19.8653 84.608L27.4109 232.635C28.0981 232.715 36.4904 232.831 37.6375 234.518C39.0715 236.626 38.3795 265.9 36.5425 266.677C32.4041 270.336 25.5692 272.606 17.5197 269.357C15.2793 268.453 10.1027 237.432 11.3466 235.207C12.3331 233.442 21.9647 232.498 22.7868 232.418L22.8063 232.416L15.927 84.3169C13.9798 84.5639 9.36072 85.3481 8.00707 82.8094C6.31501 79.636 5.40317 58.3265 6.01764 56.4233C6.50922 54.9007 13.8965 55.0199 13.5229 54.6875L13.5409 49.3947C13.4838 47.9608 3.62105 49.9749 2.68897 45.0503C1.7569 40.1258 -1.59617 14.8913 0.920482 4.20626C2.11722 -0.874763 25.5138 -1.4655 28.1218 3.05603C31.8733 14.499 30.1124 39.3461 29.615 44.3333Z" fill="#8C9199"/>
</svg>
