<svg width="773" height="240" viewBox="0 0 773 240" fill="none" xmlns="http://www.w3.org/2000/svg">
<path d="M528.245 76.4093C528.325 76.3287 528.434 76.2827 528.548 76.281L551.007 75.8361C551.318 75.8311 551.614 75.7054 551.834 75.4856C552.054 75.2659 552.18 74.9693 552.185 74.6586C552.32 68.4087 552.281 63.3756 552.067 59.5594C552.036 59.0665 551.722 58.3404 551.125 57.3808C550.268 56.007 547.2 55.7715 546.002 55.7846C539.552 55.8543 533.806 55.8783 528.764 55.8565C528.584 55.8548 528.411 55.7821 528.285 55.6545C528.158 55.5269 528.088 55.3548 528.09 55.1761C528.116 45.7206 528.125 36.3806 528.116 27.1563C528.116 26.4846 528.02 25.7017 527.828 24.8076C527.805 24.7045 527.755 24.6096 527.683 24.5327C527.612 24.4557 527.522 24.3993 527.423 24.3693C526.293 24.0204 525.181 23.8503 524.086 23.859C522.385 23.8678 518.842 23.8612 513.455 23.8394C511.279 23.8307 509.504 24.0139 508.13 24.3889C507.724 24.5032 507.366 24.744 507.107 25.0759C506.848 25.4079 506.702 25.8136 506.691 26.2338L505.925 76.824C505.952 105.84 505.938 124.448 505.886 132.648C505.834 140.158 507.26 146.772 511.996 152.922C516.105 158.256 521.775 161.326 529.006 162.133C535.47 162.853 542.385 163.147 548.815 161.289C549.971 160.953 550.761 160.626 551.184 160.308C551.5 160.071 551.757 159.762 551.933 159.406C552.109 159.051 552.2 158.658 552.198 158.26C552.167 149.769 552.119 144.991 552.054 143.926C552.002 143.093 551.504 142.614 550.562 142.487C548.739 142.243 546.574 142.182 544.066 142.304C541.73 142.422 539.5 142.245 537.341 142.101C537.054 142.084 536.771 142.036 536.497 141.957C530.905 140.37 528.103 136.399 528.09 130.044C528.038 105.206 528.046 87.4288 528.116 76.7128C528.118 76.5988 528.164 76.4899 528.245 76.4093Z" fill="#FEFFFF"/>
<path d="M80.1225 59.3028C87.4628 59.3028 93.0235 59.5438 99.4479 59.5776C100.605 59.5316 101.735 59.9427 102.595 60.7225C102.678 60.7923 102.828 61.2153 103.046 61.9917C104.429 66.8503 105.188 69.5216 105.323 70.0058C110.221 87.8003 115.727 107.754 121.842 129.866C122.352 131.711 122.943 134.068 123.614 136.938C123.75 137.514 123.887 137.902 124.027 138.103C124.163 138.295 124.352 138.445 124.571 138.535C124.789 138.625 125.029 138.65 125.261 138.609C125.493 138.568 125.708 138.461 125.881 138.302C126.054 138.143 126.178 137.938 126.238 137.71C132.313 114.9 135.56 102.76 135.979 101.29C138.576 92.1574 140.644 83.9274 143.496 74.2974C144.224 71.8506 145.454 67.5895 147.186 61.5141C147.238 61.3409 147.317 61.1794 147.421 61.0365C148.106 60.0726 149.044 59.5842 150.234 59.5711C157.265 59.5057 163.506 59.5624 168.958 59.7412C169.247 59.7495 169.522 59.8691 169.726 60.075C169.929 60.2809 170.045 60.5573 170.05 60.8468C170.063 61.5097 169.941 62.2403 169.684 63.0384C165.31 76.6111 160.656 93.3915 153.865 114.187C153.608 114.98 153.245 115.822 153.041 116.448C148.514 130.352 144.019 144.272 139.558 158.207C138.629 161.092 136.784 163.421 133.519 163.427C127.566 163.431 121.73 163.453 116.013 163.493C114.669 163.501 113.723 163.355 113.173 163.054C110.262 161.432 109.405 157.238 108.424 154.288C96.8136 119.458 86.5577 88.8601 77.6561 62.4954C77.3421 61.5751 77.3399 60.681 77.6496 59.8131C77.6867 59.7122 77.7444 59.6204 77.8188 59.5438C77.8932 59.4671 77.9826 59.4073 78.0813 59.3683C78.8577 59.063 79.2851 59.3028 80.1225 59.3028Z" fill="#FEFFFF"/>
<path d="M424.399 69.5803C419.057 82.8241 421.206 96.461 433.423 105.855C445.426 115.073 465.539 113.819 473.945 127.451C475.307 129.659 476.509 133.318 475.806 135.79C474.976 138.721 473.593 140.899 468.774 143.11C458.388 147.048 445.931 146.009 439.318 133.075C438.584 131.641 439.169 131.468 438.531 131.045C438.105 130.762 437.53 130.744 436.998 130.744C431.294 130.744 425.612 130.744 419.908 130.762C419.44 130.762 418.908 130.78 418.589 131.098C418.269 131.398 418.269 131.875 418.269 132.281C418.44 141.463 421.887 146.681 428.826 153.162C444.979 168.26 475.265 167.836 488.12 149.189C500.379 131.407 490.461 109.546 471.115 101.246C462.134 97.3969 453.173 95.6663 445.554 89.5035C442.447 86.9784 440.446 82.8816 441.766 79.2263C442.979 75.8712 446.661 73.7699 450.343 73.0106C460.473 70.9445 471.179 75.452 473.711 84.7404C473.881 85.3231 474.371 85.7469 474.967 85.7645L484.789 85.8528L494.611 85.9411C495.42 85.9411 492.345 77.9749 492.404 78.1342C491.297 75.0685 487.899 69.6932 487.013 68.5737C482.445 62.8057 474.158 57.8727 465.815 56.1069C451.322 53.052 431.611 53.6612 424.886 68.4766C424.886 68.4766 424.505 69.2801 424.399 69.5803Z" fill="#FEFFFF"/>
<path d="M269.103 138.404C269.103 124.861 269.103 113.862 269.144 105.406C269.206 88.0651 274.4 73.0635 288.342 63.5342C298.547 56.5648 311.297 55.0123 324.028 55.3261C324.336 55.3261 326.674 55.6069 326.674 55.9372V79.8571C326.674 80.5837 326.037 81.1783 325.257 81.1618C321.315 81.0296 314.231 81.2774 310.535 81.6738C303.061 82.483 297.907 85.8851 295.053 91.8967C293.37 95.4474 292.61 101.905 292.774 111.253C292.856 115.844 292.856 132.293 292.795 160.617H269.103C269.103 152.59 269.103 145.175 269.103 138.404Z" fill="#FEFFFF"/>
<path d="M410.968 110.101H415.612C415.63 109.377 415.648 108.636 415.648 107.896C415.648 76.9716 395.727 53.9788 371.162 53.9788C346.597 53.9788 326.675 76.9716 326.675 107.896C326.675 138.82 346.597 163.886 371.162 163.886C388.537 163.886 403.581 151.344 410.896 133.066C411.255 132.17 410.592 131.171 409.641 131.171H392.966C392.535 131.171 392.159 131.377 391.908 131.722C386.762 138.802 379.374 143.247 371.162 143.247C356.225 143.247 344.032 128.586 343.118 110.084H410.95L410.968 110.101ZM371.162 72.544C382.44 72.544 392.159 80.9168 396.641 92.9763H345.7C350.165 80.8996 359.901 72.544 371.18 72.544H371.162Z" fill="#FEFFFF"/>
<path d="M254.606 109.446H259.25C259.268 108.722 259.286 107.982 259.286 107.241C259.286 76.3168 239.365 53.324 214.8 53.324C190.234 53.324 170.313 76.3168 170.313 107.241C170.313 138.165 190.234 163.231 214.8 163.231C232.175 163.231 247.219 150.69 254.534 132.411C254.893 131.515 254.23 130.516 253.279 130.516H236.604C236.173 130.516 235.797 130.722 235.546 131.067C230.4 138.148 223.012 142.592 214.8 142.592C199.863 142.592 187.67 127.932 186.756 109.429H254.588L254.606 109.446ZM214.8 71.8893C226.078 71.8893 235.797 80.262 240.279 92.3215H189.338C193.803 80.2448 203.539 71.8893 214.818 71.8893H214.8Z" fill="#FEFFFF"/>
<path d="M4.86257 21.7565H72.0798C73.4347 21.7565 74.533 22.8548 74.533 24.2098V40.4233C74.533 41.7782 73.4347 42.8766 72.0798 42.8766H26.4099C25.055 42.8766 23.9566 43.9749 23.9566 45.3299V80.0596C23.9566 81.4145 25.055 82.5129 26.4099 82.5129H66.9922C68.3471 82.5129 69.4455 83.6113 69.4455 84.9662V98.8652C69.4455 100.22 68.3471 101.318 66.9922 101.318H26.4099C25.055 101.318 23.9566 102.417 23.9566 103.772V139.659C23.9566 141.014 25.055 142.112 26.4099 142.112H72.0798C73.4347 142.112 74.533 143.21 74.533 144.565V159.043C74.533 160.398 73.4347 161.496 72.0798 161.496H4.86256C3.50765 161.496 2.40927 160.398 2.40927 159.043V24.2098C2.40927 22.8548 3.50765 21.7565 4.86257 21.7565Z" fill="#FEFFFF"/>
<path d="M9.59238 200.739V212.539H23.7233V216.783H9.59238V231.724H4.34233V196.495H26.1766V200.739H9.59238ZM53.6263 227.48L53.6018 231.724H31.7675V196.495H53.6018V200.739H37.0175V211.901H50.3634V215.998H37.0175V227.48H53.6263ZM90.5074 214.109C90.5074 216.743 90.0821 219.139 89.2316 221.298C88.3975 223.456 87.2118 225.313 85.6744 226.866C84.137 228.404 82.297 229.598 80.1545 230.448C78.0119 231.299 75.6322 231.724 73.0154 231.724H59.7676V196.495H73.0154C75.6322 196.495 78.0119 196.92 80.1545 197.77C82.297 198.621 84.137 199.823 85.6744 201.377C87.2118 202.914 88.3975 204.77 89.2316 206.946C90.0821 209.105 90.5074 211.493 90.5074 214.109ZM85.1592 214.109C85.1592 212.016 84.873 210.143 84.3005 208.491C83.7281 206.823 82.9103 205.417 81.8472 204.272C80.8005 203.11 79.5248 202.227 78.0201 201.622C76.5318 201.017 74.8635 200.714 73.0154 200.714H65.0176V227.504H73.0154C74.8635 227.504 76.5318 227.202 78.0201 226.597C79.5248 225.991 80.8005 225.116 81.8472 223.972C82.9103 222.81 83.7281 221.404 84.3005 219.752C84.873 218.1 85.1592 216.219 85.1592 214.109ZM118.635 227.48L118.61 231.724H96.7759V196.495H118.61V200.739H102.026V211.901H115.372V215.998H102.026V227.48H118.635ZM134.761 213.471C136.102 213.471 137.28 213.308 138.294 212.981C139.324 212.654 140.183 212.196 140.87 211.607C141.557 211.002 142.072 210.29 142.415 209.473C142.759 208.639 142.93 207.723 142.93 206.725C142.93 204.697 142.26 203.168 140.919 202.137C139.594 201.107 137.599 200.592 134.933 200.592H130.002V213.471H134.761ZM151.198 231.724H146.537C145.604 231.724 144.926 231.356 144.501 230.62L135.791 218.403C135.513 217.994 135.211 217.708 134.884 217.544C134.557 217.364 134.066 217.274 133.412 217.274H130.002V231.724H124.776V196.495H134.933C137.206 196.495 139.161 196.732 140.796 197.206C142.448 197.664 143.805 198.326 144.869 199.193C145.948 200.044 146.741 201.074 147.248 202.284C147.772 203.495 148.033 204.852 148.033 206.357C148.033 207.584 147.845 208.737 147.469 209.816C147.093 210.896 146.537 211.869 145.801 212.736C145.081 213.586 144.198 214.322 143.151 214.943C142.104 215.565 140.919 216.039 139.594 216.366C140.248 216.759 140.812 217.307 141.287 218.01L151.198 231.724ZM174.13 218.599L168.905 204.934C168.528 204.002 168.152 202.824 167.776 201.401C167.596 202.105 167.408 202.759 167.212 203.364C167.032 203.969 166.852 204.509 166.672 204.983L161.471 218.599H174.13ZM184.459 231.724H180.435C179.977 231.724 179.601 231.61 179.307 231.381C179.012 231.152 178.8 230.857 178.669 230.497L175.553 222.328H160.024L156.908 230.497C156.794 230.808 156.581 231.094 156.27 231.356C155.959 231.601 155.583 231.724 155.142 231.724H151.118L165.151 196.495H170.426L184.459 231.724ZM208.705 227.333V231.724H188.539V196.495H193.764V227.333H208.705ZM248.685 224.168C248.98 224.168 249.233 224.282 249.446 224.511L251.507 226.768C250.067 228.469 248.309 229.786 246.232 230.718C244.171 231.65 241.685 232.117 238.774 232.117C236.223 232.117 233.908 231.675 231.831 230.792C229.77 229.909 228.004 228.674 226.532 227.087C225.077 225.501 223.948 223.604 223.147 221.396C222.345 219.188 221.944 216.759 221.944 214.109C221.944 211.46 222.362 209.031 223.196 206.823C224.046 204.615 225.232 202.718 226.753 201.131C228.274 199.545 230.089 198.31 232.199 197.427C234.325 196.544 236.672 196.102 239.24 196.102C241.743 196.102 243.967 196.511 245.913 197.329C247.859 198.147 249.552 199.234 250.991 200.592L249.274 203.02C249.16 203.2 249.012 203.348 248.833 203.462C248.669 203.577 248.448 203.634 248.17 203.634C247.859 203.634 247.491 203.478 247.066 203.168C246.657 202.857 246.109 202.513 245.422 202.137C244.752 201.745 243.918 201.393 242.92 201.082C241.922 200.772 240.679 200.616 239.191 200.616C237.441 200.616 235.838 200.927 234.383 201.548C232.927 202.154 231.668 203.037 230.605 204.198C229.558 205.343 228.74 206.758 228.151 208.442C227.579 210.11 227.293 212 227.293 214.109C227.293 216.252 227.595 218.157 228.2 219.826C228.806 221.494 229.64 222.908 230.703 224.07C231.766 225.231 233.017 226.114 234.456 226.719C235.896 227.324 237.449 227.627 239.118 227.627C240.132 227.627 241.039 227.57 241.841 227.455C242.658 227.324 243.403 227.136 244.073 226.891C244.76 226.646 245.406 226.335 246.011 225.959C246.616 225.566 247.213 225.1 247.802 224.56C247.933 224.446 248.072 224.356 248.219 224.291C248.366 224.209 248.522 224.168 248.685 224.168ZM266.424 213.471C267.765 213.471 268.943 213.308 269.957 212.981C270.987 212.654 271.846 212.196 272.533 211.607C273.22 211.002 273.735 210.29 274.078 209.473C274.422 208.639 274.594 207.723 274.594 206.725C274.594 204.697 273.923 203.168 272.582 202.137C271.257 201.107 269.262 200.592 266.596 200.592H261.665V213.471H266.424ZM282.861 231.724H278.2C277.268 231.724 276.589 231.356 276.164 230.62L267.455 218.403C267.177 217.994 266.874 217.708 266.547 217.544C266.22 217.364 265.729 217.274 265.075 217.274H261.665V231.724H256.439V196.495H266.596C268.869 196.495 270.824 196.732 272.459 197.206C274.111 197.664 275.469 198.326 276.532 199.193C277.611 200.044 278.404 201.074 278.911 202.284C279.435 203.495 279.697 204.852 279.697 206.357C279.697 207.584 279.508 208.737 279.132 209.816C278.756 210.896 278.2 211.869 277.464 212.736C276.744 213.586 275.861 214.322 274.814 214.943C273.768 215.565 272.582 216.039 271.257 216.366C271.911 216.759 272.476 217.307 272.95 218.01L282.861 231.724ZM308.934 227.48L308.909 231.724H287.075V196.495H308.909V200.739H292.325V211.901H305.671V215.998H292.325V227.48H308.934ZM345.815 214.109C345.815 216.743 345.389 219.139 344.539 221.298C343.705 223.456 342.519 225.313 340.982 226.866C339.444 228.404 337.604 229.598 335.462 230.448C333.319 231.299 330.94 231.724 328.323 231.724H315.075V196.495H328.323C330.94 196.495 333.319 196.92 335.462 197.77C337.604 198.621 339.444 199.823 340.982 201.377C342.519 202.914 343.705 204.77 344.539 206.946C345.389 209.105 345.815 211.493 345.815 214.109ZM340.467 214.109C340.467 212.016 340.18 210.143 339.608 208.491C339.035 206.823 338.218 205.417 337.155 204.272C336.108 203.11 334.832 202.227 333.327 201.622C331.839 201.017 330.171 200.714 328.323 200.714H320.325V227.504H328.323C330.171 227.504 331.839 227.202 333.327 226.597C334.832 225.991 336.108 225.116 337.155 223.972C338.218 222.81 339.035 221.404 339.608 219.752C340.18 218.1 340.467 216.219 340.467 214.109ZM357.333 231.724H352.083V196.495H357.333V231.724ZM389.726 200.862H378.539V231.724H373.338V200.862H362.102V196.495H389.726V200.862ZM418.821 227.529C420.227 227.529 421.486 227.292 422.599 226.817C423.711 226.343 424.651 225.681 425.42 224.83C426.189 223.963 426.777 222.941 427.186 221.764C427.595 220.57 427.8 219.253 427.8 217.814V196.495H433.001V217.814C433.001 219.875 432.673 221.78 432.019 223.53C431.365 225.28 430.425 226.793 429.198 228.069C427.971 229.344 426.483 230.342 424.733 231.062C422.983 231.781 421.012 232.141 418.821 232.141C416.629 232.141 414.658 231.781 412.908 231.062C411.158 230.342 409.67 229.344 408.443 228.069C407.216 226.793 406.276 225.28 405.622 223.53C404.968 221.78 404.64 219.875 404.64 217.814V196.495H409.866V217.789C409.866 219.229 410.062 220.545 410.455 221.739C410.864 222.933 411.452 223.963 412.221 224.83C412.99 225.681 413.93 226.343 415.042 226.817C416.155 227.292 417.414 227.529 418.821 227.529ZM469.791 196.495V231.724H467.142C466.733 231.724 466.389 231.65 466.111 231.503C465.85 231.356 465.58 231.119 465.302 230.792L445.405 205.057C445.438 205.498 445.463 205.932 445.479 206.357C445.512 206.782 445.528 207.183 445.528 207.559V231.724H440.94V196.495H443.639C444.097 196.495 444.44 196.552 444.669 196.666C444.898 196.765 445.152 197.002 445.43 197.378L465.375 223.137C465.326 222.663 465.285 222.205 465.253 221.764C465.236 221.306 465.228 220.88 465.228 220.488V196.495H469.791ZM483.438 231.724H478.188V196.495H483.438V231.724ZM524.639 214.109C524.639 216.743 524.214 219.163 523.363 221.371C522.529 223.563 521.343 225.46 519.806 227.063C518.268 228.649 516.428 229.884 514.286 230.767C512.143 231.65 509.764 232.092 507.147 232.092C504.546 232.092 502.167 231.65 500.008 230.767C497.865 229.884 496.025 228.649 494.488 227.063C492.967 225.46 491.781 223.563 490.93 221.371C490.08 219.163 489.655 216.743 489.655 214.109C489.655 211.493 490.08 209.08 490.93 206.872C491.781 204.664 492.967 202.767 494.488 201.18C496.025 199.578 497.865 198.335 500.008 197.451C502.167 196.552 504.546 196.102 507.147 196.102C509.764 196.102 512.143 196.552 514.286 197.451C516.428 198.335 518.268 199.578 519.806 201.18C521.343 202.767 522.529 204.664 523.363 206.872C524.214 209.08 524.639 211.493 524.639 214.109ZM519.291 214.109C519.291 212.016 519.004 210.135 518.432 208.467C517.859 206.799 517.042 205.384 515.979 204.223C514.932 203.061 513.656 202.17 512.151 201.548C510.663 200.927 508.995 200.616 507.147 200.616C505.299 200.616 503.622 200.927 502.118 201.548C500.629 202.17 499.353 203.061 498.29 204.223C497.227 205.384 496.41 206.799 495.837 208.467C495.265 210.135 494.978 212.016 494.978 214.109C494.978 216.219 495.265 218.108 495.837 219.776C496.41 221.428 497.227 222.835 498.29 223.996C499.353 225.157 500.629 226.049 502.118 226.67C503.622 227.275 505.299 227.578 507.147 227.578C508.995 227.578 510.663 227.275 512.151 226.67C513.656 226.049 514.932 225.157 515.979 223.996C517.042 222.835 517.859 221.428 518.432 219.776C519.004 218.108 519.291 216.219 519.291 214.109ZM559.733 196.495V231.724H557.084C556.675 231.724 556.331 231.65 556.053 231.503C555.791 231.356 555.522 231.119 555.244 230.792L535.347 205.057C535.38 205.498 535.405 205.932 535.421 206.357C535.454 206.782 535.47 207.183 535.47 207.559V231.724H530.882V196.495H533.581C534.039 196.495 534.382 196.552 534.611 196.666C534.84 196.765 535.094 197.002 535.372 197.378L555.317 223.137C555.268 222.663 555.227 222.205 555.195 221.764C555.178 221.306 555.17 220.88 555.17 220.488V196.495H559.733Z" fill="#FEFFFF"/>
<path d="M706.71 90.3696C695.286 96.2169 623.621 132.955 610.971 139.43C606.935 133.597 603.64 127.208 601.173 120.362C613.681 113.958 685.517 77.1347 696.955 71.2874C697.811 70.8453 698.809 71.1305 699.194 71.9007L707.523 88.2018C707.922 88.972 707.175 90.1275 706.319 90.5696L706.71 90.3696Z" fill="#D7252B" stroke="#D7262A" stroke-width="5.6575" stroke-miterlimit="10"/>
<path d="M747.616 52.1812C744.978 47.6031 741.954 43.3104 738.645 39.4027C727.322 26.0537 710.821 17.0688 692.666 14.6586C684.08 13.5176 675.209 13.8599 666.567 15.6284C634.792 22.1317 610.889 46.6761 604.557 75.7272L683.724 34.5679C684.337 34.2399 685.093 34.4681 685.406 35.0528L694.591 52.4093C694.905 52.9941 694.677 53.7214 694.063 54.0637C682.112 60.7524 610.704 97.02 604.386 100.799L593.29 106.675C593.147 105.991 593.162 105.976 593.033 105.278C584.918 59.1979 616.85 14.1309 664.37 4.58981C682.739 0.896028 701.708 3.07807 718.094 10.5227C734.452 17.953 747.801 30.3465 756.301 45.6208C765.557 62.2499 771.405 79.635 769.707 99.2305C768.167 117.029 760.794 134.528 748.557 148.605C746.718 150.715 744.778 152.74 742.753 154.694C707.74 188.181 652.476 188.594 619.318 155.579C618.804 155.079 618.79 155.094 618.305 154.566L629.472 148.833C636.189 145.809 706.813 108.03 719.135 102.054C719.749 101.755 720.49 101.983 720.79 102.568L729.775 120.024C730.074 120.623 729.832 121.365 729.204 121.678L650.137 163.023C677.605 174.447 711.42 168.899 734.937 146.579C748.728 133.487 757.228 115.931 758.726 97.8472C760.038 82.145 755.531 65.9009 747.602 52.1669L747.616 52.1812Z" fill="#FEFFFF" stroke="#FEFFFF" stroke-width="5.6575" stroke-miterlimit="10"/>
</svg>
