<svg width="550" height="199" viewBox="0 0 550 199" fill="none" xmlns="http://www.w3.org/2000/svg">
<path d="M16.6511 192.597C17.0296 195.246 13.056 195.435 12.6776 192.976C11.7315 183.893 11.3531 176.324 10.5962 167.431C8.13635 136.021 7.19027 104.8 7.5687 73.3901C7.5687 72.8224 7.75792 72.444 7.75792 72.6332C8.13635 71.3087 10.0285 70.5518 11.1638 71.4979C22.1384 80.3911 28.5718 91.7442 28.9503 103.286C29.1395 113.126 24.5983 123.154 17.5972 129.02C25.1659 150.78 31.2209 170.459 39.5465 192.219C40.3033 194.679 36.3298 195.814 35.5729 193.354C27.6258 172.162 21.3816 152.861 14.0021 131.48L12.4884 132.426C13.4344 153.051 14.5697 172.162 16.6511 192.597ZM12.4884 127.885C20.4355 122.397 25.3551 112.558 24.7875 102.719C24.4091 93.8256 19.8678 84.7431 11.5423 77.1744V100.259C11.7315 109.341 12.1099 118.613 12.4884 127.885ZM59.7366 92.3118C59.1689 125.046 58.9797 157.781 59.3581 190.516H64.2778C66.9268 190.516 67.116 194.679 64.2778 194.679C59.9258 194.868 55.5738 194.489 51.2218 194.679C48.5727 194.679 48.7619 190.516 51.2218 190.516H55.3846C55.1953 181.244 55.0061 171.972 55.0061 162.701C54.8169 145.482 55.0061 128.263 55.3846 111.044C55.5738 99.1237 55.5738 87.0138 56.1414 75.2823H51.411C48.7619 75.6607 48.5727 71.1195 51.2218 71.1195C55.5738 71.1195 59.7366 70.9303 64.2778 70.9303C66.9268 70.9303 66.9268 74.7146 64.2778 75.093C62.9533 75.093 61.6287 75.2823 60.3042 75.2823C59.9258 80.7696 59.9258 86.6353 59.7366 92.3118ZM101.06 72.8224C101.438 70.5518 105.223 70.5518 105.223 73.0117C104.844 79.445 104.844 86.0677 104.655 92.5011C103.898 125.993 103.898 159.295 104.277 192.786C104.277 195.435 100.303 195.246 100.303 192.786C100.114 182.947 99.9246 173.108 99.9246 163.268V129.966C94.4373 129.777 89.3284 129.966 83.8411 130.345C83.6519 151.158 83.6519 171.972 84.0303 192.786C84.0303 195.435 79.8675 195.246 79.8675 192.786C79.8675 182.947 79.6783 173.108 79.6783 163.268C79.4891 146.05 79.6783 128.831 79.8675 111.612C80.0567 98.7452 80.0567 85.8784 80.8136 72.8224C81.192 70.3626 85.1656 70.5518 84.7872 73.0117C84.598 79.445 84.4087 86.0677 84.4087 92.5011C84.0303 103.665 84.0303 115.018 83.8411 126.371C89.3284 125.993 94.6265 125.803 99.9246 125.993C100.114 121.262 100.114 116.342 100.303 111.612C100.492 98.7452 100.492 85.8784 101.06 72.8224ZM142.799 98.7452C149.043 129.777 155.098 160.998 161.153 192.029C161.91 194.489 157.936 195.625 157.179 192.976C155.476 183.893 153.584 174.811 151.881 165.539C149.421 153.808 147.34 142.076 145.069 130.155C139.014 129.966 133.527 130.155 128.418 130.723C125.958 151.348 124.066 172.162 122.552 192.976C122.174 195.435 118.2 195.246 118.579 192.786C119.336 180.866 120.282 169.134 121.606 157.403C124.445 128.831 128.607 100.637 133.527 72.6332C133.905 70.3626 137.122 70.5518 137.501 72.6332C139.393 81.3372 141.096 90.0412 142.799 98.7452ZM129.175 126.749C133.905 126.182 139.014 125.993 144.123 126.182C141.474 111.99 138.636 97.7991 135.608 83.6078C135.419 84.3647 135.419 85.3108 135.23 86.0677C132.77 99.3129 130.878 112.937 129.175 126.749ZM226.343 72.8224C226.721 70.5518 230.505 70.5518 230.505 73.0117C230.127 79.445 230.127 86.0677 229.938 92.5011C229.181 125.993 229.181 159.295 229.559 192.786C229.559 195.435 225.586 195.246 225.586 192.786C225.396 182.947 225.207 173.108 225.207 163.268V129.966C219.72 129.777 214.611 129.966 209.124 130.345C208.935 151.158 208.935 171.972 209.313 192.786C209.313 195.435 205.15 195.246 205.15 192.786C205.15 182.947 204.961 173.108 204.961 163.268C204.772 146.05 204.961 128.831 205.15 111.612C205.339 98.7452 205.339 85.8784 206.096 72.8224C206.475 70.3626 210.448 70.5518 210.07 73.0117C209.881 79.445 209.691 86.0677 209.691 92.5011C209.313 103.665 209.313 115.018 209.124 126.371C214.611 125.993 219.909 125.803 225.207 125.993C225.396 121.262 225.396 116.342 225.586 111.612C225.775 98.7452 225.775 85.8784 226.343 72.8224ZM268.081 98.7452C274.325 129.777 280.38 160.998 286.435 192.029C287.192 194.489 283.219 195.625 282.462 192.976C280.759 183.893 278.867 174.811 277.164 165.539C274.704 153.808 272.623 142.076 270.352 130.155C264.297 129.966 258.81 130.155 253.701 130.723C251.241 151.348 249.349 172.162 247.835 192.976C247.457 195.435 243.483 195.246 243.861 192.786C244.618 180.866 245.564 169.134 246.889 157.403C249.727 128.831 253.89 100.637 258.81 72.6332C259.188 70.3626 262.405 70.5518 262.783 72.6332C264.675 81.3372 266.378 90.0412 268.081 98.7452ZM254.458 126.749C259.188 126.182 264.297 125.993 269.406 126.182C266.757 111.99 263.919 97.7991 260.891 83.6078C260.702 84.3647 260.702 85.3108 260.513 86.0677C258.053 99.3129 256.161 112.937 254.458 126.749ZM305.282 192.597C305.66 195.246 301.687 195.435 301.308 192.976C300.362 183.893 299.984 176.324 299.227 167.431C296.767 136.021 295.821 104.8 296.199 73.3901C296.199 72.8224 296.389 72.444 296.389 72.6332C296.767 71.3087 298.659 70.5518 299.794 71.4979C310.769 80.3911 317.202 91.7442 317.581 103.286C317.77 113.126 313.229 123.154 306.228 129.02C313.797 150.78 319.852 170.459 328.177 192.219C328.934 194.679 324.96 195.814 324.204 193.354C316.256 172.162 310.012 152.861 302.633 131.48L301.119 132.426C302.065 153.051 303.2 172.162 305.282 192.597ZM301.119 127.885C309.066 122.397 313.986 112.558 313.418 102.719C313.04 93.8256 308.498 84.7431 300.173 77.1744V100.259C300.362 109.341 300.741 118.613 301.119 127.885ZM355.034 70.9303C357.494 70.9303 357.494 74.7146 355.034 75.093C351.628 75.2823 348.412 75.2823 345.195 75.2823C345.195 89.852 346.709 161.755 346.141 192.786C346.141 195.435 342.167 195.246 342.167 192.786L340.843 75.2823C338.005 75.2823 335.166 75.2823 332.328 75.093C329.679 75.093 329.868 71.1195 332.328 71.1195C339.897 71.4979 347.465 71.3087 355.034 70.9303Z" fill="#302C2B"/>
<path d="M528.39 18.0904L488.125 50.8961L493.518 58.5962L534.894 25.4942C540.188 24.5396 544.444 26.388 547.301 19.8603C549.131 15.6799 549.38 13.83 546.021 12.9458C546.81 8.26091 546.526 6.39733 540.685 6.85061C538.604 3.25803 537.04 1.36165 533.603 4.58905C534.15 2.4548 534.088 3.82183 533.832 1.61231C532.182 0.0867043 531.328 0.856317 529.668 2.35149L529.598 2.41555C525.89 8.28412 527.109 10.2077 528.39 18.0904Z" stroke="#302C2B" stroke-width="1.56093"/>
<path d="M351.798 23.4943L388.696 55.5263L389.549 67.9971L345.557 31.5035C345.557 31.5035 336.612 29.8674 334.708 28.6901C332.802 27.5121 330.68 26.0033 332.526 21.6907C331.955 19.7543 332.586 18.7629 335.595 17.1812C335.034 14.2101 336.048 13.5398 339.158 13.3179C342.402 10.7569 344.047 11.5721 346.903 14.0427C351.071 15.1935 351.907 17.528 351.798 23.4943Z" stroke="#302C2B" stroke-width="1.56093"/>
<path d="M417.69 197.137C414.229 160.486 419.74 145.702 423.101 105.096L435.593 113.293L428.246 169.622C428.246 169.622 430.672 167.573 432.461 166.587C434.248 165.603 436.295 165.115 436.295 165.115C441.481 165.167 442.962 169.402 447.721 176.728C450.777 183.617 451.744 187.27 438.179 191.929C432.153 193.883 428.81 194.628 423.759 187.089L423.145 197.527L417.69 197.137Z" stroke="#302C2B" stroke-width="1.45585"/>
<path d="M468.218 195.774L461.613 195.304L461.79 153.072L458.883 109.352L468.99 99.2734L475.578 168.667C481.92 162.839 484.126 165.466 488.553 168.64C496.729 177.381 497.923 185.825 490.558 188.476C483.195 191.126 475.603 194.578 468.739 186.918L468.218 195.774Z" stroke="#302C2B" stroke-width="1.45585"/>
<path d="M480.095 37.1742C466.227 38.1588 455.525 47.511 450.019 68.1765C437.557 49.7766 429.392 42.3735 414.959 36.8845C400.526 31.3955 374.466 38.5225 380.479 72.0626C389.125 96.7907 410.254 110.786 448.652 135.752C477.168 110.919 500.366 87.5368 507.565 70.8988C514.764 54.2621 499.1 36.824 480.095 37.1742Z" fill="#F16762"/>
</svg>
