<svg width="90" height="82" viewBox="0 0 90 82" fill="none" xmlns="http://www.w3.org/2000/svg">
<path d="M80.9349 7.41902L64.4219 20.873L66.6337 24.0309L83.6023 10.4554C85.7736 10.0639 87.5192 10.8219 88.6908 8.14487C89.4412 6.43043 89.5432 5.67175 88.1655 5.30916C88.4893 3.38781 88.3727 2.62353 85.9775 2.80943C85.124 1.33607 84.4824 0.558343 83.0731 1.88194C83.2973 1.00666 83.272 1.56729 83.167 0.66114C82.4902 0.0354709 82.1399 0.351098 81.4593 0.964287L81.4304 0.990557C79.9099 3.39733 80.4096 4.18623 80.9349 7.41902Z" stroke="#FAFAFA" stroke-width="0.640158"/>
<path d="M8.51518 9.63482L23.6472 22.7716L23.9969 27.886L5.95541 12.9195C5.95541 12.9195 2.28717 12.2485 1.50606 11.7657C0.724653 11.2826 -0.145596 10.6638 0.611364 8.89518C0.37733 8.10102 0.635809 7.69443 1.86978 7.04577C1.63992 5.82727 2.05582 5.55237 3.33124 5.46139C4.66151 4.41106 5.33618 4.74541 6.50755 5.75863C8.21674 6.23059 8.5599 7.18798 8.51518 9.63482Z" stroke="#FAFAFA" stroke-width="0.640158"/>
<path d="M35.5371 80.8468C34.1178 65.8156 36.378 59.7528 37.7564 43.0996L42.8793 46.4614L39.8662 69.5627C39.8662 69.5627 40.8612 68.7221 41.5948 68.318C42.3279 67.9145 43.1674 67.7143 43.1674 67.7143C45.2942 67.7357 45.9016 69.4723 47.8533 72.477C49.1065 75.302 49.5032 76.8002 43.9399 78.7108C41.4686 79.5122 40.0977 79.818 38.026 76.7259L37.7745 81.0067L35.5371 80.8468Z" stroke="#FAFAFA" stroke-width="0.597063"/>
<path d="M56.2581 80.2891L53.5495 80.0963L53.6222 62.7765L52.4297 44.8463L56.5746 40.7129L59.2765 69.1718C61.8774 66.7818 62.7823 67.8592 64.5978 69.1609C67.9507 72.7459 68.4404 76.2086 65.4201 77.2959C62.4003 78.3827 59.287 79.7983 56.4716 76.6571L56.2581 80.2891Z" stroke="#FAFAFA" stroke-width="0.597063"/>
<path d="M61.131 15.2449C55.4435 15.6488 51.0543 19.4842 48.7963 27.9594C43.6855 20.4134 40.3368 17.3773 34.4177 15.1262C28.4985 12.8751 17.8111 15.7979 20.2772 29.5531C23.823 39.6944 32.4881 45.434 48.2357 55.6731C59.9305 45.4887 69.444 35.8993 72.3966 29.0758C75.3491 22.2529 68.925 15.1013 61.131 15.2449Z" fill="#F16762"/>
</svg>
