<svg width="888" height="563" viewBox="0 0 888 563" fill="none" xmlns="http://www.w3.org/2000/svg">
<g clip-path="url(#clip0_832_19371)">
<path d="M661.957 347.125C662.8 348.364 662.509 351.633 661.173 352.76C662.457 352.842 663.741 352.947 665.024 353.059C666.278 352.559 666.166 349.409 667.181 348.618C669.771 349.163 667.756 351.827 667.181 353.096C667.898 353.059 668.674 353.133 669.413 353.133C670.354 352.424 671.339 351.775 672.354 351.185C672.369 351.081 672.391 350.976 672.406 350.857C676.265 345.11 684.161 336.713 682.855 329.212C671.652 322.114 653.68 315.77 641.058 312.045C632.169 306.366 616.674 299.708 605.979 299.357C606.68 297.715 611.606 293.259 613.442 291.893C616.264 285.609 620.988 277.16 612.696 273.234C596.753 269.704 613.45 255.754 596.276 238.154C594.678 240.453 588.7 230.608 586.573 229.198C569.757 218.957 542.611 218.786 528.356 233.676C521.616 240.468 520.138 251.485 519.399 260.546C504.673 262.083 509.166 274.652 511.935 284.43C505.494 289.878 493.47 291.438 485.812 294.132C474.281 298.67 457.89 306.888 447.001 312.792C444.97 317.166 436.081 333.108 435.141 339.311C436.014 339.467 436.88 339.646 437.745 339.833C437.828 339.557 437.925 339.251 438.044 338.915C438.581 338.579 439.081 339.37 439.485 340.221C440.373 340.43 441.253 340.654 442.127 340.885C441.709 339.602 442.201 339.646 444.008 340.4C447.21 339.467 447.239 333.862 450.725 333.683C450.143 332.078 451.882 331.787 452.964 331.444C452.128 327.481 455.979 323.749 458.935 321.741C460.801 320.159 463.921 316.524 464.906 314.277C467.212 316.904 461.652 322.704 460.428 324.726C460.122 325.928 445.888 342.527 454.457 338.908L458.935 333.683C458.771 334.974 458.913 336.392 460.428 336.668C460.883 334.459 463.719 332.28 465.652 331.444L463.413 338.161C470.937 339.124 465.727 334.907 470.877 329.951C477.348 320.45 480.871 306.269 490.283 300.842C492.403 302.081 487.7 306.507 487.297 307.56C484.834 308.321 482.7 309.135 484.312 312.038C480.14 314.352 467.899 345.297 476.102 344.879C482.894 348.991 480.558 335.78 485.058 335.922C481.468 349.618 488.245 336.668 489.536 332.19C494.194 324.995 490.432 342.654 492.522 344.132C497.448 346.752 492.5 351.484 500.732 350.103C497.941 351.126 493.903 351.051 489.499 350.529C493.328 351.887 497.187 353.133 501.075 354.283C502.314 354.455 503.553 354.626 504.792 354.805C505.696 354.94 506.337 355.35 506.778 355.91C510.226 356.85 513.689 357.739 517.167 358.575C520.399 359.351 523.638 360.067 526.885 360.702C527.587 358.769 529.542 359.597 529.848 356.813C534.073 356.223 532.782 358.895 530.639 361.411C531.095 361.493 531.557 361.568 532.013 361.642C532.296 361.582 532.602 361.545 532.923 361.553C534.088 361.568 535.259 361.612 536.424 361.657C536.461 361.276 536.506 360.903 536.558 360.552C533.617 361.762 536.155 356.358 535.812 355.328L540.29 353.089C545.97 351.469 544.962 356.544 543.328 361.762C543.335 361.762 543.343 361.762 543.35 361.762C543.962 361.739 544.768 361.724 545.597 361.679L546.254 359.06C546.627 360.06 547.097 361.045 546.463 361.627C547.634 361.538 548.732 361.366 549.269 360.993C548.037 372.338 552.717 373.099 553.732 372.338C555.912 370.711 556.986 354.932 559.494 353.902C563.189 352.387 567.033 351.439 570.951 350.872C570.227 350.767 569.839 350.544 570.138 350.096C570.369 350.387 575.758 349.596 576.788 350.29C581.983 349.999 587.245 350.23 592.387 350.626C594.119 349.909 595.828 348.095 596.261 346.364C598.679 343.878 603.978 333.705 601.485 345.617C603.03 344.199 606.665 341.035 608.949 341.139C609.949 346.327 599.627 349.76 608.949 350.096C608.046 351.999 613.106 349.066 613.427 349.349C616.637 342.49 626.071 328.406 630.594 322.48C637.909 321.592 633.833 325.577 631.34 328.451C628.168 333.765 620.511 346.58 617.159 351.588C616.45 351.753 615.084 351.932 613.338 352.096C616.6 352.253 619.869 352.372 623.138 352.439C623.459 344.513 633.386 335.28 636.565 327.704C639.006 326.891 640.006 325.749 638.804 323.226C652.903 334.631 637.804 339.176 629.848 347.857C635.774 346.006 641.67 338.624 647.761 337.407C648.119 338.557 648.373 340.176 650 339.646C650.709 341.654 651.814 349.372 652.239 351.588C652.06 351.872 651.836 352.126 651.582 352.357C654.262 352.402 656.941 352.499 659.613 352.648C659.434 350.924 661.143 348.319 661.934 347.11L661.957 347.125ZM673.899 338.169C672.57 338.363 672.212 338.004 672.406 336.676C673.735 336.482 674.093 336.84 673.899 338.169ZM674.645 330.705H676.884C675.854 332.108 674.25 337.206 671.66 335.929C671.339 333.257 674.72 334.698 674.645 330.705ZM670.913 338.169C673.481 337.437 671.958 341.102 670.167 340.408L670.913 338.169ZM668.674 340.408C670.309 341.669 667.741 344.461 667.181 345.632C663.121 346.282 667.988 341.445 668.674 340.408ZM663.45 344.886H664.942C663.681 346.535 663.293 348.163 663.45 344.886ZM439.537 338.169C438.208 338.363 437.85 338.004 438.044 336.676C439.373 336.482 439.731 336.84 439.537 338.169ZM443.269 332.198C441.94 332.011 441.582 332.354 441.776 333.69C440.388 331.907 442.097 329.809 443.269 328.466C444.926 327.66 443.045 331.802 443.269 332.198ZM445.508 328.466C441.38 329.361 446.687 322.943 447.001 321.748C448.523 323.48 446.306 326.891 445.508 328.466ZM449.986 327.719L451.479 323.987C453.016 325.421 450.897 326.727 449.986 327.719ZM462.674 309.06L465.66 309.806C464.13 312.18 460.823 312.762 462.674 309.06ZM466.406 329.212H467.899C467.183 330.809 467.123 330.809 466.406 329.212ZM459.689 331.451C460.652 328.996 464.943 324.047 467.153 321.002C467.809 317.845 470.228 314.113 471.631 311.299C479.475 309.605 462.592 331.324 459.689 331.451ZM473.87 303.089C478.386 299.021 489.201 296.498 494.769 294.132C498.732 296.133 476.744 305.164 473.87 303.089ZM607.471 303.835C606.561 303.91 603.15 306.873 605.232 303.835H607.471ZM524.631 256.814C524.937 250.469 525.9 241.17 530.498 235.818C533.759 229.631 541.141 224.817 548.037 225.876C551.754 225.13 555.576 224.861 558.218 224.719C576.049 223.898 586.633 230.049 596.283 243.379C596.522 243.946 596.724 244.693 596.91 245.573C597.298 246.014 597.664 246.469 597.985 246.954C597.895 246.312 597.821 245.834 597.776 245.618C600.784 247.059 605.322 258.575 601.508 260.546C601.276 259.665 601.978 257.306 601.12 256.776C601.366 259.098 601.418 261.449 601.433 263.658C603.635 264.733 604.016 268.256 602.142 269.816C602.187 269.965 602.224 270.107 602.262 270.248C602.015 270.233 601.777 270.226 601.538 270.226C598.321 271.831 593.999 272.204 591.7 275.137C591.171 275.816 590.558 276.204 589.939 276.354C589.812 277.04 589.7 277.749 589.573 278.459C585.17 279.056 579.4 277.944 576.139 274.727C563.801 267.882 548.015 273.667 535.834 267.263C534.438 267.255 534.625 258.777 534.924 250.701C534.64 250.514 534.371 250.32 534.118 250.119C533.647 256.612 532.811 262.583 532.102 262.785C529.356 261.479 521.474 261.956 524.639 256.814H524.631ZM595.529 276.966C594.246 277.645 593.857 277.958 594.037 276.219L595.529 276.966ZM591.051 303.089C589.058 303.499 586.707 307.194 584.334 307.567C581.102 303.671 573.086 302.156 568.66 300.103C567.189 297.663 568.921 297.573 570.899 297.118L576.124 294.132C576.071 291.438 579.408 285.303 580.602 282.937C586.61 282.482 587.17 291.498 588.812 295.625C590.984 295.565 597.858 296.834 598.515 299.357C599.09 304.47 594.858 306.903 590.305 307.567C590.379 305.53 592.26 304.753 594.037 304.582C594.783 302.38 592.223 303.261 591.051 303.089ZM557.464 278.459C554.979 279.392 548.224 279.041 548.508 275.473C547.313 275.764 546.604 275.077 546.269 273.98C548.314 273.936 554.307 273.913 553.732 276.966C554.867 276.585 556.621 277.824 557.464 278.459ZM555.971 275.473C560.002 276.264 572.832 275.712 573.884 279.951C573.093 279.354 564.025 280.444 565.674 277.712C563.331 277.399 556.636 278.884 555.971 275.473ZM558.957 280.698C562.637 281.974 572.989 280.496 564.928 286.669C564.241 287.049 555.837 281.429 557.464 285.176C558.808 284.892 560.465 285.46 561.196 286.669C562.502 286.646 566.354 288.43 566.421 285.922C567.921 285.728 570.526 284.728 571.645 283.683L576.87 282.937C576.952 284.833 577.146 289.087 575.377 290.401C572.451 295.558 563.592 294.909 558.957 292.64C555.382 288.244 548.202 279.832 558.957 280.698ZM538.058 276.966L539.551 277.712C538.267 278.391 537.879 278.705 538.058 276.966ZM517.906 264.277C523.273 263.725 528.751 268.412 530.595 273.234C534.185 272.361 545.507 289.699 544.029 279.951C542.97 280.728 535.827 274.055 539.551 273.98C547.925 277.488 552.717 285.549 554.479 294.132C558.36 295.125 566.577 294.595 566.742 299.529C567.906 300.051 568.563 301.148 568.734 302.335C578.527 305.306 595.343 309.105 571.645 311.299C545.664 305.739 570.966 299.454 555.971 303.089C552.105 305.567 547.814 302.671 548.508 305.328C555.195 304.44 562.666 312.284 569.406 312.792C575.862 313.687 586.386 311.448 592.544 310.553C590.021 316.964 586.647 328.72 578.363 329.212C570.72 330.227 558.561 326.868 555.225 319.509C554.374 320.912 553.217 323.853 552.986 325.48C549.859 323.181 537.275 310.695 550.747 319.509C550.784 317.822 545.903 316.292 544.776 315.777C543.634 313.874 541.895 309.806 541.79 307.567C541.454 308.679 540.76 309.329 539.551 309.06C537.193 307.067 534.483 296.693 532.087 297.118C532.058 295.357 527.333 294.006 526.116 293.386C520.354 289.624 520.466 279.824 522.385 273.98C523.9 273.047 526.139 277.003 526.863 277.712C528.953 280.436 523.206 264.486 521.638 265.77C520.869 269.532 518.324 290.975 513.428 279.205C512.555 273.712 509.719 265.166 517.906 264.277ZM555.971 331.451C557.195 330.265 556.009 328.757 555.225 327.719C561.569 328.316 564.316 331.369 555.971 331.451ZM556.718 335.929C554.979 336.109 555.285 335.721 555.971 334.437L556.718 335.929ZM496.261 338.169L497.008 331.451C498.015 330.772 498.68 339.87 496.261 338.169ZM497.754 299.357C497.194 297.909 499.023 296.976 499.993 296.372C503.718 296.013 498.956 299.021 497.754 299.357ZM505.218 293.386C508.711 292.953 503.568 297.536 501.486 296.372L505.218 293.386ZM502.232 350.111C503.762 350.021 506.666 349.872 507.457 351.603C506.166 351.439 502.255 352.35 502.232 350.111ZM503.725 347.872C502.419 344.505 502.68 334.101 503.725 330.705C507.248 334.698 503.18 344.468 508.95 347.125C509.748 351.365 505.487 349.812 503.725 347.872ZM509.696 350.857C511.144 349.805 509.196 345.401 508.95 344.14C511.607 343.602 513.047 348.088 513.428 350.111L509.696 350.857ZM522.385 357.574C518.72 353.865 524.646 353.186 526.863 351.603C532.162 351.238 523.056 356.865 522.385 357.574ZM524.624 333.69C528.109 333.541 527.564 333.758 525.37 335.929L524.624 333.69ZM540.298 343.393C538.7 340.311 527.445 339.363 527.609 335.929C533.028 333.683 523.915 331.608 521.638 332.944C519.951 335.273 509.435 338.549 510.442 340.408C504.748 336.825 508.547 306.224 507.457 300.103C508.017 295.439 514.249 290.722 517.16 287.415C522.332 291.02 519.19 302.343 522.385 307.567C524.564 312.657 530.386 322.398 533.58 326.973C536.603 330.809 550.65 343.416 540.298 343.393ZM547.769 336.676C535.274 325.973 524.519 309.373 523.138 292.64C524.81 291.729 524.624 298.208 526.124 295.625C531.446 295.842 528.408 298.29 532.095 297.864C531.789 310.194 541.626 317.964 547.022 327.719C549.366 327.115 549.642 328.824 550.008 330.705C556.897 330.07 552.643 337.198 547.769 336.676ZM569.406 344.886L571.645 342.647C573.474 344.752 570.653 344.311 569.406 344.886ZM567.167 339.661C562.801 340.087 556.539 341.721 552.24 342.647C558.352 336.437 571.354 333.116 579.855 330.705C585.879 332.533 568.003 336.78 567.167 339.661ZM575.377 342.647C576.415 342.117 576.564 344.393 576.87 344.886C574.997 345.371 575.407 343.923 575.377 342.647ZM593.29 336.676C590.2 350.529 584.52 346.327 577.616 338.169C579.005 334.579 583.319 331.884 585.826 329.212C589.693 324.794 593.634 316.897 597.022 312.045C599.433 311.53 594.85 318.726 598.515 317.27C599.239 318.121 593.626 335.362 593.29 336.676ZM592.551 290.401C589.088 284.243 594.074 288.191 594.044 284.43C599.605 283.676 596.32 286.161 599.269 285.922C600.202 291.766 596.007 298.976 592.551 290.401ZM596.276 276.219C597.104 276.742 605.322 274.839 603.739 277.712C602.911 277.19 594.693 279.093 596.276 276.219ZM602.247 302.343L602.993 304.582C600.694 305.052 602.008 303.589 602.247 302.343ZM608.964 279.205C614.622 281.228 608.285 289.415 607.471 292.64C601.612 295.036 603.919 285.698 602.993 282.937C600.03 280.571 608.263 280.071 608.964 279.205ZM603.739 343.393C602.075 341.341 604.65 339.467 605.979 338.169C610.382 337.631 604.516 342.49 603.739 343.393ZM610.457 306.821H611.95C611.233 308.418 611.173 308.418 610.457 306.821ZM618.667 313.538C617.898 312.128 617.928 310.702 619.413 309.806C622.899 308.881 618.637 312.605 618.667 313.538ZM637.326 318.016C634.535 317.636 630.281 314.792 628.37 312.792C624.825 312.792 621.07 311.545 623.892 307.567C627.721 308.231 641.775 313.762 637.326 318.016ZM640.312 319.509L639.566 316.524C640.618 317.36 641.387 318.3 640.312 319.509ZM655.986 333.69C657.031 333.16 657.173 335.437 657.479 335.929C654.448 335.803 652.732 336.527 655.986 333.69ZM647.029 321.748C650.933 321.099 656.501 324.047 658.971 326.973C654.918 326.63 648.895 326.047 647.029 321.748Z" fill="#616161"/>
<path d="M602.337 271.232C601.59 270.859 594.5 274.218 593.38 275.337C592.484 276.233 590.768 277.203 590.021 277.576V279.442H587.036C584.797 279.194 580.095 278.472 579.199 277.576C578.303 276.681 576.835 275.71 576.213 275.337L568.75 272.725C567.008 272.352 562.853 271.605 560.166 271.605C557.479 271.605 547.105 271.73 543.373 271.605C541.258 270.725 536.73 268.74 535.536 267.845C534.342 266.949 533.794 264.486 533.67 263.366L529.565 262.247C528.072 262.247 524.937 261.874 524.34 260.381C523.743 258.888 520.608 260.257 519.116 261.127C517.747 260.879 514.712 260.754 513.518 262.247C512.025 264.113 505.681 271.203 512.025 284.265C509.288 286.504 502.844 290.982 498.963 290.982C495.082 290.982 482.17 295.709 476.199 298.073L446.717 313L438.133 330.914L436.641 333.526" stroke="#4AA9CF" stroke-width="2.23913"/>
<path d="M606.297 300.428C606.326 300.428 607.286 300.434 611.925 301.204C615.646 301.822 622.035 303.49 626.322 304.65C630.609 305.81 632.572 306.561 633.953 307.161C636.114 308.099 637.602 309.189 638.912 310.202C640.194 311.395 640.564 311.711 640.798 311.858C640.919 311.923 641.045 311.97 641.176 312.018" stroke="#2E8FB6" stroke-width="2.23913" stroke-linecap="round"/>
<path d="M641.156 312.023C641.168 312.023 641.324 312.053 642.683 312.481C643.898 312.863 646.156 313.646 649.432 314.593C652.709 315.541 656.93 316.646 660.385 317.684C663.84 318.723 666.402 319.66 669.117 320.942C671.833 322.223 674.625 323.819 676.202 324.708C678.513 325.987 679.15 326.465 679.743 327.004C679.886 327.148 680.019 327.295 680.437 327.659" stroke="#2E8FB6" stroke-width="2.23913" stroke-linecap="round"/>
<path d="M680.274 327.406C680.368 327.473 680.729 327.81 681.427 328.583C681.831 329.032 682.044 329.66 682.159 330.301C682.336 331.291 681.865 332.375 681.504 333.592C681.335 334.16 681.168 334.621 680.554 335.771C679.941 336.922 678.88 338.746 678.307 339.732C677.683 340.811 677.562 340.993 677.44 341.155C677.385 341.231 677.346 341.294 677.305 341.36" stroke="#2E8FB6" stroke-width="2.23913" stroke-linecap="round"/>
<path d="M677.306 341.361C677.261 341.5 676.774 342.421 675.92 343.817C675.483 344.532 674.957 345.21 674.508 345.797C674.058 346.384 673.679 346.846 673.101 347.718C672.523 348.59 671.757 349.857 670.953 351.193" stroke="#2E8FB6" stroke-width="2.23913" stroke-linecap="round"/>
</g>
<path d="M111.21 180.148H119.42L129.869 182.387L140.319 187.611L147.036 194.329L149.275 200.3L150.768 220.452L155.246 229.408L156.739 231.648V235.379L153.007 237.619L148.529 238.365L149.275 244.336L147.036 247.321V254.039L144.051 258.517V260.01L152.261 262.995L156.739 266.727L158.978 271.952L161.964 293.597L165.695 308.524L169.427 318.227L173.159 321.959L182.862 327.184L185.101 328.676L189.579 327.93L196.297 325.691L201.521 326.437L207.492 330.169L221.674 335.394L222.42 336.14H229.884L251.529 327.93L255.261 326.437L250.782 321.213L247.05 317.481L243.319 318.227H237.348L235.108 315.988L233.616 306.285L230.63 303.3L229.137 292.104L226.898 250.307V244.336H204.507L203.014 242.843V183.879L204.507 181.64L214.956 180.894H267.203L277.652 181.64L281.384 183.133V187.611L279.891 189.85L277.652 189.104L260.485 188.358L215.703 187.611L216.449 205.524V239.111L226.152 239.858L226.898 212.988L228.391 209.256L235.108 207.017L289.594 197.314L320.195 192.09L343.333 187.611H352.289L354.529 189.85V204.778L351.543 232.394V238.365L352.289 239.111L351.543 254.785L350.05 267.474L347.811 277.176L344.079 281.655L341.84 282.401L340.347 280.908L341.094 266.727L347.065 206.271L347.811 200.3L306.76 208.51L253.768 218.213H247.05V215.227L258.246 212.242L309.746 202.539L336.616 198.061L346.318 196.568L347.811 195.821L349.304 191.343L331.391 195.075L304.521 201.046L273.174 207.017L243.319 212.242L241.079 212.988L242.572 217.466V309.271L260.485 304.046L292.579 295.089L320.195 287.626L334.376 284.64H339.601L338.855 288.372L334.376 292.104L318.702 297.329L309.746 299.568L310.492 311.51L322.434 313.003L429.912 327.184L493.354 336.14L539.63 342.858L558.289 344.35L559.782 346.589L557.543 414.51L555.304 469.741L553.811 476.459L550.079 480.191L544.108 482.43L544.854 483.923V489.147L541.869 492.879L536.644 495.118H523.21L485.144 487.654L428.42 476.459L413.492 473.473L411.999 472.727V483.923L412.746 492.879L424.688 495.865L456.782 502.582L465.739 505.567L467.978 507.06V511.538L463.499 515.27L447.079 524.227L428.42 533.183L426.181 533.93H417.224L385.13 527.212L322.434 514.524L315.717 512.285L314.224 507.807L317.21 504.075L327.659 499.596L350.797 491.386L354.529 487.654V473.473L353.782 458.546L352.289 461.531L345.572 460.785L316.463 454.814V463.77L320.195 463.024H325.42L329.898 465.263L332.137 469.741V479.444L329.152 485.415L323.181 490.64L321.688 491.386L311.239 492.133L310.492 496.611L306.76 500.343L299.297 502.582L285.862 503.328L273.92 501.089L269.442 498.104L267.949 494.372L266.456 483.176L265.71 481.683L241.079 493.625L220.181 503.328L209.732 508.553L210.478 514.524L214.21 516.763L261.978 524.227L315.717 533.93L348.558 539.154L360.5 542.14L361.246 545.872L359.007 546.618L335.869 543.633L287.355 535.423L261.978 530.944L214.21 523.481L207.492 521.241L204.507 517.51L203.014 513.031V504.821L205.253 501.836L232.123 489.894L251.529 480.937L263.471 475.712H265.71L264.217 462.278V451.828L268.695 448.097L277.652 445.857L285.116 445.111H297.804V438.394L298.55 435.408L295.565 433.915L294.072 431.676L288.847 360.024L287.355 338.379V326.437L276.159 327.184L263.471 330.916L261.978 331.662V333.155L278.398 333.901L281.384 336.887L282.876 346.589L285.862 369.727L285.116 374.205L282.876 375.698H263.471L247.05 374.952L243.319 371.22L244.065 364.502L244.811 361.517L217.942 374.952L203.014 374.205L170.174 371.22L168.681 369.727V365.249L172.413 361.517L188.087 354.8L183.608 355.546L179.13 357.039H167.935L135.84 368.234L97.0289 381.669L76.8767 389.133L97.0289 393.611L137.333 401.075L194.058 410.778L249.29 419.734L278.398 424.959L279.145 425.705V429.437L276.905 430.184L233.616 423.466L116.435 404.807L114.942 404.06L117.181 406.299L203.761 421.973L227.645 427.198L232.123 429.437V430.184H221.674L185.101 424.213L132.109 415.256L116.435 412.271V420.481L118.674 448.097L123.898 492.133V500.343H118.674L117.181 498.85L114.942 480.937L109.717 422.72L108.971 410.031L105.239 409.285L109.717 474.22V483.923H106.732L101.507 479.444L99.268 474.966L96.2825 436.155L41.7971 430.184V440.633L38.8115 455.56L33.5869 468.995L32.0942 471.234H27.6159L26.1232 470.488L26.8695 457.799L29.855 444.365L32.8405 434.662L33.5869 428.691L26.1232 424.213L23.884 419.734L23.1377 411.524L24.6304 401.075L16.4203 380.176L9.70289 363.01L2.23913 340.618L0 329.423V320.466L2.23913 313.003L7.46376 304.792L14.9275 297.329L24.6304 290.611L34.3333 286.133L40.3043 284.64L57.4709 283.894L60.4564 277.923H58.9637L59.7101 271.952L71.6521 234.633L79.1158 212.988L85.0869 198.807L90.3115 191.343L96.2825 186.119L105.239 181.64L111.21 180.148Z" fill="#616161"/>
<path d="M296.311 305.539L300.043 306.285L300.789 309.271L306.014 383.162L308.253 406.299L309.746 410.778H310.492V396.597L308.253 362.263L305.268 321.959V316.734L312.731 318.227L326.166 321.213L368.71 327.184L470.217 340.618L540.376 350.321V358.531L534.405 445.857L533.659 460.039L532.912 466.01L525.449 465.263L430.659 447.35L415.731 444.365H411.253L409.76 447.35L408.268 438.394L404.536 391.372L402.297 377.937L397.818 375.698L391.101 374.205L384.384 373.459H370.949L360.5 374.952L354.529 377.937L353.036 379.43V426.452L352.289 434.662L350.05 431.676L330.645 427.198L309 423.466L304.521 421.227L302.282 416.749L297.804 365.995L293.326 314.495V308.524L296.311 305.539Z" fill="#FBF7FF"/>
<path d="M359.007 385.401L371.695 387.64H385.876L397.818 385.401L399.311 418.988L402.297 468.995V483.176L397.072 478.698L391.847 472.727V457.053L389.608 453.321L383.637 450.336H379.159L375.427 454.068L373.188 460.785L372.442 464.517V469.741L373.934 474.966L378.413 476.459L385.876 477.205L393.34 484.669L398.565 490.64L403.789 497.357V512.285L415.731 510.792H423.941L422.449 507.06L417.224 501.089L420.21 500.343L453.05 507.06L456.036 509.299L445.586 515.27L429.912 523.481L424.688 525.72H414.985L361.246 514.524L326.166 507.807L328.405 505.567L353.036 496.611L357.514 495.865L360.5 504.075L365.724 507.06L376.92 510.046L392.594 512.285L400.804 513.031V509.299L380.652 507.06L367.217 504.075L363.485 501.836L362.739 498.85L359.753 448.843L359.007 430.93V385.401Z" fill="#4AA9CF"/>
<path d="M114.942 214.481H116.435L114.942 221.198L111.956 233.887L111.21 239.111V272.698L113.449 292.104L117.181 309.271L121.659 320.466L123.898 324.198L126.138 324.945L122.406 310.017V305.539L123.898 307.778L129.123 322.705L131.362 324.198L129.869 307.032L126.884 276.43V260.756H127.63L129.123 268.22L130.616 268.966L131.362 266.727L135.094 270.459L138.826 278.669L141.811 289.865L148.529 325.691L150.768 333.901L150.022 337.633L136.587 341.365L129.123 342.858L120.913 343.604H113.449L109.717 342.111L107.478 339.872L104.493 327.184L100.761 308.524L97.0289 298.821L91.8042 289.865L84.3405 282.401L78.3695 278.669L69.413 275.684L73.8912 270.459L88.0724 260.756L90.3115 262.995L96.2825 274.937L108.225 298.075L109.717 300.314H111.21L110.464 289.865L108.225 269.713V239.111L110.464 225.677L113.449 215.974L114.942 214.481Z" fill="#FBF7FF"/>
<path d="M58.2173 312.256L59.7101 315.242L65.6811 336.14L73.1448 358.531L78.3695 366.742L83.5941 372.713L90.3115 374.952H95.5361L94.0434 376.444L71.6521 384.655L64.1883 387.64H62.6956L64.1883 392.865L68.6666 395.104L70.9057 399.582L75.384 402.568L97.0289 407.792V419.734L91.0579 418.242L63.4419 414.51L55.9782 411.524L50.0072 407.046L46.2753 401.821L45.5289 395.85L47.0217 389.133L50.0072 388.386L49.2608 384.655L47.7681 382.415L48.5144 372.713L52.2463 363.01L57.4709 316.734L58.2173 312.256Z" fill="#4AA9CF"/>
<path d="M65.6811 280.162L73.1448 281.655L80.6086 286.133L88.0724 293.597L93.297 304.046L100.014 330.916L102.253 337.633V340.618L95.5361 342.111L88.8187 345.843L85.0869 349.575L81.355 356.292L78.3695 357.785L70.9057 338.379L64.9347 320.466L61.9492 305.539V293.597L63.4419 284.64L65.6811 280.162Z" fill="#FBF7FF"/>
<path d="M41.7971 290.611H55.9782L53.7391 307.032L48.5144 339.126L44.7826 365.249L42.5434 372.713L38.8115 368.981L32.8405 354.053L28.3623 340.618L24.6304 321.959L23.884 315.988V307.778L26.1232 301.06L30.6014 295.836L39.5579 291.358L41.7971 290.611Z" fill="#4AA9CF"/>
<path d="M270.188 459.292L284.369 460.785H294.818L308.253 459.292V467.502L304.521 490.64L300.789 494.372L295.565 495.865H283.623L276.905 494.372L275.413 493.625L272.427 477.205L270.188 459.292Z" fill="#FBF7FF"/>
<path d="M100.014 345.097H102.253V346.589L114.942 348.829H122.406L135.84 346.589L143.304 345.843L144.797 354.053L144.051 357.785L114.942 365.995L99.268 369.727L94.7897 370.473H86.5796L80.6086 365.995L79.8622 362.263L83.5941 359.278L82.8477 354.8L87.326 353.307L91.0579 349.575L95.5361 346.589L100.014 345.097Z" fill="#FBF7FF"/>
<path d="M194.804 330.169L200.029 330.916L209.732 336.887L213.464 341.365L215.703 346.589L214.956 349.575L206 339.872L200.029 336.14L197.79 335.394L200.029 339.126L206.746 345.843L208.985 350.321V352.56L205.253 351.068L198.536 345.097L194.058 342.858L190.326 342.111L192.565 345.843L198.536 350.321L202.268 354.8L200.029 355.546L189.579 350.321L182.862 351.068L178.384 353.307L173.159 354.053L167.188 351.814L159.724 353.307L150.768 355.546L149.275 353.307L148.529 345.097L149.275 342.858L155.993 340.618L159.724 339.872L170.174 339.126L181.369 336.14L192.565 330.916L194.804 330.169Z" fill="#FBF7FF"/>
<path d="M544.854 351.814L550.079 352.56V370.473L546.347 454.068L543.362 463.77L541.123 466.01H538.137L538.883 447.35L543.362 376.444L544.854 351.814Z" fill="#4AA9CF"/>
<path d="M144.051 204.032H144.797L145.543 207.764V221.198L148.529 227.169L151.514 231.648L150.768 233.887L144.051 236.126L144.797 242.843L137.333 244.336V245.829L143.304 248.068L142.558 255.532L141.811 256.278H130.616L126.884 255.532V245.829L129.123 232.394L132.109 224.184L138.08 224.93L141.065 223.437V221.945H133.601L138.08 213.735L144.051 204.032Z" fill="#FBF7FF"/>
<path d="M136.587 262.249L144.051 263.742L151.514 267.474L153.753 270.459L155.246 281.655L156.739 297.329L161.217 312.256L163.456 320.466V332.408L161.964 336.14H157.485L155.993 333.901L152.261 310.017L147.782 289.865L148.529 287.626L151.514 291.358V286.133L148.529 280.162L144.051 274.937L139.572 266.727L136.587 262.249Z" fill="#4AA9CF"/>
<path d="M226.152 341.365L248.543 343.604V345.843L219.435 360.771L211.971 364.502L188.833 363.01V361.517L193.311 359.278H203.014L211.224 356.292L218.688 352.56H220.181V351.068L224.659 348.829L225.406 348.082V342.111L226.152 341.365Z" fill="#4AA9CF"/>
<path d="M287.355 448.843L300.043 449.589L308.253 451.828V454.068L301.536 456.307L288.101 457.799L277.652 457.053L270.188 454.814V452.575L276.159 450.336L287.355 448.843Z" fill="#FBF7FF"/>
<path d="M274.666 309.271L276.905 310.017L277.652 311.51V318.974L270.934 321.959L265.71 323.452H261.232L255.261 318.227L253.768 315.242L274.666 309.271Z" fill="#4AA9CF"/>
<path d="M91.8042 197.314L92.5506 198.807L88.0724 210.749L79.1158 240.604L73.1448 255.532L66.4275 267.474L65.6811 265.234L76.8767 232.394L84.3405 212.242L89.5651 200.3L91.8042 197.314Z" fill="#8C8C91"/>
<path d="M376.173 376.444L388.862 377.191L396.326 379.43L395.579 381.669L388.862 383.908L382.891 384.655H372.442L363.485 383.162L359.753 380.923L361.992 378.684L368.71 377.191L376.173 376.444Z" fill="#4AA9CF"/>
<path d="M208.239 187.611H211.224L211.971 216.72L212.717 239.111L211.971 239.858H208.239V187.611Z" fill="#4AA9CF"/>
<path d="M318.702 469.741H323.927L326.166 473.473L324.674 480.191L320.942 483.923L317.956 485.415H313.478L312.731 483.923L314.971 471.981L318.702 469.741Z" fill="#FBF7FF"/>
<path d="M11.1956 313.003H11.942L14.1811 333.901L17.913 354.053L17.1666 357.039L11.942 343.604L8.95651 330.169V319.72L11.1956 313.003Z" fill="#4AA9CF"/>
<path d="M170.174 326.437L173.906 327.93L179.13 331.662L177.637 333.155L164.949 335.394V333.155L170.174 326.437Z" fill="#FBF7FF"/>
<path d="M35.826 373.459L38.8115 377.191L41.7971 381.669L40.3043 389.879L38.8115 386.894L35.826 375.698V373.459Z" fill="#4AA9CF"/>
<path d="M30.6014 405.553L35.0797 408.539L37.3188 411.524L32.8405 410.778L30.6014 408.539V405.553Z" fill="#4AA9CF"/>
<path d="M85.8332 250.307H87.326L88.0724 254.785L85.0869 257.024H83.5941L85.8332 250.307Z" fill="#4AA9CF"/>
<path d="M574.352 476.086C571.366 473.399 580.82 395.353 585.92 356.665L879.248 355.919L871.038 388.013C866.684 409.036 857.603 451.754 856.109 454.441C854.616 457.128 855.487 462.278 856.109 464.517H859.096L873.651 408.165L866.187 467.502L864.694 478.698L869.172 476.832L876.636 440.633L885.966 364.876L887.085 348.082H576.593L570.995 351.814L558.305 456.68C558.43 466.383 558.604 486.684 558.305 490.267C558.007 493.849 561.913 495.989 563.903 496.611L686.682 493.252V508.926C687.553 509.921 688.025 512.285 682.95 513.778C676.606 515.644 636.675 531.317 625.106 540.274C613.537 549.23 660.932 556.694 675.113 560.799C689.294 564.904 716.91 562.292 735.196 560.799C753.483 559.307 771.769 548.111 776.62 545.872C780.501 544.08 780.477 537.662 779.979 534.676C778.859 532.188 775.202 527.138 769.53 526.839C763.857 526.541 748.507 520.993 741.541 518.256V501.462L839.689 500.716L840.809 499.596V496.611L839.689 495.491L740.794 494.745V493.252L755.722 492.133L846.033 490.267L851.258 489.147L852.004 488.401L851.258 485.789L846.033 484.669L852.751 483.176L856.109 480.191L854.243 476.832L848.272 476.086L741.541 476.832V460.039L778.859 458.919L779.979 456.68L778.486 454.441H746.019L708.7 456.68L706.834 457.426V460.039H735.196V476.086C682.825 477.205 577.337 478.773 574.352 476.086Z" fill="#616161"/>
<path d="M693.756 512.285V494.745H713.163C713.785 499.721 714.656 511.912 713.163 520.868C711.67 529.825 721 534.303 725.852 535.423C737.794 536.666 761.678 539.677 761.678 541.767C761.678 543.857 747.745 546.618 740.779 547.738C721.871 549.106 680.024 551.022 663.902 547.738C643.75 543.633 640.764 541.767 639.271 537.288C638.077 533.706 675.097 519.127 693.756 512.285Z" fill="#4AA9CF"/>
<path d="M799.369 480.937H829.855L843.405 483.923V485.415H812.918L799.369 482.43V480.937Z" fill="#4AA9CF"/>
<path d="M850.66 242.007C851.04 239.433 853.318 233.271 852.927 230.668L837.621 227.834L829.117 226.7C830.342 225.09 830.126 224.092 829.117 222.732C823.505 221.626 824.61 219.183 825.716 214.228C829.815 191.387 835.699 162.089 835.353 138.829C836.153 137.962 833.902 118.727 838.188 121.822L838.755 120.121L837.621 119.554C813.255 118.891 822.756 126.051 819.48 104.815C817.881 103.743 815.857 120.569 816.078 120.688C808.011 122.389 794.456 123.33 787.166 127.491C785.108 144.85 780.89 173.048 778.662 190.418C777.897 194.925 774.337 207.454 776.962 211.394L779.796 200.622C783.441 182.271 785.862 148.121 789.434 129.192L804.173 125.79C814.213 125.422 817.932 119.628 813.811 132.593C815.596 131.442 817.802 125.671 818.346 123.523C821.061 122.922 830.489 122.378 833.652 122.389C832.728 127.718 833.086 138.801 831.385 143.931C827.501 160.752 824.548 193.604 820.047 210.26L817.212 219.33C816.838 218.729 807.189 218.491 809.842 216.496C816.849 200.39 820.897 168.087 824.588 150.734C824.094 150.071 828.63 140.53 825.721 141.097V139.396C825.755 138.155 804.36 138.075 804.179 137.128C791.163 138.841 821.657 140.887 824.588 141.097C821.005 157.106 817.535 180.111 813.822 196.087C811.707 200.339 809.893 212.737 808.147 217.063C796.962 214.018 772.925 211.989 761.661 209.126C759.847 209.426 756.099 209.772 754.291 209.126C753.565 212.323 758.979 211.184 761.094 211.394C760.878 213.672 757.59 223.134 758.259 225.566C755.623 238.736 750.504 265.55 748.622 278.856C757.483 284.474 767.846 296.407 778.101 297.564C771.888 293.283 763.265 288.606 757.692 283.391L762.228 286.225C769.444 291.18 781.871 295.874 788.867 300.965C788.991 301.294 789.059 301.679 789.088 302.099C790.511 302.609 791.905 303.182 793.272 303.817C793.317 303.624 793.362 303.431 793.402 303.238C805.84 311.623 820.823 320.387 834.219 327.049L839.322 328.749C839.202 327.366 831.753 322.927 830.818 322.513C818.663 317.337 806.532 307.178 795.097 300.971C797.217 287.801 803.136 250.516 807.008 236.91C809.672 208.105 800.585 258.424 798.504 265.256C795.647 272.455 795.641 294.276 790.562 299.837C791.559 293.607 793.725 280.579 793.963 274.326C794.167 264.876 803.873 228.089 799.632 220.47L796.231 240.312C794.241 255.482 789.178 276.537 785.46 291.333L784.893 295.302L781.491 294.168C772.908 289.117 758.055 283.918 752.012 276.027C753.786 261.554 758.906 239.79 761.082 225.572C763.792 217.397 760.397 210.827 772.421 214.234C785.924 216.059 801.974 218.242 815.03 222.743C805.069 219.461 803.068 222.919 816.073 225.005C816.09 227.618 821.305 226.524 821.175 230.107L822.876 228.406C826.594 225.889 822.949 233.22 825.71 232.375C825.71 232.375 827.411 228.973 827.416 228.973C830.438 230.572 845.988 231.661 849.52 232.942C845.767 251.225 837.02 275.959 834.214 294.735L830.812 313.443C836.759 306.22 838.505 279.632 842.15 268.657C842.128 269.332 846.408 250.669 845.552 257.319C842.513 275.93 838.125 300.795 837.048 319.679C840.393 322.281 838.171 319.497 839.316 317.978C841.045 294.99 846.499 264.779 850.654 242.012L850.66 242.007ZM790.567 278.289C792.245 281.197 788.589 294.026 788.3 298.131C782.03 297.399 790.375 282.008 790.567 278.289ZM833.086 142.231C834.214 141.573 833.431 145.343 833.652 145.632C832.524 146.29 833.307 142.52 833.086 142.231ZM820.614 224.999L818.913 224.432C818.686 223.531 819.219 222.975 820.047 222.732C822.025 222.193 820.597 224.098 820.614 224.999ZM818.346 219.897C827.11 202.538 826.974 167.294 832.519 147.333C833.533 161.868 828.261 186.988 825.716 202.323C823.896 205.237 826.09 225.714 818.346 219.897ZM823.448 223.866C824.423 223.752 825.512 223.826 825.716 224.999C824.259 224.982 821.98 226.638 823.448 223.866Z" fill="#616161"/>
<path d="M837.621 227.834L829.117 226.7L830.25 224.432L829.117 222.732L824.581 221.031L825.716 214.228L829.683 192.686L833.651 166.608L835.352 147.333L835.353 138.829L835.919 121.822L838.188 121.822L838.755 120.121L837.621 119.554L832.518 119.554L820.046 120.121V113.885L820.612 105.949L819.48 104.815L818.345 105.382L816.078 120.688L805.873 122.389L791.7 125.223L787.166 127.491L786.031 135.995L782.63 162.072L778.662 190.418L775.827 205.158V209.693L776.962 211.394L779.796 200.622L782.063 186.45L783.763 171.71L789.434 129.192L804.173 125.79L816.077 124.09L814.376 129.759L813.811 132.593L815.51 130.893L818.346 123.523L821.746 122.956L833.652 122.389L832.518 137.129L831.951 137.695L831.385 143.931L829.116 155.27L823.447 194.386L820.047 210.26L817.212 219.33L809.274 217.63L809.842 216.496L811.542 211.96L817.778 189.284L824.581 150.734L826.848 141.664L825.715 141.097V139.396L823.447 138.829L804.172 137.129L800.204 137.695V138.262L805.306 139.396L824.581 141.097L821.179 157.537L817.211 180.214L813.809 196.087L809.274 211.394L808.14 217.063L793.968 214.228L766.189 210.26L761.654 209.126L755.985 209.693L754.284 209.126V210.827L757.119 211.394H761.087L759.953 215.362L758.253 225.566L753.15 251.644L748.615 278.856L753.717 282.824L760.52 287.926L768.457 293.595L776.394 298.131L778.094 297.564L774.126 294.729L767.89 291.328L760.52 285.659L757.686 283.391L762.221 286.225L772.992 292.461L783.763 297.564L788.867 300.965L788.866 302.02C790.34 302.541 791.796 303.131 793.214 303.783L793.401 303.227L797.369 305.495L808.14 312.865L819.479 319.667L826.281 322.502L834.218 327.037L839.32 328.738L838.187 327.037L830.817 322.502L821.746 317.967L816.644 314.565L806.44 308.329L797.936 302.093L795.102 300.959L795.668 295.857L797.936 282.251L807.007 236.899L808.14 227.261L807.007 226.127L801.904 249.938L798.503 265.244L793.968 289.054L791.7 299.259L790.566 299.826L792.834 285.653L793.968 274.315L795.668 263.543L801.338 224.427L800.771 220.458H799.637L796.235 240.3L792.834 260.709L789.999 272.614L785.464 291.322L784.897 295.29L781.496 294.157L772.425 289.621L759.386 282.251L753.15 278.283L752.017 276.015L755.985 251.638L758.819 238.599L761.087 225.561L763.922 213.089L772.425 214.222L781.496 215.356L791.7 217.057L804.739 219.891L812.676 221.592L816.644 223.293L813.243 222.159L806.44 221.025V222.159L810.408 223.86L816.077 224.994V226.127L820.612 227.828L821.179 230.096L822.88 228.395L824.581 227.828V232.363H825.715L827.415 228.962L831.951 230.096L849.525 232.93V234.631L847.257 243.135L843.856 253.906L840.454 266.945L834.218 294.723L830.817 313.431L831.951 313.998L833.084 310.03L837.62 290.188L842.155 268.646L845.556 255.607V257.307L843.856 266.945L841.021 285.653L837.62 310.597L837.053 319.667L838.753 320.801L839.32 317.967L839.887 310.03L841.588 296.424L846.123 267.512L850.659 242.001L852.359 235.198L852.926 230.663L837.62 227.828L837.621 227.834ZM788.866 283.391L790.567 278.289H791.133L790.566 285.092L788.3 298.131L785.464 296.997L788.866 283.391ZM833.086 142.231L833.651 142.231L833.652 145.632L833.084 145.632L833.086 142.231ZM820.614 224.999L818.913 224.432L818.912 223.299L820.047 222.732L821.179 222.732L820.614 224.999ZM818.346 219.897L820.046 219.33V217.63L823.447 202.89L826.281 187.016L831.384 150.734L832.519 147.333L833.084 147.333L831.951 162.639L828.549 187.016L825.716 202.323L822.88 221.031L818.346 219.897ZM822.88 225.566L823.448 223.866L825.148 223.866L825.716 224.999L822.88 225.566Z" fill="#4AA9CF"/>
<path d="M819.48 104.815L820.612 105.949L820.046 113.885V120.121L832.518 119.554L837.621 119.554L838.755 120.121L838.188 121.822L835.919 121.822L835.353 138.829L835.352 147.333L833.651 166.608L829.683 192.686L825.716 214.228L824.581 221.031L829.117 222.732L830.25 224.432L829.117 226.7L837.621 227.834L852.927 230.668L852.359 235.204L850.66 242.007L846.123 267.518L841.588 296.43L839.887 310.036L839.32 317.972L838.753 320.807L837.053 319.673L837.62 310.603L841.021 285.659L843.856 266.951L845.556 257.313V255.612L842.155 268.651L837.62 290.194L833.084 310.036L831.951 314.004L830.817 313.437L834.218 294.729L840.454 266.951L843.856 253.912L847.257 243.14L849.525 234.637V232.936L831.951 230.102L827.415 228.968L825.715 232.369H824.581V227.834L822.88 228.401L821.179 230.102L820.612 227.834L816.077 226.133V224.999L810.408 223.866L806.44 222.165V221.031L813.243 222.165L816.644 223.299L812.676 221.598L804.739 219.897L791.7 217.063L781.496 215.362L772.425 214.228L763.922 213.094L761.087 225.566L758.819 238.605L755.985 251.644L752.017 276.021L753.15 278.289L759.386 282.257L769.591 287.926L768.457 289.627L762.221 286.225L757.686 283.391L760.52 285.659L767.89 291.328L774.126 294.729L778.094 297.564L776.394 298.131L768.457 293.595L760.52 287.926L753.717 282.824L748.615 278.856L753.15 251.644L758.253 225.566L759.953 215.362L761.087 211.394H757.119L754.284 210.827V209.126L755.985 209.693L761.654 209.126L766.189 210.26L793.968 214.228L808.14 217.063L809.274 211.394L813.809 196.087L817.211 180.214L821.179 157.537L824.581 141.097L805.306 139.396L800.204 138.262V137.695L804.172 137.129L823.447 138.829L825.715 139.396V141.097L826.848 141.664L824.581 150.734L817.778 189.284L811.542 211.96L809.842 216.496L809.274 217.63L817.212 219.33L820.047 210.26L823.447 194.386L829.116 155.27L831.385 143.931L831.951 137.695L832.518 137.129L833.652 122.389L821.746 122.956L818.346 123.523L815.51 130.893L813.811 132.593L814.376 129.759L816.077 124.09L804.173 125.79L789.434 129.192L783.763 171.71L782.063 186.45L779.796 200.622L776.962 211.394L775.827 209.693V205.158L778.662 190.418L782.63 162.072L786.031 135.995L787.166 127.491L791.7 125.223L805.873 122.389L816.078 120.688L818.345 105.382L819.48 104.815ZM833.086 142.231L833.084 145.632L833.652 145.632L833.651 142.231L833.086 142.231ZM832.519 147.333L831.384 150.734L826.281 187.016L823.447 202.89L820.046 217.63V219.33L818.346 219.897L822.88 221.031L825.716 202.323L828.549 187.016L831.951 162.639L833.084 147.333L832.519 147.333ZM820.047 222.732L818.912 223.299L818.913 224.432L820.614 224.999L821.179 222.732L820.047 222.732ZM823.448 223.866L822.88 225.566L825.716 224.999L825.148 223.866L823.448 223.866Z" fill="#4AA9CF"/>
<path d="M819.48 104.815L820.612 105.949L820.046 113.885V120.121L832.518 119.554L837.621 119.554L838.755 120.121L838.188 121.822L835.919 121.822L835.353 138.829L835.352 147.333L832.519 147.333L831.951 137.695L832.518 137.129L833.652 122.389L821.746 122.956L818.346 123.523L815.51 130.893L813.811 132.593L814.376 129.759L816.077 124.09L804.173 125.79L789.434 129.192L783.763 171.71L782.063 186.45L779.796 200.622L776.962 211.394L775.827 209.693V205.158L778.662 190.418L782.63 162.072L786.031 135.995L787.166 127.491L791.7 125.223L805.873 122.389L816.078 120.688L818.345 105.382L819.48 104.815ZM833.086 142.231L833.084 145.632L833.652 145.632L833.651 142.231L833.086 142.231Z" fill="#616161"/>
<path d="M848.958 236.904L850.092 238.038L850.66 242.007L846.123 267.518L841.588 296.43L839.887 310.036L839.32 317.972L838.753 320.807L837.053 319.673L837.62 310.603L841.021 285.659L843.856 266.951L845.556 257.313V255.612L842.155 268.651L837.62 290.194L833.084 310.036L831.951 314.004L830.817 313.437L834.218 294.729L840.454 266.951L843.856 253.912L847.257 243.14L848.958 236.904Z" fill="#616161"/>
<path d="M819.48 104.815L820.612 105.949L820.046 113.885V120.121L832.518 119.554L837.621 119.554L838.755 120.121L838.188 121.822L835.919 121.822L835.353 138.829L835.352 147.333L832.519 147.333L831.951 137.695L832.518 137.129L833.652 122.389L821.746 122.956L818.346 123.523L815.51 130.893L813.811 132.593L814.376 129.759L816.077 124.09L811.542 124.657H806.44L807.574 124.09V122.389L808.707 121.822L816.078 120.688L818.345 105.382L819.48 104.815ZM833.086 142.231L833.084 145.632L833.652 145.632L833.651 142.231L833.086 142.231Z" fill="#4AA9CF"/>
<path d="M799.637 220.464H800.771L801.338 224.432L795.668 263.549L793.968 274.32L792.834 275.454L792.267 279.423L791.133 278.289L789.432 283.391L786.598 294.729L785.464 295.863L784.897 295.296L785.464 291.328L789.999 272.62L792.834 260.715L796.235 240.306L799.637 220.464Z" fill="#616161"/>
<path d="M834.218 146.766H834.785V155.27L833.084 171.143L828.549 198.922L826.848 207.992H825.715L825.148 206.858V202.323L827.982 187.016L831.384 162.639L832.518 150.167L833.084 147.333L834.218 146.766Z" fill="#616161"/>
<path d="M807.007 226.133L808.14 227.267L807.007 236.904L797.936 282.257L796.235 291.895L795.668 290.194H794.535L793.968 291.328L794.535 285.659L799.637 259.581L804.172 239.739L807.007 226.133Z" fill="#4AA9CF"/>
<path d="M766.756 221.598L772.992 222.165L792.267 225.566L792.834 227.834L787.732 251.644L782.63 273.187L780.362 281.123L779.228 282.824L779.795 277.722L782.063 267.517L787.165 244.841L789.999 231.235L791.133 227.267L772.425 224.432L765.055 222.732L766.756 221.598Z" fill="#4AA9CF"/>
<path d="M838.187 327.043L830.817 322.508L821.746 317.972L816.644 314.571L806.44 308.335L797.936 302.099L795.102 300.965V297.564H794.535L793.968 300.965L791.7 301.532L792.142 303.312C792.341 303.397 792.539 303.477 792.732 303.567L793.395 303.233L797.364 305.5L808.135 312.87L819.473 319.673L826.276 322.508L834.213 327.043L839.315 328.744L838.181 327.043H838.187Z" fill="#616161"/>
<path d="M824.581 222.165H827.982L830.25 224.432L829.117 226.7L837.621 227.834L852.927 230.668L852.359 235.204L850.659 240.873L849.525 239.739V232.936L831.951 230.102L827.415 228.968L825.715 232.369H824.581V227.834L821.746 228.968L822.313 225.566H825.715V227.267H826.848L827.415 223.866L824.581 222.732V222.165Z" fill="#4AA9CF"/>
<path d="M831.951 142.231H832.518L833.084 146.766L831.384 154.136L826.848 187.016L824.014 202.89L822.313 207.992L821.179 208.559L821.746 202.89L824.014 190.418L829.116 155.27L831.951 142.231Z" fill="#616161"/>
<path d="M805.873 122.389L807.574 122.389V125.223L791.133 128.625L789.434 129.192L786.598 150.167H785.464L784.33 151.301L784.897 144.498L787.166 127.491L791.7 125.223L805.873 122.389Z" fill="#4AA9CF"/>
<path d="M803.605 137.128L823.447 138.829L825.715 139.396V141.097L826.848 141.664L824.581 150.734L820.046 176.245L819.479 175.111H818.345L818.912 170.576L823.447 145.632L824.581 141.097L805.306 139.396L800.204 138.262V137.695L803.605 137.128Z" fill="#4AA9CF"/>
<path d="M791.7 134.294H792.267V141.097L788.299 168.875L783.196 194.386L782.063 202.323L780.929 202.89L780.362 200.622L782.063 189.851L786.031 171.143L790.566 139.396L791.7 134.294Z" fill="#616161"/>
<path d="M750.883 272.62L752.017 273.187V277.155L757.686 281.123L763.355 284.525L769.591 287.926L768.457 289.627L762.221 286.225L757.686 283.391L760.52 285.659L767.89 291.328L774.126 294.729L778.094 297.564L776.394 298.131L768.457 293.595L760.52 287.926L753.717 282.824L748.615 278.856L749.182 273.753L750.316 274.32L750.883 272.62Z" fill="#616161"/>
<path d="M831.384 119.554L837.621 119.554L838.755 120.121L838.188 121.822L835.919 121.822L835.353 138.829L835.352 147.333L832.519 147.333L831.951 137.695L832.518 137.129L833.652 122.389L827.415 122.389L828.549 120.121L831.384 119.554ZM833.086 142.231L833.084 145.632L833.652 145.632L833.651 142.231L833.086 142.231Z" fill="#4AA9CF"/>
<path d="M790.566 302.654C791.139 302.881 791.706 303.114 792.267 303.357V302.093L794.535 300.959L795.668 295.857V290.188H794.535V291.322H793.401V295.29H793.968L793.401 295.857L793.968 299.259L791.133 300.393L790.566 302.654Z" fill="#616161"/>
<path d="M842.722 260.148H843.289L842.722 266.384L837.62 290.194L833.084 310.036L831.951 314.004L830.817 313.437L834.218 294.729L840.454 266.951L842.155 260.715L842.722 260.148Z" fill="#616161"/>
<path d="M795.668 140.53H796.235V147.9L793.401 172.277L789.432 200.622L788.299 206.291H787.732V200.622L789.432 185.316L793.401 157.537L795.668 140.53Z" fill="#616161"/>
<path d="M755.985 237.471L757.686 238.038L756.552 244.274V248.81L752.583 273.187H751.45L750.316 276.588H749.749V272.053L753.15 251.644L755.985 237.471Z" fill="#4AA9CF"/>
<path d="M794.535 259.014L795.668 260.715L795.102 266.384L793.968 274.32L792.834 275.454L792.267 279.423L791.133 278.289L789.432 283.391L786.598 294.729L785.464 295.863L784.897 295.296L785.464 291.328L789.999 272.62L791.7 265.817H793.968V260.148L794.535 259.014Z" fill="#4AA9CF"/>
<path d="M834.218 146.766H834.785V155.27L833.084 171.143L831.951 175.111L830.817 172.844V167.742L832.518 150.167L833.084 147.333L834.218 146.766Z" fill="#616161"/>
<path d="M824.581 222.165H827.982L830.25 224.432L829.117 226.7L834.785 227.834V228.968L839.887 230.102V230.668L831.951 230.102L827.415 228.968L825.715 232.369H824.581V227.834L821.746 228.968L822.313 225.566H825.715V227.267H826.848L827.415 223.866L824.581 222.732V222.165Z" fill="#4AA9CF"/>
<path d="M812.676 244.274L817.211 244.841L827.415 246.542L835.352 248.243L841.021 249.376L839.32 249.943L838.753 251.077L827.982 249.376L815.51 246.542L812.676 244.841V244.274Z" fill="#616161"/>
<path d="M840.454 289.627H842.155L841.588 296.43L839.887 310.036L839.32 317.972L838.753 320.807L837.053 319.673L837.62 310.603L840.454 289.627Z" fill="#616161"/>
<path d="M818.345 175.111H819.479V179.647L816.644 193.819L814.376 201.756H813.243L812.676 203.457L812.109 201.756L815.51 188.717L817.778 176.245L818.345 175.111Z" fill="#616161"/>
<path d="M785.464 149.6H786.031L785.464 158.671L783.196 175.111L781.496 175.678L782.063 166.041L783.763 152.435L785.464 149.6Z" fill="#616161"/>
<path d="M845.556 262.982H846.123V267.518L842.722 289.06L841.588 292.461H841.021V285.659L843.856 266.951L844.423 263.549L845.556 262.982Z" fill="#616161"/>
<path d="M813.243 201.756L813.809 204.024L810.408 215.929L809.274 217.63L811.542 218.763L814.376 220.464V221.031L808.707 220.464L805.873 218.763L808.14 218.196L808.707 213.094L811.542 204.024L813.243 201.756Z" fill="#616161"/>
<path d="M787.165 129.192H788.866L788.299 137.129L786.598 150.167H785.464L784.33 151.301L784.897 144.498L787.165 129.192Z" fill="#616161"/>
<path d="M792.834 274.887H793.401V281.69L791.7 293.028L788.866 293.595L790.566 279.989L792.267 275.454L792.834 274.887Z" fill="#616161"/>
<path d="M803.605 137.128L823.447 138.829L825.715 139.396V141.097L826.848 141.664L823.447 141.097L812.109 139.963L801.904 138.829L800.204 137.695L803.605 137.128Z" fill="#616161"/>
<path d="M809.274 259.581H813.809L826.848 261.848L831.951 263.549V264.116H825.148L810.975 261.281L808.707 260.148L809.274 259.581Z" fill="#4AA9CF"/>
<path d="M758.819 251.077L766.189 252.211L783.196 255.612V256.746L781.496 257.313L774.126 256.179L770.157 255.046L761.087 253.345L758.819 252.211V251.077Z" fill="#616161"/>
<path d="M791.7 214.795H796.235L808.14 217.063V218.196L806.44 218.763L807.574 219.897L801.338 219.33L793.968 217.063L793.401 215.929L791.7 214.795Z" fill="#4AA9CF"/>
<path d="M778.094 193.252L780.362 193.819V197.788L777.527 209.693L776.394 211.394L775.827 209.693V205.158L778.094 193.252Z" fill="#616161"/>
<path d="M810.408 251.077L817.778 251.644L827.982 253.912L833.084 255.612L837.053 256.746L836.486 257.88L827.982 256.179V255.046H824.014L812.676 252.778L810.408 251.077Z" fill="#616161"/>
<path d="M828.549 190.418H829.116V195.52L826.848 207.992H825.715L825.148 206.858V202.323L827.415 190.985L828.549 190.418Z" fill="#616161"/>
<path d="M807.007 226.133L808.14 227.267L807.007 236.904L804.739 247.676H803.038L803.605 242.574L807.007 226.133Z" fill="#4AA9CF"/>
<path d="M831.951 142.231H832.518L833.084 146.766L831.384 154.136L829.683 163.773L827.982 164.907L829.116 155.27L831.951 142.231Z" fill="#4AA9CF"/>
<path d="M790.566 302.654C791.082 302.859 791.587 303.068 792.097 303.289L792.267 302.099L794.535 300.965L795.668 295.863V290.194H794.535V291.328H793.401V295.296H793.968L793.401 295.863L793.968 299.264L791.133 300.398L790.566 302.66V302.654Z" fill="#616161"/>
<path d="M831.384 119.554L837.621 119.554L838.755 120.121L838.188 121.822L835.919 121.822V126.357L834.785 124.09L833.651 123.523L833.652 122.389L827.415 122.389L828.549 120.121L831.384 119.554Z" fill="#616161"/>
<path d="M807.007 265.25L813.809 265.817L828.549 269.218L827.982 270.352L824.014 269.785L807.574 266.951L806.44 265.817L807.007 265.25Z" fill="#616161"/>
<path d="M799.637 220.464H800.771L801.338 224.432L799.637 236.338L798.503 235.204L797.369 236.338L797.936 229.535L799.637 220.464Z" fill="#616161"/>
<path d="M763.922 226.7L775.827 227.267L783.196 228.401L788.299 229.535L786.598 230.668L772.425 228.968L765.055 227.834L763.922 226.7Z" fill="#616161"/>
<path d="M795.102 162.639L808.707 164.34L816.077 166.041L816.644 167.175H812.676L795.668 164.34L795.102 162.639Z" fill="#4AA9CF"/>
<path d="M799.07 150.167L805.873 150.734L819.479 153.002L818.912 154.136L810.408 153.569L799.07 151.301V150.167Z" fill="#616161"/>
<path d="M796.235 276.588L797.369 277.722L797.936 282.257L796.235 291.895L795.668 290.194H794.535L793.968 291.328L794.535 285.659L796.235 276.588Z" fill="#616161"/>
<path d="M799.07 265.817H800.204V270.919L798.503 279.423L797.369 280.556L796.802 277.722L797.369 270.352L799.07 265.817Z" fill="#616161"/>
<path d="M783.763 181.347L784.897 182.481L784.33 188.717L782.063 202.323L780.929 202.89L780.362 200.622L782.063 189.851L783.763 181.347Z" fill="#616161"/>
<path d="M835.352 294.162H836.486L834.785 303.233L831.951 314.004L830.817 313.437L834.218 294.729L835.352 294.162Z" fill="#616161"/>
<path d="M753.15 261.281H753.717V265.817L752.583 273.187H751.45L750.316 276.588H749.749V272.053L750.883 264.683L752.017 262.982H753.15V261.281Z" fill="#616161"/>
<path d="M833.084 137.128L834.785 137.695L835.353 138.829L835.352 147.333L832.519 147.333L831.951 137.695L833.084 137.128ZM833.086 142.231L833.084 145.632L833.652 145.632L833.651 142.231L833.086 142.231Z" fill="#616161"/>
<path d="M761.654 238.605H768.457L778.094 240.306L782.63 240.873L782.063 242.007H777.527L764.488 240.306L761.654 239.172V238.605Z" fill="#414141"/>
<path d="M810.408 172.277L811.542 172.844L807.574 196.654H805.873L808.14 183.615L809.841 173.411L810.408 172.277Z" fill="#444444"/>
<path d="M759.386 244.274L771.291 245.408L780.362 246.542L782.063 248.243L763.922 246.542L759.386 244.841V244.274Z" fill="#616161"/>
<path d="M757.686 230.102L759.386 231.235V236.338L757.119 245.975L755.985 247.109V243.14L757.119 238.605H756.552L757.119 231.235L757.686 230.102Z" fill="#616161"/>
<path d="M783.196 262.415L784.897 262.982L782.63 273.187L780.362 281.123L779.228 282.824L779.795 277.722L782.063 267.517L783.196 262.415Z" fill="#616161"/>
<path d="M766.756 221.598L772.992 222.165L782.063 223.866L780.362 225.566L769.591 223.866L765.055 222.732L766.756 221.598Z" fill="#3B3B3B"/>
<path d="M759.953 261.281H764.488L778.661 263.549L779.795 264.683H773.559L759.386 262.415L759.953 261.281Z" fill="#616161"/>
<path d="M793.401 124.657H796.802L796.235 127.491L789.434 129.192L787.732 129.759L787.166 127.491L791.7 125.223L793.401 124.657Z" fill="#4AA9CF"/>
<path d="M806.44 273.187L817.778 276.021L822.313 277.722L821.746 279.423L814.943 277.155L807.007 275.454L804.739 273.753L806.44 273.187Z" fill="#616161"/>
<path d="M837.62 280.556L838.753 281.123L838.187 287.359L836.486 294.162H835.352V296.997H834.785V292.461L837.053 281.69L837.62 280.556Z" fill="#616161"/>
<path d="M834.218 146.766H834.785V155.27L833.651 156.403L833.084 160.939H831.951V155.27L833.084 147.333L834.218 146.766Z" fill="#616161"/>
<path d="M766.189 232.369L774.126 233.503L783.196 235.204L784.33 236.338L782.063 236.904L772.992 235.204L766.189 233.503V232.369Z" fill="#616161"/>
<path d="M801.338 142.231L808.14 142.798L818.912 144.498H821.746V145.632H813.809L801.904 143.364L801.338 142.231Z" fill="#616161"/>
<path d="M804.172 280.556L809.274 281.69L817.211 284.525L822.313 286.225V286.792H818.345L809.841 283.958L804.172 281.123V280.556Z" fill="#616161"/>
<path d="M843.289 276.021H843.856V281.123L842.722 289.06L841.588 292.461H841.021V285.659L842.722 276.588L843.289 276.021Z" fill="#4AA9CF"/>
<path d="M824.014 194.953H825.148L824.581 200.055L822.88 207.425L821.179 208.559L821.746 202.89L822.88 197.788L824.014 194.953Z" fill="#4AA9CF"/>
<path d="M783.763 159.805H784.897L784.33 167.742L783.196 175.111L781.496 175.678V171.143L782.63 168.875L783.763 159.805Z" fill="#616161"/>
<path d="M820.612 207.425L822.313 207.992L821.746 212.527L820.612 217.63L818.345 218.763L818.912 214.228L820.612 207.425Z" fill="#616161"/>
<path d="M803.605 288.493L807.007 289.06L813.809 292.461L821.179 295.296L818.912 295.863L803.605 289.627V288.493Z" fill="#616161"/>
<path d="M814.943 191.552H816.644L816.077 196.087L814.376 201.756H813.243L812.676 203.457L812.109 201.756L814.943 191.552Z" fill="#616161"/>
<path d="M787.732 281.69L789.432 282.257L787.165 291.895L786.031 295.863L784.897 295.296L785.464 291.328L787.732 281.69Z" fill="#616161"/>
<path d="M798.503 234.07H799.07V240.306L797.369 245.975L796.235 246.542L796.802 241.44V236.904L798.503 234.07Z" fill="#4AA9CF"/>
<path d="M780.929 174.544L783.196 175.111L782.63 181.914L782.063 186.45H781.496L780.362 181.347L780.929 174.544Z" fill="#616161"/>
<path d="M765.055 290.194L767.323 290.761L775.827 295.863L778.094 298.131L775.827 297.564L772.425 295.863L765.055 291.328V290.194Z" fill="#616161"/>
<path d="M758.253 281.69L766.189 286.225L769.591 287.926L768.457 289.627L762.221 286.225L758.819 283.958L758.253 281.69Z" fill="#616161"/>
<path d="M824.581 141.664H826.281L824.014 153.569L822.88 154.136V149.034L824.581 141.664Z" fill="#4AA9CF"/>
<path d="M812.676 244.274L817.211 244.841L822.88 245.975L823.447 247.676L817.211 247.109L813.243 245.408L812.676 244.274Z" fill="#616161"/>
<path d="M830.817 248.243L839.887 248.81L841.021 249.943L839.32 249.943L838.753 251.077L830.817 249.943V248.243Z" fill="#4AA9CF"/>
<path d="M822.313 225.566H825.715V227.267H826.848L826.281 231.235L825.715 232.369H824.581V227.834L821.746 228.968L822.313 225.566Z" fill="#616161"/>
<path d="M786.598 213.661L793.968 214.228L793.401 215.362L795.668 216.496L791.7 217.063L787.732 216.496L787.165 214.228V215.362H786.031L786.598 213.661Z" fill="#616161"/>
<path d="M834.785 227.834L839.887 228.401L843.856 228.968L842.155 231.235H838.187V230.102L834.218 229.535L834.785 227.834Z" fill="#616161"/>
<path d="M791.133 193.819L799.07 194.386L805.306 195.52L804.739 196.654L794.535 195.52L791.133 194.386V193.819Z" fill="#616161"/>
<path d="M791.7 134.294H792.267V141.097L791.133 149.034L789.999 146.766L790.566 139.396L791.7 134.294Z" fill="#616161"/>
<path d="M796.235 240.306L797.369 242.007L796.802 245.975L797.936 244.841L797.369 251.644L796.235 249.943H795.102L795.668 242.574L796.235 240.306Z" fill="#4AA9CF"/>
<path d="M828.549 190.418H829.116V195.52L827.415 198.922L826.281 201.756L825.715 200.055L827.415 190.985L828.549 190.418Z" fill="#616161"/>
<path d="M825.715 186.45L826.848 187.583L825.715 194.386L824.014 194.953L823.447 196.654L824.581 187.016L825.715 186.45Z" fill="#4AA9CF"/>
<path d="M805.873 296.43L808.707 296.997L818.912 301.532L819.479 302.666L816.077 302.099L806.44 297.564L805.873 296.43Z" fill="#616161"/>
<path d="M778.094 193.252L780.362 193.819V197.788L779.228 202.89L778.094 200.622L777.527 197.221L778.094 193.252Z" fill="#616161"/>
<path d="M788.299 193.819H789.999L789.432 200.622L788.299 206.291H787.732V200.622L788.299 193.819Z" fill="#4AA9CF"/>
<path d="M789.999 146.766L790.566 146.766V153.569L789.999 157.537L788.299 158.671L788.866 151.301L789.999 146.766Z" fill="#616161"/>
<path d="M786.031 252.211H786.598V256.746L784.897 262.982L783.763 263.549L784.33 257.88L785.464 252.778L786.031 252.211Z" fill="#4AA9CF"/>
<path d="M779.795 224.432H785.464L790.566 225.566L789.999 226.7L783.196 226.133L779.795 224.999V224.432Z" fill="#4AA9CF"/>
<path d="M788.866 158.104H789.432L788.866 165.474L788.299 168.875H787.165V163.206L787.732 159.238L788.866 158.104Z" fill="#616161"/>
<path d="M759.386 224.432L760.52 226.7L759.953 232.936L758.253 231.802L757.686 228.401L758.819 224.999L759.386 224.432Z" fill="#616161"/>
<path d="M769.024 288.493L772.425 289.627L777.527 292.461V293.595L774.693 293.028L769.024 290.194V288.493Z" fill="#616161"/>
<path d="M807.007 265.25L813.809 265.817L815.51 266.951L816.077 268.084L807.574 266.951L806.44 265.817L807.007 265.25Z" fill="#616161"/>
<path d="M798.503 228.968L800.204 229.535L799.637 236.338L798.503 235.204L797.369 236.338L797.936 229.535L798.503 228.968Z" fill="#616161"/>
<path d="M810.408 251.077L817.778 251.644L821.179 252.778V253.345H815.51L810.408 251.644V251.077Z" fill="#616161"/>
<path d="M813.243 201.756L813.809 204.024L811.542 210.827L810.408 211.394L810.975 205.724L813.243 201.756Z" fill="#4AA9CF"/>
<path d="M776.96 254.479L783.196 255.612V256.746L781.496 257.313L774.126 256.179L774.693 255.046L776.96 254.479Z" fill="#616161"/>
<path d="M761.087 218.763H761.654L761.087 225.566L759.953 226.7L758.819 224.999V221.031L759.953 219.33L761.087 218.763Z" fill="#616161"/>
<path d="M795.668 182.481H803.605L807.007 183.615V184.182L796.235 183.615L795.668 182.481Z" fill="#616161"/>
<path d="M809.274 259.581H813.809L817.211 260.148L816.077 261.848L810.975 261.281L808.707 260.148L809.274 259.581Z" fill="#616161"/>
<path d="M799.07 150.167L805.873 150.734L809.841 151.301V151.868L803.605 152.435L799.07 151.301V150.167Z" fill="#4AA9CF"/>
<path d="M819.48 104.815L820.612 105.949L820.046 111.618H818.345V105.382L819.48 104.815Z" fill="#616161"/>
<path d="M839.887 273.753H840.454L839.887 279.423L839.32 282.257L837.62 280.556L838.753 274.32L839.887 273.753Z" fill="#616161"/>
<path d="M819.479 138.829H823.447L825.715 139.396V141.097L826.848 141.664L823.447 141.097L819.479 140.53V138.829Z" fill="#616161"/>
<path d="M795.102 257.88H795.668V260.715L794.535 260.148L793.968 265.817H792.834L792.267 266.951L792.834 260.715L793.968 258.447L795.102 257.88Z" fill="#616161"/>
<path d="M804.172 239.739L805.873 240.306L805.306 245.408L804.172 247.676H803.038L803.605 242.574L804.172 239.739Z" fill="#616161"/>
<path d="M828.549 183.048H829.116V186.45H830.25L829.683 192.686L827.982 190.985L828.549 183.048Z" fill="#616161"/>
<path d="M824.581 205.158L825.715 206.858L826.281 210.827L825.716 214.228L824.014 211.96L824.581 205.158Z" fill="#4AA9CF"/>
<path d="M781.496 192.686L782.63 193.819V198.355L782.063 202.323L780.929 202.89L780.362 200.622L781.496 192.686Z" fill="#616161"/>
<path d="M829.116 163.773H829.683L829.116 170.009L827.415 171.71V166.608L829.116 163.773Z" fill="#616161"/>
<path d="M817.778 109.35L820.046 111.618L819.479 116.153L817.211 115.019L817.778 109.35Z" fill="#616161"/>
<path d="M791.134 302.876L791.133 300.398L793.968 299.264L793.969 294.729L792.835 295.296L791.701 299.264L788.923 302.042C789.666 302.303 790.403 302.581 791.134 302.876Z" fill="#616161"/>
<path d="M844.423 253.345L845.556 255.612L843.856 261.281L842.155 260.715L843.856 253.912L844.423 253.345Z" fill="#616161"/>
<path d="M822.313 151.868L823.447 154.136L822.88 160.372H821.179L821.746 154.703L822.313 151.868Z" fill="#616161"/>
<path d="M789.999 292.461L791.133 293.028V297.564L788.3 298.131L788.866 293.595L789.999 292.461Z" fill="#616161"/>
<path d="M843.289 270.919H844.99L844.423 277.722L842.722 276.588L843.289 270.919Z" fill="#616161"/>
<path d="M826.848 170.576L828.549 171.143V175.111L827.982 177.946L826.281 176.812L826.848 170.576Z" fill="#4AA9CF"/>
<path d="M787.165 129.192H788.866L788.299 137.129L787.732 134.861H786.598L787.165 129.192Z" fill="#616161"/>
<path d="M794.535 290.194H795.668V295.863L793.401 295.296V291.328H794.535V290.194Z" fill="#616161"/>
<path d="M824.581 211.394L825.148 213.094V218.196H823.447V212.527L824.581 211.394Z" fill="#616161"/>
<path d="M795.102 162.639L803.605 163.773L802.471 164.907L795.668 164.34L795.102 162.639Z" fill="#4AA9CF"/>
<path d="M790.566 225.566L792.834 226.133L791.7 232.936L789.999 232.369L791.133 227.267L789.999 226.133L790.566 225.566Z" fill="#616161"/>
<path d="M778.094 204.591L778.661 205.724L776.962 211.394L775.827 209.693V205.158L778.094 204.591Z" fill="#616161"/>
<path d="M816.077 124.09H817.778L816.077 129.759L813.811 132.593L814.376 129.759L816.077 124.09Z" fill="#404040"/>
<path d="M835.352 294.162H836.486L835.352 300.398L833.084 300.965L834.218 294.729L835.352 294.162Z" fill="#616161"/>
<path d="M780.929 273.187H782.063L780.929 279.989L779.795 282.824L779.228 280.556L780.929 273.187Z" fill="#4AA9CF"/>
<path d="M798.503 273.187H799.07L798.503 279.423L797.369 280.556L796.802 275.454L797.369 274.32H798.503V273.187Z" fill="#616161"/>
<path d="M759.953 261.281H764.488L768.457 261.848L766.756 262.415L766.189 263.549L759.386 262.415L759.953 261.281Z" fill="#616161"/>
<path d="M752.017 257.88L753.717 258.447L754.284 262.415L751.45 263.549L752.017 257.88Z" fill="#616161"/>
<path d="M794.535 295.296L795.102 297.564L793.968 301.532H791.133V300.398L793.968 299.264L793.401 295.863L794.535 295.296Z" fill="#616161"/>
<path d="M794.535 259.014L795.668 260.715L795.102 266.384L793.968 265.817V260.148L794.535 259.014Z" fill="#4AA9CF"/>
<path d="M814.943 191.552H816.644L816.077 196.087L814.943 197.221L813.809 196.087L814.943 191.552Z" fill="#4AA9CF"/>
<path d="M816.644 185.883L817.778 186.45L817.211 191.552H815.51L816.077 186.45L816.644 185.883Z" fill="#616161"/>
<path d="M804.172 280.556L809.274 281.69L812.109 282.824L809.841 283.958L804.172 281.123V280.556Z" fill="#616161"/>
<path d="M790.566 231.802H791.133L790.566 238.605H788.866L789.432 234.07L790.566 231.802Z" fill="#4AA9CF"/>
<path d="M830.25 180.214H830.817V185.316L830.25 186.45H829.116V180.78L830.25 180.214Z" fill="#616161"/>
<path d="M784.897 144.498L786.598 146.766V150.167H785.464L784.33 151.301L784.897 144.498Z" fill="#616161"/>
<path d="M788.866 126.357L791.133 126.924V128.625L787.732 129.759L787.166 127.491L788.866 126.357Z" fill="#616161"/>
<path d="M839.887 302.099H840.454V306.634L839.887 310.036L838.187 309.469L838.753 306.067L839.887 302.099Z" fill="#616161"/>
<path d="M796.802 302.666L799.637 304.367L801.904 305.5H800.204V306.634L797.369 305.5L796.235 304.933L796.802 302.666Z" fill="#616161"/>
<path d="M816.077 276.021L821.179 277.155L822.313 277.722L821.746 279.423L816.077 277.155V276.021Z" fill="#616161"/>
<path d="M845.556 257.313L846.69 257.88L847.257 261.848L846.69 264.683L844.99 263.549L845.556 257.313Z" fill="#616161"/>
<path d="M789.432 238.038H789.999L789.432 244.274H787.732L788.299 239.172L789.432 238.038Z" fill="#616161"/>
<path d="M757.686 230.102L759.386 231.235V234.07L757.686 234.637L757.119 236.338V231.235L757.686 230.102Z" fill="#616161"/>
<path d="M807.007 226.133L808.14 227.267L807.574 232.936L805.873 234.07L806.44 229.535L807.007 226.133Z" fill="#616161"/>
<path d="M780.362 178.513L782.63 179.647L782.063 186.45H781.496L780.362 181.347V178.513Z" fill="#616161"/>
<path d="M813.243 138.262H817.778L819.479 139.396L818.912 139.963H813.809L813.243 138.262Z" fill="#4AA9CF"/>
<path d="M800.204 261.848L801.338 263.549L800.771 268.084L800.204 265.817L798.503 266.384L799.07 262.415L800.204 261.848Z" fill="#616161"/>
<path d="M768.457 253.912H775.26L776.96 255.046L773.559 255.612L768.457 254.479V253.912Z" fill="#4AA9CF"/>
<path d="M755.418 247.676H755.985V251.644L754.284 252.211L753.717 253.345V248.81L755.418 247.676Z" fill="#616161"/>
<path d="M822.88 245.975L827.415 246.542L826.848 248.809L822.88 248.243V245.975Z" fill="#4AA9CF"/>
<path d="M808.707 183.048H809.274L808.707 189.851L807.574 190.985V185.883L808.707 183.048Z" fill="#4AA9CF"/>
<path d="M782.063 169.442L783.196 170.009V175.111L781.496 175.678V171.143L782.063 169.442Z" fill="#616161"/>
<path d="M433.042 151.18L427.605 124.036H433.594L435.918 139.203L437.73 127.857H441.828L443.64 139.282L445.964 124.036H451.952L446.516 151.18H441.867L439.779 137.312L437.652 151.18H433.042ZM457.631 151.652C453.573 151.652 451.092 147.989 451.092 142.04C451.092 136.012 453.613 132.309 457.553 132.309C461.492 132.309 464.014 135.815 464.014 141.606C464.014 142 463.974 142.67 463.856 143.3H456.095C456.292 145.428 456.883 146.61 457.789 146.61C458.419 146.61 458.971 146.019 459.168 145.073L463.659 146.885C462.595 149.84 460.271 151.652 457.631 151.652ZM456.134 140.188H459.247C459.207 138.061 458.656 136.958 457.749 136.958C456.883 136.958 456.331 138.021 456.134 140.188ZM463.696 133.412C465.626 129.709 466.217 126.36 466.217 123.169H471.102C471.102 128.566 467.872 132.939 465.705 134.791L463.696 133.412ZM470.724 151.18V132.782H475.964V136.564C476.633 133.609 478.17 132.309 479.549 132.309C479.982 132.309 480.691 132.427 481.479 132.9L480.415 139.085C479.864 138.573 478.918 138.336 478.249 138.336C476.948 138.336 476.042 139.44 476.042 141.449V151.18H470.724ZM488.333 151.652C484.275 151.652 481.793 147.989 481.793 142.04C481.793 136.012 484.314 132.309 488.254 132.309C492.194 132.309 494.715 135.815 494.715 141.606C494.715 142 494.676 142.67 494.557 143.3H486.796C486.993 145.428 487.584 146.61 488.49 146.61C489.121 146.61 489.672 146.019 489.869 145.073L494.36 146.885C493.297 149.84 490.972 151.652 488.333 151.652ZM486.836 140.188H489.948C489.909 138.061 489.357 136.958 488.451 136.958C487.584 136.958 487.033 138.021 486.836 140.188ZM505.993 151.652C502.96 151.652 501.069 147.949 501.069 142C501.069 136.052 503.039 132.309 506.112 132.309C507.49 132.309 508.751 133.176 509.539 134.791V132.782H514.818V151.18H509.539V148.816C508.751 150.431 507.49 151.652 505.993 151.652ZM507.963 146.925C508.869 146.925 509.303 145.428 509.303 142C509.303 138.533 508.869 137.036 507.963 137.036C507.096 137.036 506.466 138.533 506.466 142C506.466 145.428 507.096 146.925 507.963 146.925ZM530.08 151.652C525.628 151.652 521.846 147.24 521.846 137.588C521.846 127.975 525.628 123.563 530.08 123.563C533.271 123.563 536.305 125.336 537.605 130.063L532.68 132.191C532.325 129.945 531.577 129.078 530.434 129.078C528.504 129.078 527.44 132.072 527.44 137.588C527.44 143.103 528.504 146.137 530.434 146.137C531.577 146.137 532.325 145.27 532.68 143.025L537.605 145.152C536.305 149.88 533.271 151.652 530.08 151.652ZM539.365 151.18V124.036H546.89C551.342 124.036 554.178 127.463 554.021 132.663C553.863 136.406 552.248 138.336 550.593 139.361L554.572 151.18H548.466L545.59 140.818H544.999V151.18H539.365ZM544.999 136.642H545.984C547.284 136.642 547.954 135.264 547.954 132.86C547.954 130.497 547.284 129.118 545.984 129.118H544.999V136.642ZM556.486 151.18V124.036H568.383V129.078H562.277V135.224H567.674V140.424H562.277V146.137H568.58V151.18H556.486ZM570.99 151.18V124.036H579.342C584.306 124.036 586.354 129.866 586.354 137.706C586.354 145.507 584.306 151.18 579.342 151.18H570.99ZM576.781 146.137H577.569C579.736 146.137 580.484 142.434 580.484 137.706C580.484 132.979 579.657 129.078 577.49 129.078H576.781V146.137ZM588.726 151.18V124.036H594.517V151.18H588.726ZM600.493 151.18V129.078H596.238V124.036H610.499V129.078H606.245V151.18H600.493ZM623.558 151.652C619.815 151.652 616.27 149.289 616.27 143.064V124.036H622.061V143.891C622.061 145.585 622.81 146.137 623.558 146.137C624.346 146.137 625.095 145.585 625.095 143.891V124.036H630.846V143.064C630.846 149.289 627.34 151.652 623.558 151.652ZM633.701 151.18V124.036H639.098L642.447 138.061V124.036H648.238V151.18H642.841L639.531 137.982V151.18H633.701ZM651.168 151.18V124.036H656.959V151.18H651.168ZM667.426 151.652C661.91 151.652 659.349 146.61 659.349 137.588C659.349 128.606 661.91 123.563 667.426 123.563C672.941 123.563 675.462 128.606 675.462 137.588C675.462 146.61 672.941 151.652 667.426 151.652ZM667.386 146.137C668.804 146.137 669.632 142.867 669.632 137.588C669.632 132.309 668.804 129.078 667.386 129.078C666.007 129.078 665.219 132.309 665.219 137.588C665.219 142.867 666.007 146.137 667.386 146.137ZM677.868 151.18V124.036H683.265L686.614 138.061V124.036H692.405V151.18H687.008L683.698 137.982V151.18H677.868Z" fill="#616161"/>
<rect x="407.299" y="1.06901" width="320.703" height="198.836" stroke="#8C8C91" stroke-width="2.13802"/>
<path d="M561.079 46.3828C561.1 46.3624 561.127 46.3508 561.156 46.3504L566.831 46.238C566.91 46.2367 566.984 46.2049 567.04 46.1494C567.095 46.0939 567.127 46.0189 567.129 45.9404C567.163 44.3612 567.153 43.0895 567.099 42.1252C567.091 42.0007 567.012 41.8172 566.861 41.5748C566.644 41.2276 565.869 41.1681 565.566 41.1714C563.937 41.1891 562.485 41.1951 561.211 41.1896C561.165 41.1892 561.122 41.1708 561.09 41.1386C561.058 41.1063 561.04 41.0628 561.04 41.0177C561.047 38.6285 561.049 36.2685 561.047 33.9378C561.047 33.7681 561.023 33.5702 560.974 33.3443C560.968 33.3183 560.956 33.2943 560.938 33.2749C560.92 33.2554 560.897 33.2412 560.872 33.2336C560.586 33.1454 560.305 33.1024 560.029 33.1046C559.599 33.1068 558.704 33.1052 557.343 33.0997C556.793 33.0975 556.344 33.1438 555.997 33.2385C555.894 33.2674 555.804 33.3282 555.738 33.4121C555.673 33.496 555.636 33.5985 555.633 33.7047L555.44 46.4876C555.447 53.8193 555.443 58.5211 555.43 60.5929C555.417 62.4906 555.777 64.1618 556.974 65.7156C558.012 67.0634 559.445 67.8392 561.272 68.0431C562.905 68.2249 564.652 68.2993 566.277 67.8298C566.569 67.745 566.769 67.6623 566.876 67.5819C566.956 67.5219 567.02 67.4439 567.065 67.3541C567.109 67.2642 567.132 67.1651 567.132 67.0645C567.124 64.9189 567.112 63.7116 567.095 63.4427C567.082 63.2322 566.957 63.111 566.719 63.079C566.258 63.0173 565.711 63.0019 565.077 63.0327C564.487 63.0625 563.923 63.0179 563.378 62.9815C563.305 62.9771 563.234 62.9649 563.165 62.9451C561.752 62.544 561.044 61.5406 561.04 59.935C561.027 53.659 561.029 49.1671 561.047 46.4595C561.047 46.4307 561.059 46.4032 561.079 46.3828Z" fill="#1C4483"/>
<path d="M447.851 42.0617C449.706 42.0617 451.111 42.1226 452.734 42.1311C453.027 42.1195 453.312 42.2234 453.529 42.4204C453.55 42.438 453.588 42.5449 453.643 42.7411C453.993 43.9687 454.184 44.6437 454.219 44.7661C455.456 49.2623 456.847 54.304 458.392 59.8913C458.521 60.3574 458.671 60.9531 458.84 61.6782C458.875 61.8237 458.909 61.9217 458.945 61.9724C458.979 62.0211 459.027 62.059 459.082 62.0816C459.137 62.1043 459.198 62.1108 459.256 62.1004C459.315 62.09 459.369 62.0631 459.413 62.0229C459.457 61.9826 459.488 61.9307 459.503 61.8733C461.038 56.1097 461.859 53.0422 461.965 52.6708C462.621 50.3632 463.143 48.2837 463.864 45.8504C464.048 45.2322 464.359 44.1555 464.796 42.6204C464.809 42.5767 464.83 42.5359 464.856 42.4998C465.029 42.2562 465.266 42.1328 465.567 42.1295C467.343 42.1129 468.92 42.1273 470.298 42.1725C470.371 42.1746 470.44 42.2048 470.492 42.2568C470.543 42.3088 470.572 42.3787 470.574 42.4518C470.577 42.6193 470.546 42.8039 470.481 43.0056C469.376 46.4351 468.2 50.6751 466.484 55.9295C466.419 56.1301 466.327 56.3427 466.276 56.5009C465.132 60.0142 463.996 63.5312 462.869 67.0522C462.634 67.7812 462.168 68.3697 461.343 68.3713C459.839 68.3724 458.364 68.3779 456.92 68.3879C456.58 68.3901 456.341 68.3531 456.202 68.2771C455.467 67.8671 455.25 66.8076 455.002 66.062C452.069 57.2613 449.477 49.5301 447.228 42.8684C447.149 42.6359 447.148 42.4099 447.226 42.1906C447.236 42.1651 447.25 42.1419 447.269 42.1226C447.288 42.1032 447.31 42.0881 447.335 42.0782C447.532 42.0011 447.64 42.0617 447.851 42.0617Z" fill="#1C4483"/>
<path d="M534.834 44.6622C533.484 48.0086 534.027 51.4543 537.114 53.828C540.147 56.1571 545.229 55.8403 547.353 59.2848C547.697 59.8425 548.001 60.7671 547.823 61.3917C547.614 62.1324 547.264 62.6828 546.046 63.2413C543.422 64.2363 540.275 63.9738 538.604 60.7058C538.418 60.3433 538.566 60.2998 538.405 60.1927C538.297 60.1213 538.152 60.1169 538.017 60.1169C536.576 60.1169 535.14 60.1169 533.699 60.1213C533.581 60.1213 533.446 60.1258 533.366 60.2061C533.285 60.282 533.285 60.4024 533.285 60.505C533.328 62.8252 534.199 64.1438 535.952 65.7813C540.034 69.5961 547.687 69.489 550.935 64.7773C554.032 60.2843 551.526 54.7605 546.638 52.6634C544.369 51.6908 542.105 51.2535 540.179 49.6963C539.394 49.0583 538.889 48.0231 539.222 47.0995C539.529 46.2518 540.459 45.7208 541.389 45.529C543.949 45.0069 546.654 46.1458 547.294 48.4928C547.337 48.64 547.461 48.7471 547.611 48.7516L550.093 48.7739L552.575 48.7962C552.779 48.7962 552.002 46.7833 552.017 46.8236C551.737 46.0489 550.879 44.6907 550.655 44.4079C549.501 42.9504 547.407 41.704 545.299 41.2578C541.637 40.4859 536.656 40.6398 534.957 44.3833C534.957 44.3833 534.861 44.5864 534.834 44.6622Z" fill="#1C4483"/>
<path d="M495.598 62.0499C495.598 58.6281 495.598 55.8489 495.608 53.7123C495.624 49.3307 496.936 45.5401 500.459 43.1323C503.037 41.3713 506.259 40.9791 509.476 41.0583C509.554 41.0583 510.144 41.1293 510.144 41.2127V47.2567C510.144 47.4403 509.983 47.5905 509.786 47.5864C508.79 47.553 507 47.6156 506.066 47.7157C504.178 47.9202 502.876 48.7798 502.155 50.2988C501.729 51.196 501.537 52.8276 501.579 55.1896C501.6 56.3496 501.6 60.5059 501.584 67.6626H495.598C495.598 65.6345 495.598 63.7609 495.598 62.0499Z" fill="#1C4483"/>
<path d="M531.451 54.9014H532.624C532.629 54.7185 532.634 54.5313 532.634 54.3442C532.634 46.5304 527.6 40.7207 521.393 40.7207C515.186 40.7207 510.152 46.5304 510.152 54.3442C510.152 62.1579 515.186 68.4916 521.393 68.4916C525.783 68.4916 529.584 65.3226 531.433 60.704C531.524 60.4776 531.356 60.2251 531.116 60.2251H526.902C526.794 60.2251 526.698 60.2774 526.635 60.3644C525.335 62.1535 523.468 63.2766 521.393 63.2766C517.619 63.2766 514.538 59.5722 514.307 54.897H531.447L531.451 54.9014ZM521.393 45.4117C524.243 45.4117 526.698 47.5273 527.831 50.5744H514.959C516.088 47.5229 518.548 45.4117 521.397 45.4117H521.393Z" fill="#1C4483"/>
<path d="M491.935 54.7334H493.109C493.113 54.5506 493.118 54.3634 493.118 54.1762C493.118 46.3625 488.084 40.5527 481.877 40.5527C475.67 40.5527 470.637 46.3625 470.637 54.1762C470.637 61.9899 475.67 68.3236 481.877 68.3236C486.268 68.3236 490.069 65.1546 491.917 60.536C492.008 60.3097 491.84 60.0572 491.6 60.0572H487.387C487.278 60.0572 487.183 60.1094 487.119 60.1965C485.819 61.9856 483.952 63.1087 481.877 63.1087C478.103 63.1087 475.022 59.4042 474.791 54.729H491.931L491.935 54.7334ZM481.877 45.2437C484.727 45.2437 487.183 47.3593 488.315 50.4064H475.444C476.572 47.355 479.032 45.2437 481.882 45.2437H481.877Z" fill="#1C4483"/>
<path d="M428.846 32.5762H445.831C446.173 32.5762 446.45 32.8537 446.45 33.1961V37.2928C446.45 37.6352 446.173 37.9127 445.831 37.9127H434.291C433.949 37.9127 433.671 38.1902 433.671 38.5326V47.3079C433.671 47.6503 433.949 47.9278 434.291 47.9278H444.545C444.887 47.9278 445.165 48.2053 445.165 48.5477V52.0596C445.165 52.402 444.887 52.6795 444.545 52.6795H434.291C433.949 52.6795 433.671 52.957 433.671 53.2994V62.3672C433.671 62.7095 433.949 62.987 434.291 62.987H445.831C446.173 62.987 446.45 63.2646 446.45 63.6069V67.2651C446.45 67.6074 446.173 67.8849 445.831 67.8849H428.846C428.504 67.8849 428.227 67.6074 428.227 67.2651V33.1961C428.227 32.8537 428.504 32.5762 428.846 32.5762Z" fill="#1C4483"/>
<path d="M429.942 77.5984V80.704H433.594V81.6835H429.942V85.502H428.74V76.619H434.213V77.5984H429.942ZM441.149 84.5225L441.143 85.502H435.67V76.619H441.143V77.5984H436.872V80.5491H440.331V81.4913H436.872V84.5225H441.149ZM450.443 81.0636C450.443 81.7289 450.338 82.3343 450.127 82.8798C449.917 83.4253 449.619 83.8923 449.235 84.2808C448.85 84.6692 448.387 84.9709 447.846 85.1858C447.309 85.3966 446.714 85.502 446.061 85.502H442.744V76.619H446.061C446.714 76.619 447.309 76.7264 447.846 76.9413C448.387 77.1521 448.85 77.4538 449.235 77.8464C449.619 78.2348 449.917 78.7018 450.127 79.2473C450.338 79.7928 450.443 80.3982 450.443 81.0636ZM449.21 81.0636C449.21 80.5181 449.135 80.0304 448.987 79.6006C448.838 79.1708 448.627 78.8072 448.354 78.5096C448.082 78.2121 447.751 77.9848 447.363 77.8278C446.974 77.6707 446.54 77.5922 446.061 77.5922H443.947V84.5287H446.061C446.54 84.5287 446.974 84.4502 447.363 84.2932C447.751 84.1361 448.082 83.9109 448.354 83.6175C448.627 83.32 448.838 82.9563 448.987 82.5265C449.135 82.0967 449.21 81.6091 449.21 81.0636ZM457.575 84.5225L457.569 85.502H452.096V76.619H457.569V77.5984H453.298V80.5491H456.757V81.4913H453.298V84.5225H457.575ZM461.631 80.921C461.979 80.921 462.284 80.8797 462.549 80.797C462.817 80.7102 463.041 80.5904 463.218 80.4375C463.4 80.2804 463.537 80.0945 463.627 79.8796C463.718 79.6647 463.764 79.4271 463.764 79.1667C463.764 78.6377 463.59 78.239 463.243 77.9703C462.896 77.7017 462.375 77.5674 461.681 77.5674H460.367V80.921H461.631ZM465.735 85.502H464.669C464.45 85.502 464.289 85.4172 464.185 85.2478L461.879 82.074C461.809 81.9748 461.733 81.9045 461.65 81.8632C461.571 81.8178 461.448 81.795 461.278 81.795H460.367V85.502H459.17V76.619H461.681C462.243 76.619 462.729 76.6768 463.138 76.7926C463.547 76.9041 463.884 77.0674 464.148 77.2823C464.417 77.4972 464.615 77.7575 464.743 78.0633C464.871 78.365 464.935 78.7039 464.935 79.0799C464.935 79.394 464.886 79.6874 464.787 79.9602C464.687 80.2329 464.543 80.4788 464.353 80.6978C464.167 80.9127 463.937 81.0966 463.665 81.2495C463.396 81.4024 463.09 81.5182 462.747 81.5967C462.9 81.6835 463.032 81.8095 463.144 81.9748L465.735 85.502ZM471.58 82.2042L470.185 78.5902C470.144 78.4828 470.101 78.3588 470.055 78.2183C470.01 78.0737 469.966 77.9207 469.925 77.7596C469.838 78.0943 469.749 78.3733 469.659 78.5964L468.264 82.2042H471.58ZM474.085 85.502H473.155C473.047 85.502 472.96 85.4751 472.894 85.4214C472.828 85.3676 472.779 85.2995 472.746 85.2168L471.915 83.072H467.929L467.098 85.2168C467.074 85.2912 467.026 85.3573 466.956 85.4152C466.886 85.473 466.799 85.502 466.695 85.502H465.766L469.318 76.619H470.533L474.085 85.502ZM480.212 84.4915V85.502H475.173V76.619H476.369V84.4915H480.212ZM490.413 83.6671C490.479 83.6671 490.537 83.694 490.587 83.7477L491.064 84.2622C490.7 84.6837 490.258 85.0122 489.737 85.2478C489.221 85.4834 488.595 85.6011 487.859 85.6011C487.223 85.6011 486.644 85.4916 486.124 85.2726C485.603 85.0494 485.159 84.7395 484.791 84.3428C484.423 83.9419 484.138 83.4625 483.935 82.9046C483.733 82.3467 483.632 81.733 483.632 81.0636C483.632 80.3941 483.737 79.7804 483.948 79.2225C484.158 78.6646 484.454 78.1852 484.834 77.7844C485.218 77.3835 485.677 77.0736 486.21 76.8545C486.743 76.6314 487.332 76.5198 487.977 76.5198C488.609 76.5198 489.167 76.6211 489.651 76.8235C490.134 77.026 490.56 77.3009 490.928 77.648L490.531 78.1997C490.506 78.241 490.473 78.2761 490.432 78.3051C490.395 78.3299 490.343 78.3423 490.277 78.3423C490.202 78.3423 490.111 78.303 490.004 78.2245C489.897 78.1418 489.756 78.0509 489.582 77.9517C489.409 77.8526 489.192 77.7637 488.932 77.6852C488.671 77.6025 488.351 77.5612 487.971 77.5612C487.512 77.5612 487.093 77.6418 486.712 77.803C486.332 77.96 486.004 78.1894 485.727 78.491C485.454 78.7927 485.241 79.1605 485.088 79.5944C484.935 80.0284 484.859 80.5181 484.859 81.0636C484.859 81.6173 484.937 82.1112 485.094 82.5451C485.256 82.979 485.473 83.3468 485.745 83.6485C486.022 83.946 486.347 84.1733 486.719 84.3304C487.095 84.4874 487.5 84.5659 487.934 84.5659C488.198 84.5659 488.436 84.5515 488.646 84.5225C488.861 84.4895 489.058 84.4399 489.235 84.3738C489.417 84.3076 489.585 84.225 489.737 84.1258C489.894 84.0225 490.049 83.9006 490.202 83.7601C490.273 83.6981 490.343 83.6671 490.413 83.6671ZM494.839 80.921C495.186 80.921 495.492 80.8797 495.756 80.797C496.025 80.7102 496.248 80.5904 496.426 80.4375C496.608 80.2804 496.744 80.0945 496.835 79.8796C496.926 79.6647 496.971 79.4271 496.971 79.1667C496.971 78.6377 496.798 78.239 496.451 77.9703C496.103 77.7017 495.583 77.5674 494.888 77.5674H493.574V80.921H494.839ZM498.943 85.502H497.876C497.657 85.502 497.496 85.4172 497.393 85.2478L495.087 82.074C495.017 81.9748 494.94 81.9045 494.858 81.8632C494.779 81.8178 494.655 81.795 494.486 81.795H493.574V85.502H492.378V76.619H494.888C495.451 76.619 495.936 76.6768 496.345 76.7926C496.754 76.9041 497.091 77.0674 497.356 77.2823C497.624 77.4972 497.823 77.7575 497.951 78.0633C498.079 78.365 498.143 78.7039 498.143 79.0799C498.143 79.394 498.093 79.6874 497.994 79.9602C497.895 80.2329 497.75 80.4788 497.56 80.6978C497.374 80.9127 497.145 81.0966 496.872 81.2495C496.604 81.4024 496.298 81.5182 495.955 81.5967C496.108 81.6835 496.24 81.8095 496.351 81.9748L498.943 85.502ZM505.55 84.5225L505.544 85.502H500.07V76.619H505.544V77.5984H501.273V80.5491H504.732V81.4913H501.273V84.5225H505.55ZM514.844 81.0636C514.844 81.7289 514.739 82.3343 514.528 82.8798C514.317 83.4253 514.02 83.8923 513.636 84.2808C513.251 84.6692 512.788 84.9709 512.247 85.1858C511.71 85.3966 511.115 85.502 510.462 85.502H507.145V76.619H510.462C511.115 76.619 511.71 76.7264 512.247 76.9413C512.788 77.1521 513.251 77.4538 513.636 77.8464C514.02 78.2348 514.317 78.7018 514.528 79.2473C514.739 79.7928 514.844 80.3982 514.844 81.0636ZM513.611 81.0636C513.611 80.5181 513.536 80.0304 513.388 79.6006C513.239 79.1708 513.028 78.8072 512.755 78.5096C512.483 78.2121 512.152 77.9848 511.763 77.8278C511.375 77.6707 510.941 77.5922 510.462 77.5922H508.348V84.5287H510.462C510.941 84.5287 511.375 84.4502 511.763 84.2932C512.152 84.1361 512.483 83.9109 512.755 83.6175C513.028 83.32 513.239 82.9563 513.388 82.5265C513.536 82.0967 513.611 81.6091 513.611 81.0636ZM517.699 85.502H516.496V76.619H517.699V85.502ZM525.897 77.6294H523.021V85.502H521.825V77.6294H518.942V76.619H525.897V77.6294ZM533.28 84.5473C533.647 84.5473 533.976 84.4853 534.265 84.3614C534.554 84.2374 534.798 84.0638 534.997 83.8407C535.199 83.6175 535.352 83.3509 535.455 83.041C535.563 82.7311 535.616 82.3901 535.616 82.0182V76.619H536.813V82.0182C536.813 82.5306 536.73 83.0059 536.565 83.4439C536.404 83.882 536.17 84.2622 535.864 84.5845C535.563 84.9027 535.193 85.1528 534.755 85.3346C534.317 85.5164 533.825 85.6073 533.28 85.6073C532.734 85.6073 532.242 85.5164 531.804 85.3346C531.366 85.1528 530.994 84.9027 530.688 84.5845C530.383 84.2622 530.147 83.882 529.982 83.4439C529.821 83.0059 529.74 82.5306 529.74 82.0182V76.619H530.936V82.012C530.936 82.3839 530.988 82.7249 531.091 83.0348C531.199 83.3447 531.352 83.6113 531.55 83.8345C531.753 84.0576 531.998 84.2333 532.288 84.3614C532.581 84.4853 532.912 84.5473 533.28 84.5473ZM546.085 76.619V85.502H545.483C545.388 85.502 545.308 85.4854 545.242 85.4524C545.18 85.4193 545.118 85.3635 545.056 85.285L539.917 78.5902C539.925 78.6935 539.931 78.7948 539.935 78.894C539.94 78.9931 539.942 79.0861 539.942 79.1729V85.502H538.888V76.619H539.508C539.561 76.619 539.607 76.6231 539.644 76.6314C539.681 76.6355 539.714 76.6458 539.743 76.6624C539.772 76.6748 539.801 76.6954 539.83 76.7244C539.859 76.7492 539.89 76.7822 539.923 76.8235L545.062 83.5121C545.054 83.4047 545.045 83.3014 545.037 83.2022C545.033 83.0989 545.031 83.0017 545.031 82.9108V76.619H546.085ZM549.478 85.502H548.275V76.619H549.478V85.502ZM559.877 81.0636C559.877 81.7289 559.772 82.3405 559.561 82.8984C559.35 83.4522 559.052 83.9295 558.668 84.3304C558.284 84.7312 557.821 85.0432 557.28 85.2664C556.742 85.4854 556.147 85.5949 555.494 85.5949C554.841 85.5949 554.246 85.4854 553.709 85.2664C553.172 85.0432 552.711 84.7312 552.327 84.3304C551.942 83.9295 551.645 83.4522 551.434 82.8984C551.223 82.3405 551.118 81.7289 551.118 81.0636C551.118 80.3982 551.223 79.7887 551.434 79.2349C551.645 78.677 551.942 78.1976 552.327 77.7968C552.711 77.3918 553.172 77.0777 553.709 76.8545C554.246 76.6314 554.841 76.5198 555.494 76.5198C556.147 76.5198 556.742 76.6314 557.28 76.8545C557.821 77.0777 558.284 77.3918 558.668 77.7968C559.052 78.1976 559.35 78.677 559.561 79.2349C559.772 79.7887 559.877 80.3982 559.877 81.0636ZM558.643 81.0636C558.643 80.5181 558.569 80.0284 558.42 79.5944C558.271 79.1605 558.061 78.7948 557.788 78.4972C557.515 78.1956 557.185 77.9641 556.796 77.803C556.408 77.6418 555.974 77.5612 555.494 77.5612C555.019 77.5612 554.587 77.6418 554.199 77.803C553.81 77.9641 553.478 78.1956 553.201 78.4972C552.928 78.7948 552.717 79.1605 552.568 79.5944C552.42 80.0284 552.345 80.5181 552.345 81.0636C552.345 81.6091 552.42 82.0988 552.568 82.5327C552.717 82.9625 552.928 83.3282 553.201 83.6299C553.478 83.9274 553.81 84.1568 554.199 84.318C554.587 84.475 555.019 84.5535 555.494 84.5535C555.974 84.5535 556.408 84.475 556.796 84.318C557.185 84.1568 557.515 83.9274 557.788 83.6299C558.061 83.3282 558.271 82.9625 558.42 82.5327C558.569 82.0988 558.643 81.6091 558.643 81.0636ZM568.714 76.619V85.502H568.113C568.018 85.502 567.937 85.4854 567.871 85.4524C567.809 85.4193 567.747 85.3635 567.685 85.285L562.546 78.5902C562.554 78.6935 562.561 78.7948 562.565 78.894C562.569 78.9931 562.571 79.0861 562.571 79.1729V85.502H561.517V76.619H562.137C562.191 76.619 562.236 76.6231 562.273 76.6314C562.311 76.6355 562.344 76.6458 562.373 76.6624C562.401 76.6748 562.43 76.6954 562.459 76.7244C562.488 76.7492 562.519 76.7822 562.552 76.8235L567.691 83.5121C567.683 83.4047 567.675 83.3014 567.666 83.2022C567.662 83.0989 567.66 83.0017 567.66 82.9108V76.619H568.714Z" fill="#1C4483"/>
<path d="M606.174 49.9115C603.288 51.389 585.18 60.6718 581.983 62.3078C580.964 60.8339 580.131 59.2195 579.508 57.4898C582.668 55.8718 600.819 46.5674 603.709 45.0899C603.926 44.9782 604.178 45.0503 604.275 45.2449L606.38 49.3637C606.481 49.5583 606.292 49.8503 606.076 49.962L606.174 49.9115Z" fill="#D7252B" stroke="#D7262A" stroke-width="1.42951" stroke-miterlimit="10"/>
<path d="M616.51 40.2651C615.844 39.1083 615.08 38.0236 614.244 37.0362C611.383 33.6633 607.213 31.393 602.626 30.784C600.456 30.4957 598.215 30.5822 596.031 31.0291C588.002 32.6723 581.963 38.8741 580.363 46.2146L600.366 35.8146C600.521 35.7317 600.712 35.7894 600.792 35.9371L603.112 40.3227C603.192 40.4705 603.134 40.6542 602.979 40.7407C599.959 42.4308 581.916 51.5947 580.32 52.5497L577.516 54.0343C577.48 53.8614 577.484 53.8578 577.451 53.6812C575.401 42.038 583.469 30.6507 595.476 28.2399C600.118 27.3066 604.91 27.8579 609.051 29.739C613.184 31.6165 616.557 34.748 618.705 38.6074C621.044 42.8092 622.521 47.2019 622.092 52.1533C621.703 56.6505 619.84 61.0721 616.748 64.6289C616.283 65.1622 615.793 65.6739 615.282 66.1676C606.435 74.6288 592.471 74.7333 584.093 66.391C583.963 66.2649 583.959 66.2685 583.837 66.1352L586.658 64.6865C588.356 63.9226 606.201 54.3767 609.314 52.8668C609.469 52.7911 609.656 52.8488 609.732 52.9965L612.002 57.4073C612.078 57.5586 612.017 57.746 611.858 57.8253L591.88 68.2721C598.82 71.1585 607.365 69.7568 613.307 64.1172C616.791 60.8091 618.939 56.3731 619.318 51.8037C619.649 47.8362 618.51 43.7317 616.507 40.2614L616.51 40.2651Z" fill="#1C4483" stroke="#1C4483" stroke-width="1.42951" stroke-miterlimit="10"/>
<defs>
<clipPath id="clip0_832_19371">
<rect width="247.864" height="139.826" fill="white" transform="translate(435.141 221.943)"/>
</clipPath>
</defs>
</svg>
