<svg width="840" height="649" viewBox="0 0 840 649" fill="none" xmlns="http://www.w3.org/2000/svg">
<path d="M507.057 56.2266H508.708L510.36 63.1878L515.315 92.1036L518.619 111.916L524.124 144.581L530.731 183.67L532.383 193.845L534.034 204.019V205.625L525.225 207.767L492.191 213.122L471.82 216.87L444.292 221.689L424.472 225.438L407.955 228.651L377.123 235.076L367.213 238.289L363.909 240.967L358.404 243.109H356.752L359.505 250.605L360.606 255.425V263.457L359.505 265.599V284.34L362.257 316.469L363.909 327.714L368.864 329.856L370.516 331.998L371.067 334.14L372.718 365.733L423.921 359.307L443.741 356.63L485.034 351.811L504.854 349.669L517.517 348.598H520.821L523.023 350.74L530.18 375.372V377.514L527.428 376.978L522.472 360.914L520.27 352.346L518.068 351.811L451.449 358.772L416.764 363.591L390.336 366.804L367.763 370.017L399.145 371.088L434.932 372.694L483.933 375.372V378.049L456.955 376.978L409.606 374.836L364.46 372.694L340.235 372.159L327.021 371.623L278.571 370.552L277.47 380.191L276.369 387.688L278.571 387.152L351.797 383.404L383.73 381.798L428.876 379.12L452.55 378.049H459.708L460.258 380.191L459.708 380.727L424.472 383.404L399.145 384.475L313.808 388.759L285.178 390.365L267.56 390.901L266.459 399.468L297.841 396.255L327.572 393.043L355.1 390.365L396.943 386.081L410.157 385.01H417.865L416.764 387.152L393.089 389.83L361.707 393.043L326.471 396.255L281.875 401.075L252.144 403.752V408.571L251.043 413.391L256.549 412.32L275.268 408.571L317.111 402.146L331.426 400.539L364.46 397.862L396.393 394.649L405.202 393.578H410.157V395.72L401.348 397.326L376.572 400.004L332.527 403.752L307.201 406.965L284.628 410.178L254.897 415.533L309.954 423.565L323.167 426.242L325.369 427.313L324.819 428.92H320.965L293.987 424.1L257.099 419.281L229.02 415.533L196.537 411.784L176.166 409.107V413.926L173.964 416.604V417.675L182.222 418.746L225.717 421.958L259.301 424.636L296.189 427.849L303.897 428.384L303.347 431.062L291.785 430.526L258.2 427.849L223.515 424.636L192.683 422.494L190.481 421.958L189.93 428.92L237.279 431.062L282.425 433.203L295.088 434.274L294.538 436.416L293.987 436.952L268.661 435.881L234.526 434.274L205.896 432.668H200.391L198.739 435.345L197.638 436.416L198.189 441.771L199.29 444.984L212.503 445.519L322.617 448.197L329.774 448.732V451.41H318.212L222.964 449.268L206.998 448.732L199.84 448.197V450.874L262.605 454.087L286.279 455.694L286.83 456.764L286.279 458.371L269.212 457.835L227.919 455.694L215.256 454.623H209.2L251.594 459.977L264.807 462.119L265.358 464.797L264.257 465.332L227.919 459.977L197.087 456.229L190.481 454.623V452.481L197.638 451.945L197.087 447.126L194.885 441.771L193.784 438.023L194.335 434.274L196.537 432.668L186.076 431.597L184.975 429.991L186.627 427.849L187.728 421.958L175.615 421.423L171.211 420.352L170.66 419.816V415.533L172.312 412.855L172.862 406.965L173.413 406.43L182.773 406.965L209.75 410.178L248.841 414.997L247.74 410.713L248.29 409.642L248.841 401.61L249.391 401.075L263.706 399.468L264.257 393.043L264.807 388.223L273.066 387.152L275.268 371.623L275.818 368.411L276.92 367.875H300.043L326.471 368.411L320.414 357.701L317.111 351.811V349.133L320.965 345.385L324.819 341.101L329.774 335.211L331.976 333.604L331.426 283.269L328.673 277.379L322.617 266.134L316.01 257.566L310.504 251.141L308.852 247.928L309.403 245.786L311.055 244.715L313.808 250.07L320.414 257.566L325.92 265.599L332.527 277.379L334.179 281.663L334.729 289.695L335.28 341.637L335.83 342.172L340.785 342.708H347.392L356.201 341.101L361.707 338.424L360.606 329.321L358.404 314.863L356.752 296.121L355.651 277.379L353.999 276.308L352.347 270.953L348.493 266.134L339.134 257.566L335.83 253.818L333.077 253.283L333.628 251.141L342.437 245.25L349.044 242.038L357.853 239.896L363.909 238.289L364.46 235.612L353.448 236.147L341.887 237.754L334.729 240.431L327.021 244.715L324.819 244.18V242.038L338.033 235.612L343.538 234.005L360.606 232.399L364.46 231.328L366.111 227.58L365.561 227.044H346.291L333.628 228.651L328.673 230.257L324.268 234.005L320.414 238.289L317.111 240.967H316.01L316.56 237.754L322.066 231.864L326.471 228.115L328.673 226.509L336.931 224.902L353.448 223.296L353.999 222.76V220.083L351.797 218.477L345.19 216.335H339.684L328.122 219.012L322.617 221.154L319.864 227.58L314.909 237.754L311.605 243.644L309.403 244.18L308.852 242.573L314.358 231.328L312.156 225.973L310.504 218.477L311.055 213.122L317.111 200.806V195.986L314.909 178.316L309.954 143.51L307.201 124.768L302.796 103.349L303.347 101.207L338.583 92.6391L373.269 84.6069L401.898 78.1812L444.292 69.078L475.124 62.6523L501.551 57.2975L507.057 56.2266ZM503.753 59.4394L431.078 74.4328L409.056 79.2521L366.111 88.8908L331.426 96.9229L316.01 100.671L306.65 102.813L306.1 103.349L306.65 108.168L309.403 121.555L316.01 165.464L319.313 191.167L319.864 197.593L323.167 196.522L324.819 195.451H328.673L329.774 198.128L329.223 202.948L324.819 212.586L324.268 217.406L341.887 213.122L348.493 214.728L355.1 217.406L356.201 218.477L356.752 223.831L368.314 224.902L368.864 228.651L366.111 233.47V235.076L369.415 234.541L379.876 231.864L407.404 225.973L439.337 220.083L460.258 216.335L493.292 210.444L521.922 205.625L530.731 203.483L529.63 194.38L525.225 168.142L521.371 144.581L514.765 106.026L512.287 91.0327L509.809 76.0393L507.057 59.4394H503.753Z" fill="#616161"/>
<path d="M144.805 542.977H147.558L147.008 545.654L142.603 546.725L139.85 551.009L139.3 553.151L177.839 552.08L225.188 551.009L236.75 550.473L263.728 549.938H273.638L274.739 550.473V552.08L273.638 552.615L249.964 553.686L226.84 555.293L222.435 555.828L221.885 556.364L202.064 559.576L177.289 563.325L172.334 563.86L173.435 566.538L173.985 569.75L175.087 570.286L216.379 571.357L245.009 571.892L262.076 572.428L248.863 569.215L233.447 566.538L226.289 564.931L225.739 562.254L226.289 561.718L276.941 561.183L275.29 560.647L245.009 559.576H223.536L221.885 556.899L222.435 556.364H251.615L281.346 557.434L306.122 559.041L319.886 559.576L351.819 561.718L376.044 563.86L415.134 567.609L415.684 569.75L412.932 570.286H409.078V571.357L401.92 576.176L400.269 576.712V577.783L401.92 577.247H559.382V580.46H358.976L357.875 579.925V577.783L358.976 577.247H394.763L365.583 572.963L344.661 569.75L321.537 566.538L306.672 563.86L303.369 564.396L286.852 569.75L275.84 572.963L300.616 573.499L340.807 574.034L346.313 574.57L345.762 576.712L343.56 577.247L309.976 576.712L271.986 575.641L210.323 574.57L171.783 573.499L170.131 575.105L166.277 583.137H729.508L736.114 582.602V579.925L735.013 578.318L735.564 576.712L738.867 575.641L737.766 572.963L736.114 570.286V568.68L729.508 569.215L696.474 570.286L643.069 571.357L606.181 571.892L472.943 575.105L461.381 575.641L438.258 576.176V573.499L466.337 571.892L538.461 569.75L700.878 567.073L731.159 566.002L733.912 565.467L730.058 563.325L714.642 555.293L710.238 553.151H700.878L700.328 551.009L702.53 549.938L707.485 549.402L711.889 550.473L722.901 555.828L732.811 561.183L739.418 564.931L742.171 566.538L739.418 568.68L742.721 574.57V577.247L738.867 577.783L739.968 580.996V584.744L733.912 586.35H162.424L161.322 585.815L161.873 583.673L168.48 572.428L170.131 569.75V564.396L162.424 566.002H157.468L158.019 562.254L160.221 555.293L158.019 555.828L138.199 556.364L136.547 555.828V551.009L139.85 544.583L144.805 542.977Z" fill="#616161"/>
<path d="M728.948 546.189H734.454L737.757 548.331L745.465 554.222L753.724 560.647L763.083 567.609L771.892 574.57L787.308 586.35L794.466 591.705L801.072 597.06L806.027 600.808L812.634 606.163L812.084 607.769H721.24L111.762 605.628L17.6155 605.092L16.5143 617.408H61.1103L493.305 617.944H807.129V609.376L809.881 609.911L810.432 613.124L809.881 620.621L806.027 621.156H685.453L150.302 620.621L13.2109 620.085L13.7615 612.589L14.8626 605.628L15.4132 604.557L14.8626 602.415L20.3683 598.666L31.3796 592.241L39.0876 587.421L80.9307 561.718L92.4926 554.757L93.5937 554.222L102.953 553.686L131.032 553.151L130.482 555.828L121.673 556.364L97.9983 556.899L93.0432 557.97L82.0318 564.396L72.6722 570.286L30.8291 595.989L20.9189 601.879L135.987 602.415L718.487 604.557H806.027L796.668 597.595L788.96 591.705L780.701 585.279L772.993 579.389L765.836 574.034L757.027 567.073L747.667 560.112L740.51 554.222L734.454 549.938L732.802 549.402L714.083 549.938L711.33 549.402V547.26L715.734 546.725L728.948 546.189Z" fill="#616161"/>
<path d="M574.221 394.652H578.625L578.075 400.007L576.974 404.826L586.333 405.362L585.783 411.252L598.446 412.859L621.019 416.071L623.221 416.607V422.497L626.525 423.033L634.233 426.781V428.923H624.322L625.424 432.671L627.626 435.349L627.075 438.026L624.322 438.562V440.703L626.525 441.774L627.075 442.845V447.129H690.391L690.941 447.665V451.949L689.289 457.303L685.986 462.123L683.233 463.194L682.132 462.658L682.683 460.516L685.435 457.839L687.087 454.626L688.188 449.807L666.166 450.342H632.03L598.446 447.665L553.299 443.381L532.378 441.239L508.153 438.562L507.602 436.42L509.804 435.884L526.322 437.491L567.063 441.774L596.244 444.452L619.367 446.058L623.772 446.594L622.671 442.845L620.468 441.774L608.356 440.703L592.39 438.562L563.76 435.349L525.771 430.529L515.861 429.458L514.209 428.923V426.781L523.018 427.317L554.951 431.065L588.536 435.349L614.963 438.562L617.716 439.097H621.57L622.671 436.42H623.772L621.57 434.278V428.923H608.907L595.142 427.852L561.007 423.033L535.131 420.355L508.703 418.213L497.692 417.678H483.928L469.613 418.749L457.501 420.891L433.276 427.317L416.759 431.065L393.635 435.884L382.073 437.491L383.174 440.703V444.452L380.421 443.381L378.77 437.491L379.32 435.349L417.86 427.852L437.68 423.033L457.501 417.678L470.164 415.536L484.478 414.465H499.894L525.22 416.071L551.097 418.749L587.985 423.568L599.547 425.175L606.154 425.71L624.322 426.246V424.639L617.165 424.104L593.491 421.426L562.108 417.678L536.782 415.536L506.501 413.93H480.074L455.298 416.071L454.748 413.93L455.298 413.394L467.961 411.788L481.175 410.717H507.052L534.58 412.323L562.108 414.465L585.783 417.142L616.615 421.426L619.918 421.962L619.367 419.284L611.109 417.678L586.884 413.93L583.58 412.859L554.4 410.181L507.602 406.433L506.501 405.362L507.052 403.22L532.928 405.362L537.883 405.897L538.434 403.755L574.221 404.826L574.771 398.936L575.322 397.865L570.917 398.401L515.31 401.078L492.186 402.149L463.006 403.755L461.905 402.685V401.078L463.006 400.543L470.714 400.007L487.782 399.472L546.142 396.259L574.221 394.652Z" fill="#616161"/>
<path d="M151.949 451.406L157.455 451.942L180.028 456.761L182.781 457.297V454.619L208.107 459.974L237.287 466.4L259.86 471.219L278.58 474.967V477.645L273.624 477.109L252.703 472.825L222.422 466.4L200.399 461.58L188.286 458.903L185.534 458.367L184.983 459.974L177.826 459.438L159.657 455.69L154.151 454.619V463.722L156.904 469.077L166.264 471.219L193.792 476.574L231.231 484.07L268.119 491.567L281.883 494.245L282.433 495.851L281.332 496.922L271.422 495.315L254.905 492.103L237.287 488.354L218.017 484.606L199.848 480.858L183.331 477.645L162.41 473.361L149.196 471.219L151.949 478.716L152.5 481.929L159.657 483.535L196.545 489.425L215.264 492.638L246.647 497.457L262.613 500.135L263.714 501.206V502.812L257.658 502.277L193.242 492.103L178.376 489.425L151.398 485.141L152.5 487.283L166.264 489.961L198.197 494.78L218.017 497.457L237.287 500.67L267.018 504.954L271.422 506.025L271.973 508.167L269.77 508.702L251.051 505.49L220.77 501.206L193.242 496.922L165.163 493.174L160.758 492.638L158.556 495.851L154.151 501.206L181.68 503.883L214.714 507.631L261.512 512.451L275.276 514.057L285.737 515.128L289.591 516.199V518.341L278.029 517.27L256.557 515.128L229.028 511.915L185.534 507.631L153.05 503.883L146.994 503.348V508.167L156.354 508.702L191.59 511.38L228.478 514.593L270.321 517.806L279.681 518.341V521.018L279.13 521.554H271.973L263.164 520.483L200.399 515.664L145.342 510.844L144.792 513.522V517.806L146.994 519.947L150.297 521.554L153.05 523.696L194.893 525.302L236.736 527.444L280.231 530.122L312.164 531.728L341.344 533.87L350.704 534.941V537.618L339.142 537.083L297.849 533.87L188.286 528.515L171.769 527.444L157.455 526.909L150.848 526.373L145.342 522.625L142.589 520.483L141.488 518.341V512.986L144.241 504.419L145.893 501.206L151.949 500.135L153.601 496.386L156.904 492.638L158.005 491.567L146.443 489.961L144.792 488.354L149.196 486.748V484.606L145.342 483.535L145.893 481.393L149.196 480.858L146.443 473.896L146.994 469.077L147.545 468.006L152.5 468.542L150.848 464.258L150.297 459.438L151.398 451.942L151.949 451.406Z" fill="#616161"/>
<path d="M537.905 473.898H545.063L544.512 476.04L543.411 476.576L526.344 478.718L501.568 483.002L464.68 491.569L451.466 495.318L437.152 499.066L422.286 503.35L415.129 505.492L415.68 515.666L417.882 518.879L427.241 518.343L476.792 514.059L509.827 511.382H521.388L520.838 514.059L470.186 517.808L445.41 519.95L418.983 522.627L418.432 527.446L413.477 534.943L410.724 540.298H415.68L434.399 538.691L468.534 536.014L502.119 532.801L546.164 529.588L588.558 526.911L630.401 525.304H664.536V527.982L622.142 529.053L584.704 530.659L546.164 532.801L518.085 534.943L475.691 538.691L433.848 541.904L412.376 544.046H406.32L406.87 540.833L411.275 532.266L414.028 527.446L365.578 524.233L365.027 521.556L379.342 522.092L400.814 523.698L416.781 524.233L416.23 520.485L414.028 519.414L412.376 516.737L411.826 507.098L407.972 506.027L408.522 504.421L424.489 499.601L443.208 494.247L462.478 488.892L497.163 480.86L525.793 475.505L537.905 473.898Z" fill="#616161"/>
<path d="M653.515 489.965L656.818 491.571L660.121 494.784L660.672 497.997L660.121 499.068H659.02L659.571 501.745L663.975 505.494L673.886 510.849L680.492 515.668L687.099 521.558L687.65 522.094L687.099 529.055L692.054 530.126L695.908 531.732L694.257 536.551L693.706 539.764L698.661 544.048L699.212 546.19L697.009 548.332L696.459 551.009H697.56V552.08H698.661L701.414 554.758L704.167 559.042L705.268 561.719V563.325L702.515 562.79L699.212 556.9L694.257 552.08L692.605 549.403L693.155 547.261L695.358 546.726L694.807 544.048L691.504 542.977L689.852 541.371L690.403 538.158L691.504 533.339L687.65 531.732L683.245 530.126L683.796 527.448L684.346 523.7L681.593 520.487L675.537 515.668L669.481 511.919H668.38L667.279 513.526L636.447 515.668L580.84 519.416L554.412 522.094L516.974 526.377H512.569V524.235L518.075 523.165L556.615 518.345L581.39 516.203L649.661 511.384L666.728 510.313L659.02 506.029L656.267 501.21L636.998 501.745L615.525 502.281L605.065 502.816L596.256 507.1L589.098 510.313H583.593L556.615 506.029L536.794 503.887H514.772L503.21 504.958L484.49 507.636H480.086L480.637 504.958L494.401 502.816L515.322 500.674L548.907 498.532H583.593L600.11 499.068H616.076L648.009 497.997L657.919 497.462L653.515 492.107V489.965Z" fill="#616161"/>
<path d="M499.925 402.678H501.576V405.355L501.026 405.891L472.396 408.568L458.082 410.174L425.048 416.065L410.182 419.278L387.059 424.632L360.631 432.129L352.373 434.806H350.171V435.877L356.777 436.948L380.452 444.981L392.014 448.729L404.677 451.406L423.947 454.084L425.048 455.155L426.149 458.367H434.958V459.974L434.407 460.509L426.699 461.045L395.317 459.438L370.542 457.297L344.665 454.084L333.103 453.013L332.552 450.871L333.103 450.335L341.361 450.871L393.665 456.226L416.239 457.832H423.396L422.295 457.297L403.576 455.155L373.294 450.871L335.856 444.445L324.844 442.839L323.743 441.232V439.626L328.148 440.161L367.238 446.587L379.351 448.729H381.553L371.643 444.981L352.373 439.09L336.957 435.877L317.137 433.2L316.586 430.523H323.743L343.013 433.735L348.519 434.806V432.665L360.081 428.916L387.609 421.419L415.137 414.994L448.171 408.568L463.037 406.426L492.767 403.213L499.925 402.678Z" fill="#616161"/>
<path d="M634.246 543.51H658.471V545.652L656.269 546.187L644.157 546.723L641.954 549.936L635.898 556.361L634.797 557.432L625.988 556.897L556.617 550.471L553.313 549.4L539.549 549.936L458.065 554.219L443.75 554.755H434.391V552.613L438.245 552.077L494.402 548.865L524.684 547.258L547.807 546.187L610.022 544.045L634.246 543.51Z" fill="#616161"/>
<path d="M519.166 354.486L521.369 355.557L523.571 373.764L524.121 384.473H528.526L567.066 378.583H572.021L568.167 391.97L567.616 394.112L564.313 394.647L566.515 385.544L567.616 381.796L547.245 385.009L520.267 388.757L496.593 392.505L470.166 396.254L450.896 399.467L424.469 403.215L396.39 408.034L376.019 411.247L349.592 416.066H347.389L349.041 428.918L348.49 431.595L346.288 431.06L345.187 424.099L344.086 414.46L347.94 413.389L373.266 408.57L429.424 399.467L474.02 392.505L485.031 390.899V389.828L483.93 385.544L447.593 388.221L425.57 390.363H420.064V387.686L428.323 386.615L454.75 384.473L479.525 382.867H484.481L486.132 384.473L488.885 390.363L520.267 385.544L521.919 384.473L521.369 383.938L519.166 363.589L518.065 355.557L519.166 354.486Z" fill="#616161"/>
<path d="M320.426 542.441H325.931L337.493 543.512L371.629 545.654L415.674 548.867L425.034 549.938L424.483 552.08L418.427 555.828L411.269 561.719L409.067 562.254L407.966 564.396L402.46 563.325L384.292 559.577L369.426 555.828L349.606 551.545L328.684 546.725L321.527 545.119L320.426 542.441Z" fill="#616161"/>
<path d="M367.209 337.352H368.31L369.962 363.055V366.803L361.153 368.409H357.299L356.748 370.016L334.726 369.48L333.074 368.945L332.523 359.306V344.848L339.681 345.384H347.389L353.996 344.313L361.703 341.635L365.007 339.493L367.209 338.423V337.352Z" fill="#A64669"/>
<path d="M221.867 555.828L222.418 557.435L223.519 559.041H244.991L275.272 560.112L286.834 560.647V561.183L276.924 561.718L226.272 562.254V564.396L241.688 567.609L253.8 569.751L264.261 572.428V572.963L216.362 571.892L175.069 570.822L173.418 569.751L172.316 563.86L177.272 562.789L202.047 559.041L221.867 555.828Z" fill="#A64669"/>
<path d="M530.191 480.326H548.911L581.945 481.933L645.26 486.216L672.788 488.358L686.002 489.965V492.642L677.743 492.107L657.372 489.965L646.361 489.429L644.159 492.642L641.406 495.855L634.249 495.32L617.181 491.571L602.866 488.894L595.709 487.287L591.855 486.216L560.473 484.075L530.742 482.468L530.191 480.326Z" fill="#616161"/>
<path d="M677.748 558.504H695.366L694.265 560.646L687.658 561.181L617.186 563.323L546.713 566.001L512.578 567.072L499.364 567.607H482.297L482.847 564.93L515.881 563.323L655.175 559.039L677.748 558.504Z" fill="#616161"/>
<path d="M452.567 450.873L454.77 451.944L460.826 459.441L463.579 463.189L475.691 461.583L494.961 458.37H497.163V460.512L491.107 462.118L472.388 465.331L444.859 468.544L418.432 470.686L405.769 471.221H395.859L383.196 470.686L377.14 470.15L374.387 469.079V466.937L385.949 467.473H415.679L431.095 466.402L433.848 465.331L438.803 461.583L446.511 456.228L452.567 450.873Z" fill="#616161"/>
<path d="M169.032 528.518H171.234L170.684 530.659L166.83 535.479L168.482 536.55L170.684 537.085L170.133 539.227L169.032 539.763L162.425 540.298L177.291 541.369L211.976 542.44L300.618 546.188L322.64 547.795L328.146 548.866L328.697 551.008L325.944 551.543L301.168 549.401L280.247 548.33L224.089 546.188L156.92 544.046L151.414 543.511V541.369L156.369 539.763L160.774 538.692L162.425 537.085L164.628 532.801L167.931 529.053L169.032 528.518Z" fill="#616161"/>
<path d="M276.385 464.26H355.667L361.173 465.866L366.128 469.615L368.881 472.292V473.898L352.914 473.363L278.588 467.473L273.633 466.937L273.082 464.795L276.385 464.26Z" fill="#616161"/>
<path d="M550.549 461.045H583.033L627.629 463.187L636.438 464.258L635.887 466.4H629.28L597.347 464.793H542.841L515.863 466.935L497.695 469.077L453.099 476.574L448.694 477.645H446.492L445.941 474.967L456.953 472.825L491.088 466.935L513.111 464.258L534.583 462.116L550.549 461.045Z" fill="#616161"/>
<path d="M677.742 457.836L678.843 458.907L679.394 462.12L677.191 464.797L672.787 466.404L669.483 466.939L670.585 469.616L672.236 471.758L671.686 476.578L671.135 478.184L685.45 479.255L707.473 480.326L713.529 480.862V483.003L712.428 483.539L687.652 482.468L689.304 485.145L691.506 490.5L692.607 492.642V494.248L689.304 493.713L684.899 484.074L683.798 482.468L672.236 481.397L640.303 478.72L590.752 473.9L571.482 472.294L566.527 471.223V469.081L575.336 469.616L664.528 477.649L660.674 476.042L660.124 473.9L661.225 473.365L667.281 474.971H669.483L666.18 468.546L666.731 465.868L672.236 463.191L676.09 461.584L677.742 457.836Z" fill="#616161"/>
<path d="M693.16 576.711H733.352L733.902 579.388L726.745 579.924L630.396 580.995H573.137V578.317L573.687 577.782L650.767 577.246L693.16 576.711Z" fill="#616161"/>
<path d="M257.66 478.186L280.784 480.327L316.571 482.469L342.998 483.54H403.01L422.83 483.005L435.493 482.469L436.594 484.611L435.493 485.682L399.706 486.753H341.897L312.166 485.682L282.435 483.54L259.312 481.398L257.109 480.327L257.66 478.186Z" fill="#616161"/>
<path d="M342.996 546.189L353.457 546.725L406.862 551.009L418.424 552.08L415.671 554.757L411.266 557.97L409.064 559.041L407.963 561.183H404.109L368.322 553.151L344.097 547.26L342.996 546.189Z" fill="#A64669"/>
<path d="M270.324 521.559L300.605 523.165L329.785 525.307L389.797 530.662L405.213 531.733L407.966 532.268L407.415 534.41H401.359L366.122 531.733L328.133 528.52L311.066 526.913L287.391 525.307L269.773 524.236L269.223 523.165L270.324 521.559Z" fill="#616161"/>
<path d="M262.055 495.32L269.763 496.391L284.628 499.069L312.707 502.282L343.539 504.959L369.415 506.565L387.584 507.101L388.135 503.352L390.887 503.888L389.786 509.243L389.236 509.778H375.471L351.247 508.707L324.269 506.565L289.032 502.817L268.661 499.604L263.156 498.533L262.055 496.927V495.32Z" fill="#616161"/>
<path d="M624.881 546.189H640.848L639.196 548.867L634.791 554.222L633.69 554.757L623.229 554.222L570.375 548.867V548.331L587.993 547.26L624.881 546.189Z" fill="#A64669"/>
<path d="M466.887 446.051H485.055L529.101 447.657L573.146 450.335L588.011 451.406L588.562 454.083L576.45 453.547L552.775 451.941L515.887 450.335L477.898 449.264L467.437 448.728L466.887 446.051Z" fill="#616161"/>
<path d="M318.227 562.252L333.642 562.787L360.62 565.465L393.104 568.142L405.767 569.213L403.014 571.891L398.059 575.103L385.946 573.497L363.373 569.749L332.541 565.465L318.227 562.787V562.252Z" fill="#A64669"/>
<path d="M282.977 510.312H289.033L337.483 514.061L363.91 515.667L393.641 516.738L398.596 517.274V519.951H390.337L331.977 516.738L300.595 514.596L286.28 513.525L282.977 512.454V510.312Z" fill="#616161"/>
<path d="M427.777 364.66L516.418 365.196L516.969 367.873H426.676L426.125 365.196L427.777 364.66Z" fill="#616161"/>
<path d="M436.042 487.289H437.693L437.143 489.966L418.974 493.179L401.356 495.321L375.479 496.928H342.445L341.895 494.786L368.322 494.25L389.794 493.179L406.861 491.573L436.042 487.289Z" fill="#616161"/>
<path d="M597.898 451.945H610.011L636.438 453.016L656.259 453.552L677.18 454.623L678.281 455.158L677.731 457.836L617.168 455.694L597.898 454.623V451.945Z" fill="#616161"/>
<path d="M494.401 558.504H500.458L499.907 561.181L459.716 562.788L411.816 564.394V561.717L412.918 561.181L461.367 559.575L494.401 558.504Z" fill="#616161"/>
<path d="M209.211 553.688H215.268V554.223L191.593 558.507L164.065 562.791H160.211L162.413 555.829L162.964 555.294L169.571 554.758L209.211 553.688Z" fill="#A64669"/>
<path d="M480.645 426.775H483.949L484.499 428.917L483.949 429.453L463.027 431.595L447.611 434.272L417.881 440.162L405.218 443.375L402.465 442.84V441.233L411.274 438.556L428.892 434.808L453.668 429.988L469.634 427.846L480.645 426.775Z" fill="#616161"/>
<path d="M294.534 562.787L296.185 563.323L291.23 565.465L274.713 570.284L272.511 570.819H268.106L248.286 566.535L241.679 565.465L240.578 564.394L277.466 563.858L294.534 562.787Z" fill="#A64669"/>
<path d="M548.908 501.209H589.1L599.01 501.744L597.358 503.351L589.1 507.635L586.347 508.17L561.571 503.886L553.313 502.815L543.953 502.28V501.744L548.908 501.209Z" fill="#A64669"/>
<path d="M325.386 197.594H327.588L327.038 202.413L323.184 210.981L319.33 222.226L316.577 228.116L315.476 227.581L313.273 217.406L314.375 212.587L319.33 202.413L324.285 198.129L325.386 197.594Z" fill="#A64669"/>
<path d="M331.445 337.352H332.546L331.995 341.1L330.344 343.242L329.793 346.455L330.894 368.409H329.242L324.838 359.842L319.883 351.809L320.984 349.132L326.49 343.242L331.445 337.352Z" fill="#A64669"/>
<path d="M452.561 454.621L454.212 455.157L458.617 461.047L460.819 463.189V464.26L440.999 466.402H437.695L439.898 464.26L448.707 457.834L452.561 454.621Z" fill="#A64669"/>
<path d="M456.962 438.021H460.816V440.163L456.411 441.234L432.186 444.983L420.074 446.589L419.523 443.912L453.108 438.557L456.962 438.021Z" fill="#616161"/>
<path d="M317.113 466.939H356.204L361.709 469.081L362.81 471.223L347.945 470.152L321.518 468.01L317.113 467.475V466.939Z" fill="#A64669"/>
<path d="M607.805 486.215H613.31L623.771 487.286L643.041 488.357L641.94 491.034L639.738 493.176L634.232 492.641L607.805 486.75V486.215Z" fill="#A64669"/>
<path d="M561.562 407.5H583.585L584.136 409.106H576.978L565.967 408.571L561.562 408.035V407.5Z" fill="#A64669"/>
<path d="M363.922 330.924L367.225 331.995L367.776 334.672L365.023 335.743L363.922 334.672V330.924Z" fill="#A64669"/>
<path d="M337.216 129.107C333.757 129.744 330.511 130.609 327.467 131.466C327.608 134.073 327.729 136.206 327.843 137.928C330.832 136.775 333.821 135.622 335.959 135.027C338.583 134.295 338.02 138.252 334.983 140.991C332.576 141.609 330.366 142.184 328.181 142.891C328.293 144.238 328.406 145.035 328.51 145.596C329.07 148.627 330.471 149.389 332.044 149.053C334.633 148.499 336.665 146.592 339.06 144.435C340.614 143.075 340.771 146.878 339.656 149.137C337.479 151.555 334.396 153.859 331.316 154.518C327.056 155.429 325.832 152.677 325.059 148.492C324.713 146.613 324.097 142.36 322.946 132.81C322.783 132.845 322.625 132.913 322.461 132.948C320.073 133.664 320.447 131.084 322.474 128.595L322.268 126.926C323.37 124.224 326.967 122.119 327.049 124.225C327.073 124.905 327.123 125.545 327.167 126.152C330.719 124.913 334.31 123.699 338.089 122.583C340.641 121.831 340.122 126.395 337.216 129.107ZM357.778 118.713C360.343 118.028 359.816 122.183 356.949 124.92C353.738 125.607 351.036 126.287 348.472 126.973L349.042 133.565C351.085 132.82 353.928 131.8 356.197 131.178C358.788 130.452 358.264 134.435 355.194 137.181C353.201 137.642 351.313 138.114 349.49 138.573L350.279 147.824C349.431 150.609 346.471 153.023 346.312 149.769L343.742 128.293L342.253 128.714C339.531 129.468 340.687 126.137 342.297 123.601C342.553 123.512 342.841 123.416 343.124 123.287L342.949 121.783C343.417 119.525 347.51 115.498 347.827 119.609L347.996 121.628C350.759 120.729 353.981 119.731 357.778 118.713ZM377.427 114.51C379.991 113.825 379.464 117.98 376.597 120.717C373.386 121.404 370.685 122.084 368.12 122.77L368.69 129.362C370.733 128.616 373.576 127.597 375.846 126.975C378.437 126.249 377.912 130.232 374.843 132.978C372.85 133.439 370.961 133.911 369.139 134.37L369.928 143.621C369.079 146.406 366.119 148.82 365.961 145.566L363.391 124.09L361.902 124.511C359.179 125.265 360.336 121.934 361.945 119.398C362.201 119.309 362.49 119.213 362.773 119.084L362.597 117.58C363.066 115.322 367.159 111.295 367.475 115.406L367.644 117.425C370.407 116.526 373.629 115.528 377.427 114.51ZM389.659 117.922L388.355 118.236L390.463 135.734C391.04 135.542 391.612 135.317 392.118 135.106C394.853 133.87 393.932 138.657 391.699 140.402C389.278 141.126 386.812 141.79 384.584 142.267C382.683 142.674 382.804 139.085 384.881 137.237C385.274 137.152 385.661 137.035 386.055 136.951L383.857 119.335L381.706 119.863C379.359 120.434 380.911 115.375 382.548 113.723C385.19 113.089 387.873 112.31 389.975 111.518C392.773 110.44 392.23 115.797 389.659 117.922ZM410.738 112.146C410.99 115.175 407.411 119.4 406.249 116.429C405.598 114.753 404.582 114.045 403.403 114.297C400.421 114.935 398.289 121.283 399.299 126.753C399.938 130.213 401.91 133.697 404.892 133.059C407.055 132.596 408.691 130.944 409.893 128.598C410.725 127.015 412.998 126.598 412.595 131.24C410.989 134.529 408.229 138.031 404.231 138.886C399.087 139.987 395.987 135.375 395.159 130.893C393.108 119.788 398.385 109.445 404.578 108.12C407.167 107.566 409.384 108.873 410.738 112.146ZM421.436 111.125L420.131 111.438L422.239 128.937C422.817 128.745 423.388 128.52 423.894 128.309C426.63 127.073 425.709 131.86 423.476 133.605C421.055 134.328 418.589 134.993 416.361 135.47C414.46 135.876 414.581 132.288 416.658 130.439C417.051 130.355 417.438 130.238 417.831 130.154L415.633 112.537L413.483 113.066C411.136 113.637 412.688 108.577 414.324 106.926C416.967 106.292 419.65 105.513 421.752 104.72C424.55 103.642 424.007 108.999 421.436 111.125ZM441.89 106.715C438.431 107.352 435.185 108.218 432.141 109.075C432.282 111.682 432.403 113.814 432.517 115.537C435.506 114.384 438.495 113.231 440.633 112.636C443.257 111.904 442.694 115.861 439.657 118.6C437.25 119.217 435.04 119.793 432.855 120.5C432.967 121.846 433.081 122.644 433.184 123.204C433.744 126.236 435.145 126.998 436.718 126.662C439.307 126.108 441.339 124.2 443.734 122.044C445.288 120.684 445.445 124.487 444.33 126.746C442.153 129.164 439.07 131.468 435.99 132.127C431.73 133.038 430.506 130.285 429.734 126.101C429.387 124.222 428.771 119.969 427.62 110.419C427.457 110.454 427.299 110.522 427.135 110.557C424.747 111.273 425.122 108.692 427.148 106.204L426.942 104.535C428.044 101.833 431.641 99.7275 431.723 101.834C431.747 102.514 431.797 103.154 431.841 103.761C435.393 102.522 438.984 101.308 442.763 100.191C445.315 99.44 444.796 104.004 441.89 106.715ZM462.375 98.6681C464.564 94.8429 467.25 94.8164 467.333 96.3743C467.677 104.693 468.259 113.372 469.091 122.306C467.294 125.67 465.47 125.752 464.634 124.732C461.036 120.192 457.535 115.803 453.773 111.298C454.193 115.97 454.658 120.7 455.222 125.41C453.675 129.577 450.366 129.737 450.251 127.638C449.823 120.707 449.754 113.699 449.74 106.612C448.826 105.54 447.88 104.475 446.934 103.41C445.306 101.6 447.011 99.2143 451.104 99.0581C455.363 104.416 460.054 110.263 464.644 116.303L462.375 98.6681ZM488.563 95.4981C488.816 98.527 485.236 102.752 484.074 99.781C483.424 98.1047 482.408 97.3972 481.228 97.6495C478.246 98.2874 476.114 104.635 477.125 110.105C477.764 113.565 479.736 117.049 482.718 116.411C484.88 115.948 486.517 114.296 487.719 111.95C488.55 110.367 490.824 109.95 490.421 114.592C488.814 117.881 486.055 121.383 482.057 122.238C476.912 123.339 473.812 118.727 472.984 114.245C470.933 103.14 476.21 92.7969 482.403 91.4721C484.992 90.9183 487.209 92.2253 488.563 95.4981ZM503.396 88.8312C505.571 86.0366 509.275 85.621 508.74 88.4416C507.029 97.0631 505.276 105.83 503.546 115.278C501.907 118.574 497.302 120.382 498.169 117.147L500.871 106.327C500.303 106.757 499.699 106.989 499.109 107.115C496.75 107.62 495.177 106.483 489.461 94.3469C489.41 91.8572 492.78 87.2314 493.852 90.085C497.854 100.875 499.256 102.562 500.403 102.317C501.288 102.128 502.04 100.117 503.396 88.8312ZM367.063 170.366C368.153 176.264 363.414 181.594 357.384 184.905L358.164 191.897C357.392 194.358 354.439 197.182 353.986 193.99L352.985 186.908C352.854 186.936 352.729 186.997 352.597 187.025C350.418 187.765 350.841 184.524 352.327 182.424L351.289 175.145C351.692 172.901 355.7 169.337 356.082 173.434L356.81 179.958C360.658 178.107 363.648 175.481 363.222 173.174C362.79 170.835 357.845 169.7 349.854 171.067C347.378 171.494 348.543 167.1 350.855 165.235C358.631 163.812 366.095 165.127 367.063 170.366ZM379.725 177.763C382.378 179.216 384.962 180.479 388.752 182.374C389.846 184.607 389.386 188.576 387.335 187.61C383.965 185.967 380.061 183.822 377.013 182.076L377.446 187.739C376.8 190.514 373.885 192.988 373.596 189.761L372.618 180.413C370.497 179.257 370.301 176.901 372.117 175.485L371.708 171.428C372.078 169.19 375.844 165.233 376.083 169.293L376.459 174.282C380.783 172.98 383.926 170.63 383.573 168.718C383.159 166.478 378 165.286 369.447 167.116C367.022 167.634 368.446 163.356 370.382 161.298C378.738 159.51 386.529 160.379 387.57 166.014C388.483 170.956 384.479 175.101 379.725 177.763ZM393.698 155.831C402.793 153.988 407.054 159.722 408.222 166.049C409.963 175.473 405.769 184.489 400.133 185.694C395.939 186.592 392.392 183.617 391.321 177.817C390.42 172.94 391.316 167.096 393.718 162.027C390.769 162.657 391.317 157.881 393.698 155.831ZM400.524 180.062C403.538 179.417 405.694 174.674 404.72 169.401C403.825 164.557 401.381 162.203 397.891 161.75C395.577 165.637 394.562 170.101 395.329 174.253C396.035 178.076 398.23 180.552 400.524 180.062ZM426.439 165.475C428.061 166.327 429.008 167.768 429.282 169.251C430.353 175.051 425.137 180.003 419.795 181.146C417.141 181.714 415.033 181.548 413.146 180.924C412.355 179.038 411.981 174.802 414.582 175.787L412.946 162.504C413.782 159.653 416.732 157.001 416.928 159.905L417.413 166.035C418.243 165.549 419.228 165.167 420.211 164.957C420.867 164.817 421.496 164.717 422.104 164.689C424.182 163.217 425.848 161.354 425.574 159.871C425.099 157.3 418.993 156.517 410.768 158.276C407.721 158.928 409.674 154.195 411.093 152.658C418.597 151.053 428.217 150.947 429.234 156.45C429.843 159.745 428.552 162.899 426.439 165.475ZM421.02 176.157C424.493 175.414 426.063 173.399 425.832 172.147C425.552 170.631 423.819 169.735 421.491 169.856C420.239 170.638 418.989 171.247 417.84 171.665L418.192 176.522C419.009 176.518 419.906 176.395 421.02 176.157ZM432.614 151.343C433.79 148.488 438.312 145.123 438.394 148.702C438.616 158.759 439.139 165.464 439.73 168.66C440.052 170.407 440.751 171.422 442.652 171.016C444.519 170.616 446.536 169.363 448.469 168.024C449.531 167.317 450.323 169.58 449.505 172.53C447.623 174.508 444.6 176.217 442.175 176.735C437.293 177.78 436.112 173.785 435.302 169.402C434.809 166.733 433.898 160.693 432.614 151.343ZM464.816 147.811C461.357 148.448 458.111 149.314 455.067 150.171C455.208 152.778 455.329 154.91 455.443 156.633C458.432 155.48 461.421 154.326 463.559 153.732C466.183 152.999 465.62 156.956 462.583 159.696C460.176 160.313 457.966 160.889 455.781 161.596C455.893 162.942 456.006 163.74 456.11 164.3C456.67 167.332 458.071 168.094 459.644 167.757C462.232 167.204 464.265 165.296 466.659 163.14C468.214 161.779 468.371 165.582 467.255 167.842C465.079 170.26 461.996 172.564 458.916 173.223C454.656 174.134 453.432 171.381 452.659 167.196C452.312 165.318 451.697 161.065 450.546 151.514C450.382 151.549 450.225 151.617 450.061 151.652C447.672 152.369 448.047 149.788 450.074 147.299L449.868 145.631C450.97 142.929 454.567 140.823 454.649 142.929C454.673 143.61 454.723 144.25 454.767 144.857C458.319 143.617 461.91 142.404 465.689 141.287C468.241 140.536 467.722 145.1 464.816 147.811ZM492.275 136.765C494.04 144.848 495.957 152.83 498.214 160.808C498.036 163.347 494.098 167.478 493.365 164.244C492.231 160.136 491.19 155.974 490.253 151.824C488.611 158.238 486.558 161.692 484.231 162.19C482.396 162.582 479.847 160.216 477.3 156.753L477.381 167.149C475.692 170.73 472.775 171.354 472.859 169.041L473.165 150.41C471.919 148.278 470.766 146.093 469.82 144.103C470.313 141.428 472.769 137.204 474.062 140.147C474.189 140.462 474.342 140.738 474.474 141.086C475.608 139.85 477.127 139.217 477.147 141.542L477.184 146.536C479.931 151.634 483.133 156.43 484.542 156.129C486.213 155.771 488.105 144.987 488.405 139.237C489.279 136.96 491.826 134.703 492.275 136.765Z" fill="#616161"/>
</svg>
