<svg width="792" height="793" viewBox="0 0 792 793" fill="none" xmlns="http://www.w3.org/2000/svg">
<path d="M344.137 27.4769C343.455 34.2899 333.766 41.9355 332.403 34.8197C331.646 30.8077 329.678 28.7638 326.953 28.7638C320.064 28.7638 312.722 41.7841 312.722 54.3501C312.722 62.2985 315.674 70.9282 322.563 70.9282C327.559 70.9282 331.874 68.0516 335.507 63.434C338.005 60.3303 343.228 60.4817 340.427 70.5497C335.507 77.0598 327.937 83.4942 318.702 83.4942C306.817 83.4942 301.821 71.8366 301.821 61.5415C301.821 36.0309 317.793 15.6679 332.101 15.6679C338.081 15.6679 342.471 19.6042 344.137 27.4769ZM361.745 14.3053C382.714 14.5324 389.829 29.218 389.829 43.7522C389.829 65.4021 376.809 83.3428 363.789 83.3428C354.099 83.3428 347.438 75.0916 347.438 61.7686C347.438 50.5651 351.828 38.0748 359.247 28.0068C352.434 28.0068 355.613 17.7118 361.745 14.3053ZM366.968 71.0796C373.933 71.0796 380.67 61.6172 380.67 49.5054C380.67 38.3776 376.204 32.0189 368.634 29.3694C361.896 36.8636 357.809 46.2503 357.809 55.7884C357.809 64.5695 361.669 71.0796 366.968 71.0796ZM435.222 22.1023C441.657 14.6838 447.637 15.895 447.183 19.3772C444.533 37.9234 442.262 57.378 440.445 77.514C435.071 84.0998 430.983 83.4185 429.545 80.769C423.413 69.0357 417.433 57.6808 410.923 45.9475C409.939 56.4697 409.03 67.1432 408.349 77.8168C403.201 86.2951 395.783 85.0839 396.389 80.3905C398.281 64.8722 401.006 49.354 403.883 33.6843C402.293 30.8834 400.628 28.0825 398.962 25.2817C396.086 20.5126 400.855 16.0464 410.014 17.6361C417.281 31.489 425.306 46.6288 433.027 62.1471L435.222 22.1023ZM489.574 18.7716C493.208 11.3531 498.279 17.2576 498.431 23.6163C488.363 44.3578 481.701 59.8761 472.996 80.0877C471.482 83.5699 467.621 83.6456 466.41 79.9363C460.808 62.1471 455.964 43.9793 451.8 25.5088C453.39 19.7556 462.549 12.0344 463.609 18.6959C465.88 32.5488 468.832 46.326 472.088 60.2546C477.916 44.7363 484.275 29.7479 489.574 18.7716ZM538.164 30.2021C530.216 29.975 522.646 30.3535 515.53 30.8077C514.773 36.6365 514.167 41.4056 513.713 45.2662C520.829 44.1307 527.945 42.9952 532.941 42.6924C539.072 42.3139 536.196 50.7922 528.323 55.4099C522.721 55.637 517.574 55.8641 512.426 56.394C512.123 59.4219 512.048 61.2387 512.048 62.5256C512.048 69.4899 514.849 71.8366 518.482 71.8366C524.462 71.8366 529.761 68.5815 535.969 64.9479C539.981 62.677 538.769 71.1553 535.363 75.6215C529.534 79.9363 521.737 83.5699 514.622 83.5699C504.781 83.5699 503.191 76.9084 503.191 67.2946C503.191 62.9798 503.569 53.2903 504.932 31.6404C504.554 31.6404 504.175 31.7161 503.797 31.7161C498.195 32.1703 500.087 26.6443 505.613 22.1023L505.84 18.3174C509.398 12.867 518.255 9.91478 517.574 14.6081C517.347 16.1221 517.195 17.5604 517.044 18.923C525.446 17.8632 533.925 16.8791 542.782 16.1978C548.762 15.7436 545.734 25.5845 538.164 30.2021ZM568.822 56.1669C574.121 60.6331 579.344 64.6452 586.99 70.6254C588.504 76.0757 585.854 84.6297 581.691 81.526C574.878 76.3028 567.081 69.717 561.025 64.4181L559.662 77.1355C557.089 82.9643 549.594 87.0521 550.276 79.7849L551.941 58.6649C547.702 55.1071 548.232 49.8081 552.85 47.5372L553.606 38.3776C555.348 33.6086 565.34 26.6443 564.204 35.7281L562.993 46.9316C573.137 46.0989 581.085 42.3896 581.085 37.9991C581.085 32.8516 570.109 27.7797 550.351 27.7797C544.75 27.7797 549.67 18.9987 554.818 15.3651C574.121 15.3651 591.077 20.9668 591.077 33.9114C591.077 45.2662 580.48 52.5333 568.822 56.1669ZM597.031 83.3428C591.051 84.9325 592.186 77.0598 596.577 72.4421C609.597 69.9441 616.486 67.0675 616.486 63.5097C616.486 57.9836 594.76 53.9716 594.76 42.3139C594.76 30.5049 615.577 18.923 630.187 15.2137C636.243 13.7754 631.323 27.0985 628.068 29.5965C616.183 31.1862 606.493 33.4572 606.493 38.0748C606.493 44.9634 627.841 48.597 627.841 60.3303C627.841 70.2469 615.577 78.6495 597.031 83.3428ZM655.529 30.2778L652.501 30.3535L650.003 70.0198C651.365 69.8684 652.728 69.6413 653.939 69.4142C660.525 67.9759 656.513 78.1196 650.835 80.9204C645.158 81.3746 639.405 81.6774 634.257 81.6774C629.867 81.6774 631.608 73.8047 636.982 70.7011C637.891 70.7011 638.799 70.6254 639.708 70.6254L642.054 30.6563L637.058 30.8077C631.608 30.9591 637.134 20.5126 641.449 17.6361C647.58 17.4847 653.863 17.0305 658.859 16.2735C665.521 15.2137 662.114 26.7957 655.529 30.2778ZM677.774 14.3053C698.742 14.5324 705.858 29.218 705.858 43.7522C705.858 65.4021 692.838 83.3428 679.817 83.3428C670.128 83.3428 663.466 75.0916 663.466 61.7686C663.466 50.5651 667.857 38.0748 675.275 28.0068C668.463 28.0068 671.642 17.7118 677.774 14.3053ZM682.997 71.0796C689.961 71.0796 696.698 61.6172 696.698 49.5054C696.698 38.3776 692.232 32.0189 684.662 29.3694C677.925 36.8636 673.837 46.2503 673.837 55.7884C673.837 64.5695 677.698 71.0796 682.997 71.0796ZM751.251 22.1023C757.685 14.6838 763.665 15.895 763.211 19.3772C760.562 37.9234 758.291 57.378 756.474 77.514C751.099 84.0998 747.011 83.4185 745.573 80.769C739.442 69.0357 733.461 57.6808 726.951 45.9475C725.967 56.4697 725.059 67.1432 724.377 77.8168C719.23 86.2951 711.811 85.0839 712.417 80.3905C714.31 64.8722 717.035 49.354 719.911 33.6843C718.322 30.8834 716.656 28.0825 714.991 25.2817C712.114 20.5126 716.883 16.0464 726.043 17.6361C733.31 31.489 741.334 46.6288 749.055 62.1471L751.251 22.1023ZM486.871 158.836C486.871 172.386 474.154 181.924 459.393 186.39L458.257 202.211C455.532 207.283 447.811 212.128 448.113 204.861L448.795 188.737C448.492 188.737 448.189 188.812 447.886 188.812C442.739 189.418 445.01 182.454 449.173 178.517L449.855 161.939C451.671 157.17 462.042 151.19 461.209 160.425L460.15 175.187C469.461 172.916 477.182 168.525 477.182 163.226C477.182 157.852 466.66 153.007 448.341 152.25C442.663 152.023 447.054 142.863 452.958 139.835C470.823 140.365 486.871 146.8 486.871 158.836ZM511.974 181.167C517.273 185.633 522.496 189.645 530.142 195.625C531.656 201.076 529.006 209.63 524.843 206.526C518.03 201.303 510.233 194.717 504.177 189.418L502.814 202.135C500.24 207.964 492.746 212.052 493.428 204.785L495.093 183.665C490.854 180.107 491.384 174.808 496.001 172.537L496.758 163.378C498.499 158.609 508.492 151.644 507.356 160.728L506.145 171.932C516.289 171.099 524.237 167.39 524.237 162.999C524.237 157.852 513.261 152.78 493.503 152.78C487.902 152.78 492.822 143.999 497.97 140.365C517.273 140.365 534.229 145.967 534.229 158.911C534.229 170.266 523.631 177.533 511.974 181.167ZM552.027 139.305C572.996 139.532 580.112 154.218 580.112 168.752C580.112 190.402 567.092 208.343 554.071 208.343C544.382 208.343 537.72 200.092 537.72 186.769C537.72 175.565 542.111 163.075 549.529 153.007C542.716 153.007 545.896 142.712 552.027 139.305ZM557.251 196.08C564.215 196.08 570.952 186.617 570.952 174.505C570.952 163.378 566.486 157.019 558.916 154.369C552.179 161.864 548.091 171.25 548.091 180.788C548.091 189.569 551.952 196.08 557.251 196.08ZM620.829 176.095C624.084 178.744 625.598 182.378 625.598 185.785C625.598 199.108 611.972 207.586 599.633 207.586C593.502 207.586 588.884 206.223 584.948 203.952C583.964 199.41 584.872 189.872 590.247 193.279L592.063 163.151C595.091 157.246 602.737 152.78 601.98 159.29L600.542 173.067C602.586 172.386 604.932 172.007 607.203 172.007C608.717 172.007 610.155 172.083 611.518 172.31C616.741 170.039 621.207 166.708 621.207 163.302C621.207 157.397 607.96 152.78 588.96 152.78C581.92 152.78 588.203 143.242 591.988 140.517C609.323 140.517 630.746 144.831 630.746 157.473C630.746 165.043 626.582 171.402 620.829 176.095ZM604.402 197.139C612.426 197.139 616.741 193.43 616.741 190.554C616.741 187.071 613.259 184.271 608.036 183.438C604.932 184.573 601.904 185.33 599.179 185.709L597.968 196.609C599.785 196.988 601.829 197.139 604.402 197.139ZM640.353 147.784C644.138 142.03 655.569 136.732 654.282 144.68C650.648 167.011 649.059 182.075 649.059 189.418C649.059 193.43 650.194 196.004 654.585 196.004C658.9 196.004 663.896 194.187 668.741 192.143C671.39 191.083 672.223 196.458 669.195 202.59C664.199 206.072 656.78 208.419 651.178 208.419C639.899 208.419 638.915 199.032 638.915 188.964C638.915 182.832 639.369 169.055 640.353 147.784ZM713.366 155.202C705.417 154.975 697.847 155.354 690.732 155.808C689.975 161.637 689.369 166.406 688.915 170.266C696.031 169.131 703.146 167.995 708.142 167.692C714.274 167.314 711.398 175.792 703.525 180.41C697.923 180.637 692.776 180.864 687.628 181.394C687.325 184.422 687.25 186.239 687.25 187.526C687.25 194.49 690.05 196.837 693.684 196.837C699.664 196.837 704.963 193.581 711.17 189.948C715.182 187.677 713.971 196.155 710.565 200.622C704.736 204.936 696.939 208.57 689.823 208.57C679.982 208.57 678.393 201.908 678.393 192.295C678.393 187.98 678.771 178.29 680.134 156.64C679.755 156.64 679.377 156.716 678.998 156.716C673.397 157.17 675.289 151.644 680.815 147.102L681.042 143.317C684.6 137.867 693.457 134.915 692.776 139.608C692.548 141.122 692.397 142.56 692.246 143.923C700.648 142.863 709.127 141.879 717.983 141.198C723.964 140.744 720.936 150.584 713.366 155.202ZM778.921 143.772C779.527 162.469 780.511 181.015 782.252 199.713C780.813 205.239 770.367 212.506 770.064 205.012C769.232 195.398 768.626 185.709 768.247 176.095C761.964 189.494 755.984 196.155 750.61 196.155C746.37 196.155 741.677 189.721 737.438 180.864L733.35 203.877C728.127 210.992 721.39 210.992 722.525 205.92L730.852 164.892C728.96 159.593 727.294 154.218 726.007 149.373C728.203 143.696 735.394 135.52 737.059 142.636C737.211 143.393 737.438 144.074 737.589 144.907C740.617 142.712 744.251 142.03 743.342 147.178L741.374 158.23C745.386 170.796 750.534 182.908 753.789 182.908C757.65 182.908 766.279 159.971 769.307 147.405C772.184 142.787 778.77 139.003 778.921 143.772Z" fill="#616161"/>
<rect x="1.73769" y="50.6303" width="256.991" height="740.581" stroke="#8C8C91" stroke-width="3.47539"/>
<path d="M27.6094 390.936C27.6148 390.936 27.6203 390.936 31.1727 390.935C34.725 390.935 41.8241 390.934 47.1484 390.934C52.4727 390.933 55.8072 390.933 61.6943 390.932C67.5815 390.932 152.187 390.923 160.779 390.922" stroke="#F16762" stroke-width="1.73769" stroke-linecap="round"/>
<path d="M27.6094 390.936C27.6094 390.952 27.6094 390.969 27.6094 395.537C27.6094 400.106 27.6094 409.226 27.6094 418.739" stroke="#F16762" stroke-width="1.73769" stroke-linecap="round"/>
<path d="M27.3281 419.056C38.9201 419.403 93.9689 420.005 104.109 420.07C114.249 420.135 114.415 420.106 114.573 420.054C114.731 420.001 159.974 419.4 160.143 419.133" stroke="#F16762" stroke-width="1.73769" stroke-linecap="round"/>
<path d="M160.741 390.921C160.741 390.936 160.989 391.565 161.157 394.94C161.324 398.316 159.58 411.717 160.055 419.058" stroke="#F16762" stroke-width="1.73769" stroke-linecap="round"/>
<path d="M28.1484 76.5902C31.9041 76.3734 108.428 76.762 113.909 76.8616" stroke="#616161" stroke-width="1.73769" stroke-linecap="round"/>
<path d="M27.9961 76.8984C27.9961 76.9062 27.9961 76.9141 27.9961 79.0617C27.9961 81.2094 27.9961 85.4966 27.9961 89.9684" stroke="#616161" stroke-width="1.73769" stroke-linecap="round"/>
<path d="M27.9961 88.1045L28.1248 95.8853" stroke="#616161" stroke-width="1.73769" stroke-linecap="round"/>
<path d="M28.1484 96.2871C35.7628 96.592 71.3725 97.3497 78.0331 97.4069C84.6937 97.4642 84.8025 97.4382 84.9063 97.3923C85.01 97.3465 114.729 96.8179 114.84 96.5841" stroke="#616161" stroke-width="1.73769" stroke-linecap="round"/>
<path d="M114.152 76.9932C114.956 78.601 114.956 91.4635 114.815 96.287" stroke="#616161" stroke-width="1.73769" stroke-linecap="round"/>
<path d="M29.3359 123.329C33.0916 123.112 109.33 124.374 114.811 124.474" stroke="#616161" stroke-width="1.73769" stroke-linecap="round"/>
<path d="M29.0312 123.222L28.9518 143.319" stroke="#616161" stroke-width="1.83438" stroke-linecap="round"/>
<path d="M28.9375 143.317C33.359 144.523 72.2965 144.961 78.9572 145.019C85.6178 145.076 85.7266 145.05 85.8304 145.004C85.9341 144.958 115.653 144.43 115.764 144.196" stroke="#616161" stroke-width="1.73769" stroke-linecap="round"/>
<path d="M114.938 124.828C114.945 127.027 115.925 139.093 115.732 144.122" stroke="#616161" stroke-width="1.73769" stroke-linecap="round"/>
<path d="M143.09 75.9262C146.846 75.7094 223.235 75.8265 228.716 75.9262" stroke="#616161" stroke-width="1.73769" stroke-linecap="round"/>
<path d="M142.838 75.9646C142.838 75.9755 142.838 75.9865 142.882 78.9957C142.926 82.0049 143.013 89.218 143.105 95.4838" stroke="#616161" stroke-width="1.73769" stroke-linecap="round"/>
<path d="M143.09 95.8877C150.657 96.1742 185.911 96.607 192.53 96.6608C199.149 96.7146 199.258 96.6901 199.361 96.6471C199.464 96.604 228.998 96.1074 229.108 95.8877" stroke="#616161" stroke-width="1.73769" stroke-linecap="round"/>
<path d="M229.114 76.5938C230.71 78.0329 229.501 90.7862 229.113 95.8876" stroke="#616161" stroke-width="1.73769" stroke-linecap="round"/>
<path d="M143.91 122.418C147.666 122.202 224.849 122.319 230.33 122.418" stroke="#616161" stroke-width="1.73769" stroke-linecap="round"/>
<path d="M143.91 122.417C143.91 122.429 143.91 122.441 143.91 125.743C143.91 129.046 143.91 135.638 143.91 142.515" stroke="#616161" stroke-width="1.73769" stroke-linecap="round"/>
<path d="M143.91 142.915C146.88 143.164 155.165 143.588 166.695 143.588C174.315 143.588 187.133 144.029 193.794 144.087C200.454 144.144 200.563 144.118 200.667 144.072C200.771 144.026 230.489 143.498 230.6 143.264" stroke="#616161" stroke-width="1.73769" stroke-linecap="round"/>
<path d="M230.723 122.417C230.723 122.428 230.723 122.439 230.723 125.021C230.723 127.602 230.723 137.691 230.723 143.319" stroke="#616161" stroke-width="1.73769" stroke-linecap="round"/>
<path d="M29.7227 224.511C29.7227 224.52 29.7227 224.53 29.7227 228.464C29.7227 232.399 29.7227 240.259 29.7227 248.628" stroke="#616161" stroke-width="1.73769" stroke-linecap="round"/>
<path d="M29.7227 224.112C29.7697 224.112 29.8949 223.71 51.4282 223.71C77.5552 223.71 115.068 223.639 139.054 224.112C161.966 224.563 160.76 224.909 163.573 224.909" stroke="#616161" stroke-width="1.73769" stroke-linecap="round"/>
<path d="M164.007 225.315C164.007 225.343 164.007 225.372 163.984 228.898C163.962 232.424 163.916 239.448 163.825 243.609C163.734 247.77 163.598 248.854 163.518 249.541C163.438 250.227 163.224 249.973 163.203 250.237" stroke="#616161" stroke-width="1.73769" stroke-linecap="round"/>
<path d="M29.9141 248.678C29.9315 248.678 32.6654 249.556 53.0515 249.739C73.4377 249.923 101.014 250.583 133.442 250.583C155.683 250.583 161.474 250.438 163.187 250.583" stroke="#616161" stroke-width="1.73769" stroke-linecap="round"/>
<path d="M26.2943 605.397C26.2943 605.406 26.2943 605.415 26.2702 609.088C26.2461 612.76 26.1979 620.097 26.2381 627.909" stroke="#616161" stroke-width="1.73769" stroke-linecap="round"/>
<path d="M25.2969 604.543C25.3692 604.543 25.4415 604.543 58.5225 604.543C91.6034 604.543 157.691 604.543 192.469 604.543C227.248 604.543 228.714 604.543 230.345 604.543" stroke="#616161" stroke-width="1.73769" stroke-linecap="round"/>
<path d="M229.613 606.629C229.613 606.655 229.613 606.681 229.584 609.943C229.555 613.205 229.497 619.703 229.38 623.552C229.263 627.401 229.09 628.405 228.987 629.04C228.885 629.675 228.859 629.911 228.832 630.155" stroke="#616161" stroke-width="1.73769" stroke-linecap="round"/>
<path d="M26.293 628.123C26.3194 628.123 26.3458 628.123 57.2846 628.306C88.2235 628.489 150.074 628.856 183.824 629.185C217.574 629.514 221.349 629.794 223.949 629.938C226.548 630.083 227.857 630.083 229.465 630.028" stroke="#616161" stroke-width="1.73769" stroke-linecap="round"/>
<path d="M161.116 173.68C161.116 173.691 161.116 173.703 161.075 175.206C161.033 176.708 160.949 179.701 160.825 183.408C160.7 187.116 160.537 191.449 160.16 196.054" stroke="#F16762" stroke-width="1.73769" stroke-linecap="round"/>
<path d="M29.5 174.743C29.5 174.79 29.5 174.838 29.5 177.948C29.5 181.059 29.5 187.231 29.5337 190.667C29.7451 195.409 29.8727 196.525 29.9981 197.617C30.019 197.883 30.019 198.143 30.019 198.406" stroke="#F16762" stroke-width="1.73769" stroke-linecap="round"/>
<path d="M29.7344 173.866C29.7517 173.866 29.769 173.866 44.336 173.253C58.9031 172.64 88.1082 173.746 104.156 173.253C120.204 172.761 159.617 173.69 160.771 173.866" stroke="#F16762" stroke-width="1.73769" stroke-linecap="round"/>
<path d="M29.9727 199.414C29.9899 199.414 30.0071 199.414 36.4074 199.411C42.8077 199.407 150.951 198.974 160.355 199.41" stroke="#F16762" stroke-width="1.73769" stroke-linecap="round"/>
<path d="M225.408 553.128C225.408 553.14 225.408 553.151 225.345 554.654C225.281 556.156 225.155 559.149 224.965 562.857C224.776 566.565 224.528 570.897 223.957 575.503" stroke="#616161" stroke-width="1.73769" stroke-linecap="round"/>
<path d="M25.6367 554.193C25.6367 554.241 25.6367 554.288 25.6367 557.398C25.6367 560.509 25.6367 566.681 25.6879 570.117C26.0086 574.859 26.2023 575.975 26.3927 577.067C26.4244 577.333 26.4244 577.593 26.4244 577.856" stroke="#616161" stroke-width="1.73769" stroke-linecap="round"/>
<path d="M24.9414 553.074C24.9678 553.074 24.9942 553.074 47.2316 552.642C69.469 552.21 114.052 552.989 138.55 552.642C163.048 552.295 223.214 552.95 224.976 553.073" stroke="#616161" stroke-width="1.73769" stroke-linecap="round"/>
<path d="M26.3867 578.859C26.4129 578.859 26.439 578.859 36.1523 578.855C45.8656 578.851 209.988 578.419 224.26 578.855" stroke="#616161" stroke-width="1.73769" stroke-linecap="round"/>
<path d="M162.96 441.617C162.96 441.629 162.96 441.641 162.918 443.143C162.877 444.645 162.793 447.638 162.668 451.346C162.544 455.054 162.38 459.386 162.004 463.992" stroke="#616161" stroke-width="1.73769" stroke-linecap="round"/>
<path d="M31.3477 442.68C31.3477 442.727 31.3477 442.774 31.3477 445.885C31.3477 448.995 31.3477 455.167 31.3814 458.603C31.5927 463.346 31.7203 464.461 31.8458 465.553C31.8667 465.819 31.8667 466.079 31.8667 466.343" stroke="#616161" stroke-width="1.73769" stroke-linecap="round"/>
<path d="M30.8633 441.56C30.8807 441.56 30.8981 441.56 45.5507 441.128C60.2034 440.697 89.58 441.475 105.722 441.128C121.864 440.782 161.509 441.436 162.67 441.56" stroke="#616161" stroke-width="1.73769" stroke-linecap="round"/>
<path d="M31.8164 467.348C31.8336 467.348 31.8509 467.348 38.2511 467.344C44.6514 467.341 152.795 466.908 162.199 467.344" stroke="#616161" stroke-width="1.73769" stroke-linecap="round"/>
<path d="M32.9679 361.204C32.8429 359.253 33.6022 349.933 45.6343 350.322C58.4968 350.739 56.6378 363.587 54.8792 366.4C52.8695 369.616 50.2047 371.679 46.4382 372.028C40.9643 372.535 36.7913 369.038 35.8677 368.008C33.865 365.774 33.172 364.391 32.9679 361.204Z" stroke="#616161" stroke-width="1.73769" stroke-linecap="round"/>
<path d="M32.9679 326.249C32.8429 324.298 33.6022 314.978 45.6343 315.367C58.4968 315.784 56.6378 328.632 54.8792 331.445C52.8695 334.661 50.2047 336.724 46.4382 337.073C40.9643 337.58 36.7913 334.083 35.8677 333.053C33.865 330.819 33.172 329.436 32.9679 326.249Z" stroke="#616161" stroke-width="1.73769" stroke-linecap="round"/>
<path d="M32.9679 289.267C32.8429 287.316 33.6022 277.995 45.6343 278.385C58.4968 278.801 56.6378 291.649 54.8792 294.463C52.8695 297.679 50.2047 299.742 46.4382 300.09C40.9643 300.597 36.7913 297.101 35.8677 296.071C33.865 293.837 33.172 292.453 32.9679 289.267Z" stroke="#616161" stroke-width="1.73769" stroke-linecap="round"/>
<path d="M35.8148 508.696C31.002 509.017 31.4049 509.544 31.3933 509.544C31.1324 509.827 29.3835 521.961 31.7358 526.784C31.8624 527.044 34.7989 527.001 41.954 526.471C44.3672 526.293 46.9695 526.303 48.4886 526.299C50.0077 526.295 50.4308 526.276 50.5285 523.396C50.6262 520.516 50.0475 514.952 50.1606 512.166C50.2851 509.098 49.7162 508.38 49.4812 508.294C48.5623 507.958 48.7116 507.995 45.8636 507.892C42.8336 507.782 41.8441 508.294 35.8148 508.696Z" stroke="#616161" stroke-width="1.73769" stroke-linecap="round"/>
<path d="M36.6445 517.599C36.721 517.831 37.752 519.538 38.9023 521.026C39.4716 521.763 40.0472 521.869 40.3089 521.95C40.5729 522.032 40.8487 521.591 42.2716 519.85C43.5219 518.319 46.038 515.612 48.2205 513.365C50.4029 511.118 52.2249 509.447 53.2246 508.544C54.2242 507.641 54.3463 507.557 54.3291 507.489" stroke="#2E8FB6" stroke-width="2.80071" stroke-linecap="round"/>
<path d="M172.963 181.068C173.243 180.542 172.549 178.173 173.274 178.173C173.355 178.173 173.471 178.194 175.962 178.142C178.454 178.09 183.425 177.986 187.003 177.809C190.582 177.631 233.205 177.856 234.562 177.727C235.919 177.599 234.834 191.646 234.834 193.556C228.013 194.102 197.917 193.716 197.683 193.75C197.449 193.784 197.12 193.824 193.035 193.862C188.949 193.901 181.337 193.954 177.524 193.954C173.329 193.954 173.507 193.826 173.507 193.69C173.518 193.352 173.528 193.023 173.526 192.793C173.523 192.563 173.507 192.435 173.498 192.022C173.385 190.144 172.602 188.652 171.757 187.04L171.73 186.988C171.126 185.838 170.601 184.909 170.929 184.414C171.244 183.939 172.294 182.328 172.963 181.068Z" fill="#F16762" stroke="#F16762" stroke-width="0.545741" stroke-linecap="round"/>
<path d="M172.963 400.457C173.243 399.93 172.549 397.561 173.274 397.561C173.355 397.561 173.471 397.582 175.962 397.53C178.454 397.478 183.425 397.375 187.003 397.197C190.582 397.02 233.205 397.245 234.562 397.116C235.919 396.988 234.834 411.035 234.834 412.945C228.013 413.49 197.917 413.104 197.683 413.139C197.449 413.173 197.12 413.213 193.035 413.251C188.949 413.289 181.337 413.343 177.524 413.343C173.329 413.343 173.507 413.215 173.507 413.079C173.518 412.74 173.528 412.412 173.526 412.182C173.523 411.951 173.507 411.823 173.498 411.411C173.385 409.533 172.602 408.04 171.757 406.429L171.73 406.377C171.126 405.227 170.601 404.298 170.929 403.802C171.244 403.327 172.294 401.716 172.963 400.457Z" fill="#F16762" stroke="#F16762" stroke-width="0.545741" stroke-linecap="round"/>
<ellipse cx="45.0203" cy="325.804" rx="7.23518" ry="6.43127" fill="#2E8FB6"/>
<path d="M29.8789 666.642C33.6346 666.425 110.159 666.814 115.64 666.913" stroke="#616161" stroke-width="1.73769" stroke-linecap="round"/>
<path d="M29.7227 666.953C29.7227 666.961 29.7227 666.969 29.7227 669.116C29.7227 671.264 29.7227 675.551 29.7227 680.023" stroke="#616161" stroke-width="1.73769" stroke-linecap="round"/>
<path d="M29.7227 678.155L29.8514 685.936" stroke="#616161" stroke-width="1.73769" stroke-linecap="round"/>
<path d="M29.8789 686.338C37.4932 686.643 73.1029 687.4 79.7636 687.458C86.4242 687.515 86.533 687.489 86.6367 687.443C86.7405 687.397 116.459 686.869 116.57 686.635" stroke="#616161" stroke-width="1.73769" stroke-linecap="round"/>
<path d="M115.902 667.044C116.706 668.652 116.706 681.514 116.565 686.338" stroke="#616161" stroke-width="1.73769" stroke-linecap="round"/>
<path d="M31.0977 713.383C34.8534 713.166 111.092 714.428 116.572 714.527" stroke="#616161" stroke-width="1.73769" stroke-linecap="round"/>
<path d="M30.7812 713.275L30.7018 733.373" stroke="#616161" stroke-width="1.83438" stroke-linecap="round"/>
<path d="M30.6992 733.369C35.1207 734.575 74.0583 735.013 80.7189 735.071C87.3795 735.128 87.4883 735.102 87.5921 735.056C87.6958 735.01 117.414 734.481 117.526 734.248" stroke="#616161" stroke-width="1.73769" stroke-linecap="round"/>
<path d="M116.723 714.882C116.73 717.081 117.71 729.146 117.517 734.176" stroke="#616161" stroke-width="1.73769" stroke-linecap="round"/>
<path d="M144.828 665.983C148.584 665.766 224.973 665.883 230.454 665.983" stroke="#616161" stroke-width="1.73769" stroke-linecap="round"/>
<path d="M144.553 666.018C144.553 666.029 144.553 666.04 144.597 669.049C144.641 672.059 144.728 679.272 144.82 685.537" stroke="#616161" stroke-width="1.73769" stroke-linecap="round"/>
<path d="M144.828 685.938C152.395 686.225 187.649 686.658 194.269 686.712C200.888 686.765 200.996 686.741 201.099 686.698C201.202 686.655 230.736 686.158 230.846 685.938" stroke="#616161" stroke-width="1.73769" stroke-linecap="round"/>
<path d="M230.864 666.645C232.46 668.084 231.251 680.837 230.863 685.938" stroke="#616161" stroke-width="1.73769" stroke-linecap="round"/>
<path d="M145.637 712.47C149.392 712.253 226.576 712.37 232.057 712.47" stroke="#616161" stroke-width="1.73769" stroke-linecap="round"/>
<path d="M145.637 712.471C145.637 712.483 145.637 712.495 145.637 715.797C145.637 719.1 145.637 725.692 145.637 732.568" stroke="#616161" stroke-width="1.73769" stroke-linecap="round"/>
<path d="M145.637 732.97C148.606 733.218 156.891 733.643 168.421 733.643C176.042 733.643 188.86 734.084 195.52 734.141C202.181 734.199 202.29 734.173 202.393 734.127C202.497 734.081 232.216 733.552 232.327 733.318" stroke="#616161" stroke-width="1.73769" stroke-linecap="round"/>
<path d="M232.461 712.471C232.461 712.482 232.461 712.493 232.461 715.075C232.461 717.656 232.461 727.745 232.461 733.372" stroke="#616161" stroke-width="1.73769" stroke-linecap="round"/>
<path d="M352.15 281.032C354.009 283.588 355.263 286.174 356.613 288.867C357.423 290.468 358.79 292.826 356.832 294.327C355.973 294.974 353.253 295.402 351.599 294.916C334.647 290.005 317.695 285.02 300.823 279.821C296.243 278.424 295.1 276.047 297.87 272.202C303.204 264.854 308.871 257.623 315.175 250.933C320.38 245.39 326.427 240.485 332.538 235.773C335.594 233.417 335.594 233.417 337.63 233.965C338.79 234.472 339.265 237.563 339.232 239.329C339.198 242.264 339.196 244.894 338.701 248.568C359.447 241.397 376.822 232.404 387.237 214.159C388.766 211.484 389.77 208.477 390.647 205.523C394.075 193.994 389.741 183.403 383.529 173.222C381.749 170.305 381.973 168.459 384.408 166.469C392.971 159.505 401.374 152.387 410.016 145.499C414.153 142.186 417.08 142.585 420.735 146.92C448.896 180.582 449.136 222 417.367 252.267C405.7 263.397 390.681 269.738 374.915 274.745C367.215 277.264 360.199 278.88 352.15 281.032ZM351.174 288.701C350.062 286.823 349.236 285.338 348.298 283.935C345.137 279.141 345.679 277.457 351.199 275.509C352.122 275.201 353.045 274.966 353.983 274.689C368.985 270.582 383.415 265.323 396.908 258.15C425.581 242.89 442.401 209.734 431.02 177.878C427.448 167.922 422.635 158.551 415.452 149.902C406.556 156.968 397.819 163.895 388.938 170.918C389.606 172.03 390.209 173.095 390.892 174.092C402.778 190.66 402.082 206.977 391.415 222.478C380.317 238.631 363.212 247.768 343.707 253.623C341.591 254.24 339.364 254.574 337.169 254.823C332.477 255.334 332.033 253.546 332.337 250.316C332.497 248.57 333.279 245.436 333.471 243.677C321.663 252.565 310.903 263.942 302.799 275.208C318.876 279.713 334.715 284.134 351.174 288.701Z" fill="#64DBBE"/>
</svg>
