<svg width="65" height="24" viewBox="0 0 65 24" fill="none" xmlns="http://www.w3.org/2000/svg">
<path d="M1.93571 22.0361C1.9797 22.344 1.51777 22.366 1.47378 22.0801C1.36379 21.0242 1.3198 20.1444 1.23181 19.1105C0.945857 15.4591 0.835873 11.8296 0.879867 8.17819C0.879867 8.1122 0.901863 8.06821 0.901863 8.0902C0.945857 7.93623 1.16582 7.84824 1.2978 7.95822C2.57361 8.99207 3.3215 10.3119 3.36549 11.6537C3.38749 12.7975 2.85957 13.9633 2.04569 14.6452C2.92556 17.1748 3.62945 19.4625 4.5973 21.9921C4.68529 22.2781 4.22336 22.41 4.13537 22.1241C3.21151 19.6605 2.48562 17.4168 1.62775 14.9312L1.45178 15.0412C1.56176 17.4388 1.69374 19.6605 1.93571 22.0361ZM1.45178 14.5132C2.37564 13.8753 2.94755 12.7315 2.88156 11.5877C2.83757 10.5538 2.30965 9.49799 1.3418 8.61812V11.3017C1.36379 12.3576 1.40779 13.4354 1.45178 14.5132ZM6.94442 10.3779C6.87843 14.1833 6.85643 17.9887 6.90042 21.7941H7.47234C7.78029 21.7941 7.80229 22.2781 7.47234 22.2781C6.96641 22.3001 6.46049 22.2561 5.95457 22.2781C5.64661 22.2781 5.66861 21.7941 5.95457 21.7941H6.43849C6.4165 20.7163 6.3945 19.6385 6.3945 18.5606C6.3725 16.5589 6.3945 14.5572 6.43849 12.5555C6.46049 11.1697 6.46049 9.76195 6.52648 8.39816H5.97656C5.66861 8.44215 5.64661 7.91423 5.95457 7.91423C6.46049 7.91423 6.94442 7.89223 7.47234 7.89223C7.78029 7.89223 7.78029 8.33217 7.47234 8.37616C7.31836 8.37616 7.16438 8.39816 7.01041 8.39816C6.96641 9.03606 6.96641 9.71796 6.94442 10.3779ZM11.7483 8.1122C11.7923 7.84824 12.2322 7.84824 12.2322 8.1342C12.1882 8.88208 12.1882 9.65197 12.1662 10.3999C12.0782 14.2933 12.0782 18.1647 12.1222 22.0581C12.1222 22.366 11.6603 22.344 11.6603 22.0581C11.6383 20.9143 11.6163 19.7704 11.6163 18.6266V14.7552C10.9784 14.7332 10.3845 14.7552 9.74659 14.7992C9.72459 17.2188 9.72459 19.6385 9.76858 22.0581C9.76858 22.366 9.28466 22.344 9.28466 22.0581C9.28466 20.9143 9.26266 19.7704 9.26266 18.6266C9.24066 16.6249 9.26266 14.6232 9.28466 12.6215C9.30665 11.1257 9.30665 9.62997 9.39464 8.1122C9.43863 7.82625 9.90056 7.84824 9.85657 8.1342C9.83457 8.88208 9.81258 9.65197 9.81258 10.3999C9.76858 11.6977 9.76858 13.0175 9.74659 14.3373C10.3845 14.2933 11.0004 14.2713 11.6163 14.2933C11.6383 13.7433 11.6383 13.1714 11.6603 12.6215C11.6823 11.1257 11.6823 9.62997 11.7483 8.1122ZM16.6004 11.1257C17.3263 14.7332 18.0302 18.3626 18.7341 21.9701C18.8221 22.2561 18.3602 22.388 18.2722 22.0801C18.0742 21.0242 17.8542 19.9684 17.6563 18.8906C17.3703 17.5268 17.1284 16.163 16.8644 14.7772C16.1605 14.7552 15.5226 14.7772 14.9287 14.8432C14.6427 17.2408 14.4228 19.6605 14.2468 22.0801C14.2028 22.366 13.7409 22.344 13.7849 22.0581C13.8729 20.6723 13.9828 19.3085 14.1368 17.9447C14.4668 14.6232 14.9507 11.3457 15.5226 8.0902C15.5666 7.82625 15.9405 7.84824 15.9845 8.0902C16.2045 9.10205 16.4025 10.1139 16.6004 11.1257ZM15.0167 14.3813C15.5666 14.3153 16.1605 14.2933 16.7544 14.3153C16.4465 12.6655 16.1165 11.0158 15.7646 9.36601C15.7426 9.454 15.7426 9.56398 15.7206 9.65197C15.4346 11.1917 15.2146 12.7755 15.0167 14.3813ZM26.3125 8.1122C26.3565 7.84824 26.7964 7.84824 26.7964 8.1342C26.7524 8.88208 26.7524 9.65197 26.7304 10.3999C26.6424 14.2933 26.6424 18.1647 26.6864 22.0581C26.6864 22.366 26.2245 22.344 26.2245 22.0581C26.2025 20.9143 26.1805 19.7704 26.1805 18.6266V14.7552C25.5426 14.7332 24.9487 14.7552 24.3108 14.7992C24.2888 17.2188 24.2888 19.6385 24.3328 22.0581C24.3328 22.366 23.8489 22.344 23.8489 22.0581C23.8489 20.9143 23.8269 19.7704 23.8269 18.6266C23.8049 16.6249 23.8269 14.6232 23.8489 12.6215C23.8709 11.1257 23.8709 9.62997 23.9588 8.1122C24.0028 7.82625 24.4648 7.84824 24.4208 8.1342C24.3988 8.88208 24.3768 9.65197 24.3768 10.3999C24.3328 11.6977 24.3328 13.0175 24.3108 14.3373C24.9487 14.2933 25.5646 14.2713 26.1805 14.2933C26.2025 13.7433 26.2025 13.1714 26.2245 12.6215C26.2465 11.1257 26.2465 9.62997 26.3125 8.1122ZM31.1646 11.1257C31.8905 14.7332 32.5944 18.3626 33.2983 21.9701C33.3863 22.2561 32.9244 22.388 32.8364 22.0801C32.6384 21.0242 32.4184 19.9684 32.2205 18.8906C31.9345 17.5268 31.6926 16.163 31.4286 14.7772C30.7247 14.7552 30.0868 14.7772 29.4929 14.8432C29.2069 17.2408 28.987 19.6605 28.811 22.0801C28.767 22.366 28.3051 22.344 28.3491 22.0581C28.437 20.6723 28.547 19.3085 28.701 17.9447C29.031 14.6232 29.5149 11.3457 30.0868 8.0902C30.1308 7.82625 30.5047 7.84824 30.5487 8.0902C30.7687 9.10205 30.9667 10.1139 31.1646 11.1257ZM29.5809 14.3813C30.1308 14.3153 30.7247 14.2933 31.3186 14.3153C31.0107 12.6655 30.6807 11.0158 30.3288 9.36601C30.3068 9.454 30.3068 9.56398 30.2848 9.65197C29.9988 11.1917 29.7788 12.7755 29.5809 14.3813ZM35.4892 22.0361C35.5332 22.344 35.0713 22.366 35.0273 22.0801C34.9173 21.0242 34.8733 20.1444 34.7853 19.1105C34.4994 15.4591 34.3894 11.8296 34.4334 8.17819C34.4334 8.1122 34.4554 8.06821 34.4554 8.0902C34.4994 7.93623 34.7193 7.84824 34.8513 7.95822C36.1271 8.99207 36.875 10.3119 36.919 11.6537C36.941 12.7975 36.4131 13.9633 35.5992 14.6452C36.4791 17.1748 37.183 19.4625 38.1508 21.9921C38.2388 22.2781 37.7769 22.41 37.6889 22.1241C36.765 19.6605 36.0391 17.4168 35.1813 14.9312L35.0053 15.0412C35.1153 17.4388 35.2473 19.6605 35.4892 22.0361ZM35.0053 14.5132C35.9291 13.8753 36.5011 12.7315 36.4351 11.5877C36.3911 10.5538 35.8632 9.49799 34.8953 8.61812V11.3017C34.9173 12.3576 34.9613 13.4354 35.0053 14.5132ZM41.273 7.89223C41.5589 7.89223 41.5589 8.33217 41.273 8.37616C40.877 8.39816 40.5031 8.39816 40.1291 8.39816C40.1291 10.0919 40.3051 18.4506 40.2391 22.0581C40.2391 22.366 39.7772 22.344 39.7772 22.0581L39.6232 8.39816C39.2933 8.39816 38.9633 8.39816 38.6334 8.37616C38.3254 8.37616 38.3474 7.91423 38.6334 7.91423C39.5132 7.95822 40.3931 7.93623 41.273 7.89223Z" fill="#474646"/>
<path d="M61.6393 2.11024L56.9422 5.93718L57.5714 6.83544L62.398 2.97393C63.0156 2.86257 63.5121 3.07819 63.8454 2.31671C64.0589 1.82904 64.0879 1.61324 63.696 1.5101C63.7881 0.963583 63.7549 0.746187 63.0736 0.799064C62.8308 0.379973 62.6483 0.158752 62.2475 0.535243C62.3112 0.286273 62.304 0.445744 62.2742 0.187992C62.0817 0.0100234 61.982 0.0998023 61.7884 0.274221L61.7802 0.281694C61.3477 0.96629 61.4898 1.19069 61.6393 2.11024Z" stroke="#474646" stroke-width="0.18209"/>
<path d="M41.0389 2.74067L45.3432 6.47736L45.4427 7.93213L40.3108 3.67498C40.3108 3.67498 39.2674 3.48412 39.0452 3.34679C38.823 3.20937 38.5754 3.03336 38.7907 2.53028C38.7242 2.30439 38.7977 2.18873 39.1487 2.00422C39.0833 1.65763 39.2016 1.57943 39.5644 1.55356C39.9428 1.25479 40.1347 1.3499 40.4679 1.6381C40.9541 1.77235 41.0517 2.04468 41.0389 2.74067Z" stroke="#474646" stroke-width="0.18209"/>
<path d="M48.7259 22.9967C48.3222 18.7211 48.965 16.9966 49.3571 12.2597L50.8143 13.2159L49.9572 19.787C49.9572 19.787 50.2403 19.5479 50.449 19.4329C50.6575 19.3182 50.8963 19.2612 50.8963 19.2612C51.5012 19.2673 51.674 19.7613 52.2291 20.616C52.5856 21.4195 52.6985 21.8456 51.116 22.3891C50.4131 22.6171 50.0231 22.7041 49.4338 21.8245L49.3623 23.0422L48.7259 22.9967Z" stroke="#474646" stroke-width="0.169832"/>
<path d="M54.6196 22.8376L53.8492 22.7828L53.8698 17.8562L53.5306 12.7561L54.7096 11.5803L55.4782 19.6754C56.218 18.9955 56.4754 19.302 56.9918 19.6722C57.9455 20.692 58.0848 21.6769 57.2257 21.9862C56.3667 22.2953 55.4812 22.698 54.6804 21.8045L54.6196 22.8376Z" stroke="#474646" stroke-width="0.169832"/>
<path d="M56.0049 4.33629C54.3871 4.45115 53.1386 5.54212 52.4963 7.95286C51.0426 5.80642 50.09 4.94282 48.4064 4.3025C46.7227 3.66218 43.6827 4.49358 44.3842 8.40619C45.3928 11.2908 47.8575 12.9234 52.3368 15.8359C55.6634 12.939 58.3695 10.2113 59.2093 8.27042C60.0492 6.32967 58.2219 4.29543 56.0049 4.33629Z" fill="#F16762"/>
</svg>
