<svg width="161" height="58" viewBox="0 0 161 58" fill="none" xmlns="http://www.w3.org/2000/svg">
<path d="M4.83927 56.0902C4.94925 56.8601 3.79443 56.9151 3.68444 56.2002C3.40948 53.5606 3.2995 51.3609 3.07953 48.7763C2.36464 39.6477 2.08968 30.5741 2.19967 21.4455C2.19967 21.2805 2.25466 21.1705 2.25466 21.2255C2.36464 20.8406 2.91456 20.6206 3.24451 20.8956C6.43403 23.4802 8.30374 26.7797 8.41373 30.1342C8.46872 32.9937 7.14892 35.9083 5.11422 37.613C7.31389 43.9371 9.07363 49.6562 11.4933 55.9802C11.7132 56.6951 10.5584 57.0251 10.3384 56.3102C8.02878 50.1511 6.21406 44.542 4.06938 38.3279L3.62945 38.6029C3.90441 44.597 4.23436 50.1511 4.83927 56.0902ZM3.62945 37.2831C5.9391 35.6883 7.36888 32.8288 7.20391 29.9692C7.09393 27.3846 5.77413 24.745 3.35449 22.5453V29.2543C3.40948 31.8939 3.51947 34.5885 3.62945 37.2831ZM17.361 26.9446C17.1961 36.4582 17.1411 45.9718 17.2511 55.4853H18.6808C19.4507 55.4853 19.5057 56.6951 18.6808 56.6951C17.416 56.7501 16.1512 56.6401 14.8864 56.6951C14.1165 56.6951 14.1715 55.4853 14.8864 55.4853H16.0962C16.0412 52.7907 15.9862 50.0961 15.9862 47.4015C15.9313 42.3973 15.9862 37.3931 16.0962 32.3888C16.1512 28.9243 16.1512 25.4049 16.3162 21.9954H14.9414C14.1715 22.1054 14.1165 20.7856 14.8864 20.7856C16.1512 20.7856 17.361 20.7306 18.6808 20.7306C19.4507 20.7306 19.4507 21.8304 18.6808 21.9404C18.2959 21.9404 17.911 21.9954 17.526 21.9954C17.416 23.5902 17.416 25.2949 17.361 26.9446ZM29.3707 21.2805C29.4807 20.6206 30.5805 20.6206 30.5805 21.3355C30.4705 23.2052 30.4705 25.1299 30.4155 26.9996C30.1956 36.7332 30.1956 46.4117 30.3056 56.1452C30.3056 56.9151 29.1507 56.8601 29.1507 56.1452C29.0957 53.2857 29.0408 50.4261 29.0408 47.5665V37.888C27.446 37.833 25.9612 37.888 24.3665 37.998C24.3115 44.0471 24.3115 50.0961 24.4215 56.1452C24.4215 56.9151 23.2116 56.8601 23.2116 56.1452C23.2116 53.2857 23.1566 50.4261 23.1566 47.5665C23.1017 42.5623 23.1566 37.558 23.2116 32.5538C23.2666 28.8144 23.2666 25.0749 23.4866 21.2805C23.5966 20.5656 24.7514 20.6206 24.6414 21.3355C24.5864 23.2052 24.5314 25.1299 24.5314 26.9996C24.4215 30.2441 24.4215 33.5436 24.3665 36.8431C25.9612 36.7332 27.501 36.6782 29.0408 36.7332C29.0957 35.3584 29.0957 33.9286 29.1507 32.5538C29.2057 28.8144 29.2057 25.0749 29.3707 21.2805ZM41.5011 28.8144C43.3158 37.833 45.0755 46.9066 46.8353 55.9253C47.0552 56.6401 45.9004 56.9701 45.6805 56.2002C45.1855 53.5606 44.6356 50.921 44.1407 48.2264C43.4258 44.8169 42.8209 41.4075 42.161 37.943C40.4013 37.888 38.8065 37.943 37.3217 38.108C36.6068 44.102 36.0569 50.1511 35.617 56.2002C35.507 56.9151 34.3522 56.8601 34.4622 56.1452C34.6821 52.6807 34.9571 49.2713 35.342 45.8618C36.1669 37.558 37.3767 29.3643 38.8065 21.2255C38.9165 20.5656 39.8513 20.6206 39.9613 21.2255C40.5112 23.7551 41.0062 26.2847 41.5011 28.8144ZM37.5417 36.9531C38.9165 36.7882 40.4013 36.7332 41.886 36.7882C41.1162 32.6638 40.2913 28.5394 39.4114 24.415C39.3564 24.635 39.3564 24.91 39.3014 25.1299C38.5865 28.9793 38.0366 32.9387 37.5417 36.9531ZM65.7812 21.2805C65.8912 20.6206 66.991 20.6206 66.991 21.3355C66.881 23.2052 66.881 25.1299 66.826 26.9996C66.6061 36.7332 66.6061 46.4117 66.7161 56.1452C66.7161 56.9151 65.5612 56.8601 65.5612 56.1452C65.5062 53.2857 65.4512 50.4261 65.4512 47.5665V37.888C63.8565 37.833 62.3717 37.888 60.777 37.998C60.722 44.0471 60.722 50.0961 60.832 56.1452C60.832 56.9151 59.6221 56.8601 59.6221 56.1452C59.6221 53.2857 59.5671 50.4261 59.5671 47.5665C59.5122 42.5623 59.5671 37.558 59.6221 32.5538C59.6771 28.8144 59.6771 25.0749 59.8971 21.2805C60.0071 20.5656 61.1619 20.6206 61.0519 21.3355C60.9969 23.2052 60.9419 25.1299 60.9419 26.9996C60.832 30.2441 60.832 33.5436 60.777 36.8431C62.3717 36.7332 63.9115 36.6782 65.4512 36.7332C65.5062 35.3584 65.5062 33.9286 65.5612 32.5538C65.6162 28.8144 65.6162 25.0749 65.7812 21.2805ZM77.9116 28.8144C79.7263 37.833 81.486 46.9066 83.2458 55.9253C83.4657 56.6401 82.3109 56.9701 82.091 56.2002C81.596 53.5606 81.0461 50.921 80.5512 48.2264C79.8363 44.8169 79.2314 41.4075 78.5715 37.943C76.8118 37.888 75.217 37.943 73.7322 38.108C73.0173 44.102 72.4674 50.1511 72.0275 56.2002C71.9175 56.9151 70.7627 56.8601 70.8727 56.1452C71.0926 52.6807 71.3676 49.2713 71.7525 45.8618C72.5774 37.558 73.7872 29.3643 75.217 21.2255C75.327 20.5656 76.2618 20.6206 76.3718 21.2255C76.9217 23.7551 77.4167 26.2847 77.9116 28.8144ZM73.9522 36.9531C75.327 36.7882 76.8118 36.7332 78.2965 36.7882C77.5266 32.6638 76.7018 28.5394 75.8219 24.415C75.7669 24.635 75.7669 24.91 75.7119 25.1299C74.997 28.9793 74.4471 32.9387 73.9522 36.9531ZM88.723 56.0902C88.833 56.8601 87.6782 56.9151 87.5682 56.2002C87.2933 53.5606 87.1833 51.3609 86.9633 48.7763C86.2484 39.6477 85.9735 30.5741 86.0834 21.4455C86.0834 21.2805 86.1384 21.1705 86.1384 21.2255C86.2484 20.8406 86.7983 20.6206 87.1283 20.8956C90.3178 23.4802 92.1875 26.7797 92.2975 30.1342C92.3525 32.9937 91.0327 35.9083 88.998 37.613C91.1977 43.9371 92.9574 49.6562 95.377 55.9802C95.597 56.6951 94.4422 57.0251 94.2222 56.3102C91.9126 50.1511 90.0978 44.542 87.9532 38.3279L87.5132 38.6029C87.7882 44.597 88.1181 50.1511 88.723 56.0902ZM87.5132 37.2831C89.8229 35.6883 91.2527 32.8288 91.0877 29.9692C90.9777 27.3846 89.6579 24.745 87.2383 22.5453V29.2543C87.2933 31.8939 87.4032 34.5885 87.5132 37.2831ZM103.182 20.7306C103.897 20.7306 103.897 21.8304 103.182 21.9404C102.193 21.9954 101.258 21.9954 100.323 21.9954C100.323 26.2298 100.763 47.1266 100.598 56.1452C100.598 56.9151 99.443 56.8601 99.443 56.1452L99.058 21.9954C98.2332 21.9954 97.4083 21.9954 96.5834 21.9404C95.8135 21.9404 95.8685 20.7856 96.5834 20.7856C98.7831 20.8956 100.983 20.8406 103.182 20.7306Z" fill="#474646"/>
<path d="M154.098 5.27561L142.356 14.843L143.928 17.0886L155.995 7.43482C157.539 7.15643 158.78 7.69548 159.614 5.79177C160.147 4.57261 160.22 4.0331 159.24 3.77526C159.47 2.40896 159.387 1.86547 157.684 1.99766C157.077 0.949935 156.621 0.396882 155.619 1.33811C155.778 0.715685 155.76 1.11436 155.685 0.469983C155.204 0.0250603 154.955 0.249508 154.471 0.685555L154.451 0.704236C153.369 2.41573 153.725 2.97673 154.098 5.27561Z" stroke="#474646" stroke-width="0.455226"/>
<path d="M102.597 6.85168L113.358 16.1934L113.607 19.8303L100.777 9.18746C100.777 9.18746 98.1685 8.71031 97.613 8.36698C97.0574 8.02342 96.4385 7.5834 96.9768 6.32571C96.8104 5.76097 96.9942 5.47183 97.8717 5.01056C97.7082 4.14407 98.004 3.94859 98.9109 3.88389C99.8569 3.13698 100.337 3.37474 101.17 4.09526C102.385 4.43088 102.629 5.11169 102.597 6.85168Z" stroke="#474646" stroke-width="0.455226"/>
<path d="M121.815 57.4917C120.805 46.8029 122.413 42.4915 123.393 30.6492L127.036 33.0398L124.893 49.4675C124.893 49.4675 125.601 48.8697 126.122 48.5824C126.644 48.2954 127.241 48.153 127.241 48.153C128.753 48.1682 129.185 49.4031 130.573 51.5399C131.464 53.5487 131.746 54.6141 127.79 55.9728C126.033 56.5427 125.058 56.7601 123.584 54.5613L123.406 57.6055L121.815 57.4917Z" stroke="#474646" stroke-width="0.42458"/>
<path d="M136.549 57.0941L134.623 56.9569L134.675 44.6406L133.827 31.8901L136.774 28.9508L138.696 49.1884C140.545 47.4888 141.189 48.255 142.48 49.1806C144.864 51.73 145.212 54.1923 143.064 54.9655C140.917 55.7384 138.703 56.745 136.701 54.5113L136.549 57.0941Z" stroke="#474646" stroke-width="0.42458"/>
<path d="M140.012 10.8407C135.968 11.1279 132.846 13.8553 131.241 19.8822C127.606 14.5161 125.225 12.3571 121.016 10.7563C116.807 9.15547 109.207 11.234 110.96 21.0155C113.482 28.2271 119.644 32.3086 130.842 39.5898C139.158 32.3475 145.924 25.5283 148.023 20.6761C150.123 15.8242 145.555 10.7386 140.012 10.8407Z" fill="#F16762"/>
</svg>
