<svg width="201" height="73" viewBox="0 0 201 73" fill="none" xmlns="http://www.w3.org/2000/svg">
<path d="M6.04908 70.6128C6.18656 71.5751 4.74303 71.6439 4.60555 70.7502C4.26185 67.4507 4.12438 64.7012 3.84942 61.4704C2.9558 50.0596 2.6121 38.7176 2.74958 27.3068C2.74958 27.1006 2.81832 26.9631 2.81832 27.0319C2.9558 26.5507 3.6432 26.2757 4.05564 26.6194C8.04253 29.8502 10.3797 33.9746 10.5172 38.1677C10.5859 41.7421 8.93615 45.3853 6.39278 47.5163C9.14237 55.4213 11.342 62.5702 14.3666 70.4753C14.6415 71.3689 13.198 71.7813 12.923 70.8877C10.036 63.1889 7.76757 56.1775 5.08673 48.4099L4.53681 48.7536C4.88051 56.2462 5.29295 63.1889 6.04908 70.6128ZM4.53681 47.1038C7.42388 45.1104 9.2111 41.5359 9.00489 37.9615C8.86741 34.7307 7.21766 31.4312 4.19312 28.6816V37.0679C4.26185 40.3674 4.39933 43.7356 4.53681 47.1038ZM21.7013 34.1808C21.4951 46.0727 21.4263 57.9647 21.5638 69.8566H23.3511C24.3134 69.8566 24.3821 71.3689 23.3511 71.3689C21.77 71.4376 20.189 71.3002 18.608 71.3689C17.6457 71.3689 17.7144 69.8566 18.608 69.8566H20.1203C20.0516 66.4884 19.9828 63.1202 19.9828 59.7519C19.9141 53.4966 19.9828 47.2413 20.1203 40.986C20.189 36.6554 20.189 32.2561 20.3953 27.9942H18.6768C17.7144 28.1317 17.6457 26.482 18.608 26.482C20.189 26.482 21.7013 26.4132 23.3511 26.4132C24.3134 26.4132 24.3134 27.788 23.3511 27.9255C22.8699 27.9255 22.3887 27.9942 21.9075 27.9942C21.77 29.9877 21.77 32.1186 21.7013 34.1808ZM36.7134 27.1006C36.8509 26.2757 38.2257 26.2757 38.2257 27.1694C38.0882 29.5065 38.0882 31.9124 38.0194 34.2495C37.7445 46.4164 37.7445 58.5146 37.882 70.6815C37.882 71.6439 36.4384 71.5751 36.4384 70.6815C36.3697 67.1071 36.3009 63.5326 36.3009 59.9581V47.86C34.3075 47.7912 32.4515 47.86 30.4581 47.9974C30.3893 55.5588 30.3893 63.1202 30.5268 70.6815C30.5268 71.6439 29.0146 71.5751 29.0146 70.6815C29.0146 67.1071 28.9458 63.5326 28.9458 59.9581C28.8771 53.7028 28.9458 47.4475 29.0146 41.1922C29.0833 36.5179 29.0833 31.8436 29.3582 27.1006C29.4957 26.207 30.9393 26.2757 30.8018 27.1694C30.733 29.5065 30.6643 31.9124 30.6643 34.2495C30.5268 38.3052 30.5268 42.4295 30.4581 46.5539C32.4515 46.4164 34.3762 46.3477 36.3009 46.4164C36.3697 44.6979 36.3697 42.9107 36.4384 41.1922C36.5072 36.5179 36.5072 31.8436 36.7134 27.1006ZM51.8764 36.5179C54.1448 47.7912 56.3444 59.1333 58.5441 70.4066C58.8191 71.3002 57.3755 71.7126 57.1006 70.7502C56.4819 67.4507 55.7945 64.1512 55.1759 60.783C54.2823 56.5212 53.5261 52.2593 52.7012 47.9287C50.5016 47.86 48.5081 47.9287 46.6522 48.1349C45.7585 55.6275 45.0712 63.1889 44.5212 70.7502C44.3838 71.6439 42.9402 71.5751 43.0777 70.6815C43.3527 66.3509 43.6964 62.0891 44.1775 57.8272C45.2086 47.4475 46.7209 37.2053 48.5081 27.0319C48.6456 26.207 49.8142 26.2757 49.9517 27.0319C50.6391 30.1939 51.2577 33.3559 51.8764 36.5179ZM46.9271 46.6914C48.6456 46.4852 50.5016 46.4164 52.3575 46.4852C51.3952 41.3297 50.3641 36.1742 49.2643 31.0188C49.1955 31.2937 49.1955 31.6374 49.1268 31.9124C48.2332 36.7242 47.5458 41.6734 46.9271 46.6914ZM82.2265 27.1006C82.364 26.2757 83.7388 26.2757 83.7388 27.1694C83.6013 29.5065 83.6013 31.9124 83.5326 34.2495C83.2576 46.4164 83.2576 58.5146 83.3951 70.6815C83.3951 71.6439 81.9516 71.5751 81.9516 70.6815C81.8828 67.1071 81.8141 63.5326 81.8141 59.9581V47.86C79.8206 47.7912 77.9647 47.86 75.9712 47.9974C75.9025 55.5588 75.9025 63.1202 76.0399 70.6815C76.0399 71.6439 74.5277 71.5751 74.5277 70.6815C74.5277 67.1071 74.4589 63.5326 74.4589 59.9581C74.3902 53.7028 74.4589 47.4475 74.5277 41.1922C74.5964 36.5179 74.5964 31.8436 74.8714 27.1006C75.0089 26.207 76.4524 26.2757 76.3149 27.1694C76.2462 29.5065 76.1774 31.9124 76.1774 34.2495C76.0399 38.3052 76.0399 42.4295 75.9712 46.5539C77.9647 46.4164 79.8894 46.3477 81.8141 46.4164C81.8828 44.6979 81.8828 42.9107 81.9516 41.1922C82.0203 36.5179 82.0203 31.8436 82.2265 27.1006ZM97.3895 36.5179C99.6579 47.7912 101.858 59.1333 104.057 70.4066C104.332 71.3002 102.889 71.7126 102.614 70.7502C101.995 67.4507 101.308 64.1512 100.689 60.783C99.7954 56.5212 99.0392 52.2593 98.2144 47.9287C96.0147 47.86 94.0213 47.9287 92.1653 48.1349C91.2717 55.6275 90.5843 63.1889 90.0344 70.7502C89.8969 71.6439 88.4533 71.5751 88.5908 70.6815C88.8658 66.3509 89.2095 62.0891 89.6907 57.8272C90.7218 47.4475 92.234 37.2053 94.0213 27.0319C94.1587 26.207 95.3273 26.2757 95.4648 27.0319C96.1522 30.1939 96.7708 33.3559 97.3895 36.5179ZM92.4402 46.6914C94.1587 46.4852 96.0147 46.4164 97.8707 46.4852C96.9083 41.3297 95.8772 36.1742 94.7774 31.0188C94.7087 31.2937 94.7087 31.6374 94.6399 31.9124C93.7463 36.7242 93.0589 41.6734 92.4402 46.6914ZM110.904 70.6128C111.041 71.5751 109.598 71.6439 109.46 70.7502C109.117 67.4507 108.979 64.7012 108.704 61.4704C107.811 50.0596 107.467 38.7176 107.604 27.3068C107.604 27.1006 107.673 26.9631 107.673 27.0319C107.811 26.5507 108.498 26.2757 108.91 26.6194C112.897 29.8502 115.234 33.9746 115.372 38.1677C115.441 41.7421 113.791 45.3853 111.248 47.5163C113.997 55.4213 116.197 62.5702 119.221 70.4753C119.496 71.3689 118.053 71.7813 117.778 70.8877C114.891 63.1889 112.622 56.1775 109.941 48.4099L109.392 48.7536C109.735 56.2462 110.148 63.1889 110.904 70.6128ZM109.392 47.1038C112.279 45.1104 114.066 41.5359 113.86 37.9615C113.722 34.7307 112.072 31.4312 109.048 28.6816V37.0679C109.117 40.3674 109.254 43.7356 109.392 47.1038ZM128.978 26.4132C129.872 26.4132 129.872 27.788 128.978 27.9255C127.741 27.9942 126.572 27.9942 125.404 27.9942C125.404 33.2872 125.953 59.4082 125.747 70.6815C125.747 71.6439 124.304 71.5751 124.304 70.6815L123.823 27.9942C122.791 27.9942 121.76 27.9942 120.729 27.9255C119.767 27.9255 119.836 26.482 120.729 26.482C123.479 26.6194 126.228 26.5507 128.978 26.4132Z" fill="#474646"/>
<path d="M192.623 6.59451L177.944 18.5537L179.911 21.3607L194.994 9.29353C196.924 8.94553 198.475 9.61934 199.517 7.23971C200.184 5.71576 200.275 5.04137 199.05 4.71907C199.338 3.01119 199.234 2.33183 197.105 2.49707C196.346 1.18741 195.776 0.496099 194.523 1.67263C194.723 0.894602 194.7 1.39295 194.607 0.587474C194.005 0.0313216 193.694 0.311881 193.089 0.85694L193.063 0.880291C191.712 3.01966 192.156 3.7209 192.623 6.59451Z" stroke="#474646" stroke-width="0.569032"/>
<path d="M128.247 8.56458L141.697 20.2417L142.008 24.7879L125.971 11.4843C125.971 11.4843 122.711 10.8879 122.016 10.4587C121.322 10.0293 120.548 9.47924 121.221 7.90712C121.013 7.2012 121.243 6.83978 122.34 6.26319C122.135 5.18008 122.505 4.93572 123.639 4.85485C124.821 3.92122 125.421 4.21842 126.462 5.11906C127.981 5.53859 128.286 6.3896 128.247 8.56458Z" stroke="#474646" stroke-width="0.569032"/>
<path d="M152.268 71.8646C151.007 58.5036 153.016 53.1143 154.241 38.3114L158.795 41.2997L156.116 61.8343C156.116 61.8343 157.001 61.0871 157.653 60.7279C158.305 60.3692 159.051 60.1912 159.051 60.1912C160.941 60.2103 161.481 61.7539 163.216 64.4248C164.33 66.9359 164.683 68.2676 159.737 69.966C157.541 70.6783 156.322 70.9502 154.481 68.2016L154.257 72.0068L152.268 71.8646Z" stroke="#474646" stroke-width="0.530725"/>
<path d="M170.686 71.3676L168.279 71.1961L168.343 55.8007L167.283 39.8626L170.968 36.1885L173.369 61.4855C175.681 59.361 176.486 60.3187 178.1 61.4757C181.08 64.6624 181.515 67.7404 178.831 68.7069C176.146 69.6729 173.379 70.9312 170.876 68.1391L170.686 71.3676Z" stroke="#474646" stroke-width="0.530725"/>
<path d="M175.015 13.5509C169.96 13.9098 166.058 17.3191 164.051 24.8527C159.508 18.145 156.531 15.4463 151.27 13.4453C146.008 11.4443 136.508 14.0424 138.701 26.2693C141.852 35.2838 149.555 40.3857 163.553 49.4872C173.948 40.4344 182.405 31.9104 185.029 25.845C187.654 19.7802 181.943 13.4232 175.015 13.5509Z" fill="#F16762"/>
</svg>
