<svg width="281" height="102" viewBox="0 0 281 102" fill="none" xmlns="http://www.w3.org/2000/svg">
<path d="M8.46872 97.6579C8.66119 99.0052 6.64024 99.1014 6.44777 97.8503C5.9666 93.231 5.77413 89.3816 5.38918 84.8586C4.13812 68.8835 3.65695 53.0046 3.84942 37.0296C3.84942 36.7409 3.94565 36.5484 3.94565 36.6446C4.13812 35.971 5.10048 35.586 5.67789 36.0672C11.2595 40.5903 14.5315 46.3644 14.724 52.2348C14.8203 57.239 12.5106 62.3395 8.94989 65.3228C12.7993 76.3898 15.8788 86.3983 20.1132 97.4654C20.4981 98.7165 18.4772 99.2939 18.0923 98.0428C14.0504 87.2645 10.8746 77.4484 7.12142 66.5738L6.35154 67.055C6.83272 77.5447 7.41013 87.2645 8.46872 97.6579ZM6.35154 64.7454C10.3934 61.9545 12.8955 56.9503 12.6068 51.946C12.4144 47.423 10.1047 42.8037 5.87036 38.9543V50.695C5.9666 55.3143 6.15907 60.0298 6.35154 64.7454ZM30.3818 46.6531C30.0931 63.3018 29.9969 79.9506 30.1894 96.5993H32.6915C34.0388 96.5993 34.135 98.7165 32.6915 98.7165C30.4781 98.8127 28.2646 98.6202 26.0512 98.7165C24.7039 98.7165 24.8002 96.5993 26.0512 96.5993H28.1684C28.0722 91.8838 27.9759 87.1682 27.9759 82.4527C27.8797 73.6953 27.9759 64.9378 28.1684 56.1804C28.2646 50.1176 28.2646 43.9585 28.5534 37.9919H26.1475C24.8002 38.1844 24.7039 35.8747 26.0512 35.8747C28.2646 35.8747 30.3818 35.7785 32.6915 35.7785C34.0388 35.7785 34.0388 37.7032 32.6915 37.8957C32.0178 37.8957 31.3442 37.9919 30.6705 37.9919C30.4781 40.7827 30.4781 43.766 30.3818 46.6531ZM51.3987 36.7409C51.5912 35.586 53.5159 35.586 53.5159 36.8371C53.3234 40.1091 53.3234 43.4773 53.2272 46.7493C52.8423 63.783 52.8423 80.7204 53.0347 97.7541C53.0347 99.1014 51.0138 99.0052 51.0138 97.7541C50.9176 92.7499 50.8213 87.7456 50.8213 82.7414V65.804C48.0305 65.7077 45.4321 65.804 42.6413 65.9964C42.5451 76.5823 42.5451 87.1682 42.7376 97.7541C42.7376 99.1014 40.6204 99.0052 40.6204 97.7541C40.6204 92.7499 40.5241 87.7456 40.5241 82.7414C40.4279 73.984 40.5241 65.2265 40.6204 56.4691C40.7166 49.9251 40.7166 43.3811 41.1015 36.7409C41.294 35.4898 43.315 35.586 43.1225 36.8371C43.0263 40.1091 42.93 43.4773 42.93 46.7493C42.7376 52.4272 42.7376 58.2014 42.6413 63.9755C45.4321 63.783 48.1267 63.6868 50.8213 63.783C50.9176 61.3771 50.9176 58.875 51.0138 56.4691C51.11 49.9251 51.11 43.3811 51.3987 36.7409ZM72.6269 49.9251C75.8027 65.7077 78.8822 81.5866 81.9618 97.3692C82.3467 98.6202 80.3258 99.1976 79.9408 97.8503C79.0747 93.231 78.1123 88.6117 77.2462 83.8962C75.9952 77.9296 74.9366 71.963 73.7817 65.9002C70.7022 65.804 67.9114 65.9002 65.313 66.1889C64.062 76.6786 63.0996 87.2645 62.3297 97.8503C62.1373 99.1014 60.1163 99.0052 60.3088 97.7541C60.6937 91.6913 61.1749 85.7247 61.8486 79.7581C63.2921 65.2265 65.4093 50.8875 67.9114 36.6446C68.1039 35.4898 69.7399 35.586 69.9323 36.6446C70.8947 41.0714 71.7608 45.4983 72.6269 49.9251ZM65.698 64.168C68.1039 63.8792 70.7022 63.783 73.3006 63.8792C71.9533 56.6616 70.5097 49.4439 68.97 42.2263C68.8737 42.6112 68.8737 43.0924 68.7775 43.4773C67.5264 50.2138 66.5641 57.1428 65.698 64.168ZM115.117 36.7409C115.31 35.586 117.234 35.586 117.234 36.8371C117.042 40.1091 117.042 43.4773 116.946 46.7493C116.561 63.783 116.561 80.7204 116.753 97.7541C116.753 99.1014 114.732 99.0052 114.732 97.7541C114.636 92.7499 114.54 87.7456 114.54 82.7414V65.804C111.749 65.7077 109.151 65.804 106.36 65.9964C106.263 76.5823 106.263 87.1682 106.456 97.7541C106.456 99.1014 104.339 99.0052 104.339 97.7541C104.339 92.7499 104.243 87.7456 104.243 82.7414C104.146 73.984 104.243 65.2265 104.339 56.4691C104.435 49.9251 104.435 43.3811 104.82 36.7409C105.012 35.4898 107.033 35.586 106.841 36.8371C106.745 40.1091 106.648 43.4773 106.648 46.7493C106.456 52.4272 106.456 58.2014 106.36 63.9755C109.151 63.783 111.845 63.6868 114.54 63.783C114.636 61.3771 114.636 58.875 114.732 56.4691C114.828 49.9251 114.828 43.3811 115.117 36.7409ZM136.345 49.9251C139.521 65.7077 142.601 81.5866 145.68 97.3692C146.065 98.6202 144.044 99.1976 143.659 97.8503C142.793 93.231 141.831 88.6117 140.965 83.8962C139.714 77.9296 138.655 71.963 137.5 65.9002C134.421 65.804 131.63 65.9002 129.031 66.1889C127.78 76.6786 126.818 87.2645 126.048 97.8503C125.856 99.1014 123.835 99.0052 124.027 97.7541C124.412 91.6913 124.893 85.7247 125.567 79.7581C127.01 65.2265 129.128 50.8875 131.63 36.6446C131.822 35.4898 133.458 35.586 133.651 36.6446C134.613 41.0714 135.479 45.4983 136.345 49.9251ZM129.416 64.168C131.822 63.8792 134.421 63.783 137.019 63.8792C135.672 56.6616 134.228 49.4439 132.688 42.2263C132.592 42.6112 132.592 43.0924 132.496 43.4773C131.245 50.2138 130.282 57.1428 129.416 64.168ZM155.265 97.6579C155.458 99.0052 153.437 99.1014 153.244 97.8503C152.763 93.231 152.571 89.3816 152.186 84.8586C150.935 68.8835 150.454 53.0046 150.646 37.0296C150.646 36.7409 150.742 36.5484 150.742 36.6446C150.935 35.971 151.897 35.586 152.475 36.0672C158.056 40.5903 161.328 46.3644 161.521 52.2348C161.617 57.239 159.307 62.3395 155.747 65.3228C159.596 76.3898 162.675 86.3983 166.91 97.4654C167.295 98.7165 165.274 99.2939 164.889 98.0428C160.847 87.2645 157.671 77.4484 153.918 66.5738L153.148 67.055C153.629 77.5447 154.207 87.2645 155.265 97.6579ZM153.148 64.7454C157.19 61.9545 159.692 56.9503 159.403 51.946C159.211 47.423 156.901 42.8037 152.667 38.9543V50.695C152.763 55.3143 152.956 60.0298 153.148 64.7454ZM180.569 35.7785C181.82 35.7785 181.82 37.7032 180.569 37.8957C178.837 37.9919 177.201 37.9919 175.565 37.9919C175.565 45.402 176.335 81.9715 176.046 97.7541C176.046 99.1014 174.025 99.0052 174.025 97.7541L173.352 37.9919C171.908 37.9919 170.465 37.9919 169.021 37.8957C167.674 37.8957 167.77 35.8747 169.021 35.8747C172.87 36.0672 176.72 35.971 180.569 35.7785Z" fill="#474646"/>
<path d="M269.672 9.2323L249.122 25.9752L251.875 29.905L272.991 13.0109C275.693 12.5237 277.866 13.4671 279.324 10.1356C280.258 8.00206 280.384 7.05791 278.67 6.60669C279.073 4.21567 278.928 3.26456 275.947 3.4959C274.885 1.66237 274.086 0.694533 272.333 2.34168C272.612 1.25244 272.58 1.95012 272.45 0.822458C271.607 0.0438441 271.171 0.436627 270.324 1.19971L270.288 1.2324C268.396 4.22751 269.018 5.20926 269.672 9.2323Z" stroke="#474646" stroke-width="0.796645"/>
<path d="M179.545 11.9904L198.376 28.3385L198.812 34.7031L176.36 16.0781C176.36 16.0781 171.795 15.243 170.823 14.6422C169.85 14.041 168.767 13.2709 169.709 11.07C169.418 10.0817 169.74 9.57571 171.275 8.76848C170.989 7.25213 171.507 6.91002 173.094 6.79681C174.75 5.48972 175.589 5.90579 177.047 7.1667C179.174 7.75403 179.601 8.94546 179.545 11.9904Z" stroke="#474646" stroke-width="0.796645"/>
<path d="M213.176 100.61C211.409 81.905 214.222 74.3601 215.937 53.636L222.313 57.8196L218.563 86.568C218.563 86.568 219.801 85.5219 220.714 85.0191C221.626 84.5169 222.671 84.2677 222.671 84.2677C225.318 84.2944 226.074 86.4555 228.502 90.1948C230.062 93.7102 230.556 95.5747 223.632 97.9524C220.557 98.9496 218.851 99.3302 216.273 95.4823L215.96 100.81L213.176 100.61Z" stroke="#474646" stroke-width="0.743015"/>
<path d="M238.961 99.9146L235.59 99.6746L235.681 78.1211L234.197 55.8077L239.355 50.6639L242.717 86.0797C245.954 83.1055 247.08 84.4462 249.339 86.066C253.512 90.5274 254.121 94.8365 250.363 96.1897C246.605 97.5421 242.73 99.3038 239.227 95.3947L238.961 99.9146Z" stroke="#474646" stroke-width="0.743015"/>
<path d="M245.021 18.9712C237.943 19.4738 232.481 24.2468 229.671 34.7937C223.311 25.4031 219.144 21.6248 211.778 18.8234C204.412 16.022 191.112 19.6594 194.181 36.777C198.593 49.3974 209.377 56.54 228.974 69.2821C243.527 56.6081 255.366 44.6745 259.041 36.1831C262.715 27.6923 254.72 18.7925 245.021 18.9712Z" fill="#F16762"/>
</svg>
