<svg width="439" height="159" viewBox="0 0 439 159" fill="none" xmlns="http://www.w3.org/2000/svg">
<path d="M13.2505 153.628C13.5516 155.736 10.3896 155.886 10.0884 153.929C9.33557 146.701 9.03443 140.678 8.43213 133.601C6.47467 108.606 5.7218 83.7616 6.02295 58.7663C6.02295 58.3146 6.17352 58.0135 6.17352 58.164C6.47467 57.11 7.98041 56.5077 8.88385 57.2606C17.6171 64.3376 22.7366 73.372 23.0378 82.557C23.1884 90.3868 19.5746 98.3672 14.0034 103.035C20.0263 120.351 24.8447 136.011 31.4699 153.327C32.0722 155.284 28.9102 156.188 28.3079 154.23C21.9838 137.366 17.0148 122.007 11.1425 104.992L9.93787 105.745C10.6907 122.158 11.5942 137.366 13.2505 153.628ZM9.93787 102.132C16.262 97.7649 20.1769 89.9351 19.7252 82.1053C19.424 75.0283 15.8102 67.8007 9.185 61.7778V80.1478C9.33557 87.3753 9.63672 94.7535 9.93787 102.132ZM47.5366 73.8237C47.0849 99.873 46.9343 125.922 47.2355 151.971H51.1504C53.2584 151.971 53.409 155.284 51.1504 155.284C47.6872 155.435 44.224 155.134 40.7608 155.284C38.6528 155.284 38.8033 151.971 40.7608 151.971H44.0734C43.9228 144.593 43.7723 137.215 43.7723 129.837C43.6217 116.135 43.7723 102.433 44.0734 88.7305C44.224 79.2444 44.224 69.6076 44.6757 60.2721H40.9114C38.8033 60.5732 38.6528 56.9594 40.7608 56.9594C44.224 56.9594 47.5366 56.8089 51.1504 56.8089C53.2584 56.8089 53.2584 59.8203 51.1504 60.1215C50.0964 60.1215 49.0423 60.2721 47.9883 60.2721C47.6872 64.6387 47.6872 69.3065 47.5366 73.8237ZM80.4205 58.3146C80.7217 56.5077 83.7331 56.5077 83.7331 58.4652C83.432 63.5847 83.432 68.8548 83.2814 73.9743C82.6791 100.626 82.6791 127.127 82.9803 153.778C82.9803 155.886 79.8182 155.736 79.8182 153.778C79.6676 145.949 79.5171 138.119 79.5171 130.289V103.788C75.1504 103.637 71.0849 103.788 66.7183 104.089C66.5677 120.652 66.5677 137.215 66.8689 153.778C66.8689 155.886 63.5562 155.736 63.5562 153.778C63.5562 145.949 63.4057 138.119 63.4057 130.289C63.2551 116.587 63.4057 102.884 63.5562 89.1822C63.7068 78.9432 63.7068 68.7042 64.3091 58.3146C64.6103 56.3571 67.7723 56.5077 67.4712 58.4652C67.3206 63.5847 67.17 68.8548 67.17 73.9743C66.8689 82.8581 66.8689 91.8926 66.7183 100.927C71.0849 100.626 75.301 100.475 79.5171 100.626C79.6676 96.8615 79.6676 92.9466 79.8182 89.1822C79.9688 78.9432 79.9688 68.7042 80.4205 58.3146ZM113.635 78.9432C118.604 103.637 123.422 128.482 128.241 153.176C128.843 155.134 125.681 156.037 125.079 153.929C123.723 146.701 122.218 139.474 120.863 132.096C118.905 122.76 117.249 113.425 115.442 103.938C110.623 103.788 106.257 103.938 102.191 104.39C100.234 120.803 98.7282 137.366 97.5236 153.929C97.2224 155.886 94.0604 155.736 94.3615 153.778C94.9638 144.292 95.7167 134.957 96.7707 125.621C99.0293 102.884 102.342 80.449 106.257 58.164C106.558 56.3571 109.118 56.5077 109.419 58.164C110.925 65.0904 112.28 72.0168 113.635 78.9432ZM102.794 101.228C106.558 100.776 110.623 100.626 114.689 100.776C112.581 89.4834 110.322 78.1903 107.913 66.8973C107.763 67.4996 107.763 68.2525 107.612 68.8548C105.655 79.3949 104.149 90.2362 102.794 101.228ZM180.117 58.3146C180.418 56.5077 183.429 56.5077 183.429 58.4652C183.128 63.5847 183.128 68.8548 182.978 73.9743C182.375 100.626 182.375 127.127 182.677 153.778C182.677 155.886 179.515 155.736 179.515 153.778C179.364 145.949 179.213 138.119 179.213 130.289V103.788C174.847 103.637 170.781 103.788 166.415 104.089C166.264 120.652 166.264 137.215 166.565 153.778C166.565 155.886 163.253 155.736 163.253 153.778C163.253 145.949 163.102 138.119 163.102 130.289C162.951 116.587 163.102 102.884 163.253 89.1822C163.403 78.9432 163.403 68.7042 164.005 58.3146C164.307 56.3571 167.469 56.5077 167.167 58.4652C167.017 63.5847 166.866 68.8548 166.866 73.9743C166.565 82.8581 166.565 91.8926 166.415 100.927C170.781 100.626 174.997 100.475 179.213 100.626C179.364 96.8615 179.364 92.9466 179.515 89.1822C179.665 78.9432 179.665 68.7042 180.117 58.3146ZM213.331 78.9432C218.3 103.637 223.119 128.482 227.937 153.176C228.539 155.134 225.377 156.037 224.775 153.929C223.42 146.701 221.914 139.474 220.559 132.096C218.601 122.76 216.945 113.425 215.138 103.938C210.32 103.788 205.953 103.938 201.888 104.39C199.93 120.803 198.424 137.366 197.22 153.929C196.919 155.886 193.757 155.736 194.058 153.778C194.66 144.292 195.413 134.957 196.467 125.621C198.726 102.884 202.038 80.449 205.953 58.164C206.254 56.3571 208.814 56.5077 209.115 58.164C210.621 65.0904 211.976 72.0168 213.331 78.9432ZM202.49 101.228C206.254 100.776 210.32 100.626 214.385 100.776C212.277 89.4834 210.019 78.1903 207.609 66.8973C207.459 67.4996 207.459 68.2525 207.308 68.8548C205.351 79.3949 203.845 90.2362 202.49 101.228ZM242.934 153.628C243.235 155.736 240.073 155.886 239.772 153.929C239.019 146.701 238.718 140.678 238.116 133.601C236.158 108.606 235.406 83.7616 235.707 58.7663C235.707 58.3146 235.857 58.0135 235.857 58.164C236.158 57.11 237.664 56.5077 238.568 57.2606C247.301 64.3376 252.42 73.372 252.722 82.557C252.872 90.3868 249.258 98.3672 243.687 103.035C249.71 120.351 254.528 136.011 261.154 153.327C261.756 155.284 258.594 156.188 257.992 154.23C251.668 137.366 246.699 122.007 240.826 104.992L239.622 105.745C240.375 122.158 241.278 137.366 242.934 153.628ZM239.622 102.132C245.946 97.7649 249.861 89.9351 249.409 82.1053C249.108 75.0283 245.494 67.8007 238.869 61.7778V80.1478C239.019 87.3753 239.321 94.7535 239.622 102.132ZM282.526 56.8089C284.483 56.8089 284.483 59.8203 282.526 60.1215C279.815 60.2721 277.256 60.2721 274.696 60.2721C274.696 71.8662 275.901 129.084 275.449 153.778C275.449 155.886 272.287 155.736 272.287 153.778L271.233 60.2721C268.974 60.2721 266.716 60.2721 264.457 60.1215C262.349 60.1215 262.5 56.9594 264.457 56.9594C270.48 57.2606 276.503 57.11 282.526 56.8089Z" fill="#FDFFFE"/>
<path d="M421.942 14.4451L389.789 40.6416L394.096 46.7904L427.136 20.3572C431.363 19.595 434.762 21.0709 437.044 15.8584C438.505 12.5202 438.703 11.0429 436.021 10.3369C436.651 6.59583 436.424 5.10769 431.76 5.46965C430.098 2.60084 428.849 1.08652 426.105 3.66371C426.542 1.95944 426.492 3.05106 426.288 1.28668C424.97 0.0684269 424.288 0.682991 422.963 1.87694L422.907 1.92809C419.946 6.61436 420.919 8.15044 421.942 14.4451Z" stroke="#FDFFFE" stroke-width="1.24646"/>
<path d="M280.925 18.761L310.389 44.3398L311.07 54.2981L275.941 25.1567C275.941 25.1567 268.798 23.8502 267.278 22.9101C265.756 21.9694 264.062 20.7646 265.535 17.3209C265.08 15.7745 265.583 14.9829 267.986 13.7198C267.538 11.3473 268.348 10.812 270.831 10.6349C273.422 8.58975 274.735 9.24076 277.016 11.2136C280.344 12.1326 281.012 13.9967 280.925 18.761Z" stroke="#FDFFFE" stroke-width="1.24646"/>
<path d="M333.543 157.418C330.779 128.151 335.18 116.346 337.864 83.9199L347.839 90.4657L341.972 135.447C341.972 135.447 343.909 133.81 345.338 133.023C346.765 132.237 348.4 131.848 348.4 131.848C352.541 131.889 353.723 135.271 357.524 141.121C359.964 146.622 360.736 149.539 349.904 153.259C345.092 154.819 342.423 155.415 338.389 149.394L337.899 157.73L333.543 157.418Z" stroke="#FDFFFE" stroke-width="1.16255"/>
<path d="M373.892 156.331L368.618 155.956L368.759 122.232L366.438 87.3197L374.508 79.2715L379.769 134.684C384.833 130.031 386.595 132.129 390.13 134.663C396.659 141.643 397.612 148.386 391.731 150.503C385.851 152.619 379.789 155.375 374.308 149.259L373.892 156.331Z" stroke="#FDFFFE" stroke-width="1.16255"/>
<path d="M383.371 29.6837C372.297 30.47 363.751 37.9381 359.354 54.4402C349.403 39.7472 342.883 33.8356 331.357 29.4524C319.832 25.0693 299.022 30.7604 303.824 57.5434C310.728 77.2897 327.6 88.4654 358.263 108.402C381.034 88.5719 399.558 69.9002 405.307 56.6141C411.056 43.3291 398.547 29.4041 383.371 29.6837Z" fill="#F16762"/>
</svg>
