<svg width="162" height="137" viewBox="0 0 162 137" fill="none" xmlns="http://www.w3.org/2000/svg">
<path fill-rule="evenodd" clip-rule="evenodd" d="M118.764 114.133C93.4214 142.033 50.2602 144.106 22.3603 118.764C-5.53954 93.422 -7.61296 50.2608 17.7292 22.3609C43.0714 -5.53894 86.2325 -7.61237 114.132 17.7298L159.244 58.7062C162.23 61.4177 162.451 66.0358 159.74 69.021L118.764 114.133ZM95.1889 92.7196C81.6731 107.6 58.6538 108.705 43.7739 95.1896C28.894 81.6737 27.7881 58.6544 41.304 43.7745C54.8198 28.8946 77.8391 27.7888 92.719 41.3046L115.919 62.3782C117.986 64.2554 118.14 67.4525 116.263 69.5192L95.1889 92.7196Z" fill="#26B77B"/>
</svg>
