<svg width="220" height="215" viewBox="0 0 220 215" fill="none" xmlns="http://www.w3.org/2000/svg">
<ellipse cx="109.653" cy="107.261" rx="109.653" ry="107.261" fill="#E8F6F2"/>
<path d="M172.136 128.453C167.584 161.142 127.171 189.279 107.585 201.279C87.999 189.279 48.4134 164.452 43.0342 128.453V41.5576C55.7236 43.9024 86.399 43.3783 107.585 22.5234C128.771 43.3783 159.446 43.9024 172.136 41.5576V128.453Z" fill="#D9C9BF" stroke="#9B734C" stroke-width="0.827573" stroke-linecap="round"/>
<path d="M49.6545 53.9733C76.1368 58.6078 98.3432 44.87 105.929 37.4219C113.515 44.87 137.377 58.6078 163.859 53.9733C163.859 79.766 165.929 121.421 162.204 133.834C161.729 135.42 137.377 182.247 105.929 191.764C59.1714 165.696 51.3715 136.247 50.8958 134.662C47.1716 122.248 49.6545 79.766 49.6545 53.9733Z" fill="#F5F1EE"/>
<path d="M90.6866 144.001C94.7138 144.001 93.0377 152.774 92.1987 156.969C91.2212 161.856 99.5488 146.862 99.5488 146.862L106.899 135.528L113.33 145.943C113.33 145.943 121.467 160.934 120.489 156.047C119.65 151.852 117.974 143.079 122.001 143.079C126.029 143.079 133.748 148.113 137.104 150.63C133.748 146.435 130.559 138.548 144.655 140.562L142.138 138.045L157.24 135.528C150.528 133.011 137.607 126.97 139.621 122.942C141.634 118.915 152.206 111.196 157.24 107.84C154.723 107.84 149.689 106.833 149.689 102.806C149.689 98.779 155.562 96.2473 157.24 95.4083C157.24 95.4083 149.185 94.2484 157.24 80.153C152.206 82.67 140.765 87.7947 139.621 85.1871C138.865 83.4644 140.829 78.5693 139.783 79.7893C134.749 85.6624 124.015 97.2688 122.001 95.2552C119.988 93.2415 121.162 75.958 122.001 67.5679C122.139 66.1955 118.478 76.6292 114.45 72.6019C110.423 68.5747 112.814 64.1704 111.933 65.0509C110.255 66.7289 107.994 65.2302 105.98 53.1484C103.967 65.2302 102.433 67.6508 100.755 65.9728C99.8742 65.0923 102.265 69.4967 98.2377 73.5239C94.2104 77.5511 90.6866 68.058 90.6866 68.4899C91.5256 76.8799 92.7002 94.1635 90.6866 96.1771C88.673 98.1908 77.9388 86.5844 72.9047 80.7113C71.859 79.4913 73.8235 84.3864 73.0674 86.109C71.923 88.7166 60.4823 83.592 55.4482 81.075C63.5027 95.1703 55.4482 96.3303 55.4482 96.3303C57.1263 97.1693 62.9993 99.701 62.9993 103.728C62.9993 107.755 57.9653 108.762 55.4482 108.762C60.4823 112.118 71.0538 119.837 73.0674 123.864C75.081 127.892 62.1603 133.933 55.4482 136.45L70.5504 138.967L68.0334 141.484C82.1287 139.47 78.9405 147.357 75.5844 151.552C78.9405 149.035 86.6594 144.001 90.6866 144.001Z" fill="#26B77A" stroke="#00673D" stroke-width="0.62068" stroke-linejoin="round"/>
<path d="M106.896 136.742C105.059 149.299 102.303 167.98 96.79 176.249" stroke="#00673D" stroke-width="1.24136" stroke-linecap="round"/>
<path d="M81.397 110.73C77.1015 111.958 67.5901 113.86 63.9082 111.651" stroke="#00673D" stroke-width="0.413787" stroke-linecap="round"/>
<path d="M104.407 133.741L95.6629 133.971L86.9185 134.201M69.4297 134.662L86.9185 134.201M86.9185 134.201C83.5434 131.9 76.6093 127.482 75.8729 128.218" stroke="#00673D" stroke-width="0.413787" stroke-linecap="round"/>
<path d="M90.6011 134.664C87.5329 137.732 82.1329 142.948 81.3965 142.948" stroke="#00673D" stroke-width="0.413787" stroke-linecap="round"/>
<path d="M120.979 134.664C123.433 136.812 129.079 141.107 132.024 141.107" stroke="#00673D" stroke-width="0.413787" stroke-linecap="round"/>
<path d="M108.089 113.492C109.316 113.185 112.507 110.731 115.453 103.367" stroke="#00673D" stroke-width="0.413787" stroke-linecap="round"/>
<path d="M96.124 89.543L107.17 107.032" stroke="#00673D" stroke-width="0.413787" stroke-linecap="round"/>
<path d="M108.089 94.1361L118.214 78.4883" stroke="#00673D" stroke-width="0.413787" stroke-linecap="round"/>
<path d="M100.727 79.4414C102.261 80.9755 105.697 84.0437 107.17 84.0437" stroke="#00673D" stroke-width="0.413787" stroke-linecap="round"/>
<path d="M90.6064 105.203C90.9133 109.192 91.3428 117.537 90.6064 119.01" stroke="#00673D" stroke-width="0.413787" stroke-linecap="round"/>
<path d="M75.875 93.2344C76.1818 96.6094 76.7955 103.544 76.7955 104.28" stroke="#00673D" stroke-width="0.413787" stroke-linecap="round"/>
<path d="M108.092 70.2305L107.172 135.583M107.172 135.583C91.831 120.856 62.0693 91.217 62.0693 90.4806M107.172 135.583L147.672 85.8783" stroke="#00673D" stroke-width="0.413787" stroke-linecap="round"/>
<path d="M134.785 90.4766C134.171 93.8516 133.128 100.786 133.865 101.522" stroke="#00673D" stroke-width="0.413787" stroke-linecap="round"/>
<path d="M129.263 109.804C135.092 109.804 147.672 109.252 151.354 107.043H152.274" stroke="#00673D" stroke-width="0.413787" stroke-linecap="round"/>
<path d="M120.979 118.996C123.74 119.917 130.551 121.205 135.706 118.996" stroke="#00673D" stroke-width="0.413787" stroke-linecap="round"/>
<path d="M121.896 105.203C121.283 109.192 120.179 116.964 121.652 117.701" stroke="#00673D" stroke-width="0.413787" stroke-linecap="round"/>
<path d="M139.389 125.449C136.934 127.597 132.025 132.077 132.025 132.813C132.025 133.549 116.684 133.733 109.014 133.733" stroke="#00673D" stroke-width="0.413787" stroke-linecap="round"/>
<path d="M132.021 132.819L148.59 131.898" stroke="#00673D" stroke-width="0.413787" stroke-linecap="round"/>
<path d="M121.897 133.752C124.045 131.911 128.709 128.045 130.182 127.309" stroke="#00673D" stroke-width="0.413787" stroke-linecap="round"/>
</svg>
