<svg width="18" height="15" viewBox="0 0 18 15" fill="none" xmlns="http://www.w3.org/2000/svg">
<path d="M2.55664 1.97168C3.32335 1.4359 4.37561 1.38789 5.11719 1.66992C5.94696 1.98552 6.57718 2.34834 7.17969 2.8877C7.79045 3.43449 8.3894 4.17837 9.1377 5.2832L9.75293 6.19141L10.0352 5.13184C10.3546 3.93276 10.8128 3.11031 11.3496 2.5791C11.8738 2.06052 12.4989 1.79329 13.2217 1.73828C14.2192 1.72237 15.1257 2.17229 15.6836 2.83398C16.2377 3.49128 16.4304 4.32756 16.0811 5.13477C15.6793 6.06311 14.8065 7.22708 13.5684 8.55762C12.4067 9.80593 10.9516 11.1672 9.33984 12.5811C7.15612 11.1599 5.48244 10.0526 4.21973 8.9541C2.92174 7.82495 2.08423 6.72781 1.59375 5.34961C1.26816 3.47941 1.83953 2.47282 2.55664 1.97168Z" stroke="#474646"/>
</svg>
