<svg width="34" height="27" viewBox="0 0 34 27" fill="none" xmlns="http://www.w3.org/2000/svg">
<path d="M3.96973 2.7373C5.57914 1.61278 7.77182 1.51691 9.32227 2.10645C11.0053 2.74651 12.2944 3.48607 13.5264 4.58887C14.7706 5.70274 15.9826 7.20994 17.4834 9.42578L18.4053 10.7881L18.8291 9.19824C19.4754 6.77253 20.4079 5.08449 21.5225 3.98145C22.619 2.89629 23.9308 2.33758 25.4375 2.22559C27.5097 2.19195 29.3939 3.12749 30.5576 4.50781C31.7162 5.88207 32.1351 7.65325 31.3926 9.36914C30.5714 11.2668 28.7998 13.6197 26.3193 16.2852C23.9539 18.827 20.9886 21.6026 17.7051 24.4775C13.2616 21.5866 9.84827 19.3331 7.27637 17.0957C4.64961 14.8106 2.94031 12.5765 1.94238 9.75586C1.2737 5.9354 2.4357 3.80929 3.96973 2.7373Z" stroke="#474646" stroke-width="1.5"/>
</svg>
