<svg width="68" height="53" viewBox="0 0 68 53" fill="none" xmlns="http://www.w3.org/2000/svg">
<path d="M7.65234 5.06543C11.0237 2.70953 15.5874 2.51547 18.8232 3.74609C22.2355 5.04385 24.8684 6.55122 27.3857 8.80469C29.9196 11.073 32.3709 14.1271 35.3809 18.5713L36.6104 20.3877L37.1748 18.2686C38.4823 13.361 40.3819 9.89496 42.6934 7.60742C44.9835 5.34113 47.7308 4.17732 50.8672 3.9502C55.1641 3.88053 59.0755 5.81914 61.498 8.69238C63.9158 11.5602 64.816 15.3018 63.2432 18.9365C61.5654 22.8136 57.9729 27.5704 53.0039 32.9102C48.1881 38.0852 42.1416 43.7385 35.4541 49.583C26.4198 43.7068 19.4606 39.1242 14.2246 34.5693C8.91518 29.9506 5.43102 25.4044 3.40039 19.6426C2.02128 11.8314 4.38207 7.3509 7.65234 5.06543Z" stroke="#474646" stroke-width="2"/>
</svg>
