<svg width="25" height="29" viewBox="0 0 25 29" fill="none" xmlns="http://www.w3.org/2000/svg">
<rect width="24.9275" height="28.8467" fill="#FEFFFF"/>
<rect width="24.9275" height="24.3066" fill="#F993C4"/>
<path d="M6.48211 27.8467V25.6655H7.8095V25.8805H6.74385V26.647H7.65059V26.8589H6.74385V27.8467H6.48211ZM9.04702 27.8841C8.90992 27.8841 8.79255 27.8581 8.69492 27.8062C8.59728 27.7522 8.51939 27.6805 8.46122 27.5912C8.40513 27.4998 8.37086 27.4001 8.35839 27.292H8.60144C8.62221 27.4084 8.67207 27.4987 8.751 27.5631C8.82994 27.6254 8.92965 27.6566 9.05013 27.6566C9.16023 27.6566 9.25786 27.6234 9.34303 27.5569C9.4282 27.4904 9.49675 27.3897 9.54868 27.2547C9.60269 27.1175 9.63282 26.9441 9.63905 26.7343C9.63905 26.7281 9.63905 26.7218 9.63905 26.7156C9.63905 26.7094 9.63905 26.7031 9.63905 26.6969C9.60789 26.7613 9.56219 26.8215 9.50195 26.8776C9.4417 26.9337 9.37004 26.9784 9.28695 27.0116C9.20593 27.0448 9.11453 27.0615 9.01274 27.0615C8.89018 27.0615 8.77385 27.0324 8.66376 26.9742C8.55574 26.9161 8.46745 26.835 8.3989 26.7312C8.33243 26.6252 8.29919 26.5016 8.29919 26.3604C8.29919 26.2378 8.32931 26.1204 8.38955 26.0083C8.4498 25.8961 8.536 25.8047 8.64818 25.7341C8.76035 25.6634 8.8933 25.6281 9.04702 25.6281C9.20282 25.6281 9.33472 25.6582 9.44274 25.7185C9.55076 25.7767 9.63697 25.8556 9.70137 25.9553C9.76784 26.0529 9.81562 26.1641 9.8447 26.2887C9.87378 26.4133 9.88832 26.5401 9.88832 26.6689C9.88832 26.9077 9.85509 27.1186 9.78861 27.3014C9.72422 27.4842 9.62866 27.6275 9.50195 27.7314C9.37731 27.8332 9.22567 27.8841 9.04702 27.8841ZM9.06571 26.834C9.16127 26.834 9.24748 26.8122 9.32434 26.7686C9.4012 26.7249 9.46144 26.6657 9.50506 26.591C9.55076 26.5162 9.57361 26.4341 9.57361 26.3448C9.57361 26.2492 9.55076 26.1651 9.50506 26.0924C9.46144 26.0197 9.4012 25.9626 9.32434 25.921C9.24748 25.8795 9.16127 25.8587 9.06571 25.8587C8.97016 25.8587 8.88395 25.8805 8.80709 25.9241C8.73231 25.9657 8.67311 26.0228 8.62948 26.0955C8.58586 26.1682 8.56405 26.2524 8.56405 26.3479C8.56405 26.4455 8.58586 26.5307 8.62948 26.6034C8.67311 26.6761 8.73231 26.7332 8.80709 26.7748C8.88395 26.8143 8.97016 26.834 9.06571 26.834ZM11.1906 27.8841C11.0535 27.8841 10.9361 27.8581 10.8385 27.8062C10.7408 27.7522 10.6629 27.6805 10.6048 27.5912C10.5487 27.4998 10.5144 27.4001 10.5019 27.292H10.745C10.7658 27.4084 10.8156 27.4987 10.8946 27.5631C10.9735 27.6254 11.0732 27.6566 11.1937 27.6566C11.3038 27.6566 11.4014 27.6234 11.4866 27.5569C11.5718 27.4904 11.6403 27.3897 11.6922 27.2547C11.7462 27.1175 11.7764 26.9441 11.7826 26.7343C11.7826 26.7281 11.7826 26.7218 11.7826 26.7156C11.7826 26.7094 11.7826 26.7031 11.7826 26.6969C11.7514 26.7613 11.7057 26.8215 11.6455 26.8776C11.5853 26.9337 11.5136 26.9784 11.4305 27.0116C11.3495 27.0448 11.2581 27.0615 11.1563 27.0615C11.0337 27.0615 10.9174 27.0324 10.8073 26.9742C10.6993 26.9161 10.611 26.835 10.5425 26.7312C10.476 26.6252 10.4427 26.5016 10.4427 26.3604C10.4427 26.2378 10.4729 26.1204 10.5331 26.0083C10.5933 25.8961 10.6796 25.8047 10.7917 25.7341C10.9039 25.6634 11.0368 25.6281 11.1906 25.6281C11.3464 25.6281 11.4783 25.6582 11.5863 25.7185C11.6943 25.7767 11.7805 25.8556 11.8449 25.9553C11.9114 26.0529 11.9592 26.1641 11.9882 26.2887C12.0173 26.4133 12.0319 26.5401 12.0319 26.6689C12.0319 26.9077 11.9986 27.1186 11.9322 27.3014C11.8678 27.4842 11.7722 27.6275 11.6455 27.7314C11.5209 27.8332 11.3692 27.8841 11.1906 27.8841ZM11.2093 26.834C11.3048 26.834 11.391 26.8122 11.4679 26.7686C11.5447 26.7249 11.605 26.6657 11.6486 26.591C11.6943 26.5162 11.7172 26.4341 11.7172 26.3448C11.7172 26.2492 11.6943 26.1651 11.6486 26.0924C11.605 26.0197 11.5447 25.9626 11.4679 25.921C11.391 25.8795 11.3048 25.8587 11.2093 25.8587C11.1137 25.8587 11.0275 25.8805 10.9506 25.9241C10.8759 25.9657 10.8167 26.0228 10.773 26.0955C10.7294 26.1682 10.7076 26.2524 10.7076 26.3479C10.7076 26.4455 10.7294 26.5307 10.773 26.6034C10.8167 26.6761 10.8759 26.7332 10.9506 26.7748C11.0275 26.8143 11.1137 26.834 11.2093 26.834ZM13.2512 27.8841C13.112 27.8841 12.9853 27.8591 12.8711 27.8093C12.7589 27.7574 12.6696 27.6805 12.6031 27.5787C12.5366 27.4769 12.5013 27.3502 12.4972 27.1986H12.762C12.7641 27.2817 12.7838 27.3585 12.8212 27.4291C12.8607 27.4977 12.9168 27.5527 12.9895 27.5943C13.0622 27.6358 13.1494 27.6566 13.2512 27.6566C13.353 27.6566 13.4382 27.6369 13.5067 27.5974C13.5753 27.5579 13.6272 27.506 13.6625 27.4416C13.6978 27.3751 13.7155 27.3014 13.7155 27.2204C13.7155 27.1186 13.6906 27.0365 13.6407 26.9742C13.5929 26.9098 13.5275 26.8631 13.4444 26.834C13.3634 26.8028 13.2741 26.7873 13.1764 26.7873H13.0144V26.566H13.1764C13.3198 26.566 13.432 26.5328 13.513 26.4663C13.594 26.3998 13.6345 26.3084 13.6345 26.1921C13.6345 26.0966 13.6023 26.0166 13.5379 25.9522C13.4756 25.8878 13.38 25.8556 13.2512 25.8556C13.1287 25.8556 13.031 25.8909 12.9583 25.9615C12.8856 26.0322 12.8441 26.1225 12.8337 26.2326H12.5688C12.5751 26.1142 12.6073 26.0093 12.6654 25.9179C12.7236 25.8265 12.8025 25.7559 12.9022 25.706C13.002 25.6541 13.1193 25.6281 13.2543 25.6281C13.3956 25.6281 13.514 25.6531 13.6096 25.7029C13.7051 25.7528 13.7768 25.8192 13.8246 25.9023C13.8744 25.9854 13.8993 26.0768 13.8993 26.1765C13.8993 26.2513 13.8858 26.3219 13.8588 26.3884C13.8318 26.4528 13.7913 26.5099 13.7373 26.5598C13.6833 26.6097 13.6148 26.645 13.5317 26.6657C13.6168 26.6824 13.6927 26.7146 13.7591 26.7623C13.8277 26.8101 13.8817 26.8724 13.9212 26.9493C13.9606 27.0261 13.9804 27.1165 13.9804 27.2204C13.9804 27.3388 13.9523 27.4489 13.8962 27.5507C13.8422 27.6504 13.7612 27.7314 13.6532 27.7937C13.5452 27.854 13.4112 27.8841 13.2512 27.8841ZM15.5471 27.8841C15.3352 27.8841 15.1514 27.8373 14.9956 27.7439C14.8419 27.6483 14.7235 27.5164 14.6404 27.3481C14.5573 27.1778 14.5157 26.9804 14.5157 26.7561C14.5157 26.5318 14.5573 26.3354 14.6404 26.1672C14.7235 25.9968 14.8419 25.8649 14.9956 25.7715C15.1514 25.6759 15.3352 25.6281 15.5471 25.6281C15.7964 25.6281 15.9989 25.6873 16.1547 25.8057C16.3105 25.9241 16.4102 26.0914 16.4539 26.3074H16.1641C16.1308 26.1724 16.0633 26.0644 15.9615 25.9833C15.8597 25.9003 15.7216 25.8587 15.5471 25.8587C15.3913 25.8587 15.2563 25.8951 15.142 25.9678C15.0278 26.0384 14.9395 26.1412 14.8772 26.2762C14.8149 26.4092 14.7837 26.5691 14.7837 26.7561C14.7837 26.9431 14.8149 27.104 14.8772 27.2391C14.9395 27.372 15.0278 27.4748 15.142 27.5475C15.2563 27.6182 15.3913 27.6535 15.5471 27.6535C15.7216 27.6535 15.8597 27.614 15.9615 27.5351C16.0633 27.4541 16.1308 27.3471 16.1641 27.2141H16.4539C16.4102 27.424 16.3105 27.5881 16.1547 27.7065C15.9989 27.8249 15.7964 27.8841 15.5471 27.8841ZM18.0081 27.8467V27.3793H16.9019V27.1768L17.9613 25.6655H18.2667V27.1487H18.5908V27.3793H18.2667V27.8467H18.0081ZM17.1917 27.1487H18.0205V25.9553L17.1917 27.1487Z" fill="#4D4D63" fill-opacity="0.76"/>
</svg>
