<svg width="25" height="29" viewBox="0 0 25 29" fill="none" xmlns="http://www.w3.org/2000/svg">
<rect width="24.9275" height="28.8467" fill="#FEFFFF"/>
<rect width="24.9275" height="24.3066" fill="#ED2793"/>
<path d="M6.1969 27.8467V25.4474H7.68102V25.6839H6.48481V26.5202H7.5782V26.7533H6.48481V27.6102H7.68102V27.8467H6.1969ZM8.34058 27.8467V25.4474H9.04665C9.32771 25.4474 9.5585 25.4965 9.73902 25.5948C9.92182 25.6908 10.0566 25.829 10.1435 26.0095C10.2326 26.1878 10.2771 26.4025 10.2771 26.6539C10.2771 26.9007 10.2326 27.1132 10.1435 27.2914C10.0566 27.4697 9.92182 27.6068 9.73902 27.7027C9.5585 27.7987 9.32771 27.8467 9.04665 27.8467H8.34058ZM8.6285 27.6068H9.0398C9.27287 27.6068 9.45796 27.569 9.59506 27.4936C9.73216 27.416 9.83042 27.3063 9.88983 27.1646C9.94924 27.0206 9.97894 26.8504 9.97894 26.6539C9.97894 26.4528 9.94924 26.2803 9.88983 26.1363C9.83042 25.9924 9.73216 25.8816 9.59506 25.8039C9.45796 25.7262 9.27287 25.6873 9.0398 25.6873H8.6285V27.6068ZM10.8114 27.8467V27.6445C10.9736 27.5165 11.1279 27.3874 11.2741 27.2571C11.4227 27.1269 11.554 26.9978 11.6683 26.8698C11.7825 26.7396 11.8717 26.6128 11.9356 26.4894C12.0019 26.366 12.035 26.2472 12.035 26.1329C12.035 26.0484 12.0202 25.9707 11.9905 25.8998C11.9608 25.8267 11.9128 25.7673 11.8465 25.7216C11.7825 25.6759 11.6957 25.6531 11.586 25.6531C11.4786 25.6531 11.3895 25.677 11.3187 25.725C11.2478 25.7707 11.1941 25.8324 11.1576 25.9101C11.1233 25.9855 11.1062 26.0689 11.1062 26.1603H10.8285C10.8308 26.0027 10.864 25.8678 10.9279 25.7559C10.9942 25.6416 11.0845 25.5548 11.1987 25.4954C11.313 25.436 11.4432 25.4063 11.5895 25.4063C11.7334 25.4063 11.8602 25.4337 11.9699 25.4885C12.0796 25.5411 12.1653 25.6199 12.227 25.725C12.291 25.8301 12.3229 25.9627 12.3229 26.1226C12.3229 26.2346 12.299 26.3466 12.251 26.4585C12.2053 26.5705 12.1436 26.6802 12.0659 26.7876C11.9882 26.8927 11.9014 26.9944 11.8054 27.0926C11.7117 27.1909 11.6146 27.2834 11.5141 27.3703C11.4158 27.4571 11.3233 27.5359 11.2364 27.6068H12.4052V27.8467H10.8114ZM13.1886 27.8467L14.1244 25.6942H12.8082V25.4474H14.4191V25.6633L13.4937 27.8467H13.1886ZM15.7004 27.8878C15.5496 27.8878 15.4205 27.8592 15.3131 27.8021C15.2057 27.7427 15.12 27.6639 15.056 27.5656C14.9943 27.4651 14.9566 27.3554 14.9429 27.2366H15.2102C15.2331 27.3645 15.2879 27.4639 15.3748 27.5348C15.4616 27.6033 15.5713 27.6376 15.7038 27.6376C15.8249 27.6376 15.9323 27.601 16.026 27.5279C16.1197 27.4548 16.1951 27.344 16.2522 27.1954C16.3116 27.0446 16.3448 26.8538 16.3516 26.623C16.3516 26.6162 16.3516 26.6093 16.3516 26.6025C16.3516 26.5956 16.3516 26.5888 16.3516 26.5819C16.3173 26.6528 16.2671 26.719 16.2008 26.7807C16.1345 26.8424 16.0557 26.8915 15.9643 26.9281C15.8752 26.9647 15.7746 26.9829 15.6627 26.9829C15.5279 26.9829 15.3999 26.951 15.2788 26.887C15.16 26.823 15.0629 26.7339 14.9875 26.6196C14.9143 26.5031 14.8778 26.3671 14.8778 26.2117C14.8778 26.0769 14.9109 25.9478 14.9772 25.8244C15.0434 25.701 15.1383 25.6005 15.2617 25.5228C15.3851 25.4451 15.5313 25.4063 15.7004 25.4063C15.8718 25.4063 16.0169 25.4394 16.1357 25.5057C16.2545 25.5697 16.3493 25.6565 16.4202 25.7662C16.4933 25.8736 16.5458 25.9958 16.5778 26.1329C16.6098 26.27 16.6258 26.4094 16.6258 26.5511C16.6258 26.8138 16.5893 27.0458 16.5161 27.2469C16.4453 27.4479 16.3402 27.6056 16.2008 27.7199C16.0637 27.8318 15.8969 27.8878 15.7004 27.8878ZM15.721 26.7327C15.8261 26.7327 15.9209 26.7087 16.0054 26.6608C16.09 26.6128 16.1562 26.5476 16.2042 26.4654C16.2545 26.3831 16.2796 26.2929 16.2796 26.1946C16.2796 26.0895 16.2545 25.997 16.2042 25.917C16.1562 25.837 16.09 25.7742 16.0054 25.7285C15.9209 25.6828 15.8261 25.6599 15.721 25.6599C15.6158 25.6599 15.521 25.6839 15.4365 25.7319C15.3542 25.7776 15.2891 25.8404 15.2411 25.9204C15.1931 26.0004 15.1691 26.0929 15.1691 26.198C15.1691 26.3054 15.1931 26.3991 15.2411 26.4791C15.2891 26.5591 15.3542 26.6219 15.4365 26.6676C15.521 26.711 15.6158 26.7327 15.721 26.7327ZM17.9671 27.8878C17.814 27.8878 17.6746 27.8604 17.549 27.8055C17.4256 27.7484 17.3273 27.6639 17.2542 27.5519C17.1811 27.4399 17.1422 27.3006 17.1376 27.1338H17.429C17.4313 27.2252 17.453 27.3097 17.4941 27.3874C17.5375 27.4628 17.5992 27.5233 17.6792 27.569C17.7592 27.6147 17.8551 27.6376 17.9671 27.6376C18.0791 27.6376 18.1728 27.6159 18.2482 27.5725C18.3236 27.5291 18.3807 27.4719 18.4195 27.4011C18.4584 27.328 18.4778 27.2469 18.4778 27.1577C18.4778 27.0458 18.4504 26.9555 18.3956 26.887C18.343 26.8161 18.271 26.7647 18.1796 26.7327C18.0905 26.6985 17.9922 26.6813 17.8849 26.6813H17.7066V26.438H17.8849C18.0425 26.438 18.1659 26.4014 18.255 26.3283C18.3441 26.2552 18.3887 26.1546 18.3887 26.0267C18.3887 25.9215 18.3533 25.8336 18.2824 25.7627C18.2139 25.6919 18.1088 25.6565 17.9671 25.6565C17.8323 25.6565 17.7249 25.6953 17.6449 25.773C17.5649 25.8507 17.5192 25.9501 17.5078 26.0712H17.2165C17.2233 25.941 17.2588 25.8256 17.3227 25.725C17.3867 25.6245 17.4735 25.5468 17.5832 25.492C17.6929 25.4348 17.822 25.4063 17.9705 25.4063C18.1259 25.4063 18.2562 25.4337 18.3613 25.4885C18.4664 25.5434 18.5452 25.6165 18.5978 25.7079C18.6526 25.7993 18.68 25.8998 18.68 26.0095C18.68 26.0918 18.6652 26.1695 18.6355 26.2426C18.6058 26.3134 18.5612 26.3763 18.5018 26.4311C18.4424 26.4859 18.367 26.5248 18.2756 26.5476C18.3693 26.5659 18.4527 26.6013 18.5258 26.6539C18.6012 26.7065 18.6606 26.775 18.704 26.8595C18.7474 26.9441 18.7692 27.0435 18.7692 27.1577C18.7692 27.288 18.7383 27.4091 18.6766 27.5211C18.6172 27.6307 18.5281 27.7199 18.4093 27.7884C18.2904 27.8547 18.1431 27.8878 17.9671 27.8878Z" fill="#4D4D63" fill-opacity="0.76"/>
</svg>
