<svg width="25" height="29" viewBox="0 0 25 29" fill="none" xmlns="http://www.w3.org/2000/svg">
<rect width="24.9023" height="28.8216" fill="#FEFFFF"/>
<rect width="24.9023" height="24.282" fill="#D36BC7"/>
<path d="M5.75584 27.8218V25.4249H6.4612C6.74198 25.4249 6.97253 25.474 7.15286 25.5722C7.33548 25.668 7.47016 25.8061 7.55691 25.9865C7.64593 26.1645 7.69044 26.3791 7.69044 26.6302C7.69044 26.8767 7.64593 27.089 7.55691 27.2671C7.47016 27.4451 7.33548 27.5821 7.15286 27.678C6.97253 27.7738 6.74198 27.8218 6.4612 27.8218H5.75584ZM6.04347 27.5821H6.45435C6.68719 27.5821 6.87209 27.5444 7.00905 27.4691C7.14602 27.3915 7.24417 27.2819 7.30352 27.1404C7.36287 26.9966 7.39255 26.8265 7.39255 26.6302C7.39255 26.4293 7.36287 26.257 7.30352 26.1132C7.24417 25.9694 7.14602 25.8586 7.00905 25.781C6.87209 25.7034 6.68719 25.6646 6.45435 25.6646H6.04347V27.5821ZM9.06513 27.8629C8.91219 27.8629 8.77294 27.8355 8.64739 27.7807C8.52412 27.7236 8.42597 27.6392 8.35292 27.5273C8.27987 27.4155 8.24107 27.2762 8.2365 27.1096H8.52755C8.52983 27.2009 8.55152 27.2853 8.59261 27.363C8.63598 27.4383 8.69761 27.4988 8.77751 27.5444C8.8574 27.5901 8.95327 27.6129 9.06513 27.6129C9.17698 27.6129 9.27057 27.5912 9.3459 27.5479C9.42123 27.5045 9.4783 27.4474 9.5171 27.3766C9.55591 27.3036 9.57531 27.2226 9.57531 27.1335C9.57531 27.0217 9.54792 26.9315 9.49314 26.863C9.44063 26.7923 9.36873 26.7409 9.27742 26.709C9.18839 26.6747 9.09024 26.6576 8.98295 26.6576H8.8049V26.4145H8.98295C9.14046 26.4145 9.26372 26.378 9.35275 26.3049C9.44178 26.2319 9.48629 26.1314 9.48629 26.0036C9.48629 25.8986 9.45091 25.8107 9.38014 25.7399C9.31166 25.6692 9.20666 25.6338 9.06513 25.6338C8.93045 25.6338 8.82316 25.6726 8.74326 25.7502C8.66337 25.8278 8.61772 25.9271 8.6063 26.0481H8.31526C8.3221 25.918 8.35749 25.8027 8.4214 25.7023C8.48532 25.6018 8.57206 25.5242 8.68163 25.4694C8.7912 25.4124 8.92018 25.3838 9.06855 25.3838C9.22378 25.3838 9.35389 25.4112 9.4589 25.466C9.5639 25.5208 9.64265 25.5938 9.69516 25.6852C9.74994 25.7765 9.77733 25.8769 9.77733 25.9865C9.77733 26.0687 9.7625 26.1463 9.73282 26.2193C9.70315 26.2901 9.65863 26.3529 9.59928 26.4076C9.53993 26.4624 9.4646 26.5012 9.37329 26.5241C9.46689 26.5423 9.5502 26.5777 9.62325 26.6302C9.69858 26.6827 9.75793 26.7512 9.8013 26.8356C9.84467 26.9201 9.86636 27.0194 9.86636 27.1335C9.86636 27.2637 9.83554 27.3846 9.77391 27.4965C9.71456 27.6061 9.62553 27.6951 9.50683 27.7636C9.38813 27.8298 9.2409 27.8629 9.06513 27.8629ZM11.4066 27.8629C11.2331 27.8629 11.087 27.8309 10.9683 27.767C10.8496 27.7008 10.7549 27.6141 10.6841 27.5068C10.6133 27.3972 10.5608 27.2739 10.5266 27.137C10.4946 27 10.4787 26.8608 10.4787 26.7192C10.4787 26.4544 10.5152 26.2227 10.5882 26.0241C10.6613 25.8233 10.7663 25.6669 10.9032 25.555C11.0425 25.4409 11.2091 25.3838 11.4032 25.3838C11.5538 25.3838 11.6828 25.4135 11.7901 25.4729C11.8996 25.5299 11.9864 25.6075 12.0503 25.7057C12.1142 25.8039 12.153 25.9134 12.1667 26.0344H11.8996C11.8768 25.9066 11.8209 25.8084 11.7319 25.7399C11.6451 25.6692 11.5344 25.6338 11.3997 25.6338C11.281 25.6338 11.1737 25.6715 11.0779 25.7468C10.982 25.8198 10.9055 25.9328 10.8485 26.0858C10.7937 26.2364 10.7617 26.4293 10.7526 26.6644C10.7526 26.6667 10.7526 26.6701 10.7526 26.6747C10.7526 26.6793 10.7526 26.6838 10.7526 26.6884C10.7891 26.6176 10.8393 26.5514 10.9032 26.4898C10.9694 26.4282 11.0482 26.3791 11.1395 26.3426C11.2308 26.3061 11.3324 26.2878 11.4442 26.2878C11.5789 26.2878 11.7056 26.3198 11.8243 26.3837C11.943 26.4476 12.0389 26.5378 12.1119 26.6542C12.1873 26.7683 12.2249 26.903 12.2249 27.0582C12.2249 27.1929 12.1918 27.3219 12.1256 27.4451C12.0617 27.5684 11.9681 27.6688 11.8449 27.7464C11.7216 27.8241 11.5755 27.8629 11.4066 27.8629ZM11.386 27.6095C11.491 27.6095 11.5846 27.5867 11.6668 27.541C11.7513 27.4931 11.8163 27.4292 11.862 27.3493C11.9099 27.2671 11.9339 27.1746 11.9339 27.0719C11.9339 26.9646 11.9099 26.871 11.862 26.7911C11.8163 26.7112 11.7513 26.6496 11.6668 26.6062C11.5846 26.5606 11.491 26.5378 11.386 26.5378C11.281 26.5378 11.1863 26.5617 11.1018 26.6097C11.0174 26.6576 10.95 26.7227 10.8998 26.8048C10.8519 26.8847 10.8279 26.9749 10.8279 27.0753C10.8279 27.1781 10.8519 27.2705 10.8998 27.3527C10.95 27.4326 11.0174 27.4953 11.1018 27.541C11.1863 27.5867 11.281 27.6095 11.386 27.6095ZM12.9027 27.8218V25.4249H13.745C13.9139 25.4249 14.0531 25.4523 14.1627 25.5071C14.2746 25.5596 14.3579 25.6327 14.4127 25.7262C14.4675 25.8176 14.4948 25.9203 14.4948 26.0344C14.4948 26.1577 14.4675 26.2604 14.4127 26.3426C14.3602 26.4248 14.2905 26.4875 14.2038 26.5309C14.1193 26.5743 14.0292 26.6005 13.9333 26.6097L13.9812 26.5754C14.084 26.5777 14.1787 26.6051 14.2654 26.6576C14.3522 26.7101 14.4207 26.7809 14.4709 26.8699C14.5234 26.9589 14.5496 27.0582 14.5496 27.1678C14.5496 27.2888 14.52 27.3995 14.4606 27.4999C14.4013 27.5981 14.3134 27.6768 14.197 27.7362C14.0828 27.7932 13.9413 27.8218 13.7724 27.8218H12.9027ZM13.1903 27.5821H13.7416C13.9036 27.5821 14.0292 27.5444 14.1182 27.4691C14.2095 27.3915 14.2552 27.2842 14.2552 27.1472C14.2552 27.0126 14.2084 26.9053 14.1148 26.8254C14.0235 26.7432 13.8968 26.7021 13.7347 26.7021H13.1903V27.5821ZM13.1903 26.4727H13.7244C13.8797 26.4727 13.9972 26.4362 14.0771 26.3631C14.1593 26.2901 14.2004 26.1908 14.2004 26.0652C14.2004 25.9442 14.1593 25.8472 14.0771 25.7742C13.9972 25.7011 13.8762 25.6646 13.7142 25.6646H13.1903V26.4727ZM16.2122 27.8629C15.9793 27.8629 15.7773 27.8115 15.6061 27.7088C15.4372 27.6038 15.3071 27.4588 15.2157 27.2739C15.1244 27.0867 15.0788 26.8699 15.0788 26.6234C15.0788 26.3768 15.1244 26.1611 15.2157 25.9762C15.3071 25.789 15.4372 25.6441 15.6061 25.5413C15.7773 25.4363 15.9793 25.3838 16.2122 25.3838C16.4861 25.3838 16.7086 25.4489 16.8798 25.579C17.051 25.7091 17.1606 25.8929 17.2086 26.1303H16.8901C16.8536 25.9819 16.7794 25.8632 16.6676 25.7742C16.5557 25.6829 16.4039 25.6372 16.2122 25.6372C16.0409 25.6372 15.8926 25.6772 15.767 25.7571C15.6415 25.8347 15.5445 25.9477 15.476 26.096C15.4075 26.2421 15.3733 26.4179 15.3733 26.6234C15.3733 26.8288 15.4075 27.0057 15.476 27.1541C15.5445 27.3002 15.6415 27.4132 15.767 27.4931C15.8926 27.5707 16.0409 27.6095 16.2122 27.6095C16.4039 27.6095 16.5557 27.5661 16.6676 27.4794C16.7794 27.3903 16.8536 27.2728 16.8901 27.1267H17.2086C17.1606 27.3572 17.051 27.5376 16.8798 27.6677C16.7086 27.7978 16.4861 27.8629 16.2122 27.8629ZM18.0468 27.8218L18.9815 25.6715H17.6667V25.4249H19.276V25.6406L18.3515 27.8218H18.0468Z" fill="#4D4D63" fill-opacity="0.76"/>
</svg>
