<svg width="25" height="29" viewBox="0 0 25 29" fill="none" xmlns="http://www.w3.org/2000/svg">
<rect width="24.9023" height="28.8194" fill="#FEFFFF"/>
<rect width="24.9023" height="24.2798" fill="#73176B"/>
<path d="M7.04827 27.8193L7.98304 25.669H6.6682V25.4225H8.27751V25.6382L7.35301 27.8193H7.04827ZM9.52323 27.8604C9.37029 27.8604 9.23104 27.833 9.10549 27.7782C8.98223 27.7212 8.88407 27.6367 8.81102 27.5249C8.73798 27.413 8.69917 27.2738 8.69461 27.1071H8.98565C8.98793 27.1984 9.00962 27.2829 9.05071 27.3605C9.09408 27.4358 9.15571 27.4963 9.23561 27.542C9.3155 27.5876 9.41138 27.6105 9.52323 27.6105C9.63508 27.6105 9.72867 27.5888 9.804 27.5454C9.87933 27.502 9.9364 27.445 9.97521 27.3742C10.014 27.3012 10.0334 27.2201 10.0334 27.1311C10.0334 27.0192 10.006 26.9291 9.95124 26.8606C9.89874 26.7898 9.82683 26.7385 9.73552 26.7065C9.6465 26.6723 9.54834 26.6552 9.44105 26.6552H9.263V26.412H9.44105C9.59856 26.412 9.72183 26.3755 9.81085 26.3025C9.89988 26.2294 9.94439 26.129 9.94439 26.0012C9.94439 25.8961 9.90901 25.8083 9.83825 25.7375C9.76976 25.6667 9.66476 25.6314 9.52323 25.6314C9.38855 25.6314 9.28126 25.6702 9.20137 25.7478C9.12147 25.8254 9.07582 25.9247 9.06441 26.0457H8.77336C8.78021 25.9156 8.81559 25.8003 8.87951 25.6998C8.94342 25.5994 9.03016 25.5218 9.13973 25.467C9.24931 25.4099 9.37828 25.3814 9.52665 25.3814C9.68188 25.3814 9.81199 25.4088 9.917 25.4636C10.022 25.5184 10.1008 25.5914 10.1533 25.6827C10.208 25.774 10.2354 25.8745 10.2354 25.984C10.2354 26.0662 10.2206 26.1438 10.1909 26.2169C10.1612 26.2876 10.1167 26.3504 10.0574 26.4052C9.99804 26.46 9.92271 26.4988 9.8314 26.5216C9.92499 26.5399 10.0083 26.5753 10.0814 26.6278C10.1567 26.6803 10.216 26.7487 10.2594 26.8332C10.3028 26.9177 10.3245 27.017 10.3245 27.1311C10.3245 27.2612 10.2936 27.3822 10.232 27.494C10.1727 27.6036 10.0836 27.6926 9.96494 27.7611C9.84623 27.8273 9.699 27.8604 9.52323 27.8604ZM11.212 27.8193V25.7443L10.8012 25.8471V25.6416L11.3079 25.4225H11.5031V27.8193H11.212ZM12.4362 27.8193L13.371 25.669H12.0562V25.4225H13.6655V25.6382L12.741 27.8193H12.4362ZM15.0242 27.8604C14.8507 27.8604 14.7046 27.8285 14.5859 27.7646C14.4672 27.6984 14.3725 27.6116 14.3017 27.5043C14.2309 27.3948 14.1784 27.2715 14.1442 27.1345C14.1122 26.9976 14.0963 26.8583 14.0963 26.7168C14.0963 26.452 14.1328 26.2203 14.2058 26.0217C14.2789 25.8208 14.3839 25.6645 14.5208 25.5526C14.6601 25.4385 14.8267 25.3814 15.0208 25.3814C15.1714 25.3814 15.3004 25.4111 15.4077 25.4704C15.5173 25.5275 15.604 25.6051 15.6679 25.7033C15.7318 25.8014 15.7706 25.911 15.7843 26.032H15.5173C15.4944 25.9041 15.4385 25.806 15.3495 25.7375C15.2627 25.6667 15.152 25.6314 15.0173 25.6314C14.8986 25.6314 14.7914 25.669 14.6955 25.7443C14.5996 25.8174 14.5231 25.9304 14.4661 26.0833C14.4113 26.234 14.3793 26.4269 14.3702 26.662C14.3702 26.6643 14.3702 26.6677 14.3702 26.6723C14.3702 26.6768 14.3702 26.6814 14.3702 26.686C14.4067 26.6152 14.4569 26.549 14.5208 26.4874C14.587 26.4257 14.6658 26.3767 14.7571 26.3401C14.8484 26.3036 14.95 26.2854 15.0619 26.2854C15.1965 26.2854 15.3232 26.3173 15.4419 26.3812C15.5606 26.4451 15.6565 26.5353 15.7295 26.6517C15.8049 26.7659 15.8425 26.9005 15.8425 27.0558C15.8425 27.1904 15.8094 27.3194 15.7432 27.4427C15.6793 27.566 15.5857 27.6664 15.4625 27.744C15.3392 27.8216 15.1931 27.8604 15.0242 27.8604ZM15.0036 27.607C15.1086 27.607 15.2022 27.5842 15.2844 27.5386C15.3689 27.4906 15.4339 27.4267 15.4796 27.3468C15.5275 27.2646 15.5515 27.1722 15.5515 27.0695C15.5515 26.9622 15.5275 26.8686 15.4796 26.7887C15.4339 26.7088 15.3689 26.6472 15.2844 26.6038C15.2022 26.5581 15.1086 26.5353 15.0036 26.5353C14.8986 26.5353 14.8039 26.5593 14.7194 26.6072C14.635 26.6552 14.5676 26.7202 14.5174 26.8024C14.4695 26.8823 14.4455 26.9724 14.4455 27.0729C14.4455 27.1756 14.4695 27.2681 14.5174 27.3502C14.5676 27.4301 14.635 27.4929 14.7194 27.5386C14.8039 27.5842 14.8986 27.607 15.0036 27.607ZM16.5203 27.8193V25.4225H17.3626C17.5315 25.4225 17.6708 25.4499 17.7803 25.5047C17.8922 25.5572 17.9755 25.6302 18.0303 25.7238C18.0851 25.8151 18.1125 25.9178 18.1125 26.032C18.1125 26.1552 18.0851 26.258 18.0303 26.3401C17.9778 26.4223 17.9082 26.4851 17.8214 26.5285C17.737 26.5718 17.6468 26.5981 17.5509 26.6072L17.5988 26.573C17.7016 26.5753 17.7963 26.6026 17.883 26.6552C17.9698 26.7077 18.0383 26.7784 18.0885 26.8674C18.141 26.9565 18.1672 27.0558 18.1672 27.1653C18.1672 27.2863 18.1376 27.397 18.0782 27.4975C18.0189 27.5956 17.931 27.6744 17.8146 27.7337C17.7004 27.7908 17.5589 27.8193 17.39 27.8193H16.5203ZM16.8079 27.5797H17.3592C17.5212 27.5797 17.6468 27.542 17.7358 27.4667C17.8271 27.389 17.8728 27.2818 17.8728 27.1448C17.8728 27.0101 17.826 26.9028 17.7324 26.8229C17.6411 26.7408 17.5144 26.6997 17.3523 26.6997H16.8079V27.5797ZM16.8079 26.4703H17.342C17.4973 26.4703 17.6148 26.4337 17.6947 26.3607C17.7769 26.2876 17.818 26.1883 17.818 26.0628C17.818 25.9418 17.7769 25.8448 17.6947 25.7717C17.6148 25.6987 17.4938 25.6622 17.3318 25.6622H16.8079V26.4703Z" fill="#4D4D63" fill-opacity="0.76"/>
</svg>
