<svg width="25" height="29" viewBox="0 0 25 29" fill="none" xmlns="http://www.w3.org/2000/svg">
<rect width="24.9023" height="28.8194" fill="#FEFFFF"/>
<rect width="24.9023" height="24.2798" fill="#442359"/>
<path d="M7.13219 27.8193V27.3057H5.91664V27.0832L7.08083 25.4225H7.41638V27.0523H7.77249V27.3057H7.41638V27.8193H7.13219ZM6.23508 27.0523H7.14588V25.7409L6.23508 27.0523ZM9.41749 27.8193V27.3057H8.20194V27.0832L9.36612 25.4225H9.70168V27.0523H10.0578V27.3057H9.70168V27.8193H9.41749ZM8.52038 27.0523H9.43118V25.7409L8.52038 27.0523ZM10.5797 27.8193V27.6173C10.7418 27.4895 10.8958 27.3605 11.0419 27.2304C11.1903 27.1003 11.3216 26.9713 11.4357 26.8435C11.5498 26.7134 11.6389 26.5867 11.7028 26.4634C11.769 26.3401 11.8021 26.2214 11.8021 26.1073C11.8021 26.0228 11.7872 25.9452 11.7576 25.8745C11.7279 25.8014 11.68 25.7421 11.6138 25.6964C11.5498 25.6508 11.4631 25.6279 11.3535 25.6279C11.2462 25.6279 11.1572 25.6519 11.0865 25.6998C11.0157 25.7455 10.962 25.8071 10.9255 25.8847C10.8913 25.9601 10.8742 26.0434 10.8742 26.1347H10.5968C10.5991 25.9772 10.6322 25.8425 10.6961 25.7307C10.7623 25.6165 10.8525 25.5298 10.9666 25.4704C11.0807 25.4111 11.2109 25.3814 11.357 25.3814C11.5008 25.3814 11.6275 25.4088 11.737 25.4636C11.8466 25.5161 11.9322 25.5948 11.9938 25.6998C12.0577 25.8048 12.0897 25.9372 12.0897 26.097C12.0897 26.2089 12.0657 26.3207 12.0178 26.4326C11.9721 26.5444 11.9105 26.654 11.8329 26.7613C11.7553 26.8663 11.6685 26.9679 11.5727 27.066C11.4791 27.1642 11.3821 27.2566 11.2816 27.3434C11.1835 27.4301 11.091 27.5089 11.0043 27.5797H12.1719V27.8193H10.5797ZM13.5421 27.8604C13.3892 27.8604 13.2499 27.833 13.1244 27.7782C13.0011 27.7212 12.9029 27.6367 12.8299 27.5249C12.7568 27.413 12.718 27.2738 12.7135 27.1071H13.0045C13.0068 27.1984 13.0285 27.2829 13.0696 27.3605C13.1129 27.4358 13.1746 27.4963 13.2545 27.542C13.3344 27.5876 13.4302 27.6105 13.5421 27.6105C13.654 27.6105 13.7475 27.5888 13.8229 27.5454C13.8982 27.502 13.9553 27.445 13.9941 27.3742C14.0329 27.3012 14.0523 27.2201 14.0523 27.1311C14.0523 27.0192 14.0249 26.9291 13.9701 26.8606C13.9176 26.7898 13.8457 26.7385 13.7544 26.7065C13.6654 26.6723 13.5672 26.6552 13.4599 26.6552H13.2819V26.412H13.4599C13.6174 26.412 13.7407 26.3755 13.8297 26.3025C13.9187 26.2294 13.9633 26.129 13.9633 26.0012C13.9633 25.8961 13.9279 25.8083 13.8571 25.7375C13.7886 25.6667 13.6836 25.6314 13.5421 25.6314C13.4074 25.6314 13.3001 25.6702 13.2202 25.7478C13.1403 25.8254 13.0947 25.9247 13.0833 26.0457H12.7922C12.7991 25.9156 12.8345 25.8003 12.8984 25.6998C12.9623 25.5994 13.049 25.5218 13.1586 25.467C13.2682 25.4099 13.3971 25.3814 13.5455 25.3814C13.7007 25.3814 13.8309 25.4088 13.9359 25.4636C14.0409 25.5184 14.1196 25.5914 14.1721 25.6827C14.2269 25.774 14.2543 25.8745 14.2543 25.984C14.2543 26.0662 14.2395 26.1438 14.2098 26.2169C14.1801 26.2876 14.1356 26.3504 14.0763 26.4052C14.0169 26.46 13.9416 26.4988 13.8503 26.5216C13.9439 26.5399 14.0272 26.5753 14.1002 26.6278C14.1756 26.6803 14.2349 26.7487 14.2783 26.8332C14.3216 26.9177 14.3433 27.017 14.3433 27.1311C14.3433 27.2612 14.3125 27.3822 14.2509 27.494C14.1915 27.6036 14.1025 27.6926 13.9838 27.7611C13.8651 27.8273 13.7179 27.8604 13.5421 27.8604ZM15.8322 27.8604C15.6678 27.8604 15.5252 27.8307 15.4042 27.7714C15.2855 27.712 15.1907 27.631 15.12 27.5283C15.0515 27.4256 15.0081 27.3103 14.9899 27.1825H15.2706C15.298 27.3103 15.3608 27.4142 15.459 27.494C15.5571 27.5739 15.6827 27.6139 15.8356 27.6139C15.9497 27.6139 16.0468 27.5876 16.1267 27.5351C16.2088 27.4826 16.2716 27.4107 16.315 27.3194C16.3606 27.2281 16.3835 27.1265 16.3835 27.0147C16.3835 26.8983 16.3606 26.7955 16.315 26.7065C16.2693 26.6175 16.2066 26.549 16.1267 26.5011C16.0468 26.4508 15.9532 26.4257 15.8459 26.4257C15.7158 26.4257 15.6051 26.4543 15.5137 26.5113C15.4224 26.5684 15.354 26.6415 15.3083 26.7305H15.031L15.2296 25.4225H16.4965V25.6724H15.4521L15.3186 26.4086C15.3756 26.3424 15.451 26.2888 15.5446 26.2477C15.6404 26.2043 15.7512 26.1826 15.8767 26.1826C15.9954 26.1826 16.1027 26.2032 16.1986 26.2443C16.2944 26.2854 16.3766 26.3436 16.4451 26.4189C16.5136 26.4942 16.5661 26.5821 16.6026 26.6825C16.6414 26.783 16.6608 26.8926 16.6608 27.0113C16.6608 27.1277 16.6414 27.2372 16.6026 27.34C16.5661 27.4404 16.5124 27.5306 16.4417 27.6105C16.3709 27.6881 16.2842 27.7497 16.1814 27.7954C16.0787 27.8387 15.9623 27.8604 15.8322 27.8604ZM17.9998 27.8604C17.8492 27.8604 17.7202 27.8319 17.6129 27.7748C17.5056 27.7155 17.42 27.6367 17.3561 27.5386C17.2945 27.4381 17.2568 27.3286 17.2431 27.2099H17.5102C17.533 27.3377 17.5878 27.437 17.6745 27.5077C17.7613 27.5762 17.8708 27.6105 18.0032 27.6105C18.1242 27.6105 18.2315 27.5739 18.3251 27.5009C18.4187 27.4279 18.494 27.3171 18.5511 27.1688C18.6104 27.0181 18.6435 26.8275 18.6504 26.5969C18.6504 26.5901 18.6504 26.5832 18.6504 26.5764C18.6504 26.5696 18.6504 26.5627 18.6504 26.5559C18.6161 26.6266 18.5659 26.6928 18.4997 26.7544C18.4335 26.8161 18.3548 26.8652 18.2635 26.9017C18.1744 26.9382 18.074 26.9565 17.9621 26.9565C17.8275 26.9565 17.6996 26.9245 17.5787 26.8606C17.46 26.7967 17.3629 26.7077 17.2876 26.5935C17.2146 26.4771 17.178 26.3413 17.178 26.1861C17.178 26.0514 17.2111 25.9224 17.2773 25.7991C17.3435 25.6759 17.4383 25.5754 17.5615 25.4978C17.6848 25.4202 17.8309 25.3814 17.9998 25.3814C18.171 25.3814 18.316 25.4145 18.4347 25.4807C18.5534 25.5446 18.6481 25.6314 18.7189 25.7409C18.7919 25.8482 18.8444 25.9703 18.8764 26.1073C18.9083 26.2443 18.9243 26.3835 18.9243 26.525C18.9243 26.7875 18.8878 27.0192 18.8147 27.2201C18.744 27.421 18.639 27.5785 18.4997 27.6926C18.3628 27.8045 18.1961 27.8604 17.9998 27.8604ZM18.0204 26.7065C18.1254 26.7065 18.2201 26.6825 18.3046 26.6346C18.389 26.5867 18.4552 26.5216 18.5032 26.4394C18.5534 26.3573 18.5785 26.2671 18.5785 26.1689C18.5785 26.0639 18.5534 25.9715 18.5032 25.8916C18.4552 25.8117 18.389 25.7489 18.3046 25.7033C18.2201 25.6576 18.1254 25.6348 18.0204 25.6348C17.9154 25.6348 17.8206 25.6587 17.7362 25.7067C17.654 25.7523 17.5889 25.8151 17.541 25.895C17.493 25.9749 17.4691 26.0674 17.4691 26.1724C17.4691 26.2796 17.493 26.3732 17.541 26.4531C17.5889 26.533 17.654 26.5958 17.7362 26.6415C17.8206 26.6848 17.9154 26.7065 18.0204 26.7065Z" fill="#4D4D63" fill-opacity="0.76"/>
</svg>
