<svg width="25" height="29" viewBox="0 0 25 29" fill="none" xmlns="http://www.w3.org/2000/svg">
<rect width="24.9275" height="28.8467" fill="#FEFFFF"/>
<rect width="24.9275" height="24.3066" fill="#EA0F6C"/>
<path d="M6.38322 27.8467V25.6655H7.73242V25.8805H6.64496V26.6408H7.63894V26.8527H6.64496V27.6317H7.73242V27.8467H6.38322ZM8.1918 27.8467L8.99571 25.6655H9.27303L10.0738 27.8467H9.79651L9.13282 25.9927L8.466 27.8467H8.1918ZM8.55948 27.2858L8.63427 27.0739H9.62202L9.6968 27.2858H8.55948ZM11.2985 27.8841C11.1074 27.8841 10.9422 27.8373 10.803 27.7439C10.6659 27.6483 10.561 27.5164 10.4883 27.3481C10.4156 27.1778 10.3793 26.9804 10.3793 26.7561C10.3793 26.5318 10.4156 26.3354 10.4883 26.1672C10.561 25.9968 10.6659 25.8649 10.803 25.7715C10.9422 25.6759 11.1074 25.6281 11.2985 25.6281C11.4896 25.6281 11.6526 25.6759 11.7877 25.7715C11.9248 25.8649 12.0297 25.9968 12.1024 26.1672C12.1751 26.3354 12.2114 26.5318 12.2114 26.7561C12.2114 26.9804 12.1751 27.1778 12.1024 27.3481C12.0297 27.5164 11.9248 27.6483 11.7877 27.7439C11.6526 27.8373 11.4896 27.8841 11.2985 27.8841ZM11.2954 27.6535C11.42 27.6535 11.5311 27.6182 11.6288 27.5475C11.7264 27.4748 11.8033 27.372 11.8593 27.2391C11.9154 27.104 11.9435 26.9431 11.9435 26.7561C11.9435 26.5691 11.9154 26.4092 11.8593 26.2762C11.8033 26.1412 11.7264 26.0384 11.6288 25.9678C11.5311 25.8971 11.42 25.8618 11.2954 25.8618C11.1707 25.8618 11.0585 25.8971 10.9588 25.9678C10.8612 26.0384 10.7843 26.1412 10.7283 26.2762C10.6742 26.4092 10.6472 26.5691 10.6472 26.7561C10.6472 26.9431 10.6742 27.104 10.7283 27.2391C10.7843 27.372 10.8612 27.4748 10.9588 27.5475C11.0585 27.6182 11.1707 27.6535 11.2954 27.6535ZM12.7804 27.8467V25.6655H14.1078V25.8805H13.0421V26.647H13.9489V26.8589H13.0421V27.8467H12.7804ZM15.417 27.8841C15.2591 27.8841 15.1261 27.855 15.0181 27.7968C14.9101 27.7366 14.8239 27.6576 14.7595 27.56C14.6951 27.4603 14.6473 27.3481 14.6162 27.2235C14.5871 27.0989 14.5725 26.9721 14.5725 26.8433C14.5725 26.6024 14.6058 26.3915 14.6723 26.2108C14.7387 26.028 14.8343 25.8857 14.9589 25.7839C15.0856 25.6801 15.2373 25.6281 15.4138 25.6281C15.551 25.6281 15.6683 25.6551 15.766 25.7091C15.8657 25.7611 15.9446 25.8317 16.0028 25.921C16.0609 26.0104 16.0962 26.1101 16.1087 26.2202H15.8657C15.8449 26.1038 15.794 26.0145 15.713 25.9522C15.634 25.8878 15.5333 25.8556 15.4107 25.8556C15.3027 25.8556 15.2051 25.8899 15.1178 25.9584C15.0306 26.0249 14.961 26.1277 14.9091 26.2669C14.8592 26.404 14.8301 26.5795 14.8218 26.7935C14.8218 26.7956 14.8218 26.7987 14.8218 26.8028C14.8218 26.807 14.8218 26.8111 14.8218 26.8153C14.8551 26.7509 14.9008 26.6907 14.9589 26.6346C15.0192 26.5785 15.0908 26.5338 15.1739 26.5006C15.257 26.4674 15.3495 26.4507 15.4512 26.4507C15.5738 26.4507 15.6891 26.4798 15.7971 26.538C15.9051 26.5961 15.9924 26.6782 16.0588 26.7841C16.1274 26.888 16.1617 27.0106 16.1617 27.1518C16.1617 27.2744 16.1316 27.3918 16.0713 27.5039C16.0131 27.6161 15.928 27.7075 15.8158 27.7781C15.7036 27.8488 15.5707 27.8841 15.417 27.8841ZM15.3983 27.6535C15.4938 27.6535 15.579 27.6327 15.6538 27.5912C15.7306 27.5475 15.7898 27.4894 15.8314 27.4167C15.875 27.3419 15.8968 27.2578 15.8968 27.1643C15.8968 27.0667 15.875 26.9815 15.8314 26.9088C15.7898 26.8361 15.7306 26.78 15.6538 26.7405C15.579 26.699 15.4938 26.6782 15.3983 26.6782C15.3027 26.6782 15.2165 26.7 15.1396 26.7436C15.0628 26.7873 15.0015 26.8465 14.9558 26.9212C14.9122 26.994 14.8904 27.076 14.8904 27.1674C14.8904 27.2609 14.9122 27.345 14.9558 27.4198C15.0015 27.4925 15.0628 27.5496 15.1396 27.5912C15.2165 27.6327 15.3027 27.6535 15.3983 27.6535ZM17.7257 27.8841C17.5138 27.8841 17.3299 27.8373 17.1741 27.7439C17.0204 27.6483 16.902 27.5164 16.8189 27.3481C16.7358 27.1778 16.6943 26.9804 16.6943 26.7561C16.6943 26.5318 16.7358 26.3354 16.8189 26.1672C16.902 25.9968 17.0204 25.8649 17.1741 25.7715C17.3299 25.6759 17.5138 25.6281 17.7257 25.6281C17.9749 25.6281 18.1775 25.6873 18.3333 25.8057C18.4891 25.9241 18.5888 26.0914 18.6324 26.3074H18.3426C18.3094 26.1724 18.2419 26.0644 18.1401 25.9833C18.0383 25.9003 17.9002 25.8587 17.7257 25.8587C17.5699 25.8587 17.4348 25.8951 17.3206 25.9678C17.2063 26.0384 17.1181 26.1412 17.0557 26.2762C16.9934 26.4092 16.9623 26.5691 16.9623 26.7561C16.9623 26.9431 16.9934 27.104 17.0557 27.2391C17.1181 27.372 17.2063 27.4748 17.3206 27.5475C17.4348 27.6182 17.5699 27.6535 17.7257 27.6535C17.9002 27.6535 18.0383 27.614 18.1401 27.5351C18.2419 27.4541 18.3094 27.3471 18.3426 27.2141H18.6324C18.5888 27.424 18.4891 27.5881 18.3333 27.7065C18.1775 27.8249 17.9749 27.8841 17.7257 27.8841Z" fill="#4D4D63" fill-opacity="0.76"/>
</svg>
