<svg width="25" height="29" viewBox="0 0 25 29" fill="none" xmlns="http://www.w3.org/2000/svg">
<rect width="24.9023" height="28.8194" fill="#FEFFFF"/>
<rect width="24.9023" height="24.2798" fill="#9663C5"/>
<path d="M6.46631 27.8604C6.31565 27.8604 6.18668 27.8319 6.07939 27.7748C5.9721 27.7155 5.8865 27.6367 5.82259 27.5386C5.76095 27.4381 5.72329 27.3286 5.70959 27.2099H5.97667C5.9995 27.3377 6.05428 27.437 6.14102 27.5077C6.22777 27.5762 6.33734 27.6105 6.46974 27.6105C6.59072 27.6105 6.69801 27.5739 6.7916 27.5009C6.88519 27.4279 6.96052 27.3171 7.01759 27.1688C7.07694 27.0181 7.11004 26.8275 7.11689 26.5969C7.11689 26.5901 7.11689 26.5832 7.11689 26.5764C7.11689 26.5696 7.11689 26.5627 7.11689 26.5559C7.08264 26.6266 7.03242 26.6928 6.96623 26.7544C6.90003 26.8161 6.82127 26.8652 6.72997 26.9017C6.64094 26.9382 6.5405 26.9565 6.42865 26.9565C6.29397 26.9565 6.16613 26.9245 6.04515 26.8606C5.92645 26.7967 5.82943 26.7077 5.7541 26.5935C5.68106 26.4771 5.64453 26.3413 5.64453 26.1861C5.64453 26.0514 5.67763 25.9224 5.74383 25.7991C5.81003 25.6759 5.90476 25.5754 6.02803 25.4978C6.1513 25.4202 6.29739 25.3814 6.46631 25.3814C6.63752 25.3814 6.78247 25.4145 6.90117 25.4807C7.01987 25.5446 7.1146 25.6314 7.18537 25.7409C7.25841 25.8482 7.31092 25.9703 7.34287 26.1073C7.37483 26.2443 7.39081 26.3835 7.39081 26.525C7.39081 26.7875 7.35429 27.0192 7.28124 27.2201C7.21048 27.421 7.10547 27.5785 6.96623 27.6926C6.82926 27.8045 6.66262 27.8604 6.46631 27.8604ZM6.48686 26.7065C6.59186 26.7065 6.68659 26.6825 6.77105 26.6346C6.85551 26.5867 6.92171 26.5216 6.96965 26.4394C7.01987 26.3573 7.04498 26.2671 7.04498 26.1689C7.04498 26.0639 7.01987 25.9715 6.96965 25.8916C6.92171 25.8117 6.85551 25.7489 6.77105 25.7033C6.68659 25.6576 6.59186 25.6348 6.48686 25.6348C6.38185 25.6348 6.28712 25.6587 6.20266 25.7067C6.12048 25.7523 6.05542 25.8151 6.00749 25.895C5.95955 25.9749 5.93558 26.0674 5.93558 26.1724C5.93558 26.2796 5.95955 26.3732 6.00749 26.4531C6.05542 26.533 6.12048 26.5958 6.20266 26.6415C6.28712 26.6848 6.38185 26.7065 6.48686 26.7065ZM8.90058 27.8604C8.7271 27.8604 8.58101 27.8285 8.4623 27.7646C8.3436 27.6984 8.24887 27.6116 8.17811 27.5043C8.10734 27.3948 8.05484 27.2715 8.0206 27.1345C7.98864 26.9976 7.97266 26.8583 7.97266 26.7168C7.97266 26.452 8.00919 26.2203 8.08223 26.0217C8.15528 25.8208 8.26028 25.6645 8.39725 25.5526C8.53649 25.4385 8.70313 25.3814 8.89716 25.3814C9.04782 25.3814 9.17679 25.4111 9.28408 25.4704C9.39365 25.5275 9.48039 25.6051 9.54431 25.7033C9.60823 25.8014 9.64703 25.911 9.66073 26.032H9.39365C9.37082 25.9041 9.3149 25.806 9.22587 25.7375C9.13913 25.6667 9.02842 25.6314 8.89374 25.6314C8.77504 25.6314 8.66775 25.669 8.57187 25.7443C8.476 25.8174 8.39953 25.9304 8.34246 26.0833C8.28768 26.234 8.25572 26.4269 8.24659 26.662C8.24659 26.6643 8.24659 26.6677 8.24659 26.6723C8.24659 26.6768 8.24659 26.6814 8.24659 26.686C8.28311 26.6152 8.33333 26.549 8.39725 26.4874C8.46345 26.4257 8.5422 26.3767 8.63351 26.3401C8.72482 26.3036 8.8264 26.2854 8.93825 26.2854C9.07293 26.2854 9.19962 26.3173 9.31832 26.3812C9.43702 26.4451 9.5329 26.5353 9.60594 26.6517C9.68127 26.7659 9.71894 26.9005 9.71894 27.0558C9.71894 27.1904 9.68584 27.3194 9.61964 27.4427C9.55572 27.566 9.46213 27.6664 9.33887 27.744C9.2156 27.8216 9.06951 27.8604 8.90058 27.8604ZM8.88004 27.607C8.98505 27.607 9.07864 27.5842 9.16081 27.5386C9.24527 27.4906 9.31033 27.4267 9.35599 27.3468C9.40392 27.2646 9.42789 27.1722 9.42789 27.0695C9.42789 26.9622 9.40392 26.8686 9.35599 26.7887C9.31033 26.7088 9.24527 26.6472 9.16081 26.6038C9.07864 26.5581 8.98505 26.5353 8.88004 26.5353C8.77504 26.5353 8.6803 26.5593 8.59584 26.6072C8.51138 26.6552 8.44404 26.7202 8.39382 26.8024C8.34589 26.8823 8.32192 26.9724 8.32192 27.0729C8.32192 27.1756 8.34589 27.2681 8.39382 27.3502C8.44404 27.4301 8.51138 27.4929 8.59584 27.5386C8.6803 27.5842 8.77504 27.607 8.88004 27.607ZM11.2561 27.8604C11.0826 27.8604 10.9365 27.8285 10.8178 27.7646C10.6991 27.6984 10.6044 27.6116 10.5336 27.5043C10.4629 27.3948 10.4104 27.2715 10.3761 27.1345C10.3442 26.9976 10.3282 26.8583 10.3282 26.7168C10.3282 26.452 10.3647 26.2203 10.4378 26.0217C10.5108 25.8208 10.6158 25.6645 10.7528 25.5526C10.892 25.4385 11.0587 25.3814 11.2527 25.3814C11.4033 25.3814 11.5323 25.4111 11.6396 25.4704C11.7492 25.5275 11.8359 25.6051 11.8998 25.7033C11.9637 25.8014 12.0026 25.911 12.0162 26.032H11.7492C11.7263 25.9041 11.6704 25.806 11.5814 25.7375C11.4946 25.6667 11.3839 25.6314 11.2493 25.6314C11.1306 25.6314 11.0233 25.669 10.9274 25.7443C10.8315 25.8174 10.755 25.9304 10.698 26.0833C10.6432 26.234 10.6112 26.4269 10.6021 26.662C10.6021 26.6643 10.6021 26.6677 10.6021 26.6723C10.6021 26.6768 10.6021 26.6814 10.6021 26.686C10.6386 26.6152 10.6889 26.549 10.7528 26.4874C10.819 26.4257 10.8977 26.3767 10.989 26.3401C11.0803 26.3036 11.1819 26.2854 11.2938 26.2854C11.4284 26.2854 11.5551 26.3173 11.6738 26.3812C11.7925 26.4451 11.8884 26.5353 11.9615 26.6517C12.0368 26.7659 12.0745 26.9005 12.0745 27.0558C12.0745 27.1904 12.0414 27.3194 11.9752 27.4427C11.9112 27.566 11.8177 27.6664 11.6944 27.744C11.5711 27.8216 11.425 27.8604 11.2561 27.8604ZM11.2356 27.607C11.3406 27.607 11.4342 27.5842 11.5163 27.5386C11.6008 27.4906 11.6659 27.4267 11.7115 27.3468C11.7594 27.2646 11.7834 27.1722 11.7834 27.0695C11.7834 26.9622 11.7594 26.8686 11.7115 26.7887C11.6659 26.7088 11.6008 26.6472 11.5163 26.6038C11.4342 26.5581 11.3406 26.5353 11.2356 26.5353C11.1306 26.5353 11.0358 26.5593 10.9514 26.6072C10.8669 26.6552 10.7996 26.7202 10.7493 26.8024C10.7014 26.8823 10.6774 26.9724 10.6774 27.0729C10.6774 27.1756 10.7014 27.2681 10.7493 27.3502C10.7996 27.4301 10.8669 27.4929 10.9514 27.5386C11.0358 27.5842 11.1306 27.607 11.2356 27.607ZM13.4986 27.8604C13.3457 27.8604 13.2064 27.833 13.0809 27.7782C12.9576 27.7212 12.8595 27.6367 12.7864 27.5249C12.7134 27.413 12.6746 27.2738 12.67 27.1071H12.9611C12.9633 27.1984 12.985 27.2829 13.0261 27.3605C13.0695 27.4358 13.1311 27.4963 13.211 27.542C13.2909 27.5876 13.3868 27.6105 13.4986 27.6105C13.6105 27.6105 13.7041 27.5888 13.7794 27.5454C13.8547 27.502 13.9118 27.445 13.9506 27.3742C13.9894 27.3012 14.0088 27.2201 14.0088 27.1311C14.0088 27.0192 13.9814 26.9291 13.9266 26.8606C13.8741 26.7898 13.8022 26.7385 13.7109 26.7065C13.6219 26.6723 13.5237 26.6552 13.4165 26.6552H13.2384V26.412H13.4165C13.574 26.412 13.6972 26.3755 13.7863 26.3025C13.8753 26.2294 13.9198 26.129 13.9198 26.0012C13.9198 25.8961 13.8844 25.8083 13.8136 25.7375C13.7452 25.6667 13.6402 25.6314 13.4986 25.6314C13.3639 25.6314 13.2567 25.6702 13.1768 25.7478C13.0969 25.8254 13.0512 25.9247 13.0398 26.0457H12.7488C12.7556 25.9156 12.791 25.8003 12.8549 25.6998C12.9188 25.5994 13.0056 25.5218 13.1151 25.467C13.2247 25.4099 13.3537 25.3814 13.5021 25.3814C13.6573 25.3814 13.7874 25.4088 13.8924 25.4636C13.9974 25.5184 14.0762 25.5914 14.1287 25.6827C14.1834 25.774 14.2108 25.8745 14.2108 25.984C14.2108 26.0662 14.196 26.1438 14.1663 26.2169C14.1366 26.2876 14.0921 26.3504 14.0328 26.4052C13.9734 26.46 13.8981 26.4988 13.8068 26.5216C13.9004 26.5399 13.9837 26.5753 14.0568 26.6278C14.1321 26.6803 14.1914 26.7487 14.2348 26.8332C14.2782 26.9177 14.2999 27.017 14.2999 27.1311C14.2999 27.2612 14.269 27.3822 14.2074 27.494C14.1481 27.6036 14.059 27.6926 13.9403 27.7611C13.8216 27.8273 13.6744 27.8604 13.4986 27.8604ZM16.0216 27.8604C15.7887 27.8604 15.5867 27.8091 15.4155 27.7063C15.2466 27.6013 15.1165 27.4564 15.0251 27.2715C14.9338 27.0843 14.8882 26.8674 14.8882 26.6209C14.8882 26.3744 14.9338 26.1587 15.0251 25.9738C15.1165 25.7866 15.2466 25.6416 15.4155 25.5389C15.5867 25.4339 15.7887 25.3814 16.0216 25.3814C16.2955 25.3814 16.518 25.4465 16.6892 25.5766C16.8605 25.7067 16.97 25.8904 17.018 26.1278H16.6995C16.663 25.9795 16.5888 25.8608 16.477 25.7717C16.3651 25.6804 16.2133 25.6348 16.0216 25.6348C15.8504 25.6348 15.702 25.6747 15.5764 25.7546C15.4509 25.8322 15.3539 25.9452 15.2854 26.0936C15.2169 26.2397 15.1827 26.4155 15.1827 26.6209C15.1827 26.8264 15.2169 27.0033 15.2854 27.1516C15.3539 27.2977 15.4509 27.4107 15.5764 27.4906C15.702 27.5682 15.8504 27.607 16.0216 27.607C16.2133 27.607 16.3651 27.5637 16.477 27.4769C16.5888 27.3879 16.663 27.2703 16.6995 27.1242H17.018C16.97 27.3548 16.8605 27.5351 16.6892 27.6653C16.518 27.7954 16.2955 27.8604 16.0216 27.8604ZM18.4485 27.8604C18.2842 27.8604 18.1415 27.8307 18.0205 27.7714C17.9018 27.712 17.8071 27.631 17.7363 27.5283C17.6678 27.4256 17.6245 27.3103 17.6062 27.1825H17.887C17.9144 27.3103 17.9771 27.4142 18.0753 27.494C18.1735 27.5739 18.299 27.6139 18.4519 27.6139C18.5661 27.6139 18.6631 27.5876 18.743 27.5351C18.8252 27.4826 18.8879 27.4107 18.9313 27.3194C18.977 27.2281 18.9998 27.1265 18.9998 27.0147C18.9998 26.8983 18.977 26.7955 18.9313 26.7065C18.8857 26.6175 18.8229 26.549 18.743 26.5011C18.6631 26.4508 18.5695 26.4257 18.4622 26.4257C18.3321 26.4257 18.2214 26.4543 18.1301 26.5113C18.0388 26.5684 17.9703 26.6415 17.9246 26.7305H17.6473L17.8459 25.4225H19.1128V25.6724H18.0685L17.9349 26.4086C17.992 26.3424 18.0673 26.2888 18.1609 26.2477C18.2568 26.2043 18.3675 26.1826 18.493 26.1826C18.6117 26.1826 18.719 26.2032 18.8149 26.2443C18.9108 26.2854 18.993 26.3436 19.0614 26.4189C19.1299 26.4942 19.1824 26.5821 19.2189 26.6825C19.2577 26.783 19.2771 26.8926 19.2771 27.0113C19.2771 27.1277 19.2577 27.2372 19.2189 27.34C19.1824 27.4404 19.1288 27.5306 19.058 27.6105C18.9872 27.6881 18.9005 27.7497 18.7978 27.7954C18.6951 27.8387 18.5786 27.8604 18.4485 27.8604Z" fill="#4D4D63" fill-opacity="0.76"/>
</svg>
