<svg width="25" height="29" viewBox="0 0 25 29" fill="none" xmlns="http://www.w3.org/2000/svg">
<rect width="24.9275" height="28.8467" fill="#FEFFFF"/>
<rect width="24.9275" height="24.3066" fill="#CE007C"/>
<path d="M6.63303 27.8878C6.39995 27.8878 6.19773 27.8364 6.02635 27.7336C5.85726 27.6285 5.72701 27.4834 5.63561 27.2983C5.54421 27.1109 5.49851 26.8938 5.49851 26.647C5.49851 26.4003 5.54421 26.1843 5.63561 25.9992C5.72701 25.8119 5.85726 25.6668 6.02635 25.5639C6.19773 25.4588 6.39995 25.4063 6.63303 25.4063C6.90723 25.4063 7.13002 25.4714 7.3014 25.6016C7.47277 25.7319 7.58245 25.9158 7.63044 26.1535H7.31168C7.27512 26.005 7.20085 25.8861 7.08889 25.797C6.97692 25.7056 6.82497 25.6599 6.63303 25.6599C6.46165 25.6599 6.31312 25.6999 6.18745 25.7799C6.06177 25.8576 5.96466 25.9707 5.89611 26.1192C5.82756 26.2654 5.79328 26.4414 5.79328 26.647C5.79328 26.8527 5.82756 27.0298 5.89611 27.1783C5.96466 27.3246 6.06177 27.4377 6.18745 27.5176C6.31312 27.5953 6.46165 27.6342 6.63303 27.6342C6.82497 27.6342 6.97692 27.5908 7.08889 27.5039C7.20085 27.4148 7.27512 27.2971 7.31168 27.1509H7.63044C7.58245 27.3817 7.47277 27.5622 7.3014 27.6924C7.13002 27.8227 6.90723 27.8878 6.63303 27.8878ZM8.25355 27.8467V25.4474H9.73768V25.6839H8.54147V26.5202H9.63485V26.7533H8.54147V27.6102H9.73768V27.8467H8.25355ZM11.3158 27.8878C11.1056 27.8878 10.9239 27.8364 10.7708 27.7336C10.62 27.6285 10.5046 27.4834 10.4247 27.2983C10.3447 27.1109 10.3047 26.8938 10.3047 26.647C10.3047 26.4003 10.3447 26.1843 10.4247 25.9992C10.5046 25.8119 10.62 25.6668 10.7708 25.5639C10.9239 25.4588 11.1056 25.4063 11.3158 25.4063C11.526 25.4063 11.7054 25.4588 11.8539 25.5639C12.0048 25.6668 12.1201 25.8119 12.2001 25.9992C12.2801 26.1843 12.3201 26.4003 12.3201 26.647C12.3201 26.8938 12.2801 27.1109 12.2001 27.2983C12.1201 27.4834 12.0048 27.6285 11.8539 27.7336C11.7054 27.8364 11.526 27.8878 11.3158 27.8878ZM11.3124 27.6342C11.4495 27.6342 11.5717 27.5953 11.6791 27.5176C11.7865 27.4377 11.8711 27.3246 11.9328 27.1783C11.9945 27.0298 12.0253 26.8527 12.0253 26.647C12.0253 26.4414 11.9945 26.2654 11.9328 26.1192C11.8711 25.9707 11.7865 25.8576 11.6791 25.7799C11.5717 25.7022 11.4495 25.6633 11.3124 25.6633C11.1753 25.6633 11.0519 25.7022 10.9422 25.7799C10.8348 25.8576 10.7503 25.9707 10.6886 26.1192C10.6292 26.2654 10.5995 26.4414 10.5995 26.647C10.5995 26.8527 10.6292 27.0298 10.6886 27.1783C10.7503 27.3246 10.8348 27.4377 10.9422 27.5176C11.0519 27.5953 11.1753 27.6342 11.3124 27.6342ZM13.8645 27.8878C13.6543 27.8878 13.4726 27.8364 13.3195 27.7336C13.1687 27.6285 13.0533 27.4834 12.9734 27.2983C12.8934 27.1109 12.8534 26.8938 12.8534 26.647C12.8534 26.4003 12.8934 26.1843 12.9734 25.9992C13.0533 25.8119 13.1687 25.6668 13.3195 25.5639C13.4726 25.4588 13.6543 25.4063 13.8645 25.4063C14.0747 25.4063 14.2541 25.4588 14.4026 25.5639C14.5534 25.6668 14.6688 25.8119 14.7488 25.9992C14.8288 26.1843 14.8688 26.4003 14.8688 26.647C14.8688 26.8938 14.8288 27.1109 14.7488 27.2983C14.6688 27.4834 14.5534 27.6285 14.4026 27.7336C14.2541 27.8364 14.0747 27.8878 13.8645 27.8878ZM13.8611 27.6342C13.9982 27.6342 14.1204 27.5953 14.2278 27.5176C14.3352 27.4377 14.4198 27.3246 14.4815 27.1783C14.5432 27.0298 14.574 26.8527 14.574 26.647C14.574 26.4414 14.5432 26.2654 14.4815 26.1192C14.4198 25.9707 14.3352 25.8576 14.2278 25.7799C14.1204 25.7022 13.9982 25.6633 13.8611 25.6633C13.724 25.6633 13.6006 25.7022 13.4909 25.7799C13.3835 25.8576 13.299 25.9707 13.2373 26.1192C13.1779 26.2654 13.1482 26.4414 13.1482 26.647C13.1482 26.8527 13.1779 27.0298 13.2373 27.1783C13.299 27.3246 13.3835 27.4377 13.4909 27.5176C13.6006 27.5953 13.724 27.6342 13.8611 27.6342ZM15.6637 27.8467L16.5994 25.6942H15.2832V25.4474H16.8942V25.6633L15.9688 27.8467H15.6637ZM18.4359 27.8878C18.2029 27.8878 18.0006 27.8364 17.8293 27.7336C17.6602 27.6285 17.5299 27.4834 17.4385 27.2983C17.3471 27.1109 17.3014 26.8938 17.3014 26.647C17.3014 26.4003 17.3471 26.1843 17.4385 25.9992C17.5299 25.8119 17.6602 25.6668 17.8293 25.5639C18.0006 25.4588 18.2029 25.4063 18.4359 25.4063C18.7101 25.4063 18.9329 25.4714 19.1043 25.6016C19.2757 25.7319 19.3854 25.9158 19.4333 26.1535H19.1146C19.078 26.005 19.0038 25.8861 18.8918 25.797C18.7798 25.7056 18.6279 25.6599 18.4359 25.6599C18.2646 25.6599 18.116 25.6999 17.9904 25.7799C17.8647 25.8576 17.7676 25.9707 17.699 26.1192C17.6305 26.2654 17.5962 26.4414 17.5962 26.647C17.5962 26.8527 17.6305 27.0298 17.699 27.1783C17.7676 27.3246 17.8647 27.4377 17.9904 27.5176C18.116 27.5953 18.2646 27.6342 18.4359 27.6342C18.6279 27.6342 18.7798 27.5908 18.8918 27.5039C19.0038 27.4148 19.078 27.2971 19.1146 27.1509H19.4333C19.3854 27.3817 19.2757 27.5622 19.1043 27.6924C18.9329 27.8227 18.7101 27.8878 18.4359 27.8878Z" fill="#4D4D63" fill-opacity="0.76"/>
</svg>
