<svg width="25" height="29" viewBox="0 0 25 29" fill="none" xmlns="http://www.w3.org/2000/svg">
<rect width="24.9023" height="28.8216" fill="#FEFFFF"/>
<rect width="24.9023" height="24.282" fill="#AF23A5"/>
<path d="M5.94283 27.8218L6.82624 25.4249H7.13098L8.01097 27.8218H7.70623L6.9769 25.7845L6.24415 27.8218H5.94283ZM6.34687 27.2054L6.42905 26.9726H7.51448L7.59666 27.2054H6.34687ZM8.57615 27.8218V25.4249H10.0348V25.6612H8.86378V26.5035H9.86018V26.7363H8.86378V27.8218H8.57615ZM10.5763 27.8218V27.6198C10.7384 27.4919 10.8925 27.363 11.0386 27.2328C11.187 27.1027 11.3182 26.9737 11.4324 26.8459C11.5465 26.7158 11.6355 26.5891 11.6994 26.4658C11.7656 26.3426 11.7987 26.2239 11.7987 26.1097C11.7987 26.0253 11.7839 25.9477 11.7542 25.8769C11.7246 25.8039 11.6766 25.7445 11.6104 25.6989C11.5465 25.6532 11.4598 25.6304 11.3502 25.6304C11.2429 25.6304 11.1539 25.6543 11.0831 25.7023C11.0123 25.7479 10.9587 25.8096 10.9222 25.8872C10.8879 25.9625 10.8708 26.0458 10.8708 26.1371H10.5935C10.5957 25.9796 10.6288 25.8449 10.6928 25.7331C10.759 25.619 10.8491 25.5322 10.9633 25.4729C11.0774 25.4135 11.2075 25.3838 11.3536 25.3838C11.4974 25.3838 11.6241 25.4112 11.7337 25.466C11.8433 25.5185 11.9289 25.5973 11.9905 25.7023C12.0544 25.8073 12.0864 25.9397 12.0864 26.0995C12.0864 26.2113 12.0624 26.3232 12.0145 26.435C11.9688 26.5469 11.9072 26.6565 11.8296 26.7637C11.7519 26.8687 11.6652 26.9703 11.5693 27.0685C11.4757 27.1666 11.3787 27.2591 11.2783 27.3458C11.1801 27.4326 11.0877 27.5113 11.0009 27.5821H12.1685V27.8218H10.5763ZM13.5388 27.8629C13.3858 27.8629 13.2466 27.8355 13.121 27.7807C12.9978 27.7236 12.8996 27.6392 12.8265 27.5273C12.7535 27.4155 12.7147 27.2762 12.7101 27.1096H13.0012C13.0035 27.2009 13.0251 27.2853 13.0662 27.363C13.1096 27.4383 13.1712 27.4988 13.2511 27.5444C13.331 27.5901 13.4269 27.6129 13.5388 27.6129C13.6506 27.6129 13.7442 27.5912 13.8195 27.5479C13.8949 27.5045 13.9519 27.4474 13.9907 27.3766C14.0295 27.3036 14.0489 27.2226 14.0489 27.1335C14.0489 27.0217 14.0215 26.9315 13.9668 26.863C13.9143 26.7923 13.8424 26.7409 13.751 26.709C13.662 26.6747 13.5639 26.6576 13.4566 26.6576H13.2785V26.4145H13.4566C13.6141 26.4145 13.7374 26.378 13.8264 26.3049C13.9154 26.2319 13.9599 26.1314 13.9599 26.0036C13.9599 25.8986 13.9245 25.8107 13.8538 25.7399C13.7853 25.6692 13.6803 25.6338 13.5388 25.6338C13.4041 25.6338 13.2968 25.6726 13.2169 25.7502C13.137 25.8278 13.0913 25.9271 13.0799 26.0481H12.7889C12.7957 25.918 12.8311 25.8027 12.895 25.7023C12.9589 25.6018 13.0457 25.5242 13.1553 25.4694C13.2648 25.4124 13.3938 25.3838 13.5422 25.3838C13.6974 25.3838 13.8275 25.4112 13.9325 25.466C14.0375 25.5208 14.1163 25.5938 14.1688 25.6852C14.2236 25.7765 14.251 25.8769 14.251 25.9865C14.251 26.0687 14.2361 26.1463 14.2064 26.2193C14.1768 26.2901 14.1323 26.3529 14.0729 26.4076C14.0136 26.4624 13.9382 26.5012 13.8469 26.5241C13.9405 26.5423 14.0238 26.5777 14.0969 26.6302C14.1722 26.6827 14.2316 26.7512 14.2749 26.8356C14.3183 26.9201 14.34 27.0194 14.34 27.1335C14.34 27.2637 14.3092 27.3846 14.2475 27.4965C14.1882 27.6061 14.0992 27.6951 13.9805 27.7636C13.8618 27.8298 13.7145 27.8629 13.5388 27.8629ZM14.7296 27.8218L15.613 25.4249H15.9177L16.7977 27.8218H16.493L15.7637 25.7845L15.0309 27.8218H14.7296ZM15.1336 27.2054L15.2158 26.9726H16.3012L16.3834 27.2054H15.1336ZM18.0372 27.8629C17.8729 27.8629 17.7302 27.8332 17.6092 27.7738C17.4905 27.7145 17.3958 27.6335 17.325 27.5307C17.2565 27.428 17.2132 27.3127 17.1949 27.1849H17.4757C17.5031 27.3127 17.5659 27.4166 17.664 27.4965C17.7622 27.5764 17.8877 27.6163 18.0407 27.6163C18.1548 27.6163 18.2518 27.5901 18.3317 27.5376C18.4139 27.4851 18.4767 27.4132 18.52 27.3219C18.5657 27.2306 18.5885 27.129 18.5885 27.0171C18.5885 26.9007 18.5657 26.798 18.52 26.709C18.4744 26.6199 18.4116 26.5514 18.3317 26.5035C18.2518 26.4533 18.1582 26.4282 18.0509 26.4282C17.9208 26.4282 17.8101 26.4567 17.7188 26.5138C17.6275 26.5709 17.559 26.6439 17.5134 26.7329H17.236L17.4346 25.4249H18.7015V25.6749H17.6572L17.5236 26.4111C17.5807 26.3449 17.656 26.2912 17.7496 26.2501C17.8455 26.2068 17.9562 26.1851 18.0817 26.1851C18.2004 26.1851 18.3077 26.2056 18.4036 26.2467C18.4995 26.2878 18.5817 26.346 18.6501 26.4213C18.7186 26.4967 18.7711 26.5845 18.8077 26.685C18.8465 26.7854 18.8659 26.895 18.8659 27.0137C18.8659 27.1301 18.8465 27.2397 18.8077 27.3424C18.7711 27.4428 18.7175 27.533 18.6467 27.6129C18.576 27.6905 18.4892 27.7522 18.3865 27.7978C18.2838 27.8412 18.1673 27.8629 18.0372 27.8629Z" fill="#4D4D63" fill-opacity="0.76"/>
</svg>
