<svg width="25" height="29" viewBox="0 0 25 29" fill="none" xmlns="http://www.w3.org/2000/svg">
<rect width="24.9023" height="28.8216" fill="#FEFFFF"/>
<rect width="24.9023" height="24.282" fill="#E29ED6"/>
<path d="M5.95982 27.8218V25.4249H7.44244V25.6612H6.24744V26.4967H7.33972V26.7295H6.24744V27.5855H7.44244V27.8218H5.95982ZM8.06367 27.8218V27.6198C8.22574 27.4919 8.37982 27.363 8.52592 27.2328C8.67429 27.1027 8.80555 26.9737 8.91968 26.8459C9.03382 26.7158 9.12285 26.5891 9.18676 26.4658C9.25296 26.3426 9.28606 26.2239 9.28606 26.1097C9.28606 26.0253 9.27122 25.9477 9.24155 25.8769C9.21187 25.8039 9.16394 25.7445 9.09774 25.6989C9.03382 25.6532 8.94708 25.6304 8.83751 25.6304C8.73022 25.6304 8.64119 25.6543 8.57043 25.7023C8.49967 25.7479 8.44602 25.8096 8.4095 25.8872C8.37526 25.9625 8.35814 26.0458 8.35814 26.1371H8.08079C8.08307 25.9796 8.11617 25.8449 8.18009 25.7331C8.24628 25.619 8.33645 25.5322 8.45059 25.4729C8.56472 25.4135 8.69484 25.3838 8.84093 25.3838C8.98474 25.3838 9.11143 25.4112 9.221 25.466C9.33057 25.5185 9.41618 25.5973 9.47781 25.7023C9.54172 25.8073 9.57368 25.9397 9.57368 26.0995C9.57368 26.2113 9.54971 26.3232 9.50178 26.435C9.45612 26.5469 9.39449 26.6565 9.31688 26.7637C9.23926 26.8687 9.15252 26.9703 9.05665 27.0685C8.96306 27.1666 8.86604 27.2591 8.7656 27.3458C8.66745 27.4326 8.575 27.5113 8.48825 27.5821H9.65586V27.8218H8.06367ZM11.0269 27.8629C10.8762 27.8629 10.7472 27.8343 10.64 27.7773C10.5327 27.7179 10.4471 27.6392 10.3832 27.541C10.3215 27.4406 10.2839 27.331 10.2702 27.2123H10.5372C10.5601 27.3401 10.6148 27.4394 10.7016 27.5102C10.7883 27.5787 10.8979 27.6129 11.0303 27.6129C11.1513 27.6129 11.2586 27.5764 11.3522 27.5033C11.4458 27.4303 11.5211 27.3196 11.5782 27.1712C11.6375 27.0205 11.6706 26.8299 11.6775 26.5994C11.6775 26.5925 11.6775 26.5857 11.6775 26.5788C11.6775 26.572 11.6775 26.5651 11.6775 26.5583C11.6432 26.6291 11.593 26.6953 11.5268 26.7569C11.4606 26.8185 11.3818 26.8676 11.2905 26.9041C11.2015 26.9406 11.1011 26.9589 10.9892 26.9589C10.8545 26.9589 10.7267 26.927 10.6057 26.863C10.487 26.7991 10.39 26.7101 10.3147 26.596C10.2416 26.4795 10.2051 26.3437 10.2051 26.1885C10.2051 26.0538 10.2382 25.9248 10.3044 25.8016C10.3706 25.6783 10.4653 25.5779 10.5886 25.5003C10.7119 25.4226 10.858 25.3838 11.0269 25.3838C11.1981 25.3838 11.343 25.4169 11.4617 25.4831C11.5804 25.5471 11.6752 25.6338 11.7459 25.7434C11.819 25.8507 11.8715 25.9728 11.9034 26.1097C11.9354 26.2467 11.9514 26.386 11.9514 26.5275C11.9514 26.79 11.9149 27.0217 11.8418 27.2226C11.771 27.4234 11.666 27.581 11.5268 27.6951C11.3898 27.8069 11.2232 27.8629 11.0269 27.8629ZM11.0474 26.709C11.1524 26.709 11.2472 26.685 11.3316 26.637C11.4161 26.5891 11.4823 26.5241 11.5302 26.4419C11.5804 26.3597 11.6055 26.2695 11.6055 26.1714C11.6055 26.0664 11.5804 25.9739 11.5302 25.894C11.4823 25.8141 11.4161 25.7514 11.3316 25.7057C11.2472 25.66 11.1524 25.6372 11.0474 25.6372C10.9424 25.6372 10.8477 25.6612 10.7632 25.7091C10.681 25.7548 10.616 25.8176 10.5681 25.8974C10.5201 25.9773 10.4961 26.0698 10.4961 26.1748C10.4961 26.2821 10.5201 26.3757 10.5681 26.4556C10.616 26.5355 10.681 26.5982 10.7632 26.6439C10.8477 26.6873 10.9424 26.709 11.0474 26.709ZM12.6017 27.8218V25.4249H14.0843V25.6612H12.8893V26.4967H13.9816V26.7295H12.8893V27.5855H14.0843V27.8218H12.6017ZM14.7432 27.8218V25.4249H15.4486C15.7294 25.4249 15.9599 25.474 16.1402 25.5722C16.3229 25.668 16.4575 25.8061 16.5443 25.9865C16.6333 26.1645 16.6778 26.3791 16.6778 26.6302C16.6778 26.8767 16.6333 27.089 16.5443 27.2671C16.4575 27.4451 16.3229 27.5821 16.1402 27.678C15.9599 27.7738 15.7294 27.8218 15.4486 27.8218H14.7432ZM15.0308 27.5821H15.4417C15.6746 27.5821 15.8595 27.5444 15.9964 27.4691C16.1334 27.3915 16.2316 27.2819 16.2909 27.1404C16.3503 26.9966 16.3799 26.8265 16.3799 26.6302C16.3799 26.4293 16.3503 26.257 16.2909 26.1132C16.2316 25.9694 16.1334 25.8586 15.9964 25.781C15.8595 25.7034 15.6746 25.6646 15.4417 25.6646H15.0308V27.5821ZM18.1655 27.8629C17.992 27.8629 17.8459 27.8309 17.7272 27.767C17.6085 27.7008 17.5138 27.6141 17.443 27.5068C17.3723 27.3972 17.3198 27.2739 17.2855 27.137C17.2536 27 17.2376 26.8608 17.2376 26.7192C17.2376 26.4544 17.2741 26.2227 17.3472 26.0241C17.4202 25.8233 17.5252 25.6669 17.6622 25.555C17.8014 25.4409 17.968 25.3838 18.1621 25.3838C18.3127 25.3838 18.4417 25.4135 18.549 25.4729C18.6586 25.5299 18.7453 25.6075 18.8092 25.7057C18.8731 25.8039 18.912 25.9134 18.9256 26.0344H18.6586C18.6357 25.9066 18.5798 25.8084 18.4908 25.7399C18.404 25.6692 18.2933 25.6338 18.1587 25.6338C18.04 25.6338 17.9327 25.6715 17.8368 25.7468C17.7409 25.8198 17.6644 25.9328 17.6074 26.0858C17.5526 26.2364 17.5206 26.4293 17.5115 26.6644C17.5115 26.6667 17.5115 26.6701 17.5115 26.6747C17.5115 26.6793 17.5115 26.6838 17.5115 26.6884C17.548 26.6176 17.5982 26.5514 17.6622 26.4898C17.7284 26.4282 17.8071 26.3791 17.8984 26.3426C17.9897 26.3061 18.0913 26.2878 18.2032 26.2878C18.3378 26.2878 18.4645 26.3198 18.5832 26.3837C18.7019 26.4476 18.7978 26.5378 18.8709 26.6542C18.9462 26.7683 18.9839 26.903 18.9839 27.0582C18.9839 27.1929 18.9508 27.3219 18.8846 27.4451C18.8206 27.5684 18.7271 27.6688 18.6038 27.7464C18.4805 27.8241 18.3344 27.8629 18.1655 27.8629ZM18.145 27.6095C18.25 27.6095 18.3436 27.5867 18.4257 27.541C18.5102 27.4931 18.5753 27.4292 18.6209 27.3493C18.6688 27.2671 18.6928 27.1746 18.6928 27.0719C18.6928 26.9646 18.6688 26.871 18.6209 26.7911C18.5753 26.7112 18.5102 26.6496 18.4257 26.6062C18.3436 26.5606 18.25 26.5378 18.145 26.5378C18.04 26.5378 17.9452 26.5617 17.8608 26.6097C17.7763 26.6576 17.709 26.7227 17.6587 26.8048C17.6108 26.8847 17.5868 26.9749 17.5868 27.0753C17.5868 27.1781 17.6108 27.2705 17.6587 27.3527C17.709 27.4326 17.7763 27.4953 17.8608 27.541C17.9452 27.5867 18.04 27.6095 18.145 27.6095Z" fill="#4D4D63" fill-opacity="0.76"/>
</svg>
