<svg width="25" height="29" viewBox="0 0 25 29" fill="none" xmlns="http://www.w3.org/2000/svg">
<rect width="24.9023" height="28.8194" fill="#FEFFFF"/>
<rect width="24.9023" height="24.2798" fill="#E0CEE0"/>
<path d="M5.72241 27.8193V25.4225H7.20503V25.6587H6.01003V26.4942H7.10231V26.7271H6.01003V27.5831H7.20503V27.8193H5.72241ZM8.78157 27.8604C8.57156 27.8604 8.39009 27.8091 8.23714 27.7063C8.08649 27.6013 7.97121 27.4564 7.89131 27.2715C7.81142 27.0843 7.77147 26.8674 7.77147 26.6209C7.77147 26.3744 7.81142 26.1587 7.89131 25.9738C7.97121 25.7866 8.08649 25.6416 8.23714 25.5389C8.39009 25.4339 8.57156 25.3814 8.78157 25.3814C8.99158 25.3814 9.17077 25.4339 9.31915 25.5389C9.46981 25.6416 9.58509 25.7866 9.66498 25.9738C9.74488 26.1587 9.78482 26.3744 9.78482 26.6209C9.78482 26.8674 9.74488 27.0843 9.66498 27.2715C9.58509 27.4564 9.46981 27.6013 9.31915 27.7063C9.17077 27.8091 8.99158 27.8604 8.78157 27.8604ZM8.77815 27.607C8.91511 27.607 9.03724 27.5682 9.14452 27.4906C9.25181 27.4107 9.33627 27.2977 9.3979 27.1516C9.45954 27.0033 9.49035 26.8264 9.49035 26.6209C9.49035 26.4155 9.45954 26.2397 9.3979 26.0936C9.33627 25.9452 9.25181 25.8322 9.14452 25.7546C9.03724 25.677 8.91511 25.6382 8.77815 25.6382C8.64118 25.6382 8.51792 25.677 8.40835 25.7546C8.30106 25.8322 8.2166 25.9452 8.15497 26.0936C8.09562 26.2397 8.06594 26.4155 8.06594 26.6209C8.06594 26.8264 8.09562 27.0033 8.15497 27.1516C8.2166 27.2977 8.30106 27.4107 8.40835 27.4906C8.51792 27.5682 8.64118 27.607 8.77815 27.607ZM11.451 27.8604C11.2181 27.8604 11.0161 27.8091 10.8449 27.7063C10.676 27.6013 10.5459 27.4564 10.4546 27.2715C10.3632 27.0843 10.3176 26.8674 10.3176 26.6209C10.3176 26.3744 10.3632 26.1587 10.4546 25.9738C10.5459 25.7866 10.676 25.6416 10.8449 25.5389C11.0161 25.4339 11.2181 25.3814 11.451 25.3814C11.7249 25.3814 11.9474 25.4465 12.1186 25.5766C12.2899 25.7067 12.3994 25.8904 12.4474 26.1278H12.1289C12.0924 25.9795 12.0182 25.8608 11.9064 25.7717C11.7945 25.6804 11.6427 25.6348 11.451 25.6348C11.2798 25.6348 11.1314 25.6747 11.0058 25.7546C10.8803 25.8322 10.7833 25.9452 10.7148 26.0936C10.6463 26.2397 10.6121 26.4155 10.6121 26.6209C10.6121 26.8264 10.6463 27.0033 10.7148 27.1516C10.7833 27.2977 10.8803 27.4107 11.0058 27.4906C11.1314 27.5682 11.2798 27.607 11.451 27.607C11.6427 27.607 11.7945 27.5637 11.9064 27.4769C12.0182 27.3879 12.0924 27.2703 12.1289 27.1242H12.4474C12.3994 27.3548 12.2899 27.5351 12.1186 27.6653C11.9474 27.7954 11.7249 27.8604 11.451 27.8604ZM13.0698 27.8193V25.4225H14.5525V25.6587H13.3575V26.4942H14.4497V26.7271H13.3575V27.5831H14.5525V27.8193H13.0698ZM15.2114 27.8193V25.4225H16.694V25.6587H15.499V26.4942H16.5913V26.7271H15.499V27.5831H16.694V27.8193H15.2114ZM18.2705 27.8604C18.0605 27.8604 17.879 27.8091 17.7261 27.7063C17.5754 27.6013 17.4602 27.4564 17.3803 27.2715C17.3004 27.0843 17.2604 26.8674 17.2604 26.6209C17.2604 26.3744 17.3004 26.1587 17.3803 25.9738C17.4602 25.7866 17.5754 25.6416 17.7261 25.5389C17.879 25.4339 18.0605 25.3814 18.2705 25.3814C18.4805 25.3814 18.6597 25.4339 18.8081 25.5389C18.9588 25.6416 19.074 25.7866 19.1539 25.9738C19.2338 26.1587 19.2738 26.3744 19.2738 26.6209C19.2738 26.8674 19.2338 27.0843 19.1539 27.2715C19.074 27.4564 18.9588 27.6013 18.8081 27.7063C18.6597 27.8091 18.4805 27.8604 18.2705 27.8604ZM18.2671 27.607C18.4041 27.607 18.5262 27.5682 18.6335 27.4906C18.7408 27.4107 18.8252 27.2977 18.8869 27.1516C18.9485 27.0033 18.9793 26.8264 18.9793 26.6209C18.9793 26.4155 18.9485 26.2397 18.8869 26.0936C18.8252 25.9452 18.7408 25.8322 18.6335 25.7546C18.5262 25.677 18.4041 25.6382 18.2671 25.6382C18.1301 25.6382 18.0069 25.677 17.8973 25.7546C17.79 25.8322 17.7056 25.9452 17.6439 26.0936C17.5846 26.2397 17.5549 26.4155 17.5549 26.6209C17.5549 26.8264 17.5846 27.0033 17.6439 27.1516C17.7056 27.2977 17.79 27.4107 17.8973 27.4906C18.0069 27.5682 18.1301 27.607 18.2671 27.607Z" fill="#4D4D63" fill-opacity="0.76"/>
</svg>
