<svg width="25" height="29" viewBox="0 0 25 29" fill="none" xmlns="http://www.w3.org/2000/svg">
<rect width="24.9023" height="28.8216" fill="#FEFFFF"/>
<rect width="24.9023" height="24.282" fill="#8977BB"/>
<path d="M7.06494 27.8629C6.90971 27.8629 6.77047 27.8343 6.6472 27.7773C6.52393 27.7179 6.42578 27.6369 6.35273 27.5342C6.27968 27.4292 6.24316 27.3082 6.24316 27.1712C6.24316 27.073 6.26256 26.9817 6.30137 26.8973C6.34017 26.8128 6.39382 26.7398 6.4623 26.6781C6.53306 26.6142 6.6141 26.5697 6.70541 26.5446C6.57758 26.4989 6.47828 26.4282 6.40751 26.3323C6.33903 26.2364 6.30479 26.1326 6.30479 26.0207C6.30479 25.902 6.33561 25.7947 6.39724 25.6989C6.45888 25.603 6.54562 25.5265 6.65747 25.4694C6.77161 25.4124 6.90743 25.3838 7.06494 25.3838C7.22473 25.3838 7.36055 25.4124 7.4724 25.4694C7.58654 25.5265 7.67328 25.603 7.73263 25.6989C7.79426 25.7947 7.82508 25.902 7.82508 26.0207C7.82508 26.1326 7.7897 26.2364 7.71893 26.3323C7.65045 26.4282 7.5523 26.4989 7.42446 26.5446C7.51805 26.5697 7.59909 26.6142 7.66757 26.6781C7.73834 26.7398 7.79198 26.8128 7.8285 26.8973C7.86731 26.9817 7.88671 27.073 7.88671 27.1712C7.88671 27.3082 7.85019 27.4292 7.77714 27.5342C7.70638 27.6369 7.60822 27.7179 7.48267 27.7773C7.35941 27.8343 7.22016 27.8629 7.06494 27.8629ZM7.06494 27.6095C7.24527 27.6095 7.37881 27.5684 7.46555 27.4862C7.55458 27.4018 7.59909 27.291 7.59909 27.1541C7.59909 26.9989 7.55001 26.8813 7.45186 26.8014C7.35598 26.7215 7.22701 26.6816 7.06494 26.6816C6.90286 26.6816 6.77275 26.7215 6.67459 26.8014C6.57872 26.8813 6.53078 26.9989 6.53078 27.1541C6.53078 27.291 6.57529 27.4018 6.66432 27.4862C6.75335 27.5684 6.88688 27.6095 7.06494 27.6095ZM7.06494 26.4419C7.20875 26.4419 7.32288 26.4042 7.40734 26.3289C7.4918 26.2536 7.53403 26.1565 7.53403 26.0378C7.53403 25.9032 7.4918 25.8016 7.40734 25.7331C7.32517 25.6646 7.21103 25.6304 7.06494 25.6304C6.92112 25.6304 6.80699 25.6646 6.72253 25.7331C6.64035 25.8016 6.59926 25.9032 6.59926 26.0378C6.59926 26.1565 6.64035 26.2536 6.72253 26.3289C6.80699 26.4042 6.92112 26.4419 7.06494 26.4419ZM9.24984 27.8629C9.09918 27.8629 8.97021 27.8343 8.86292 27.7773C8.75563 27.7179 8.67003 27.6392 8.60612 27.541C8.54448 27.4406 8.50682 27.331 8.49312 27.2123H8.7602C8.78303 27.3401 8.83781 27.4394 8.92455 27.5102C9.0113 27.5787 9.12087 27.6129 9.25326 27.6129C9.37425 27.6129 9.48154 27.5764 9.57513 27.5033C9.66872 27.4303 9.74405 27.3196 9.80112 27.1712C9.86047 27.0205 9.89357 26.8299 9.90041 26.5994C9.90041 26.5925 9.90041 26.5857 9.90041 26.5788C9.90041 26.572 9.90041 26.5651 9.90041 26.5583C9.86617 26.6291 9.81595 26.6953 9.74975 26.7569C9.68356 26.8185 9.6048 26.8676 9.51349 26.9041C9.42447 26.9406 9.32403 26.9589 9.21218 26.9589C9.0775 26.9589 8.94966 26.927 8.82868 26.863C8.70998 26.7991 8.61296 26.7101 8.53763 26.596C8.46459 26.4795 8.42806 26.3437 8.42806 26.1885C8.42806 26.0538 8.46116 25.9248 8.52736 25.8016C8.59356 25.6783 8.68829 25.5779 8.81156 25.5003C8.93483 25.4226 9.08092 25.3838 9.24984 25.3838C9.42104 25.3838 9.566 25.4169 9.6847 25.4831C9.8034 25.5471 9.89813 25.6338 9.9689 25.7434C10.0419 25.8507 10.0944 25.9728 10.1264 26.1097C10.1584 26.2467 10.1743 26.386 10.1743 26.5275C10.1743 26.79 10.1378 27.0217 10.0648 27.2226C9.99401 27.4234 9.889 27.581 9.74975 27.6951C9.61279 27.8069 9.44615 27.8629 9.24984 27.8629ZM9.27038 26.709C9.37539 26.709 9.47012 26.685 9.55458 26.637C9.63904 26.5891 9.70524 26.5241 9.75318 26.4419C9.8034 26.3597 9.82851 26.2695 9.82851 26.1714C9.82851 26.0664 9.8034 25.9739 9.75318 25.894C9.70524 25.8141 9.63904 25.7514 9.55458 25.7057C9.47012 25.66 9.37539 25.6372 9.27038 25.6372C9.16538 25.6372 9.07065 25.6612 8.98619 25.7091C8.90401 25.7548 8.83895 25.8176 8.79101 25.8974C8.74308 25.9773 8.71911 26.0698 8.71911 26.1748C8.71911 26.2821 8.74308 26.3757 8.79101 26.4556C8.83895 26.5355 8.90401 26.5982 8.98619 26.6439C9.07065 26.6873 9.16538 26.709 9.27038 26.709ZM10.9501 27.8218L11.8849 25.6715H10.57V25.4249H12.1793V25.6406L11.2548 27.8218H10.9501ZM12.9846 27.8218L13.9194 25.6715H12.6045V25.4249H14.2139V25.6406L13.2894 27.8218H12.9846ZM14.8034 27.8218V25.4249H15.6457C15.8147 25.4249 15.9539 25.4523 16.0635 25.5071C16.1753 25.5596 16.2586 25.6327 16.3134 25.7262C16.3682 25.8176 16.3956 25.9203 16.3956 26.0344C16.3956 26.1577 16.3682 26.2604 16.3134 26.3426C16.2609 26.4248 16.1913 26.4875 16.1046 26.5309C16.0201 26.5743 15.9299 26.6005 15.8341 26.6097L15.882 26.5754C15.9847 26.5777 16.0795 26.6051 16.1662 26.6576C16.2529 26.7101 16.3214 26.7809 16.3716 26.8699C16.4241 26.9589 16.4504 27.0582 16.4504 27.1678C16.4504 27.2888 16.4207 27.3995 16.3614 27.4999C16.302 27.5981 16.2141 27.6768 16.0977 27.7362C15.9836 27.7932 15.842 27.8218 15.6731 27.8218H14.8034ZM15.091 27.5821H15.6423C15.8044 27.5821 15.9299 27.5444 16.019 27.4691C16.1103 27.3915 16.1559 27.2842 16.1559 27.1472C16.1559 27.0126 16.1091 26.9053 16.0155 26.8254C15.9242 26.7432 15.7975 26.7021 15.6355 26.7021H15.091V27.5821ZM15.091 26.4727H15.6252C15.7804 26.4727 15.898 26.4362 15.9779 26.3631C16.06 26.2901 16.1011 26.1908 16.1011 26.0652C16.1011 25.9442 16.06 25.8472 15.9779 25.7742C15.898 25.7011 15.777 25.6646 15.6149 25.6646H15.091V26.4727ZM17.072 27.8218V25.4249H17.9143C18.0832 25.4249 18.2225 25.4523 18.3321 25.5071C18.4439 25.5596 18.5272 25.6327 18.582 25.7262C18.6368 25.8176 18.6642 25.9203 18.6642 26.0344C18.6642 26.1577 18.6368 26.2604 18.582 26.3426C18.5295 26.4248 18.4599 26.4875 18.3731 26.5309C18.2887 26.5743 18.1985 26.6005 18.1026 26.6097L18.1506 26.5754C18.2533 26.5777 18.348 26.6051 18.4348 26.6576C18.5215 26.7101 18.59 26.7809 18.6402 26.8699C18.6927 26.9589 18.719 27.0582 18.719 27.1678C18.719 27.2888 18.6893 27.3995 18.6299 27.4999C18.5706 27.5981 18.4827 27.6768 18.3663 27.7362C18.2522 27.7932 18.1106 27.8218 17.9417 27.8218H17.072ZM17.3596 27.5821H17.9109C18.073 27.5821 18.1985 27.5444 18.2875 27.4691C18.3788 27.3915 18.4245 27.2842 18.4245 27.1472C18.4245 27.0126 18.3777 26.9053 18.2841 26.8254C18.1928 26.7432 18.0661 26.7021 17.904 26.7021H17.3596V27.5821ZM17.3596 26.4727H17.8938C18.049 26.4727 18.1666 26.4362 18.2465 26.3631C18.3286 26.2901 18.3697 26.1908 18.3697 26.0652C18.3697 25.9442 18.3286 25.8472 18.2465 25.7742C18.1666 25.7011 18.0456 25.6646 17.8835 25.6646H17.3596V26.4727Z" fill="#4D4D63" fill-opacity="0.76"/>
</svg>
