<svg width="25" height="29" viewBox="0 0 25 29" fill="none" xmlns="http://www.w3.org/2000/svg">
<rect width="24.9023" height="28.8216" fill="#FEFFFF"/>
<rect width="24.9023" height="24.282" fill="#A30580"/>
<path d="M5.4981 27.8218L6.38151 25.4249H6.68625L7.56624 27.8218H7.2615L6.53217 25.7845L5.79942 27.8218H5.4981ZM5.90214 27.2054L5.98432 26.9726H7.06975L7.15193 27.2054H5.90214ZM8.811 27.8629C8.65806 27.8629 8.51881 27.8355 8.39326 27.7807C8.26999 27.7236 8.17184 27.6392 8.09879 27.5273C8.02574 27.4155 7.98694 27.2762 7.98237 27.1096H8.27342C8.2757 27.2009 8.29739 27.2853 8.33848 27.363C8.38185 27.4383 8.44348 27.4988 8.52338 27.5444C8.60327 27.5901 8.69914 27.6129 8.811 27.6129C8.92285 27.6129 9.01644 27.5912 9.09177 27.5479C9.1671 27.5045 9.22417 27.4474 9.26297 27.3766C9.30178 27.3036 9.32118 27.2226 9.32118 27.1335C9.32118 27.0217 9.29379 26.9315 9.23901 26.863C9.1865 26.7923 9.1146 26.7409 9.02329 26.709C8.93426 26.6747 8.83611 26.6576 8.72882 26.6576H8.55077V26.4145H8.72882C8.88633 26.4145 9.00959 26.378 9.09862 26.3049C9.18764 26.2319 9.23216 26.1314 9.23216 26.0036C9.23216 25.8986 9.19678 25.8107 9.12601 25.7399C9.05753 25.6692 8.95253 25.6338 8.811 25.6338C8.67632 25.6338 8.56903 25.6726 8.48913 25.7502C8.40924 25.8278 8.36359 25.9271 8.35217 26.0481H8.06113C8.06797 25.918 8.10336 25.8027 8.16727 25.7023C8.23119 25.6018 8.31793 25.5242 8.4275 25.4694C8.53707 25.4124 8.66604 25.3838 8.81442 25.3838C8.96965 25.3838 9.09976 25.4112 9.20477 25.466C9.30977 25.5208 9.38852 25.5938 9.44103 25.6852C9.49581 25.7765 9.5232 25.8769 9.5232 25.9865C9.5232 26.0687 9.50837 26.1463 9.47869 26.2193C9.44902 26.2901 9.4045 26.3529 9.34515 26.4076C9.2858 26.4624 9.21047 26.5012 9.11916 26.5241C9.21275 26.5423 9.29607 26.5777 9.36912 26.6302C9.44445 26.6827 9.5038 26.7512 9.54717 26.8356C9.59054 26.9201 9.61223 27.0194 9.61223 27.1335C9.61223 27.2637 9.58141 27.3846 9.51978 27.4965C9.46043 27.6061 9.3714 27.6951 9.2527 27.7636C9.134 27.8298 8.98677 27.8629 8.811 27.8629ZM11.2107 27.8629C11.0006 27.8629 10.8192 27.8115 10.6662 27.7088C10.5156 27.6038 10.4003 27.4588 10.3204 27.2739C10.2405 27.0867 10.2006 26.8699 10.2006 26.6234C10.2006 26.3768 10.2405 26.1611 10.3204 25.9762C10.4003 25.789 10.5156 25.6441 10.6662 25.5413C10.8192 25.4363 11.0006 25.3838 11.2107 25.3838C11.4207 25.3838 11.5999 25.4363 11.7482 25.5413C11.8989 25.6441 12.0142 25.789 12.0941 25.9762C12.174 26.1611 12.2139 26.3768 12.2139 26.6234C12.2139 26.8699 12.174 27.0867 12.0941 27.2739C12.0142 27.4588 11.8989 27.6038 11.7482 27.7088C11.5999 27.8115 11.4207 27.8629 11.2107 27.8629ZM11.2072 27.6095C11.3442 27.6095 11.4663 27.5707 11.5736 27.4931C11.6809 27.4132 11.7654 27.3002 11.827 27.1541C11.8886 27.0057 11.9194 26.8288 11.9194 26.6234C11.9194 26.4179 11.8886 26.2421 11.827 26.096C11.7654 25.9477 11.6809 25.8347 11.5736 25.7571C11.4663 25.6795 11.3442 25.6406 11.2072 25.6406C11.0703 25.6406 10.947 25.6795 10.8374 25.7571C10.7301 25.8347 10.6457 25.9477 10.5841 26.096C10.5247 26.2421 10.495 26.4179 10.495 26.6234C10.495 26.8288 10.5247 27.0057 10.5841 27.1541C10.6457 27.3002 10.7301 27.4132 10.8374 27.4931C10.947 27.5707 11.0703 27.6095 11.2072 27.6095ZM13.6472 27.8629C13.4828 27.8629 13.3402 27.8332 13.2192 27.7738C13.1005 27.7145 13.0058 27.6335 12.935 27.5307C12.8665 27.428 12.8231 27.3127 12.8049 27.1849H13.0857C13.113 27.3127 13.1758 27.4166 13.274 27.4965C13.3721 27.5764 13.4977 27.6163 13.6506 27.6163C13.7648 27.6163 13.8618 27.5901 13.9417 27.5376C14.0239 27.4851 14.0866 27.4132 14.13 27.3219C14.1757 27.2306 14.1985 27.129 14.1985 27.0171C14.1985 26.9007 14.1757 26.798 14.13 26.709C14.0843 26.6199 14.0216 26.5514 13.9417 26.5035C13.8618 26.4533 13.7682 26.4282 13.6609 26.4282C13.5308 26.4282 13.4201 26.4567 13.3288 26.5138C13.2375 26.5709 13.169 26.6439 13.1233 26.7329H12.846L13.0446 25.4249H14.3115V25.6749H13.2671L13.1336 26.4111C13.1907 26.3449 13.266 26.2912 13.3596 26.2501C13.4555 26.2068 13.5662 26.1851 13.6917 26.1851C13.8104 26.1851 13.9177 26.2056 14.0136 26.2467C14.1095 26.2878 14.1916 26.346 14.2601 26.4213C14.3286 26.4967 14.3811 26.5845 14.4176 26.685C14.4564 26.7854 14.4758 26.895 14.4758 27.0137C14.4758 27.1301 14.4564 27.2397 14.4176 27.3424C14.3811 27.4428 14.3275 27.533 14.2567 27.6129C14.1859 27.6905 14.0992 27.7522 13.9965 27.7978C13.8937 27.8412 13.7773 27.8629 13.6472 27.8629ZM15.9186 27.8629C15.7633 27.8629 15.6241 27.8343 15.5008 27.7773C15.3776 27.7179 15.2794 27.6369 15.2064 27.5342C15.1333 27.4292 15.0968 27.3082 15.0968 27.1712C15.0968 27.073 15.1162 26.9817 15.155 26.8973C15.1938 26.8128 15.2474 26.7398 15.3159 26.6781C15.3867 26.6142 15.4677 26.5697 15.559 26.5446C15.4312 26.4989 15.3319 26.4282 15.2611 26.3323C15.1927 26.2364 15.1584 26.1326 15.1584 26.0207C15.1584 25.902 15.1892 25.7947 15.2509 25.6989C15.3125 25.603 15.3992 25.5265 15.5111 25.4694C15.6252 25.4124 15.7611 25.3838 15.9186 25.3838C16.0784 25.3838 16.2142 25.4124 16.326 25.4694C16.4402 25.5265 16.5269 25.603 16.5863 25.6989C16.6479 25.7947 16.6787 25.902 16.6787 26.0207C16.6787 26.1326 16.6433 26.2364 16.5726 26.3323C16.5041 26.4282 16.4059 26.4989 16.2781 26.5446C16.3717 26.5697 16.4527 26.6142 16.5212 26.6781C16.592 26.7398 16.6456 26.8128 16.6821 26.8973C16.7209 26.9817 16.7403 27.073 16.7403 27.1712C16.7403 27.3082 16.7038 27.4292 16.6308 27.5342C16.56 27.6369 16.4619 27.7179 16.3363 27.7773C16.213 27.8343 16.0738 27.8629 15.9186 27.8629ZM15.9186 27.6095C16.0989 27.6095 16.2324 27.5684 16.3192 27.4862C16.4082 27.4018 16.4527 27.291 16.4527 27.1541C16.4527 26.9989 16.4036 26.8813 16.3055 26.8014C16.2096 26.7215 16.0806 26.6816 15.9186 26.6816C15.7565 26.6816 15.6264 26.7215 15.5282 26.8014C15.4323 26.8813 15.3844 26.9989 15.3844 27.1541C15.3844 27.291 15.4289 27.4018 15.5179 27.4862C15.607 27.5684 15.7405 27.6095 15.9186 27.6095ZM15.9186 26.4419C16.0624 26.4419 16.1765 26.4042 16.261 26.3289C16.3454 26.2536 16.3877 26.1565 16.3877 26.0378C16.3877 25.9032 16.3454 25.8016 16.261 25.7331C16.1788 25.6646 16.0647 25.6304 15.9186 25.6304C15.7748 25.6304 15.6606 25.6646 15.5762 25.7331C15.494 25.8016 15.4529 25.9032 15.4529 26.0378C15.4529 26.1565 15.494 26.2536 15.5762 26.3289C15.6606 26.4042 15.7748 26.4419 15.9186 26.4419ZM18.3407 27.8629C18.1307 27.8629 17.9493 27.8115 17.7963 27.7088C17.6457 27.6038 17.5304 27.4588 17.4505 27.2739C17.3706 27.0867 17.3306 26.8699 17.3306 26.6234C17.3306 26.3768 17.3706 26.1611 17.4505 25.9762C17.5304 25.789 17.6457 25.6441 17.7963 25.5413C17.9493 25.4363 18.1307 25.3838 18.3407 25.3838C18.5508 25.3838 18.7299 25.4363 18.8783 25.5413C19.029 25.6441 19.1443 25.789 19.2242 25.9762C19.3041 26.1611 19.344 26.3768 19.344 26.6234C19.344 26.8699 19.3041 27.0867 19.2242 27.2739C19.1443 27.4588 19.029 27.6038 18.8783 27.7088C18.7299 27.8115 18.5508 27.8629 18.3407 27.8629ZM18.3373 27.6095C18.4743 27.6095 18.5964 27.5707 18.7037 27.4931C18.811 27.4132 18.8954 27.3002 18.9571 27.1541C19.0187 27.0057 19.0495 26.8288 19.0495 26.6234C19.0495 26.4179 19.0187 26.2421 18.9571 26.096C18.8954 25.9477 18.811 25.8347 18.7037 25.7571C18.5964 25.6795 18.4743 25.6406 18.3373 25.6406C18.2004 25.6406 18.0771 25.6795 17.9675 25.7571C17.8602 25.8347 17.7758 25.9477 17.7141 26.096C17.6548 26.2421 17.6251 26.4179 17.6251 26.6234C17.6251 26.8288 17.6548 27.0057 17.7141 27.1541C17.7758 27.3002 17.8602 27.4132 17.9675 27.4931C18.0771 27.5707 18.2004 27.6095 18.3373 27.6095Z" fill="#4D4D63" fill-opacity="0.76"/>
</svg>
