<svg width="25" height="29" viewBox="0 0 25 29" fill="none" xmlns="http://www.w3.org/2000/svg">
<rect width="24.9023" height="28.8194" fill="#FEFFFF"/>
<rect width="24.9023" height="24.2798" fill="#681D5C"/>
<path d="M6.98645 27.8604C6.81296 27.8604 6.66687 27.8285 6.54817 27.7646C6.42947 27.6984 6.33473 27.6116 6.26397 27.5043C6.19321 27.3948 6.1407 27.2715 6.10646 27.1345C6.07451 26.9976 6.05853 26.8583 6.05853 26.7168C6.05853 26.452 6.09505 26.2203 6.1681 26.0217C6.24114 25.8208 6.34615 25.6645 6.48311 25.5526C6.62236 25.4385 6.78899 25.3814 6.98303 25.3814C7.13368 25.3814 7.26266 25.4111 7.36995 25.4704C7.47952 25.5275 7.56626 25.6051 7.63017 25.7033C7.69409 25.8014 7.7329 25.911 7.74659 26.032H7.47952C7.45669 25.9041 7.40076 25.806 7.31174 25.7375C7.22499 25.6667 7.11428 25.6314 6.9796 25.6314C6.8609 25.6314 6.75361 25.669 6.65774 25.7443C6.56186 25.8174 6.48539 25.9304 6.42833 26.0833C6.37354 26.234 6.34158 26.4269 6.33245 26.662C6.33245 26.6643 6.33245 26.6677 6.33245 26.6723C6.33245 26.6768 6.33245 26.6814 6.33245 26.686C6.36898 26.6152 6.4192 26.549 6.48311 26.4874C6.54931 26.4257 6.62806 26.3767 6.71937 26.3401C6.81068 26.3036 6.91226 26.2854 7.02411 26.2854C7.15879 26.2854 7.28549 26.3173 7.40419 26.3812C7.52289 26.4451 7.61876 26.5353 7.69181 26.6517C7.76714 26.7659 7.8048 26.9005 7.8048 27.0558C7.8048 27.1904 7.7717 27.3194 7.7055 27.4427C7.64159 27.566 7.548 27.6664 7.42473 27.744C7.30146 27.8216 7.15537 27.8604 6.98645 27.8604ZM6.96591 27.607C7.07091 27.607 7.1645 27.5842 7.24668 27.5386C7.33114 27.4906 7.3962 27.4267 7.44185 27.3468C7.48979 27.2646 7.51376 27.1722 7.51376 27.0695C7.51376 26.9622 7.48979 26.8686 7.44185 26.7887C7.3962 26.7088 7.33114 26.6472 7.24668 26.6038C7.1645 26.5581 7.07091 26.5353 6.96591 26.5353C6.8609 26.5353 6.76617 26.5593 6.68171 26.6072C6.59725 26.6552 6.52991 26.7202 6.47969 26.8024C6.43175 26.8823 6.40778 26.9724 6.40778 27.0729C6.40778 27.1756 6.43175 27.2681 6.47969 27.3502C6.52991 27.4301 6.59725 27.4929 6.68171 27.5386C6.76617 27.5842 6.8609 27.607 6.96591 27.607ZM9.26664 27.8604C9.11142 27.8604 8.97217 27.8319 8.8489 27.7748C8.72564 27.7155 8.62748 27.6344 8.55443 27.5317C8.48139 27.4267 8.44486 27.3057 8.44486 27.1688C8.44486 27.0706 8.46427 26.9793 8.50307 26.8948C8.54188 26.8104 8.59552 26.7373 8.664 26.6757C8.73477 26.6118 8.8158 26.5673 8.90711 26.5422C8.77928 26.4965 8.67998 26.4257 8.60922 26.3299C8.54074 26.234 8.5065 26.1301 8.5065 26.0183C8.5065 25.8996 8.53731 25.7923 8.59895 25.6964C8.66058 25.6005 8.74732 25.5241 8.85918 25.467C8.97331 25.4099 9.10913 25.3814 9.26664 25.3814C9.42643 25.3814 9.56225 25.4099 9.6741 25.467C9.78824 25.5241 9.87498 25.6005 9.93433 25.6964C9.99597 25.7923 10.0268 25.8996 10.0268 26.0183C10.0268 26.1301 9.9914 26.234 9.92064 26.3299C9.85216 26.4257 9.754 26.4965 9.62617 26.5422C9.71976 26.5673 9.80079 26.6118 9.86928 26.6757C9.94004 26.7373 9.99368 26.8104 10.0302 26.8948C10.069 26.9793 10.0884 27.0706 10.0884 27.1688C10.0884 27.3057 10.0519 27.4267 9.97885 27.5317C9.90808 27.6344 9.80993 27.7155 9.68438 27.7748C9.56111 27.8319 9.42186 27.8604 9.26664 27.8604ZM9.26664 27.607C9.44697 27.607 9.58051 27.566 9.66726 27.4838C9.75628 27.3993 9.80079 27.2886 9.80079 27.1516C9.80079 26.9964 9.75172 26.8789 9.65356 26.799C9.55769 26.7191 9.42871 26.6791 9.26664 26.6791C9.10457 26.6791 8.97445 26.7191 8.8763 26.799C8.78042 26.8789 8.73248 26.9964 8.73248 27.1516C8.73248 27.2886 8.777 27.3993 8.86602 27.4838C8.95505 27.566 9.08859 27.607 9.26664 27.607ZM9.26664 26.4394C9.41045 26.4394 9.52459 26.4018 9.60905 26.3264C9.69351 26.2511 9.73574 26.1541 9.73574 26.0354C9.73574 25.9007 9.69351 25.7991 9.60905 25.7307C9.52687 25.6622 9.41273 25.6279 9.26664 25.6279C9.12283 25.6279 9.00869 25.6622 8.92423 25.7307C8.84206 25.7991 8.80097 25.9007 8.80097 26.0354C8.80097 26.1541 8.84206 26.2511 8.92423 26.3264C9.00869 26.4018 9.12283 26.4394 9.26664 26.4394ZM10.9679 27.8193V25.7443L10.5571 25.8471V25.6416L11.0638 25.4225H11.259V27.8193H10.9679ZM11.9764 27.8193V25.4225H12.6818C12.9625 25.4225 13.1931 25.4716 13.3734 25.5697C13.5561 25.6656 13.6907 25.8037 13.7775 25.984C13.8665 26.1621 13.911 26.3767 13.911 26.6278C13.911 26.8743 13.8665 27.0866 13.7775 27.2646C13.6907 27.4427 13.5561 27.5797 13.3734 27.6755C13.1931 27.7714 12.9625 27.8193 12.6818 27.8193H11.9764ZM12.264 27.5797H12.6749C12.9078 27.5797 13.0927 27.542 13.2296 27.4667C13.3666 27.389 13.4647 27.2795 13.5241 27.1379C13.5834 26.9941 13.6131 26.8241 13.6131 26.6278C13.6131 26.4269 13.5834 26.2545 13.5241 26.1107C13.4647 25.9669 13.3666 25.8562 13.2296 25.7786C13.0927 25.701 12.9078 25.6622 12.6749 25.6622H12.264V27.5797ZM15.3473 27.8604C15.183 27.8604 15.0403 27.8307 14.9193 27.7714C14.8006 27.712 14.7059 27.631 14.6351 27.5283C14.5666 27.4256 14.5233 27.3103 14.505 27.1825H14.7858C14.8132 27.3103 14.876 27.4142 14.9741 27.494C15.0723 27.5739 15.1978 27.6139 15.3508 27.6139C15.4649 27.6139 15.5619 27.5876 15.6418 27.5351C15.724 27.4826 15.7868 27.4107 15.8301 27.3194C15.8758 27.2281 15.8986 27.1265 15.8986 27.0147C15.8986 26.8983 15.8758 26.7955 15.8301 26.7065C15.7845 26.6175 15.7217 26.549 15.6418 26.5011C15.5619 26.4508 15.4683 26.4257 15.361 26.4257C15.2309 26.4257 15.1202 26.4543 15.0289 26.5113C14.9376 26.5684 14.8691 26.6415 14.8235 26.7305H14.5461L14.7447 25.4225H16.0116V25.6724H14.9673L14.8337 26.4086C14.8908 26.3424 14.9661 26.2888 15.0597 26.2477C15.1556 26.2043 15.2663 26.1826 15.3918 26.1826C15.5105 26.1826 15.6178 26.2032 15.7137 26.2443C15.8096 26.2854 15.8918 26.3436 15.9602 26.4189C16.0287 26.4942 16.0812 26.5821 16.1177 26.6825C16.1566 26.783 16.176 26.8926 16.176 27.0113C16.176 27.1277 16.1566 27.2372 16.1177 27.34C16.0812 27.4404 16.0276 27.5306 15.9568 27.6105C15.8861 27.6881 15.7993 27.7497 15.6966 27.7954C15.5939 27.8387 15.4774 27.8604 15.3473 27.8604ZM17.8755 27.8604C17.6427 27.8604 17.4406 27.8091 17.2694 27.7063C17.1005 27.6013 16.9704 27.4564 16.8791 27.2715C16.7878 27.0843 16.7421 26.8674 16.7421 26.6209C16.7421 26.3744 16.7878 26.1587 16.8791 25.9738C16.9704 25.7866 17.1005 25.6416 17.2694 25.5389C17.4406 25.4339 17.6427 25.3814 17.8755 25.3814C18.1494 25.3814 18.372 25.4465 18.5432 25.5766C18.7144 25.7067 18.824 25.8904 18.8719 26.1278H18.5535C18.5169 25.9795 18.4428 25.8608 18.3309 25.7717C18.219 25.6804 18.0672 25.6348 17.8755 25.6348C17.7043 25.6348 17.5559 25.6747 17.4304 25.7546C17.3048 25.8322 17.2078 25.9452 17.1393 26.0936C17.0708 26.2397 17.0366 26.4155 17.0366 26.6209C17.0366 26.8264 17.0708 27.0033 17.1393 27.1516C17.2078 27.2977 17.3048 27.4107 17.4304 27.4906C17.5559 27.5682 17.7043 27.607 17.8755 27.607C18.0672 27.607 18.219 27.5637 18.3309 27.4769C18.4428 27.3879 18.5169 27.2703 18.5535 27.1242H18.8719C18.824 27.3548 18.7144 27.5351 18.5432 27.6653C18.372 27.7954 18.1494 27.8604 17.8755 27.8604Z" fill="#4D4D63" fill-opacity="0.76"/>
</svg>
