<svg width="25" height="29" viewBox="0 0 25 29" fill="none" xmlns="http://www.w3.org/2000/svg">
<rect width="24.9023" height="28.8216" fill="#FEFFFF"/>
<rect width="24.9023" height="24.282" fill="#442359"/>
<path d="M7.13219 27.8218V27.3082H5.91664V27.0856L7.08083 25.4249H7.41638V27.0548H7.77249V27.3082H7.41638V27.8218H7.13219ZM6.23508 27.0548H7.14588V25.7434L6.23508 27.0548ZM9.41749 27.8218V27.3082H8.20194V27.0856L9.36612 25.4249H9.70168V27.0548H10.0578V27.3082H9.70168V27.8218H9.41749ZM8.52038 27.0548H9.43118V25.7434L8.52038 27.0548ZM10.5797 27.8218V27.6198C10.7418 27.4919 10.8958 27.363 11.0419 27.2328C11.1903 27.1027 11.3216 26.9737 11.4357 26.8459C11.5498 26.7158 11.6389 26.5891 11.7028 26.4658C11.769 26.3426 11.8021 26.2239 11.8021 26.1097C11.8021 26.0253 11.7872 25.9477 11.7576 25.8769C11.7279 25.8039 11.68 25.7445 11.6138 25.6989C11.5498 25.6532 11.4631 25.6304 11.3535 25.6304C11.2462 25.6304 11.1572 25.6543 11.0865 25.7023C11.0157 25.7479 10.962 25.8096 10.9255 25.8872C10.8913 25.9625 10.8742 26.0458 10.8742 26.1371H10.5968C10.5991 25.9796 10.6322 25.8449 10.6961 25.7331C10.7623 25.619 10.8525 25.5322 10.9666 25.4729C11.0807 25.4135 11.2109 25.3838 11.357 25.3838C11.5008 25.3838 11.6275 25.4112 11.737 25.466C11.8466 25.5185 11.9322 25.5973 11.9938 25.7023C12.0577 25.8073 12.0897 25.9397 12.0897 26.0995C12.0897 26.2113 12.0657 26.3232 12.0178 26.435C11.9721 26.5469 11.9105 26.6565 11.8329 26.7637C11.7553 26.8687 11.6685 26.9703 11.5727 27.0685C11.4791 27.1666 11.3821 27.2591 11.2816 27.3458C11.1835 27.4326 11.091 27.5113 11.0043 27.5821H12.1719V27.8218H10.5797ZM13.5421 27.8629C13.3892 27.8629 13.2499 27.8355 13.1244 27.7807C13.0011 27.7236 12.9029 27.6392 12.8299 27.5273C12.7568 27.4155 12.718 27.2762 12.7135 27.1096H13.0045C13.0068 27.2009 13.0285 27.2853 13.0696 27.363C13.1129 27.4383 13.1746 27.4988 13.2545 27.5444C13.3344 27.5901 13.4302 27.6129 13.5421 27.6129C13.654 27.6129 13.7475 27.5912 13.8229 27.5479C13.8982 27.5045 13.9553 27.4474 13.9941 27.3766C14.0329 27.3036 14.0523 27.2226 14.0523 27.1335C14.0523 27.0217 14.0249 26.9315 13.9701 26.863C13.9176 26.7923 13.8457 26.7409 13.7544 26.709C13.6654 26.6747 13.5672 26.6576 13.4599 26.6576H13.2819V26.4145H13.4599C13.6174 26.4145 13.7407 26.378 13.8297 26.3049C13.9187 26.2319 13.9633 26.1314 13.9633 26.0036C13.9633 25.8986 13.9279 25.8107 13.8571 25.7399C13.7886 25.6692 13.6836 25.6338 13.5421 25.6338C13.4074 25.6338 13.3001 25.6726 13.2202 25.7502C13.1403 25.8278 13.0947 25.9271 13.0833 26.0481H12.7922C12.7991 25.918 12.8345 25.8027 12.8984 25.7023C12.9623 25.6018 13.049 25.5242 13.1586 25.4694C13.2682 25.4124 13.3971 25.3838 13.5455 25.3838C13.7007 25.3838 13.8309 25.4112 13.9359 25.466C14.0409 25.5208 14.1196 25.5938 14.1721 25.6852C14.2269 25.7765 14.2543 25.8769 14.2543 25.9865C14.2543 26.0687 14.2395 26.1463 14.2098 26.2193C14.1801 26.2901 14.1356 26.3529 14.0763 26.4076C14.0169 26.4624 13.9416 26.5012 13.8503 26.5241C13.9439 26.5423 14.0272 26.5777 14.1002 26.6302C14.1756 26.6827 14.2349 26.7512 14.2783 26.8356C14.3216 26.9201 14.3433 27.0194 14.3433 27.1335C14.3433 27.2637 14.3125 27.3846 14.2509 27.4965C14.1915 27.6061 14.1025 27.6951 13.9838 27.7636C13.8651 27.8298 13.7179 27.8629 13.5421 27.8629ZM15.8322 27.8629C15.6678 27.8629 15.5252 27.8332 15.4042 27.7738C15.2855 27.7145 15.1907 27.6335 15.12 27.5307C15.0515 27.428 15.0081 27.3127 14.9899 27.1849H15.2706C15.298 27.3127 15.3608 27.4166 15.459 27.4965C15.5571 27.5764 15.6827 27.6163 15.8356 27.6163C15.9497 27.6163 16.0468 27.5901 16.1267 27.5376C16.2088 27.4851 16.2716 27.4132 16.315 27.3219C16.3606 27.2306 16.3835 27.129 16.3835 27.0171C16.3835 26.9007 16.3606 26.798 16.315 26.709C16.2693 26.6199 16.2066 26.5514 16.1267 26.5035C16.0468 26.4533 15.9532 26.4282 15.8459 26.4282C15.7158 26.4282 15.6051 26.4567 15.5137 26.5138C15.4224 26.5709 15.354 26.6439 15.3083 26.7329H15.031L15.2296 25.4249H16.4965V25.6749H15.4521L15.3186 26.4111C15.3756 26.3449 15.451 26.2912 15.5446 26.2501C15.6404 26.2068 15.7512 26.1851 15.8767 26.1851C15.9954 26.1851 16.1027 26.2056 16.1986 26.2467C16.2944 26.2878 16.3766 26.346 16.4451 26.4213C16.5136 26.4967 16.5661 26.5845 16.6026 26.685C16.6414 26.7854 16.6608 26.895 16.6608 27.0137C16.6608 27.1301 16.6414 27.2397 16.6026 27.3424C16.5661 27.4428 16.5124 27.533 16.4417 27.6129C16.3709 27.6905 16.2842 27.7522 16.1814 27.7978C16.0787 27.8412 15.9623 27.8629 15.8322 27.8629ZM17.9998 27.8629C17.8492 27.8629 17.7202 27.8343 17.6129 27.7773C17.5056 27.7179 17.42 27.6392 17.3561 27.541C17.2945 27.4406 17.2568 27.331 17.2431 27.2123H17.5102C17.533 27.3401 17.5878 27.4394 17.6745 27.5102C17.7613 27.5787 17.8708 27.6129 18.0032 27.6129C18.1242 27.6129 18.2315 27.5764 18.3251 27.5033C18.4187 27.4303 18.494 27.3196 18.5511 27.1712C18.6104 27.0205 18.6435 26.8299 18.6504 26.5994C18.6504 26.5925 18.6504 26.5857 18.6504 26.5788C18.6504 26.572 18.6504 26.5651 18.6504 26.5583C18.6161 26.6291 18.5659 26.6953 18.4997 26.7569C18.4335 26.8185 18.3548 26.8676 18.2635 26.9041C18.1744 26.9406 18.074 26.9589 17.9621 26.9589C17.8275 26.9589 17.6996 26.927 17.5787 26.863C17.46 26.7991 17.3629 26.7101 17.2876 26.596C17.2146 26.4795 17.178 26.3437 17.178 26.1885C17.178 26.0538 17.2111 25.9248 17.2773 25.8016C17.3435 25.6783 17.4383 25.5779 17.5615 25.5003C17.6848 25.4226 17.8309 25.3838 17.9998 25.3838C18.171 25.3838 18.316 25.4169 18.4347 25.4831C18.5534 25.5471 18.6481 25.6338 18.7189 25.7434C18.7919 25.8507 18.8444 25.9728 18.8764 26.1097C18.9083 26.2467 18.9243 26.386 18.9243 26.5275C18.9243 26.79 18.8878 27.0217 18.8147 27.2226C18.744 27.4234 18.639 27.581 18.4997 27.6951C18.3628 27.8069 18.1961 27.8629 17.9998 27.8629ZM18.0204 26.709C18.1254 26.709 18.2201 26.685 18.3046 26.637C18.389 26.5891 18.4552 26.5241 18.5032 26.4419C18.5534 26.3597 18.5785 26.2695 18.5785 26.1714C18.5785 26.0664 18.5534 25.9739 18.5032 25.894C18.4552 25.8141 18.389 25.7514 18.3046 25.7057C18.2201 25.66 18.1254 25.6372 18.0204 25.6372C17.9154 25.6372 17.8206 25.6612 17.7362 25.7091C17.654 25.7548 17.5889 25.8176 17.541 25.8974C17.493 25.9773 17.4691 26.0698 17.4691 26.1748C17.4691 26.2821 17.493 26.3757 17.541 26.4556C17.5889 26.5355 17.654 26.5982 17.7362 26.6439C17.8206 26.6873 17.9154 26.709 18.0204 26.709Z" fill="#4D4D63" fill-opacity="0.76"/>
</svg>
