<svg width="25" height="29" viewBox="0 0 25 29" fill="none" xmlns="http://www.w3.org/2000/svg">
<rect width="24.9275" height="28.8467" fill="#FEFFFF"/>
<rect width="24.9275" height="24.3066" fill="#CC0156"/>
<path d="M7.46435 27.8841C7.25247 27.8841 7.06863 27.8373 6.91283 27.7439C6.75911 27.6483 6.6407 27.5164 6.55761 27.3481C6.47452 27.1778 6.43297 26.9804 6.43297 26.7561C6.43297 26.5318 6.47452 26.3354 6.55761 26.1672C6.6407 25.9968 6.75911 25.8649 6.91283 25.7715C7.06863 25.6759 7.25247 25.6281 7.46435 25.6281C7.71363 25.6281 7.91616 25.6873 8.07196 25.8057C8.22776 25.9241 8.32747 26.0914 8.37109 26.3074H8.08131C8.04807 26.1724 7.98056 26.0644 7.87877 25.9833C7.77698 25.9003 7.63884 25.8587 7.46435 25.8587C7.30855 25.8587 7.17353 25.8951 7.05928 25.9678C6.94503 26.0384 6.85674 26.1412 6.79442 26.2762C6.7321 26.4092 6.70094 26.5691 6.70094 26.7561C6.70094 26.9431 6.7321 27.104 6.79442 27.2391C6.85674 27.372 6.94503 27.4748 7.05928 27.5475C7.17353 27.6182 7.30855 27.6535 7.46435 27.6535C7.63884 27.6535 7.77698 27.614 7.87877 27.5351C7.98056 27.4541 8.04807 27.3471 8.08131 27.2141H8.37109C8.32747 27.424 8.22776 27.5881 8.07196 27.7065C7.91616 27.8249 7.71363 27.8841 7.46435 27.8841ZM9.8848 27.8841C9.67292 27.8841 9.48908 27.8373 9.33328 27.7439C9.17956 27.6483 9.06116 27.5164 8.97807 27.3481C8.89497 27.1778 8.85343 26.9804 8.85343 26.7561C8.85343 26.5318 8.89497 26.3354 8.97807 26.1672C9.06116 25.9968 9.17956 25.8649 9.33328 25.7715C9.48908 25.6759 9.67292 25.6281 9.8848 25.6281C10.1341 25.6281 10.3366 25.6873 10.4924 25.8057C10.6482 25.9241 10.7479 26.0914 10.7915 26.3074H10.5018C10.4685 26.1724 10.401 26.0644 10.2992 25.9833C10.1974 25.9003 10.0593 25.8587 9.8848 25.8587C9.72901 25.8587 9.59398 25.8951 9.47973 25.9678C9.36548 26.0384 9.2772 26.1412 9.21488 26.2762C9.15256 26.4092 9.1214 26.5691 9.1214 26.7561C9.1214 26.9431 9.15256 27.104 9.21488 27.2391C9.2772 27.372 9.36548 27.4748 9.47973 27.5475C9.59398 27.6182 9.72901 27.6535 9.8848 27.6535C10.0593 27.6535 10.1974 27.614 10.2992 27.5351C10.401 27.4541 10.4685 27.3471 10.5018 27.2141H10.7915C10.7479 27.424 10.6482 27.5881 10.4924 27.7065C10.3366 27.8249 10.1341 27.8841 9.8848 27.8841ZM12.1931 27.8841C12.002 27.8841 11.8368 27.8373 11.6976 27.7439C11.5605 27.6483 11.4556 27.5164 11.3829 27.3481C11.3102 27.1778 11.2739 26.9804 11.2739 26.7561C11.2739 26.5318 11.3102 26.3354 11.3829 26.1672C11.4556 25.9968 11.5605 25.8649 11.6976 25.7715C11.8368 25.6759 12.002 25.6281 12.1931 25.6281C12.3842 25.6281 12.5473 25.6759 12.6823 25.7715C12.8194 25.8649 12.9243 25.9968 12.997 26.1672C13.0697 26.3354 13.1061 26.5318 13.1061 26.7561C13.1061 26.9804 13.0697 27.1778 12.997 27.3481C12.9243 27.5164 12.8194 27.6483 12.6823 27.7439C12.5473 27.8373 12.3842 27.8841 12.1931 27.8841ZM12.19 27.6535C12.3146 27.6535 12.4257 27.6182 12.5234 27.5475C12.621 27.4748 12.6979 27.372 12.754 27.2391C12.81 27.104 12.8381 26.9431 12.8381 26.7561C12.8381 26.5691 12.81 26.4092 12.754 26.2762C12.6979 26.1412 12.621 26.0384 12.5234 25.9678C12.4257 25.8971 12.3146 25.8618 12.19 25.8618C12.0653 25.8618 11.9532 25.8971 11.8534 25.9678C11.7558 26.0384 11.679 26.1412 11.6229 26.2762C11.5689 26.4092 11.5419 26.5691 11.5419 26.7561C11.5419 26.9431 11.5689 27.104 11.6229 27.2391C11.679 27.372 11.7558 27.4748 11.8534 27.5475C11.9532 27.6182 12.0653 27.6535 12.19 27.6535ZM13.9149 27.8467V25.9584L13.541 26.0519V25.8649L14.0022 25.6655H14.1798V27.8467H13.9149ZM15.568 27.8841C15.4184 27.8841 15.2886 27.8571 15.1785 27.8031C15.0705 27.749 14.9843 27.6753 14.9199 27.5818C14.8576 27.4883 14.8181 27.3834 14.8015 27.2671H15.057C15.0819 27.3834 15.1391 27.478 15.2284 27.5507C15.3177 27.6234 15.432 27.6597 15.5711 27.6597C15.675 27.6597 15.7633 27.6358 15.836 27.5881C15.9108 27.5403 15.9679 27.4748 16.0074 27.3918C16.0489 27.3087 16.0697 27.2162 16.0697 27.1144C16.0697 27.0085 16.0489 26.915 16.0074 26.834C15.9658 26.753 15.9087 26.6907 15.836 26.647C15.7633 26.6013 15.6781 26.5785 15.5805 26.5785C15.4621 26.5785 15.3613 26.6045 15.2782 26.6564C15.1951 26.7083 15.1328 26.7748 15.0913 26.8558H14.8389L15.0196 25.6655H16.1725V25.893H15.2221L15.1006 26.5629C15.1526 26.5027 15.2211 26.4539 15.3063 26.4165C15.3935 26.377 15.4943 26.3573 15.6085 26.3573C15.7165 26.3573 15.8142 26.376 15.9014 26.4133C15.9887 26.4507 16.0634 26.5037 16.1258 26.5723C16.1881 26.6408 16.2359 26.7208 16.2691 26.8122C16.3044 26.9036 16.3221 27.0033 16.3221 27.1113C16.3221 27.2173 16.3044 27.317 16.2691 27.4104C16.2359 27.5018 16.187 27.5839 16.1227 27.6566C16.0583 27.7272 15.9793 27.7833 15.8858 27.8249C15.7924 27.8643 15.6864 27.8841 15.568 27.8841ZM17.7035 27.8841C17.5457 27.8841 17.4127 27.855 17.3047 27.7968C17.1967 27.7366 17.1105 27.6576 17.0461 27.56C16.9817 27.4603 16.9339 27.3481 16.9027 27.2235C16.8737 27.0989 16.8591 26.9721 16.8591 26.8433C16.8591 26.6024 16.8923 26.3915 16.9588 26.2108C17.0253 26.028 17.1208 25.8857 17.2455 25.7839C17.3722 25.6801 17.5238 25.6281 17.7004 25.6281C17.8375 25.6281 17.9549 25.6551 18.0525 25.7091C18.1522 25.7611 18.2312 25.8317 18.2893 25.921C18.3475 26.0104 18.3828 26.1101 18.3953 26.2202H18.1522C18.1315 26.1038 18.0806 26.0145 17.9995 25.9522C17.9206 25.8878 17.8199 25.8556 17.6973 25.8556C17.5893 25.8556 17.4916 25.8899 17.4044 25.9584C17.3172 26.0249 17.2476 26.1277 17.1956 26.2669C17.1458 26.404 17.1167 26.5795 17.1084 26.7935C17.1084 26.7956 17.1084 26.7987 17.1084 26.8028C17.1084 26.807 17.1084 26.8111 17.1084 26.8153C17.1416 26.7509 17.1873 26.6907 17.2455 26.6346C17.3057 26.5785 17.3774 26.5338 17.4605 26.5006C17.5436 26.4674 17.636 26.4507 17.7378 26.4507C17.8604 26.4507 17.9757 26.4798 18.0837 26.538C18.1917 26.5961 18.2789 26.6782 18.3454 26.7841C18.414 26.888 18.4482 27.0106 18.4482 27.1518C18.4482 27.2744 18.4181 27.3918 18.3579 27.5039C18.2997 27.6161 18.2145 27.7075 18.1024 27.7781C17.9902 27.8488 17.8572 27.8841 17.7035 27.8841ZM17.6848 27.6535C17.7804 27.6535 17.8656 27.6327 17.9403 27.5912C18.0172 27.5475 18.0764 27.4894 18.118 27.4167C18.1616 27.3419 18.1834 27.2578 18.1834 27.1643C18.1834 27.0667 18.1616 26.9815 18.118 26.9088C18.0764 26.8361 18.0172 26.78 17.9403 26.7405C17.8656 26.699 17.7804 26.6782 17.6848 26.6782C17.5893 26.6782 17.5031 26.7 17.4262 26.7436C17.3494 26.7873 17.2881 26.8465 17.2424 26.9212C17.1987 26.994 17.1769 27.076 17.1769 27.1674C17.1769 27.2609 17.1987 27.345 17.2424 27.4198C17.2881 27.4925 17.3494 27.5496 17.4262 27.5912C17.5031 27.6327 17.5893 27.6535 17.6848 27.6535Z" fill="#4D4D63" fill-opacity="0.76"/>
</svg>
