<svg width="25" height="29" viewBox="0 0 25 29" fill="none" xmlns="http://www.w3.org/2000/svg">
<rect width="24.9275" height="28.8467" fill="#FEFFFF"/>
<rect width="24.9275" height="24.3066" fill="#8E0555"/>
<path d="M6.67051 27.8878C6.51513 27.8878 6.37575 27.8592 6.25236 27.8021C6.12896 27.7427 6.03071 27.6616 5.95759 27.5588C5.88447 27.4537 5.84791 27.3325 5.84791 27.1954C5.84791 27.0972 5.86733 27.0058 5.90617 26.9212C5.94502 26.8367 5.99872 26.7636 6.06727 26.7019C6.1381 26.6379 6.21922 26.5933 6.31062 26.5682C6.18266 26.5225 6.08326 26.4517 6.01243 26.3557C5.94388 26.2597 5.9096 26.1558 5.9096 26.0438C5.9096 25.925 5.94045 25.8176 6.00215 25.7216C6.06384 25.6256 6.15067 25.5491 6.26264 25.492C6.37689 25.4348 6.51285 25.4063 6.67051 25.4063C6.83047 25.4063 6.96643 25.4348 7.07839 25.492C7.19264 25.5491 7.27947 25.6256 7.33888 25.7216C7.40058 25.8176 7.43143 25.925 7.43143 26.0438C7.43143 26.1558 7.39601 26.2597 7.32517 26.3557C7.25662 26.4517 7.15837 26.5225 7.03041 26.5682C7.12409 26.5933 7.20521 26.6379 7.27376 26.7019C7.3446 26.7636 7.39829 26.8367 7.43486 26.9212C7.4737 27.0058 7.49312 27.0972 7.49312 27.1954C7.49312 27.3325 7.45656 27.4537 7.38344 27.5588C7.31261 27.6616 7.21435 27.7427 7.08867 27.8021C6.96528 27.8592 6.8259 27.8878 6.67051 27.8878ZM6.67051 27.6342C6.85103 27.6342 6.98471 27.593 7.07154 27.5108C7.16065 27.4262 7.20521 27.3154 7.20521 27.1783C7.20521 27.0229 7.15608 26.9052 7.05783 26.8253C6.96186 26.7453 6.83275 26.7053 6.67051 26.7053C6.50828 26.7053 6.37803 26.7453 6.27978 26.8253C6.1838 26.9052 6.13582 27.0229 6.13582 27.1783C6.13582 27.3154 6.18038 27.4262 6.26949 27.5108C6.35861 27.593 6.49228 27.6342 6.67051 27.6342ZM6.67051 26.4654C6.81447 26.4654 6.92872 26.4277 7.01327 26.3523C7.09781 26.2769 7.14009 26.1798 7.14009 26.0609C7.14009 25.9261 7.09781 25.8244 7.01327 25.7559C6.93101 25.6873 6.81676 25.6531 6.67051 25.6531C6.52656 25.6531 6.41231 25.6873 6.32776 25.7559C6.2455 25.8244 6.20437 25.9261 6.20437 26.0609C6.20437 26.1798 6.2455 26.2769 6.32776 26.3523C6.41231 26.4277 6.52656 26.4654 6.67051 26.4654ZM8.17657 27.8467V25.4474H9.66069V25.6839H8.46448V26.5202H9.55787V26.7533H8.46448V27.6102H9.66069V27.8467H8.17657ZM11.2388 27.8878C11.0286 27.8878 10.8469 27.8364 10.6939 27.7336C10.543 27.6285 10.4276 27.4834 10.3477 27.2983C10.2677 27.1109 10.2277 26.8938 10.2277 26.647C10.2277 26.4003 10.2677 26.1843 10.3477 25.9992C10.4276 25.8119 10.543 25.6668 10.6939 25.5639C10.8469 25.4588 11.0286 25.4063 11.2388 25.4063C11.4491 25.4063 11.6284 25.4588 11.777 25.5639C11.9278 25.6668 12.0432 25.8119 12.1231 25.9992C12.2031 26.1843 12.2431 26.4003 12.2431 26.647C12.2431 26.8938 12.2031 27.1109 12.1231 27.2983C12.0432 27.4834 11.9278 27.6285 11.777 27.7336C11.6284 27.8364 11.4491 27.8878 11.2388 27.8878ZM11.2354 27.6342C11.3725 27.6342 11.4948 27.5953 11.6021 27.5176C11.7095 27.4377 11.7941 27.3246 11.8558 27.1783C11.9175 27.0298 11.9483 26.8527 11.9483 26.647C11.9483 26.4414 11.9175 26.2654 11.8558 26.1192C11.7941 25.9707 11.7095 25.8576 11.6021 25.7799C11.4948 25.7022 11.3725 25.6633 11.2354 25.6633C11.0983 25.6633 10.9749 25.7022 10.8652 25.7799C10.7578 25.8576 10.6733 25.9707 10.6116 26.1192C10.5522 26.2654 10.5225 26.4414 10.5225 26.647C10.5225 26.8527 10.5522 27.0298 10.6116 27.1783C10.6733 27.3246 10.7578 27.4377 10.8652 27.5176C10.9749 27.5953 11.0983 27.6342 11.2354 27.6342ZM13.6778 27.8878C13.5133 27.8878 13.3705 27.8581 13.2494 27.7987C13.1306 27.7393 13.0358 27.6582 12.9649 27.5553C12.8964 27.4525 12.853 27.3371 12.8347 27.2092H13.1157C13.1431 27.3371 13.206 27.4411 13.3042 27.5211C13.4025 27.601 13.5282 27.641 13.6813 27.641C13.7955 27.641 13.8926 27.6147 13.9726 27.5622C14.0549 27.5096 14.1177 27.4377 14.1611 27.3463C14.2068 27.2549 14.2297 27.1532 14.2297 27.0412C14.2297 26.9247 14.2068 26.8218 14.1611 26.7327C14.1154 26.6436 14.0526 26.5751 13.9726 26.5271C13.8926 26.4768 13.799 26.4517 13.6916 26.4517C13.5613 26.4517 13.4505 26.4802 13.3591 26.5374C13.2677 26.5945 13.1991 26.6676 13.1534 26.7567H12.8758L13.0746 25.4474H14.3428V25.6976H13.2974L13.1637 26.4345C13.2208 26.3683 13.2962 26.3146 13.3899 26.2734C13.4859 26.23 13.5967 26.2083 13.7224 26.2083C13.8412 26.2083 13.9486 26.2289 14.0446 26.27C14.1406 26.3111 14.2228 26.3694 14.2914 26.4448C14.3599 26.5202 14.4125 26.6082 14.449 26.7087C14.4879 26.8093 14.5073 26.919 14.5073 27.0378C14.5073 27.1543 14.4879 27.264 14.449 27.3668C14.4125 27.4674 14.3588 27.5576 14.2879 27.6376C14.2171 27.7153 14.1303 27.777 14.0275 27.8227C13.9246 27.8661 13.8081 27.8878 13.6778 27.8878ZM15.9755 27.8878C15.811 27.8878 15.6682 27.8581 15.5471 27.7987C15.4282 27.7393 15.3334 27.6582 15.2626 27.5553C15.194 27.4525 15.1506 27.3371 15.1323 27.2092H15.4134C15.4408 27.3371 15.5036 27.4411 15.6019 27.5211C15.7002 27.601 15.8258 27.641 15.9789 27.641C16.0932 27.641 16.1903 27.6147 16.2703 27.5622C16.3525 27.5096 16.4154 27.4377 16.4588 27.3463C16.5045 27.2549 16.5273 27.1532 16.5273 27.0412C16.5273 26.9247 16.5045 26.8218 16.4588 26.7327C16.4131 26.6436 16.3502 26.5751 16.2703 26.5271C16.1903 26.4768 16.0966 26.4517 15.9892 26.4517C15.859 26.4517 15.7481 26.4802 15.6567 26.5374C15.5653 26.5945 15.4968 26.6676 15.4511 26.7567H15.1735L15.3723 25.4474H16.6404V25.6976H15.595L15.4614 26.4345C15.5185 26.3683 15.5939 26.3146 15.6876 26.2734C15.7836 26.23 15.8944 26.2083 16.0201 26.2083C16.1389 26.2083 16.2463 26.2289 16.3422 26.27C16.4382 26.3111 16.5205 26.3694 16.589 26.4448C16.6576 26.5202 16.7101 26.6082 16.7467 26.7087C16.7855 26.8093 16.805 26.919 16.805 27.0378C16.805 27.1543 16.7855 27.264 16.7467 27.3668C16.7101 27.4674 16.6564 27.5576 16.5856 27.6376C16.5148 27.7153 16.4279 27.777 16.3251 27.8227C16.2223 27.8661 16.1057 27.8878 15.9755 27.8878ZM18.2732 27.8878C18.1086 27.8878 17.9658 27.8581 17.8447 27.7987C17.7259 27.7393 17.6311 27.6582 17.5602 27.5553C17.4917 27.4525 17.4483 27.3371 17.43 27.2092H17.711C17.7385 27.3371 17.8013 27.4411 17.8996 27.5211C17.9978 27.601 18.1235 27.641 18.2766 27.641C18.3908 27.641 18.4879 27.6147 18.5679 27.5622C18.6502 27.5096 18.713 27.4377 18.7564 27.3463C18.8021 27.2549 18.825 27.1532 18.825 27.0412C18.825 26.9247 18.8021 26.8218 18.7564 26.7327C18.7107 26.6436 18.6479 26.5751 18.5679 26.5271C18.4879 26.4768 18.3943 26.4517 18.2869 26.4517C18.1566 26.4517 18.0458 26.4802 17.9544 26.5374C17.863 26.5945 17.7944 26.6676 17.7487 26.7567H17.4711L17.6699 25.4474H18.9381V25.6976H17.8927L17.759 26.4345C17.8161 26.3683 17.8916 26.3146 17.9852 26.2734C18.0812 26.23 18.192 26.2083 18.3177 26.2083C18.4365 26.2083 18.5439 26.2289 18.6399 26.27C18.7359 26.3111 18.8181 26.3694 18.8867 26.4448C18.9552 26.5202 19.0078 26.6082 19.0443 26.7087C19.0832 26.8093 19.1026 26.919 19.1026 27.0378C19.1026 27.1543 19.0832 27.264 19.0443 27.3668C19.0078 27.4674 18.9541 27.5576 18.8833 27.6376C18.8124 27.7153 18.7256 27.777 18.6228 27.8227C18.5199 27.8661 18.4034 27.8878 18.2732 27.8878Z" fill="#4D4D63" fill-opacity="0.76"/>
</svg>
