<svg width="25" height="29" viewBox="0 0 25 29" fill="none" xmlns="http://www.w3.org/2000/svg">
<rect width="24.9275" height="28.8467" fill="#FEFFFF"/>
<rect width="24.9275" height="24.3066" fill="#EDA1D4"/>
<path d="M6.30234 27.8467V25.4474H7.78646V25.6839H6.59025V26.5202H7.68363V26.7533H6.59025V27.6102H7.78646V27.8467H6.30234ZM8.44602 27.8467V25.4474H9.15209C9.43315 25.4474 9.66394 25.4965 9.84445 25.5948C10.0273 25.6908 10.1621 25.829 10.2489 26.0095C10.338 26.1878 10.3826 26.4025 10.3826 26.6539C10.3826 26.9007 10.338 27.1132 10.2489 27.2914C10.1621 27.4697 10.0273 27.6068 9.84445 27.7027C9.66394 27.7987 9.43315 27.8467 9.15209 27.8467H8.44602ZM8.73393 27.6068H9.14524C9.37831 27.6068 9.5634 27.569 9.7005 27.4936C9.8376 27.416 9.93585 27.3063 9.99527 27.1646C10.0547 27.0206 10.0844 26.8504 10.0844 26.6539C10.0844 26.4528 10.0547 26.2803 9.99527 26.1363C9.93585 25.9924 9.8376 25.8816 9.7005 25.8039C9.5634 25.7262 9.37831 25.6873 9.14524 25.6873H8.73393V27.6068ZM10.6865 27.8467L11.5708 25.4474H11.8759L12.7567 27.8467H12.4517L11.7216 25.8073L10.9881 27.8467H10.6865ZM11.091 27.2297L11.1732 26.9967H12.2597L12.342 27.2297H11.091ZM13.4826 27.8467V25.7696L13.0713 25.8724V25.6668L13.5786 25.4474H13.774V27.8467H13.4826ZM14.4921 27.8467V25.4474H15.1982C15.4793 25.4474 15.7101 25.4965 15.8906 25.5948C16.0734 25.6908 16.2082 25.829 16.295 26.0095C16.3841 26.1878 16.4287 26.4025 16.4287 26.6539C16.4287 26.9007 16.3841 27.1132 16.295 27.2914C16.2082 27.4697 16.0734 27.6068 15.8906 27.7027C15.7101 27.7987 15.4793 27.8467 15.1982 27.8467H14.4921ZM14.7801 27.6068H15.1914C15.4244 27.6068 15.6095 27.569 15.7466 27.4936C15.8837 27.416 15.982 27.3063 16.0414 27.1646C16.1008 27.0206 16.1305 26.8504 16.1305 26.6539C16.1305 26.4528 16.1008 26.2803 16.0414 26.1363C15.982 25.9924 15.8837 25.8816 15.7466 25.8039C15.6095 25.7262 15.4244 25.6873 15.1914 25.6873H14.7801V27.6068ZM18.1441 27.8467V27.3325H16.9273V27.1098L18.0927 25.4474H18.4286V27.0789H18.785V27.3325H18.4286V27.8467H18.1441ZM17.2461 27.0789H18.1578V25.7662L17.2461 27.0789Z" fill="#4D4D63" fill-opacity="0.76"/>
</svg>
