<svg width="25" height="29" viewBox="0 0 25 29" fill="none" xmlns="http://www.w3.org/2000/svg">
<rect width="24.9275" height="28.6857" fill="#FEFFFF"/>
<rect width="24.9275" height="24.1456" fill="#F3BAD9"/>
<path d="M5.87055 27.6855V25.2863H7.33068V25.5228H6.15846V26.3659H7.15587V26.599H6.15846V27.6855H5.87055ZM8.65767 27.7267C8.50457 27.7267 8.36519 27.6993 8.23951 27.6444C8.11612 27.5873 8.01786 27.5027 7.94474 27.3908C7.87162 27.2788 7.83278 27.1394 7.82821 26.9726H8.11955C8.12183 27.064 8.14354 27.1486 8.18467 27.2263C8.22808 27.3017 8.28978 27.3622 8.36976 27.4079C8.44973 27.4536 8.5457 27.4765 8.65767 27.4765C8.76964 27.4765 8.86332 27.4548 8.93873 27.4113C9.01413 27.3679 9.07126 27.3108 9.1101 27.24C9.14895 27.1668 9.16837 27.0857 9.16837 26.9966C9.16837 26.8846 9.14095 26.7944 9.08611 26.7258C9.03356 26.655 8.96158 26.6036 8.87018 26.5716C8.78106 26.5373 8.6828 26.5202 8.57541 26.5202H8.39718V26.2768H8.57541C8.73307 26.2768 8.85647 26.2403 8.94558 26.1671C9.0347 26.094 9.07926 25.9935 9.07926 25.8655C9.07926 25.7604 9.04384 25.6724 8.973 25.6016C8.90445 25.5308 8.79934 25.4954 8.65767 25.4954C8.52285 25.4954 8.41546 25.5342 8.33548 25.6119C8.2555 25.6896 8.2098 25.789 8.19838 25.9101H7.90704C7.91389 25.7798 7.94931 25.6644 8.01329 25.5639C8.07727 25.4634 8.1641 25.3857 8.27378 25.3308C8.38347 25.2737 8.51257 25.2451 8.6611 25.2451C8.81648 25.2451 8.94672 25.2726 9.05184 25.3274C9.15695 25.3822 9.23578 25.4554 9.28834 25.5468C9.34318 25.6382 9.3706 25.7387 9.3706 25.8484C9.3706 25.9306 9.35574 26.0083 9.32604 26.0815C9.29633 26.1523 9.25178 26.2151 9.19236 26.27C9.13295 26.3248 9.05755 26.3637 8.96615 26.3865C9.05983 26.4048 9.14324 26.4402 9.21636 26.4928C9.29176 26.5453 9.35117 26.6139 9.39459 26.6984C9.438 26.783 9.45971 26.8824 9.45971 26.9966C9.45971 27.1269 9.42886 27.248 9.36717 27.3599C9.30776 27.4696 9.21864 27.5587 9.09982 27.6273C8.981 27.6935 8.83362 27.7267 8.65767 27.7267ZM10.1412 27.6855V25.2863H10.9843C11.1534 25.2863 11.2928 25.3137 11.4025 25.3685C11.5145 25.4211 11.5979 25.4942 11.6527 25.5879C11.7076 25.6793 11.735 25.7821 11.735 25.8964C11.735 26.0198 11.7076 26.1226 11.6527 26.2049C11.6002 26.2871 11.5305 26.35 11.4436 26.3934C11.3591 26.4368 11.2688 26.4631 11.1729 26.4722L11.2208 26.4379C11.3237 26.4402 11.4185 26.4676 11.5053 26.5202C11.5922 26.5727 11.6607 26.6436 11.711 26.7327C11.7635 26.8218 11.7898 26.9212 11.7898 27.0309C11.7898 27.152 11.7601 27.2628 11.7007 27.3634C11.6413 27.4616 11.5533 27.5404 11.4368 27.5999C11.3225 27.657 11.1809 27.6855 11.0118 27.6855H10.1412ZM10.4291 27.4456H10.9809C11.1432 27.4456 11.2688 27.4079 11.358 27.3325C11.4494 27.2548 11.4951 27.1474 11.4951 27.0103C11.4951 26.8755 11.4482 26.7681 11.3545 26.6881C11.2631 26.6059 11.1363 26.5647 10.9741 26.5647H10.4291V27.4456ZM10.4291 26.3351H10.9638C11.1192 26.3351 11.2368 26.2985 11.3168 26.2254C11.3991 26.1523 11.4402 26.0529 11.4402 25.9272C11.4402 25.8061 11.3991 25.709 11.3168 25.6359C11.2368 25.5628 11.1157 25.5262 10.9535 25.5262H10.4291V26.3351ZM12.2176 27.6855L13.102 25.2863H13.407L14.2879 27.6855H13.9828L13.2528 25.6462L12.5193 27.6855H12.2176ZM12.6221 27.0686L12.7044 26.8355H13.7909L13.8731 27.0686H12.6221ZM14.8536 27.6855V25.2863H15.5597C15.8408 25.2863 16.0716 25.3354 16.2521 25.4337C16.4349 25.5296 16.5697 25.6679 16.6565 25.8484C16.7456 26.0266 16.7902 26.2414 16.7902 26.4928C16.7902 26.7395 16.7456 26.9521 16.6565 27.1303C16.5697 27.3085 16.4349 27.4456 16.2521 27.5416C16.0716 27.6376 15.8408 27.6855 15.5597 27.6855H14.8536ZM15.1415 27.4456H15.5529C15.7859 27.4456 15.971 27.4079 16.1081 27.3325C16.2452 27.2548 16.3435 27.1451 16.4029 27.0035C16.4623 26.8595 16.492 26.6893 16.492 26.4928C16.492 26.2917 16.4623 26.1192 16.4029 25.9752C16.3435 25.8312 16.2452 25.7204 16.1081 25.6427C15.971 25.565 15.7859 25.5262 15.5529 25.5262H15.1415V27.4456ZM18.2005 27.7267C18.0497 27.7267 17.9206 27.6981 17.8132 27.641C17.7058 27.5816 17.6201 27.5027 17.5562 27.4045C17.4945 27.3039 17.4568 27.1943 17.4431 27.0754H17.7104C17.7333 27.2034 17.7881 27.3028 17.8749 27.3736C17.9618 27.4422 18.0714 27.4765 18.204 27.4765C18.3251 27.4765 18.4325 27.4399 18.5262 27.3668C18.6198 27.2937 18.6953 27.1828 18.7524 27.0343C18.8118 26.8835 18.8449 26.6927 18.8518 26.4619C18.8518 26.4551 18.8518 26.4482 18.8518 26.4414C18.8518 26.4345 18.8518 26.4276 18.8518 26.4208C18.8175 26.4916 18.7672 26.5579 18.701 26.6196C18.6347 26.6813 18.5559 26.7304 18.4645 26.767C18.3753 26.8035 18.2748 26.8218 18.1628 26.8218C18.028 26.8218 17.9001 26.7898 17.779 26.7258C17.6601 26.6619 17.563 26.5727 17.4876 26.4585C17.4145 26.342 17.3779 26.206 17.3779 26.0506C17.3779 25.9158 17.4111 25.7867 17.4773 25.6633C17.5436 25.5399 17.6384 25.4394 17.7618 25.3617C17.8852 25.284 18.0315 25.2451 18.2005 25.2451C18.3719 25.2451 18.517 25.2783 18.6358 25.3445C18.7547 25.4085 18.8495 25.4954 18.9203 25.605C18.9934 25.7124 19.046 25.8347 19.078 25.9718C19.11 26.1089 19.126 26.2483 19.126 26.3899C19.126 26.6527 19.0894 26.8846 19.0163 27.0857C18.9455 27.2868 18.8404 27.4445 18.701 27.5587C18.5639 27.6707 18.3971 27.7267 18.2005 27.7267ZM18.2211 26.5716C18.3262 26.5716 18.421 26.5476 18.5056 26.4996C18.5901 26.4516 18.6564 26.3865 18.7044 26.3042C18.7547 26.222 18.7798 26.1317 18.7798 26.0335C18.7798 25.9284 18.7547 25.8358 18.7044 25.7558C18.6564 25.6759 18.5901 25.613 18.5056 25.5673C18.421 25.5216 18.3262 25.4988 18.2211 25.4988C18.116 25.4988 18.0212 25.5228 17.9366 25.5708C17.8544 25.6165 17.7892 25.6793 17.7413 25.7593C17.6933 25.8392 17.6693 25.9318 17.6693 26.0369C17.6693 26.1443 17.6933 26.238 17.7413 26.318C17.7892 26.3979 17.8544 26.4608 17.9366 26.5065C18.0212 26.5499 18.116 26.5716 18.2211 26.5716Z" fill="#4D4D63" fill-opacity="0.76"/>
</svg>
