<svg width="25" height="29" viewBox="0 0 25 29" fill="none" xmlns="http://www.w3.org/2000/svg">
<rect width="24.9023" height="28.4332" fill="#FEFFFF"/>
<rect width="24.9023" height="23.8936" fill="#EEC4DD"/>
<path d="M5.63379 27.4331V25.0363H7.11642V25.2725H5.92142V26.108H7.0137V26.3408H5.92142V27.1968H7.11642V27.4331H5.63379ZM7.77531 27.4331V25.0363H9.25793V25.2725H8.06293V26.108H9.15521V26.3408H8.06293V27.1968H9.25793V27.4331H7.77531ZM10.9577 27.4742C10.7249 27.4742 10.5229 27.4228 10.3517 27.3201C10.1828 27.2151 10.0526 27.0702 9.96134 26.8853C9.87003 26.6981 9.82438 26.4812 9.82438 26.2347C9.82438 25.9881 9.87003 25.7724 9.96134 25.5875C10.0526 25.4003 10.1828 25.2554 10.3517 25.1527C10.5229 25.0477 10.7249 24.9952 10.9577 24.9952C11.2317 24.9952 11.4542 25.0602 11.6254 25.1903C11.7966 25.3205 11.9062 25.5042 11.9541 25.7416H11.6357C11.5992 25.5932 11.525 25.4745 11.4131 25.3855C11.3013 25.2942 11.1495 25.2485 10.9577 25.2485C10.7865 25.2485 10.6382 25.2885 10.5126 25.3684C10.3871 25.446 10.29 25.559 10.2216 25.7074C10.1531 25.8535 10.1188 26.0292 10.1188 26.2347C10.1188 26.4401 10.1531 26.617 10.2216 26.7654C10.29 26.9115 10.3871 27.0245 10.5126 27.1044C10.6382 27.182 10.7865 27.2208 10.9577 27.2208C11.1495 27.2208 11.3013 27.1774 11.4131 27.0907C11.525 27.0017 11.5992 26.8841 11.6357 26.738H11.9541C11.9062 26.9686 11.7966 27.1489 11.6254 27.279C11.4542 27.4091 11.2317 27.4742 10.9577 27.4742ZM13.6621 27.4331V26.9195H12.4465V26.6969L13.6107 25.0363H13.9463V26.6661H14.3024V26.9195H13.9463V27.4331H13.6621ZM12.765 26.6661H13.6758V25.3547L12.765 26.6661ZM14.8619 27.4331V25.0363H15.5673C15.8481 25.0363 16.0786 25.0853 16.259 25.1835C16.4416 25.2794 16.5762 25.4175 16.663 25.5978C16.752 25.7759 16.7965 25.9904 16.7965 26.2415C16.7965 26.4881 16.752 26.7004 16.663 26.8784C16.5762 27.0565 16.4416 27.1934 16.259 27.2893C16.0786 27.3852 15.8481 27.4331 15.5673 27.4331H14.8619ZM15.1496 27.1934H15.5604C15.7933 27.1934 15.9782 27.1558 16.1151 27.0804C16.2521 27.0028 16.3503 26.8932 16.4096 26.7517C16.469 26.6079 16.4986 26.4378 16.4986 26.2415C16.4986 26.0407 16.469 25.8683 16.4096 25.7245C16.3503 25.5807 16.2521 25.47 16.1151 25.3924C15.9782 25.3147 15.7933 25.2759 15.5604 25.2759H15.1496V27.1934ZM17.4248 27.4331V25.0363H18.1301C18.4109 25.0363 18.6415 25.0853 18.8218 25.1835C19.0044 25.2794 19.1391 25.4175 19.2258 25.5978C19.3149 25.7759 19.3594 25.9904 19.3594 26.2415C19.3594 26.4881 19.3149 26.7004 19.2258 26.8784C19.1391 27.0565 19.0044 27.1934 18.8218 27.2893C18.6415 27.3852 18.4109 27.4331 18.1301 27.4331H17.4248ZM17.7124 27.1934H18.1233C18.3561 27.1934 18.541 27.1558 18.678 27.0804C18.8149 27.0028 18.9131 26.8932 18.9724 26.7517C19.0318 26.6079 19.0615 26.4378 19.0615 26.2415C19.0615 26.0407 19.0318 25.8683 18.9724 25.7245C18.9131 25.5807 18.8149 25.47 18.678 25.3924C18.541 25.3147 18.3561 25.2759 18.1233 25.2759H17.7124V27.1934Z" fill="#4D4D63" fill-opacity="0.76"/>
</svg>
