<svg width="25" height="29" viewBox="0 0 25 29" fill="none" xmlns="http://www.w3.org/2000/svg">
<rect width="24.9023" height="28.8216" fill="#FEFFFF"/>
<rect width="24.9023" height="24.282" fill="#9E92C6"/>
<path d="M6.61344 27.8629C6.46278 27.8629 6.33381 27.8343 6.22652 27.7773C6.11923 27.7179 6.03363 27.6392 5.96971 27.541C5.90808 27.4406 5.87042 27.331 5.85672 27.2123H6.1238C6.14662 27.3401 6.20141 27.4394 6.28815 27.5102C6.3749 27.5787 6.48447 27.6129 6.61686 27.6129C6.73785 27.6129 6.84514 27.5764 6.93873 27.5033C7.03232 27.4303 7.10765 27.3196 7.16472 27.1712C7.22407 27.0205 7.25716 26.8299 7.26401 26.5994C7.26401 26.5925 7.26401 26.5857 7.26401 26.5788C7.26401 26.572 7.26401 26.5651 7.26401 26.5583C7.22977 26.6291 7.17955 26.6953 7.11335 26.7569C7.04716 26.8185 6.9684 26.8676 6.87709 26.9041C6.78807 26.9406 6.68763 26.9589 6.57577 26.9589C6.44109 26.9589 6.31326 26.927 6.19228 26.863C6.07358 26.7991 5.97656 26.7101 5.90123 26.596C5.82819 26.4795 5.79166 26.3437 5.79166 26.1885C5.79166 26.0538 5.82476 25.9248 5.89096 25.8016C5.95716 25.6783 6.05189 25.5779 6.17516 25.5003C6.29843 25.4226 6.44452 25.3838 6.61344 25.3838C6.78464 25.3838 6.9296 25.4169 7.0483 25.4831C7.167 25.5471 7.26173 25.6338 7.33249 25.7434C7.40554 25.8507 7.45804 25.9728 7.49 26.1097C7.52196 26.2467 7.53794 26.386 7.53794 26.5275C7.53794 26.79 7.50142 27.0217 7.42837 27.2226C7.3576 27.4234 7.2526 27.581 7.11335 27.6951C6.97639 27.8069 6.80975 27.8629 6.61344 27.8629ZM6.63398 26.709C6.73899 26.709 6.83372 26.685 6.91818 26.637C7.00264 26.5891 7.06884 26.5241 7.11678 26.4419C7.167 26.3597 7.19211 26.2695 7.19211 26.1714C7.19211 26.0664 7.167 25.9739 7.11678 25.894C7.06884 25.8141 7.00264 25.7514 6.91818 25.7057C6.83372 25.66 6.73899 25.6372 6.63398 25.6372C6.52898 25.6372 6.43425 25.6612 6.34979 25.7091C6.26761 25.7548 6.20255 25.8176 6.15461 25.8974C6.10668 25.9773 6.08271 26.0698 6.08271 26.1748C6.08271 26.2821 6.10668 26.3757 6.15461 26.4556C6.20255 26.5355 6.26761 26.5982 6.34979 26.6439C6.43425 26.6873 6.52898 26.709 6.63398 26.709ZM8.18827 27.8218V25.4249H9.67089V25.6612H8.47589V26.4967H9.56817V26.7295H8.47589V27.5855H9.67089V27.8218H8.18827ZM11.1105 27.8629C10.9598 27.8629 10.8308 27.8343 10.7236 27.7773C10.6163 27.7179 10.5307 27.6392 10.4667 27.541C10.4051 27.4406 10.3675 27.331 10.3538 27.2123H10.6208C10.6437 27.3401 10.6984 27.4394 10.7852 27.5102C10.8719 27.5787 10.9815 27.6129 11.1139 27.6129C11.2349 27.6129 11.3422 27.5764 11.4358 27.5033C11.5294 27.4303 11.6047 27.3196 11.6618 27.1712C11.7211 27.0205 11.7542 26.8299 11.761 26.5994C11.761 26.5925 11.761 26.5857 11.761 26.5788C11.761 26.572 11.761 26.5651 11.761 26.5583C11.7268 26.6291 11.6766 26.6953 11.6104 26.7569C11.5442 26.8185 11.4654 26.8676 11.3741 26.9041C11.2851 26.9406 11.1847 26.9589 11.0728 26.9589C10.9381 26.9589 10.8103 26.927 10.6893 26.863C10.5706 26.7991 10.4736 26.7101 10.3983 26.596C10.3252 26.4795 10.2887 26.3437 10.2887 26.1885C10.2887 26.0538 10.3218 25.9248 10.388 25.8016C10.4542 25.6783 10.5489 25.5779 10.6722 25.5003C10.7955 25.4226 10.9416 25.3838 11.1105 25.3838C11.2817 25.3838 11.4266 25.4169 11.5453 25.4831C11.664 25.5471 11.7588 25.6338 11.8295 25.7434C11.9026 25.8507 11.9551 25.9728 11.987 26.1097C12.019 26.2467 12.035 26.386 12.035 26.5275C12.035 26.79 11.9985 27.0217 11.9254 27.2226C11.8546 27.4234 11.7496 27.581 11.6104 27.6951C11.4734 27.8069 11.3068 27.8629 11.1105 27.8629ZM11.131 26.709C11.236 26.709 11.3308 26.685 11.4152 26.637C11.4997 26.5891 11.5659 26.5241 11.6138 26.4419C11.664 26.3597 11.6891 26.2695 11.6891 26.1714C11.6891 26.0664 11.664 25.9739 11.6138 25.894C11.5659 25.8141 11.4997 25.7514 11.4152 25.7057C11.3308 25.66 11.236 25.6372 11.131 25.6372C11.026 25.6372 10.9313 25.6612 10.8468 25.7091C10.7646 25.7548 10.6996 25.8176 10.6516 25.8974C10.6037 25.9773 10.5797 26.0698 10.5797 26.1748C10.5797 26.2821 10.6037 26.3757 10.6516 26.4556C10.6996 26.5355 10.7646 26.5982 10.8468 26.6439C10.9313 26.6873 11.026 26.709 11.131 26.709ZM12.5908 27.8218V27.6198C12.7529 27.4919 12.907 27.363 13.053 27.2328C13.2014 27.1027 13.3327 26.9737 13.4468 26.8459C13.5609 26.7158 13.65 26.5891 13.7139 26.4658C13.7801 26.3426 13.8132 26.2239 13.8132 26.1097C13.8132 26.0253 13.7984 25.9477 13.7687 25.8769C13.739 25.8039 13.6911 25.7445 13.6249 25.6989C13.5609 25.6532 13.4742 25.6304 13.3646 25.6304C13.2573 25.6304 13.1683 25.6543 13.0976 25.7023C13.0268 25.7479 12.9732 25.8096 12.9366 25.8872C12.9024 25.9625 12.8853 26.0458 12.8853 26.1371H12.6079C12.6102 25.9796 12.6433 25.8449 12.7072 25.7331C12.7734 25.619 12.8636 25.5322 12.9777 25.4729C13.0919 25.4135 13.222 25.3838 13.3681 25.3838C13.5119 25.3838 13.6386 25.4112 13.7481 25.466C13.8577 25.5185 13.9433 25.5973 14.0049 25.7023C14.0689 25.8073 14.1008 25.9397 14.1008 26.0995C14.1008 26.2113 14.0768 26.3232 14.0289 26.435C13.9833 26.5469 13.9216 26.6565 13.844 26.7637C13.7664 26.8687 13.6797 26.9703 13.5838 27.0685C13.4902 27.1666 13.3932 27.2591 13.2927 27.3458C13.1946 27.4326 13.1021 27.5113 13.0154 27.5821H14.183V27.8218H12.5908ZM15.8142 27.8629C15.5814 27.8629 15.3794 27.8115 15.2082 27.7088C15.0393 27.6038 14.9091 27.4588 14.8178 27.2739C14.7265 27.0867 14.6809 26.8699 14.6809 26.6234C14.6809 26.3768 14.7265 26.1611 14.8178 25.9762C14.9091 25.789 15.0393 25.6441 15.2082 25.5413C15.3794 25.4363 15.5814 25.3838 15.8142 25.3838C16.0882 25.3838 16.3107 25.4489 16.4819 25.579C16.6531 25.7091 16.7627 25.8929 16.8106 26.1303H16.4922C16.4557 25.9819 16.3815 25.8632 16.2696 25.7742C16.1578 25.6829 16.006 25.6372 15.8142 25.6372C15.643 25.6372 15.4947 25.6772 15.3691 25.7571C15.2436 25.8347 15.1465 25.9477 15.0781 26.096C15.0096 26.2421 14.9753 26.4179 14.9753 26.6234C14.9753 26.8288 15.0096 27.0057 15.0781 27.1541C15.1465 27.3002 15.2436 27.4132 15.3691 27.4931C15.4947 27.5707 15.643 27.6095 15.8142 27.6095C16.006 27.6095 16.1578 27.5661 16.2696 27.4794C16.3815 27.3903 16.4557 27.2728 16.4922 27.1267H16.8106C16.7627 27.3572 16.6531 27.5376 16.4819 27.6677C16.3107 27.7978 16.0882 27.8629 15.8142 27.8629ZM18.2926 27.8629C18.1191 27.8629 17.973 27.8309 17.8543 27.767C17.7356 27.7008 17.6409 27.6141 17.5701 27.5068C17.4993 27.3972 17.4468 27.2739 17.4126 27.137C17.3806 27 17.3646 26.8608 17.3646 26.7192C17.3646 26.4544 17.4012 26.2227 17.4742 26.0241C17.5473 25.8233 17.6523 25.6669 17.7892 25.555C17.9285 25.4409 18.0951 25.3838 18.2891 25.3838C18.4398 25.3838 18.5688 25.4135 18.6761 25.4729C18.7856 25.5299 18.8724 25.6075 18.9363 25.7057C19.0002 25.8039 19.039 25.9134 19.0527 26.0344H18.7856C18.7628 25.9066 18.7069 25.8084 18.6179 25.7399C18.5311 25.6692 18.4204 25.6338 18.2857 25.6338C18.167 25.6338 18.0597 25.6715 17.9639 25.7468C17.868 25.8198 17.7915 25.9328 17.7344 26.0858C17.6797 26.2364 17.6477 26.4293 17.6386 26.6644C17.6386 26.6667 17.6386 26.6701 17.6386 26.6747C17.6386 26.6793 17.6386 26.6838 17.6386 26.6884C17.6751 26.6176 17.7253 26.5514 17.7892 26.4898C17.8554 26.4282 17.9342 26.3791 18.0255 26.3426C18.1168 26.3061 18.2184 26.2878 18.3302 26.2878C18.4649 26.2878 18.5916 26.3198 18.7103 26.3837C18.829 26.4476 18.9249 26.5378 18.9979 26.6542C19.0733 26.7683 19.1109 26.903 19.1109 27.0582C19.1109 27.1929 19.0778 27.3219 19.0116 27.4451C18.9477 27.5684 18.8541 27.6688 18.7309 27.7464C18.6076 27.8241 18.4615 27.8629 18.2926 27.8629ZM18.272 27.6095C18.377 27.6095 18.4706 27.5867 18.5528 27.541C18.6373 27.4931 18.7023 27.4292 18.748 27.3493C18.7959 27.2671 18.8199 27.1746 18.8199 27.0719C18.8199 26.9646 18.7959 26.871 18.748 26.7911C18.7023 26.7112 18.6373 26.6496 18.5528 26.6062C18.4706 26.5606 18.377 26.5378 18.272 26.5378C18.167 26.5378 18.0723 26.5617 17.9878 26.6097C17.9034 26.6576 17.836 26.7227 17.7858 26.8048C17.7379 26.8847 17.7139 26.9749 17.7139 27.0753C17.7139 27.1781 17.7379 27.2705 17.7858 27.3527C17.836 27.4326 17.9034 27.4953 17.9878 27.541C18.0723 27.5867 18.167 27.6095 18.272 27.6095Z" fill="#4D4D63" fill-opacity="0.76"/>
</svg>
