<svg width="25" height="29" viewBox="0 0 25 29" fill="none" xmlns="http://www.w3.org/2000/svg">
<rect width="24.9023" height="28.8194" fill="#FEFFFF"/>
<rect width="24.9023" height="24.2798" fill="#4F2170"/>
<path d="M7.74243 27.8193V27.3057H6.52689V27.0832L7.69107 25.4225H8.02663V27.0523H8.38273V27.3057H8.02663V27.8193H7.74243ZM6.84533 27.0523H7.75613V25.7409L6.84533 27.0523ZM8.9423 27.8193V25.4225H10.401V25.6587H9.22992V26.5011H10.2263V26.7339H9.22992V27.8193H8.9423ZM10.9425 27.8193V27.6173C11.1046 27.4895 11.2587 27.3605 11.4047 27.2304C11.5531 27.1003 11.6844 26.9713 11.7985 26.8435C11.9126 26.7134 12.0017 26.5867 12.0656 26.4634C12.1318 26.3401 12.1649 26.2214 12.1649 26.1073C12.1649 26.0228 12.15 25.9452 12.1204 25.8745C12.0907 25.8014 12.0428 25.7421 11.9766 25.6964C11.9126 25.6508 11.8259 25.6279 11.7163 25.6279C11.609 25.6279 11.52 25.6519 11.4493 25.6998C11.3785 25.7455 11.3248 25.8071 11.2883 25.8847C11.2541 25.9601 11.237 26.0434 11.237 26.1347H10.9596C10.9619 25.9772 10.995 25.8425 11.0589 25.7307C11.1251 25.6165 11.2153 25.5298 11.3294 25.4704C11.4436 25.4111 11.5737 25.3814 11.7198 25.3814C11.8636 25.3814 11.9903 25.4088 12.0998 25.4636C12.2094 25.5161 12.295 25.5948 12.3566 25.6998C12.4206 25.8048 12.4525 25.9372 12.4525 26.097C12.4525 26.2089 12.4285 26.3207 12.3806 26.4326C12.3349 26.5444 12.2733 26.654 12.1957 26.7613C12.1181 26.8663 12.0313 26.9679 11.9355 27.066C11.8419 27.1642 11.7449 27.2566 11.6444 27.3434C11.5463 27.4301 11.4538 27.5089 11.3671 27.5797H12.5347V27.8193H10.9425ZM13.4221 27.8193V25.7443L13.0112 25.8471V25.6416L13.518 25.4225H13.7132V27.8193H13.4221ZM14.6463 27.8193L15.5811 25.669H14.2662V25.4225H15.8755V25.6382L14.951 27.8193H14.6463ZM17.3359 27.8604C17.1259 27.8604 16.9444 27.8091 16.7915 27.7063C16.6408 27.6013 16.5256 27.4564 16.4457 27.2715C16.3658 27.0843 16.3258 26.8674 16.3258 26.6209C16.3258 26.3744 16.3658 26.1587 16.4457 25.9738C16.5256 25.7866 16.6408 25.6416 16.7915 25.5389C16.9444 25.4339 17.1259 25.3814 17.3359 25.3814C17.5459 25.3814 17.7251 25.4339 17.8735 25.5389C18.0242 25.6416 18.1394 25.7866 18.2193 25.9738C18.2992 26.1587 18.3392 26.3744 18.3392 26.6209C18.3392 26.8674 18.2992 27.0843 18.2193 27.2715C18.1394 27.4564 18.0242 27.6013 17.8735 27.7063C17.7251 27.8091 17.5459 27.8604 17.3359 27.8604ZM17.3325 27.607C17.4695 27.607 17.5916 27.5682 17.6989 27.4906C17.8062 27.4107 17.8906 27.2977 17.9523 27.1516C18.0139 27.0033 18.0447 26.8264 18.0447 26.6209C18.0447 26.4155 18.0139 26.2397 17.9523 26.0936C17.8906 25.9452 17.8062 25.8322 17.6989 25.7546C17.5916 25.677 17.4695 25.6382 17.3325 25.6382C17.1955 25.6382 17.0723 25.677 16.9627 25.7546C16.8554 25.8322 16.771 25.9452 16.7093 26.0936C16.65 26.2397 16.6203 26.4155 16.6203 26.6209C16.6203 26.8264 16.65 27.0033 16.7093 27.1516C16.771 27.2977 16.8554 27.4107 16.9627 27.4906C17.0723 27.5682 17.1955 27.607 17.3325 27.607Z" fill="#4D4D63" fill-opacity="0.76"/>
</svg>
