<svg width="25" height="29" viewBox="0 0 25 29" fill="none" xmlns="http://www.w3.org/2000/svg">
<rect width="24.9023" height="28.8194" fill="#FEFFFF"/>
<rect width="24.9023" height="24.2798" fill="#E6C4D6"/>
<path d="M5.63045 27.8193V25.4225H7.11307V25.6587H5.91807V26.4942H7.01035V26.7271H5.91807V27.5831H7.11307V27.8193H5.63045ZM8.63141 27.8604C8.45792 27.8604 8.31183 27.8285 8.19313 27.7646C8.07443 27.6984 7.97969 27.6116 7.90893 27.5043C7.83816 27.3948 7.78566 27.2715 7.75142 27.1345C7.71946 26.9976 7.70348 26.8583 7.70348 26.7168C7.70348 26.452 7.74001 26.2203 7.81305 26.0217C7.8861 25.8208 7.99111 25.6645 8.12807 25.5526C8.26731 25.4385 8.43395 25.3814 8.62798 25.3814C8.77864 25.3814 8.90762 25.4111 9.0149 25.4704C9.12447 25.5275 9.21122 25.6051 9.27513 25.7033C9.33905 25.8014 9.37786 25.911 9.39155 26.032H9.12447C9.10165 25.9041 9.04572 25.806 8.95669 25.7375C8.86995 25.6667 8.75924 25.6314 8.62456 25.6314C8.50586 25.6314 8.39857 25.669 8.3027 25.7443C8.20682 25.8174 8.13035 25.9304 8.07328 26.0833C8.0185 26.234 7.98654 26.4269 7.97741 26.662C7.97741 26.6643 7.97741 26.6677 7.97741 26.6723C7.97741 26.6768 7.97741 26.6814 7.97741 26.686C8.01393 26.6152 8.06415 26.549 8.12807 26.4874C8.19427 26.4257 8.27302 26.3767 8.36433 26.3401C8.45564 26.3036 8.55722 26.2854 8.66907 26.2854C8.80375 26.2854 8.93044 26.3173 9.04914 26.3812C9.16785 26.4451 9.26372 26.5353 9.33677 26.6517C9.4121 26.7659 9.44976 26.9005 9.44976 27.0558C9.44976 27.1904 9.41666 27.3194 9.35046 27.4427C9.28655 27.566 9.19296 27.6664 9.06969 27.744C8.94642 27.8216 8.80033 27.8604 8.63141 27.8604ZM8.61086 27.607C8.71587 27.607 8.80946 27.5842 8.89164 27.5386C8.9761 27.4906 9.04115 27.4267 9.08681 27.3468C9.13475 27.2646 9.15871 27.1722 9.15871 27.0695C9.15871 26.9622 9.13475 26.8686 9.08681 26.7887C9.04115 26.7088 8.9761 26.6472 8.89164 26.6038C8.80946 26.5581 8.71587 26.5353 8.61086 26.5353C8.50586 26.5353 8.41113 26.5593 8.32667 26.6072C8.2422 26.6552 8.17486 26.7202 8.12465 26.8024C8.07671 26.8823 8.05274 26.9724 8.05274 27.0729C8.05274 27.1756 8.07671 27.2681 8.12465 27.3502C8.17486 27.4301 8.2422 27.4929 8.32667 27.5386C8.41113 27.5842 8.50586 27.607 8.61086 27.607ZM11.1684 27.8604C10.9356 27.8604 10.7335 27.8091 10.5623 27.7063C10.3934 27.6013 10.2633 27.4564 10.172 27.2715C10.0807 27.0843 10.035 26.8674 10.035 26.6209C10.035 26.3744 10.0807 26.1587 10.172 25.9738C10.2633 25.7866 10.3934 25.6416 10.5623 25.5389C10.7335 25.4339 10.9356 25.3814 11.1684 25.3814C11.4423 25.3814 11.6649 25.4465 11.8361 25.5766C12.0073 25.7067 12.1169 25.8904 12.1648 26.1278H11.8464C11.8098 25.9795 11.7357 25.8608 11.6238 25.7717C11.512 25.6804 11.3602 25.6348 11.1684 25.6348C10.9972 25.6348 10.8488 25.6747 10.7233 25.7546C10.5977 25.8322 10.5007 25.9452 10.4322 26.0936C10.3637 26.2397 10.3295 26.4155 10.3295 26.6209C10.3295 26.8264 10.3637 27.0033 10.4322 27.1516C10.5007 27.2977 10.5977 27.4107 10.7233 27.4906C10.8488 27.5682 10.9972 27.607 11.1684 27.607C11.3602 27.607 11.512 27.5637 11.6238 27.4769C11.7357 27.3879 11.8098 27.2703 11.8464 27.1242H12.1648C12.1169 27.3548 12.0073 27.5351 11.8361 27.6653C11.6649 27.7954 11.4423 27.8604 11.1684 27.8604ZM13.8727 27.8193V27.3057H12.6572V27.0832L13.8214 25.4225H14.1569V27.0523H14.513V27.3057H14.1569V27.8193H13.8727ZM12.9756 27.0523H13.8864V25.7409L12.9756 27.0523ZM15.0726 27.8193V25.4225H15.778C16.0587 25.4225 16.2893 25.4716 16.4696 25.5697C16.6522 25.6656 16.7869 25.8037 16.8737 25.984C16.9627 26.1621 17.0072 26.3767 17.0072 26.6278C17.0072 26.8743 16.9627 27.0866 16.8737 27.2646C16.7869 27.4427 16.6522 27.5797 16.4696 27.6755C16.2893 27.7714 16.0587 27.8193 15.778 27.8193H15.0726ZM15.3602 27.5797H15.7711C16.0039 27.5797 16.1888 27.542 16.3258 27.4667C16.4628 27.389 16.5609 27.2795 16.6203 27.1379C16.6796 26.9941 16.7093 26.8241 16.7093 26.6278C16.7093 26.4269 16.6796 26.2545 16.6203 26.1107C16.5609 25.9669 16.4628 25.8562 16.3258 25.7786C16.1888 25.701 16.0039 25.6622 15.7711 25.6622H15.3602V27.5797ZM18.4949 27.8604C18.3214 27.8604 18.1753 27.8285 18.0566 27.7646C17.9379 27.6984 17.8432 27.6116 17.7724 27.5043C17.7016 27.3948 17.6491 27.2715 17.6149 27.1345C17.5829 26.9976 17.5669 26.8583 17.5669 26.7168C17.5669 26.452 17.6035 26.2203 17.6765 26.0217C17.7496 25.8208 17.8546 25.6645 17.9915 25.5526C18.1308 25.4385 18.2974 25.3814 18.4914 25.3814C18.6421 25.3814 18.7711 25.4111 18.8784 25.4704C18.9879 25.5275 19.0747 25.6051 19.1386 25.7033C19.2025 25.8014 19.2413 25.911 19.255 26.032H18.9879C18.9651 25.9041 18.9092 25.806 18.8202 25.7375C18.7334 25.6667 18.6227 25.6314 18.488 25.6314C18.3693 25.6314 18.262 25.669 18.1662 25.7443C18.0703 25.8174 17.9938 25.9304 17.9367 26.0833C17.882 26.234 17.85 26.4269 17.8409 26.662C17.8409 26.6643 17.8409 26.6677 17.8409 26.6723C17.8409 26.6768 17.8409 26.6814 17.8409 26.686C17.8774 26.6152 17.9276 26.549 17.9915 26.4874C18.0577 26.4257 18.1365 26.3767 18.2278 26.3401C18.3191 26.3036 18.4207 26.2854 18.5325 26.2854C18.6672 26.2854 18.7939 26.3173 18.9126 26.3812C19.0313 26.4451 19.1272 26.5353 19.2002 26.6517C19.2756 26.7659 19.3132 26.9005 19.3132 27.0558C19.3132 27.1904 19.2801 27.3194 19.2139 27.4427C19.15 27.566 19.0564 27.6664 18.9332 27.744C18.8099 27.8216 18.6638 27.8604 18.4949 27.8604ZM18.4743 27.607C18.5793 27.607 18.6729 27.5842 18.7551 27.5386C18.8396 27.4906 18.9046 27.4267 18.9503 27.3468C18.9982 27.2646 19.0222 27.1722 19.0222 27.0695C19.0222 26.9622 18.9982 26.8686 18.9503 26.7887C18.9046 26.7088 18.8396 26.6472 18.7551 26.6038C18.6729 26.5581 18.5793 26.5353 18.4743 26.5353C18.3693 26.5353 18.2746 26.5593 18.1901 26.6072C18.1057 26.6552 18.0383 26.7202 17.9881 26.8024C17.9402 26.8823 17.9162 26.9724 17.9162 27.0729C17.9162 27.1756 17.9402 27.2681 17.9881 27.3502C18.0383 27.4301 18.1057 27.4929 18.1901 27.5386C18.2746 27.5842 18.3693 27.607 18.4743 27.607Z" fill="#4D4D63" fill-opacity="0.76"/>
</svg>
