<svg width="25" height="29" viewBox="0 0 25 29" fill="none" xmlns="http://www.w3.org/2000/svg">
<rect width="24.9275" height="28.8467" fill="#FEFFFF"/>
<rect width="24.9275" height="24.3066" fill="#F9AFD4"/>
<path d="M6.0195 27.8467V25.4474H7.47963V25.6839H6.30741V26.5271H7.30482V26.7602H6.30741V27.8467H6.0195ZM8.84089 27.8878C8.69008 27.8878 8.56098 27.8592 8.45358 27.8021C8.34619 27.7427 8.2605 27.6639 8.19652 27.5656C8.13482 27.4651 8.09712 27.3554 8.08341 27.2366H8.35076C8.37361 27.3645 8.42845 27.4639 8.51528 27.5348C8.60211 27.6033 8.71179 27.6376 8.84432 27.6376C8.96543 27.6376 9.07282 27.601 9.16651 27.5279C9.2602 27.4548 9.3356 27.344 9.39273 27.1954C9.45214 27.0446 9.48527 26.8538 9.49213 26.623C9.49213 26.6162 9.49213 26.6093 9.49213 26.6025C9.49213 26.5956 9.49213 26.5888 9.49213 26.5819C9.45785 26.6528 9.40758 26.719 9.34132 26.7807C9.27505 26.8424 9.19622 26.8915 9.10482 26.9281C9.0157 26.9647 8.91516 26.9829 8.80319 26.9829C8.66838 26.9829 8.54041 26.951 8.41931 26.887C8.30049 26.823 8.20337 26.7339 8.12797 26.6196C8.05485 26.5031 8.01829 26.3671 8.01829 26.2117C8.01829 26.0769 8.05142 25.9478 8.11768 25.8244C8.18395 25.701 8.27878 25.6005 8.40217 25.5228C8.52556 25.4451 8.6718 25.4063 8.84089 25.4063C9.01227 25.4063 9.15737 25.4394 9.27619 25.5057C9.39501 25.5697 9.48984 25.6565 9.56068 25.7662C9.6338 25.8736 9.68635 25.9958 9.71834 26.1329C9.75033 26.27 9.76633 26.4094 9.76633 26.5511C9.76633 26.8138 9.72977 27.0458 9.65665 27.2469C9.58581 27.4479 9.4807 27.6056 9.34132 27.7199C9.20421 27.8318 9.03741 27.8878 8.84089 27.8878ZM8.86146 26.7327C8.96657 26.7327 9.0614 26.7087 9.14595 26.6608C9.23049 26.6128 9.29676 26.5476 9.34474 26.4654C9.39501 26.3831 9.42015 26.2929 9.42015 26.1946C9.42015 26.0895 9.39501 25.997 9.34474 25.917C9.29676 25.837 9.23049 25.7742 9.14595 25.7285C9.0614 25.6828 8.96657 25.6599 8.86146 25.6599C8.75635 25.6599 8.66152 25.6839 8.57697 25.7319C8.49471 25.7776 8.42959 25.8404 8.38161 25.9204C8.33362 26.0004 8.30963 26.0929 8.30963 26.198C8.30963 26.3054 8.33362 26.3991 8.38161 26.4791C8.42959 26.5591 8.49471 26.6219 8.57697 26.6676C8.66152 26.711 8.75635 26.7327 8.86146 26.7327ZM10.0991 27.8467L10.9834 25.4474H11.2884L12.1693 27.8467H11.8642L11.1342 25.8073L10.4007 27.8467H10.0991ZM10.5035 27.2297L10.5858 26.9967H11.6723L11.7546 27.2297H10.5035ZM12.7351 27.8467V25.4474H14.1952V25.6839H13.023V26.5271H14.0204V26.7602H13.023V27.8467H12.7351ZM14.775 27.8467V25.4474H15.481C15.7621 25.4474 15.9929 25.4965 16.1734 25.5948C16.3562 25.6908 16.491 25.829 16.5779 26.0095C16.667 26.1878 16.7115 26.4025 16.7115 26.6539C16.7115 26.9007 16.667 27.1132 16.5779 27.2914C16.491 27.4697 16.3562 27.6068 16.1734 27.7027C15.9929 27.7987 15.7621 27.8467 15.481 27.8467H14.775ZM15.0629 27.6068H15.4742C15.7073 27.6068 15.8924 27.569 16.0295 27.4936C16.1666 27.416 16.2648 27.3063 16.3242 27.1646C16.3836 27.0206 16.4133 26.8504 16.4133 26.6539C16.4133 26.4528 16.3836 26.2803 16.3242 26.1363C16.2648 25.9924 16.1666 25.8816 16.0295 25.8039C15.8924 25.7262 15.7073 25.6873 15.4742 25.6873H15.0629V27.6068ZM18.4269 27.8467V27.3325H17.2102V27.1098L18.3755 25.4474H18.7114V27.0789H19.0679V27.3325H18.7114V27.8467H18.4269ZM17.5289 27.0789H18.4406V25.7662L17.5289 27.0789Z" fill="#4D4D63" fill-opacity="0.76"/>
</svg>
