<svg width="25" height="29" viewBox="0 0 25 29" fill="none" xmlns="http://www.w3.org/2000/svg">
<rect width="24.9275" height="28.8467" fill="#FEFFFF"/>
<rect width="24.9275" height="24.3066" fill="#ED50AF"/>
<path d="M5.85381 27.8467V25.4474H7.33793V25.6839H6.14172V26.5202H7.23511V26.7533H6.14172V27.6102H7.33793V27.8467H5.85381ZM7.99749 27.8467V25.4474H8.70357C8.98462 25.4474 9.21541 25.4965 9.39593 25.5948C9.57873 25.6908 9.71355 25.829 9.80038 26.0095C9.88949 26.1878 9.93405 26.4025 9.93405 26.6539C9.93405 26.9007 9.88949 27.1132 9.80038 27.2914C9.71355 27.4697 9.57873 27.6068 9.39593 27.7027C9.21541 27.7987 8.98462 27.8467 8.70357 27.8467H7.99749ZM8.28541 27.6068H8.69671C8.92978 27.6068 9.11487 27.569 9.25197 27.4936C9.38907 27.416 9.48733 27.3063 9.54674 27.1646C9.60615 27.0206 9.63586 26.8504 9.63586 26.6539C9.63586 26.4528 9.60615 26.2803 9.54674 26.1363C9.48733 25.9924 9.38907 25.8816 9.25197 25.8039C9.11487 25.7262 8.92978 25.6873 8.69671 25.6873H8.28541V27.6068ZM11.3718 27.8878C11.2073 27.8878 11.0645 27.8581 10.9434 27.7987C10.8246 27.7393 10.7297 27.6582 10.6589 27.5553C10.5903 27.4525 10.5469 27.3371 10.5286 27.2092H10.8097C10.8371 27.3371 10.9 27.4411 10.9982 27.5211C11.0965 27.601 11.2222 27.641 11.3752 27.641C11.4895 27.641 11.5866 27.6147 11.6666 27.5622C11.7489 27.5096 11.8117 27.4377 11.8551 27.3463C11.9008 27.2549 11.9237 27.1532 11.9237 27.0412C11.9237 26.9247 11.9008 26.8218 11.8551 26.7327C11.8094 26.6436 11.7466 26.5751 11.6666 26.5271C11.5866 26.4768 11.4929 26.4517 11.3855 26.4517C11.2553 26.4517 11.1445 26.4802 11.0531 26.5374C10.9617 26.5945 10.8931 26.6676 10.8474 26.7567H10.5698L10.7686 25.4474H12.0368V25.6976H10.9914L10.8577 26.4345C10.9148 26.3683 10.9902 26.3146 11.0839 26.2734C11.1799 26.23 11.2907 26.2083 11.4164 26.2083C11.5352 26.2083 11.6426 26.2289 11.7386 26.27C11.8345 26.3111 11.9168 26.3694 11.9854 26.4448C12.0539 26.5202 12.1065 26.6082 12.143 26.7087C12.1819 26.8093 12.2013 26.919 12.2013 27.0378C12.2013 27.1543 12.1819 27.264 12.143 27.3668C12.1065 27.4674 12.0528 27.5576 11.9819 27.6376C11.9111 27.7153 11.8243 27.777 11.7214 27.8227C11.6186 27.8661 11.5021 27.8878 11.3718 27.8878ZM13.7792 27.8878C13.5689 27.8878 13.3873 27.8364 13.2342 27.7336C13.0834 27.6285 12.968 27.4834 12.888 27.2983C12.808 27.1109 12.768 26.8938 12.768 26.647C12.768 26.4003 12.808 26.1843 12.888 25.9992C12.968 25.8119 13.0834 25.6668 13.2342 25.5639C13.3873 25.4588 13.5689 25.4063 13.7792 25.4063C13.9894 25.4063 14.1688 25.4588 14.3173 25.5639C14.4681 25.6668 14.5835 25.8119 14.6635 25.9992C14.7434 26.1843 14.7834 26.4003 14.7834 26.647C14.7834 26.8938 14.7434 27.1109 14.6635 27.2983C14.5835 27.4834 14.4681 27.6285 14.3173 27.7336C14.1688 27.8364 13.9894 27.8878 13.7792 27.8878ZM13.7757 27.6342C13.9128 27.6342 14.0351 27.5953 14.1425 27.5176C14.2499 27.4377 14.3344 27.3246 14.3961 27.1783C14.4578 27.0298 14.4887 26.8527 14.4887 26.647C14.4887 26.4414 14.4578 26.2654 14.3961 26.1192C14.3344 25.9707 14.2499 25.8576 14.1425 25.7799C14.0351 25.7022 13.9128 25.6633 13.7757 25.6633C13.6386 25.6633 13.5152 25.7022 13.4056 25.7799C13.2982 25.8576 13.2136 25.9707 13.1519 26.1192C13.0925 26.2654 13.0628 26.4414 13.0628 26.647C13.0628 26.8527 13.0925 27.0298 13.1519 27.1783C13.2136 27.3246 13.2982 27.4377 13.4056 27.5176C13.5152 27.5953 13.6386 27.6342 13.7757 27.6342ZM15.1178 27.8467L16.0021 25.4474H16.3072L17.188 27.8467H16.883L16.1529 25.8073L15.4194 27.8467H15.1178ZM15.5222 27.2297L15.6045 26.9967H16.691L16.7733 27.2297H15.5222ZM17.7538 27.8467V25.4474H19.2139V25.6839H18.0417V26.5271H19.0391V26.7602H18.0417V27.8467H17.7538Z" fill="#4D4D63" fill-opacity="0.76"/>
</svg>
