<svg width="25" height="29" viewBox="0 0 25 29" fill="none" xmlns="http://www.w3.org/2000/svg">
<rect width="24.9275" height="28.8467" fill="#FEFFFF"/>
<rect width="24.9275" height="24.3066" fill="#6E223F"/>
<path d="M7.11746 27.8878C6.9438 27.8878 6.79756 27.8558 6.67874 27.7918C6.55991 27.7256 6.46509 27.6387 6.39425 27.5313C6.32341 27.4217 6.27086 27.2983 6.23658 27.1612C6.20459 27.0241 6.1886 26.8847 6.1886 26.743C6.1886 26.478 6.22516 26.246 6.29828 26.0472C6.3714 25.8461 6.47651 25.6896 6.61361 25.5777C6.753 25.4634 6.91981 25.4063 7.11403 25.4063C7.26484 25.4063 7.39395 25.436 7.50134 25.4954C7.61103 25.5525 7.69786 25.6302 7.76184 25.7285C7.82582 25.8267 7.86466 25.9364 7.87837 26.0575H7.61103C7.58818 25.9295 7.53219 25.8313 7.44308 25.7627C7.35625 25.6919 7.24542 25.6565 7.11061 25.6565C6.99178 25.6565 6.88439 25.6942 6.78842 25.7696C6.69245 25.8427 6.6159 25.9558 6.55877 26.1089C6.50393 26.2597 6.47194 26.4528 6.4628 26.6882C6.4628 26.6905 6.4628 26.6939 6.4628 26.6985C6.4628 26.703 6.4628 26.7076 6.4628 26.7122C6.49936 26.6413 6.54963 26.5751 6.61361 26.5134C6.67988 26.4517 6.75871 26.4025 6.85011 26.366C6.94151 26.3294 7.0432 26.3111 7.15516 26.3111C7.28998 26.3111 7.4168 26.3431 7.53562 26.4071C7.65444 26.4711 7.75041 26.5614 7.82353 26.6779C7.89894 26.7921 7.93664 26.927 7.93664 27.0823C7.93664 27.2172 7.90351 27.3463 7.83724 27.4697C7.77326 27.593 7.67958 27.6936 7.55618 27.7713C7.43279 27.849 7.28655 27.8878 7.11746 27.8878ZM7.09689 27.6342C7.20201 27.6342 7.29569 27.6113 7.37795 27.5656C7.4625 27.5176 7.52762 27.4537 7.57332 27.3737C7.62131 27.2914 7.6453 27.1989 7.6453 27.096C7.6453 26.9887 7.62131 26.895 7.57332 26.815C7.52762 26.735 7.4625 26.6733 7.37795 26.6299C7.29569 26.5842 7.20201 26.5614 7.09689 26.5614C6.99178 26.5614 6.89696 26.5853 6.81241 26.6333C6.72786 26.6813 6.66046 26.7464 6.61018 26.8287C6.5622 26.9087 6.53821 26.9989 6.53821 27.0995C6.53821 27.2023 6.5622 27.2948 6.61018 27.3771C6.66046 27.4571 6.72786 27.5199 6.81241 27.5656C6.89696 27.6113 6.99178 27.6342 7.09689 27.6342ZM8.61505 27.8467V25.4474H10.0992V25.6839H8.90297V26.5202H9.99635V26.7533H8.90297V27.6102H10.0992V27.8467H8.61505ZM10.721 27.8467V27.6445C10.8833 27.5165 11.0375 27.3874 11.1837 27.2571C11.3323 27.1269 11.4637 26.9978 11.5779 26.8698C11.6922 26.7396 11.7813 26.6128 11.8453 26.4894C11.9115 26.366 11.9447 26.2472 11.9447 26.1329C11.9447 26.0484 11.9298 25.9707 11.9001 25.8998C11.8704 25.8267 11.8224 25.7673 11.7561 25.7216C11.6922 25.6759 11.6053 25.6531 11.4957 25.6531C11.3883 25.6531 11.2991 25.677 11.2283 25.725C11.1575 25.7707 11.1038 25.8324 11.0672 25.9101C11.0329 25.9855 11.0158 26.0689 11.0158 26.1603H10.7382C10.7405 26.0027 10.7736 25.8678 10.8376 25.7559C10.9038 25.6416 10.9941 25.5548 11.1083 25.4954C11.2226 25.436 11.3528 25.4063 11.4991 25.4063C11.643 25.4063 11.7699 25.4337 11.8795 25.4885C11.9892 25.5411 12.0749 25.6199 12.1366 25.725C12.2006 25.8301 12.2326 25.9627 12.2326 26.1226C12.2326 26.2346 12.2086 26.3466 12.1606 26.4585C12.1149 26.5705 12.0532 26.6802 11.9755 26.7876C11.8978 26.8927 11.811 26.9944 11.715 27.0926C11.6213 27.1909 11.5242 27.2834 11.4237 27.3703C11.3254 27.4571 11.2329 27.5359 11.146 27.6068H12.3148V27.8467H10.721ZM12.9015 27.8467V27.6445C13.0638 27.5165 13.218 27.3874 13.3643 27.2571C13.5128 27.1269 13.6442 26.9978 13.7584 26.8698C13.8727 26.7396 13.9618 26.6128 14.0258 26.4894C14.092 26.366 14.1252 26.2472 14.1252 26.1329C14.1252 26.0484 14.1103 25.9707 14.0806 25.8998C14.0509 25.8267 14.0029 25.7673 13.9366 25.7216C13.8727 25.6759 13.7858 25.6531 13.6762 25.6531C13.5688 25.6531 13.4796 25.677 13.4088 25.725C13.338 25.7707 13.2843 25.8324 13.2477 25.9101C13.2134 25.9855 13.1963 26.0689 13.1963 26.1603H12.9187C12.921 26.0027 12.9541 25.8678 13.0181 25.7559C13.0843 25.6416 13.1746 25.5548 13.2888 25.4954C13.4031 25.436 13.5333 25.4063 13.6796 25.4063C13.8235 25.4063 13.9504 25.4337 14.06 25.4885C14.1697 25.5411 14.2554 25.6199 14.3171 25.725C14.3811 25.8301 14.4131 25.9627 14.4131 26.1226C14.4131 26.2346 14.3891 26.3466 14.3411 26.4585C14.2954 26.5705 14.2337 26.6802 14.156 26.7876C14.0783 26.8927 13.9915 26.9944 13.8955 27.0926C13.8018 27.1909 13.7047 27.2834 13.6042 27.3703C13.5059 27.4571 13.4134 27.5359 13.3265 27.6068H14.4953V27.8467H12.9015ZM15.8669 27.8878C15.7138 27.8878 15.5745 27.8604 15.4488 27.8055C15.3254 27.7484 15.2271 27.6639 15.154 27.5519C15.0809 27.4399 15.042 27.3006 15.0375 27.1338H15.3288C15.3311 27.2252 15.3528 27.3097 15.3939 27.3874C15.4374 27.4628 15.4991 27.5233 15.579 27.569C15.659 27.6147 15.755 27.6376 15.8669 27.6376C15.9789 27.6376 16.0726 27.6159 16.148 27.5725C16.2234 27.5291 16.2805 27.4719 16.3194 27.4011C16.3582 27.328 16.3776 27.2469 16.3776 27.1577C16.3776 27.0458 16.3502 26.9555 16.2954 26.887C16.2428 26.8161 16.1708 26.7647 16.0794 26.7327C15.9903 26.6985 15.8921 26.6813 15.7847 26.6813H15.6064V26.438H15.7847C15.9423 26.438 16.0657 26.4014 16.1549 26.3283C16.244 26.2552 16.2885 26.1546 16.2885 26.0267C16.2885 25.9215 16.2531 25.8336 16.1823 25.7627C16.1137 25.6919 16.0086 25.6565 15.8669 25.6565C15.7321 25.6565 15.6247 25.6953 15.5448 25.773C15.4648 25.8507 15.4191 25.9501 15.4077 26.0712H15.1163C15.1232 25.941 15.1586 25.8256 15.2226 25.725C15.2865 25.6245 15.3734 25.5468 15.4831 25.492C15.5927 25.4348 15.7218 25.4063 15.8704 25.4063C16.0257 25.4063 16.156 25.4337 16.2611 25.4885C16.3662 25.5434 16.4451 25.6165 16.4976 25.7079C16.5524 25.7993 16.5799 25.8998 16.5799 26.0095C16.5799 26.0918 16.565 26.1695 16.5353 26.2426C16.5056 26.3134 16.461 26.3763 16.4016 26.4311C16.3422 26.4859 16.2668 26.5248 16.1754 26.5476C16.2691 26.5659 16.3525 26.6013 16.4256 26.6539C16.501 26.7065 16.5604 26.775 16.6039 26.8595C16.6473 26.9441 16.669 27.0435 16.669 27.1577C16.669 27.288 16.6381 27.4091 16.5764 27.5211C16.517 27.6307 16.4279 27.7199 16.3091 27.7884C16.1903 27.8547 16.0429 27.8878 15.8669 27.8878ZM17.3504 27.8467V25.4474H18.8106V25.6839H17.6384V26.5271H18.6358V26.7602H17.6384V27.8467H17.3504Z" fill="#4D4D63" fill-opacity="0.76"/>
</svg>
