<svg width="25" height="29" viewBox="0 0 25 29" fill="none" xmlns="http://www.w3.org/2000/svg">
<rect width="24.9275" height="28.8467" fill="#FEFFFF"/>
<rect width="24.9275" height="24.3066" fill="#FC71BB"/>
<path d="M6.53999 27.8467V25.4474H8.00012V25.6839H6.8279V26.5271H7.82531V26.7602H6.8279V27.8467H6.53999ZM9.62188 27.8878C9.38881 27.8878 9.18658 27.8364 9.0152 27.7336C8.84611 27.6285 8.71587 27.4834 8.62446 27.2983C8.53306 27.1109 8.48736 26.8938 8.48736 26.647C8.48736 26.4003 8.53306 26.1843 8.62446 25.9992C8.71587 25.8119 8.84611 25.6668 9.0152 25.5639C9.18658 25.4588 9.38881 25.4063 9.62188 25.4063C9.89608 25.4063 10.1189 25.4714 10.2902 25.6016C10.4616 25.7319 10.5713 25.9158 10.6193 26.1535H10.3005C10.264 26.005 10.1897 25.8861 10.0777 25.797C9.96577 25.7056 9.81382 25.6599 9.62188 25.6599C9.4505 25.6599 9.30197 25.6999 9.1763 25.7799C9.05062 25.8576 8.95351 25.9707 8.88496 26.1192C8.81641 26.2654 8.78213 26.4414 8.78213 26.647C8.78213 26.8527 8.81641 27.0298 8.88496 27.1783C8.95351 27.3246 9.05062 27.4377 9.1763 27.5176C9.30197 27.5953 9.4505 27.6342 9.62188 27.6342C9.81382 27.6342 9.96577 27.5908 10.0777 27.5039C10.1897 27.4148 10.264 27.2971 10.3005 27.1509H10.6193C10.5713 27.3817 10.4616 27.5622 10.2902 27.6924C10.1189 27.8227 9.89608 27.8878 9.62188 27.8878ZM11.4583 27.8467L12.3941 25.6942H11.0779V25.4474H12.6888V25.6633L11.7634 27.8467H11.4583ZM13.5563 27.8467V25.7696L13.145 25.8724V25.6668L13.6523 25.4474H13.8476V27.8467H13.5563ZM14.5658 27.8467V25.4474H15.409C15.578 25.4474 15.7174 25.4748 15.8271 25.5297C15.9391 25.5822 16.0225 25.6553 16.0773 25.749C16.1322 25.8404 16.1596 25.9433 16.1596 26.0575C16.1596 26.1809 16.1322 26.2837 16.0773 26.366C16.0248 26.4482 15.9551 26.5111 15.8682 26.5545C15.7837 26.5979 15.6934 26.6242 15.5975 26.6333L15.6455 26.5991C15.7483 26.6013 15.8431 26.6288 15.9299 26.6813C16.0168 26.7339 16.0853 26.8047 16.1356 26.8938C16.1881 26.9829 16.2144 27.0823 16.2144 27.192C16.2144 27.3131 16.1847 27.424 16.1253 27.5245C16.0659 27.6227 15.9779 27.7016 15.8614 27.761C15.7471 27.8181 15.6055 27.8467 15.4364 27.8467H14.5658ZM14.8537 27.6068H15.4055C15.5678 27.6068 15.6934 27.569 15.7826 27.4936C15.874 27.416 15.9197 27.3086 15.9197 27.1715C15.9197 27.0366 15.8728 26.9292 15.7791 26.8493C15.6877 26.767 15.5609 26.7259 15.3987 26.7259H14.8537V27.6068ZM14.8537 26.4962H15.3884C15.5438 26.4962 15.6614 26.4597 15.7414 26.3865C15.8237 26.3134 15.8648 26.214 15.8648 26.0884C15.8648 25.9672 15.8237 25.8701 15.7414 25.797C15.6614 25.7239 15.5403 25.6873 15.3781 25.6873H14.8537V26.4962ZM16.8367 27.8467V25.4474H17.6798C17.8489 25.4474 17.9883 25.4748 18.098 25.5297C18.21 25.5822 18.2934 25.6553 18.3482 25.749C18.403 25.8404 18.4305 25.9433 18.4305 26.0575C18.4305 26.1809 18.403 26.2837 18.3482 26.366C18.2956 26.4482 18.2259 26.5111 18.1391 26.5545C18.0546 26.5979 17.9643 26.6242 17.8683 26.6333L17.9163 26.5991C18.0192 26.6013 18.114 26.6288 18.2008 26.6813C18.2876 26.7339 18.3562 26.8047 18.4065 26.8938C18.459 26.9829 18.4853 27.0823 18.4853 27.192C18.4853 27.3131 18.4556 27.424 18.3962 27.5245C18.3368 27.6227 18.2488 27.7016 18.1323 27.761C18.018 27.8181 17.8763 27.8467 17.7072 27.8467H16.8367ZM17.1246 27.6068H17.6764C17.8386 27.6068 17.9643 27.569 18.0534 27.4936C18.1448 27.416 18.1905 27.3086 18.1905 27.1715C18.1905 27.0366 18.1437 26.9292 18.05 26.8493C17.9586 26.767 17.8318 26.7259 17.6695 26.7259H17.1246V27.6068ZM17.1246 26.4962H17.6593C17.8146 26.4962 17.9323 26.4597 18.0123 26.3865C18.0946 26.3134 18.1357 26.214 18.1357 26.0884C18.1357 25.9672 18.0946 25.8701 18.0123 25.797C17.9323 25.7239 17.8112 25.6873 17.649 25.6873H17.1246V26.4962Z" fill="#4D4D63" fill-opacity="0.76"/>
</svg>
