<svg width="25" height="29" viewBox="0 0 25 29" fill="none" xmlns="http://www.w3.org/2000/svg">
<rect width="24.9023" height="28.8216" fill="#FEFFFF"/>
<rect width="24.9023" height="24.282" fill="#6D29AA"/>
<path d="M6.59188 27.8629C6.41839 27.8629 6.2723 27.8309 6.1536 27.767C6.0349 27.7008 5.94016 27.6141 5.8694 27.5068C5.79864 27.3972 5.74613 27.2739 5.71189 27.137C5.67993 27 5.66396 26.8608 5.66396 26.7192C5.66396 26.4544 5.70048 26.2227 5.77353 26.0241C5.84657 25.8233 5.95158 25.6669 6.08854 25.555C6.22779 25.4409 6.39442 25.3838 6.58845 25.3838C6.73911 25.3838 6.86809 25.4135 6.97537 25.4729C7.08494 25.5299 7.17169 25.6075 7.2356 25.7057C7.29952 25.8039 7.33833 25.9134 7.35202 26.0344H7.08494C7.06212 25.9066 7.00619 25.8084 6.91717 25.7399C6.83042 25.6692 6.71971 25.6338 6.58503 25.6338C6.46633 25.6338 6.35904 25.6715 6.26317 25.7468C6.16729 25.8198 6.09082 25.9328 6.03376 26.0858C5.97897 26.2364 5.94701 26.4293 5.93788 26.6644C5.93788 26.6667 5.93788 26.6701 5.93788 26.6747C5.93788 26.6793 5.93788 26.6838 5.93788 26.6884C5.9744 26.6176 6.02462 26.5514 6.08854 26.4898C6.15474 26.4282 6.23349 26.3791 6.3248 26.3426C6.41611 26.3061 6.51769 26.2878 6.62954 26.2878C6.76422 26.2878 6.89091 26.3198 7.00962 26.3837C7.12832 26.4476 7.22419 26.5378 7.29724 26.6542C7.37257 26.7683 7.41023 26.903 7.41023 27.0582C7.41023 27.1929 7.37713 27.3219 7.31093 27.4451C7.24702 27.5684 7.15343 27.6688 7.03016 27.7464C6.90689 27.8241 6.7608 27.8629 6.59188 27.8629ZM6.57133 27.6095C6.67634 27.6095 6.76993 27.5867 6.85211 27.541C6.93657 27.4931 7.00163 27.4292 7.04728 27.3493C7.09522 27.2671 7.11919 27.1746 7.11919 27.0719C7.11919 26.9646 7.09522 26.871 7.04728 26.7911C7.00163 26.7112 6.93657 26.6496 6.85211 26.6062C6.76993 26.5606 6.67634 26.5378 6.57133 26.5378C6.46633 26.5378 6.3716 26.5617 6.28714 26.6097C6.20268 26.6576 6.13534 26.7227 6.08512 26.8048C6.03718 26.8847 6.01321 26.9749 6.01321 27.0753C6.01321 27.1781 6.03718 27.2705 6.08512 27.3527C6.13534 27.4326 6.20268 27.4953 6.28714 27.541C6.3716 27.5867 6.46633 27.6095 6.57133 27.6095ZM8.08796 27.8218V25.4249H8.79332C9.07409 25.4249 9.30464 25.474 9.48498 25.5722C9.66759 25.668 9.80227 25.8061 9.88902 25.9865C9.97804 26.1645 10.0226 26.3791 10.0226 26.6302C10.0226 26.8767 9.97804 27.089 9.88902 27.2671C9.80227 27.4451 9.66759 27.5821 9.48498 27.678C9.30464 27.7738 9.07409 27.8218 8.79332 27.8218H8.08796ZM8.37558 27.5821H8.78647C9.0193 27.5821 9.2042 27.5444 9.34117 27.4691C9.47813 27.3915 9.57629 27.2819 9.63564 27.1404C9.69499 26.9966 9.72466 26.8265 9.72466 26.6302C9.72466 26.4293 9.69499 26.257 9.63564 26.1132C9.57629 25.9694 9.47813 25.8586 9.34117 25.781C9.2042 25.7034 9.0193 25.6646 8.78647 25.6646H8.37558V27.5821ZM10.5563 27.8218V27.6198C10.7184 27.4919 10.8724 27.363 11.0185 27.2328C11.1669 27.1027 11.2982 26.9737 11.4123 26.8459C11.5264 26.7158 11.6155 26.5891 11.6794 26.4658C11.7456 26.3426 11.7787 26.2239 11.7787 26.1097C11.7787 26.0253 11.7638 25.9477 11.7342 25.8769C11.7045 25.8039 11.6566 25.7445 11.5904 25.6989C11.5264 25.6532 11.4397 25.6304 11.3301 25.6304C11.2228 25.6304 11.1338 25.6543 11.063 25.7023C10.9923 25.7479 10.9386 25.8096 10.9021 25.8872C10.8679 25.9625 10.8508 26.0458 10.8508 26.1371H10.5734C10.5757 25.9796 10.6088 25.8449 10.6727 25.7331C10.7389 25.619 10.8291 25.5322 10.9432 25.4729C11.0573 25.4135 11.1875 25.3838 11.3335 25.3838C11.4774 25.3838 11.604 25.4112 11.7136 25.466C11.8232 25.5185 11.9088 25.5973 11.9704 25.7023C12.0343 25.8073 12.0663 25.9397 12.0663 26.0995C12.0663 26.2113 12.0423 26.3232 11.9944 26.435C11.9487 26.5469 11.8871 26.6565 11.8095 26.7637C11.7319 26.8687 11.6451 26.9703 11.5493 27.0685C11.4557 27.1666 11.3587 27.2591 11.2582 27.3458C11.1601 27.4326 11.0676 27.5113 10.9809 27.5821H12.1485V27.8218H10.5563ZM13.5195 27.8629C13.3688 27.8629 13.2399 27.8343 13.1326 27.7773C13.0253 27.7179 12.9397 27.6392 12.8758 27.541C12.8141 27.4406 12.7765 27.331 12.7628 27.2123H13.0299C13.0527 27.3401 13.1075 27.4394 13.1942 27.5102C13.281 27.5787 13.3905 27.6129 13.5229 27.6129C13.6439 27.6129 13.7512 27.5764 13.8448 27.5033C13.9384 27.4303 14.0137 27.3196 14.0708 27.1712C14.1301 27.0205 14.1632 26.8299 14.1701 26.5994C14.1701 26.5925 14.1701 26.5857 14.1701 26.5788C14.1701 26.572 14.1701 26.5651 14.1701 26.5583C14.1358 26.6291 14.0856 26.6953 14.0194 26.7569C13.9532 26.8185 13.8745 26.8676 13.7831 26.9041C13.6941 26.9406 13.5937 26.9589 13.4818 26.9589C13.3472 26.9589 13.2193 26.927 13.0983 26.863C12.9796 26.7991 12.8826 26.7101 12.8073 26.596C12.7342 26.4795 12.6977 26.3437 12.6977 26.1885C12.6977 26.0538 12.7308 25.9248 12.797 25.8016C12.8632 25.6783 12.9579 25.5779 13.0812 25.5003C13.2045 25.4226 13.3506 25.3838 13.5195 25.3838C13.6907 25.3838 13.8357 25.4169 13.9544 25.4831C14.0731 25.5471 14.1678 25.6338 14.2386 25.7434C14.3116 25.8507 14.3641 25.9728 14.3961 26.1097C14.428 26.2467 14.444 26.386 14.444 26.5275C14.444 26.79 14.4075 27.0217 14.3344 27.2226C14.2637 27.4234 14.1587 27.581 14.0194 27.6951C13.8824 27.8069 13.7158 27.8629 13.5195 27.8629ZM13.54 26.709C13.645 26.709 13.7398 26.685 13.8242 26.637C13.9087 26.5891 13.9749 26.5241 14.0228 26.4419C14.0731 26.3597 14.0982 26.2695 14.0982 26.1714C14.0982 26.0664 14.0731 25.9739 14.0228 25.894C13.9749 25.8141 13.9087 25.7514 13.8242 25.7057C13.7398 25.66 13.645 25.6372 13.54 25.6372C13.435 25.6372 13.3403 25.6612 13.2558 25.7091C13.1737 25.7548 13.1086 25.8176 13.0607 25.8974C13.0127 25.9773 12.9888 26.0698 12.9888 26.1748C12.9888 26.2821 13.0127 26.3757 13.0607 26.4556C13.1086 26.5355 13.1737 26.5982 13.2558 26.6439C13.3403 26.6873 13.435 26.709 13.54 26.709ZM14.7764 27.8218L15.6598 25.4249H15.9645L16.8445 27.8218H16.5398L15.8105 25.7845L15.0777 27.8218H14.7764ZM15.1804 27.2054L15.2626 26.9726H16.348L16.4302 27.2054H15.1804ZM17.2556 27.8218L18.139 25.4249H18.4438L19.3238 27.8218H19.019L18.2897 25.7845L17.557 27.8218H17.2556ZM17.6597 27.2054L17.7419 26.9726H18.8273L18.9095 27.2054H17.6597Z" fill="#4D4D63" fill-opacity="0.76"/>
</svg>
