<svg width="25" height="29" viewBox="0 0 25 29" fill="none" xmlns="http://www.w3.org/2000/svg">
<rect width="24.9275" height="28.8467" fill="#FEFFFF"/>
<rect width="24.9275" height="24.3066" fill="#F43FA5"/>
<path d="M6.32409 27.8467V25.4474H7.78422V25.6839H6.61201V26.5271H7.60942V26.7602H6.61201V27.8467H6.32409ZM9.45054 27.8467V27.3325H8.23377V27.1098L9.39913 25.4474H9.73503V27.0789H10.0915V27.3325H9.73503V27.8467H9.45054ZM8.55253 27.0789H9.46425V25.7662L8.55253 27.0789ZM11.3988 27.8878C11.2457 27.8878 11.1063 27.8604 10.9807 27.8055C10.8573 27.7484 10.759 27.6639 10.6859 27.5519C10.6128 27.4399 10.5739 27.3006 10.5694 27.1338H10.8607C10.863 27.2252 10.8847 27.3097 10.9258 27.3874C10.9692 27.4628 11.0309 27.5233 11.1109 27.569C11.1909 27.6147 11.2869 27.6376 11.3988 27.6376C11.5108 27.6376 11.6045 27.6159 11.6799 27.5725C11.7553 27.5291 11.8124 27.4719 11.8513 27.4011C11.8901 27.328 11.9095 27.2469 11.9095 27.1577C11.9095 27.0458 11.8821 26.9555 11.8273 26.887C11.7747 26.8161 11.7027 26.7647 11.6113 26.7327C11.5222 26.6985 11.424 26.6813 11.3166 26.6813H11.1383V26.438H11.3166C11.4742 26.438 11.5976 26.4014 11.6867 26.3283C11.7759 26.2552 11.8204 26.1546 11.8204 26.0267C11.8204 25.9215 11.785 25.8336 11.7142 25.7627C11.6456 25.6919 11.5405 25.6565 11.3988 25.6565C11.264 25.6565 11.1566 25.6953 11.0766 25.773C10.9967 25.8507 10.951 25.9501 10.9395 26.0712H10.6482C10.6551 25.941 10.6905 25.8256 10.7545 25.725C10.8184 25.6245 10.9053 25.5468 11.0149 25.492C11.1246 25.4348 11.2537 25.4063 11.4023 25.4063C11.5576 25.4063 11.6879 25.4337 11.793 25.4885C11.8981 25.5434 11.9769 25.6165 12.0295 25.7079C12.0843 25.7993 12.1118 25.8998 12.1118 26.0095C12.1118 26.0918 12.0969 26.1695 12.0672 26.2426C12.0375 26.3134 11.9929 26.3763 11.9335 26.4311C11.8741 26.4859 11.7987 26.5248 11.7073 26.5476C11.801 26.5659 11.8844 26.6013 11.9575 26.6539C12.0329 26.7065 12.0923 26.775 12.1357 26.8595C12.1792 26.9441 12.2009 27.0435 12.2009 27.1577C12.2009 27.288 12.17 27.4091 12.1083 27.5211C12.0489 27.6307 11.9598 27.7199 11.841 27.7884C11.7222 27.8547 11.5748 27.8878 11.3988 27.8878ZM12.8823 27.8467V25.4474H14.3425V25.6839H13.1702V26.5271H14.1677V26.7602H13.1702V27.8467H12.8823ZM14.5237 27.8467L15.408 25.4474H15.713L16.5939 27.8467H16.2889L15.5588 25.8073L14.8253 27.8467H14.5237ZM14.9281 27.2297L15.0104 26.9967H16.0969L16.1792 27.2297H14.9281ZM17.8347 27.8878C17.6701 27.8878 17.5273 27.8581 17.4062 27.7987C17.2874 27.7393 17.1926 27.6582 17.1217 27.5553C17.0532 27.4525 17.0098 27.3371 16.9915 27.2092H17.2726C17.3 27.3371 17.3628 27.4411 17.4611 27.5211C17.5593 27.601 17.685 27.641 17.8381 27.641C17.9523 27.641 18.0495 27.6147 18.1294 27.5622C18.2117 27.5096 18.2745 27.4377 18.318 27.3463C18.3637 27.2549 18.3865 27.1532 18.3865 27.0412C18.3865 26.9247 18.3637 26.8218 18.318 26.7327C18.2723 26.6436 18.2094 26.5751 18.1294 26.5271C18.0495 26.4768 17.9558 26.4517 17.8484 26.4517C17.7181 26.4517 17.6073 26.4802 17.5159 26.5374C17.4245 26.5945 17.356 26.6676 17.3103 26.7567H17.0326L17.2314 25.4474H18.4996V25.6976H17.4542L17.3205 26.4345C17.3777 26.3683 17.4531 26.3146 17.5468 26.2734C17.6427 26.23 17.7536 26.2083 17.8792 26.2083C17.998 26.2083 18.1054 26.2289 18.2014 26.27C18.2974 26.3111 18.3796 26.3694 18.4482 26.4448C18.5167 26.5202 18.5693 26.6082 18.6059 26.7087C18.6447 26.8093 18.6641 26.919 18.6641 27.0378C18.6641 27.1543 18.6447 27.264 18.6059 27.3668C18.5693 27.4674 18.5156 27.5576 18.4448 27.6376C18.3739 27.7153 18.2871 27.777 18.1843 27.8227C18.0815 27.8661 17.9649 27.8878 17.8347 27.8878Z" fill="#4D4D63" fill-opacity="0.76"/>
</svg>
