<svg width="25" height="29" viewBox="0 0 25 29" fill="none" xmlns="http://www.w3.org/2000/svg">
<rect width="24.9275" height="28.8467" fill="#FEFFFF"/>
<rect width="24.9275" height="24.3066" fill="#FF77A8"/>
<path d="M7.0982 27.8467V25.6655H8.42559V25.8805H7.35994V26.647H8.26668V26.8589H7.35994V27.8467H7.0982ZM8.95267 27.8467V25.6655H10.2801V25.8805H9.21441V26.647H10.1212V26.8589H9.21441V27.8467H8.95267ZM11.0035 27.8467L11.8541 25.8899H10.6576V25.6655H12.1221V25.8618L11.2808 27.8467H11.0035ZM12.8549 27.8467L13.7055 25.8899H12.509V25.6655H13.9735V25.8618L13.1322 27.8467H12.8549ZM14.099 27.8467L14.9029 25.6655H15.1802L15.981 27.8467H15.7037L15.04 25.9927L14.3732 27.8467H14.099ZM14.4666 27.2858L14.5414 27.0739H15.5292L15.604 27.2858H14.4666ZM17.1145 27.8841C16.9733 27.8841 16.8466 27.8581 16.7344 27.8062C16.6222 27.7522 16.5329 27.6784 16.4664 27.5849C16.4 27.4894 16.3667 27.3793 16.3667 27.2547C16.3667 27.1653 16.3844 27.0822 16.4197 27.0054C16.455 26.9285 16.5038 26.862 16.5661 26.806C16.6305 26.7478 16.7043 26.7073 16.7874 26.6844C16.671 26.6429 16.5807 26.5785 16.5163 26.4912C16.454 26.404 16.4228 26.3095 16.4228 26.2077C16.4228 26.0997 16.4508 26.002 16.5069 25.9148C16.563 25.8275 16.642 25.758 16.7437 25.706C16.8476 25.6541 16.9712 25.6281 17.1145 25.6281C17.26 25.6281 17.3836 25.6541 17.4853 25.706C17.5892 25.758 17.6681 25.8275 17.7222 25.9148C17.7782 26.002 17.8063 26.0997 17.8063 26.2077C17.8063 26.3095 17.7741 26.404 17.7097 26.4912C17.6474 26.5785 17.558 26.6429 17.4417 26.6844C17.5269 26.7073 17.6006 26.7478 17.6629 26.806C17.7273 26.862 17.7762 26.9285 17.8094 27.0054C17.8447 27.0822 17.8624 27.1653 17.8624 27.2547C17.8624 27.3793 17.8291 27.4894 17.7627 27.5849C17.6983 27.6784 17.6089 27.7522 17.4947 27.8062C17.3825 27.8581 17.2558 27.8841 17.1145 27.8841ZM17.1145 27.6535C17.2786 27.6535 17.4002 27.6161 17.4791 27.5413C17.5601 27.4645 17.6006 27.3637 17.6006 27.2391C17.6006 27.0978 17.556 26.9908 17.4666 26.9181C17.3794 26.8454 17.262 26.8091 17.1145 26.8091C16.9671 26.8091 16.8486 26.8454 16.7593 26.9181C16.6721 26.9908 16.6285 27.0978 16.6285 27.2391C16.6285 27.3637 16.669 27.4645 16.75 27.5413C16.831 27.6161 16.9525 27.6535 17.1145 27.6535ZM17.1145 26.591C17.2454 26.591 17.3493 26.5567 17.4261 26.4881C17.503 26.4196 17.5414 26.3313 17.5414 26.2233C17.5414 26.1007 17.503 26.0083 17.4261 25.946C17.3514 25.8836 17.2475 25.8525 17.1145 25.8525C16.9837 25.8525 16.8798 25.8836 16.8029 25.946C16.7282 26.0083 16.6908 26.1007 16.6908 26.2233C16.6908 26.3313 16.7282 26.4196 16.8029 26.4881C16.8798 26.5567 16.9837 26.591 17.1145 26.591Z" fill="#4D4D63" fill-opacity="0.76"/>
</svg>
