<svg width="25" height="29" viewBox="0 0 25 29" fill="none" xmlns="http://www.w3.org/2000/svg">
<rect width="24.9023" height="28.8216" fill="#FEFFFF"/>
<rect width="24.9023" height="24.282" fill="#B7018E"/>
<path d="M6.55836 27.8218V25.4249H7.40068C7.5696 25.4249 7.70885 25.4523 7.81842 25.5071C7.93027 25.5596 8.01359 25.6327 8.06838 25.7262C8.12316 25.8176 8.15055 25.9203 8.15055 26.0344C8.15055 26.1577 8.12316 26.2604 8.06838 26.3426C8.01587 26.4248 7.94625 26.4875 7.85951 26.5309C7.77505 26.5743 7.68488 26.6005 7.58901 26.6097L7.63694 26.5754C7.73966 26.5777 7.8344 26.6051 7.92114 26.6576C8.00788 26.7101 8.07636 26.7809 8.12658 26.8699C8.17909 26.9589 8.20534 27.0582 8.20534 27.1678C8.20534 27.2888 8.17566 27.3995 8.11631 27.4999C8.05696 27.5981 7.96908 27.6768 7.85266 27.7362C7.73852 27.7932 7.59699 27.8218 7.42807 27.8218H6.55836ZM6.84598 27.5821H7.39726C7.55933 27.5821 7.68488 27.5444 7.7739 27.4691C7.86521 27.3915 7.91087 27.2842 7.91087 27.1472C7.91087 27.0126 7.86407 26.9053 7.77048 26.8254C7.67917 26.7432 7.55248 26.7021 7.39041 26.7021H6.84598V27.5821ZM6.84598 26.4727H7.38014C7.53536 26.4727 7.65292 26.4362 7.73282 26.3631C7.81499 26.2901 7.85608 26.1908 7.85608 26.0652C7.85608 25.9442 7.81499 25.8472 7.73282 25.7742C7.65292 25.7011 7.53194 25.6646 7.36986 25.6646H6.84598V26.4727ZM9.04266 27.8218L9.97743 25.6715H8.66259V25.4249H10.2719V25.6406L9.3474 27.8218H9.04266ZM11.7323 27.8629C11.5223 27.8629 11.3408 27.8115 11.1879 27.7088C11.0372 27.6038 10.9219 27.4588 10.842 27.2739C10.7621 27.0867 10.7222 26.8699 10.7222 26.6234C10.7222 26.3768 10.7621 26.1611 10.842 25.9762C10.9219 25.789 11.0372 25.6441 11.1879 25.5413C11.3408 25.4363 11.5223 25.3838 11.7323 25.3838C11.9423 25.3838 12.1215 25.4363 12.2699 25.5413C12.4205 25.6441 12.5358 25.789 12.6157 25.9762C12.6956 26.1611 12.7355 26.3768 12.7355 26.6234C12.7355 26.8699 12.6956 27.0867 12.6157 27.2739C12.5358 27.4588 12.4205 27.6038 12.2699 27.7088C12.1215 27.8115 11.9423 27.8629 11.7323 27.8629ZM11.7289 27.6095C11.8658 27.6095 11.988 27.5707 12.0952 27.4931C12.2025 27.4132 12.287 27.3002 12.3486 27.1541C12.4103 27.0057 12.4411 26.8288 12.4411 26.6234C12.4411 26.4179 12.4103 26.2421 12.3486 26.096C12.287 25.9477 12.2025 25.8347 12.0952 25.7571C11.988 25.6795 11.8658 25.6406 11.7289 25.6406C11.5919 25.6406 11.4686 25.6795 11.3591 25.7571C11.2518 25.8347 11.1673 25.9477 11.1057 26.096C11.0463 26.2421 11.0167 26.4179 11.0167 26.6234C11.0167 26.8288 11.0463 27.0057 11.1057 27.1541C11.1673 27.3002 11.2518 27.4132 11.3591 27.4931C11.4686 27.5707 11.5919 27.6095 11.7289 27.6095ZM13.6244 27.8218V25.7468L13.2135 25.8495V25.6441L13.7203 25.4249H13.9155V27.8218H13.6244ZM15.417 27.8629C15.2618 27.8629 15.1225 27.8343 14.9993 27.7773C14.876 27.7179 14.7778 27.6369 14.7048 27.5342C14.6317 27.4292 14.5952 27.3082 14.5952 27.1712C14.5952 27.073 14.6146 26.9817 14.6534 26.8973C14.6922 26.8128 14.7459 26.7398 14.8144 26.6781C14.8851 26.6142 14.9662 26.5697 15.0575 26.5446C14.9296 26.4989 14.8303 26.4282 14.7596 26.3323C14.6911 26.2364 14.6568 26.1326 14.6568 26.0207C14.6568 25.902 14.6877 25.7947 14.7493 25.6989C14.8109 25.603 14.8977 25.5265 15.0095 25.4694C15.1237 25.4124 15.2595 25.3838 15.417 25.3838C15.5768 25.3838 15.7126 25.4124 15.8245 25.4694C15.9386 25.5265 16.0253 25.603 16.0847 25.6989C16.1463 25.7947 16.1771 25.902 16.1771 26.0207C16.1771 26.1326 16.1418 26.2364 16.071 26.3323C16.0025 26.4282 15.9044 26.4989 15.7765 26.5446C15.8701 26.5697 15.9511 26.6142 16.0196 26.6781C16.0904 26.7398 16.144 26.8128 16.1806 26.8973C16.2194 26.9817 16.2388 27.073 16.2388 27.1712C16.2388 27.3082 16.2022 27.4292 16.1292 27.5342C16.0584 27.6369 15.9603 27.7179 15.8347 27.7773C15.7115 27.8343 15.5722 27.8629 15.417 27.8629ZM15.417 27.6095C15.5973 27.6095 15.7309 27.5684 15.8176 27.4862C15.9066 27.4018 15.9511 27.291 15.9511 27.1541C15.9511 26.9989 15.9021 26.8813 15.8039 26.8014C15.708 26.7215 15.5791 26.6816 15.417 26.6816C15.2549 26.6816 15.1248 26.7215 15.0266 26.8014C14.9308 26.8813 14.8828 26.9989 14.8828 27.1541C14.8828 27.291 14.9274 27.4018 15.0164 27.4862C15.1054 27.5684 15.2389 27.6095 15.417 27.6095ZM15.417 26.4419C15.5608 26.4419 15.6749 26.4042 15.7594 26.3289C15.8439 26.2536 15.8861 26.1565 15.8861 26.0378C15.8861 25.9032 15.8439 25.8016 15.7594 25.7331C15.6772 25.6646 15.5631 25.6304 15.417 25.6304C15.2732 25.6304 15.159 25.6646 15.0746 25.7331C14.9924 25.8016 14.9513 25.9032 14.9513 26.0378C14.9513 26.1565 14.9924 26.2536 15.0746 26.3289C15.159 26.4042 15.2732 26.4419 15.417 26.4419ZM16.9215 27.8218V25.4249H18.4041V25.6612H17.2091V26.4967H18.3014V26.7295H17.2091V27.5855H18.4041V27.8218H16.9215Z" fill="#4D4D63" fill-opacity="0.76"/>
</svg>
