<svg width="25" height="29" viewBox="0 0 25 29" fill="none" xmlns="http://www.w3.org/2000/svg">
<rect width="24.9275" height="28.8467" fill="#FEFFFF"/>
<rect width="24.9275" height="24.3066" fill="#AE0075"/>
<path d="M5.71463 27.8467L6.59894 25.4474H6.90399L7.78487 27.8467H7.47981L6.74975 25.8073L6.01626 27.8467H5.71463ZM6.11908 27.2297L6.20134 26.9967H7.28787L7.37013 27.2297H6.11908ZM8.35062 27.8467V25.4474H9.83475V25.6839H8.63854V26.5202H9.73192V26.7533H8.63854V27.6102H9.83475V27.8467H8.35062ZM11.4129 27.8878C11.2027 27.8878 11.021 27.8364 10.8679 27.7336C10.7171 27.6285 10.6017 27.4834 10.5217 27.2983C10.4418 27.1109 10.4018 26.8938 10.4018 26.647C10.4018 26.4003 10.4418 26.1843 10.5217 25.9992C10.6017 25.8119 10.7171 25.6668 10.8679 25.5639C11.021 25.4588 11.2027 25.4063 11.4129 25.4063C11.6231 25.4063 11.8025 25.4588 11.951 25.5639C12.1018 25.6668 12.2172 25.8119 12.2972 25.9992C12.3772 26.1843 12.4172 26.4003 12.4172 26.647C12.4172 26.8938 12.3772 27.1109 12.2972 27.2983C12.2172 27.4834 12.1018 27.6285 11.951 27.7336C11.8025 27.8364 11.6231 27.8878 11.4129 27.8878ZM11.4095 27.6342C11.5466 27.6342 11.6688 27.5953 11.7762 27.5176C11.8836 27.4377 11.9681 27.3246 12.0298 27.1783C12.0915 27.0298 12.1224 26.8527 12.1224 26.647C12.1224 26.4414 12.0915 26.2654 12.0298 26.1192C11.9681 25.9707 11.8836 25.8576 11.7762 25.7799C11.6688 25.7022 11.5466 25.6633 11.4095 25.6633C11.2724 25.6633 11.149 25.7022 11.0393 25.7799C10.9319 25.8576 10.8473 25.9707 10.7856 26.1192C10.7262 26.2654 10.6965 26.4414 10.6965 26.647C10.6965 26.8527 10.7262 27.0298 10.7856 27.1783C10.8473 27.3246 10.9319 27.4377 11.0393 27.5176C11.149 27.5953 11.2724 27.6342 11.4095 27.6342ZM13.9616 27.8878C13.7514 27.8878 13.5697 27.8364 13.4166 27.7336C13.2658 27.6285 13.1504 27.4834 13.0704 27.2983C12.9904 27.1109 12.9505 26.8938 12.9505 26.647C12.9505 26.4003 12.9904 26.1843 13.0704 25.9992C13.1504 25.8119 13.2658 25.6668 13.4166 25.5639C13.5697 25.4588 13.7514 25.4063 13.9616 25.4063C14.1718 25.4063 14.3512 25.4588 14.4997 25.5639C14.6505 25.6668 14.7659 25.8119 14.8459 25.9992C14.9259 26.1843 14.9658 26.4003 14.9658 26.647C14.9658 26.8938 14.9259 27.1109 14.8459 27.2983C14.7659 27.4834 14.6505 27.6285 14.4997 27.7336C14.3512 27.8364 14.1718 27.8878 13.9616 27.8878ZM13.9582 27.6342C14.0953 27.6342 14.2175 27.5953 14.3249 27.5176C14.4323 27.4377 14.5168 27.3246 14.5785 27.1783C14.6402 27.0298 14.6711 26.8527 14.6711 26.647C14.6711 26.4414 14.6402 26.2654 14.5785 26.1192C14.5168 25.9707 14.4323 25.8576 14.3249 25.7799C14.2175 25.7022 14.0953 25.6633 13.9582 25.6633C13.8211 25.6633 13.6977 25.7022 13.588 25.7799C13.4806 25.8576 13.396 25.9707 13.3343 26.1192C13.2749 26.2654 13.2452 26.4414 13.2452 26.647C13.2452 26.8527 13.2749 27.0298 13.3343 27.1783C13.396 27.3246 13.4806 27.4377 13.588 27.5176C13.6977 27.5953 13.8211 27.6342 13.9582 27.6342ZM15.7608 27.8467L16.6965 25.6942H15.3803V25.4474H16.9913V25.6633L16.0658 27.8467H15.7608ZM18.2899 27.8878C18.1254 27.8878 17.9826 27.8581 17.8614 27.7987C17.7426 27.7393 17.6478 27.6582 17.577 27.5553C17.5084 27.4525 17.465 27.3371 17.4467 27.2092H17.7278C17.7552 27.3371 17.818 27.4411 17.9163 27.5211C18.0145 27.601 18.1402 27.641 18.2933 27.641C18.4076 27.641 18.5047 27.6147 18.5847 27.5622C18.6669 27.5096 18.7298 27.4377 18.7732 27.3463C18.8189 27.2549 18.8417 27.1532 18.8417 27.0412C18.8417 26.9247 18.8189 26.8218 18.7732 26.7327C18.7275 26.6436 18.6646 26.5751 18.5847 26.5271C18.5047 26.4768 18.411 26.4517 18.3036 26.4517C18.1734 26.4517 18.0625 26.4802 17.9711 26.5374C17.8797 26.5945 17.8112 26.6676 17.7655 26.7567H17.4878L17.6866 25.4474H18.9548V25.6976H17.9094L17.7758 26.4345C17.8329 26.3683 17.9083 26.3146 18.002 26.2734C18.0979 26.23 18.2088 26.2083 18.3344 26.2083C18.4533 26.2083 18.5607 26.2289 18.6566 26.27C18.7526 26.3111 18.8349 26.3694 18.9034 26.4448C18.972 26.5202 19.0245 26.6082 19.0611 26.7087C19.0999 26.8093 19.1194 26.919 19.1194 27.0378C19.1194 27.1543 19.0999 27.264 19.0611 27.3668C19.0245 27.4674 18.9708 27.5576 18.9 27.6376C18.8292 27.7153 18.7423 27.777 18.6395 27.8227C18.5367 27.8661 18.4201 27.8878 18.2899 27.8878Z" fill="#4D4D63" fill-opacity="0.76"/>
</svg>
