<svg width="25" height="29" viewBox="0 0 25 29" fill="none" xmlns="http://www.w3.org/2000/svg">
<rect width="24.9275" height="28.8467" fill="#FEFFFF"/>
<rect width="24.9275" height="24.3066" fill="#F46BAF"/>
<path d="M6.68294 27.8467V25.6655H8.01033V25.8805H6.94468V26.647H7.85142V26.8589H6.94468V27.8467H6.68294ZM9.52517 27.8467V27.3793H8.41901V27.1768L9.47843 25.6655H9.78379V27.1487H10.1078V27.3793H9.78379V27.8467H9.52517ZM8.70879 27.1487H9.53763V25.9553L8.70879 27.1487ZM11.3992 27.8841C11.2413 27.8841 11.1083 27.855 11.0003 27.7968C10.8923 27.7366 10.8061 27.6576 10.7417 27.56C10.6773 27.4603 10.6295 27.3481 10.5984 27.2235C10.5693 27.0989 10.5547 26.9721 10.5547 26.8433C10.5547 26.6024 10.588 26.3915 10.6545 26.2108C10.7209 26.028 10.8165 25.8857 10.9411 25.7839C11.0678 25.6801 11.2195 25.6281 11.396 25.6281C11.5332 25.6281 11.6505 25.6551 11.7482 25.7091C11.8479 25.7611 11.9268 25.8317 11.985 25.921C12.0431 26.0104 12.0784 26.1101 12.0909 26.2202H11.8479C11.8271 26.1038 11.7762 26.0145 11.6952 25.9522C11.6162 25.8878 11.5155 25.8556 11.3929 25.8556C11.2849 25.8556 11.1873 25.8899 11.1 25.9584C11.0128 26.0249 10.9432 26.1277 10.8913 26.2669C10.8414 26.404 10.8123 26.5795 10.804 26.7935C10.804 26.7956 10.804 26.7987 10.804 26.8028C10.804 26.807 10.804 26.8111 10.804 26.8153C10.8373 26.7509 10.883 26.6907 10.9411 26.6346C11.0014 26.5785 11.073 26.5338 11.1561 26.5006C11.2392 26.4674 11.3317 26.4507 11.4334 26.4507C11.556 26.4507 11.6713 26.4798 11.7793 26.538C11.8873 26.5961 11.9746 26.6782 12.041 26.7841C12.1096 26.888 12.1439 27.0106 12.1439 27.1518C12.1439 27.2744 12.1138 27.3918 12.0535 27.5039C11.9953 27.6161 11.9102 27.7075 11.798 27.7781C11.6858 27.8488 11.5529 27.8841 11.3992 27.8841ZM11.3805 27.6535C11.476 27.6535 11.5612 27.6327 11.636 27.5912C11.7128 27.5475 11.772 27.4894 11.8136 27.4167C11.8572 27.3419 11.879 27.2578 11.879 27.1643C11.879 27.0667 11.8572 26.9815 11.8136 26.9088C11.772 26.8361 11.7128 26.78 11.636 26.7405C11.5612 26.699 11.476 26.6782 11.3805 26.6782C11.2849 26.6782 11.1987 26.7 11.1218 26.7436C11.045 26.7873 10.9837 26.8465 10.938 26.9212C10.8944 26.994 10.8726 27.076 10.8726 27.1674C10.8726 27.2609 10.8944 27.345 10.938 27.4198C10.9837 27.4925 11.045 27.5496 11.1218 27.5912C11.1987 27.6327 11.2849 27.6535 11.3805 27.6535ZM12.7606 27.8467V25.6655H13.5271C13.6809 25.6655 13.8076 25.6904 13.9073 25.7403C14.0091 25.7881 14.0849 25.8546 14.1347 25.9397C14.1846 26.0228 14.2095 26.1163 14.2095 26.2202C14.2095 26.3323 14.1846 26.4258 14.1347 26.5006C14.087 26.5754 14.0236 26.6325 13.9447 26.672C13.8678 26.7114 13.7858 26.7353 13.6985 26.7436L13.7421 26.7125C13.8356 26.7146 13.9218 26.7395 14.0008 26.7873C14.0797 26.835 14.142 26.8994 14.1877 26.9804C14.2355 27.0615 14.2594 27.1518 14.2594 27.2515C14.2594 27.3616 14.2324 27.4624 14.1784 27.5538C14.1244 27.6431 14.0444 27.7148 13.9384 27.7688C13.8346 27.8207 13.7058 27.8467 13.5521 27.8467H12.7606ZM13.0224 27.6286H13.524C13.6715 27.6286 13.7858 27.5943 13.8668 27.5257C13.9499 27.4551 13.9914 27.3575 13.9914 27.2328C13.9914 27.1103 13.9488 27.0126 13.8637 26.9399C13.7806 26.8652 13.6653 26.8278 13.5178 26.8278H13.0224V27.6286ZM13.0224 26.619H13.5084C13.6497 26.619 13.7567 26.5858 13.8294 26.5193C13.9042 26.4528 13.9416 26.3625 13.9416 26.2482C13.9416 26.1381 13.9042 26.0498 13.8294 25.9833C13.7567 25.9169 13.6466 25.8836 13.4991 25.8836H13.0224V26.619ZM14.6483 27.8467L15.4522 25.6655H15.7295L16.5303 27.8467H16.253L15.5893 25.9927L14.9225 27.8467H14.6483ZM15.016 27.2858L15.0908 27.0739H16.0785L16.1533 27.2858H15.016ZM17.0447 27.8467V25.6655H18.3721V25.8805H17.3064V26.647H18.2131V26.8589H17.3064V27.8467H17.0447Z" fill="#4D4D63" fill-opacity="0.76"/>
</svg>
