<svg width="25" height="29" viewBox="0 0 25 29" fill="none" xmlns="http://www.w3.org/2000/svg">
<rect width="24.9023" height="28.8216" fill="#FEFFFF"/>
<rect width="24.9023" height="24.282" fill="#772D6B"/>
<path d="M6.35443 27.8218L7.2892 25.6715H5.97436V25.4249H7.58367V25.6406L6.65917 27.8218H6.35443ZM8.38894 27.8218L9.32371 25.6715H8.00887V25.4249H9.61818V25.6406L8.69368 27.8218H8.38894ZM10.0798 27.8218V27.6198C10.2419 27.4919 10.3959 27.363 10.542 27.2328C10.6904 27.1027 10.8217 26.9737 10.9358 26.8459C11.0499 26.7158 11.139 26.5891 11.2029 26.4658C11.2691 26.3426 11.3022 26.2239 11.3022 26.1097C11.3022 26.0253 11.2873 25.9477 11.2577 25.8769C11.228 25.8039 11.1801 25.7445 11.1139 25.6989C11.0499 25.6532 10.9632 25.6304 10.8536 25.6304C10.7463 25.6304 10.6573 25.6543 10.5866 25.7023C10.5158 25.7479 10.4621 25.8096 10.4256 25.8872C10.3914 25.9625 10.3743 26.0458 10.3743 26.1371H10.0969C10.0992 25.9796 10.1323 25.8449 10.1962 25.7331C10.2624 25.619 10.3526 25.5322 10.4667 25.4729C10.5808 25.4135 10.711 25.3838 10.8571 25.3838C11.0009 25.3838 11.1276 25.4112 11.2371 25.466C11.3467 25.5185 11.4323 25.5973 11.4939 25.7023C11.5578 25.8073 11.5898 25.9397 11.5898 26.0995C11.5898 26.2113 11.5658 26.3232 11.5179 26.435C11.4722 26.5469 11.4106 26.6565 11.333 26.7637C11.2554 26.8687 11.1686 26.9703 11.0728 27.0685C10.9792 27.1666 10.8822 27.2591 10.7817 27.3458C10.6836 27.4326 10.5911 27.5113 10.5044 27.5821H11.672V27.8218H10.0798ZM12.2958 27.8218V25.4249H13.0011C13.2819 25.4249 13.5124 25.474 13.6928 25.5722C13.8754 25.668 14.0101 25.8061 14.0968 25.9865C14.1858 26.1645 14.2304 26.3791 14.2304 26.6302C14.2304 26.8767 14.1858 27.089 14.0968 27.2671C14.0101 27.4451 13.8754 27.5821 13.6928 27.678C13.5124 27.7738 13.2819 27.8218 13.0011 27.8218H12.2958ZM12.5834 27.5821H12.9943C13.2271 27.5821 13.412 27.5444 13.549 27.4691C13.6859 27.3915 13.7841 27.2819 13.8434 27.1404C13.9028 26.9966 13.9325 26.8265 13.9325 26.6302C13.9325 26.4293 13.9028 26.257 13.8434 26.1132C13.7841 25.9694 13.6859 25.8586 13.549 25.781C13.412 25.7034 13.2271 25.6646 12.9943 25.6646H12.5834V27.5821ZM15.718 27.8629C15.5445 27.8629 15.3984 27.8309 15.2797 27.767C15.161 27.7008 15.0663 27.6141 14.9955 27.5068C14.9248 27.3972 14.8723 27.2739 14.838 27.137C14.8061 27 14.7901 26.8608 14.7901 26.7192C14.7901 26.4544 14.8266 26.2227 14.8997 26.0241C14.9727 25.8233 15.0777 25.6669 15.2147 25.555C15.3539 25.4409 15.5206 25.3838 15.7146 25.3838C15.8653 25.3838 15.9942 25.4135 16.1015 25.4729C16.2111 25.5299 16.2978 25.6075 16.3618 25.7057C16.4257 25.8039 16.4645 25.9134 16.4782 26.0344H16.2111C16.1883 25.9066 16.1323 25.8084 16.0433 25.7399C15.9566 25.6692 15.8459 25.6338 15.7112 25.6338C15.5925 25.6338 15.4852 25.6715 15.3893 25.7468C15.2934 25.8198 15.217 25.9328 15.1599 26.0858C15.1051 26.2364 15.0732 26.4293 15.064 26.6644C15.064 26.6667 15.064 26.6701 15.064 26.6747C15.064 26.6793 15.064 26.6838 15.064 26.6884C15.1006 26.6176 15.1508 26.5514 15.2147 26.4898C15.2809 26.4282 15.3596 26.3791 15.451 26.3426C15.5423 26.3061 15.6438 26.2878 15.7557 26.2878C15.8904 26.2878 16.0171 26.3198 16.1358 26.3837C16.2545 26.4476 16.3503 26.5378 16.4234 26.6542C16.4987 26.7683 16.5364 26.903 16.5364 27.0582C16.5364 27.1929 16.5033 27.3219 16.4371 27.4451C16.3732 27.5684 16.2796 27.6688 16.1563 27.7464C16.033 27.8241 15.8869 27.8629 15.718 27.8629ZM15.6975 27.6095C15.8025 27.6095 15.8961 27.5867 15.9783 27.541C16.0627 27.4931 16.1278 27.4292 16.1734 27.3493C16.2214 27.2671 16.2453 27.1746 16.2453 27.0719C16.2453 26.9646 16.2214 26.871 16.1734 26.7911C16.1278 26.7112 16.0627 26.6496 15.9783 26.6062C15.8961 26.5606 15.8025 26.5378 15.6975 26.5378C15.5925 26.5378 15.4977 26.5617 15.4133 26.6097C15.3288 26.6576 15.2615 26.7227 15.2113 26.8048C15.1633 26.8847 15.1394 26.9749 15.1394 27.0753C15.1394 27.1781 15.1633 27.2705 15.2113 27.3527C15.2615 27.4326 15.3288 27.4953 15.4133 27.541C15.4977 27.5867 15.5925 27.6095 15.6975 27.6095ZM17.2141 27.8218V25.4249H18.0564C18.2253 25.4249 18.3646 25.4523 18.4742 25.5071C18.586 25.5596 18.6693 25.6327 18.7241 25.7262C18.7789 25.8176 18.8063 25.9203 18.8063 26.0344C18.8063 26.1577 18.7789 26.2604 18.7241 26.3426C18.6716 26.4248 18.602 26.4875 18.5153 26.5309C18.4308 26.5743 18.3406 26.6005 18.2448 26.6097L18.2927 26.5754C18.3954 26.5777 18.4901 26.6051 18.5769 26.6576C18.6636 26.7101 18.7321 26.7809 18.7823 26.8699C18.8348 26.9589 18.8611 27.0582 18.8611 27.1678C18.8611 27.2888 18.8314 27.3995 18.7721 27.4999C18.7127 27.5981 18.6248 27.6768 18.5084 27.7362C18.3943 27.7932 18.2527 27.8218 18.0838 27.8218H17.2141ZM17.5017 27.5821H18.053C18.2151 27.5821 18.3406 27.5444 18.4297 27.4691C18.521 27.3915 18.5666 27.2842 18.5666 27.1472C18.5666 27.0126 18.5198 26.9053 18.4262 26.8254C18.3349 26.7432 18.2082 26.7021 18.0462 26.7021H17.5017V27.5821ZM17.5017 26.4727H18.0359C18.1911 26.4727 18.3087 26.4362 18.3886 26.3631C18.4707 26.2901 18.5118 26.1908 18.5118 26.0652C18.5118 25.9442 18.4707 25.8472 18.3886 25.7742C18.3087 25.7011 18.1877 25.6646 18.0256 25.6646H17.5017V26.4727Z" fill="#4D4D63" fill-opacity="0.76"/>
</svg>
