<svg width="25" height="29" viewBox="0 0 25 29" fill="none" xmlns="http://www.w3.org/2000/svg">
<rect width="24.9023" height="28.8194" fill="#FEFFFF"/>
<rect width="24.9023" height="24.2798" fill="#D3A5C9"/>
<path d="M5.65553 27.8193V25.4225H6.36089C6.64166 25.4225 6.87222 25.4716 7.05255 25.5697C7.23517 25.6656 7.36985 25.8037 7.45659 25.984C7.54562 26.1621 7.59013 26.3767 7.59013 26.6278C7.59013 26.8743 7.54562 27.0866 7.45659 27.2646C7.36985 27.4427 7.23517 27.5797 7.05255 27.6755C6.87222 27.7714 6.64166 27.8193 6.36089 27.8193H5.65553ZM5.94315 27.5797H6.35404C6.58688 27.5797 6.77178 27.542 6.90874 27.4667C7.0457 27.389 7.14386 27.2795 7.20321 27.1379C7.26256 26.9941 7.29224 26.8241 7.29224 26.6278C7.29224 26.4269 7.26256 26.2545 7.20321 26.1107C7.14386 25.9669 7.0457 25.8562 6.90874 25.7786C6.77178 25.701 6.58688 25.6622 6.35404 25.6622H5.94315V27.5797ZM8.96481 27.8604C8.81187 27.8604 8.67263 27.833 8.54708 27.7782C8.42381 27.7212 8.32565 27.6367 8.25261 27.5249C8.17956 27.413 8.14075 27.2738 8.13619 27.1071H8.42723C8.42952 27.1984 8.4512 27.2829 8.49229 27.3605C8.53566 27.4358 8.5973 27.4963 8.67719 27.542C8.75709 27.5876 8.85296 27.6105 8.96481 27.6105C9.07667 27.6105 9.17026 27.5888 9.24559 27.5454C9.32092 27.502 9.37798 27.445 9.41679 27.3742C9.4556 27.3012 9.475 27.2201 9.475 27.1311C9.475 27.0192 9.44761 26.9291 9.39282 26.8606C9.34032 26.7898 9.26841 26.7385 9.17711 26.7065C9.08808 26.6723 8.98992 26.6552 8.88264 26.6552H8.70458V26.412H8.88264C9.04014 26.412 9.16341 26.3755 9.25243 26.3025C9.34146 26.2294 9.38597 26.129 9.38597 26.0012C9.38597 25.8961 9.35059 25.8083 9.27983 25.7375C9.21135 25.6667 9.10634 25.6314 8.96481 25.6314C8.83013 25.6314 8.72285 25.6702 8.64295 25.7478C8.56306 25.8254 8.5174 25.9247 8.50599 26.0457H8.21494C8.22179 25.9156 8.25717 25.8003 8.32109 25.6998C8.385 25.5994 8.47175 25.5218 8.58132 25.467C8.69089 25.4099 8.81986 25.3814 8.96824 25.3814C9.12346 25.3814 9.25358 25.4088 9.35858 25.4636C9.46359 25.5184 9.54234 25.5914 9.59484 25.6827C9.64963 25.774 9.67702 25.8745 9.67702 25.984C9.67702 26.0662 9.66218 26.1438 9.63251 26.2169C9.60283 26.2876 9.55832 26.3504 9.49897 26.4052C9.43962 26.46 9.36429 26.4988 9.27298 26.5216C9.36657 26.5399 9.44989 26.5753 9.52294 26.6278C9.59827 26.6803 9.65762 26.7487 9.70099 26.8332C9.74436 26.9177 9.76605 27.017 9.76605 27.1311C9.76605 27.2612 9.73523 27.3822 9.6736 27.494C9.61424 27.6036 9.52522 27.6926 9.40652 27.7611C9.28782 27.8273 9.14058 27.8604 8.96481 27.8604ZM10.1556 27.8193L11.0391 25.4225H11.3438L12.2238 27.8193H11.919L11.1897 25.782L10.457 27.8193H10.1556ZM10.5597 27.203L10.6419 26.9702H11.7273L11.8095 27.203H10.5597ZM13.4633 27.8604C13.2989 27.8604 13.1563 27.8307 13.0353 27.7714C12.9166 27.712 12.8218 27.631 12.7511 27.5283C12.6826 27.4256 12.6392 27.3103 12.621 27.1825H12.9017C12.9291 27.3103 12.9919 27.4142 13.0901 27.494C13.1882 27.5739 13.3138 27.6139 13.4667 27.6139C13.5809 27.6139 13.6779 27.5876 13.7578 27.5351C13.8399 27.4826 13.9027 27.4107 13.9461 27.3194C13.9917 27.2281 14.0146 27.1265 14.0146 27.0147C14.0146 26.8983 13.9917 26.7955 13.9461 26.7065C13.9004 26.6175 13.8377 26.549 13.7578 26.5011C13.6779 26.4508 13.5843 26.4257 13.477 26.4257C13.3469 26.4257 13.2362 26.4543 13.1449 26.5113C13.0535 26.5684 12.9851 26.6415 12.9394 26.7305H12.6621L12.8607 25.4225H14.1276V25.6724H13.0832L12.9497 26.4086C13.0067 26.3424 13.0821 26.2888 13.1757 26.2477C13.2715 26.2043 13.3823 26.1826 13.5078 26.1826C13.6265 26.1826 13.7338 26.2032 13.8297 26.2443C13.9255 26.2854 14.0077 26.3436 14.0762 26.4189C14.1447 26.4942 14.1972 26.5821 14.2337 26.6825C14.2725 26.783 14.2919 26.8926 14.2919 27.0113C14.2919 27.1277 14.2725 27.2372 14.2337 27.34C14.1972 27.4404 14.1435 27.5306 14.0728 27.6105C14.002 27.6881 13.9153 27.7497 13.8125 27.7954C13.7098 27.8387 13.5934 27.8604 13.4633 27.8604ZM15.9915 27.8604C15.7586 27.8604 15.5566 27.8091 15.3854 27.7063C15.2165 27.6013 15.0864 27.4564 14.9951 27.2715C14.9037 27.0843 14.8581 26.8674 14.8581 26.6209C14.8581 26.3744 14.9037 26.1587 14.9951 25.9738C15.0864 25.7866 15.2165 25.6416 15.3854 25.5389C15.5566 25.4339 15.7586 25.3814 15.9915 25.3814C16.2654 25.3814 16.4879 25.4465 16.6592 25.5766C16.8304 25.7067 16.9399 25.8904 16.9879 26.1278H16.6694C16.6329 25.9795 16.5587 25.8608 16.4469 25.7717C16.335 25.6804 16.1832 25.6348 15.9915 25.6348C15.8203 25.6348 15.6719 25.6747 15.5463 25.7546C15.4208 25.8322 15.3238 25.9452 15.2553 26.0936C15.1868 26.2397 15.1526 26.4155 15.1526 26.6209C15.1526 26.8264 15.1868 27.0033 15.2553 27.1516C15.3238 27.2977 15.4208 27.4107 15.5463 27.4906C15.6719 27.5682 15.8203 27.607 15.9915 27.607C16.1832 27.607 16.335 27.5637 16.4469 27.4769C16.5587 27.3879 16.6329 27.2703 16.6694 27.1242H16.9879C16.9399 27.3548 16.8304 27.5351 16.6592 27.6653C16.4879 27.7954 16.2654 27.8604 15.9915 27.8604ZM18.391 27.8604C18.2404 27.8604 18.1114 27.8319 18.0041 27.7748C17.8968 27.7155 17.8112 27.6367 17.7473 27.5386C17.6857 27.4381 17.648 27.3286 17.6343 27.2099H17.9014C17.9242 27.3377 17.979 27.437 18.0658 27.5077C18.1525 27.5762 18.2621 27.6105 18.3945 27.6105C18.5154 27.6105 18.6227 27.5739 18.7163 27.5009C18.8099 27.4279 18.8852 27.3171 18.9423 27.1688C19.0017 27.0181 19.0348 26.8275 19.0416 26.5969C19.0416 26.5901 19.0416 26.5832 19.0416 26.5764C19.0416 26.5696 19.0416 26.5627 19.0416 26.5559C19.0074 26.6266 18.9572 26.6928 18.891 26.7544C18.8248 26.8161 18.746 26.8652 18.6547 26.9017C18.5657 26.9382 18.4652 26.9565 18.3534 26.9565C18.2187 26.9565 18.0909 26.9245 17.9699 26.8606C17.8512 26.7967 17.7542 26.7077 17.6788 26.5935C17.6058 26.4771 17.5693 26.3413 17.5693 26.1861C17.5693 26.0514 17.6024 25.9224 17.6686 25.7991C17.7348 25.6759 17.8295 25.5754 17.9528 25.4978C18.076 25.4202 18.2221 25.3814 18.391 25.3814C18.5622 25.3814 18.7072 25.4145 18.8259 25.4807C18.9446 25.5446 19.0393 25.6314 19.1101 25.7409C19.1831 25.8482 19.2356 25.9703 19.2676 26.1073C19.2996 26.2443 19.3155 26.3835 19.3155 26.525C19.3155 26.7875 19.279 27.0192 19.206 27.2201C19.1352 27.421 19.0302 27.5785 18.891 27.6926C18.754 27.8045 18.5874 27.8604 18.391 27.8604ZM18.4116 26.7065C18.5166 26.7065 18.6113 26.6825 18.6958 26.6346C18.7802 26.5867 18.8464 26.5216 18.8944 26.4394C18.9446 26.3573 18.9697 26.2671 18.9697 26.1689C18.9697 26.0639 18.9446 25.9715 18.8944 25.8916C18.8464 25.8117 18.7802 25.7489 18.6958 25.7033C18.6113 25.6576 18.5166 25.6348 18.4116 25.6348C18.3066 25.6348 18.2118 25.6587 18.1274 25.7067C18.0452 25.7523 17.9801 25.8151 17.9322 25.895C17.8843 25.9749 17.8603 26.0674 17.8603 26.1724C17.8603 26.2796 17.8843 26.3732 17.9322 26.4531C17.9801 26.533 18.0452 26.5958 18.1274 26.6415C18.2118 26.6848 18.3066 26.7065 18.4116 26.7065Z" fill="#4D4D63" fill-opacity="0.76"/>
</svg>
