<svg width="25" height="29" viewBox="0 0 25 29" fill="none" xmlns="http://www.w3.org/2000/svg">
<rect width="24.9023" height="28.8194" fill="#FEFFFF"/>
<rect width="24.9023" height="24.2798" fill="#5A108E"/>
<path d="M7.23269 27.8604C7.06833 27.8604 6.92566 27.8307 6.80468 27.7714C6.68598 27.712 6.59125 27.631 6.52048 27.5283C6.452 27.4256 6.40863 27.3103 6.39037 27.1825H6.67114C6.69853 27.3103 6.76131 27.4142 6.85946 27.494C6.95762 27.5739 7.08317 27.6139 7.23611 27.6139C7.35025 27.6139 7.44726 27.5876 7.52716 27.5351C7.60934 27.4826 7.67211 27.4107 7.71548 27.3194C7.76114 27.2281 7.78396 27.1265 7.78396 27.0147C7.78396 26.8983 7.76114 26.7955 7.71548 26.7065C7.66983 26.6175 7.60705 26.549 7.52716 26.5011C7.44726 26.4508 7.35367 26.4257 7.24638 26.4257C7.11627 26.4257 7.00556 26.4543 6.91425 26.5113C6.82294 26.5684 6.75446 26.6415 6.7088 26.7305H6.43146L6.63005 25.4225H7.89696V25.6724H6.85262L6.71908 26.4086C6.77615 26.3424 6.85147 26.2888 6.94507 26.2477C7.04094 26.2043 7.15165 26.1826 7.2772 26.1826C7.3959 26.1826 7.50319 26.2032 7.59906 26.2443C7.69494 26.2854 7.77711 26.3436 7.8456 26.4189C7.91408 26.4942 7.96658 26.5821 8.0031 26.6825C8.04191 26.783 8.06131 26.8926 8.06131 27.0113C8.06131 27.1277 8.04191 27.2372 8.0031 27.34C7.96658 27.4404 7.91294 27.5306 7.84217 27.6105C7.77141 27.6881 7.68467 27.7497 7.58194 27.7954C7.47922 27.8387 7.3628 27.8604 7.23269 27.8604ZM8.41873 27.8193L9.30214 25.4225H9.60688L10.4869 27.8193H10.1821L9.4528 25.782L8.72005 27.8193H8.41873ZM8.82277 27.203L8.90494 26.9702H9.99038L10.0726 27.203H8.82277ZM11.212 27.8193V25.7443L10.8012 25.8471V25.6416L11.3079 25.4225H11.5031V27.8193H11.212ZM13.1382 27.8604C12.9282 27.8604 12.7467 27.8091 12.5937 27.7063C12.4431 27.6013 12.3278 27.4564 12.2479 27.2715C12.168 27.0843 12.1281 26.8674 12.1281 26.6209C12.1281 26.3744 12.168 26.1587 12.2479 25.9738C12.3278 25.7866 12.4431 25.6416 12.5937 25.5389C12.7467 25.4339 12.9282 25.3814 13.1382 25.3814C13.3482 25.3814 13.5274 25.4339 13.6757 25.5389C13.8264 25.6416 13.9417 25.7866 14.0216 25.9738C14.1015 26.1587 14.1414 26.3744 14.1414 26.6209C14.1414 26.8674 14.1015 27.0843 14.0216 27.2715C13.9417 27.4564 13.8264 27.6013 13.6757 27.7063C13.5274 27.8091 13.3482 27.8604 13.1382 27.8604ZM13.1347 27.607C13.2717 27.607 13.3938 27.5682 13.5011 27.4906C13.6084 27.4107 13.6929 27.2977 13.7545 27.1516C13.8161 27.0033 13.8469 26.8264 13.8469 26.6209C13.8469 26.4155 13.8161 26.2397 13.7545 26.0936C13.6929 25.9452 13.6084 25.8322 13.5011 25.7546C13.3938 25.677 13.2717 25.6382 13.1347 25.6382C12.9978 25.6382 12.8745 25.677 12.7649 25.7546C12.6577 25.8322 12.5732 25.9452 12.5116 26.0936C12.4522 26.2397 12.4225 26.4155 12.4225 26.6209C12.4225 26.8264 12.4522 27.0033 12.5116 27.1516C12.5732 27.2977 12.6577 27.4107 12.7649 27.4906C12.8745 27.5682 12.9978 27.607 13.1347 27.607ZM15.5507 27.8604C15.3955 27.8604 15.2563 27.8319 15.133 27.7748C15.0097 27.7155 14.9116 27.6344 14.8385 27.5317C14.7655 27.4267 14.729 27.3057 14.729 27.1688C14.729 27.0706 14.7484 26.9793 14.7872 26.8948C14.826 26.8104 14.8796 26.7373 14.9481 26.6757C15.0189 26.6118 15.0999 26.5673 15.1912 26.5422C15.0634 26.4965 14.9641 26.4257 14.8933 26.3299C14.8248 26.234 14.7906 26.1301 14.7906 26.0183C14.7906 25.8996 14.8214 25.7923 14.8831 25.6964C14.9447 25.6005 15.0314 25.5241 15.1433 25.467C15.2574 25.4099 15.3932 25.3814 15.5507 25.3814C15.7105 25.3814 15.8464 25.4099 15.9582 25.467C16.0723 25.5241 16.1591 25.6005 16.2184 25.6964C16.2801 25.7923 16.3109 25.8996 16.3109 26.0183C16.3109 26.1301 16.2755 26.234 16.2047 26.3299C16.1363 26.4257 16.0381 26.4965 15.9103 26.5422C16.0039 26.5673 16.0849 26.6118 16.1534 26.6757C16.2241 26.7373 16.2778 26.8104 16.3143 26.8948C16.3531 26.9793 16.3725 27.0706 16.3725 27.1688C16.3725 27.3057 16.336 27.4267 16.263 27.5317C16.1922 27.6344 16.094 27.7155 15.9685 27.7748C15.8452 27.8319 15.706 27.8604 15.5507 27.8604ZM15.5507 27.607C15.7311 27.607 15.8646 27.566 15.9514 27.4838C16.0404 27.3993 16.0849 27.2886 16.0849 27.1516C16.0849 26.9964 16.0358 26.8789 15.9377 26.799C15.8418 26.7191 15.7128 26.6791 15.5507 26.6791C15.3887 26.6791 15.2586 26.7191 15.1604 26.799C15.0645 26.8789 15.0166 26.9964 15.0166 27.1516C15.0166 27.2886 15.0611 27.3993 15.1501 27.4838C15.2392 27.566 15.3727 27.607 15.5507 27.607ZM15.5507 26.4394C15.6946 26.4394 15.8087 26.4018 15.8932 26.3264C15.9776 26.2511 16.0198 26.1541 16.0198 26.0354C16.0198 25.9007 15.9776 25.7991 15.8932 25.7307C15.811 25.6622 15.6968 25.6279 15.5507 25.6279C15.4069 25.6279 15.2928 25.6622 15.2083 25.7307C15.1262 25.7991 15.0851 25.9007 15.0851 26.0354C15.0851 26.1541 15.1262 26.2511 15.2083 26.3264C15.2928 26.4018 15.4069 26.4394 15.5507 26.4394ZM17.0553 27.8193V25.4225H18.5379V25.6587H17.3429V26.4942H18.4352V26.7271H17.3429V27.5831H18.5379V27.8193H17.0553Z" fill="#4D4D63" fill-opacity="0.76"/>
</svg>
