<svg width="25" height="29" viewBox="0 0 25 29" fill="none" xmlns="http://www.w3.org/2000/svg">
<rect width="24.9023" height="28.8194" fill="#FEFFFF"/>
<rect width="24.9023" height="24.2798" fill="#542344"/>
<path d="M6.83979 27.8604C6.67543 27.8604 6.53276 27.8307 6.41178 27.7714C6.29308 27.712 6.19835 27.631 6.12758 27.5283C6.0591 27.4256 6.01573 27.3103 5.99747 27.1825H6.27824C6.30563 27.3103 6.36841 27.4142 6.46657 27.494C6.56472 27.5739 6.69027 27.6139 6.84321 27.6139C6.95735 27.6139 7.05436 27.5876 7.13426 27.5351C7.21644 27.4826 7.27921 27.4107 7.32258 27.3194C7.36824 27.2281 7.39106 27.1265 7.39106 27.0147C7.39106 26.8983 7.36824 26.7955 7.32258 26.7065C7.27693 26.6175 7.21415 26.549 7.13426 26.5011C7.05436 26.4508 6.96077 26.4257 6.85349 26.4257C6.72337 26.4257 6.61266 26.4543 6.52135 26.5113C6.43004 26.5684 6.36156 26.6415 6.31591 26.7305H6.03856L6.23715 25.4225H7.50406V25.6724H6.45972L6.32618 26.4086C6.38325 26.3424 6.45858 26.2888 6.55217 26.2477C6.64804 26.2043 6.75875 26.1826 6.8843 26.1826C7.003 26.1826 7.11029 26.2032 7.20616 26.2443C7.30204 26.2854 7.38422 26.3436 7.4527 26.4189C7.52118 26.4942 7.57368 26.5821 7.61021 26.6825C7.64901 26.783 7.66841 26.8926 7.66841 27.0113C7.66841 27.1277 7.64901 27.2372 7.61021 27.34C7.57368 27.4404 7.52004 27.5306 7.44927 27.6105C7.37851 27.6881 7.29177 27.7497 7.18904 27.7954C7.08632 27.8387 6.9699 27.8604 6.83979 27.8604ZM9.41247 27.8193V27.3057H8.19692V27.0832L9.36111 25.4225H9.69667V27.0523H10.0528V27.3057H9.69667V27.8193H9.41247ZM8.51536 27.0523H9.42617V25.7409L8.51536 27.0523ZM10.5747 27.8193V27.6173C10.7367 27.4895 10.8908 27.3605 11.0369 27.2304C11.1853 27.1003 11.3166 26.9713 11.4307 26.8435C11.5448 26.7134 11.6339 26.5867 11.6978 26.4634C11.764 26.3401 11.7971 26.2214 11.7971 26.1073C11.7971 26.0228 11.7822 25.9452 11.7526 25.8745C11.7229 25.8014 11.6749 25.7421 11.6087 25.6964C11.5448 25.6508 11.4581 25.6279 11.3485 25.6279C11.2412 25.6279 11.1522 25.6519 11.0814 25.6998C11.0107 25.7455 10.957 25.8071 10.9205 25.8847C10.8863 25.9601 10.8691 26.0434 10.8691 26.1347H10.5918C10.5941 25.9772 10.6272 25.8425 10.6911 25.7307C10.7573 25.6165 10.8475 25.5298 10.9616 25.4704C11.0757 25.4111 11.2058 25.3814 11.3519 25.3814C11.4957 25.3814 11.6224 25.4088 11.732 25.4636C11.8416 25.5161 11.9272 25.5948 11.9888 25.6998C12.0527 25.8048 12.0847 25.9372 12.0847 26.097C12.0847 26.2089 12.0607 26.3207 12.0128 26.4326C11.9671 26.5444 11.9055 26.654 11.8279 26.7613C11.7503 26.8663 11.6635 26.9679 11.5677 27.066C11.4741 27.1642 11.377 27.2566 11.2766 27.3434C11.1785 27.4301 11.086 27.5089 10.9993 27.5797H12.1669V27.8193H10.5747ZM13.5371 27.8604C13.3841 27.8604 13.2449 27.833 13.1193 27.7782C12.9961 27.7212 12.8979 27.6367 12.8249 27.5249C12.7518 27.413 12.713 27.2738 12.7085 27.1071H12.9995C13.0018 27.1984 13.0235 27.2829 13.0646 27.3605C13.1079 27.4358 13.1696 27.4963 13.2495 27.542C13.3294 27.5876 13.4252 27.6105 13.5371 27.6105C13.6489 27.6105 13.7425 27.5888 13.8179 27.5454C13.8932 27.502 13.9503 27.445 13.9891 27.3742C14.0279 27.3012 14.0473 27.2201 14.0473 27.1311C14.0473 27.0192 14.0199 26.9291 13.9651 26.8606C13.9126 26.7898 13.8407 26.7385 13.7494 26.7065C13.6603 26.6723 13.5622 26.6552 13.4549 26.6552H13.2769V26.412H13.4549C13.6124 26.412 13.7357 26.3755 13.8247 26.3025C13.9137 26.2294 13.9582 26.129 13.9582 26.0012C13.9582 25.8961 13.9229 25.8083 13.8521 25.7375C13.7836 25.6667 13.6786 25.6314 13.5371 25.6314C13.4024 25.6314 13.2951 25.6702 13.2152 25.7478C13.1353 25.8254 13.0897 25.9247 13.0783 26.0457H12.7872C12.7941 25.9156 12.8294 25.8003 12.8934 25.6998C12.9573 25.5994 13.044 25.5218 13.1536 25.467C13.2632 25.4099 13.3921 25.3814 13.5405 25.3814C13.6957 25.3814 13.8258 25.4088 13.9309 25.4636C14.0359 25.5184 14.1146 25.5914 14.1671 25.6827C14.2219 25.774 14.2493 25.8745 14.2493 25.984C14.2493 26.0662 14.2345 26.1438 14.2048 26.2169C14.1751 26.2876 14.1306 26.3504 14.0712 26.4052C14.0119 26.46 13.9366 26.4988 13.8452 26.5216C13.9388 26.5399 14.0222 26.5753 14.0952 26.6278C14.1705 26.6803 14.2299 26.7487 14.2733 26.8332C14.3166 26.9177 14.3383 27.017 14.3383 27.1311C14.3383 27.2612 14.3075 27.3822 14.2459 27.494C14.1865 27.6036 14.0975 27.6926 13.9788 27.7611C13.8601 27.8273 13.7129 27.8604 13.5371 27.8604ZM16.1045 27.8193V27.3057H14.889V27.0832L16.0532 25.4225H16.3887V27.0523H16.7448V27.3057H16.3887V27.8193H16.1045ZM15.2074 27.0523H16.1182V25.7409L15.2074 27.0523ZM18.3898 27.8193V27.3057H17.1743V27.0832L18.3385 25.4225H18.674V27.0523H19.0301V27.3057H18.674V27.8193H18.3898ZM17.4927 27.0523H18.4035V25.7409L17.4927 27.0523Z" fill="#4D4D63" fill-opacity="0.76"/>
</svg>
