<svg width="25" height="29" viewBox="0 0 25 29" fill="none" xmlns="http://www.w3.org/2000/svg">
<rect width="24.9023" height="28.8216" fill="#FEFFFF"/>
<rect width="24.9023" height="24.282" fill="#9663C5"/>
<path d="M6.46631 27.8629C6.31565 27.8629 6.18668 27.8343 6.07939 27.7773C5.9721 27.7179 5.8865 27.6392 5.82259 27.541C5.76095 27.4406 5.72329 27.331 5.70959 27.2123H5.97667C5.9995 27.3401 6.05428 27.4394 6.14102 27.5102C6.22777 27.5787 6.33734 27.6129 6.46974 27.6129C6.59072 27.6129 6.69801 27.5764 6.7916 27.5033C6.88519 27.4303 6.96052 27.3196 7.01759 27.1712C7.07694 27.0205 7.11004 26.8299 7.11689 26.5994C7.11689 26.5925 7.11689 26.5857 7.11689 26.5788C7.11689 26.572 7.11689 26.5651 7.11689 26.5583C7.08264 26.6291 7.03242 26.6953 6.96623 26.7569C6.90003 26.8185 6.82127 26.8676 6.72997 26.9041C6.64094 26.9406 6.5405 26.9589 6.42865 26.9589C6.29397 26.9589 6.16613 26.927 6.04515 26.863C5.92645 26.7991 5.82943 26.7101 5.7541 26.596C5.68106 26.4795 5.64453 26.3437 5.64453 26.1885C5.64453 26.0538 5.67763 25.9248 5.74383 25.8016C5.81003 25.6783 5.90476 25.5779 6.02803 25.5003C6.1513 25.4226 6.29739 25.3838 6.46631 25.3838C6.63752 25.3838 6.78247 25.4169 6.90117 25.4831C7.01987 25.5471 7.1146 25.6338 7.18537 25.7434C7.25841 25.8507 7.31092 25.9728 7.34287 26.1097C7.37483 26.2467 7.39081 26.386 7.39081 26.5275C7.39081 26.79 7.35429 27.0217 7.28124 27.2226C7.21048 27.4234 7.10547 27.581 6.96623 27.6951C6.82926 27.8069 6.66262 27.8629 6.46631 27.8629ZM6.48686 26.709C6.59186 26.709 6.68659 26.685 6.77105 26.637C6.85551 26.5891 6.92171 26.5241 6.96965 26.4419C7.01987 26.3597 7.04498 26.2695 7.04498 26.1714C7.04498 26.0664 7.01987 25.9739 6.96965 25.894C6.92171 25.8141 6.85551 25.7514 6.77105 25.7057C6.68659 25.66 6.59186 25.6372 6.48686 25.6372C6.38185 25.6372 6.28712 25.6612 6.20266 25.7091C6.12048 25.7548 6.05542 25.8176 6.00749 25.8974C5.95955 25.9773 5.93558 26.0698 5.93558 26.1748C5.93558 26.2821 5.95955 26.3757 6.00749 26.4556C6.05542 26.5355 6.12048 26.5982 6.20266 26.6439C6.28712 26.6873 6.38185 26.709 6.48686 26.709ZM8.90058 27.8629C8.7271 27.8629 8.58101 27.8309 8.4623 27.767C8.3436 27.7008 8.24887 27.6141 8.17811 27.5068C8.10734 27.3972 8.05484 27.2739 8.0206 27.137C7.98864 27 7.97266 26.8608 7.97266 26.7192C7.97266 26.4544 8.00919 26.2227 8.08223 26.0241C8.15528 25.8233 8.26028 25.6669 8.39725 25.555C8.53649 25.4409 8.70313 25.3838 8.89716 25.3838C9.04782 25.3838 9.17679 25.4135 9.28408 25.4729C9.39365 25.5299 9.48039 25.6075 9.54431 25.7057C9.60823 25.8039 9.64703 25.9134 9.66073 26.0344H9.39365C9.37082 25.9066 9.3149 25.8084 9.22587 25.7399C9.13913 25.6692 9.02842 25.6338 8.89374 25.6338C8.77504 25.6338 8.66775 25.6715 8.57187 25.7468C8.476 25.8198 8.39953 25.9328 8.34246 26.0858C8.28768 26.2364 8.25572 26.4293 8.24659 26.6644C8.24659 26.6667 8.24659 26.6701 8.24659 26.6747C8.24659 26.6793 8.24659 26.6838 8.24659 26.6884C8.28311 26.6176 8.33333 26.5514 8.39725 26.4898C8.46345 26.4282 8.5422 26.3791 8.63351 26.3426C8.72482 26.3061 8.8264 26.2878 8.93825 26.2878C9.07293 26.2878 9.19962 26.3198 9.31832 26.3837C9.43702 26.4476 9.5329 26.5378 9.60594 26.6542C9.68127 26.7683 9.71894 26.903 9.71894 27.0582C9.71894 27.1929 9.68584 27.3219 9.61964 27.4451C9.55572 27.5684 9.46213 27.6688 9.33887 27.7464C9.2156 27.8241 9.06951 27.8629 8.90058 27.8629ZM8.88004 27.6095C8.98505 27.6095 9.07864 27.5867 9.16081 27.541C9.24527 27.4931 9.31033 27.4292 9.35599 27.3493C9.40392 27.2671 9.42789 27.1746 9.42789 27.0719C9.42789 26.9646 9.40392 26.871 9.35599 26.7911C9.31033 26.7112 9.24527 26.6496 9.16081 26.6062C9.07864 26.5606 8.98505 26.5378 8.88004 26.5378C8.77504 26.5378 8.6803 26.5617 8.59584 26.6097C8.51138 26.6576 8.44404 26.7227 8.39382 26.8048C8.34589 26.8847 8.32192 26.9749 8.32192 27.0753C8.32192 27.1781 8.34589 27.2705 8.39382 27.3527C8.44404 27.4326 8.51138 27.4953 8.59584 27.541C8.6803 27.5867 8.77504 27.6095 8.88004 27.6095ZM11.2561 27.8629C11.0826 27.8629 10.9365 27.8309 10.8178 27.767C10.6991 27.7008 10.6044 27.6141 10.5336 27.5068C10.4629 27.3972 10.4104 27.2739 10.3761 27.137C10.3442 27 10.3282 26.8608 10.3282 26.7192C10.3282 26.4544 10.3647 26.2227 10.4378 26.0241C10.5108 25.8233 10.6158 25.6669 10.7528 25.555C10.892 25.4409 11.0587 25.3838 11.2527 25.3838C11.4033 25.3838 11.5323 25.4135 11.6396 25.4729C11.7492 25.5299 11.8359 25.6075 11.8998 25.7057C11.9637 25.8039 12.0026 25.9134 12.0162 26.0344H11.7492C11.7263 25.9066 11.6704 25.8084 11.5814 25.7399C11.4946 25.6692 11.3839 25.6338 11.2493 25.6338C11.1306 25.6338 11.0233 25.6715 10.9274 25.7468C10.8315 25.8198 10.755 25.9328 10.698 26.0858C10.6432 26.2364 10.6112 26.4293 10.6021 26.6644C10.6021 26.6667 10.6021 26.6701 10.6021 26.6747C10.6021 26.6793 10.6021 26.6838 10.6021 26.6884C10.6386 26.6176 10.6889 26.5514 10.7528 26.4898C10.819 26.4282 10.8977 26.3791 10.989 26.3426C11.0803 26.3061 11.1819 26.2878 11.2938 26.2878C11.4284 26.2878 11.5551 26.3198 11.6738 26.3837C11.7925 26.4476 11.8884 26.5378 11.9615 26.6542C12.0368 26.7683 12.0745 26.903 12.0745 27.0582C12.0745 27.1929 12.0414 27.3219 11.9752 27.4451C11.9112 27.5684 11.8177 27.6688 11.6944 27.7464C11.5711 27.8241 11.425 27.8629 11.2561 27.8629ZM11.2356 27.6095C11.3406 27.6095 11.4342 27.5867 11.5163 27.541C11.6008 27.4931 11.6659 27.4292 11.7115 27.3493C11.7594 27.2671 11.7834 27.1746 11.7834 27.0719C11.7834 26.9646 11.7594 26.871 11.7115 26.7911C11.6659 26.7112 11.6008 26.6496 11.5163 26.6062C11.4342 26.5606 11.3406 26.5378 11.2356 26.5378C11.1306 26.5378 11.0358 26.5617 10.9514 26.6097C10.8669 26.6576 10.7996 26.7227 10.7493 26.8048C10.7014 26.8847 10.6774 26.9749 10.6774 27.0753C10.6774 27.1781 10.7014 27.2705 10.7493 27.3527C10.7996 27.4326 10.8669 27.4953 10.9514 27.541C11.0358 27.5867 11.1306 27.6095 11.2356 27.6095ZM13.4986 27.8629C13.3457 27.8629 13.2064 27.8355 13.0809 27.7807C12.9576 27.7236 12.8595 27.6392 12.7864 27.5273C12.7134 27.4155 12.6746 27.2762 12.67 27.1096H12.9611C12.9633 27.2009 12.985 27.2853 13.0261 27.363C13.0695 27.4383 13.1311 27.4988 13.211 27.5444C13.2909 27.5901 13.3868 27.6129 13.4986 27.6129C13.6105 27.6129 13.7041 27.5912 13.7794 27.5479C13.8547 27.5045 13.9118 27.4474 13.9506 27.3766C13.9894 27.3036 14.0088 27.2226 14.0088 27.1335C14.0088 27.0217 13.9814 26.9315 13.9266 26.863C13.8741 26.7923 13.8022 26.7409 13.7109 26.709C13.6219 26.6747 13.5237 26.6576 13.4165 26.6576H13.2384V26.4145H13.4165C13.574 26.4145 13.6972 26.378 13.7863 26.3049C13.8753 26.2319 13.9198 26.1314 13.9198 26.0036C13.9198 25.8986 13.8844 25.8107 13.8136 25.7399C13.7452 25.6692 13.6402 25.6338 13.4986 25.6338C13.3639 25.6338 13.2567 25.6726 13.1768 25.7502C13.0969 25.8278 13.0512 25.9271 13.0398 26.0481H12.7488C12.7556 25.918 12.791 25.8027 12.8549 25.7023C12.9188 25.6018 13.0056 25.5242 13.1151 25.4694C13.2247 25.4124 13.3537 25.3838 13.5021 25.3838C13.6573 25.3838 13.7874 25.4112 13.8924 25.466C13.9974 25.5208 14.0762 25.5938 14.1287 25.6852C14.1834 25.7765 14.2108 25.8769 14.2108 25.9865C14.2108 26.0687 14.196 26.1463 14.1663 26.2193C14.1366 26.2901 14.0921 26.3529 14.0328 26.4076C13.9734 26.4624 13.8981 26.5012 13.8068 26.5241C13.9004 26.5423 13.9837 26.5777 14.0568 26.6302C14.1321 26.6827 14.1914 26.7512 14.2348 26.8356C14.2782 26.9201 14.2999 27.0194 14.2999 27.1335C14.2999 27.2637 14.269 27.3846 14.2074 27.4965C14.1481 27.6061 14.059 27.6951 13.9403 27.7636C13.8216 27.8298 13.6744 27.8629 13.4986 27.8629ZM16.0216 27.8629C15.7887 27.8629 15.5867 27.8115 15.4155 27.7088C15.2466 27.6038 15.1165 27.4588 15.0251 27.2739C14.9338 27.0867 14.8882 26.8699 14.8882 26.6234C14.8882 26.3768 14.9338 26.1611 15.0251 25.9762C15.1165 25.789 15.2466 25.6441 15.4155 25.5413C15.5867 25.4363 15.7887 25.3838 16.0216 25.3838C16.2955 25.3838 16.518 25.4489 16.6892 25.579C16.8605 25.7091 16.97 25.8929 17.018 26.1303H16.6995C16.663 25.9819 16.5888 25.8632 16.477 25.7742C16.3651 25.6829 16.2133 25.6372 16.0216 25.6372C15.8504 25.6372 15.702 25.6772 15.5764 25.7571C15.4509 25.8347 15.3539 25.9477 15.2854 26.096C15.2169 26.2421 15.1827 26.4179 15.1827 26.6234C15.1827 26.8288 15.2169 27.0057 15.2854 27.1541C15.3539 27.3002 15.4509 27.4132 15.5764 27.4931C15.702 27.5707 15.8504 27.6095 16.0216 27.6095C16.2133 27.6095 16.3651 27.5661 16.477 27.4794C16.5888 27.3903 16.663 27.2728 16.6995 27.1267H17.018C16.97 27.3572 16.8605 27.5376 16.6892 27.6677C16.518 27.7978 16.2955 27.8629 16.0216 27.8629ZM18.4485 27.8629C18.2842 27.8629 18.1415 27.8332 18.0205 27.7738C17.9018 27.7145 17.8071 27.6335 17.7363 27.5307C17.6678 27.428 17.6245 27.3127 17.6062 27.1849H17.887C17.9144 27.3127 17.9771 27.4166 18.0753 27.4965C18.1735 27.5764 18.299 27.6163 18.4519 27.6163C18.5661 27.6163 18.6631 27.5901 18.743 27.5376C18.8252 27.4851 18.8879 27.4132 18.9313 27.3219C18.977 27.2306 18.9998 27.129 18.9998 27.0171C18.9998 26.9007 18.977 26.798 18.9313 26.709C18.8857 26.6199 18.8229 26.5514 18.743 26.5035C18.6631 26.4533 18.5695 26.4282 18.4622 26.4282C18.3321 26.4282 18.2214 26.4567 18.1301 26.5138C18.0388 26.5709 17.9703 26.6439 17.9246 26.7329H17.6473L17.8459 25.4249H19.1128V25.6749H18.0685L17.9349 26.4111C17.992 26.3449 18.0673 26.2912 18.1609 26.2501C18.2568 26.2068 18.3675 26.1851 18.493 26.1851C18.6117 26.1851 18.719 26.2056 18.8149 26.2467C18.9108 26.2878 18.993 26.346 19.0614 26.4213C19.1299 26.4967 19.1824 26.5845 19.2189 26.685C19.2577 26.7854 19.2771 26.895 19.2771 27.0137C19.2771 27.1301 19.2577 27.2397 19.2189 27.3424C19.1824 27.4428 19.1288 27.533 19.058 27.6129C18.9872 27.6905 18.9005 27.7522 18.7978 27.7978C18.6951 27.8412 18.5786 27.8629 18.4485 27.8629Z" fill="#4D4D63" fill-opacity="0.76"/>
</svg>
