<svg width="25" height="29" viewBox="0 0 25 29" fill="none" xmlns="http://www.w3.org/2000/svg">
<rect width="24.9275" height="28.8467" fill="#FEFFFF"/>
<rect width="24.9275" height="24.3066" fill="#8C004C"/>
<path d="M6.10819 27.8878C5.9528 27.8878 5.81342 27.8592 5.69003 27.8021C5.56663 27.7427 5.46838 27.6616 5.39526 27.5588C5.32214 27.4537 5.28558 27.3325 5.28558 27.1954C5.28558 27.0972 5.305 27.0058 5.34384 26.9212C5.38269 26.8367 5.43639 26.7636 5.50494 26.7019C5.57577 26.6379 5.65689 26.5933 5.74829 26.5682C5.62033 26.5225 5.52093 26.4517 5.4501 26.3557C5.38155 26.2597 5.34727 26.1558 5.34727 26.0438C5.34727 25.925 5.37812 25.8176 5.43982 25.7216C5.50151 25.6256 5.58834 25.5491 5.70031 25.492C5.81456 25.4348 5.95052 25.4063 6.10819 25.4063C6.26814 25.4063 6.4041 25.4348 6.51606 25.492C6.63031 25.5491 6.71714 25.6256 6.77655 25.7216C6.83825 25.8176 6.8691 25.925 6.8691 26.0438C6.8691 26.1558 6.83368 26.2597 6.76284 26.3557C6.69429 26.4517 6.59604 26.5225 6.46808 26.5682C6.56176 26.5933 6.64288 26.6379 6.71143 26.7019C6.78227 26.7636 6.83597 26.8367 6.87253 26.9212C6.91137 27.0058 6.93079 27.0972 6.93079 27.1954C6.93079 27.3325 6.89423 27.4537 6.82111 27.5588C6.75028 27.6616 6.65202 27.7427 6.52634 27.8021C6.40295 27.8592 6.26357 27.8878 6.10819 27.8878ZM6.10819 27.6342C6.2887 27.6342 6.42238 27.593 6.50921 27.5108C6.59832 27.4262 6.64288 27.3154 6.64288 27.1783C6.64288 27.0229 6.59375 26.9052 6.4955 26.8253C6.39953 26.7453 6.27042 26.7053 6.10819 26.7053C5.94595 26.7053 5.8157 26.7453 5.71745 26.8253C5.62147 26.9052 5.57349 27.0229 5.57349 27.1783C5.57349 27.3154 5.61805 27.4262 5.70716 27.5108C5.79628 27.593 5.92995 27.6342 6.10819 27.6342ZM6.10819 26.4654C6.25214 26.4654 6.36639 26.4277 6.45094 26.3523C6.53548 26.2769 6.57776 26.1798 6.57776 26.0609C6.57776 25.9261 6.53548 25.8244 6.45094 25.7559C6.36868 25.6873 6.25443 25.6531 6.10819 25.6531C5.96423 25.6531 5.84998 25.6873 5.76543 25.7559C5.68317 25.8244 5.64204 25.9261 5.64204 26.0609C5.64204 26.1798 5.68317 26.2769 5.76543 26.3523C5.84998 26.4277 5.96423 26.4654 6.10819 26.4654ZM8.65621 27.8878C8.42314 27.8878 8.22091 27.8364 8.04954 27.7336C7.88044 27.6285 7.7502 27.4834 7.6588 27.2983C7.5674 27.1109 7.5217 26.8938 7.5217 26.647C7.5217 26.4003 7.5674 26.1843 7.6588 25.9992C7.7502 25.8119 7.88044 25.6668 8.04954 25.5639C8.22091 25.4588 8.42314 25.4063 8.65621 25.4063C8.93041 25.4063 9.1532 25.4714 9.32458 25.6016C9.49596 25.7319 9.60564 25.9158 9.65362 26.1535H9.33486C9.2983 26.005 9.22404 25.8861 9.11207 25.797C9.00011 25.7056 8.84815 25.6599 8.65621 25.6599C8.48483 25.6599 8.33631 25.6999 8.21063 25.7799C8.08495 25.8576 7.98784 25.9707 7.91929 26.1192C7.85074 26.2654 7.81646 26.4414 7.81646 26.647C7.81646 26.8527 7.85074 27.0298 7.91929 27.1783C7.98784 27.3246 8.08495 27.4377 8.21063 27.5176C8.33631 27.5953 8.48483 27.6342 8.65621 27.6342C8.84815 27.6342 9.00011 27.5908 9.11207 27.5039C9.22404 27.4148 9.2983 27.2971 9.33486 27.1509H9.65362C9.60564 27.3817 9.49596 27.5622 9.32458 27.6924C9.1532 27.8227 8.93041 27.8878 8.65621 27.8878ZM11.1953 27.8878C10.9851 27.8878 10.8034 27.8364 10.6503 27.7336C10.4995 27.6285 10.3841 27.4834 10.3042 27.2983C10.2242 27.1109 10.1842 26.8938 10.1842 26.647C10.1842 26.4003 10.2242 26.1843 10.3042 25.9992C10.3841 25.8119 10.4995 25.6668 10.6503 25.5639C10.8034 25.4588 10.9851 25.4063 11.1953 25.4063C11.4055 25.4063 11.5849 25.4588 11.7334 25.5639C11.8843 25.6668 11.9996 25.8119 12.0796 25.9992C12.1596 26.1843 12.1996 26.4003 12.1996 26.647C12.1996 26.8938 12.1596 27.1109 12.0796 27.2983C11.9996 27.4834 11.8843 27.6285 11.7334 27.7336C11.5849 27.8364 11.4055 27.8878 11.1953 27.8878ZM11.1919 27.6342C11.329 27.6342 11.4512 27.5953 11.5586 27.5176C11.666 27.4377 11.7506 27.3246 11.8123 27.1783C11.874 27.0298 11.9048 26.8527 11.9048 26.647C11.9048 26.4414 11.874 26.2654 11.8123 26.1192C11.7506 25.9707 11.666 25.8576 11.5586 25.7799C11.4512 25.7022 11.329 25.6633 11.1919 25.6633C11.0548 25.6633 10.9314 25.7022 10.8217 25.7799C10.7143 25.8576 10.6298 25.9707 10.5681 26.1192C10.5087 26.2654 10.479 26.4414 10.479 26.647C10.479 26.8527 10.5087 27.0298 10.5681 27.1783C10.6298 27.3246 10.7143 27.4377 10.8217 27.5176C10.9314 27.5953 11.0548 27.6342 11.1919 27.6342ZM13.744 27.8878C13.5338 27.8878 13.3521 27.8364 13.199 27.7336C13.0482 27.6285 12.9328 27.4834 12.8529 27.2983C12.7729 27.1109 12.7329 26.8938 12.7329 26.647C12.7329 26.4003 12.7729 26.1843 12.8529 25.9992C12.9328 25.8119 13.0482 25.6668 13.199 25.5639C13.3521 25.4588 13.5338 25.4063 13.744 25.4063C13.9542 25.4063 14.1336 25.4588 14.2821 25.5639C14.4329 25.6668 14.5483 25.8119 14.6283 25.9992C14.7083 26.1843 14.7483 26.4003 14.7483 26.647C14.7483 26.8938 14.7083 27.1109 14.6283 27.2983C14.5483 27.4834 14.4329 27.6285 14.2821 27.7336C14.1336 27.8364 13.9542 27.8878 13.744 27.8878ZM13.7406 27.6342C13.8777 27.6342 13.9999 27.5953 14.1073 27.5176C14.2147 27.4377 14.2993 27.3246 14.361 27.1783C14.4227 27.0298 14.4535 26.8527 14.4535 26.647C14.4535 26.4414 14.4227 26.2654 14.361 26.1192C14.2993 25.9707 14.2147 25.8576 14.1073 25.7799C13.9999 25.7022 13.8777 25.6633 13.7406 25.6633C13.6035 25.6633 13.4801 25.7022 13.3704 25.7799C13.263 25.8576 13.1785 25.9707 13.1168 26.1192C13.0574 26.2654 13.0277 26.4414 13.0277 26.647C13.0277 26.8527 13.0574 27.0298 13.1168 27.1783C13.1785 27.3246 13.263 27.4377 13.3704 27.5176C13.4801 27.5953 13.6035 27.6342 13.7406 27.6342ZM16.4607 27.8467V27.3325H15.2439V27.1098L16.4092 25.4474H16.7451V27.0789H17.1016V27.3325H16.7451V27.8467H16.4607ZM15.5626 27.0789H16.4744V25.7662L15.5626 27.0789ZM18.7037 27.8878C18.4706 27.8878 18.2684 27.8364 18.097 27.7336C17.9279 27.6285 17.7977 27.4834 17.7063 27.2983C17.6149 27.1109 17.5692 26.8938 17.5692 26.647C17.5692 26.4003 17.6149 26.1843 17.7063 25.9992C17.7977 25.8119 17.9279 25.6668 18.097 25.5639C18.2684 25.4588 18.4706 25.4063 18.7037 25.4063C18.9779 25.4063 19.2007 25.4714 19.3721 25.6016C19.5435 25.7319 19.6531 25.9158 19.7011 26.1535H19.3824C19.3458 26.005 19.2715 25.8861 19.1596 25.797C19.0476 25.7056 18.8957 25.6599 18.7037 25.6599C18.5323 25.6599 18.3838 25.6999 18.2581 25.7799C18.1325 25.8576 18.0353 25.9707 17.9668 26.1192C17.8982 26.2654 17.864 26.4414 17.864 26.647C17.864 26.8527 17.8982 27.0298 17.9668 27.1783C18.0353 27.3246 18.1325 27.4377 18.2581 27.5176C18.3838 27.5953 18.5323 27.6342 18.7037 27.6342C18.8957 27.6342 19.0476 27.5908 19.1596 27.5039C19.2715 27.4148 19.3458 27.2971 19.3824 27.1509H19.7011C19.6531 27.3817 19.5435 27.5622 19.3721 27.6924C19.2007 27.8227 18.9779 27.8878 18.7037 27.8878Z" fill="#4D4D63" fill-opacity="0.76"/>
</svg>
