<svg width="25" height="29" viewBox="0 0 25 29" fill="none" xmlns="http://www.w3.org/2000/svg">
<rect width="24.9275" height="28.8467" fill="#FEFFFF"/>
<rect width="24.9275" height="24.3066" fill="#7C1C52"/>
<path d="M6.55676 27.8467L7.49248 25.6942H6.17631V25.4474H7.78725V25.6633L6.86181 27.8467H6.55676ZM9.329 27.8878C9.09592 27.8878 8.8937 27.8364 8.72232 27.7336C8.55323 27.6285 8.42299 27.4834 8.33158 27.2983C8.24018 27.1109 8.19448 26.8938 8.19448 26.647C8.19448 26.4003 8.24018 26.1843 8.33158 25.9992C8.42299 25.8119 8.55323 25.6668 8.72232 25.5639C8.8937 25.4588 9.09592 25.4063 9.329 25.4063C9.6032 25.4063 9.82599 25.4714 9.99737 25.6016C10.1687 25.7319 10.2784 25.9158 10.3264 26.1535H10.0076C9.97109 26.005 9.89683 25.8861 9.78486 25.797C9.67289 25.7056 9.52094 25.6599 9.329 25.6599C9.15762 25.6599 9.00909 25.6999 8.88342 25.7799C8.75774 25.8576 8.66063 25.9707 8.59208 26.1192C8.52353 26.2654 8.48925 26.4414 8.48925 26.647C8.48925 26.8527 8.52353 27.0298 8.59208 27.1783C8.66063 27.3246 8.75774 27.4377 8.88342 27.5176C9.00909 27.5953 9.15762 27.6342 9.329 27.6342C9.52094 27.6342 9.67289 27.5908 9.78486 27.5039C9.89683 27.4148 9.97109 27.2971 10.0076 27.1509H10.3264C10.2784 27.3817 10.1687 27.5622 9.99737 27.6924C9.82599 27.8227 9.6032 27.8878 9.329 27.8878ZM11.2134 27.8467V25.7696L10.8021 25.8724V25.6668L11.3094 25.4474H11.5048V27.8467H11.2134ZM13.2649 27.8878C13.0318 27.8878 12.8296 27.8364 12.6582 27.7336C12.4891 27.6285 12.3589 27.4834 12.2675 27.2983C12.1761 27.1109 12.1304 26.8938 12.1304 26.647C12.1304 26.4003 12.1761 26.1843 12.2675 25.9992C12.3589 25.8119 12.4891 25.6668 12.6582 25.5639C12.8296 25.4588 13.0318 25.4063 13.2649 25.4063C13.5391 25.4063 13.7619 25.4714 13.9333 25.6016C14.1047 25.7319 14.2143 25.9158 14.2623 26.1535H13.9436C13.907 26.005 13.8327 25.8861 13.7208 25.797C13.6088 25.7056 13.4568 25.6599 13.2649 25.6599C13.0935 25.6599 12.945 25.6999 12.8193 25.7799C12.6937 25.8576 12.5965 25.9707 12.528 26.1192C12.4594 26.2654 12.4252 26.4414 12.4252 26.647C12.4252 26.8527 12.4594 27.0298 12.528 27.1783C12.5965 27.3246 12.6937 27.4377 12.8193 27.5176C12.945 27.5953 13.0935 27.6342 13.2649 27.6342C13.4568 27.6342 13.6088 27.5908 13.7208 27.5039C13.8327 27.4148 13.907 27.2971 13.9436 27.1509H14.2623C14.2143 27.3817 14.1047 27.5622 13.9333 27.6924C13.7619 27.8227 13.5391 27.8878 13.2649 27.8878ZM15.6943 27.8878C15.5298 27.8878 15.387 27.8581 15.2659 27.7987C15.1471 27.7393 15.0522 27.6582 14.9814 27.5553C14.9129 27.4525 14.8694 27.3371 14.8512 27.2092H15.1322C15.1596 27.3371 15.2225 27.4411 15.3207 27.5211C15.419 27.601 15.5447 27.641 15.6978 27.641C15.812 27.641 15.9091 27.6147 15.9891 27.5622C16.0714 27.5096 16.1342 27.4377 16.1776 27.3463C16.2233 27.2549 16.2462 27.1532 16.2462 27.0412C16.2462 26.9247 16.2233 26.8218 16.1776 26.7327C16.1319 26.6436 16.0691 26.5751 15.9891 26.5271C15.9091 26.4768 15.8154 26.4517 15.708 26.4517C15.5778 26.4517 15.467 26.4802 15.3756 26.5374C15.2842 26.5945 15.2156 26.6676 15.1699 26.7567H14.8923L15.0911 25.4474H16.3593V25.6976H15.3139L15.1802 26.4345C15.2373 26.3683 15.3127 26.3146 15.4064 26.2734C15.5024 26.23 15.6132 26.2083 15.7389 26.2083C15.8577 26.2083 15.9651 26.2289 16.0611 26.27C16.157 26.3111 16.2393 26.3694 16.3079 26.4448C16.3764 26.5202 16.429 26.6082 16.4655 26.7087C16.5044 26.8093 16.5238 26.919 16.5238 27.0378C16.5238 27.1543 16.5044 27.264 16.4655 27.3668C16.429 27.4674 16.3753 27.5576 16.3044 27.6376C16.2336 27.7153 16.1468 27.777 16.0439 27.8227C15.9411 27.8661 15.8246 27.8878 15.6943 27.8878ZM17.0885 27.8467V27.6445C17.2507 27.5165 17.405 27.3874 17.5512 27.2571C17.6997 27.1269 17.8311 26.9978 17.9454 26.8698C18.0596 26.7396 18.1487 26.6128 18.2127 26.4894C18.279 26.366 18.3121 26.2472 18.3121 26.1329C18.3121 26.0484 18.2973 25.9707 18.2676 25.8998C18.2379 25.8267 18.1899 25.7673 18.1236 25.7216C18.0596 25.6759 17.9728 25.6531 17.8631 25.6531C17.7557 25.6531 17.6666 25.677 17.5958 25.725C17.5249 25.7707 17.4712 25.8324 17.4347 25.9101C17.4004 25.9855 17.3833 26.0689 17.3833 26.1603H17.1056C17.1079 26.0027 17.141 25.8678 17.205 25.7559C17.2713 25.6416 17.3615 25.5548 17.4758 25.4954C17.59 25.436 17.7203 25.4063 17.8665 25.4063C18.0105 25.4063 18.1373 25.4337 18.247 25.4885C18.3567 25.5411 18.4424 25.6199 18.5041 25.725C18.568 25.8301 18.6 25.9627 18.6 26.1226C18.6 26.2346 18.576 26.3466 18.528 26.4585C18.4823 26.5705 18.4207 26.6802 18.343 26.7876C18.2653 26.8927 18.1784 26.9944 18.0825 27.0926C17.9888 27.1909 17.8917 27.2834 17.7911 27.3703C17.6929 27.4571 17.6003 27.5359 17.5135 27.6068H18.6823V27.8467H17.0885Z" fill="#4D4D63" fill-opacity="0.76"/>
</svg>
