<svg width="25" height="29" viewBox="0 0 25 29" fill="none" xmlns="http://www.w3.org/2000/svg">
<rect width="24.9023" height="28.8194" fill="#FEFFFF"/>
<rect width="24.9023" height="24.2798" fill="#C7AADB"/>
<path d="M6.75831 27.8604C6.52547 27.8604 6.32345 27.8091 6.15225 27.7063C5.98333 27.6013 5.85321 27.4564 5.7619 27.2715C5.67059 27.0843 5.62494 26.8674 5.62494 26.6209C5.62494 26.3744 5.67059 26.1587 5.7619 25.9738C5.85321 25.7866 5.98333 25.6416 6.15225 25.5389C6.32345 25.4339 6.52547 25.3814 6.75831 25.3814C7.03223 25.3814 7.2548 25.4465 7.426 25.5766C7.5972 25.7067 7.70677 25.8904 7.75471 26.1278H7.43627C7.39975 25.9795 7.32556 25.8608 7.21371 25.7717C7.10186 25.6804 6.95006 25.6348 6.75831 25.6348C6.5871 25.6348 6.43873 25.6747 6.31318 25.7546C6.18763 25.8322 6.09061 25.9452 6.02213 26.0936C5.95365 26.2397 5.91941 26.4155 5.91941 26.6209C5.91941 26.8264 5.95365 27.0033 6.02213 27.1516C6.09061 27.2977 6.18763 27.4107 6.31318 27.4906C6.43873 27.5682 6.5871 27.607 6.75831 27.607C6.95006 27.607 7.10186 27.5637 7.21371 27.4769C7.32556 27.3879 7.39975 27.2703 7.43627 27.1242H7.75471C7.70677 27.3548 7.5972 27.5351 7.426 27.6653C7.2548 27.7954 7.03223 27.8604 6.75831 27.8604ZM8.59291 27.8193L9.52768 25.669H8.21284V25.4225H9.82215V25.6382L8.89766 27.8193H8.59291ZM9.96003 27.8193L10.8434 25.4225H11.1482L12.0282 27.8193H11.7234L10.9941 25.782L10.2613 27.8193H9.96003ZM10.3641 27.203L10.4462 26.9702H11.5317L11.6139 27.203H10.3641ZM12.4393 27.8193L13.3227 25.4225H13.6274L14.5074 27.8193H14.2027L13.4733 25.782L12.7406 27.8193H12.4393ZM12.8433 27.203L12.9255 26.9702H14.0109L14.0931 27.203H12.8433ZM15.0726 27.8193V25.4225H15.778C16.0587 25.4225 16.2893 25.4716 16.4696 25.5697C16.6522 25.6656 16.7869 25.8037 16.8737 25.984C16.9627 26.1621 17.0072 26.3767 17.0072 26.6278C17.0072 26.8743 16.9627 27.0866 16.8737 27.2646C16.7869 27.4427 16.6522 27.5797 16.4696 27.6755C16.2893 27.7714 16.0587 27.8193 15.778 27.8193H15.0726ZM15.3602 27.5797H15.7711C16.0039 27.5797 16.1888 27.542 16.3258 27.4667C16.4628 27.389 16.5609 27.2795 16.6203 27.1379C16.6796 26.9941 16.7093 26.8241 16.7093 26.6278C16.7093 26.4269 16.6796 26.2545 16.6203 26.1107C16.5609 25.9669 16.4628 25.8562 16.3258 25.7786C16.1888 25.701 16.0039 25.6622 15.7711 25.6622H15.3602V27.5797ZM17.6354 27.8193V25.4225H18.4777C18.6467 25.4225 18.7859 25.4499 18.8955 25.5047C19.0073 25.5572 19.0907 25.6302 19.1454 25.7238C19.2002 25.8151 19.2276 25.9178 19.2276 26.032C19.2276 26.1552 19.2002 26.258 19.1454 26.3401C19.0929 26.4223 19.0233 26.4851 18.9366 26.5285C18.8521 26.5718 18.7619 26.5981 18.6661 26.6072L18.714 26.573C18.8167 26.5753 18.9115 26.6026 18.9982 26.6552C19.085 26.7077 19.1534 26.7784 19.2037 26.8674C19.2562 26.9565 19.2824 27.0558 19.2824 27.1653C19.2824 27.2863 19.2527 27.397 19.1934 27.4975C19.134 27.5956 19.0461 27.6744 18.9297 27.7337C18.8156 27.7908 18.6741 27.8193 18.5051 27.8193H17.6354ZM17.9231 27.5797H18.4743C18.6364 27.5797 18.7619 27.542 18.851 27.4667C18.9423 27.389 18.9879 27.2818 18.9879 27.1448C18.9879 27.0101 18.9411 26.9028 18.8475 26.8229C18.7562 26.7408 18.6296 26.6997 18.4675 26.6997H17.9231V27.5797ZM17.9231 26.4703H18.4572C18.6124 26.4703 18.73 26.4337 18.8099 26.3607C18.8921 26.2876 18.9332 26.1883 18.9332 26.0628C18.9332 25.9418 18.8921 25.8448 18.8099 25.7717C18.73 25.6987 18.609 25.6622 18.4469 25.6622H17.9231V26.4703Z" fill="#4D4D63" fill-opacity="0.76"/>
</svg>
