<svg width="25" height="29" viewBox="0 0 25 29" fill="none" xmlns="http://www.w3.org/2000/svg">
<rect width="24.9275" height="28.8467" fill="#FEFFFF"/>
<rect width="24.9275" height="24.3066" fill="#FFA1CC"/>
<path d="M6.41781 27.8467V25.4474H7.87795V25.6839H6.70573V26.5271H7.70314V26.7602H6.70573V27.8467H6.41781ZM8.45773 27.8467V25.4474H9.91786V25.6839H8.74565V26.5271H9.74306V26.7602H8.74565V27.8467H8.45773ZM10.0991 27.8467L10.9834 25.4474H11.2884L12.1693 27.8467H11.8642L11.1342 25.8073L10.4007 27.8467H10.0991ZM10.5035 27.2297L10.5858 26.9967H11.6723L11.7546 27.2297H10.5035ZM12.8952 27.8467V25.7696L12.4839 25.8724V25.6668L12.9912 25.4474H13.1866V27.8467H12.8952ZM14.9467 27.8878C14.7136 27.8878 14.5114 27.8364 14.34 27.7336C14.1709 27.6285 14.0407 27.4834 13.9493 27.2983C13.8579 27.1109 13.8122 26.8938 13.8122 26.647C13.8122 26.4003 13.8579 26.1843 13.9493 25.9992C14.0407 25.8119 14.1709 25.6668 14.34 25.5639C14.5114 25.4588 14.7136 25.4063 14.9467 25.4063C15.2209 25.4063 15.4437 25.4714 15.615 25.6016C15.7864 25.7319 15.8961 25.9158 15.9441 26.1535H15.6253C15.5888 26.005 15.5145 25.8861 15.4025 25.797C15.2906 25.7056 15.1386 25.6599 14.9467 25.6599C14.7753 25.6599 14.6268 25.6999 14.5011 25.7799C14.3754 25.8576 14.2783 25.9707 14.2098 26.1192C14.1412 26.2654 14.1069 26.4414 14.1069 26.647C14.1069 26.8527 14.1412 27.0298 14.2098 27.1783C14.2783 27.3246 14.3754 27.4377 14.5011 27.5176C14.6268 27.5953 14.7753 27.6342 14.9467 27.6342C15.1386 27.6342 15.2906 27.5908 15.4025 27.5039C15.5145 27.4148 15.5888 27.2971 15.6253 27.1509H15.9441C15.8961 27.3817 15.7864 27.5622 15.615 27.6924C15.4437 27.8227 15.2209 27.8878 14.9467 27.8878ZM17.6092 27.8878C17.3761 27.8878 17.1739 27.8364 17.0025 27.7336C16.8334 27.6285 16.7032 27.4834 16.6118 27.2983C16.5204 27.1109 16.4747 26.8938 16.4747 26.647C16.4747 26.4003 16.5204 26.1843 16.6118 25.9992C16.7032 25.8119 16.8334 25.6668 17.0025 25.5639C17.1739 25.4588 17.3761 25.4063 17.6092 25.4063C17.8834 25.4063 18.1062 25.4714 18.2775 25.6016C18.4489 25.7319 18.5586 25.9158 18.6066 26.1535H18.2878C18.2513 26.005 18.177 25.8861 18.065 25.797C17.9531 25.7056 17.8011 25.6599 17.6092 25.6599C17.4378 25.6599 17.2893 25.6999 17.1636 25.7799C17.0379 25.8576 16.9408 25.9707 16.8723 26.1192C16.8037 26.2654 16.7694 26.4414 16.7694 26.647C16.7694 26.8527 16.8037 27.0298 16.8723 27.1783C16.9408 27.3246 17.0379 27.4377 17.1636 27.5176C17.2893 27.5953 17.4378 27.6342 17.6092 27.6342C17.8011 27.6342 17.9531 27.5908 18.065 27.5039C18.177 27.4148 18.2513 27.2971 18.2878 27.1509H18.6066C18.5586 27.3817 18.4489 27.5622 18.2775 27.6924C18.1062 27.8227 17.8834 27.8878 17.6092 27.8878Z" fill="#4D4D63" fill-opacity="0.76"/>
</svg>
