<svg width="25" height="29" viewBox="0 0 25 29" fill="none" xmlns="http://www.w3.org/2000/svg">
<rect width="24.9275" height="28.8467" fill="#FEFFFF"/>
<rect width="24.9275" height="24.3066" fill="#F4BFD2"/>
<path d="M6.73315 27.8467V25.6655H8.06054V25.8805H6.99489V26.647H7.90163V26.8589H6.99489V27.8467H6.73315ZM9.57538 27.8467V27.3793H8.46922V27.1768L9.52864 25.6655H9.834V27.1487H10.1581V27.3793H9.834V27.8467H9.57538ZM8.759 27.1487H9.58784V25.9553L8.759 27.1487ZM10.6673 27.8467V25.6655H11.4338C11.5875 25.6655 11.7142 25.6904 11.8139 25.7403C11.9157 25.7881 11.9915 25.8546 12.0414 25.9397C12.0913 26.0228 12.1162 26.1163 12.1162 26.2202C12.1162 26.3323 12.0913 26.4258 12.0414 26.5006C11.9936 26.5754 11.9303 26.6325 11.8513 26.672C11.7745 26.7114 11.6924 26.7353 11.6052 26.7436L11.6488 26.7125C11.7423 26.7146 11.8285 26.7395 11.9074 26.7873C11.9864 26.835 12.0487 26.8994 12.0944 26.9804C12.1422 27.0615 12.166 27.1518 12.166 27.2515C12.166 27.3616 12.139 27.4624 12.085 27.5538C12.031 27.6431 11.951 27.7148 11.8451 27.7688C11.7412 27.8207 11.6124 27.8467 11.4587 27.8467H10.6673ZM10.929 27.6286H11.4307C11.5782 27.6286 11.6924 27.5943 11.7734 27.5257C11.8565 27.4551 11.8981 27.3575 11.8981 27.2328C11.8981 27.1103 11.8555 27.0126 11.7703 26.9399C11.6872 26.8652 11.5719 26.8278 11.4244 26.8278H10.929V27.6286ZM10.929 26.619H11.4151C11.5564 26.619 11.6633 26.5858 11.736 26.5193C11.8108 26.4528 11.8482 26.3625 11.8482 26.2482C11.8482 26.1381 11.8108 26.0498 11.736 25.9833C11.6633 25.9169 11.5532 25.8836 11.4057 25.8836H10.929V26.619ZM12.7317 27.8467V25.6655H14.0591V25.8805H12.9934V26.647H13.9002V26.8589H12.9934V27.8467H12.7317ZM14.5862 27.8467V25.6655H15.2281C15.4836 25.6655 15.6934 25.7102 15.8575 25.7995C16.0237 25.8868 16.1462 26.0124 16.2252 26.1765C16.3062 26.3386 16.3467 26.5338 16.3467 26.7623C16.3467 26.9867 16.3062 27.1799 16.2252 27.3419C16.1462 27.5039 16.0237 27.6286 15.8575 27.7158C15.6934 27.8031 15.4836 27.8467 15.2281 27.8467H14.5862ZM14.8479 27.6286H15.2218C15.4337 27.6286 15.602 27.5943 15.7266 27.5257C15.8512 27.4551 15.9406 27.3554 15.9946 27.2266C16.0486 27.0957 16.0756 26.941 16.0756 26.7623C16.0756 26.5795 16.0486 26.4227 15.9946 26.2918C15.9406 26.161 15.8512 26.0602 15.7266 25.9896C15.602 25.919 15.4337 25.8836 15.2218 25.8836H14.8479V27.6286ZM16.8324 27.8467V27.6628C16.9799 27.5465 17.1201 27.4291 17.253 27.3107C17.3881 27.1923 17.5075 27.075 17.6114 26.9586C17.7152 26.8402 17.7962 26.7249 17.8544 26.6128C17.9147 26.5006 17.9448 26.3926 17.9448 26.2887C17.9448 26.2118 17.9313 26.1412 17.9043 26.0768C17.8773 26.0104 17.8336 25.9563 17.7734 25.9148C17.7152 25.8732 17.6363 25.8525 17.5366 25.8525C17.439 25.8525 17.3579 25.8743 17.2935 25.9179C17.2291 25.9595 17.1803 26.0155 17.1471 26.0862C17.1159 26.1547 17.1004 26.2305 17.1004 26.3136H16.848C16.85 26.1703 16.8802 26.0477 16.9383 25.946C16.9986 25.8421 17.0806 25.7632 17.1845 25.7091C17.2883 25.6551 17.4068 25.6281 17.5397 25.6281C17.6706 25.6281 17.7859 25.6531 17.8856 25.7029C17.9853 25.7507 18.0632 25.8224 18.1193 25.9179C18.1774 26.0135 18.2065 26.134 18.2065 26.2794C18.2065 26.3811 18.1847 26.4829 18.1411 26.5847C18.0995 26.6865 18.0434 26.7862 17.9728 26.8839C17.9022 26.9794 17.8233 27.0718 17.736 27.1612C17.6508 27.2505 17.5625 27.3346 17.4711 27.4136C17.3818 27.4925 17.2977 27.5642 17.2188 27.6286H18.2813V27.8467H16.8324Z" fill="#4D4D63" fill-opacity="0.76"/>
</svg>
