<svg width="25" height="29" viewBox="0 0 25 29" fill="none" xmlns="http://www.w3.org/2000/svg">
<rect width="24.9023" height="28.8216" fill="#FEFFFF"/>
<rect width="24.9023" height="24.282" fill="#4F2170"/>
<path d="M7.74243 27.8218V27.3082H6.52689V27.0856L7.69107 25.4249H8.02663V27.0548H8.38273V27.3082H8.02663V27.8218H7.74243ZM6.84533 27.0548H7.75613V25.7434L6.84533 27.0548ZM8.9423 27.8218V25.4249H10.401V25.6612H9.22992V26.5035H10.2263V26.7363H9.22992V27.8218H8.9423ZM10.9425 27.8218V27.6198C11.1046 27.4919 11.2587 27.363 11.4047 27.2328C11.5531 27.1027 11.6844 26.9737 11.7985 26.8459C11.9126 26.7158 12.0017 26.5891 12.0656 26.4658C12.1318 26.3426 12.1649 26.2239 12.1649 26.1097C12.1649 26.0253 12.15 25.9477 12.1204 25.8769C12.0907 25.8039 12.0428 25.7445 11.9766 25.6989C11.9126 25.6532 11.8259 25.6304 11.7163 25.6304C11.609 25.6304 11.52 25.6543 11.4493 25.7023C11.3785 25.7479 11.3248 25.8096 11.2883 25.8872C11.2541 25.9625 11.237 26.0458 11.237 26.1371H10.9596C10.9619 25.9796 10.995 25.8449 11.0589 25.7331C11.1251 25.619 11.2153 25.5322 11.3294 25.4729C11.4436 25.4135 11.5737 25.3838 11.7198 25.3838C11.8636 25.3838 11.9903 25.4112 12.0998 25.466C12.2094 25.5185 12.295 25.5973 12.3566 25.7023C12.4206 25.8073 12.4525 25.9397 12.4525 26.0995C12.4525 26.2113 12.4285 26.3232 12.3806 26.435C12.3349 26.5469 12.2733 26.6565 12.1957 26.7637C12.1181 26.8687 12.0313 26.9703 11.9355 27.0685C11.8419 27.1666 11.7449 27.2591 11.6444 27.3458C11.5463 27.4326 11.4538 27.5113 11.3671 27.5821H12.5347V27.8218H10.9425ZM13.4221 27.8218V25.7468L13.0112 25.8495V25.6441L13.518 25.4249H13.7132V27.8218H13.4221ZM14.6463 27.8218L15.5811 25.6715H14.2662V25.4249H15.8755V25.6406L14.951 27.8218H14.6463ZM17.3359 27.8629C17.1259 27.8629 16.9444 27.8115 16.7915 27.7088C16.6408 27.6038 16.5256 27.4588 16.4457 27.2739C16.3658 27.0867 16.3258 26.8699 16.3258 26.6234C16.3258 26.3768 16.3658 26.1611 16.4457 25.9762C16.5256 25.789 16.6408 25.6441 16.7915 25.5413C16.9444 25.4363 17.1259 25.3838 17.3359 25.3838C17.5459 25.3838 17.7251 25.4363 17.8735 25.5413C18.0242 25.6441 18.1394 25.789 18.2193 25.9762C18.2992 26.1611 18.3392 26.3768 18.3392 26.6234C18.3392 26.8699 18.2992 27.0867 18.2193 27.2739C18.1394 27.4588 18.0242 27.6038 17.8735 27.7088C17.7251 27.8115 17.5459 27.8629 17.3359 27.8629ZM17.3325 27.6095C17.4695 27.6095 17.5916 27.5707 17.6989 27.4931C17.8062 27.4132 17.8906 27.3002 17.9523 27.1541C18.0139 27.0057 18.0447 26.8288 18.0447 26.6234C18.0447 26.4179 18.0139 26.2421 17.9523 26.096C17.8906 25.9477 17.8062 25.8347 17.6989 25.7571C17.5916 25.6795 17.4695 25.6406 17.3325 25.6406C17.1955 25.6406 17.0723 25.6795 16.9627 25.7571C16.8554 25.8347 16.771 25.9477 16.7093 26.096C16.65 26.2421 16.6203 26.4179 16.6203 26.6234C16.6203 26.8288 16.65 27.0057 16.7093 27.1541C16.771 27.3002 16.8554 27.4132 16.9627 27.4931C17.0723 27.5707 17.1955 27.6095 17.3325 27.6095Z" fill="#4D4D63" fill-opacity="0.76"/>
</svg>
