<svg width="25" height="29" viewBox="0 0 25 29" fill="none" xmlns="http://www.w3.org/2000/svg">
<rect width="24.9275" height="28.8467" fill="#FEFFFF"/>
<rect width="24.9275" height="24.3066" fill="#EE72AA"/>
<path d="M6.71033 27.8467V25.6655H8.05953V25.8805H6.97207V26.6408H7.96605V26.8527H6.97207V27.6317H8.05953V27.8467H6.71033ZM8.65913 27.8467V25.6655H10.0083V25.8805H8.92087V26.6408H9.91486V26.8527H8.92087V27.6317H10.0083V27.8467H8.65913ZM10.8042 27.8467L11.6549 25.8899H10.4584V25.6655H11.9229V25.8618L11.0816 27.8467H10.8042ZM12.3429 27.8467V27.6628C12.4904 27.5465 12.6306 27.4291 12.7636 27.3107C12.8986 27.1923 13.0181 27.075 13.1219 26.9586C13.2258 26.8402 13.3068 26.7249 13.365 26.6128C13.4252 26.5006 13.4553 26.3926 13.4553 26.2887C13.4553 26.2118 13.4418 26.1412 13.4148 26.0768C13.3878 26.0104 13.3442 25.9563 13.2839 25.9148C13.2258 25.8732 13.1468 25.8525 13.0471 25.8525C12.9495 25.8525 12.8685 25.8743 12.8041 25.9179C12.7397 25.9595 12.6909 26.0155 12.6576 26.0862C12.6265 26.1547 12.6109 26.2305 12.6109 26.3136H12.3585C12.3606 26.1703 12.3907 26.0477 12.4489 25.946C12.5091 25.8421 12.5912 25.7632 12.695 25.7091C12.7989 25.6551 12.9173 25.6281 13.0502 25.6281C13.1811 25.6281 13.2964 25.6531 13.3961 25.7029C13.4958 25.7507 13.5737 25.8224 13.6298 25.9179C13.688 26.0135 13.7171 26.134 13.7171 26.2794C13.7171 26.3811 13.6952 26.4829 13.6516 26.5847C13.6101 26.6865 13.554 26.7862 13.4834 26.8839C13.4127 26.9794 13.3338 27.0718 13.2466 27.1612C13.1614 27.2505 13.0731 27.3346 12.9817 27.4136C12.8924 27.4925 12.8082 27.5642 12.7293 27.6286H13.7918V27.8467H12.3429ZM14.2193 27.8467L15.0232 25.6655H15.3005L16.1013 27.8467H15.824L15.1603 25.9927L14.4935 27.8467H14.2193ZM14.5869 27.2858L14.6617 27.0739H15.6495L15.7243 27.2858H14.5869ZM16.4754 27.8467L17.2793 25.6655H17.5566L18.3574 27.8467H18.0801L17.4164 25.9927L16.7496 27.8467H16.4754ZM16.8431 27.2858L16.9179 27.0739H17.9056L17.9804 27.2858H16.8431Z" fill="#4D4D63" fill-opacity="0.76"/>
</svg>
