<svg width="25" height="29" viewBox="0 0 25 29" fill="none" xmlns="http://www.w3.org/2000/svg">
<rect width="24.9023" height="28.8216" fill="#FEFFFF"/>
<rect width="24.9023" height="24.282" fill="#A12D96"/>
<path d="M6.10668 27.8218L6.99009 25.4249H7.29483L8.17482 27.8218H7.87007L7.14075 25.7845L6.408 27.8218H6.10668ZM6.51072 27.2054L6.5929 26.9726H7.67833L7.7605 27.2054H6.51072ZM8.9 27.8218V25.7468L8.48911 25.8495V25.6441L8.99587 25.4249H9.19104V27.8218H8.9ZM9.8708 27.8218V27.6198C10.0329 27.4919 10.187 27.363 10.3331 27.2328C10.4814 27.1027 10.6127 26.9737 10.7268 26.8459C10.841 26.7158 10.93 26.5891 10.9939 26.4658C11.0601 26.3426 11.0932 26.2239 11.0932 26.1097C11.0932 26.0253 11.0784 25.9477 11.0487 25.8769C11.019 25.8039 10.9711 25.7445 10.9049 25.6989C10.841 25.6532 10.7542 25.6304 10.6446 25.6304C10.5374 25.6304 10.4483 25.6543 10.3776 25.7023C10.3068 25.7479 10.2532 25.8096 10.2166 25.8872C10.1824 25.9625 10.1653 26.0458 10.1653 26.1371H9.88792C9.8902 25.9796 9.9233 25.8449 9.98722 25.7331C10.0534 25.619 10.1436 25.5322 10.2577 25.4729C10.3719 25.4135 10.502 25.3838 10.6481 25.3838C10.7919 25.3838 10.9186 25.4112 11.0281 25.466C11.1377 25.5185 11.2233 25.5973 11.2849 25.7023C11.3489 25.8073 11.3808 25.9397 11.3808 26.0995C11.3808 26.2113 11.3568 26.3232 11.3089 26.435C11.2633 26.5469 11.2016 26.6565 11.124 26.7637C11.0464 26.8687 10.9597 26.9703 10.8638 27.0685C10.7702 27.1666 10.6732 27.2591 10.5727 27.3458C10.4746 27.4326 10.3821 27.5113 10.2954 27.5821H11.463V27.8218H9.8708ZM12.0868 27.8218V25.4249H12.7921C13.0729 25.4249 13.3034 25.474 13.4838 25.5722C13.6664 25.668 13.8011 25.8061 13.8878 25.9865C13.9768 26.1645 14.0214 26.3791 14.0214 26.6302C14.0214 26.8767 13.9768 27.089 13.8878 27.2671C13.8011 27.4451 13.6664 27.5821 13.4838 27.678C13.3034 27.7738 13.0729 27.8218 12.7921 27.8218H12.0868ZM12.3744 27.5821H12.7853C13.0181 27.5821 13.203 27.5444 13.34 27.4691C13.4769 27.3915 13.5751 27.2819 13.6344 27.1404C13.6938 26.9966 13.7235 26.8265 13.7235 26.6302C13.7235 26.4293 13.6938 26.257 13.6344 26.1132C13.5751 25.9694 13.4769 25.8586 13.34 25.781C13.203 25.7034 13.0181 25.6646 12.7853 25.6646H12.3744V27.5821ZM15.4303 27.8629C15.2796 27.8629 15.1507 27.8343 15.0434 27.7773C14.9361 27.7179 14.8505 27.6392 14.7866 27.541C14.7249 27.4406 14.6873 27.331 14.6736 27.2123H14.9406C14.9635 27.3401 15.0183 27.4394 15.105 27.5102C15.1917 27.5787 15.3013 27.6129 15.4337 27.6129C15.5547 27.6129 15.662 27.5764 15.7556 27.5033C15.8492 27.4303 15.9245 27.3196 15.9816 27.1712C16.0409 27.0205 16.074 26.8299 16.0809 26.5994C16.0809 26.5925 16.0809 26.5857 16.0809 26.5788C16.0809 26.572 16.0809 26.5651 16.0809 26.5583C16.0466 26.6291 15.9964 26.6953 15.9302 26.7569C15.864 26.8185 15.7852 26.8676 15.6939 26.9041C15.6049 26.9406 15.5045 26.9589 15.3926 26.9589C15.2579 26.9589 15.1301 26.927 15.0091 26.863C14.8904 26.7991 14.7934 26.7101 14.7181 26.596C14.645 26.4795 14.6085 26.3437 14.6085 26.1885C14.6085 26.0538 14.6416 25.9248 14.7078 25.8016C14.774 25.6783 14.8687 25.5779 14.992 25.5003C15.1153 25.4226 15.2614 25.3838 15.4303 25.3838C15.6015 25.3838 15.7464 25.4169 15.8651 25.4831C15.9838 25.5471 16.0786 25.6338 16.1493 25.7434C16.2224 25.8507 16.2749 25.9728 16.3068 26.1097C16.3388 26.2467 16.3548 26.386 16.3548 26.5275C16.3548 26.79 16.3183 27.0217 16.2452 27.2226C16.1745 27.4234 16.0694 27.581 15.9302 27.6951C15.7932 27.8069 15.6266 27.8629 15.4303 27.8629ZM15.4508 26.709C15.5558 26.709 15.6506 26.685 15.735 26.637C15.8195 26.5891 15.8857 26.5241 15.9336 26.4419C15.9838 26.3597 16.009 26.2695 16.009 26.1714C16.009 26.0664 15.9838 25.9739 15.9336 25.894C15.8857 25.8141 15.8195 25.7514 15.735 25.7057C15.6506 25.66 15.5558 25.6372 15.4508 25.6372C15.3458 25.6372 15.2511 25.6612 15.1666 25.7091C15.0845 25.7548 15.0194 25.8176 14.9715 25.8974C14.9235 25.9773 14.8996 26.0698 14.8996 26.1748C14.8996 26.2821 14.9235 26.3757 14.9715 26.4556C15.0194 26.5355 15.0845 26.5982 15.1666 26.6439C15.2511 26.6873 15.3458 26.709 15.4508 26.709ZM17.8646 27.8629C17.6911 27.8629 17.545 27.8309 17.4263 27.767C17.3076 27.7008 17.2128 27.6141 17.1421 27.5068C17.0713 27.3972 17.0188 27.2739 16.9846 27.137C16.9526 27 16.9366 26.8608 16.9366 26.7192C16.9366 26.4544 16.9732 26.2227 17.0462 26.0241C17.1193 25.8233 17.2243 25.6669 17.3612 25.555C17.5005 25.4409 17.6671 25.3838 17.8611 25.3838C18.0118 25.3838 18.1408 25.4135 18.2481 25.4729C18.3576 25.5299 18.4444 25.6075 18.5083 25.7057C18.5722 25.8039 18.611 25.9134 18.6247 26.0344H18.3576C18.3348 25.9066 18.2789 25.8084 18.1898 25.7399C18.1031 25.6692 17.9924 25.6338 17.8577 25.6338C17.739 25.6338 17.6317 25.6715 17.5358 25.7468C17.44 25.8198 17.3635 25.9328 17.3064 26.0858C17.2517 26.2364 17.2197 26.4293 17.2106 26.6644C17.2106 26.6667 17.2106 26.6701 17.2106 26.6747C17.2106 26.6793 17.2106 26.6838 17.2106 26.6884C17.2471 26.6176 17.2973 26.5514 17.3612 26.4898C17.4274 26.4282 17.5062 26.3791 17.5975 26.3426C17.6888 26.3061 17.7904 26.2878 17.9022 26.2878C18.0369 26.2878 18.1636 26.3198 18.2823 26.3837C18.401 26.4476 18.4969 26.5378 18.5699 26.6542C18.6452 26.7683 18.6829 26.903 18.6829 27.0582C18.6829 27.1929 18.6498 27.3219 18.5836 27.4451C18.5197 27.5684 18.4261 27.6688 18.3028 27.7464C18.1796 27.8241 18.0335 27.8629 17.8646 27.8629ZM17.844 27.6095C17.949 27.6095 18.0426 27.5867 18.1248 27.541C18.2092 27.4931 18.2743 27.4292 18.32 27.3493C18.3679 27.2671 18.3919 27.1746 18.3919 27.0719C18.3919 26.9646 18.3679 26.871 18.32 26.7911C18.2743 26.7112 18.2092 26.6496 18.1248 26.6062C18.0426 26.5606 17.949 26.5378 17.844 26.5378C17.739 26.5378 17.6443 26.5617 17.5598 26.6097C17.4754 26.6576 17.408 26.7227 17.3578 26.8048C17.3099 26.8847 17.2859 26.9749 17.2859 27.0753C17.2859 27.1781 17.3099 27.2705 17.3578 27.3527C17.408 27.4326 17.4754 27.4953 17.5598 27.541C17.6443 27.5867 17.739 27.6095 17.844 27.6095Z" fill="#4D4D63" fill-opacity="0.76"/>
</svg>
