<svg width="25" height="29" viewBox="0 0 25 29" fill="none" xmlns="http://www.w3.org/2000/svg">
<rect width="24.9023" height="28.8194" fill="#FEFFFF"/>
<rect width="24.9023" height="24.2798" fill="#5E2154"/>
<path d="M7.38483 27.8604C7.22048 27.8604 7.07781 27.8307 6.95682 27.7714C6.83812 27.712 6.74339 27.631 6.67263 27.5283C6.60414 27.4256 6.56077 27.3103 6.54251 27.1825H6.82328C6.85068 27.3103 6.91345 27.4142 7.01161 27.494C7.10976 27.5739 7.23531 27.6139 7.38826 27.6139C7.50239 27.6139 7.59941 27.5876 7.6793 27.5351C7.76148 27.4826 7.82425 27.4107 7.86763 27.3194C7.91328 27.2281 7.93611 27.1265 7.93611 27.0147C7.93611 26.8983 7.91328 26.7955 7.86763 26.7065C7.82197 26.6175 7.7592 26.549 7.6793 26.5011C7.59941 26.4508 7.50582 26.4257 7.39853 26.4257C7.26841 26.4257 7.1577 26.4543 7.06639 26.5113C6.97508 26.5684 6.9066 26.6415 6.86095 26.7305H6.5836L6.7822 25.4225H8.0491V25.6724H7.00476L6.87122 26.4086C6.92829 26.3424 7.00362 26.2888 7.09721 26.2477C7.19308 26.2043 7.3038 26.1826 7.42934 26.1826C7.54805 26.1826 7.65533 26.2032 7.75121 26.2443C7.84708 26.2854 7.92926 26.3436 7.99774 26.4189C8.06622 26.4942 8.11872 26.5821 8.15525 26.6825C8.19405 26.783 8.21346 26.8926 8.21346 27.0113C8.21346 27.1277 8.19405 27.2372 8.15525 27.34C8.11872 27.4404 8.06508 27.5306 7.99432 27.6105C7.92355 27.6881 7.83681 27.7497 7.73409 27.7954C7.63136 27.8387 7.51495 27.8604 7.38483 27.8604ZM8.87208 27.8193V25.4225H10.3547V25.6587H9.1597V26.4942H10.252V26.7271H9.1597V27.5831H10.3547V27.8193H8.87208ZM10.9759 27.8193V27.6173C11.138 27.4895 11.2921 27.3605 11.4382 27.2304C11.5866 27.1003 11.7178 26.9713 11.832 26.8435C11.9461 26.7134 12.0351 26.5867 12.099 26.4634C12.1652 26.3401 12.1983 26.2214 12.1983 26.1073C12.1983 26.0228 12.1835 25.9452 12.1538 25.8745C12.1241 25.8014 12.0762 25.7421 12.01 25.6964C11.9461 25.6508 11.8593 25.6279 11.7498 25.6279C11.6425 25.6279 11.5535 25.6519 11.4827 25.6998C11.4119 25.7455 11.3583 25.8071 11.3218 25.8847C11.2875 25.9601 11.2704 26.0434 11.2704 26.1347H10.9931C10.9953 25.9772 11.0284 25.8425 11.0924 25.7307C11.1585 25.6165 11.2487 25.5298 11.3629 25.4704C11.477 25.4111 11.6071 25.3814 11.7532 25.3814C11.897 25.3814 12.0237 25.4088 12.1333 25.4636C12.2428 25.5161 12.3284 25.5948 12.3901 25.6998C12.454 25.8048 12.4859 25.9372 12.4859 26.097C12.4859 26.2089 12.462 26.3207 12.414 26.4326C12.3684 26.5444 12.3068 26.654 12.2291 26.7613C12.1515 26.8663 12.0648 26.9679 11.9689 27.066C11.8753 27.1642 11.7783 27.2566 11.6779 27.3434C11.5797 27.4301 11.4873 27.5089 11.4005 27.5797H12.5681V27.8193H10.9759ZM13.4555 27.8193V25.7443L13.0447 25.8471V25.6416L13.5514 25.4225H13.7466V27.8193H13.4555ZM15.2721 27.8604C15.1077 27.8604 14.9651 27.8307 14.8441 27.7714C14.7254 27.712 14.6307 27.631 14.5599 27.5283C14.4914 27.4256 14.448 27.3103 14.4298 27.1825H14.7105C14.7379 27.3103 14.8007 27.4142 14.8989 27.494C14.997 27.5739 15.1226 27.6139 15.2755 27.6139C15.3897 27.6139 15.4867 27.5876 15.5666 27.5351C15.6487 27.4826 15.7115 27.4107 15.7549 27.3194C15.8005 27.2281 15.8234 27.1265 15.8234 27.0147C15.8234 26.8983 15.8005 26.7955 15.7549 26.7065C15.7092 26.6175 15.6465 26.549 15.5666 26.5011C15.4867 26.4508 15.3931 26.4257 15.2858 26.4257C15.1557 26.4257 15.045 26.4543 14.9537 26.5113C14.8624 26.5684 14.7939 26.6415 14.7482 26.7305H14.4709L14.6695 25.4225H15.9364V25.6724H14.892L14.7585 26.4086C14.8156 26.3424 14.8909 26.2888 14.9845 26.2477C15.0803 26.2043 15.1911 26.1826 15.3166 26.1826C15.4353 26.1826 15.5426 26.2032 15.6385 26.2443C15.7343 26.2854 15.8165 26.3436 15.885 26.4189C15.9535 26.4942 16.006 26.5821 16.0425 26.6825C16.0813 26.783 16.1007 26.8926 16.1007 27.0113C16.1007 27.1277 16.0813 27.2372 16.0425 27.34C16.006 27.4404 15.9523 27.5306 15.8816 27.6105C15.8108 27.6881 15.7241 27.7497 15.6214 27.7954C15.5186 27.8387 15.4022 27.8604 15.2721 27.8604ZM17.8448 27.8193V27.3057H16.6292V27.0832L17.7934 25.4225H18.129V27.0523H18.4851V27.3057H18.129V27.8193H17.8448ZM16.9477 27.0523H17.8585V25.7409L16.9477 27.0523Z" fill="#4D4D63" fill-opacity="0.76"/>
</svg>
