<svg width="25" height="29" viewBox="0 0 25 29" fill="none" xmlns="http://www.w3.org/2000/svg">
<rect width="24.9275" height="28.8467" fill="#FEFFFF"/>
<rect width="24.9275" height="24.3066" fill="#A50444"/>
<path d="M6.26126 27.8467L7.06517 25.6655H7.34249L8.14329 27.8467H7.86597L7.20227 25.9927L6.53546 27.8467H6.26126ZM6.62894 27.2858L6.70372 27.0739H7.69147L7.76626 27.2858H6.62894ZM9.27126 27.8841C9.12169 27.8841 8.99186 27.8571 8.88176 27.8031C8.77374 27.749 8.68754 27.6753 8.62314 27.5818C8.56082 27.4883 8.52135 27.3834 8.50473 27.2671H8.76024C8.78517 27.3834 8.8423 27.478 8.93162 27.5507C9.02094 27.6234 9.13519 27.6597 9.27437 27.6597C9.37824 27.6597 9.46652 27.6358 9.53923 27.5881C9.61401 27.5403 9.67114 27.4748 9.7106 27.3918C9.75215 27.3087 9.77292 27.2162 9.77292 27.1144C9.77292 27.0085 9.75215 26.915 9.7106 26.834C9.66906 26.753 9.61193 26.6907 9.53923 26.647C9.46652 26.6013 9.38135 26.5785 9.28372 26.5785C9.16531 26.5785 9.06457 26.6045 8.98147 26.6564C8.89838 26.7083 8.83606 26.7748 8.79452 26.8558H8.54213L8.72285 25.6655H9.87575V25.893H8.92539L8.80387 26.5629C8.8558 26.5027 8.92435 26.4539 9.00952 26.4165C9.09676 26.377 9.19751 26.3573 9.31176 26.3573C9.41978 26.3573 9.51742 26.376 9.60466 26.4133C9.69191 26.4507 9.76669 26.5037 9.82901 26.5723C9.89133 26.6408 9.93911 26.7208 9.97234 26.8122C10.0077 26.9036 10.0253 27.0033 10.0253 27.1113C10.0253 27.2173 10.0077 27.317 9.97234 27.4104C9.93911 27.5018 9.89029 27.5839 9.82589 27.6566C9.7615 27.7272 9.68256 27.7833 9.58908 27.8249C9.4956 27.8643 9.38966 27.8841 9.27126 27.8841ZM11.4597 27.8841C11.2686 27.8841 11.1035 27.8373 10.9643 27.7439C10.8272 27.6483 10.7223 27.5164 10.6496 27.3481C10.5769 27.1778 10.5405 26.9804 10.5405 26.7561C10.5405 26.5318 10.5769 26.3354 10.6496 26.1672C10.7223 25.9968 10.8272 25.8649 10.9643 25.7715C11.1035 25.6759 11.2686 25.6281 11.4597 25.6281C11.6509 25.6281 11.8139 25.6759 11.9489 25.7715C12.086 25.8649 12.191 25.9968 12.2637 26.1672C12.3364 26.3354 12.3727 26.5318 12.3727 26.7561C12.3727 26.9804 12.3364 27.1778 12.2637 27.3481C12.191 27.5164 12.086 27.6483 11.9489 27.7439C11.8139 27.8373 11.6509 27.8841 11.4597 27.8841ZM11.4566 27.6535C11.5813 27.6535 11.6924 27.6182 11.79 27.5475C11.8877 27.4748 11.9645 27.372 12.0206 27.2391C12.0767 27.104 12.1047 26.9431 12.1047 26.7561C12.1047 26.5691 12.0767 26.4092 12.0206 26.2762C11.9645 26.1412 11.8877 26.0384 11.79 25.9678C11.6924 25.8971 11.5813 25.8618 11.4566 25.8618C11.332 25.8618 11.2198 25.8971 11.1201 25.9678C11.0225 26.0384 10.9456 26.1412 10.8895 26.2762C10.8355 26.4092 10.8085 26.5691 10.8085 26.7561C10.8085 26.9431 10.8355 27.104 10.8895 27.2391C10.9456 27.372 11.0225 27.4748 11.1201 27.5475C11.2198 27.6182 11.332 27.6535 11.4566 27.6535ZM13.9294 27.8467V27.3793H12.8233V27.1768L13.8827 25.6655H14.188V27.1487H14.5121V27.3793H14.188V27.8467H13.9294ZM13.113 27.1487H13.9419V25.9553L13.113 27.1487ZM16.0091 27.8467V27.3793H14.9029V27.1768L15.9623 25.6655H16.2677V27.1487H16.5917V27.3793H16.2677V27.8467H16.0091ZM15.1927 27.1487H16.0215V25.9553L15.1927 27.1487ZM18.0887 27.8467V27.3793H16.9826V27.1768L18.042 25.6655H18.3473V27.1487H18.6714V27.3793H18.3473V27.8467H18.0887ZM17.2723 27.1487H18.1012V25.9553L17.2723 27.1487Z" fill="#4D4D63" fill-opacity="0.76"/>
</svg>
