<svg width="25" height="29" viewBox="0 0 25 29" fill="none" xmlns="http://www.w3.org/2000/svg">
<rect width="24.9023" height="28.8216" fill="#FEFFFF"/>
<rect width="24.9023" height="24.282" fill="#C7AADB"/>
<path d="M6.75831 27.8629C6.52547 27.8629 6.32345 27.8115 6.15225 27.7088C5.98333 27.6038 5.85321 27.4588 5.7619 27.2739C5.67059 27.0867 5.62494 26.8699 5.62494 26.6234C5.62494 26.3768 5.67059 26.1611 5.7619 25.9762C5.85321 25.789 5.98333 25.6441 6.15225 25.5413C6.32345 25.4363 6.52547 25.3838 6.75831 25.3838C7.03223 25.3838 7.2548 25.4489 7.426 25.579C7.5972 25.7091 7.70677 25.8929 7.75471 26.1303H7.43627C7.39975 25.9819 7.32556 25.8632 7.21371 25.7742C7.10186 25.6829 6.95006 25.6372 6.75831 25.6372C6.5871 25.6372 6.43873 25.6772 6.31318 25.7571C6.18763 25.8347 6.09061 25.9477 6.02213 26.096C5.95365 26.2421 5.91941 26.4179 5.91941 26.6234C5.91941 26.8288 5.95365 27.0057 6.02213 27.1541C6.09061 27.3002 6.18763 27.4132 6.31318 27.4931C6.43873 27.5707 6.5871 27.6095 6.75831 27.6095C6.95006 27.6095 7.10186 27.5661 7.21371 27.4794C7.32556 27.3903 7.39975 27.2728 7.43627 27.1267H7.75471C7.70677 27.3572 7.5972 27.5376 7.426 27.6677C7.2548 27.7978 7.03223 27.8629 6.75831 27.8629ZM8.59291 27.8218L9.52768 25.6715H8.21284V25.4249H9.82215V25.6406L8.89766 27.8218H8.59291ZM9.96003 27.8218L10.8434 25.4249H11.1482L12.0282 27.8218H11.7234L10.9941 25.7845L10.2613 27.8218H9.96003ZM10.3641 27.2054L10.4462 26.9726H11.5317L11.6139 27.2054H10.3641ZM12.4393 27.8218L13.3227 25.4249H13.6274L14.5074 27.8218H14.2027L13.4733 25.7845L12.7406 27.8218H12.4393ZM12.8433 27.2054L12.9255 26.9726H14.0109L14.0931 27.2054H12.8433ZM15.0726 27.8218V25.4249H15.778C16.0587 25.4249 16.2893 25.474 16.4696 25.5722C16.6522 25.668 16.7869 25.8061 16.8737 25.9865C16.9627 26.1645 17.0072 26.3791 17.0072 26.6302C17.0072 26.8767 16.9627 27.089 16.8737 27.2671C16.7869 27.4451 16.6522 27.5821 16.4696 27.678C16.2893 27.7738 16.0587 27.8218 15.778 27.8218H15.0726ZM15.3602 27.5821H15.7711C16.0039 27.5821 16.1888 27.5444 16.3258 27.4691C16.4628 27.3915 16.5609 27.2819 16.6203 27.1404C16.6796 26.9966 16.7093 26.8265 16.7093 26.6302C16.7093 26.4293 16.6796 26.257 16.6203 26.1132C16.5609 25.9694 16.4628 25.8586 16.3258 25.781C16.1888 25.7034 16.0039 25.6646 15.7711 25.6646H15.3602V27.5821ZM17.6354 27.8218V25.4249H18.4777C18.6467 25.4249 18.7859 25.4523 18.8955 25.5071C19.0073 25.5596 19.0907 25.6327 19.1454 25.7262C19.2002 25.8176 19.2276 25.9203 19.2276 26.0344C19.2276 26.1577 19.2002 26.2604 19.1454 26.3426C19.0929 26.4248 19.0233 26.4875 18.9366 26.5309C18.8521 26.5743 18.7619 26.6005 18.6661 26.6097L18.714 26.5754C18.8167 26.5777 18.9115 26.6051 18.9982 26.6576C19.085 26.7101 19.1534 26.7809 19.2037 26.8699C19.2562 26.9589 19.2824 27.0582 19.2824 27.1678C19.2824 27.2888 19.2527 27.3995 19.1934 27.4999C19.134 27.5981 19.0461 27.6768 18.9297 27.7362C18.8156 27.7932 18.6741 27.8218 18.5051 27.8218H17.6354ZM17.9231 27.5821H18.4743C18.6364 27.5821 18.7619 27.5444 18.851 27.4691C18.9423 27.3915 18.9879 27.2842 18.9879 27.1472C18.9879 27.0126 18.9411 26.9053 18.8475 26.8254C18.7562 26.7432 18.6296 26.7021 18.4675 26.7021H17.9231V27.5821ZM17.9231 26.4727H18.4572C18.6124 26.4727 18.73 26.4362 18.8099 26.3631C18.8921 26.2901 18.9332 26.1908 18.9332 26.0652C18.9332 25.9442 18.8921 25.8472 18.8099 25.7742C18.73 25.7011 18.609 25.6646 18.4469 25.6646H17.9231V26.4727Z" fill="#4D4D63" fill-opacity="0.76"/>
</svg>
