<svg width="25" height="29" viewBox="0 0 25 29" fill="none" xmlns="http://www.w3.org/2000/svg">
<rect width="24.9023" height="28.8216" fill="#FEFFFF"/>
<rect width="24.9023" height="24.282" fill="#BAB0D3"/>
<path d="M5.65386 27.8218V25.4249H6.49618C6.6651 25.4249 6.80434 25.4523 6.91392 25.5071C7.02577 25.5596 7.10909 25.6327 7.16387 25.7262C7.21866 25.8176 7.24605 25.9203 7.24605 26.0344C7.24605 26.1577 7.21866 26.2604 7.16387 26.3426C7.11137 26.4248 7.04175 26.4875 6.955 26.5309C6.87054 26.5743 6.78038 26.6005 6.6845 26.6097L6.73244 26.5754C6.83516 26.5777 6.92989 26.6051 7.01664 26.6576C7.10338 26.7101 7.17186 26.7809 7.22208 26.8699C7.27458 26.9589 7.30084 27.0582 7.30084 27.1678C7.30084 27.2888 7.27116 27.3995 7.21181 27.4999C7.15246 27.5981 7.06457 27.6768 6.94816 27.7362C6.83402 27.7932 6.69249 27.8218 6.52357 27.8218H5.65386ZM5.94148 27.5821H6.49275C6.65483 27.5821 6.78038 27.5444 6.8694 27.4691C6.96071 27.3915 7.00636 27.2842 7.00636 27.1472C7.00636 27.0126 6.95957 26.9053 6.86598 26.8254C6.77467 26.7432 6.64798 26.7021 6.48591 26.7021H5.94148V27.5821ZM5.94148 26.4727H6.47563C6.63086 26.4727 6.74842 26.4362 6.82831 26.3631C6.91049 26.2901 6.95158 26.1908 6.95158 26.0652C6.95158 25.9442 6.91049 25.8472 6.82831 25.7742C6.74842 25.7011 6.62743 25.6646 6.46536 25.6646H5.94148V26.4727ZM7.72823 27.8218L8.61164 25.4249H8.91638L9.79637 27.8218H9.49162L8.7623 25.7845L8.02955 27.8218H7.72823ZM8.13227 27.2054L8.21445 26.9726H9.29988L9.38205 27.2054H8.13227ZM10.3616 27.8218V25.4249H11.2039C11.3728 25.4249 11.512 25.4523 11.6216 25.5071C11.7335 25.5596 11.8168 25.6327 11.8716 25.7262C11.9264 25.8176 11.9537 25.9203 11.9537 26.0344C11.9537 26.1577 11.9264 26.2604 11.8716 26.3426C11.8191 26.4248 11.7494 26.4875 11.6627 26.5309C11.5782 26.5743 11.4881 26.6005 11.3922 26.6097L11.4401 26.5754C11.5429 26.5777 11.6376 26.6051 11.7243 26.6576C11.8111 26.7101 11.8796 26.7809 11.9298 26.8699C11.9823 26.9589 12.0085 27.0582 12.0085 27.1678C12.0085 27.2888 11.9789 27.3995 11.9195 27.4999C11.8602 27.5981 11.7723 27.6768 11.6559 27.7362C11.5417 27.7932 11.4002 27.8218 11.2313 27.8218H10.3616ZM10.6492 27.5821H11.2004C11.3625 27.5821 11.4881 27.5444 11.5771 27.4691C11.6684 27.3915 11.7141 27.2842 11.7141 27.1472C11.7141 27.0126 11.6673 26.9053 11.5737 26.8254C11.4824 26.7432 11.3557 26.7021 11.1936 26.7021H10.6492V27.5821ZM10.6492 26.4727H11.1833C11.3386 26.4727 11.4561 26.4362 11.536 26.3631C11.6182 26.2901 11.6593 26.1908 11.6593 26.0652C11.6593 25.9442 11.6182 25.8472 11.536 25.7742C11.4561 25.7011 11.3351 25.6646 11.1731 25.6646H10.6492V26.4727ZM13.5478 27.8629C13.3378 27.8629 13.1563 27.8115 13.0034 27.7088C12.8527 27.6038 12.7374 27.4588 12.6575 27.2739C12.5776 27.0867 12.5377 26.8699 12.5377 26.6234C12.5377 26.3768 12.5776 26.1611 12.6575 25.9762C12.7374 25.789 12.8527 25.6441 13.0034 25.5413C13.1563 25.4363 13.3378 25.3838 13.5478 25.3838C13.7578 25.3838 13.937 25.4363 14.0854 25.5413C14.236 25.6441 14.3513 25.789 14.4312 25.9762C14.5111 26.1611 14.551 26.3768 14.551 26.6234C14.551 26.8699 14.5111 27.0867 14.4312 27.2739C14.3513 27.4588 14.236 27.6038 14.0854 27.7088C13.937 27.8115 13.7578 27.8629 13.5478 27.8629ZM13.5444 27.6095C13.6813 27.6095 13.8034 27.5707 13.9107 27.4931C14.018 27.4132 14.1025 27.3002 14.1641 27.1541C14.2257 27.0057 14.2566 26.8288 14.2566 26.6234C14.2566 26.4179 14.2257 26.2421 14.1641 26.096C14.1025 25.9477 14.018 25.8347 13.9107 25.7571C13.8034 25.6795 13.6813 25.6406 13.5444 25.6406C13.4074 25.6406 13.2841 25.6795 13.1746 25.7571C13.0673 25.8347 12.9828 25.9477 12.9212 26.096C12.8618 26.2421 12.8322 26.4179 12.8322 26.6234C12.8322 26.8288 12.8618 27.0057 12.9212 27.1541C12.9828 27.3002 13.0673 27.4132 13.1746 27.4931C13.2841 27.5707 13.4074 27.6095 13.5444 27.6095ZM15.1763 27.8218V25.4249H15.8816C16.1624 25.4249 16.3929 25.474 16.5733 25.5722C16.7559 25.668 16.8906 25.8061 16.9773 25.9865C17.0663 26.1645 17.1109 26.3791 17.1109 26.6302C17.1109 26.8767 17.0663 27.089 16.9773 27.2671C16.8906 27.4451 16.7559 27.5821 16.5733 27.678C16.3929 27.7738 16.1624 27.8218 15.8816 27.8218H15.1763ZM15.4639 27.5821H15.8748C16.1076 27.5821 16.2925 27.5444 16.4295 27.4691C16.5664 27.3915 16.6646 27.2819 16.7239 27.1404C16.7833 26.9966 16.813 26.8265 16.813 26.6302C16.813 26.4293 16.7833 26.257 16.7239 26.1132C16.6646 25.9694 16.5664 25.8586 16.4295 25.781C16.2925 25.7034 16.1076 25.6646 15.8748 25.6646H15.4639V27.5821ZM18.4855 27.8629C18.3326 27.8629 18.1933 27.8355 18.0678 27.7807C17.9445 27.7236 17.8464 27.6392 17.7733 27.5273C17.7003 27.4155 17.6615 27.2762 17.6569 27.1096H17.948C17.9502 27.2009 17.9719 27.2853 18.013 27.363C18.0564 27.4383 18.118 27.4988 18.1979 27.5444C18.2778 27.5901 18.3737 27.6129 18.4855 27.6129C18.5974 27.6129 18.691 27.5912 18.7663 27.5479C18.8416 27.5045 18.8987 27.4474 18.9375 27.3766C18.9763 27.3036 18.9957 27.2226 18.9957 27.1335C18.9957 27.0217 18.9683 26.9315 18.9135 26.863C18.861 26.7923 18.7891 26.7409 18.6978 26.709C18.6088 26.6747 18.5106 26.6576 18.4034 26.6576H18.2253V26.4145H18.4034C18.5609 26.4145 18.6841 26.378 18.7732 26.3049C18.8622 26.2319 18.9067 26.1314 18.9067 26.0036C18.9067 25.8986 18.8713 25.8107 18.8005 25.7399C18.7321 25.6692 18.6271 25.6338 18.4855 25.6338C18.3509 25.6338 18.2436 25.6726 18.1637 25.7502C18.0838 25.8278 18.0381 25.9271 18.0267 26.0481H17.7357C17.7425 25.918 17.7779 25.8027 17.8418 25.7023C17.9057 25.6018 17.9925 25.5242 18.102 25.4694C18.2116 25.4124 18.3406 25.3838 18.489 25.3838C18.6442 25.3838 18.7743 25.4112 18.8793 25.466C18.9843 25.5208 19.0631 25.5938 19.1156 25.6852C19.1703 25.7765 19.1977 25.8769 19.1977 25.9865C19.1977 26.0687 19.1829 26.1463 19.1532 26.2193C19.1236 26.2901 19.079 26.3529 19.0197 26.4076C18.9603 26.4624 18.885 26.5012 18.7937 26.5241C18.8873 26.5423 18.9706 26.5777 19.0437 26.6302C19.119 26.6827 19.1783 26.7512 19.2217 26.8356C19.2651 26.9201 19.2868 27.0194 19.2868 27.1335C19.2868 27.2637 19.256 27.3846 19.1943 27.4965C19.135 27.6061 19.0459 27.6951 18.9272 27.7636C18.8085 27.8298 18.6613 27.8629 18.4855 27.8629Z" fill="#4D4D63" fill-opacity="0.76"/>
</svg>
