<svg width="25" height="29" viewBox="0 0 25 29" fill="none" xmlns="http://www.w3.org/2000/svg">
<rect width="24.9275" height="28.8467" fill="#FEFFFF"/>
<rect width="24.9275" height="24.3066" fill="#AA014F"/>
<path d="M6.75269 27.8467L7.5566 25.6655H7.83392L8.63472 27.8467H8.3574L7.6937 25.9927L7.02689 27.8467H6.75269ZM7.12037 27.2858L7.19515 27.0739H8.1829L8.25769 27.2858H7.12037ZM9.00882 27.8467L9.81274 25.6655H10.0901L10.8909 27.8467H10.6135L9.94984 25.9927L9.28303 27.8467H9.00882ZM9.3765 27.2858L9.45129 27.0739H10.439L10.5138 27.2858H9.3765ZM12.1155 27.8841C11.9244 27.8841 11.7592 27.8373 11.6201 27.7439C11.483 27.6483 11.3781 27.5164 11.3053 27.3481C11.2326 27.1778 11.1963 26.9804 11.1963 26.7561C11.1963 26.5318 11.2326 26.3354 11.3053 26.1672C11.3781 25.9968 11.483 25.8649 11.6201 25.7715C11.7592 25.6759 11.9244 25.6281 12.1155 25.6281C12.3066 25.6281 12.4697 25.6759 12.6047 25.7715C12.7418 25.8649 12.8467 25.9968 12.9194 26.1672C12.9921 26.3354 13.0285 26.5318 13.0285 26.7561C13.0285 26.9804 12.9921 27.1778 12.9194 27.3481C12.8467 27.5164 12.7418 27.6483 12.6047 27.7439C12.4697 27.8373 12.3066 27.8841 12.1155 27.8841ZM12.1124 27.6535C12.237 27.6535 12.3481 27.6182 12.4458 27.5475C12.5434 27.4748 12.6203 27.372 12.6764 27.2391C12.7324 27.104 12.7605 26.9431 12.7605 26.7561C12.7605 26.5691 12.7324 26.4092 12.6764 26.2762C12.6203 26.1412 12.5434 26.0384 12.4458 25.9678C12.3481 25.8971 12.237 25.8618 12.1124 25.8618C11.9877 25.8618 11.8756 25.8971 11.7759 25.9678C11.6782 26.0384 11.6014 26.1412 11.5453 26.2762C11.4913 26.4092 11.4643 26.5691 11.4643 26.7561C11.4643 26.9431 11.4913 27.104 11.5453 27.2391C11.6014 27.372 11.6782 27.4748 11.7759 27.5475C11.8756 27.6182 11.9877 27.6535 12.1124 27.6535ZM13.8373 27.8467V25.9584L13.4634 26.0519V25.8649L13.9246 25.6655H14.1022V27.8467H13.8373ZM15.7428 27.8467V27.3793H14.6367V27.1768L15.6961 25.6655H16.0014V27.1487H16.3255V27.3793H16.0014V27.8467H15.7428ZM14.9264 27.1487H15.7553V25.9553L14.9264 27.1487ZM16.8347 27.8467V25.6655H18.1621V25.8805H17.0964V26.647H18.0032V26.8589H17.0964V27.8467H16.8347Z" fill="#4D4D63" fill-opacity="0.76"/>
</svg>
