<svg width="25" height="29" viewBox="0 0 25 29" fill="none" xmlns="http://www.w3.org/2000/svg">
<rect width="24.9275" height="28.8467" fill="#FEFFFF"/>
<rect width="24.9275" height="24.3066" fill="#FFA1C0"/>
<path d="M7.01918 27.8467V25.6655H8.34658V25.8805H7.28092V26.647H8.18766V26.8589H7.28092V27.8467H7.01918ZM8.87366 27.8467V25.6655H10.201V25.8805H9.1354V26.647H10.0421V26.8589H9.1354V27.8467H8.87366ZM10.3658 27.8467L11.1697 25.6655H11.447L12.2478 27.8467H11.9705L11.3068 25.9927L10.64 27.8467H10.3658ZM10.7335 27.2858L10.8082 27.0739H11.796L11.8708 27.2858H10.7335ZM12.9077 27.8467V25.9584L12.5338 26.0519V25.8649L12.995 25.6655H13.1726V27.8467H12.9077ZM14.7727 27.8841C14.5608 27.8841 14.377 27.8373 14.2212 27.7439C14.0675 27.6483 13.949 27.5164 13.866 27.3481C13.7829 27.1778 13.7413 26.9804 13.7413 26.7561C13.7413 26.5318 13.7829 26.3354 13.866 26.1672C13.949 25.9968 14.0675 25.8649 14.2212 25.7715C14.377 25.6759 14.5608 25.6281 14.7727 25.6281C15.022 25.6281 15.2245 25.6873 15.3803 25.8057C15.5361 25.9241 15.6358 26.0914 15.6794 26.3074H15.3897C15.3564 26.1724 15.2889 26.0644 15.1871 25.9833C15.0853 25.9003 14.9472 25.8587 14.7727 25.8587C14.6169 25.8587 14.4819 25.8951 14.3676 25.9678C14.2534 26.0384 14.1651 26.1412 14.1028 26.2762C14.0404 26.4092 14.0093 26.5691 14.0093 26.7561C14.0093 26.9431 14.0404 27.104 14.1028 27.2391C14.1651 27.372 14.2534 27.4748 14.3676 27.5475C14.4819 27.6182 14.6169 27.6535 14.7727 27.6535C14.9472 27.6535 15.0853 27.614 15.1871 27.5351C15.2889 27.4541 15.3564 27.3471 15.3897 27.2141H15.6794C15.6358 27.424 15.5361 27.5881 15.3803 27.7065C15.2245 27.8249 15.022 27.8841 14.7727 27.8841ZM17.081 27.8841C16.8899 27.8841 16.7247 27.8373 16.5855 27.7439C16.4484 27.6483 16.3435 27.5164 16.2708 27.3481C16.1981 27.1778 16.1618 26.9804 16.1618 26.7561C16.1618 26.5318 16.1981 26.3354 16.2708 26.1672C16.3435 25.9968 16.4484 25.8649 16.5855 25.7715C16.7247 25.6759 16.8899 25.6281 17.081 25.6281C17.2721 25.6281 17.4352 25.6759 17.5702 25.7715C17.7073 25.8649 17.8122 25.9968 17.8849 26.1672C17.9576 26.3354 17.9939 26.5318 17.9939 26.7561C17.9939 26.9804 17.9576 27.1778 17.8849 27.3481C17.8122 27.5164 17.7073 27.6483 17.5702 27.7439C17.4352 27.8373 17.2721 27.8841 17.081 27.8841ZM17.0779 27.6535C17.2025 27.6535 17.3136 27.6182 17.4113 27.5475C17.5089 27.4748 17.5858 27.372 17.6418 27.2391C17.6979 27.104 17.726 26.9431 17.726 26.7561C17.726 26.5691 17.6979 26.4092 17.6418 26.2762C17.5858 26.1412 17.5089 26.0384 17.4113 25.9678C17.3136 25.8971 17.2025 25.8618 17.0779 25.8618C16.9532 25.8618 16.841 25.8971 16.7413 25.9678C16.6437 26.0384 16.5668 26.1412 16.5108 26.2762C16.4567 26.4092 16.4297 26.5691 16.4297 26.7561C16.4297 26.9431 16.4567 27.104 16.5108 27.2391C16.5668 27.372 16.6437 27.4748 16.7413 27.5475C16.841 27.6182 16.9532 27.6535 17.0779 27.6535Z" fill="#4D4D63" fill-opacity="0.76"/>
</svg>
