<svg width="25" height="29" viewBox="0 0 25 29" fill="none" xmlns="http://www.w3.org/2000/svg">
<rect width="24.9023" height="28.8216" fill="#FEFFFF"/>
<rect width="24.9023" height="24.282" fill="#7F2860"/>
<path d="M6.33436 27.8218L7.26914 25.6715H5.95429V25.4249H7.56361V25.6406L6.63911 27.8218H6.33436ZM8.15316 27.8218V25.4249H9.61182V25.6612H8.44078V26.5035H9.43719V26.7363H8.44078V27.8218H8.15316ZM10.1534 27.8218V27.6198C10.3154 27.4919 10.4695 27.363 10.6156 27.2328C10.764 27.1027 10.8952 26.9737 11.0094 26.8459C11.1235 26.7158 11.2125 26.5891 11.2764 26.4658C11.3426 26.3426 11.3757 26.2239 11.3757 26.1097C11.3757 26.0253 11.3609 25.9477 11.3312 25.8769C11.3016 25.8039 11.2536 25.7445 11.1874 25.6989C11.1235 25.6532 11.0368 25.6304 10.9272 25.6304C10.8199 25.6304 10.7309 25.6543 10.6601 25.7023C10.5894 25.7479 10.5357 25.8096 10.4992 25.8872C10.4649 25.9625 10.4478 26.0458 10.4478 26.1371H10.1705C10.1728 25.9796 10.2059 25.8449 10.2698 25.7331C10.336 25.619 10.4261 25.5322 10.5403 25.4729C10.6544 25.4135 10.7845 25.3838 10.9306 25.3838C11.0744 25.3838 11.2011 25.4112 11.3107 25.466C11.4203 25.5185 11.5059 25.5973 11.5675 25.7023C11.6314 25.8073 11.6634 25.9397 11.6634 26.0995C11.6634 26.2113 11.6394 26.3232 11.5915 26.435C11.5458 26.5469 11.4842 26.6565 11.4066 26.7637C11.329 26.8687 11.2422 26.9703 11.1463 27.0685C11.0527 27.1666 10.9557 27.2591 10.8553 27.3458C10.7571 27.4326 10.6647 27.5113 10.5779 27.5821H11.7455V27.8218H10.1534ZM13.0966 27.8629C12.9414 27.8629 12.8021 27.8343 12.6788 27.7773C12.5556 27.7179 12.4574 27.6369 12.3844 27.5342C12.3113 27.4292 12.2748 27.3082 12.2748 27.1712C12.2748 27.073 12.2942 26.9817 12.333 26.8973C12.3718 26.8128 12.4255 26.7398 12.4939 26.6781C12.5647 26.6142 12.6457 26.5697 12.7371 26.5446C12.6092 26.4989 12.5099 26.4282 12.4392 26.3323C12.3707 26.2364 12.3364 26.1326 12.3364 26.0207C12.3364 25.902 12.3673 25.7947 12.4289 25.6989C12.4905 25.603 12.5773 25.5265 12.6891 25.4694C12.8033 25.4124 12.9391 25.3838 13.0966 25.3838C13.2564 25.3838 13.3922 25.4124 13.504 25.4694C13.6182 25.5265 13.7049 25.603 13.7643 25.6989C13.8259 25.7947 13.8567 25.902 13.8567 26.0207C13.8567 26.1326 13.8213 26.2364 13.7506 26.3323C13.6821 26.4282 13.5839 26.4989 13.4561 26.5446C13.5497 26.5697 13.6307 26.6142 13.6992 26.6781C13.77 26.7398 13.8236 26.8128 13.8601 26.8973C13.899 26.9817 13.9184 27.073 13.9184 27.1712C13.9184 27.3082 13.8818 27.4292 13.8088 27.5342C13.738 27.6369 13.6399 27.7179 13.5143 27.7773C13.3911 27.8343 13.2518 27.8629 13.0966 27.8629ZM13.0966 27.6095C13.2769 27.6095 13.4105 27.5684 13.4972 27.4862C13.5862 27.4018 13.6307 27.291 13.6307 27.1541C13.6307 26.9989 13.5817 26.8813 13.4835 26.8014C13.3876 26.7215 13.2587 26.6816 13.0966 26.6816C12.9345 26.6816 12.8044 26.7215 12.7062 26.8014C12.6104 26.8813 12.5624 26.9989 12.5624 27.1541C12.5624 27.291 12.6069 27.4018 12.696 27.4862C12.785 27.5684 12.9185 27.6095 13.0966 27.6095ZM13.0966 26.4419C13.2404 26.4419 13.3545 26.4042 13.439 26.3289C13.5234 26.2536 13.5657 26.1565 13.5657 26.0378C13.5657 25.9032 13.5234 25.8016 13.439 25.7331C13.3568 25.6646 13.2427 25.6304 13.0966 25.6304C12.9528 25.6304 12.8386 25.6646 12.7542 25.7331C12.672 25.8016 12.6309 25.9032 12.6309 26.0378C12.6309 26.1565 12.672 26.2536 12.7542 26.3289C12.8386 26.4042 12.9528 26.4419 13.0966 26.4419ZM15.4606 27.8629C15.2871 27.8629 15.141 27.8309 15.0223 27.767C14.9036 27.7008 14.8088 27.6141 14.7381 27.5068C14.6673 27.3972 14.6148 27.2739 14.5806 27.137C14.5486 27 14.5326 26.8608 14.5326 26.7192C14.5326 26.4544 14.5692 26.2227 14.6422 26.0241C14.7152 25.8233 14.8203 25.6669 14.9572 25.555C15.0965 25.4409 15.2631 25.3838 15.4571 25.3838C15.6078 25.3838 15.7368 25.4135 15.8441 25.4729C15.9536 25.5299 16.0404 25.6075 16.1043 25.7057C16.1682 25.8039 16.207 25.9134 16.2207 26.0344H15.9536C15.9308 25.9066 15.8749 25.8084 15.7858 25.7399C15.6991 25.6692 15.5884 25.6338 15.4537 25.6338C15.335 25.6338 15.2277 25.6715 15.1318 25.7468C15.036 25.8198 14.9595 25.9328 14.9024 26.0858C14.8476 26.2364 14.8157 26.4293 14.8066 26.6644C14.8066 26.6667 14.8066 26.6701 14.8066 26.6747C14.8066 26.6793 14.8066 26.6838 14.8066 26.6884C14.8431 26.6176 14.8933 26.5514 14.9572 26.4898C15.0234 26.4282 15.1022 26.3791 15.1935 26.3426C15.2848 26.3061 15.3864 26.2878 15.4982 26.2878C15.6329 26.2878 15.7596 26.3198 15.8783 26.3837C15.997 26.4476 16.0929 26.5378 16.1659 26.6542C16.2412 26.7683 16.2789 26.903 16.2789 27.0582C16.2789 27.1929 16.2458 27.3219 16.1796 27.4451C16.1157 27.5684 16.0221 27.6688 15.8988 27.7464C15.7756 27.8241 15.6295 27.8629 15.4606 27.8629ZM15.44 27.6095C15.545 27.6095 15.6386 27.5867 15.7208 27.541C15.8052 27.4931 15.8703 27.4292 15.916 27.3493C15.9639 27.2671 15.9879 27.1746 15.9879 27.0719C15.9879 26.9646 15.9639 26.871 15.916 26.7911C15.8703 26.7112 15.8052 26.6496 15.7208 26.6062C15.6386 26.5606 15.545 26.5378 15.44 26.5378C15.335 26.5378 15.2403 26.5617 15.1558 26.6097C15.0714 26.6576 15.004 26.7227 14.9538 26.8048C14.9059 26.8847 14.8819 26.9749 14.8819 27.0753C14.8819 27.1781 14.9059 27.2705 14.9538 27.3527C15.004 27.4326 15.0714 27.4953 15.1558 27.541C15.2403 27.5867 15.335 27.6095 15.44 27.6095ZM17.8743 27.8629C17.6643 27.8629 17.4828 27.8115 17.3299 27.7088C17.1792 27.6038 17.0639 27.4588 16.984 27.2739C16.9041 27.0867 16.8642 26.8699 16.8642 26.6234C16.8642 26.3768 16.9041 26.1611 16.984 25.9762C17.0639 25.789 17.1792 25.6441 17.3299 25.5413C17.4828 25.4363 17.6643 25.3838 17.8743 25.3838C18.0843 25.3838 18.2635 25.4363 18.4119 25.5413C18.5625 25.6441 18.6778 25.789 18.7577 25.9762C18.8376 26.1611 18.8775 26.3768 18.8775 26.6234C18.8775 26.8699 18.8376 27.0867 18.7577 27.2739C18.6778 27.4588 18.5625 27.6038 18.4119 27.7088C18.2635 27.8115 18.0843 27.8629 17.8743 27.8629ZM17.8709 27.6095C18.0078 27.6095 18.1299 27.5707 18.2372 27.4931C18.3445 27.4132 18.429 27.3002 18.4906 27.1541C18.5522 27.0057 18.5831 26.8288 18.5831 26.6234C18.5831 26.4179 18.5522 26.2421 18.4906 26.096C18.429 25.9477 18.3445 25.8347 18.2372 25.7571C18.1299 25.6795 18.0078 25.6406 17.8709 25.6406C17.7339 25.6406 17.6106 25.6795 17.5011 25.7571C17.3938 25.8347 17.3093 25.9477 17.2477 26.096C17.1883 26.2421 17.1587 26.4179 17.1587 26.6234C17.1587 26.8288 17.1883 27.0057 17.2477 27.1541C17.3093 27.3002 17.3938 27.4132 17.5011 27.4931C17.6106 27.5707 17.7339 27.6095 17.8709 27.6095Z" fill="#4D4D63" fill-opacity="0.76"/>
</svg>
