<svg width="25" height="29" viewBox="0 0 25 29" fill="none" xmlns="http://www.w3.org/2000/svg">
<rect width="24.9275" height="28.8467" fill="#FEFFFF"/>
<rect width="24.9275" height="24.3066" fill="#7C1E3F"/>
<path d="M7.39806 27.8467L8.24872 25.8899H7.05219V25.6655H8.51669V25.8618L7.67538 27.8467H7.39806ZM9.91828 27.8841C9.70639 27.8841 9.52255 27.8373 9.36675 27.7439C9.21303 27.6483 9.09463 27.5164 9.01154 27.3481C8.92845 27.1778 8.8869 26.9804 8.8869 26.7561C8.8869 26.5318 8.92845 26.3354 9.01154 26.1672C9.09463 25.9968 9.21303 25.8649 9.36675 25.7715C9.52255 25.6759 9.70639 25.6281 9.91828 25.6281C10.1676 25.6281 10.3701 25.6873 10.5259 25.8057C10.6817 25.9241 10.7814 26.0914 10.825 26.3074H10.5352C10.502 26.1724 10.4345 26.0644 10.3327 25.9833C10.2309 25.9003 10.0928 25.8587 9.91828 25.8587C9.76248 25.8587 9.62746 25.8951 9.5132 25.9678C9.39895 26.0384 9.31067 26.1412 9.24835 26.2762C9.18603 26.4092 9.15487 26.5691 9.15487 26.7561C9.15487 26.9431 9.18603 27.104 9.24835 27.2391C9.31067 27.372 9.39895 27.4748 9.5132 27.5475C9.62746 27.6182 9.76248 27.6535 9.91828 27.6535C10.0928 27.6535 10.2309 27.614 10.3327 27.5351C10.4345 27.4541 10.502 27.3471 10.5352 27.2141H10.825C10.7814 27.424 10.6817 27.5881 10.5259 27.7065C10.3701 27.8249 10.1676 27.8841 9.91828 27.8841ZM11.6314 27.8467V25.9584L11.2575 26.0519V25.8649L11.7187 25.6655H11.8963V27.8467H11.6314ZM12.5491 27.8467V25.6655H13.8983V25.8805H12.8109V26.6408H13.8049V26.8527H12.8109V27.6317H13.8983V27.8467H12.5491ZM15.1772 27.8841C15.038 27.8841 14.9113 27.8591 14.7971 27.8093C14.6849 27.7574 14.5956 27.6805 14.5291 27.5787C14.4626 27.4769 14.4273 27.3502 14.4231 27.1986H14.688C14.6901 27.2817 14.7098 27.3585 14.7472 27.4291C14.7867 27.4977 14.8428 27.5527 14.9155 27.5943C14.9882 27.6358 15.0754 27.6566 15.1772 27.6566C15.279 27.6566 15.3642 27.6369 15.4327 27.5974C15.5013 27.5579 15.5532 27.506 15.5885 27.4416C15.6238 27.3751 15.6415 27.3014 15.6415 27.2204C15.6415 27.1186 15.6166 27.0365 15.5667 26.9742C15.5189 26.9098 15.4535 26.8631 15.3704 26.834C15.2894 26.8028 15.2001 26.7873 15.1024 26.7873H14.9404V26.566H15.1024C15.2458 26.566 15.3579 26.5328 15.4389 26.4663C15.52 26.3998 15.5605 26.3084 15.5605 26.1921C15.5605 26.0966 15.5283 26.0166 15.4639 25.9522C15.4016 25.8878 15.306 25.8556 15.1772 25.8556C15.0546 25.8556 14.957 25.8909 14.8843 25.9615C14.8116 26.0322 14.7701 26.1225 14.7597 26.2326H14.4948C14.501 26.1142 14.5332 26.0093 14.5914 25.9179C14.6496 25.8265 14.7285 25.7559 14.8282 25.706C14.9279 25.6541 15.0453 25.6281 15.1803 25.6281C15.3216 25.6281 15.44 25.6531 15.5355 25.7029C15.6311 25.7528 15.7028 25.8192 15.7505 25.9023C15.8004 25.9854 15.8253 26.0768 15.8253 26.1765C15.8253 26.2513 15.8118 26.3219 15.7848 26.3884C15.7578 26.4528 15.7173 26.5099 15.6633 26.5598C15.6093 26.6097 15.5407 26.645 15.4576 26.6657C15.5428 26.6824 15.6186 26.7146 15.6851 26.7623C15.7537 26.8101 15.8077 26.8724 15.8471 26.9493C15.8866 27.0261 15.9063 27.1165 15.9063 27.2204C15.9063 27.3388 15.8783 27.4489 15.8222 27.5507C15.7682 27.6504 15.6872 27.7314 15.5792 27.7937C15.4711 27.854 15.3372 27.8841 15.1772 27.8841ZM16.5258 27.8467V25.6655H17.8532V25.8805H16.7876V26.647H17.6943V26.8589H16.7876V27.8467H16.5258Z" fill="#4D4D63" fill-opacity="0.76"/>
</svg>
