<svg width="25" height="29" viewBox="0 0 25 29" fill="none" xmlns="http://www.w3.org/2000/svg">
<rect width="24.9275" height="28.8467" fill="#FEFFFF"/>
<rect width="24.9275" height="24.3066" fill="#AE005B"/>
<path d="M5.52384 27.8467L6.40815 25.4474H6.7132L7.59407 27.8467H7.28902L6.55896 25.8073L5.82547 27.8467H5.52384ZM5.92829 27.2297L6.01055 26.9967H7.09708L7.17934 27.2297H5.92829ZM8.15983 27.8467V25.4474H9.64396V25.6839H8.44775V26.5202H9.54113V26.7533H8.44775V27.6102H9.64396V27.8467H8.15983ZM11.2221 27.8878C11.0119 27.8878 10.8302 27.8364 10.6771 27.7336C10.5263 27.6285 10.4109 27.4834 10.3309 27.2983C10.251 27.1109 10.211 26.8938 10.211 26.647C10.211 26.4003 10.251 26.1843 10.3309 25.9992C10.4109 25.8119 10.5263 25.6668 10.6771 25.5639C10.8302 25.4588 11.0119 25.4063 11.2221 25.4063C11.4323 25.4063 11.6117 25.4588 11.7602 25.5639C11.911 25.6668 12.0264 25.8119 12.1064 25.9992C12.1864 26.1843 12.2264 26.4003 12.2264 26.647C12.2264 26.8938 12.1864 27.1109 12.1064 27.2983C12.0264 27.4834 11.911 27.6285 11.7602 27.7336C11.6117 27.8364 11.4323 27.8878 11.2221 27.8878ZM11.2187 27.6342C11.3558 27.6342 11.478 27.5953 11.5854 27.5176C11.6928 27.4377 11.7774 27.3246 11.8391 27.1783C11.9007 27.0298 11.9316 26.8527 11.9316 26.647C11.9316 26.4414 11.9007 26.2654 11.8391 26.1192C11.7774 25.9707 11.6928 25.8576 11.5854 25.7799C11.478 25.7022 11.3558 25.6633 11.2187 25.6633C11.0816 25.6633 10.9582 25.7022 10.8485 25.7799C10.7411 25.8576 10.6566 25.9707 10.5949 26.1192C10.5354 26.2654 10.5057 26.4414 10.5057 26.647C10.5057 26.8527 10.5354 27.0298 10.5949 27.1783C10.6566 27.3246 10.7411 27.4377 10.8485 27.5176C10.9582 27.5953 11.0816 27.6342 11.2187 27.6342ZM13.7708 27.8878C13.5606 27.8878 13.3789 27.8364 13.2258 27.7336C13.075 27.6285 12.9596 27.4834 12.8796 27.2983C12.7997 27.1109 12.7597 26.8938 12.7597 26.647C12.7597 26.4003 12.7997 26.1843 12.8796 25.9992C12.9596 25.8119 13.075 25.6668 13.2258 25.5639C13.3789 25.4588 13.5606 25.4063 13.7708 25.4063C13.981 25.4063 14.1604 25.4588 14.3089 25.5639C14.4597 25.6668 14.5751 25.8119 14.6551 25.9992C14.7351 26.1843 14.7751 26.4003 14.7751 26.647C14.7751 26.8938 14.7351 27.1109 14.6551 27.2983C14.5751 27.4834 14.4597 27.6285 14.3089 27.7336C14.1604 27.8364 13.981 27.8878 13.7708 27.8878ZM13.7674 27.6342C13.9045 27.6342 14.0267 27.5953 14.1341 27.5176C14.2415 27.4377 14.326 27.3246 14.3877 27.1783C14.4494 27.0298 14.4803 26.8527 14.4803 26.647C14.4803 26.4414 14.4494 26.2654 14.3877 26.1192C14.326 25.9707 14.2415 25.8576 14.1341 25.7799C14.0267 25.7022 13.9045 25.6633 13.7674 25.6633C13.6303 25.6633 13.5069 25.7022 13.3972 25.7799C13.2898 25.8576 13.2052 25.9707 13.1436 26.1192C13.0841 26.2654 13.0544 26.4414 13.0544 26.647C13.0544 26.8527 13.0841 27.0298 13.1436 27.1783C13.2052 27.3246 13.2898 27.4377 13.3972 27.5176C13.5069 27.5953 13.6303 27.6342 13.7674 27.6342ZM16.2098 27.8878C16.0453 27.8878 15.9025 27.8581 15.7814 27.7987C15.6625 27.7393 15.5677 27.6582 15.4969 27.5553C15.4283 27.4525 15.3849 27.3371 15.3666 27.2092H15.6477C15.6751 27.3371 15.7379 27.4411 15.8362 27.5211C15.9345 27.601 16.0601 27.641 16.2132 27.641C16.3275 27.641 16.4246 27.6147 16.5046 27.5622C16.5868 27.5096 16.6497 27.4377 16.6931 27.3463C16.7388 27.2549 16.7616 27.1532 16.7616 27.0412C16.7616 26.9247 16.7388 26.8218 16.6931 26.7327C16.6474 26.6436 16.5845 26.5751 16.5046 26.5271C16.4246 26.4768 16.3309 26.4517 16.2235 26.4517C16.0933 26.4517 15.9824 26.4802 15.891 26.5374C15.7996 26.5945 15.7311 26.6676 15.6854 26.7567H15.4078L15.6066 25.4474H16.8747V25.6976H15.8293L15.6957 26.4345C15.7528 26.3683 15.8282 26.3146 15.9219 26.2734C16.0179 26.23 16.1287 26.2083 16.2544 26.2083C16.3732 26.2083 16.4806 26.2289 16.5765 26.27C16.6725 26.3111 16.7548 26.3694 16.8233 26.4448C16.8919 26.5202 16.9444 26.6082 16.981 26.7087C17.0198 26.8093 17.0393 26.919 17.0393 27.0378C17.0393 27.1543 17.0198 27.264 16.981 27.3668C16.9444 27.4674 16.8907 27.5576 16.8199 27.6376C16.7491 27.7153 16.6622 27.777 16.5594 27.8227C16.4566 27.8661 16.34 27.8878 16.2098 27.8878ZM17.6986 27.8467V25.4474H18.5417C18.7108 25.4474 18.8502 25.4748 18.9599 25.5297C19.0719 25.5822 19.1553 25.6553 19.2101 25.749C19.2649 25.8404 19.2924 25.9433 19.2924 26.0575C19.2924 26.1809 19.2649 26.2837 19.2101 26.366C19.1575 26.4482 19.0879 26.5111 19.001 26.5545C18.9165 26.5979 18.8262 26.6242 18.7302 26.6333L18.7782 26.5991C18.8811 26.6013 18.9759 26.6288 19.0627 26.6813C19.1495 26.7339 19.2181 26.8047 19.2684 26.8938C19.3209 26.9829 19.3472 27.0823 19.3472 27.192C19.3472 27.3131 19.3175 27.424 19.2581 27.5245C19.1987 27.6227 19.1107 27.7016 18.9942 27.761C18.8799 27.8181 18.7382 27.8467 18.5692 27.8467H17.6986ZM17.9865 27.6068H18.5383C18.7005 27.6068 18.8262 27.569 18.9153 27.4936C19.0067 27.416 19.0524 27.3086 19.0524 27.1715C19.0524 27.0366 19.0056 26.9292 18.9119 26.8493C18.8205 26.767 18.6937 26.7259 18.5314 26.7259H17.9865V27.6068ZM17.9865 26.4962H18.5212C18.6765 26.4962 18.7942 26.4597 18.8742 26.3865C18.9565 26.3134 18.9976 26.214 18.9976 26.0884C18.9976 25.9672 18.9565 25.8701 18.8742 25.797C18.7942 25.7239 18.6731 25.6873 18.5109 25.6873H17.9865V26.4962Z" fill="#4D4D63" fill-opacity="0.76"/>
</svg>
