<svg width="25" height="29" viewBox="0 0 25 29" fill="none" xmlns="http://www.w3.org/2000/svg">
<rect width="24.9023" height="28.8194" fill="#FEFFFF"/>
<rect width="24.9023" height="24.2798" fill="#9B4F97"/>
<path d="M6.96788 27.8604C6.81723 27.8604 6.68825 27.8319 6.58096 27.7748C6.47368 27.7155 6.38808 27.6367 6.32416 27.5386C6.26253 27.4381 6.22486 27.3286 6.21117 27.2099H6.47824C6.50107 27.3377 6.55585 27.437 6.6426 27.5077C6.72934 27.5762 6.83891 27.6105 6.97131 27.6105C7.09229 27.6105 7.19958 27.5739 7.29317 27.5009C7.38676 27.4279 7.46209 27.3171 7.51916 27.1688C7.57851 27.0181 7.61161 26.8275 7.61846 26.5969C7.61846 26.5901 7.61846 26.5832 7.61846 26.5764C7.61846 26.5696 7.61846 26.5627 7.61846 26.5559C7.58422 26.6266 7.534 26.6928 7.4678 26.7544C7.4016 26.8161 7.32285 26.8652 7.23154 26.9017C7.14251 26.9382 7.04207 26.9565 6.93022 26.9565C6.79554 26.9565 6.66771 26.9245 6.54672 26.8606C6.42802 26.7967 6.33101 26.7077 6.25568 26.5935C6.18263 26.4771 6.14611 26.3413 6.14611 26.1861C6.14611 26.0514 6.17921 25.9224 6.24541 25.7991C6.3116 25.6759 6.40634 25.5754 6.5296 25.4978C6.65287 25.4202 6.79896 25.3814 6.96788 25.3814C7.13909 25.3814 7.28404 25.4145 7.40274 25.4807C7.52144 25.5446 7.61618 25.6314 7.68694 25.7409C7.75999 25.8482 7.81249 25.9703 7.84445 26.1073C7.8764 26.2443 7.89238 26.3835 7.89238 26.525C7.89238 26.7875 7.85586 27.0192 7.78281 27.2201C7.71205 27.421 7.60704 27.5785 7.4678 27.6926C7.33084 27.8045 7.1642 27.8604 6.96788 27.8604ZM6.98843 26.7065C7.09343 26.7065 7.18817 26.6825 7.27263 26.6346C7.35709 26.5867 7.42329 26.5216 7.47122 26.4394C7.52144 26.3573 7.54655 26.2671 7.54655 26.1689C7.54655 26.0639 7.52144 25.9715 7.47122 25.8916C7.42329 25.8117 7.35709 25.7489 7.27263 25.7033C7.18817 25.6576 7.09343 25.6348 6.98843 25.6348C6.88342 25.6348 6.78869 25.6587 6.70423 25.7067C6.62205 25.7523 6.557 25.8151 6.50906 25.895C6.46112 25.9749 6.43715 26.0674 6.43715 26.1724C6.43715 26.2796 6.46112 26.3732 6.50906 26.4531C6.557 26.533 6.62205 26.5958 6.70423 26.6415C6.78869 26.6848 6.88342 26.7065 6.98843 26.7065ZM8.54272 27.8193V25.4225H9.38504C9.55396 25.4225 9.6932 25.4499 9.80277 25.5047C9.91463 25.5572 9.99795 25.6302 10.0527 25.7238C10.1075 25.8151 10.1349 25.9178 10.1349 26.032C10.1349 26.1552 10.1075 26.258 10.0527 26.3401C10.0002 26.4223 9.93061 26.4851 9.84386 26.5285C9.7594 26.5718 9.66924 26.5981 9.57336 26.6072L9.6213 26.573C9.72402 26.5753 9.81875 26.6026 9.9055 26.6552C9.99224 26.7077 10.0607 26.7784 10.1109 26.8674C10.1634 26.9565 10.1897 27.0558 10.1897 27.1653C10.1897 27.2863 10.16 27.397 10.1007 27.4975C10.0413 27.5956 9.95343 27.6744 9.83701 27.7337C9.72288 27.7908 9.58135 27.8193 9.41243 27.8193H8.54272ZM8.83034 27.5797H9.38161C9.54369 27.5797 9.66924 27.542 9.75826 27.4667C9.84957 27.389 9.89522 27.2818 9.89522 27.1448C9.89522 27.0101 9.84843 26.9028 9.75484 26.8229C9.66353 26.7408 9.53684 26.6997 9.37477 26.6997H8.83034V27.5797ZM8.83034 26.4703H9.36449C9.51972 26.4703 9.63728 26.4337 9.71717 26.3607C9.79935 26.2876 9.84044 26.1883 9.84044 26.0628C9.84044 25.9418 9.79935 25.8448 9.71717 25.7717C9.63728 25.6987 9.51629 25.6622 9.35422 25.6622H8.83034V26.4703ZM11.8967 27.8193V27.3057H10.6812V27.0832L11.8454 25.4225H12.1809V27.0523H12.537V27.3057H12.1809V27.8193H11.8967ZM10.9996 27.0523H11.9104V25.7409L10.9996 27.0523ZM13.0966 27.8193V25.4225H14.5553V25.6587H13.3842V26.5011H14.3806V26.7339H13.3842V27.8193H13.0966ZM15.9151 27.8604C15.7645 27.8604 15.6355 27.8319 15.5282 27.7748C15.4209 27.7155 15.3353 27.6367 15.2714 27.5386C15.2098 27.4381 15.1721 27.3286 15.1584 27.2099H15.4255C15.4483 27.3377 15.5031 27.437 15.5899 27.5077C15.6766 27.5762 15.7862 27.6105 15.9186 27.6105C16.0395 27.6105 16.1468 27.5739 16.2404 27.5009C16.334 27.4279 16.4093 27.3171 16.4664 27.1688C16.5258 27.0181 16.5589 26.8275 16.5657 26.5969C16.5657 26.5901 16.5657 26.5832 16.5657 26.5764C16.5657 26.5696 16.5657 26.5627 16.5657 26.5559C16.5315 26.6266 16.4813 26.6928 16.4151 26.7544C16.3489 26.8161 16.2701 26.8652 16.1788 26.9017C16.0898 26.9382 15.9893 26.9565 15.8775 26.9565C15.7428 26.9565 15.615 26.9245 15.494 26.8606C15.3753 26.7967 15.2783 26.7077 15.2029 26.5935C15.1299 26.4771 15.0934 26.3413 15.0934 26.1861C15.0934 26.0514 15.1265 25.9224 15.1927 25.7991C15.2589 25.6759 15.3536 25.5754 15.4769 25.4978C15.6001 25.4202 15.7462 25.3814 15.9151 25.3814C16.0863 25.3814 16.2313 25.4145 16.35 25.4807C16.4687 25.5446 16.5634 25.6314 16.6342 25.7409C16.7072 25.8482 16.7597 25.9703 16.7917 26.1073C16.8237 26.2443 16.8396 26.3835 16.8396 26.525C16.8396 26.7875 16.8031 27.0192 16.7301 27.2201C16.6593 27.421 16.5543 27.5785 16.4151 27.6926C16.2781 27.8045 16.1115 27.8604 15.9151 27.8604ZM15.9357 26.7065C16.0407 26.7065 16.1354 26.6825 16.2199 26.6346C16.3043 26.5867 16.3705 26.5216 16.4185 26.4394C16.4687 26.3573 16.4938 26.2671 16.4938 26.1689C16.4938 26.0639 16.4687 25.9715 16.4185 25.8916C16.3705 25.8117 16.3043 25.7489 16.2199 25.7033C16.1354 25.6576 16.0407 25.6348 15.9357 25.6348C15.8307 25.6348 15.7359 25.6587 15.6515 25.7067C15.5693 25.7523 15.5043 25.8151 15.4563 25.895C15.4084 25.9749 15.3844 26.0674 15.3844 26.1724C15.3844 26.2796 15.4084 26.3732 15.4563 26.4531C15.5043 26.533 15.5693 26.5958 15.6515 26.6415C15.7359 26.6848 15.8307 26.7065 15.9357 26.7065ZM17.6154 27.8193L18.5502 25.669H17.2353V25.4225H18.8446V25.6382L17.9201 27.8193H17.6154Z" fill="#4D4D63" fill-opacity="0.76"/>
</svg>
