<svg width="25" height="29" viewBox="0 0 25 29" fill="none" xmlns="http://www.w3.org/2000/svg">
<rect width="24.9275" height="28.8467" fill="#FEFFFF"/>
<rect width="24.9275" height="24.3066" fill="#AA0166"/>
<path d="M5.98743 27.8467L6.87174 25.4474H7.17679L8.05766 27.8467H7.75261L7.02255 25.8073L6.28905 27.8467H5.98743ZM6.39188 27.2297L6.47414 26.9967H7.56067L7.64293 27.2297H6.39188ZM8.46918 27.8467L9.35349 25.4474H9.65854L10.5394 27.8467H10.2344L9.5043 25.8073L8.7708 27.8467H8.46918ZM8.87363 27.2297L8.95589 26.9967H10.0424L10.1247 27.2297H8.87363ZM11.8865 27.8878C11.6763 27.8878 11.4946 27.8364 11.3415 27.7336C11.1907 27.6285 11.0753 27.4834 10.9954 27.2983C10.9154 27.1109 10.8754 26.8938 10.8754 26.647C10.8754 26.4003 10.9154 26.1843 10.9954 25.9992C11.0753 25.8119 11.1907 25.6668 11.3415 25.5639C11.4946 25.4588 11.6763 25.4063 11.8865 25.4063C12.0967 25.4063 12.2761 25.4588 12.4246 25.5639C12.5754 25.6668 12.6908 25.8119 12.7708 25.9992C12.8508 26.1843 12.8908 26.4003 12.8908 26.647C12.8908 26.8938 12.8508 27.1109 12.7708 27.2983C12.6908 27.4834 12.5754 27.6285 12.4246 27.7336C12.2761 27.8364 12.0967 27.8878 11.8865 27.8878ZM11.8831 27.6342C12.0202 27.6342 12.1424 27.5953 12.2498 27.5176C12.3572 27.4377 12.4418 27.3246 12.5035 27.1783C12.5652 27.0298 12.596 26.8527 12.596 26.647C12.596 26.4414 12.5652 26.2654 12.5035 26.1192C12.4418 25.9707 12.3572 25.8576 12.2498 25.7799C12.1424 25.7022 12.0202 25.6633 11.8831 25.6633C11.746 25.6633 11.6226 25.7022 11.5129 25.7799C11.4055 25.8576 11.321 25.9707 11.2593 26.1192C11.1999 26.2654 11.1702 26.4414 11.1702 26.647C11.1702 26.8527 11.1999 27.0298 11.2593 27.1783C11.321 27.3246 11.4055 27.4377 11.5129 27.5176C11.6226 27.5953 11.746 27.6342 11.8831 27.6342ZM13.7805 27.8467V25.7696L13.3692 25.8724V25.6668L13.8765 25.4474H14.0719V27.8467H13.7805ZM15.6504 27.8878C15.4767 27.8878 15.3304 27.8558 15.2116 27.7918C15.0928 27.7256 14.998 27.6387 14.9271 27.5313C14.8563 27.4217 14.8037 27.2983 14.7695 27.1612C14.7375 27.0241 14.7215 26.8847 14.7215 26.743C14.7215 26.478 14.758 26.246 14.8312 26.0472C14.9043 25.8461 15.0094 25.6896 15.1465 25.5777C15.2859 25.4634 15.4527 25.4063 15.6469 25.4063C15.7977 25.4063 15.9268 25.436 16.0342 25.4954C16.1439 25.5525 16.2307 25.6302 16.2947 25.7285C16.3587 25.8267 16.3976 25.9364 16.4113 26.0575H16.1439C16.1211 25.9295 16.0651 25.8313 15.976 25.7627C15.8891 25.6919 15.7783 25.6565 15.6435 25.6565C15.5247 25.6565 15.4173 25.6942 15.3213 25.7696C15.2253 25.8427 15.1488 25.9558 15.0917 26.1089C15.0368 26.2597 15.0048 26.4528 14.9957 26.6882C14.9957 26.6905 14.9957 26.6939 14.9957 26.6985C14.9957 26.703 14.9957 26.7076 14.9957 26.7122C15.0323 26.6413 15.0825 26.5751 15.1465 26.5134C15.2128 26.4517 15.2916 26.4025 15.383 26.366C15.4744 26.3294 15.5761 26.3111 15.6881 26.3111C15.8229 26.3111 15.9497 26.3431 16.0685 26.4071C16.1873 26.4711 16.2833 26.5614 16.3564 26.6779C16.4318 26.7921 16.4695 26.927 16.4695 27.0823C16.4695 27.2172 16.4364 27.3463 16.3701 27.4697C16.3062 27.593 16.2125 27.6936 16.0891 27.7713C15.9657 27.849 15.8194 27.8878 15.6504 27.8878ZM15.6298 27.6342C15.7349 27.6342 15.8286 27.6113 15.9108 27.5656C15.9954 27.5176 16.0605 27.4537 16.1062 27.3737C16.1542 27.2914 16.1782 27.1989 16.1782 27.096C16.1782 26.9887 16.1542 26.895 16.1062 26.815C16.0605 26.735 15.9954 26.6733 15.9108 26.6299C15.8286 26.5842 15.7349 26.5614 15.6298 26.5614C15.5247 26.5614 15.4298 26.5853 15.3453 26.6333C15.2608 26.6813 15.1933 26.7464 15.1431 26.8287C15.0951 26.9087 15.0711 26.9989 15.0711 27.0995C15.0711 27.2023 15.0951 27.2948 15.1431 27.3771C15.1933 27.4571 15.2608 27.5199 15.3453 27.5656C15.4298 27.6113 15.5247 27.6342 15.6298 27.6342ZM18.0083 27.8878C17.8346 27.8878 17.6884 27.8558 17.5695 27.7918C17.4507 27.7256 17.3559 27.6387 17.285 27.5313C17.2142 27.4217 17.1617 27.2983 17.1274 27.1612C17.0954 27.0241 17.0794 26.8847 17.0794 26.743C17.0794 26.478 17.116 26.246 17.1891 26.0472C17.2622 25.8461 17.3673 25.6896 17.5044 25.5777C17.6438 25.4634 17.8106 25.4063 18.0048 25.4063C18.1556 25.4063 18.2847 25.436 18.3921 25.4954C18.5018 25.5525 18.5886 25.6302 18.6526 25.7285C18.7166 25.8267 18.7555 25.9364 18.7692 26.0575H18.5018C18.479 25.9295 18.423 25.8313 18.3339 25.7627C18.247 25.6919 18.1362 25.6565 18.0014 25.6565C17.8826 25.6565 17.7752 25.6942 17.6792 25.7696C17.5832 25.8427 17.5067 25.9558 17.4496 26.1089C17.3947 26.2597 17.3627 26.4528 17.3536 26.6882C17.3536 26.6905 17.3536 26.6939 17.3536 26.6985C17.3536 26.703 17.3536 26.7076 17.3536 26.7122C17.3902 26.6413 17.4404 26.5751 17.5044 26.5134C17.5707 26.4517 17.6495 26.4025 17.7409 26.366C17.8323 26.3294 17.934 26.3111 18.046 26.3111C18.1808 26.3111 18.3076 26.3431 18.4264 26.4071C18.5452 26.4711 18.6412 26.5614 18.7143 26.6779C18.7897 26.7921 18.8274 26.927 18.8274 27.0823C18.8274 27.2172 18.7943 27.3463 18.728 27.4697C18.6641 27.593 18.5704 27.6936 18.447 27.7713C18.3236 27.849 18.1773 27.8878 18.0083 27.8878ZM17.9877 27.6342C18.0928 27.6342 18.1865 27.6113 18.2687 27.5656C18.3533 27.5176 18.4184 27.4537 18.4641 27.3737C18.5121 27.2914 18.5361 27.1989 18.5361 27.096C18.5361 26.9887 18.5121 26.895 18.4641 26.815C18.4184 26.735 18.3533 26.6733 18.2687 26.6299C18.1865 26.5842 18.0928 26.5614 17.9877 26.5614C17.8826 26.5614 17.7877 26.5853 17.7032 26.6333C17.6187 26.6813 17.5512 26.7464 17.501 26.8287C17.453 26.9087 17.429 26.9989 17.429 27.0995C17.429 27.2023 17.453 27.2948 17.501 27.3771C17.5512 27.4571 17.6187 27.5199 17.7032 27.5656C17.7877 27.6113 17.8826 27.6342 17.9877 27.6342Z" fill="#4D4D63" fill-opacity="0.76"/>
</svg>
