<svg width="25" height="29" viewBox="0 0 25 29" fill="none" xmlns="http://www.w3.org/2000/svg">
<rect width="24.9275" height="28.8467" fill="#FEFFFF"/>
<rect width="24.9275" height="24.3066" fill="#F94F8F"/>
<path d="M6.88225 27.8467V25.6655H8.20965V25.8805H7.14399V26.647H8.05073V26.8589H7.14399V27.8467H6.88225ZM9.44716 27.8841C9.31006 27.8841 9.19269 27.8581 9.09506 27.8062C8.99743 27.7522 8.91953 27.6805 8.86136 27.5912C8.80528 27.4998 8.771 27.4001 8.75854 27.292H9.00158C9.02235 27.4084 9.07221 27.4987 9.15115 27.5631C9.23008 27.6254 9.32979 27.6566 9.45028 27.6566C9.56037 27.6566 9.65801 27.6234 9.74318 27.5569C9.82834 27.4904 9.89689 27.3897 9.94883 27.2547C10.0028 27.1175 10.033 26.9441 10.0392 26.7343C10.0392 26.7281 10.0392 26.7218 10.0392 26.7156C10.0392 26.7094 10.0392 26.7031 10.0392 26.6969C10.008 26.7613 9.96233 26.8215 9.90209 26.8776C9.84185 26.9337 9.77018 26.9784 9.68709 27.0116C9.60607 27.0448 9.51467 27.0615 9.41289 27.0615C9.29032 27.0615 9.174 27.0324 9.0639 26.9742C8.95588 26.9161 8.8676 26.835 8.79904 26.7312C8.73257 26.6252 8.69933 26.5016 8.69933 26.3604C8.69933 26.2378 8.72946 26.1204 8.7897 26.0083C8.84994 25.8961 8.93615 25.8047 9.04832 25.7341C9.16049 25.6634 9.29344 25.6281 9.44716 25.6281C9.60296 25.6281 9.73487 25.6582 9.84289 25.7185C9.9509 25.7767 10.0371 25.8556 10.1015 25.9553C10.168 26.0529 10.2158 26.1641 10.2448 26.2887C10.2739 26.4133 10.2885 26.5401 10.2885 26.6689C10.2885 26.9077 10.2552 27.1186 10.1888 27.3014C10.1244 27.4842 10.0288 27.6275 9.90209 27.7314C9.77745 27.8332 9.62581 27.8841 9.44716 27.8841ZM9.46586 26.834C9.56141 26.834 9.64762 26.8122 9.72448 26.7686C9.80134 26.7249 9.86158 26.6657 9.9052 26.591C9.9509 26.5162 9.97375 26.4341 9.97375 26.3448C9.97375 26.2492 9.9509 26.1651 9.9052 26.0924C9.86158 26.0197 9.80134 25.9626 9.72448 25.921C9.64762 25.8795 9.56141 25.8587 9.46586 25.8587C9.3703 25.8587 9.28409 25.8805 9.20723 25.9241C9.13245 25.9657 9.07325 26.0228 9.02962 26.0955C8.986 26.1682 8.96419 26.2524 8.96419 26.3479C8.96419 26.4455 8.986 26.5307 9.02962 26.6034C9.07325 26.6761 9.13245 26.7332 9.20723 26.7748C9.28409 26.8143 9.3703 26.834 9.46586 26.834ZM11.868 27.8467V27.3793H10.7619V27.1768L11.8213 25.6655H12.1267V27.1487H12.4507V27.3793H12.1267V27.8467H11.868ZM11.0517 27.1487H11.8805V25.9553L11.0517 27.1487ZM12.9599 27.8467V25.6655H14.2873V25.8805H13.2217V26.647H14.1284V26.8589H13.2217V27.8467H12.9599ZM15.4762 27.8841C15.335 27.8841 15.2082 27.8581 15.0961 27.8062C14.9839 27.7522 14.8946 27.6784 14.8281 27.5849C14.7616 27.4894 14.7284 27.3793 14.7284 27.2547C14.7284 27.1653 14.746 27.0822 14.7814 27.0054C14.8167 26.9285 14.8655 26.862 14.9278 26.806C14.9922 26.7478 15.066 26.7073 15.149 26.6844C15.0327 26.6429 14.9424 26.5785 14.878 26.4912C14.8156 26.404 14.7845 26.3095 14.7845 26.2077C14.7845 26.0997 14.8125 26.002 14.8686 25.9148C14.9247 25.8275 15.0036 25.758 15.1054 25.706C15.2093 25.6541 15.3329 25.6281 15.4762 25.6281C15.6216 25.6281 15.7452 25.6541 15.847 25.706C15.9509 25.758 16.0298 25.8275 16.0838 25.9148C16.1399 26.002 16.168 26.0997 16.168 26.2077C16.168 26.3095 16.1358 26.404 16.0714 26.4912C16.009 26.5785 15.9197 26.6429 15.8034 26.6844C15.8886 26.7073 15.9623 26.7478 16.0246 26.806C16.089 26.862 16.1378 26.9285 16.1711 27.0054C16.2064 27.0822 16.224 27.1653 16.224 27.2547C16.224 27.3793 16.1908 27.4894 16.1243 27.5849C16.0599 27.6784 15.9706 27.7522 15.8564 27.8062C15.7442 27.8581 15.6175 27.8841 15.4762 27.8841ZM15.4762 27.6535C15.6403 27.6535 15.7618 27.6161 15.8408 27.5413C15.9218 27.4645 15.9623 27.3637 15.9623 27.2391C15.9623 27.0978 15.9176 26.9908 15.8283 26.9181C15.7411 26.8454 15.6237 26.8091 15.4762 26.8091C15.3287 26.8091 15.2103 26.8454 15.121 26.9181C15.0338 26.9908 14.9901 27.0978 14.9901 27.2391C14.9901 27.3637 15.0306 27.4645 15.1117 27.5413C15.1927 27.6161 15.3142 27.6535 15.4762 27.6535ZM15.4762 26.591C15.6071 26.591 15.711 26.5567 15.7878 26.4881C15.8647 26.4196 15.9031 26.3313 15.9031 26.2233C15.9031 26.1007 15.8647 26.0083 15.7878 25.946C15.713 25.8836 15.6092 25.8525 15.4762 25.8525C15.3453 25.8525 15.2415 25.8836 15.1646 25.946C15.0898 26.0083 15.0524 26.1007 15.0524 26.2233C15.0524 26.3313 15.0898 26.4196 15.1646 26.4881C15.2415 26.5567 15.3453 26.591 15.4762 26.591ZM16.8454 27.8467V25.6655H18.1727V25.8805H17.1071V26.647H18.0138V26.8589H17.1071V27.8467H16.8454Z" fill="#4D4D63" fill-opacity="0.76"/>
</svg>
