<svg width="25" height="29" viewBox="0 0 25 29" fill="none" xmlns="http://www.w3.org/2000/svg">
<rect width="24.9275" height="28.8467" fill="#FEFFFF"/>
<rect width="24.9275" height="24.3066" fill="#70183E"/>
<path d="M7.31591 27.8467L8.16656 25.8899H6.97004V25.6655H8.43453V25.8618L7.59322 27.8467H7.31591ZM9.7635 27.8841C9.57239 27.8841 9.40725 27.8373 9.26807 27.7439C9.13097 27.6483 9.02606 27.5164 8.95336 27.3481C8.88065 27.1778 8.8443 26.9804 8.8443 26.7561C8.8443 26.5318 8.88065 26.3354 8.95336 26.1672C9.02606 25.9968 9.13097 25.8649 9.26807 25.7715C9.40725 25.6759 9.57239 25.6281 9.7635 25.6281C9.95461 25.6281 10.1177 25.6759 10.2527 25.7715C10.3898 25.8649 10.4947 25.9968 10.5674 26.1672C10.6401 26.3354 10.6765 26.5318 10.6765 26.7561C10.6765 26.9804 10.6401 27.1778 10.5674 27.3481C10.4947 27.5164 10.3898 27.6483 10.2527 27.7439C10.1177 27.8373 9.95461 27.8841 9.7635 27.8841ZM9.76039 27.6535C9.88502 27.6535 9.99616 27.6182 10.0938 27.5475C10.1914 27.4748 10.2683 27.372 10.3244 27.2391C10.3805 27.104 10.4085 26.9431 10.4085 26.7561C10.4085 26.5691 10.3805 26.4092 10.3244 26.2762C10.2683 26.1412 10.1914 26.0384 10.0938 25.9678C9.99616 25.8971 9.88502 25.8618 9.76039 25.8618C9.63575 25.8618 9.52357 25.8971 9.42386 25.9678C9.32623 26.0384 9.24937 26.1412 9.19328 26.2762C9.13927 26.4092 9.11227 26.5691 9.11227 26.7561C9.11227 26.9431 9.13927 27.104 9.19328 27.2391C9.24937 27.372 9.32623 27.4748 9.42386 27.5475C9.52357 27.6182 9.63575 27.6535 9.76039 27.6535ZM11.4854 27.8467V25.9584L11.1114 26.0519V25.8649L11.5726 25.6655H11.7502V27.8467H11.4854ZM13.1166 27.8841C12.9754 27.8841 12.8486 27.8581 12.7365 27.8062C12.6243 27.7522 12.535 27.6784 12.4685 27.5849C12.402 27.4894 12.3688 27.3793 12.3688 27.2547C12.3688 27.1653 12.3865 27.0822 12.4218 27.0054C12.4571 26.9285 12.5059 26.862 12.5682 26.806C12.6326 26.7478 12.7064 26.7073 12.7894 26.6844C12.6731 26.6429 12.5828 26.5785 12.5184 26.4912C12.456 26.404 12.4249 26.3095 12.4249 26.2077C12.4249 26.0997 12.4529 26.002 12.509 25.9148C12.5651 25.8275 12.644 25.758 12.7458 25.706C12.8497 25.6541 12.9733 25.6281 13.1166 25.6281C13.262 25.6281 13.3856 25.6541 13.4874 25.706C13.5913 25.758 13.6702 25.8275 13.7242 25.9148C13.7803 26.002 13.8084 26.0997 13.8084 26.2077C13.8084 26.3095 13.7762 26.404 13.7118 26.4912C13.6494 26.5785 13.5601 26.6429 13.4438 26.6844C13.529 26.7073 13.6027 26.7478 13.665 26.806C13.7294 26.862 13.7782 26.9285 13.8115 27.0054C13.8468 27.0822 13.8644 27.1653 13.8644 27.2547C13.8644 27.3793 13.8312 27.4894 13.7647 27.5849C13.7003 27.6784 13.611 27.7522 13.4968 27.8062C13.3846 27.8581 13.2579 27.8841 13.1166 27.8841ZM13.1166 27.6535C13.2807 27.6535 13.4022 27.6161 13.4812 27.5413C13.5622 27.4645 13.6027 27.3637 13.6027 27.2391C13.6027 27.0978 13.558 26.9908 13.4687 26.9181C13.3815 26.8454 13.2641 26.8091 13.1166 26.8091C12.9691 26.8091 12.8507 26.8454 12.7614 26.9181C12.6742 26.9908 12.6305 27.0978 12.6305 27.2391C12.6305 27.3637 12.671 27.4645 12.7521 27.5413C12.8331 27.6161 12.9546 27.6535 13.1166 27.6535ZM13.1166 26.591C13.2475 26.591 13.3514 26.5567 13.4282 26.4881C13.5051 26.4196 13.5435 26.3313 13.5435 26.2233C13.5435 26.1007 13.5051 26.0083 13.4282 25.946C13.3534 25.8836 13.2496 25.8525 13.1166 25.8525C12.9858 25.8525 12.8819 25.8836 12.805 25.946C12.7302 26.0083 12.6929 26.1007 12.6929 26.2233C12.6929 26.3313 12.7302 26.4196 12.805 26.4881C12.8819 26.5567 12.9858 26.591 13.1166 26.591ZM15.165 27.8841C15.0259 27.8841 14.8991 27.8591 14.7849 27.8093C14.6727 27.7574 14.5834 27.6805 14.5169 27.5787C14.4504 27.4769 14.4151 27.3502 14.411 27.1986H14.6758C14.6779 27.2817 14.6976 27.3585 14.735 27.4291C14.7745 27.4977 14.8306 27.5527 14.9033 27.5943C14.976 27.6358 15.0632 27.6566 15.165 27.6566C15.2668 27.6566 15.352 27.6369 15.4205 27.5974C15.4891 27.5579 15.541 27.506 15.5763 27.4416C15.6117 27.3751 15.6293 27.3014 15.6293 27.2204C15.6293 27.1186 15.6044 27.0365 15.5545 26.9742C15.5068 26.9098 15.4413 26.8631 15.3582 26.834C15.2772 26.8028 15.1879 26.7873 15.0903 26.7873H14.9282V26.566H15.0903C15.2336 26.566 15.3458 26.5328 15.4268 26.4663C15.5078 26.3998 15.5483 26.3084 15.5483 26.1921C15.5483 26.0966 15.5161 26.0166 15.4517 25.9522C15.3894 25.8878 15.2938 25.8556 15.165 25.8556C15.0425 25.8556 14.9448 25.8909 14.8721 25.9615C14.7994 26.0322 14.7579 26.1225 14.7475 26.2326H14.4826C14.4889 26.1142 14.5211 26.0093 14.5792 25.9179C14.6374 25.8265 14.7163 25.7559 14.8161 25.706C14.9158 25.6541 15.0331 25.6281 15.1682 25.6281C15.3094 25.6281 15.4278 25.6531 15.5234 25.7029C15.6189 25.7528 15.6906 25.8192 15.7384 25.9023C15.7882 25.9854 15.8132 26.0768 15.8132 26.1765C15.8132 26.2513 15.7996 26.3219 15.7726 26.3884C15.7456 26.4528 15.7051 26.5099 15.6511 26.5598C15.5971 26.6097 15.5286 26.645 15.4455 26.6657C15.5306 26.6824 15.6065 26.7146 15.6729 26.7623C15.7415 26.8101 15.7955 26.8724 15.835 26.9493C15.8744 27.0261 15.8942 27.1165 15.8942 27.2204C15.8942 27.3388 15.8661 27.4489 15.81 27.5507C15.756 27.6504 15.675 27.7314 15.567 27.7937C15.459 27.854 15.325 27.8841 15.165 27.8841ZM16.5137 27.8467V25.6655H17.8629V25.8805H16.7754V26.6408H17.7694V26.8527H16.7754V27.6317H17.8629V27.8467H16.5137Z" fill="#4D4D63" fill-opacity="0.76"/>
</svg>
