<svg width="25" height="29" viewBox="0 0 25 29" fill="none" xmlns="http://www.w3.org/2000/svg">
<rect width="24.9275" height="28.8467" fill="#FEFFFF"/>
<rect width="24.9275" height="24.3066" fill="#E0219F"/>
<path d="M6.56844 27.8467V25.4474H8.05256V25.6839H6.85635V26.5202H7.94974V26.7533H6.85635V27.6102H8.05256V27.8467H6.56844ZM9.6307 27.8878C9.42048 27.8878 9.23882 27.8364 9.08572 27.7336C8.93491 27.6285 8.81952 27.4834 8.73954 27.2983C8.65957 27.1109 8.61958 26.8938 8.61958 26.647C8.61958 26.4003 8.65957 26.1843 8.73954 25.9992C8.81952 25.8119 8.93491 25.6668 9.08572 25.5639C9.23882 25.4588 9.42048 25.4063 9.6307 25.4063C9.84092 25.4063 10.0203 25.4588 10.1688 25.5639C10.3196 25.6668 10.435 25.8119 10.515 25.9992C10.595 26.1843 10.635 26.4003 10.635 26.647C10.635 26.8938 10.595 27.1109 10.515 27.2983C10.435 27.4834 10.3196 27.6285 10.1688 27.7336C10.0203 27.8364 9.84092 27.8878 9.6307 27.8878ZM9.62727 27.6342C9.76438 27.6342 9.88662 27.5953 9.99402 27.5176C10.1014 27.4377 10.186 27.3246 10.2477 27.1783C10.3094 27.0298 10.3402 26.8527 10.3402 26.647C10.3402 26.4414 10.3094 26.2654 10.2477 26.1192C10.186 25.9707 10.1014 25.8576 9.99402 25.7799C9.88662 25.7022 9.76438 25.6633 9.62727 25.6633C9.49017 25.6633 9.36678 25.7022 9.2571 25.7799C9.1497 25.8576 9.06516 25.9707 9.00346 26.1192C8.94405 26.2654 8.91435 26.4414 8.91435 26.647C8.91435 26.8527 8.94405 27.0298 9.00346 27.1783C9.06516 27.3246 9.1497 27.4377 9.2571 27.5176C9.36678 27.5953 9.49017 27.6342 9.62727 27.6342ZM11.1896 27.8467V27.6445C11.3519 27.5165 11.5061 27.3874 11.6524 27.2571C11.8009 27.1269 11.9323 26.9978 12.0465 26.8698C12.1608 26.7396 12.2499 26.6128 12.3139 26.4894C12.3801 26.366 12.4133 26.2472 12.4133 26.1329C12.4133 26.0484 12.3984 25.9707 12.3687 25.8998C12.339 25.8267 12.291 25.7673 12.2248 25.7216C12.1608 25.6759 12.0739 25.6531 11.9643 25.6531C11.8569 25.6531 11.7678 25.677 11.6969 25.725C11.6261 25.7707 11.5724 25.8324 11.5358 25.9101C11.5015 25.9855 11.4844 26.0689 11.4844 26.1603H11.2068C11.2091 26.0027 11.2422 25.8678 11.3062 25.7559C11.3724 25.6416 11.4627 25.5548 11.577 25.4954C11.6912 25.436 11.8215 25.4063 11.9677 25.4063C12.1116 25.4063 12.2385 25.4337 12.3481 25.4885C12.4578 25.5411 12.5435 25.6199 12.6052 25.725C12.6692 25.8301 12.7012 25.9627 12.7012 26.1226C12.7012 26.2346 12.6772 26.3466 12.6292 26.4585C12.5835 26.5705 12.5218 26.6802 12.4441 26.7876C12.3664 26.8927 12.2796 26.9944 12.1836 27.0926C12.0899 27.1909 11.9928 27.2834 11.8923 27.3703C11.794 27.4571 11.7015 27.5359 11.6147 27.6068H12.7834V27.8467H11.1896ZM13.6718 27.8467V25.7696L13.2605 25.8724V25.6668L13.7677 25.4474H13.9631V27.8467H13.6718ZM15.4627 27.8878C15.3119 27.8878 15.1828 27.8592 15.0754 27.8021C14.968 27.7427 14.8823 27.6639 14.8184 27.5656C14.7567 27.4651 14.719 27.3554 14.7052 27.2366H14.9726C14.9954 27.3645 15.0503 27.4639 15.1371 27.5348C15.2239 27.6033 15.3336 27.6376 15.4662 27.6376C15.5873 27.6376 15.6947 27.601 15.7883 27.5279C15.882 27.4548 15.9574 27.344 16.0146 27.1954C16.074 27.0446 16.1071 26.8538 16.114 26.623C16.114 26.6162 16.114 26.6093 16.114 26.6025C16.114 26.5956 16.114 26.5888 16.114 26.5819C16.0797 26.6528 16.0294 26.719 15.9632 26.7807C15.8969 26.8424 15.8181 26.8915 15.7267 26.9281C15.6375 26.9647 15.537 26.9829 15.425 26.9829C15.2902 26.9829 15.1623 26.951 15.0411 26.887C14.9223 26.823 14.8252 26.7339 14.7498 26.6196C14.6767 26.5031 14.6401 26.3671 14.6401 26.2117C14.6401 26.0769 14.6733 25.9478 14.7395 25.8244C14.8058 25.701 14.9006 25.6005 15.024 25.5228C15.1474 25.4451 15.2936 25.4063 15.4627 25.4063C15.6341 25.4063 15.7792 25.4394 15.898 25.5057C16.0169 25.5697 16.1117 25.6565 16.1825 25.7662C16.2556 25.8736 16.3082 25.9958 16.3402 26.1329C16.3722 26.27 16.3882 26.4094 16.3882 26.5511C16.3882 26.8138 16.3516 27.0458 16.2785 27.2469C16.2077 27.4479 16.1025 27.6056 15.9632 27.7199C15.8261 27.8318 15.6592 27.8878 15.4627 27.8878ZM15.4833 26.7327C15.5884 26.7327 15.6832 26.7087 15.7678 26.6608C15.8523 26.6128 15.9186 26.5476 15.9666 26.4654C16.0169 26.3831 16.042 26.2929 16.042 26.1946C16.042 26.0895 16.0169 25.997 15.9666 25.917C15.9186 25.837 15.8523 25.7742 15.7678 25.7285C15.6832 25.6828 15.5884 25.6599 15.4833 25.6599C15.3782 25.6599 15.2834 25.6839 15.1988 25.7319C15.1166 25.7776 15.0514 25.8404 15.0034 25.9204C14.9555 26.0004 14.9315 26.0929 14.9315 26.198C14.9315 26.3054 14.9555 26.3991 15.0034 26.4791C15.0514 26.5591 15.1166 26.6219 15.1988 26.6676C15.2834 26.711 15.3782 26.7327 15.4833 26.7327ZM17.0392 27.8467V25.4474H18.4993V25.6839H17.3271V26.5271H18.3245V26.7602H17.3271V27.8467H17.0392Z" fill="#4D4D63" fill-opacity="0.76"/>
</svg>
