<svg width="25" height="29" viewBox="0 0 25 29" fill="none" xmlns="http://www.w3.org/2000/svg">
<rect width="24.9275" height="28.8467" fill="#FEFFFF"/>
<rect width="24.9275" height="24.3066" fill="#D60370"/>
<path d="M5.73164 27.8467V25.4474H6.43771C6.71877 25.4474 6.94956 25.4965 7.13007 25.5948C7.31287 25.6908 7.44769 25.829 7.53452 26.0095C7.62364 26.1878 7.6682 26.4025 7.6682 26.6539C7.6682 26.9007 7.62364 27.1132 7.53452 27.2914C7.44769 27.4697 7.31287 27.6068 7.13007 27.7027C6.94956 27.7987 6.71877 27.8467 6.43771 27.8467H5.73164ZM6.01955 27.6068H6.43086C6.66393 27.6068 6.84901 27.569 6.98612 27.4936C7.12322 27.416 7.22147 27.3063 7.28088 27.1646C7.34029 27.0206 7.37 26.8504 7.37 26.6539C7.37 26.4528 7.34029 26.2803 7.28088 26.1363C7.22147 25.9924 7.12322 25.8816 6.98612 25.8039C6.84901 25.7262 6.66393 25.6873 6.43086 25.6873H6.01955V27.6068ZM9.15738 27.8878C8.98372 27.8878 8.83748 27.8558 8.71865 27.7918C8.59983 27.7256 8.50501 27.6387 8.43417 27.5313C8.36333 27.4217 8.31078 27.2983 8.2765 27.1612C8.24451 27.0241 8.22852 26.8847 8.22852 26.743C8.22852 26.478 8.26508 26.246 8.3382 26.0472C8.41132 25.8461 8.51643 25.6896 8.65353 25.5777C8.79292 25.4634 8.95972 25.4063 9.15395 25.4063C9.30476 25.4063 9.43387 25.436 9.54126 25.4954C9.65094 25.5525 9.73778 25.6302 9.80176 25.7285C9.86574 25.8267 9.90458 25.9364 9.91829 26.0575H9.65094C9.62809 25.9295 9.57211 25.8313 9.483 25.7627C9.39616 25.6919 9.28534 25.6565 9.15052 25.6565C9.0317 25.6565 8.92431 25.6942 8.82834 25.7696C8.73237 25.8427 8.65582 25.9558 8.59869 26.1089C8.54385 26.2597 8.51186 26.4528 8.50272 26.6882C8.50272 26.6905 8.50272 26.6939 8.50272 26.6985C8.50272 26.703 8.50272 26.7076 8.50272 26.7122C8.53928 26.6413 8.58955 26.5751 8.65353 26.5134C8.7198 26.4517 8.79863 26.4025 8.89003 26.366C8.98143 26.3294 9.08312 26.3111 9.19508 26.3111C9.3299 26.3111 9.45672 26.3431 9.57554 26.4071C9.69436 26.4711 9.79033 26.5614 9.86345 26.6779C9.93886 26.7921 9.97656 26.927 9.97656 27.0823C9.97656 27.2172 9.94343 27.3463 9.87716 27.4697C9.81318 27.593 9.7195 27.6936 9.5961 27.7713C9.47271 27.849 9.32647 27.8878 9.15738 27.8878ZM9.13681 27.6342C9.24193 27.6342 9.33561 27.6113 9.41787 27.5656C9.50242 27.5176 9.56754 27.4537 9.61324 27.3737C9.66123 27.2914 9.68522 27.1989 9.68522 27.096C9.68522 26.9887 9.66123 26.895 9.61324 26.815C9.56754 26.735 9.50242 26.6733 9.41787 26.6299C9.33561 26.5842 9.24193 26.5614 9.13681 26.5614C9.0317 26.5614 8.93687 26.5853 8.85233 26.6333C8.76778 26.6813 8.70037 26.7464 8.6501 26.8287C8.60212 26.9087 8.57813 26.9989 8.57813 27.0995C8.57813 27.2023 8.60212 27.2948 8.6501 27.3771C8.70037 27.4571 8.76778 27.5199 8.85233 27.5656C8.93687 27.6113 9.0317 27.6342 9.13681 27.6342ZM11.5736 27.8878C11.3633 27.8878 11.1817 27.8364 11.0286 27.7336C10.8778 27.6285 10.7624 27.4834 10.6824 27.2983C10.6024 27.1109 10.5624 26.8938 10.5624 26.647C10.5624 26.4003 10.6024 26.1843 10.6824 25.9992C10.7624 25.8119 10.8778 25.6668 11.0286 25.5639C11.1817 25.4588 11.3633 25.4063 11.5736 25.4063C11.7838 25.4063 11.9631 25.4588 12.1117 25.5639C12.2625 25.6668 12.3779 25.8119 12.4579 25.9992C12.5378 26.1843 12.5778 26.4003 12.5778 26.647C12.5778 26.8938 12.5378 27.1109 12.4579 27.2983C12.3779 27.4834 12.2625 27.6285 12.1117 27.7336C11.9631 27.8364 11.7838 27.8878 11.5736 27.8878ZM11.5701 27.6342C11.7072 27.6342 11.8295 27.5953 11.9369 27.5176C12.0443 27.4377 12.1288 27.3246 12.1905 27.1783C12.2522 27.0298 12.2831 26.8527 12.2831 26.647C12.2831 26.4414 12.2522 26.2654 12.1905 26.1192C12.1288 25.9707 12.0443 25.8576 11.9369 25.7799C11.8295 25.7022 11.7072 25.6633 11.5701 25.6633C11.433 25.6633 11.3096 25.7022 11.1999 25.7799C11.0926 25.8576 11.008 25.9707 10.9463 26.1192C10.8869 26.2654 10.8572 26.4414 10.8572 26.647C10.8572 26.8527 10.8869 27.0298 10.9463 27.1783C11.008 27.3246 11.0926 27.4377 11.1999 27.5176C11.3096 27.5953 11.433 27.6342 11.5701 27.6342ZM13.9509 27.8878C13.7978 27.8878 13.6584 27.8604 13.5327 27.8055C13.4093 27.7484 13.3111 27.6639 13.2379 27.5519C13.1648 27.4399 13.126 27.3006 13.1214 27.1338H13.4127C13.415 27.2252 13.4367 27.3097 13.4779 27.3874C13.5213 27.4628 13.583 27.5233 13.663 27.569C13.7429 27.6147 13.8389 27.6376 13.9509 27.6376C14.0628 27.6376 14.1565 27.6159 14.2319 27.5725C14.3073 27.5291 14.3645 27.4719 14.4033 27.4011C14.4421 27.328 14.4616 27.2469 14.4616 27.1577C14.4616 27.0458 14.4342 26.9555 14.3793 26.887C14.3268 26.8161 14.2548 26.7647 14.1634 26.7327C14.0743 26.6985 13.976 26.6813 13.8686 26.6813H13.6904V26.438H13.8686C14.0263 26.438 14.1497 26.4014 14.2388 26.3283C14.3279 26.2552 14.3725 26.1546 14.3725 26.0267C14.3725 25.9215 14.337 25.8336 14.2662 25.7627C14.1977 25.6919 14.0925 25.6565 13.9509 25.6565C13.8161 25.6565 13.7087 25.6953 13.6287 25.773C13.5487 25.8507 13.503 25.9501 13.4916 26.0712H13.2002C13.2071 25.941 13.2425 25.8256 13.3065 25.725C13.3705 25.6245 13.4573 25.5468 13.567 25.492C13.6767 25.4348 13.8058 25.4063 13.9543 25.4063C14.1097 25.4063 14.2399 25.4337 14.345 25.4885C14.4501 25.5434 14.529 25.6165 14.5815 25.7079C14.6364 25.7993 14.6638 25.8998 14.6638 26.0095C14.6638 26.0918 14.6489 26.1695 14.6192 26.2426C14.5895 26.3134 14.545 26.3763 14.4856 26.4311C14.4262 26.4859 14.3507 26.5248 14.2593 26.5476C14.353 26.5659 14.4364 26.6013 14.5096 26.6539C14.585 26.7065 14.6444 26.775 14.6878 26.8595C14.7312 26.9441 14.7529 27.0435 14.7529 27.1577C14.7529 27.288 14.7221 27.4091 14.6604 27.5211C14.601 27.6307 14.5118 27.7199 14.393 27.7884C14.2742 27.8547 14.1268 27.8878 13.9509 27.8878ZM15.5934 27.8467L16.5291 25.6942H15.213V25.4474H16.8239V25.6633L15.8985 27.8467H15.5934ZM18.2858 27.8878C18.0755 27.8878 17.8939 27.8364 17.7408 27.7336C17.59 27.6285 17.4746 27.4834 17.3946 27.2983C17.3146 27.1109 17.2746 26.8938 17.2746 26.647C17.2746 26.4003 17.3146 26.1843 17.3946 25.9992C17.4746 25.8119 17.59 25.6668 17.7408 25.5639C17.8939 25.4588 18.0755 25.4063 18.2858 25.4063C18.496 25.4063 18.6754 25.4588 18.8239 25.5639C18.9747 25.6668 19.0901 25.8119 19.1701 25.9992C19.25 26.1843 19.29 26.4003 19.29 26.647C19.29 26.8938 19.25 27.1109 19.1701 27.2983C19.0901 27.4834 18.9747 27.6285 18.8239 27.7336C18.6754 27.8364 18.496 27.8878 18.2858 27.8878ZM18.2823 27.6342C18.4194 27.6342 18.5417 27.5953 18.6491 27.5176C18.7565 27.4377 18.841 27.3246 18.9027 27.1783C18.9644 27.0298 18.9953 26.8527 18.9953 26.647C18.9953 26.4414 18.9644 26.2654 18.9027 26.1192C18.841 25.9707 18.7565 25.8576 18.6491 25.7799C18.5417 25.7022 18.4194 25.6633 18.2823 25.6633C18.1452 25.6633 18.0218 25.7022 17.9122 25.7799C17.8048 25.8576 17.7202 25.9707 17.6585 26.1192C17.5991 26.2654 17.5694 26.4414 17.5694 26.647C17.5694 26.8527 17.5991 27.0298 17.6585 27.1783C17.7202 27.3246 17.8048 27.4377 17.9122 27.5176C18.0218 27.5953 18.1452 27.6342 18.2823 27.6342Z" fill="#4D4D63" fill-opacity="0.76"/>
</svg>
