<svg width="25" height="29" viewBox="0 0 25 29" fill="none" xmlns="http://www.w3.org/2000/svg">
<rect width="24.9023" height="28.8216" fill="#FEFFFF"/>
<rect width="24.9023" height="24.282" fill="#5A108E"/>
<path d="M7.23269 27.8629C7.06833 27.8629 6.92566 27.8332 6.80468 27.7738C6.68598 27.7145 6.59125 27.6335 6.52048 27.5307C6.452 27.428 6.40863 27.3127 6.39037 27.1849H6.67114C6.69853 27.3127 6.76131 27.4166 6.85946 27.4965C6.95762 27.5764 7.08317 27.6163 7.23611 27.6163C7.35025 27.6163 7.44726 27.5901 7.52716 27.5376C7.60934 27.4851 7.67211 27.4132 7.71548 27.3219C7.76114 27.2306 7.78396 27.129 7.78396 27.0171C7.78396 26.9007 7.76114 26.798 7.71548 26.709C7.66983 26.6199 7.60705 26.5514 7.52716 26.5035C7.44726 26.4533 7.35367 26.4282 7.24638 26.4282C7.11627 26.4282 7.00556 26.4567 6.91425 26.5138C6.82294 26.5709 6.75446 26.6439 6.7088 26.7329H6.43146L6.63005 25.4249H7.89696V25.6749H6.85262L6.71908 26.4111C6.77615 26.3449 6.85147 26.2912 6.94507 26.2501C7.04094 26.2068 7.15165 26.1851 7.2772 26.1851C7.3959 26.1851 7.50319 26.2056 7.59906 26.2467C7.69494 26.2878 7.77711 26.346 7.8456 26.4213C7.91408 26.4967 7.96658 26.5845 8.0031 26.685C8.04191 26.7854 8.06131 26.895 8.06131 27.0137C8.06131 27.1301 8.04191 27.2397 8.0031 27.3424C7.96658 27.4428 7.91294 27.533 7.84217 27.6129C7.77141 27.6905 7.68467 27.7522 7.58194 27.7978C7.47922 27.8412 7.3628 27.8629 7.23269 27.8629ZM8.41873 27.8218L9.30214 25.4249H9.60688L10.4869 27.8218H10.1821L9.4528 25.7845L8.72005 27.8218H8.41873ZM8.82277 27.2054L8.90494 26.9726H9.99038L10.0726 27.2054H8.82277ZM11.212 27.8218V25.7468L10.8012 25.8495V25.6441L11.3079 25.4249H11.5031V27.8218H11.212ZM13.1382 27.8629C12.9282 27.8629 12.7467 27.8115 12.5937 27.7088C12.4431 27.6038 12.3278 27.4588 12.2479 27.2739C12.168 27.0867 12.1281 26.8699 12.1281 26.6234C12.1281 26.3768 12.168 26.1611 12.2479 25.9762C12.3278 25.789 12.4431 25.6441 12.5937 25.5413C12.7467 25.4363 12.9282 25.3838 13.1382 25.3838C13.3482 25.3838 13.5274 25.4363 13.6757 25.5413C13.8264 25.6441 13.9417 25.789 14.0216 25.9762C14.1015 26.1611 14.1414 26.3768 14.1414 26.6234C14.1414 26.8699 14.1015 27.0867 14.0216 27.2739C13.9417 27.4588 13.8264 27.6038 13.6757 27.7088C13.5274 27.8115 13.3482 27.8629 13.1382 27.8629ZM13.1347 27.6095C13.2717 27.6095 13.3938 27.5707 13.5011 27.4931C13.6084 27.4132 13.6929 27.3002 13.7545 27.1541C13.8161 27.0057 13.8469 26.8288 13.8469 26.6234C13.8469 26.4179 13.8161 26.2421 13.7545 26.096C13.6929 25.9477 13.6084 25.8347 13.5011 25.7571C13.3938 25.6795 13.2717 25.6406 13.1347 25.6406C12.9978 25.6406 12.8745 25.6795 12.7649 25.7571C12.6577 25.8347 12.5732 25.9477 12.5116 26.096C12.4522 26.2421 12.4225 26.4179 12.4225 26.6234C12.4225 26.8288 12.4522 27.0057 12.5116 27.1541C12.5732 27.3002 12.6577 27.4132 12.7649 27.4931C12.8745 27.5707 12.9978 27.6095 13.1347 27.6095ZM15.5507 27.8629C15.3955 27.8629 15.2563 27.8343 15.133 27.7773C15.0097 27.7179 14.9116 27.6369 14.8385 27.5342C14.7655 27.4292 14.729 27.3082 14.729 27.1712C14.729 27.073 14.7484 26.9817 14.7872 26.8973C14.826 26.8128 14.8796 26.7398 14.9481 26.6781C15.0189 26.6142 15.0999 26.5697 15.1912 26.5446C15.0634 26.4989 14.9641 26.4282 14.8933 26.3323C14.8248 26.2364 14.7906 26.1326 14.7906 26.0207C14.7906 25.902 14.8214 25.7947 14.8831 25.6989C14.9447 25.603 15.0314 25.5265 15.1433 25.4694C15.2574 25.4124 15.3932 25.3838 15.5507 25.3838C15.7105 25.3838 15.8464 25.4124 15.9582 25.4694C16.0723 25.5265 16.1591 25.603 16.2184 25.6989C16.2801 25.7947 16.3109 25.902 16.3109 26.0207C16.3109 26.1326 16.2755 26.2364 16.2047 26.3323C16.1363 26.4282 16.0381 26.4989 15.9103 26.5446C16.0039 26.5697 16.0849 26.6142 16.1534 26.6781C16.2241 26.7398 16.2778 26.8128 16.3143 26.8973C16.3531 26.9817 16.3725 27.073 16.3725 27.1712C16.3725 27.3082 16.336 27.4292 16.263 27.5342C16.1922 27.6369 16.094 27.7179 15.9685 27.7773C15.8452 27.8343 15.706 27.8629 15.5507 27.8629ZM15.5507 27.6095C15.7311 27.6095 15.8646 27.5684 15.9514 27.4862C16.0404 27.4018 16.0849 27.291 16.0849 27.1541C16.0849 26.9989 16.0358 26.8813 15.9377 26.8014C15.8418 26.7215 15.7128 26.6816 15.5507 26.6816C15.3887 26.6816 15.2586 26.7215 15.1604 26.8014C15.0645 26.8813 15.0166 26.9989 15.0166 27.1541C15.0166 27.291 15.0611 27.4018 15.1501 27.4862C15.2392 27.5684 15.3727 27.6095 15.5507 27.6095ZM15.5507 26.4419C15.6946 26.4419 15.8087 26.4042 15.8932 26.3289C15.9776 26.2536 16.0198 26.1565 16.0198 26.0378C16.0198 25.9032 15.9776 25.8016 15.8932 25.7331C15.811 25.6646 15.6968 25.6304 15.5507 25.6304C15.4069 25.6304 15.2928 25.6646 15.2083 25.7331C15.1262 25.8016 15.0851 25.9032 15.0851 26.0378C15.0851 26.1565 15.1262 26.2536 15.2083 26.3289C15.2928 26.4042 15.4069 26.4419 15.5507 26.4419ZM17.0553 27.8218V25.4249H18.5379V25.6612H17.3429V26.4967H18.4352V26.7295H17.3429V27.5855H18.5379V27.8218H17.0553Z" fill="#4D4D63" fill-opacity="0.76"/>
</svg>
