<svg width="25" height="29" viewBox="0 0 25 29" fill="none" xmlns="http://www.w3.org/2000/svg">
<rect width="24.9023" height="28.8216" fill="#FEFFFF"/>
<rect width="24.9023" height="24.282" fill="#38197A"/>
<path d="M7.45528 27.8629C7.30234 27.8629 7.16309 27.8355 7.03754 27.7807C6.91428 27.7236 6.81612 27.6392 6.74307 27.5273C6.67003 27.4155 6.63122 27.2762 6.62665 27.1096H6.9177C6.91998 27.2009 6.94167 27.2853 6.98276 27.363C7.02613 27.4383 7.08776 27.4988 7.16766 27.5444C7.24755 27.5901 7.34343 27.6129 7.45528 27.6129C7.56713 27.6129 7.66072 27.5912 7.73605 27.5479C7.81138 27.5045 7.86845 27.4474 7.90726 27.3766C7.94606 27.3036 7.96547 27.2226 7.96547 27.1335C7.96547 27.0217 7.93807 26.9315 7.88329 26.863C7.83079 26.7923 7.75888 26.7409 7.66757 26.709C7.57855 26.6747 7.48039 26.6576 7.3731 26.6576H7.19505V26.4145H7.3731C7.53061 26.4145 7.65388 26.378 7.7429 26.3049C7.83193 26.2319 7.87644 26.1314 7.87644 26.0036C7.87644 25.8986 7.84106 25.8107 7.77029 25.7399C7.70181 25.6692 7.59681 25.6338 7.45528 25.6338C7.3206 25.6338 7.21331 25.6726 7.13342 25.7502C7.05352 25.8278 7.00787 25.9271 6.99645 26.0481H6.70541C6.71226 25.918 6.74764 25.8027 6.81155 25.7023C6.87547 25.6018 6.96221 25.5242 7.07178 25.4694C7.18135 25.4124 7.31033 25.3838 7.4587 25.3838C7.61393 25.3838 7.74404 25.4112 7.84905 25.466C7.95405 25.5208 8.03281 25.5938 8.08531 25.6852C8.14009 25.7765 8.16749 25.8769 8.16749 25.9865C8.16749 26.0687 8.15265 26.1463 8.12297 26.2193C8.0933 26.2901 8.04879 26.3529 7.98943 26.4076C7.93008 26.4624 7.85475 26.5012 7.76345 26.5241C7.85704 26.5423 7.94036 26.5777 8.0134 26.6302C8.08873 26.6827 8.14808 26.7512 8.19145 26.8356C8.23483 26.9201 8.25651 27.0194 8.25651 27.1335C8.25651 27.2637 8.2257 27.3846 8.16406 27.4965C8.10471 27.6061 8.01569 27.6951 7.89698 27.7636C7.77828 27.8298 7.63105 27.8629 7.45528 27.8629ZM9.7214 27.8629C9.56617 27.8629 9.42693 27.8343 9.30366 27.7773C9.1804 27.7179 9.08224 27.6369 9.00919 27.5342C8.93615 27.4292 8.89962 27.3082 8.89962 27.1712C8.89962 27.073 8.91903 26.9817 8.95783 26.8973C8.99664 26.8128 9.05028 26.7398 9.11876 26.6781C9.18953 26.6142 9.27056 26.5697 9.36187 26.5446C9.23404 26.4989 9.13474 26.4282 9.06398 26.3323C8.9955 26.2364 8.96126 26.1326 8.96126 26.0207C8.96126 25.902 8.99207 25.7947 9.05371 25.6989C9.11534 25.603 9.20208 25.5265 9.31393 25.4694C9.42807 25.4124 9.56389 25.3838 9.7214 25.3838C9.88119 25.3838 10.017 25.4124 10.1289 25.4694C10.243 25.5265 10.3297 25.603 10.3891 25.6989C10.4507 25.7947 10.4815 25.902 10.4815 26.0207C10.4815 26.1326 10.4462 26.2364 10.3754 26.3323C10.3069 26.4282 10.2088 26.4989 10.0809 26.5446C10.1745 26.5697 10.2556 26.6142 10.324 26.6781C10.3948 26.7398 10.4484 26.8128 10.485 26.8973C10.5238 26.9817 10.5432 27.073 10.5432 27.1712C10.5432 27.3082 10.5067 27.4292 10.4336 27.5342C10.3628 27.6369 10.2647 27.7179 10.1391 27.7773C10.0159 27.8343 9.87662 27.8629 9.7214 27.8629ZM9.7214 27.6095C9.90173 27.6095 10.0353 27.5684 10.122 27.4862C10.211 27.4018 10.2556 27.291 10.2556 27.1541C10.2556 26.9989 10.2065 26.8813 10.1083 26.8014C10.0124 26.7215 9.88347 26.6816 9.7214 26.6816C9.55933 26.6816 9.42921 26.7215 9.33105 26.8014C9.23518 26.8813 9.18724 26.9989 9.18724 27.1541C9.18724 27.291 9.23176 27.4018 9.32078 27.4862C9.40981 27.5684 9.54335 27.6095 9.7214 27.6095ZM9.7214 26.4419C9.86521 26.4419 9.97935 26.4042 10.0638 26.3289C10.1483 26.2536 10.1905 26.1565 10.1905 26.0378C10.1905 25.9032 10.1483 25.8016 10.0638 25.7331C9.98163 25.6646 9.86749 25.6304 9.7214 25.6304C9.57759 25.6304 9.46345 25.6646 9.37899 25.7331C9.29681 25.8016 9.25573 25.9032 9.25573 26.0378C9.25573 26.1565 9.29681 26.2536 9.37899 26.3289C9.46345 26.4042 9.57759 26.4419 9.7214 26.4419ZM11.4227 27.8218V25.7468L11.0118 25.8495V25.6441L11.5186 25.4249H11.7138V27.8218H11.4227ZM13.2119 27.8629C13.0612 27.8629 12.9322 27.8343 12.8249 27.7773C12.7177 27.7179 12.6321 27.6392 12.5681 27.541C12.5065 27.4406 12.4688 27.331 12.4551 27.2123H12.7222C12.745 27.3401 12.7998 27.4394 12.8866 27.5102C12.9733 27.5787 13.0829 27.6129 13.2153 27.6129C13.3363 27.6129 13.4436 27.5764 13.5372 27.5033C13.6307 27.4303 13.7061 27.3196 13.7631 27.1712C13.8225 27.0205 13.8556 26.8299 13.8624 26.5994C13.8624 26.5925 13.8624 26.5857 13.8624 26.5788C13.8624 26.572 13.8624 26.5651 13.8624 26.5583C13.8282 26.6291 13.778 26.6953 13.7118 26.7569C13.6456 26.8185 13.5668 26.8676 13.4755 26.9041C13.3865 26.9406 13.2861 26.9589 13.1742 26.9589C13.0395 26.9589 12.9117 26.927 12.7907 26.863C12.672 26.7991 12.575 26.7101 12.4997 26.596C12.4266 26.4795 12.3901 26.3437 12.3901 26.1885C12.3901 26.0538 12.4232 25.9248 12.4894 25.8016C12.5556 25.6783 12.6503 25.5779 12.7736 25.5003C12.8968 25.4226 13.0429 25.3838 13.2119 25.3838C13.3831 25.3838 13.528 25.4169 13.6467 25.4831C13.7654 25.5471 13.8602 25.6338 13.9309 25.7434C14.004 25.8507 14.0565 25.9728 14.0884 26.1097C14.1204 26.2467 14.1364 26.386 14.1364 26.5275C14.1364 26.79 14.0998 27.0217 14.0268 27.2226C13.956 27.4234 13.851 27.581 13.7118 27.6951C13.5748 27.8069 13.4082 27.8629 13.2119 27.8629ZM13.2324 26.709C13.3374 26.709 13.4321 26.685 13.5166 26.637C13.6011 26.5891 13.6673 26.5241 13.7152 26.4419C13.7654 26.3597 13.7905 26.2695 13.7905 26.1714C13.7905 26.0664 13.7654 25.9739 13.7152 25.894C13.6673 25.8141 13.6011 25.7514 13.5166 25.7057C13.4321 25.66 13.3374 25.6372 13.2324 25.6372C13.1274 25.6372 13.0327 25.6612 12.9482 25.7091C12.866 25.7548 12.801 25.8176 12.753 25.8974C12.7051 25.9773 12.6811 26.0698 12.6811 26.1748C12.6811 26.2821 12.7051 26.3757 12.753 26.4556C12.801 26.5355 12.866 26.5982 12.9482 26.6439C13.0327 26.6873 13.1274 26.709 13.2324 26.709ZM14.9121 27.8218L15.8469 25.6715H14.5321V25.4249H16.1414V25.6406L15.2169 27.8218H14.9121ZM16.2792 27.8218L17.1627 25.4249H17.4674L18.3474 27.8218H18.0426L17.3133 25.7845L16.5806 27.8218H16.2792ZM16.6833 27.2054L16.7655 26.9726H17.8509L17.9331 27.2054H16.6833Z" fill="#4D4D63" fill-opacity="0.76"/>
</svg>
