<svg width="25" height="29" viewBox="0 0 25 29" fill="none" xmlns="http://www.w3.org/2000/svg">
<rect width="24.9023" height="28.8216" fill="#FEFFFF"/>
<rect width="24.9023" height="24.282" fill="#CC01A0"/>
<path d="M6.83856 27.8629C6.60572 27.8629 6.4037 27.8115 6.2325 27.7088C6.06358 27.6038 5.93346 27.4588 5.84215 27.2739C5.75085 27.0867 5.70519 26.8699 5.70519 26.6234C5.70519 26.3768 5.75085 26.1611 5.84215 25.9762C5.93346 25.789 6.06358 25.6441 6.2325 25.5413C6.4037 25.4363 6.60572 25.3838 6.83856 25.3838C7.11248 25.3838 7.33505 25.4489 7.50625 25.579C7.67746 25.7091 7.78703 25.8929 7.83496 26.1303H7.51653C7.48 25.9819 7.40581 25.8632 7.29396 25.7742C7.18211 25.6829 7.03031 25.6372 6.83856 25.6372C6.66736 25.6372 6.51898 25.6772 6.39343 25.7571C6.26788 25.8347 6.17087 25.9477 6.10238 26.096C6.0339 26.2421 5.99966 26.4179 5.99966 26.6234C5.99966 26.8288 6.0339 27.0057 6.10238 27.1541C6.17087 27.3002 6.26788 27.4132 6.39343 27.4931C6.51898 27.5707 6.66736 27.6095 6.83856 27.6095C7.03031 27.6095 7.18211 27.5661 7.29396 27.4794C7.40581 27.3903 7.48 27.2728 7.51653 27.1267H7.83496C7.78703 27.3572 7.67746 27.5376 7.50625 27.6677C7.33505 27.7978 7.11248 27.8629 6.83856 27.8629ZM9.49837 27.8629C9.26553 27.8629 9.06351 27.8115 8.89231 27.7088C8.72338 27.6038 8.59327 27.4588 8.50196 27.2739C8.41065 27.0867 8.365 26.8699 8.365 26.6234C8.365 26.3768 8.41065 26.1611 8.50196 25.9762C8.59327 25.789 8.72338 25.6441 8.89231 25.5413C9.06351 25.4363 9.26553 25.3838 9.49837 25.3838C9.77229 25.3838 9.99486 25.4489 10.1661 25.579C10.3373 25.7091 10.4468 25.8929 10.4948 26.1303H10.1763C10.1398 25.9819 10.0656 25.8632 9.95377 25.7742C9.84191 25.6829 9.69011 25.6372 9.49837 25.6372C9.32716 25.6372 9.17879 25.6772 9.05324 25.7571C8.92769 25.8347 8.83067 25.9477 8.76219 26.096C8.69371 26.2421 8.65947 26.4179 8.65947 26.6234C8.65947 26.8288 8.69371 27.0057 8.76219 27.1541C8.83067 27.3002 8.92769 27.4132 9.05324 27.4931C9.17879 27.5707 9.32716 27.6095 9.49837 27.6095C9.69011 27.6095 9.84191 27.5661 9.95377 27.4794C10.0656 27.3903 10.1398 27.2728 10.1763 27.1267H10.4948C10.4468 27.3572 10.3373 27.5376 10.1661 27.6677C9.99486 27.7978 9.77229 27.8629 9.49837 27.8629ZM12.0349 27.8629C11.8249 27.8629 11.6434 27.8115 11.4905 27.7088C11.3398 27.6038 11.2245 27.4588 11.1446 27.2739C11.0648 27.0867 11.0248 26.8699 11.0248 26.6234C11.0248 26.3768 11.0648 26.1611 11.1446 25.9762C11.2245 25.789 11.3398 25.6441 11.4905 25.5413C11.6434 25.4363 11.8249 25.3838 12.0349 25.3838C12.2449 25.3838 12.4241 25.4363 12.5725 25.5413C12.7231 25.6441 12.8384 25.789 12.9183 25.9762C12.9982 26.1611 13.0382 26.3768 13.0382 26.6234C13.0382 26.8699 12.9982 27.0867 12.9183 27.2739C12.8384 27.4588 12.7231 27.6038 12.5725 27.7088C12.4241 27.8115 12.2449 27.8629 12.0349 27.8629ZM12.0315 27.6095C12.1684 27.6095 12.2906 27.5707 12.3979 27.4931C12.5051 27.4132 12.5896 27.3002 12.6512 27.1541C12.7129 27.0057 12.7437 26.8288 12.7437 26.6234C12.7437 26.4179 12.7129 26.2421 12.6512 26.096C12.5896 25.9477 12.5051 25.8347 12.3979 25.7571C12.2906 25.6795 12.1684 25.6406 12.0315 25.6406C11.8945 25.6406 11.7713 25.6795 11.6617 25.7571C11.5544 25.8347 11.4699 25.9477 11.4083 26.096C11.349 26.2421 11.3193 26.4179 11.3193 26.6234C11.3193 26.8288 11.349 27.0057 11.4083 27.1541C11.4699 27.3002 11.5544 27.4132 11.6617 27.4931C11.7713 27.5707 11.8945 27.6095 12.0315 27.6095ZM13.927 27.8218V25.7468L13.5161 25.8495V25.6441L14.0229 25.4249H14.2181V27.8218H13.927ZM14.7814 27.8218L15.6648 25.4249H15.9696L16.8496 27.8218H16.5448L15.8155 25.7845L15.0827 27.8218H14.7814ZM15.1855 27.2054L15.2676 26.9726H16.3531L16.4352 27.2054H15.1855ZM18.1953 27.8629C17.9853 27.8629 17.8038 27.8115 17.6509 27.7088C17.5002 27.6038 17.3849 27.4588 17.305 27.2739C17.2251 27.0867 17.1852 26.8699 17.1852 26.6234C17.1852 26.3768 17.2251 26.1611 17.305 25.9762C17.3849 25.789 17.5002 25.6441 17.6509 25.5413C17.8038 25.4363 17.9853 25.3838 18.1953 25.3838C18.4053 25.3838 18.5845 25.4363 18.7329 25.5413C18.8835 25.6441 18.9988 25.789 19.0787 25.9762C19.1586 26.1611 19.1985 26.3768 19.1985 26.6234C19.1985 26.8699 19.1586 27.0867 19.0787 27.2739C18.9988 27.4588 18.8835 27.6038 18.7329 27.7088C18.5845 27.8115 18.4053 27.8629 18.1953 27.8629ZM18.1919 27.6095C18.3288 27.6095 18.451 27.5707 18.5582 27.4931C18.6655 27.4132 18.75 27.3002 18.8116 27.1541C18.8733 27.0057 18.9041 26.8288 18.9041 26.6234C18.9041 26.4179 18.8733 26.2421 18.8116 26.096C18.75 25.9477 18.6655 25.8347 18.5582 25.7571C18.451 25.6795 18.3288 25.6406 18.1919 25.6406C18.0549 25.6406 17.9316 25.6795 17.8221 25.7571C17.7148 25.8347 17.6303 25.9477 17.5687 26.096C17.5093 26.2421 17.4797 26.4179 17.4797 26.6234C17.4797 26.8288 17.5093 27.0057 17.5687 27.1541C17.6303 27.3002 17.7148 27.4132 17.8221 27.4931C17.9316 27.5707 18.0549 27.6095 18.1919 27.6095Z" fill="#4D4D63" fill-opacity="0.76"/>
</svg>
