<svg width="25" height="29" viewBox="0 0 25 29" fill="none" xmlns="http://www.w3.org/2000/svg">
<rect width="24.9275" height="28.8467" fill="#FEFFFF"/>
<rect width="24.9275" height="24.3066" fill="#E880CA"/>
<path d="M5.64294 27.8467V25.4474H7.12706V25.6839H5.93085V26.5202H7.02423V26.7533H5.93085V27.6102H7.12706V27.8467H5.64294ZM8.57153 27.8878C8.41614 27.8878 8.27676 27.8592 8.15337 27.8021C8.02997 27.7427 7.93172 27.6616 7.8586 27.5588C7.78548 27.4537 7.74892 27.3325 7.74892 27.1954C7.74892 27.0972 7.76834 27.0058 7.80719 26.9212C7.84603 26.8367 7.89973 26.7636 7.96828 26.7019C8.03911 26.6379 8.12023 26.5933 8.21163 26.5682C8.08367 26.5225 7.98427 26.4517 7.91344 26.3557C7.84489 26.2597 7.81061 26.1558 7.81061 26.0438C7.81061 25.925 7.84146 25.8176 7.90316 25.7216C7.96485 25.6256 8.05168 25.5491 8.16365 25.492C8.2779 25.4348 8.41386 25.4063 8.57153 25.4063C8.73148 25.4063 8.86744 25.4348 8.9794 25.492C9.09365 25.5491 9.18048 25.6256 9.2399 25.7216C9.30159 25.8176 9.33244 25.925 9.33244 26.0438C9.33244 26.1558 9.29702 26.2597 9.22618 26.3557C9.15763 26.4517 9.05938 26.5225 8.93142 26.5682C9.0251 26.5933 9.10622 26.6379 9.17477 26.7019C9.24561 26.7636 9.29931 26.8367 9.33587 26.9212C9.37471 27.0058 9.39413 27.0972 9.39413 27.1954C9.39413 27.3325 9.35757 27.4537 9.28445 27.5588C9.21362 27.6616 9.11536 27.7427 8.98968 27.8021C8.86629 27.8592 8.72691 27.8878 8.57153 27.8878ZM8.57153 27.6342C8.75204 27.6342 8.88572 27.593 8.97255 27.5108C9.06166 27.4262 9.10622 27.3154 9.10622 27.1783C9.10622 27.0229 9.05709 26.9052 8.95884 26.8253C8.86287 26.7453 8.73376 26.7053 8.57153 26.7053C8.40929 26.7053 8.27904 26.7453 8.18079 26.8253C8.08482 26.9052 8.03683 27.0229 8.03683 27.1783C8.03683 27.3154 8.08139 27.4262 8.1705 27.5108C8.25962 27.593 8.39329 27.6342 8.57153 27.6342ZM8.57153 26.4654C8.71548 26.4654 8.82973 26.4277 8.91428 26.3523C8.99882 26.2769 9.0411 26.1798 9.0411 26.0609C9.0411 25.9261 8.99882 25.8244 8.91428 25.7559C8.83202 25.6873 8.71777 25.6531 8.57153 25.6531C8.42757 25.6531 8.31332 25.6873 8.22877 25.7559C8.14651 25.8244 8.10538 25.9261 8.10538 26.0609C8.10538 26.1798 8.14651 26.2769 8.22877 26.3523C8.31332 26.4277 8.42757 26.4654 8.57153 26.4654ZM10.8625 27.8878C10.7071 27.8878 10.5677 27.8592 10.4443 27.8021C10.3209 27.7427 10.2227 27.6616 10.1496 27.5588C10.0764 27.4537 10.0399 27.3325 10.0399 27.1954C10.0399 27.0972 10.0593 27.0058 10.0981 26.9212C10.137 26.8367 10.1907 26.7636 10.2592 26.7019C10.3301 26.6379 10.4112 26.5933 10.5026 26.5682C10.3746 26.5225 10.2752 26.4517 10.2044 26.3557C10.1358 26.2597 10.1016 26.1558 10.1016 26.0438C10.1016 25.925 10.1324 25.8176 10.1941 25.7216C10.2558 25.6256 10.3426 25.5491 10.4546 25.492C10.5689 25.4348 10.7048 25.4063 10.8625 25.4063C11.0224 25.4063 11.1584 25.4348 11.2704 25.492C11.3846 25.5491 11.4714 25.6256 11.5309 25.7216C11.5926 25.8176 11.6234 25.925 11.6234 26.0438C11.6234 26.1558 11.588 26.2597 11.5171 26.3557C11.4486 26.4517 11.3503 26.5225 11.2224 26.5682C11.3161 26.5933 11.3972 26.6379 11.4657 26.7019C11.5366 26.7636 11.5903 26.8367 11.6268 26.9212C11.6657 27.0058 11.6851 27.0972 11.6851 27.1954C11.6851 27.3325 11.6485 27.4537 11.5754 27.5588C11.5046 27.6616 11.4063 27.7427 11.2806 27.8021C11.1573 27.8592 11.0179 27.8878 10.8625 27.8878ZM10.8625 27.6342C11.043 27.6342 11.1767 27.593 11.2635 27.5108C11.3526 27.4262 11.3972 27.3154 11.3972 27.1783C11.3972 27.0229 11.3481 26.9052 11.2498 26.8253C11.1538 26.7453 11.0247 26.7053 10.8625 26.7053C10.7002 26.7053 10.57 26.7453 10.4717 26.8253C10.3758 26.9052 10.3278 27.0229 10.3278 27.1783C10.3278 27.3154 10.3723 27.4262 10.4615 27.5108C10.5506 27.593 10.6843 27.6342 10.8625 27.6342ZM10.8625 26.4654C11.0064 26.4654 11.1207 26.4277 11.2052 26.3523C11.2898 26.2769 11.3321 26.1798 11.3321 26.0609C11.3321 25.9261 11.2898 25.8244 11.2052 25.7559C11.123 25.6873 11.0087 25.6531 10.8625 25.6531C10.7185 25.6531 10.6043 25.6873 10.5197 25.7559C10.4375 25.8244 10.3963 25.9261 10.3963 26.0609C10.3963 26.1798 10.4375 26.2769 10.5197 26.3523C10.6043 26.4277 10.7185 26.4654 10.8625 26.4654ZM13.2871 27.8878C13.0769 27.8878 12.8952 27.8364 12.7421 27.7336C12.5913 27.6285 12.4759 27.4834 12.396 27.2983C12.316 27.1109 12.276 26.8938 12.276 26.647C12.276 26.4003 12.316 26.1843 12.396 25.9992C12.4759 25.8119 12.5913 25.6668 12.7421 25.5639C12.8952 25.4588 13.0769 25.4063 13.2871 25.4063C13.4973 25.4063 13.6767 25.4588 13.8252 25.5639C13.9761 25.6668 14.0914 25.8119 14.1714 25.9992C14.2514 26.1843 14.2914 26.4003 14.2914 26.647C14.2914 26.8938 14.2514 27.1109 14.1714 27.2983C14.0914 27.4834 13.9761 27.6285 13.8252 27.7336C13.6767 27.8364 13.4973 27.8878 13.2871 27.8878ZM13.2837 27.6342C13.4208 27.6342 13.543 27.5953 13.6504 27.5176C13.7578 27.4377 13.8424 27.3246 13.9041 27.1783C13.9658 27.0298 13.9966 26.8527 13.9966 26.647C13.9966 26.4414 13.9658 26.2654 13.9041 26.1192C13.8424 25.9707 13.7578 25.8576 13.6504 25.7799C13.543 25.7022 13.4208 25.6633 13.2837 25.6633C13.1466 25.6633 13.0232 25.7022 12.9135 25.7799C12.8061 25.8576 12.7216 25.9707 12.6599 26.1192C12.6005 26.2654 12.5708 26.4414 12.5708 26.647C12.5708 26.8527 12.6005 27.0298 12.6599 27.1783C12.7216 27.3246 12.8061 27.4377 12.9135 27.5176C13.0232 27.5953 13.1466 27.6342 13.2837 27.6342ZM15.9592 27.8878C15.7261 27.8878 15.5239 27.8364 15.3525 27.7336C15.1834 27.6285 15.0532 27.4834 14.9618 27.2983C14.8704 27.1109 14.8247 26.8938 14.8247 26.647C14.8247 26.4003 14.8704 26.1843 14.9618 25.9992C15.0532 25.8119 15.1834 25.6668 15.3525 25.5639C15.5239 25.4588 15.7261 25.4063 15.9592 25.4063C16.2334 25.4063 16.4562 25.4714 16.6276 25.6016C16.799 25.7319 16.9086 25.9158 16.9566 26.1535H16.6379C16.6013 26.005 16.527 25.8861 16.4151 25.797C16.3031 25.7056 16.1511 25.6599 15.9592 25.6599C15.7878 25.6599 15.6393 25.6999 15.5136 25.7799C15.3879 25.8576 15.2908 25.9707 15.2223 26.1192C15.1537 26.2654 15.1195 26.4414 15.1195 26.647C15.1195 26.8527 15.1537 27.0298 15.2223 27.1783C15.2908 27.3246 15.3879 27.4377 15.5136 27.5176C15.6393 27.5953 15.7878 27.6342 15.9592 27.6342C16.1511 27.6342 16.3031 27.5908 16.4151 27.5039C16.527 27.4148 16.6013 27.2971 16.6379 27.1509H16.9566C16.9086 27.3817 16.799 27.5622 16.6276 27.6924C16.4562 27.8227 16.2334 27.8878 15.9592 27.8878ZM17.3686 27.8467L18.2529 25.4474H18.5579L19.4388 27.8467H19.1338L18.4037 25.8073L17.6702 27.8467H17.3686ZM17.773 27.2297L17.8553 26.9967H18.9418L19.0241 27.2297H17.773Z" fill="#4D4D63" fill-opacity="0.76"/>
</svg>
