<svg width="25" height="29" viewBox="0 0 25 29" fill="none" xmlns="http://www.w3.org/2000/svg">
<rect width="24.9275" height="28.8467" fill="#FEFFFF"/>
<rect width="24.9275" height="24.3066" fill="#F484C4"/>
<path d="M5.89565 27.8467V25.4474H7.35578V25.6839H6.18356V26.5271H7.18098V26.7602H6.18356V27.8467H5.89565ZM9.0221 27.8467V27.3325H7.80532V27.1098L8.97069 25.4474H9.30658V27.0789H9.66305V27.3325H9.30658V27.8467H9.0221ZM8.12408 27.0789H9.03581V25.7662L8.12408 27.0789ZM11.0081 27.8878C10.8527 27.8878 10.7133 27.8592 10.5899 27.8021C10.4665 27.7427 10.3683 27.6616 10.2952 27.5588C10.222 27.4537 10.1855 27.3325 10.1855 27.1954C10.1855 27.0972 10.2049 27.0058 10.2437 26.9212C10.2826 26.8367 10.3363 26.7636 10.4048 26.7019C10.4757 26.6379 10.5568 26.5933 10.6482 26.5682C10.5202 26.5225 10.4208 26.4517 10.35 26.3557C10.2815 26.2597 10.2472 26.1558 10.2472 26.0438C10.2472 25.925 10.278 25.8176 10.3397 25.7216C10.4014 25.6256 10.4882 25.5491 10.6002 25.492C10.7145 25.4348 10.8504 25.4063 11.0081 25.4063C11.168 25.4063 11.304 25.4348 11.416 25.492C11.5302 25.5491 11.617 25.6256 11.6765 25.7216C11.7382 25.8176 11.769 25.925 11.769 26.0438C11.769 26.1558 11.7336 26.2597 11.6627 26.3557C11.5942 26.4517 11.4959 26.5225 11.368 26.5682C11.4617 26.5933 11.5428 26.6379 11.6113 26.7019C11.6822 26.7636 11.7359 26.8367 11.7724 26.9212C11.8113 27.0058 11.8307 27.0972 11.8307 27.1954C11.8307 27.3325 11.7941 27.4537 11.721 27.5588C11.6502 27.6616 11.5519 27.7427 11.4262 27.8021C11.3029 27.8592 11.1635 27.8878 11.0081 27.8878ZM11.0081 27.6342C11.1886 27.6342 11.3223 27.593 11.4091 27.5108C11.4982 27.4262 11.5428 27.3154 11.5428 27.1783C11.5428 27.0229 11.4937 26.9052 11.3954 26.8253C11.2994 26.7453 11.1703 26.7053 11.0081 26.7053C10.8459 26.7053 10.7156 26.7453 10.6173 26.8253C10.5214 26.9052 10.4734 27.0229 10.4734 27.1783C10.4734 27.3154 10.518 27.4262 10.6071 27.5108C10.6962 27.593 10.8299 27.6342 11.0081 27.6342ZM11.0081 26.4654C11.152 26.4654 11.2663 26.4277 11.3508 26.3523C11.4354 26.2769 11.4777 26.1798 11.4777 26.0609C11.4777 25.9261 11.4354 25.8244 11.3508 25.7559C11.2686 25.6873 11.1543 25.6531 11.0081 25.6531C10.8641 25.6531 10.7499 25.6873 10.6653 25.7559C10.5831 25.8244 10.5419 25.9261 10.5419 26.0609C10.5419 26.1798 10.5831 26.2769 10.6653 26.3523C10.7499 26.4277 10.8641 26.4654 11.0081 26.4654ZM13.6007 27.8467V27.3325H12.3839V27.1098L13.5493 25.4474H13.8852V27.0789H14.2416V27.3325H13.8852V27.8467H13.6007ZM12.7027 27.0789H13.6144V25.7662L12.7027 27.0789ZM15.8437 27.8878C15.6107 27.8878 15.4084 27.8364 15.2371 27.7336C15.068 27.6285 14.9377 27.4834 14.8463 27.2983C14.7549 27.1109 14.7092 26.8938 14.7092 26.647C14.7092 26.4003 14.7549 26.1843 14.8463 25.9992C14.9377 25.8119 15.068 25.6668 15.2371 25.5639C15.4084 25.4588 15.6107 25.4063 15.8437 25.4063C16.1179 25.4063 16.3407 25.4714 16.5121 25.6016C16.6835 25.7319 16.7932 25.9158 16.8411 26.1535H16.5224C16.4858 26.005 16.4116 25.8861 16.2996 25.797C16.1876 25.7056 16.0357 25.6599 15.8437 25.6599C15.6723 25.6599 15.5238 25.6999 15.3981 25.7799C15.2725 25.8576 15.1754 25.9707 15.1068 26.1192C15.0383 26.2654 15.004 26.4414 15.004 26.647C15.004 26.8527 15.0383 27.0298 15.1068 27.1783C15.1754 27.3246 15.2725 27.4377 15.3981 27.5176C15.5238 27.5953 15.6723 27.6342 15.8437 27.6342C16.0357 27.6342 16.1876 27.5908 16.2996 27.5039C16.4116 27.4148 16.4858 27.2971 16.5224 27.1509H16.8411C16.7932 27.3817 16.6835 27.5622 16.5121 27.6924C16.3407 27.8227 16.1179 27.8878 15.8437 27.8878ZM18.5508 27.8467V27.3325H17.334V27.1098L18.4994 25.4474H18.8353V27.0789H19.1917V27.3325H18.8353V27.8467H18.5508ZM17.6528 27.0789H18.5645V25.7662L17.6528 27.0789Z" fill="#4D4D63" fill-opacity="0.76"/>
</svg>
