<svg width="25" height="29" viewBox="0 0 25 29" fill="none" xmlns="http://www.w3.org/2000/svg">
<rect width="24.9275" height="28.8467" fill="#FEFFFF"/>
<rect width="24.9275" height="24.3066" fill="#940042"/>
<path d="M7.04192 27.8841C6.90482 27.8841 6.78745 27.8581 6.68982 27.8062C6.59219 27.7522 6.51429 27.6805 6.45612 27.5912C6.40004 27.4998 6.36576 27.4001 6.3533 27.292H6.59634C6.61711 27.4084 6.66697 27.4987 6.74591 27.5631C6.82484 27.6254 6.92455 27.6566 7.04504 27.6566C7.15513 27.6566 7.25277 27.6234 7.33794 27.5569C7.42311 27.4904 7.49166 27.3897 7.54359 27.2547C7.5976 27.1175 7.62772 26.9441 7.63395 26.7343C7.63395 26.7281 7.63395 26.7218 7.63395 26.7156C7.63395 26.7094 7.63395 26.7031 7.63395 26.6969C7.60279 26.7613 7.55709 26.8215 7.49685 26.8776C7.43661 26.9337 7.36494 26.9784 7.28185 27.0116C7.20083 27.0448 7.10943 27.0615 7.00765 27.0615C6.88509 27.0615 6.76876 27.0324 6.65866 26.9742C6.55064 26.9161 6.46236 26.835 6.39381 26.7312C6.32733 26.6252 6.2941 26.5016 6.2941 26.3604C6.2941 26.2378 6.32422 26.1204 6.38446 26.0083C6.4447 25.8961 6.53091 25.8047 6.64308 25.7341C6.75525 25.6634 6.8882 25.6281 7.04192 25.6281C7.19772 25.6281 7.32963 25.6582 7.43765 25.7185C7.54567 25.7767 7.63187 25.8556 7.69627 25.9553C7.76274 26.0529 7.81052 26.1641 7.8396 26.2887C7.86868 26.4133 7.88323 26.5401 7.88323 26.6689C7.88323 26.9077 7.84999 27.1186 7.78352 27.3014C7.71912 27.4842 7.62356 27.6275 7.49685 27.7314C7.37221 27.8332 7.22057 27.8841 7.04192 27.8841ZM7.06062 26.834C7.15617 26.834 7.24238 26.8122 7.31924 26.7686C7.3961 26.7249 7.45634 26.6657 7.49997 26.591C7.54567 26.5162 7.56852 26.4341 7.56852 26.3448C7.56852 26.2492 7.54567 26.1651 7.49997 26.0924C7.45634 26.0197 7.3961 25.9626 7.31924 25.921C7.24238 25.8795 7.15617 25.8587 7.06062 25.8587C6.96506 25.8587 6.87885 25.8805 6.80199 25.9241C6.72721 25.9657 6.66801 26.0228 6.62439 26.0955C6.58076 26.1682 6.55895 26.2524 6.55895 26.3479C6.55895 26.4455 6.58076 26.5307 6.62439 26.6034C6.66801 26.6761 6.72721 26.7332 6.80199 26.7748C6.87885 26.8143 6.96506 26.834 7.06062 26.834ZM9.46279 27.8467V27.3793H8.35663V27.1768L9.41605 25.6655H9.72141V27.1487H10.0455V27.3793H9.72141V27.8467H9.46279ZM8.64641 27.1487H9.47525V25.9553L8.64641 27.1487ZM11.3898 27.8841C11.1986 27.8841 11.0335 27.8373 10.8943 27.7439C10.7572 27.6483 10.6523 27.5164 10.5796 27.3481C10.5069 27.1778 10.4706 26.9804 10.4706 26.7561C10.4706 26.5318 10.5069 26.3354 10.5796 26.1672C10.6523 25.9968 10.7572 25.8649 10.8943 25.7715C11.0335 25.6759 11.1986 25.6281 11.3898 25.6281C11.5809 25.6281 11.7439 25.6759 11.879 25.7715C12.0161 25.8649 12.121 25.9968 12.1937 26.1672C12.2664 26.3354 12.3027 26.5318 12.3027 26.7561C12.3027 26.9804 12.2664 27.1778 12.1937 27.3481C12.121 27.5164 12.0161 27.6483 11.879 27.7439C11.7439 27.8373 11.5809 27.8841 11.3898 27.8841ZM11.3866 27.6535C11.5113 27.6535 11.6224 27.6182 11.72 27.5475C11.8177 27.4748 11.8945 27.372 11.9506 27.2391C12.0067 27.104 12.0348 26.9431 12.0348 26.7561C12.0348 26.5691 12.0067 26.4092 11.9506 26.2762C11.8945 26.1412 11.8177 26.0384 11.72 25.9678C11.6224 25.8971 11.5113 25.8618 11.3866 25.8618C11.262 25.8618 11.1498 25.8971 11.0501 25.9678C10.9525 26.0384 10.8756 26.1412 10.8195 26.2762C10.7655 26.4092 10.7385 26.5691 10.7385 26.7561C10.7385 26.9431 10.7655 27.104 10.8195 27.2391C10.8756 27.372 10.9525 27.4748 11.0501 27.5475C11.1498 27.6182 11.262 27.6535 11.3866 27.6535ZM13.7068 27.8841C13.5156 27.8841 13.3505 27.8373 13.2113 27.7439C13.0742 27.6483 12.9693 27.5164 12.8966 27.3481C12.8239 27.1778 12.7875 26.9804 12.7875 26.7561C12.7875 26.5318 12.8239 26.3354 12.8966 26.1672C12.9693 25.9968 13.0742 25.8649 13.2113 25.7715C13.3505 25.6759 13.5156 25.6281 13.7068 25.6281C13.8979 25.6281 14.0609 25.6759 14.196 25.7715C14.3331 25.8649 14.438 25.9968 14.5107 26.1672C14.5834 26.3354 14.6197 26.5318 14.6197 26.7561C14.6197 26.9804 14.5834 27.1778 14.5107 27.3481C14.438 27.5164 14.3331 27.6483 14.196 27.7439C14.0609 27.8373 13.8979 27.8841 13.7068 27.8841ZM13.7036 27.6535C13.8283 27.6535 13.9394 27.6182 14.037 27.5475C14.1347 27.4748 14.2115 27.372 14.2676 27.2391C14.3237 27.104 14.3518 26.9431 14.3518 26.7561C14.3518 26.5691 14.3237 26.4092 14.2676 26.2762C14.2115 26.1412 14.1347 26.0384 14.037 25.9678C13.9394 25.8971 13.8283 25.8618 13.7036 25.8618C13.579 25.8618 13.4668 25.8971 13.3671 25.9678C13.2695 26.0384 13.1926 26.1412 13.1365 26.2762C13.0825 26.4092 13.0555 26.5691 13.0555 26.7561C13.0555 26.9431 13.0825 27.104 13.1365 27.2391C13.1926 27.372 13.2695 27.4748 13.3671 27.5475C13.4668 27.6182 13.579 27.6535 13.7036 27.6535ZM16.1764 27.8467V27.3793H15.0703V27.1768L16.1297 25.6655H16.435V27.1487H16.7591V27.3793H16.435V27.8467H16.1764ZM15.36 27.1487H16.1889V25.9553L15.36 27.1487ZM17.234 27.8467V27.6628C17.3815 27.5465 17.5217 27.4291 17.6547 27.3107C17.7897 27.1923 17.9092 27.075 18.013 26.9586C18.1169 26.8402 18.1979 26.7249 18.2561 26.6128C18.3163 26.5006 18.3464 26.3926 18.3464 26.2887C18.3464 26.2118 18.3329 26.1412 18.3059 26.0768C18.2789 26.0104 18.2353 25.9563 18.1751 25.9148C18.1169 25.8732 18.038 25.8525 17.9382 25.8525C17.8406 25.8525 17.7596 25.8743 17.6952 25.9179C17.6308 25.9595 17.582 26.0155 17.5488 26.0862C17.5176 26.1547 17.502 26.2305 17.502 26.3136H17.2496C17.2517 26.1703 17.2818 26.0477 17.34 25.946C17.4002 25.8421 17.4823 25.7632 17.5861 25.7091C17.69 25.6551 17.8084 25.6281 17.9414 25.6281C18.0722 25.6281 18.1875 25.6531 18.2872 25.7029C18.3869 25.7507 18.4648 25.8224 18.5209 25.9179C18.5791 26.0135 18.6082 26.134 18.6082 26.2794C18.6082 26.3811 18.5864 26.4829 18.5427 26.5847C18.5012 26.6865 18.4451 26.7862 18.3745 26.8839C18.3039 26.9794 18.2249 27.0718 18.1377 27.1612C18.0525 27.2505 17.9642 27.3346 17.8728 27.4136C17.7835 27.4925 17.6994 27.5642 17.6204 27.6286H18.683V27.8467H17.234Z" fill="#4D4D63" fill-opacity="0.76"/>
</svg>
