<svg width="25" height="29" viewBox="0 0 25 29" fill="none" xmlns="http://www.w3.org/2000/svg">
<rect width="24.9023" height="28.8194" fill="#FEFFFF"/>
<rect width="24.9023" height="24.2798" fill="#6D29AA"/>
<path d="M6.59188 27.8604C6.41839 27.8604 6.2723 27.8285 6.1536 27.7646C6.0349 27.6984 5.94016 27.6116 5.8694 27.5043C5.79864 27.3948 5.74613 27.2715 5.71189 27.1345C5.67993 26.9976 5.66396 26.8583 5.66396 26.7168C5.66396 26.452 5.70048 26.2203 5.77353 26.0217C5.84657 25.8208 5.95158 25.6645 6.08854 25.5526C6.22779 25.4385 6.39442 25.3814 6.58845 25.3814C6.73911 25.3814 6.86809 25.4111 6.97537 25.4704C7.08494 25.5275 7.17169 25.6051 7.2356 25.7033C7.29952 25.8014 7.33833 25.911 7.35202 26.032H7.08494C7.06212 25.9041 7.00619 25.806 6.91717 25.7375C6.83042 25.6667 6.71971 25.6314 6.58503 25.6314C6.46633 25.6314 6.35904 25.669 6.26317 25.7443C6.16729 25.8174 6.09082 25.9304 6.03376 26.0833C5.97897 26.234 5.94701 26.4269 5.93788 26.662C5.93788 26.6643 5.93788 26.6677 5.93788 26.6723C5.93788 26.6768 5.93788 26.6814 5.93788 26.686C5.9744 26.6152 6.02462 26.549 6.08854 26.4874C6.15474 26.4257 6.23349 26.3767 6.3248 26.3401C6.41611 26.3036 6.51769 26.2854 6.62954 26.2854C6.76422 26.2854 6.89091 26.3173 7.00962 26.3812C7.12832 26.4451 7.22419 26.5353 7.29724 26.6517C7.37257 26.7659 7.41023 26.9005 7.41023 27.0558C7.41023 27.1904 7.37713 27.3194 7.31093 27.4427C7.24702 27.566 7.15343 27.6664 7.03016 27.744C6.90689 27.8216 6.7608 27.8604 6.59188 27.8604ZM6.57133 27.607C6.67634 27.607 6.76993 27.5842 6.85211 27.5386C6.93657 27.4906 7.00163 27.4267 7.04728 27.3468C7.09522 27.2646 7.11919 27.1722 7.11919 27.0695C7.11919 26.9622 7.09522 26.8686 7.04728 26.7887C7.00163 26.7088 6.93657 26.6472 6.85211 26.6038C6.76993 26.5581 6.67634 26.5353 6.57133 26.5353C6.46633 26.5353 6.3716 26.5593 6.28714 26.6072C6.20268 26.6552 6.13534 26.7202 6.08512 26.8024C6.03718 26.8823 6.01321 26.9724 6.01321 27.0729C6.01321 27.1756 6.03718 27.2681 6.08512 27.3502C6.13534 27.4301 6.20268 27.4929 6.28714 27.5386C6.3716 27.5842 6.46633 27.607 6.57133 27.607ZM8.08796 27.8193V25.4225H8.79332C9.07409 25.4225 9.30464 25.4716 9.48498 25.5697C9.66759 25.6656 9.80227 25.8037 9.88902 25.984C9.97804 26.1621 10.0226 26.3767 10.0226 26.6278C10.0226 26.8743 9.97804 27.0866 9.88902 27.2646C9.80227 27.4427 9.66759 27.5797 9.48498 27.6755C9.30464 27.7714 9.07409 27.8193 8.79332 27.8193H8.08796ZM8.37558 27.5797H8.78647C9.0193 27.5797 9.2042 27.542 9.34117 27.4667C9.47813 27.389 9.57629 27.2795 9.63564 27.1379C9.69499 26.9941 9.72466 26.8241 9.72466 26.6278C9.72466 26.4269 9.69499 26.2545 9.63564 26.1107C9.57629 25.9669 9.47813 25.8562 9.34117 25.7786C9.2042 25.701 9.0193 25.6622 8.78647 25.6622H8.37558V27.5797ZM10.5563 27.8193V27.6173C10.7184 27.4895 10.8724 27.3605 11.0185 27.2304C11.1669 27.1003 11.2982 26.9713 11.4123 26.8435C11.5264 26.7134 11.6155 26.5867 11.6794 26.4634C11.7456 26.3401 11.7787 26.2214 11.7787 26.1073C11.7787 26.0228 11.7638 25.9452 11.7342 25.8745C11.7045 25.8014 11.6566 25.7421 11.5904 25.6964C11.5264 25.6508 11.4397 25.6279 11.3301 25.6279C11.2228 25.6279 11.1338 25.6519 11.063 25.6998C10.9923 25.7455 10.9386 25.8071 10.9021 25.8847C10.8679 25.9601 10.8508 26.0434 10.8508 26.1347H10.5734C10.5757 25.9772 10.6088 25.8425 10.6727 25.7307C10.7389 25.6165 10.8291 25.5298 10.9432 25.4704C11.0573 25.4111 11.1875 25.3814 11.3335 25.3814C11.4774 25.3814 11.604 25.4088 11.7136 25.4636C11.8232 25.5161 11.9088 25.5948 11.9704 25.6998C12.0343 25.8048 12.0663 25.9372 12.0663 26.097C12.0663 26.2089 12.0423 26.3207 11.9944 26.4326C11.9487 26.5444 11.8871 26.654 11.8095 26.7613C11.7319 26.8663 11.6451 26.9679 11.5493 27.066C11.4557 27.1642 11.3587 27.2566 11.2582 27.3434C11.1601 27.4301 11.0676 27.5089 10.9809 27.5797H12.1485V27.8193H10.5563ZM13.5195 27.8604C13.3688 27.8604 13.2399 27.8319 13.1326 27.7748C13.0253 27.7155 12.9397 27.6367 12.8758 27.5386C12.8141 27.4381 12.7765 27.3286 12.7628 27.2099H13.0299C13.0527 27.3377 13.1075 27.437 13.1942 27.5077C13.281 27.5762 13.3905 27.6105 13.5229 27.6105C13.6439 27.6105 13.7512 27.5739 13.8448 27.5009C13.9384 27.4279 14.0137 27.3171 14.0708 27.1688C14.1301 27.0181 14.1632 26.8275 14.1701 26.5969C14.1701 26.5901 14.1701 26.5832 14.1701 26.5764C14.1701 26.5696 14.1701 26.5627 14.1701 26.5559C14.1358 26.6266 14.0856 26.6928 14.0194 26.7544C13.9532 26.8161 13.8745 26.8652 13.7831 26.9017C13.6941 26.9382 13.5937 26.9565 13.4818 26.9565C13.3472 26.9565 13.2193 26.9245 13.0983 26.8606C12.9796 26.7967 12.8826 26.7077 12.8073 26.5935C12.7342 26.4771 12.6977 26.3413 12.6977 26.1861C12.6977 26.0514 12.7308 25.9224 12.797 25.7991C12.8632 25.6759 12.9579 25.5754 13.0812 25.4978C13.2045 25.4202 13.3506 25.3814 13.5195 25.3814C13.6907 25.3814 13.8357 25.4145 13.9544 25.4807C14.0731 25.5446 14.1678 25.6314 14.2386 25.7409C14.3116 25.8482 14.3641 25.9703 14.3961 26.1073C14.428 26.2443 14.444 26.3835 14.444 26.525C14.444 26.7875 14.4075 27.0192 14.3344 27.2201C14.2637 27.421 14.1587 27.5785 14.0194 27.6926C13.8824 27.8045 13.7158 27.8604 13.5195 27.8604ZM13.54 26.7065C13.645 26.7065 13.7398 26.6825 13.8242 26.6346C13.9087 26.5867 13.9749 26.5216 14.0228 26.4394C14.0731 26.3573 14.0982 26.2671 14.0982 26.1689C14.0982 26.0639 14.0731 25.9715 14.0228 25.8916C13.9749 25.8117 13.9087 25.7489 13.8242 25.7033C13.7398 25.6576 13.645 25.6348 13.54 25.6348C13.435 25.6348 13.3403 25.6587 13.2558 25.7067C13.1737 25.7523 13.1086 25.8151 13.0607 25.895C13.0127 25.9749 12.9888 26.0674 12.9888 26.1724C12.9888 26.2796 13.0127 26.3732 13.0607 26.4531C13.1086 26.533 13.1737 26.5958 13.2558 26.6415C13.3403 26.6848 13.435 26.7065 13.54 26.7065ZM14.7764 27.8193L15.6598 25.4225H15.9645L16.8445 27.8193H16.5398L15.8105 25.782L15.0777 27.8193H14.7764ZM15.1804 27.203L15.2626 26.9702H16.348L16.4302 27.203H15.1804ZM17.2556 27.8193L18.139 25.4225H18.4438L19.3238 27.8193H19.019L18.2897 25.782L17.557 27.8193H17.2556ZM17.6597 27.203L17.7419 26.9702H18.8273L18.9095 27.203H17.6597Z" fill="#4D4D63" fill-opacity="0.76"/>
</svg>
