<svg width="25" height="29" viewBox="0 0 25 29" fill="none" xmlns="http://www.w3.org/2000/svg">
<rect width="24.9275" height="28.8467" fill="#FEFFFF"/>
<rect width="24.9275" height="24.3066" fill="#E22982"/>
<path d="M6.79705 27.8467V25.6655H8.14626V25.8805H7.05879V26.6408H8.05278V26.8527H7.05879V27.6317H8.14626V27.8467H6.79705ZM8.71158 27.8467V27.6628C8.85907 27.5465 8.99928 27.4291 9.13223 27.3107C9.26726 27.1923 9.3867 27.075 9.49057 26.9586C9.59443 26.8402 9.67544 26.7249 9.73361 26.6128C9.79385 26.5006 9.82397 26.3926 9.82397 26.2887C9.82397 26.2118 9.81047 26.1412 9.78346 26.0768C9.75646 26.0104 9.71284 25.9563 9.65259 25.9148C9.59443 25.8732 9.51549 25.8525 9.41578 25.8525C9.31815 25.8525 9.23714 25.8743 9.17274 25.9179C9.10834 25.9595 9.05953 26.0155 9.02629 26.0862C8.99513 26.1547 8.97955 26.2305 8.97955 26.3136H8.72716C8.72924 26.1703 8.75936 26.0477 8.81752 25.946C8.87776 25.8421 8.95982 25.7632 9.06368 25.7091C9.16755 25.6551 9.28595 25.6281 9.4189 25.6281C9.54977 25.6281 9.66506 25.6531 9.76477 25.7029C9.86448 25.7507 9.94238 25.8224 9.99846 25.9179C10.0566 26.0135 10.0857 26.134 10.0857 26.2794C10.0857 26.3811 10.0639 26.4829 10.0203 26.5847C9.97873 26.6865 9.92264 26.7862 9.85201 26.8839C9.78139 26.9794 9.70245 27.0718 9.6152 27.1612C9.53003 27.2505 9.44175 27.3346 9.35035 27.4136C9.26102 27.4925 9.17689 27.5642 9.09796 27.6286H10.1605V27.8467H8.71158ZM10.6939 27.8467V27.6628C10.8413 27.5465 10.9816 27.4291 11.1145 27.3107C11.2495 27.1923 11.369 27.075 11.4728 26.9586C11.5767 26.8402 11.6577 26.7249 11.7159 26.6128C11.7761 26.5006 11.8062 26.3926 11.8062 26.2887C11.8062 26.2118 11.7927 26.1412 11.7657 26.0768C11.7387 26.0104 11.6951 25.9563 11.6349 25.9148C11.5767 25.8732 11.4978 25.8525 11.3981 25.8525C11.3004 25.8525 11.2194 25.8743 11.155 25.9179C11.0906 25.9595 11.0418 26.0155 11.0086 26.0862C10.9774 26.1547 10.9618 26.2305 10.9618 26.3136H10.7094C10.7115 26.1703 10.7416 26.0477 10.7998 25.946C10.86 25.8421 10.9421 25.7632 11.046 25.7091C11.1498 25.6551 11.2682 25.6281 11.4012 25.6281C11.532 25.6281 11.6473 25.6531 11.747 25.7029C11.8468 25.7507 11.9247 25.8224 11.9807 25.9179C12.0389 26.0135 12.068 26.134 12.068 26.2794C12.068 26.3811 12.0462 26.4829 12.0025 26.5847C11.961 26.6865 11.9049 26.7862 11.8343 26.8839C11.7637 26.9794 11.6847 27.0718 11.5975 27.1612C11.5123 27.2505 11.424 27.3346 11.3326 27.4136C11.2433 27.4925 11.1592 27.5642 11.0802 27.6286H12.1428V27.8467H10.6939ZM13.3904 27.8841C13.2533 27.8841 13.1359 27.8581 13.0383 27.8062C12.9407 27.7522 12.8628 27.6805 12.8046 27.5912C12.7485 27.4998 12.7143 27.4001 12.7018 27.292H12.9448C12.9656 27.4084 13.0155 27.4987 13.0944 27.5631C13.1733 27.6254 13.273 27.6566 13.3935 27.6566C13.5036 27.6566 13.6013 27.6234 13.6864 27.5569C13.7716 27.4904 13.8401 27.3897 13.8921 27.2547C13.9461 27.1175 13.9762 26.9441 13.9824 26.7343C13.9824 26.7281 13.9824 26.7218 13.9824 26.7156C13.9824 26.7094 13.9824 26.7031 13.9824 26.6969C13.9513 26.7613 13.9056 26.8215 13.8453 26.8776C13.7851 26.9337 13.7134 26.9784 13.6303 27.0116C13.5493 27.0448 13.4579 27.0615 13.3561 27.0615C13.2336 27.0615 13.1172 27.0324 13.0071 26.9742C12.8991 26.9161 12.8108 26.835 12.7423 26.7312C12.6758 26.6252 12.6426 26.5016 12.6426 26.3604C12.6426 26.2378 12.6727 26.1204 12.7329 26.0083C12.7932 25.8961 12.8794 25.8047 12.9916 25.7341C13.1037 25.6634 13.2367 25.6281 13.3904 25.6281C13.5462 25.6281 13.6781 25.6582 13.7861 25.7185C13.8942 25.7767 13.9804 25.8556 14.0448 25.9553C14.1112 26.0529 14.159 26.1641 14.1881 26.2887C14.2172 26.4133 14.2317 26.5401 14.2317 26.6689C14.2317 26.9077 14.1985 27.1186 14.132 27.3014C14.0676 27.4842 13.9721 27.6275 13.8453 27.7314C13.7207 27.8332 13.5691 27.8841 13.3904 27.8841ZM13.4091 26.834C13.5047 26.834 13.5909 26.8122 13.6677 26.7686C13.7446 26.7249 13.8048 26.6657 13.8485 26.591C13.8942 26.5162 13.917 26.4341 13.917 26.3448C13.917 26.2492 13.8942 26.1651 13.8485 26.0924C13.8048 26.0197 13.7446 25.9626 13.6677 25.921C13.5909 25.8795 13.5047 25.8587 13.4091 25.8587C13.3135 25.8587 13.2273 25.8805 13.1505 25.9241C13.0757 25.9657 13.0165 26.0228 12.9729 26.0955C12.9293 26.1682 12.9074 26.2524 12.9074 26.3479C12.9074 26.4455 12.9293 26.5307 12.9729 26.6034C13.0165 26.6761 13.0757 26.7332 13.1505 26.7748C13.2273 26.8143 13.3135 26.834 13.4091 26.834ZM15.4853 27.8841C15.3441 27.8841 15.2174 27.8581 15.1052 27.8062C14.993 27.7522 14.9037 27.6784 14.8372 27.5849C14.7708 27.4894 14.7375 27.3793 14.7375 27.2547C14.7375 27.1653 14.7552 27.0822 14.7905 27.0054C14.8258 26.9285 14.8746 26.862 14.9369 26.806C15.0013 26.7478 15.0751 26.7073 15.1582 26.6844C15.0418 26.6429 14.9515 26.5785 14.8871 26.4912C14.8248 26.404 14.7936 26.3095 14.7936 26.2077C14.7936 26.0997 14.8216 26.002 14.8777 25.9148C14.9338 25.8275 15.0128 25.758 15.1145 25.706C15.2184 25.6541 15.342 25.6281 15.4853 25.6281C15.6308 25.6281 15.7544 25.6541 15.8561 25.706C15.96 25.758 16.0389 25.8275 16.093 25.9148C16.149 26.002 16.1771 26.0997 16.1771 26.2077C16.1771 26.3095 16.1449 26.404 16.0805 26.4912C16.0182 26.5785 15.9288 26.6429 15.8125 26.6844C15.8977 26.7073 15.9714 26.7478 16.0338 26.806C16.0981 26.862 16.147 26.9285 16.1802 27.0054C16.2155 27.0822 16.2332 27.1653 16.2332 27.2547C16.2332 27.3793 16.1999 27.4894 16.1335 27.5849C16.0691 27.6784 15.9797 27.7522 15.8655 27.8062C15.7533 27.8581 15.6266 27.8841 15.4853 27.8841ZM15.4853 27.6535C15.6495 27.6535 15.771 27.6161 15.8499 27.5413C15.9309 27.4645 15.9714 27.3637 15.9714 27.2391C15.9714 27.0978 15.9268 26.9908 15.8374 26.9181C15.7502 26.8454 15.6328 26.8091 15.4853 26.8091C15.3379 26.8091 15.2195 26.8454 15.1301 26.9181C15.0429 26.9908 14.9993 27.0978 14.9993 27.2391C14.9993 27.3637 15.0398 27.4645 15.1208 27.5413C15.2018 27.6161 15.3233 27.6535 15.4853 27.6535ZM15.4853 26.591C15.6162 26.591 15.7201 26.5567 15.7969 26.4881C15.8738 26.4196 15.9122 26.3313 15.9122 26.2233C15.9122 26.1007 15.8738 26.0083 15.7969 25.946C15.7222 25.8836 15.6183 25.8525 15.4853 25.8525C15.3545 25.8525 15.2506 25.8836 15.1738 25.946C15.099 26.0083 15.0616 26.1007 15.0616 26.2233C15.0616 26.3313 15.099 26.4196 15.1738 26.4881C15.2506 26.5567 15.3545 26.591 15.4853 26.591ZM16.7685 27.8467V27.6628C16.916 27.5465 17.0562 27.4291 17.1891 27.3107C17.3242 27.1923 17.4436 27.075 17.5475 26.9586C17.6513 26.8402 17.7323 26.7249 17.7905 26.6128C17.8508 26.5006 17.8809 26.3926 17.8809 26.2887C17.8809 26.2118 17.8674 26.1412 17.8404 26.0768C17.8134 26.0104 17.7697 25.9563 17.7095 25.9148C17.6513 25.8732 17.5724 25.8525 17.4727 25.8525C17.375 25.8525 17.294 25.8743 17.2296 25.9179C17.1652 25.9595 17.1164 26.0155 17.0832 26.0862C17.052 26.1547 17.0365 26.2305 17.0365 26.3136H16.7841C16.7861 26.1703 16.8163 26.0477 16.8744 25.946C16.9347 25.8421 17.0167 25.7632 17.1206 25.7091C17.2244 25.6551 17.3429 25.6281 17.4758 25.6281C17.6067 25.6281 17.722 25.6531 17.8217 25.7029C17.9214 25.7507 17.9993 25.8224 18.0554 25.9179C18.1135 26.0135 18.1426 26.134 18.1426 26.2794C18.1426 26.3811 18.1208 26.4829 18.0772 26.5847C18.0356 26.6865 17.9795 26.7862 17.9089 26.8839C17.8383 26.9794 17.7593 27.0718 17.6721 27.1612C17.5869 27.2505 17.4986 27.3346 17.4072 27.4136C17.3179 27.4925 17.2338 27.5642 17.1549 27.6286H18.2174V27.8467H16.7685Z" fill="#4D4D63" fill-opacity="0.76"/>
</svg>
